<svg width="18" height="23" viewBox="0 0 18 23" fill="none" xmlns="http://www.w3.org/2000/svg">
<path d="M10.7478 8.19746V12.7782L11.4922 16.7132L12.8505 21.8625L8.81447 13.014H8.04355L6.6234 12.7782V8.19746L0.436798 4.91604L7.34871 6.61744L10.7478 6.51656L17.4499 4.91604L10.7478 8.19746Z" fill="black"/>
<path d="M6.9628 2.01994C6.9313 1.07202 7.66391 0.239325 8.61235 0.23743C9.56256 0.235532 10.3001 1.07026 10.2685 2.01994C10.238 2.93733 9.53024 3.68957 8.61235 3.68773C7.69628 3.68589 6.99323 2.93551 6.9628 2.01994Z" fill="black"/>
<path d="M17.86 5.75362C17.0936 6.14804 16.0736 6.35521 15.6335 6.59716C15.1558 6.8598 14.5278 7.24047 13.8017 7.51296C13.0757 7.78546 12.3026 8.37338 11.4789 8.62862C11.4246 8.64544 11.369 8.66302 11.312 8.68082C11.2154 9.32558 11.1174 9.97609 11.0431 10.3437C10.9305 10.9001 10.9052 11.0358 10.974 11.5714C11.0135 11.8793 10.9762 12.3036 10.8308 12.6619C10.805 12.7254 10.7754 12.7608 10.7461 12.7729C10.7468 12.7768 10.7476 12.7806 10.7482 12.7845C10.7973 12.7495 10.862 12.7967 10.9158 12.9088C11.0355 13.158 11.0295 13.3822 11.1801 13.4938C11.4812 13.7167 11.5988 13.8134 11.5179 14.1821C11.4369 14.5507 11.798 14.6489 11.7976 14.8549C11.7972 15.061 11.6016 15.0946 11.9431 16.0773C12.0084 16.2651 12.0664 16.437 12.1183 16.5948L12.1084 16.5508C12.3749 17.2015 12.5145 17.6087 12.6236 17.9059C12.7585 18.2733 12.7996 19.1041 13.0217 19.7023C13.1986 20.1788 13.4084 21.077 13.6034 21.664L12.1422 22.1857C12.0677 22.0463 11.9975 21.9267 11.9347 21.8389C11.6262 21.4077 11.8279 21.3144 11.7663 20.8803C11.7047 20.4461 11.0681 20.3725 10.9259 19.8739C10.7838 19.3753 11.0167 19.1846 10.7134 18.6777C10.4103 18.1707 10.3475 17.5537 10.1303 17.3655C9.91298 17.1773 10.2304 17.0022 10.0033 16.6978C9.77622 16.3934 9.72584 16.169 9.69805 15.8249C9.67024 15.4807 9.34766 14.5317 9.06581 14.2616C8.78397 13.9916 8.84004 13.5113 8.79087 13.2603C8.7895 13.2533 8.78856 13.2462 8.78739 13.2394C8.78565 13.2539 8.78412 13.2747 8.78275 13.3059C8.77163 13.5603 8.76697 13.6578 8.75292 13.5097C8.73889 13.3618 8.73227 13.6979 8.72409 13.6595C8.7159 13.6208 8.716 13.4222 8.67437 13.5752C8.63274 13.7281 8.60992 13.7672 8.59416 13.8039C8.57839 13.8404 8.54543 13.6683 8.51975 13.7305C8.49405 13.7926 8.44186 13.7357 8.42081 13.8375C8.39977 13.9391 8.3997 13.717 8.38269 13.5929C8.36568 13.4689 8.35222 14.0172 8.33148 13.9399C8.31074 13.8624 8.30767 13.5713 8.28392 13.6368C8.26018 13.7022 8.23649 13.5033 8.22592 13.6227C8.22 13.6897 8.21658 13.6059 8.21249 13.5332C8.19011 13.6255 8.09093 13.6716 8.09715 13.875C8.10337 14.1778 8.23948 14.4018 8.01197 14.6753C7.78347 14.9505 8.27075 15.196 7.82884 15.5428C7.38726 15.8868 7.90474 16.1181 7.82138 16.5859C7.73774 17.054 7.24702 17.507 7.17655 17.7818C7.10641 18.056 7.04059 18.4357 6.83482 18.7866C6.62929 19.137 6.63795 19.6642 6.36068 20.0338C6.08468 20.4007 5.70818 20.9318 5.50157 21.1607C5.2969 21.3848 5.24512 21.45 5.21155 21.7292C5.18912 21.8961 5.07676 22.087 4.86601 22.2074C4.8373 22.2262 4.81795 22.2215 4.78862 22.2311C4.77662 22.2315 4.76384 22.2274 4.76161 22.2166C4.75984 22.206 4.77099 22.1941 4.75398 22.1866C4.73731 22.1802 4.72023 22.1851 4.71139 22.1814C4.7011 22.18 4.69837 22.1657 4.69117 22.1602C4.67872 22.1459 4.67199 22.1236 4.67112 22.0949C4.66779 22.06 4.66985 22.0286 4.67377 21.9996C4.61293 22.055 4.5485 22.1033 4.51468 22.1458C4.48751 22.1799 4.45552 22.2043 4.42436 22.2214C4.41113 22.2285 4.38726 22.2275 4.36486 22.2222C4.33695 22.2155 4.3112 22.202 4.31067 22.1886C4.30815 22.1232 4.28476 22.0209 4.20925 21.8886C4.06842 21.6419 4.28245 21.6696 4.25034 21.3742C4.21822 21.0788 4.06315 20.8689 4.26509 20.5785C4.46706 20.2882 3.95946 20.0893 4.36503 19.7081C4.77059 19.327 4.23261 19.1483 4.26708 18.6803C4.30159 18.2123 4.74043 17.7158 4.78017 17.4382C4.81987 17.1606 4.84298 16.7805 5.00738 16.4127C5.17177 16.045 5.10228 15.526 5.33303 15.1318C5.56382 14.7377 5.87074 14.1757 6.04647 13.9242C6.22219 13.6727 6.26303 13.6109 6.25992 13.3277C6.25814 13.165 6.34484 12.962 6.5289 12.817C6.56111 12.7916 6.59354 12.7807 6.62319 12.7812C6.62357 12.7788 6.6238 12.7764 6.62419 12.7741L6.62452 12.7717C6.56968 12.797 6.51478 12.7399 6.48266 12.6218C6.41139 12.3596 6.45899 12.1443 6.33168 12.0092C6.07727 11.7394 5.97959 11.6246 6.12768 11.2839C6.2757 10.9432 5.9393 10.7826 5.97803 10.584C6.0168 10.3854 6.21527 10.3886 6.06238 9.37885C6.02394 9.12501 5.99258 8.89993 5.96676 8.69921C5.81582 8.63663 5.68929 8.58289 5.5778 8.5368C5.22273 8.39003 4.59793 7.86378 4.01816 7.62664C3.43838 7.3895 2.34563 6.74526 1.84667 6.59584C1.3535 6.44813 1.44838 6.25446 1.1546 5.9573C1.02936 5.96578 0.889618 5.96258 0.727863 5.93691C0.560372 5.91033 0.388025 5.86818 0.215111 5.81676L0.220911 5.80152C0.145614 5.79138 0.0713802 5.77292 0 5.73987L0.659751 4.01069C0.702005 4.01871 0.744514 4.03106 0.787193 4.04881C0.93767 4.11142 1.04032 4.18486 1.12925 4.25812C1.27238 4.35217 1.4127 4.45094 1.54804 4.54864C1.6263 4.57952 1.71931 4.60403 1.8359 4.61907C2.411 4.69322 2.92327 5.02431 3.20098 4.96958C3.47867 4.91477 3.41866 5.27237 3.79162 5.28147C4.1645 5.29059 4.36765 5.38919 4.64891 5.57945C4.93026 5.76973 5.85676 6.10107 6.23689 6.04596C6.61701 5.99089 6.95136 6.33114 7.17423 6.44718C7.24365 6.48333 7.29573 6.52233 7.33399 6.55888C7.34129 6.56588 7.34569 6.57484 7.34807 6.58457C7.34803 6.54189 7.35688 6.50174 7.3731 6.47585C7.41861 6.4033 7.45906 6.44963 7.47982 6.32173C7.52133 6.06597 7.5393 5.96778 7.60561 6.11391C7.67191 6.26003 7.69118 5.92302 7.72841 5.96045C7.76566 5.99811 7.77098 6.19663 7.94999 6.03834C8.129 5.88003 8.22843 5.83796 8.29685 5.7992C8.36527 5.76044 8.51553 5.92833 8.62697 5.86283C8.73839 5.79734 8.97031 5.84742 9.06018 5.74302C9.1419 5.64793 9.15516 5.82304 9.21612 5.94719C9.22654 5.92142 9.2411 5.90911 9.26236 5.91951C9.2748 5.92561 9.28672 5.9348 9.29849 5.94586C9.34403 5.83084 9.3851 5.57648 9.45079 5.62883C9.54453 5.70363 9.56693 5.9942 9.66971 5.92564C9.77249 5.85714 9.88318 6.05282 9.92625 5.93194C9.96932 5.8112 9.9849 6.17227 10.0487 6.09004C10.1125 6.00786 10.1541 6.05388 10.2154 6.16959C10.2618 6.257 10.3763 6.33237 10.4556 6.30118C10.4568 6.29698 10.4585 6.2928 10.4594 6.28825C10.4696 6.23745 10.4904 6.22746 10.5159 6.23837C10.5165 6.23694 10.5176 6.2357 10.5182 6.23422C10.5786 6.08801 10.6599 6.33605 10.706 6.39415C10.7204 6.41224 10.732 6.43733 10.7411 6.46342C10.7428 6.46824 10.7438 6.47541 10.7449 6.48381C10.747 6.466 10.7555 6.45055 10.7711 6.44436C10.8864 6.39871 11.054 6.31081 11.2406 6.15915C11.5886 5.87634 11.6815 6.07488 12.1891 5.85107C12.6967 5.62722 12.9694 5.35698 13.6239 5.33334C14.2784 5.30968 14.2965 4.75021 15.2492 4.83733C16.2018 4.92442 16.1635 4.35304 17.0246 4.07019C17.0924 4.04793 17.1621 4.02757 17.2334 4.00904L17.86 5.75362ZM10.6496 13.2803C10.601 13.1615 10.6238 13.4817 10.5991 13.4466C10.5739 13.4105 10.5502 13.2136 10.4644 13.3781C10.3785 13.5426 10.3259 13.5883 10.2908 13.6295C10.2558 13.6708 10.1524 13.5099 10.0955 13.5795C10.0386 13.6491 9.90061 13.6085 9.86013 13.716C9.81967 13.8234 9.79268 13.603 9.73501 13.485C9.67731 13.367 9.71007 13.9156 9.64867 13.845C9.58728 13.7743 9.54435 13.4865 9.49272 13.5588C9.45054 13.6177 9.38691 13.5015 9.35848 13.5235C9.57382 13.7546 9.46552 13.9022 9.74893 14.3097C10.0677 14.7679 10.3862 14.9853 10.537 15.6268C10.6088 15.9325 10.7718 16.0726 10.9337 16.2387C10.92 15.8403 10.9106 15.4823 10.9133 15.2407C10.9198 14.6695 10.9192 14.5306 10.7514 14.0137C10.6856 13.811 10.6449 13.548 10.6496 13.2803ZM7.15335 13.453C7.14234 13.3254 7.02774 13.8623 7.00221 13.7797C6.99028 13.7409 6.9931 13.6573 6.99392 13.5851C6.97739 13.6049 6.95509 13.6259 6.92548 13.6479C6.74038 13.7856 7.04841 13.9449 6.98679 14.0362C6.92516 14.1275 6.73241 14.0798 6.75942 14.6254C6.76484 14.7349 6.76751 14.834 6.76903 14.9242C6.84326 14.8821 7.01769 14.8936 7.00734 14.7449C6.99209 14.5394 7.07332 14.4458 7.23754 14.3252C7.37519 14.2267 7.5794 13.8843 7.59119 13.6492C7.55364 13.6889 7.5288 13.7075 7.50833 13.7258C7.47328 13.7571 7.44088 13.5772 7.38337 13.6307C7.32586 13.6842 7.23897 13.612 7.18351 13.7059C7.12806 13.7999 7.16435 13.5807 7.15335 13.453ZM9.29799 13.4643C9.28411 13.4146 9.27002 13.3762 9.25872 13.4103C9.25692 13.4157 9.25455 13.4203 9.25275 13.4247C9.25569 13.4272 9.25856 13.4298 9.26153 13.4323C9.27445 13.4431 9.28648 13.4539 9.29799 13.4643ZM9.03051 13.2078C9.06646 13.2487 9.10764 13.2917 9.15414 13.336C9.12501 13.2677 9.0719 13.2093 9.03051 13.2078ZM6.75246 13.0445C6.75051 13.1017 6.74976 13.1512 6.78361 13.1995C6.78315 13.1908 6.78235 13.1817 6.78196 13.1721C6.7799 13.1223 6.76847 13.0741 6.75246 13.0445ZM8.81391 13.0149C8.81415 13.0147 8.81433 13.0145 8.81457 13.0144C8.81438 13.0129 8.81426 13.0114 8.81408 13.0099C8.81392 13.0086 8.8139 13.0072 8.81374 13.0059C8.81382 13.0089 8.81386 13.0119 8.81391 13.0149ZM8.04296 13.014C8.04318 13.0141 8.0434 13.0141 8.04362 13.0142V13.0092C8.04342 13.0108 8.04317 13.0124 8.04296 13.014ZM13.1231 6.21268C12.7114 6.25866 12.2195 6.36564 12.0127 6.51181C11.6958 6.73593 11.2378 6.58778 10.9836 6.58738C10.9044 6.58727 10.8395 6.5767 10.7882 6.56186C10.767 6.55569 10.7531 6.53581 10.7474 6.51397C10.7475 6.51491 10.7476 6.51584 10.7476 6.51678C10.7479 6.51811 10.7484 6.51944 10.7487 6.52076C10.7554 6.5487 10.7596 6.5768 10.7559 6.58142C10.7379 6.60382 10.7158 6.6569 10.701 6.76753C10.6735 6.97377 10.6156 6.76686 10.5408 6.88735C10.4659 7.00785 10.4534 7.216 10.3081 7.11803C10.1628 7.0201 10.2616 7.55164 10.0277 7.29287C9.79382 7.03424 9.90784 7.58761 9.76302 7.6994C9.61818 7.81116 9.34092 7.55694 9.2491 7.60543C9.17937 7.64226 9.09565 7.70612 8.99107 7.71746L8.63294 7.7163C8.60187 7.70433 8.57128 7.68669 8.54229 7.66111C8.42166 7.55467 8.20576 7.69523 8.08472 7.52853C7.96369 7.3618 7.78774 7.14549 7.71482 7.01164C7.64192 6.8778 7.62365 6.84721 7.51115 6.89033C7.44649 6.91509 7.37924 6.86017 7.34973 6.70323C7.34456 6.67574 7.34523 6.64605 7.3499 6.61738C7.34968 6.61538 7.34925 6.61341 7.34907 6.61141C7.34865 6.61481 7.34856 6.61837 7.34774 6.62169C7.34086 6.64953 7.32061 6.67364 7.29554 6.67124C7.17358 6.65937 6.98641 6.66103 6.75362 6.71101C6.31955 6.80422 6.32845 6.5855 5.78115 6.55358C5.508 6.53765 5.28096 6.55849 5.0493 6.5491C5.56736 6.79757 6.1369 7.03545 6.59751 7.38154C6.70125 7.45949 6.81182 7.54194 6.92614 7.62698L7.30134 7.87672L7.26935 8.19757C7.14938 8.98149 7.01408 9.90755 6.91868 10.3735C6.80616 10.9231 6.78082 11.0571 6.84957 11.5861C6.88355 11.8476 6.86047 12.1939 6.76108 12.5107C6.76715 12.5164 6.77597 12.514 6.7914 12.4893C6.84869 12.3977 6.90591 12.2049 6.93293 12.3402C6.95997 12.4753 7.05958 11.9447 7.07744 12.2577C7.0953 12.5708 7.19494 12.0149 7.27499 11.9521C7.35501 11.8894 7.38952 12.2109 7.43458 12.1922C7.47966 12.1735 7.54534 12.1177 7.59103 12.2008C7.63671 12.2839 7.73898 12.1103 7.78111 12.252C7.82324 12.3938 7.88608 12.5746 7.90938 12.6925C7.93268 12.8104 7.93868 12.8372 7.99009 12.776C8.01966 12.7409 8.04537 12.783 8.04843 12.9308C8.04845 12.9321 8.04825 12.9335 8.04826 12.9348C8.05301 12.9105 8.05944 12.8641 8.06649 12.7809C8.08294 12.5867 8.08471 12.8013 8.10693 12.7015C8.12914 12.6017 8.14261 12.4022 8.16874 12.5311C8.19489 12.6601 8.20078 12.1203 8.23768 12.4262C8.27458 12.7321 8.27849 12.1677 8.31524 12.0924C8.35201 12.0174 8.39847 12.3287 8.42064 12.3031C8.44281 12.2772 8.47258 12.2115 8.504 12.286C8.53543 12.3605 8.57438 12.1724 8.60907 12.3054C8.64377 12.4384 8.69281 12.6063 8.71547 12.7189C8.73812 12.8314 8.74355 12.8567 8.76535 12.788C8.77789 12.7484 8.79518 12.7858 8.80977 12.9312C8.81034 12.9368 8.8103 12.9427 8.81076 12.9487C8.82113 12.9294 8.83428 12.881 8.84374 12.7755C8.86149 12.5778 8.89192 12.7903 8.93555 12.6844C8.97919 12.5785 8.98859 12.3764 9.06979 12.4965C9.15096 12.6165 9.10061 12.0787 9.23021 12.3712C9.35982 12.6636 9.3012 12.1018 9.38433 12.016C9.46748 11.9303 9.62172 12.2255 9.67419 12.193C9.72665 12.1606 9.79335 12.0861 9.88118 12.1504C9.96902 12.2148 10.0436 12.0163 10.1467 12.1377C10.2498 12.259 10.3931 12.4108 10.4635 12.5155C10.533 12.6188 10.5502 12.643 10.5951 12.5717C10.5408 12.3281 10.5756 12.1282 10.4561 11.9998C10.2017 11.7266 10.104 11.6104 10.2521 11.2655C10.4001 10.9205 10.0637 10.7579 10.1024 10.5568C10.1412 10.3558 10.3397 10.3589 10.1868 9.33659C10.117 8.86977 10.0707 8.49926 10.0378 8.19757L10.0015 7.82817L10.4357 7.55986C10.7408 7.3668 10.9667 7.23326 11.1468 7.12284C11.4784 6.91961 12.2804 6.71869 12.8198 6.38537C12.9064 6.33187 13.0094 6.27388 13.1231 6.21268ZM8.97151 0.0392652C9.27759 -0.0851114 9.2505 0.118256 9.60491 0.202836C9.95452 0.307022 10.3106 0.361739 10.4468 0.829607C10.5028 1.05817 10.6432 1.14056 10.7726 1.28502C10.8964 1.42302 11.0113 1.6429 10.8573 1.98769C10.8491 2.00525 10.8413 2.02222 10.8339 2.03873C10.5218 2.59833 11.0469 2.80068 10.706 3.51236C10.3128 4.26366 9.18086 4.38918 8.78458 4.39269C8.72885 4.39996 8.67163 4.40616 8.6109 4.41026C8.20506 4.44591 7.62315 4.34297 7.21964 3.95468C6.76919 3.55378 6.19434 2.92082 6.26606 2.2149C6.27156 2.15827 6.27895 2.10104 6.28859 2.04238C6.37174 1.37526 6.87805 0.75075 7.18682 0.591957C7.52205 0.40706 7.5882 0.392362 7.86215 0.17516C8.02236 0.0537783 8.32539 0.0155402 8.54345 0.156101C8.65256 0.226758 8.62002 0.328061 8.53168 0.380658C8.40407 0.459021 8.28914 0.438245 8.26122 0.578368C8.21338 0.860122 8.24658 0.950558 8.05704 0.886616C7.85347 0.838108 8.01044 1.15029 7.94071 1.16354C7.90233 1.17439 7.84689 1.14561 7.78144 1.16785C7.71925 1.18896 7.63198 1.27137 7.62119 1.48439C7.61522 1.73217 7.66243 1.88442 7.69808 1.99548C7.72451 2.07508 7.74975 2.13269 7.77498 2.17877C7.82514 2.27746 7.78208 2.60896 7.98827 2.71622C8.14312 2.81046 8.42661 2.96605 8.61405 2.89437C8.63799 2.88635 8.65804 2.87561 8.67437 2.86239C8.7997 2.74522 8.82707 2.96642 9.01609 3.02911C9.11098 3.05653 9.12897 2.92424 9.11354 2.79842C9.10147 2.66998 9.05744 2.55285 9.12796 2.53359C9.26457 2.49173 9.54424 2.61046 9.56995 2.38195C9.57879 2.23886 9.67168 2.11711 9.69474 2.00095C9.70647 1.94472 9.69982 1.89587 9.65695 1.86704C9.5285 1.79164 9.88766 1.72206 9.76749 1.58448C9.64443 1.462 9.65532 1.37772 9.677 1.19172C9.72361 1.00317 9.38937 0.566746 9.16011 0.646315C8.96379 0.71155 8.86044 0.43456 8.72276 0.364914C8.68412 0.343581 8.65334 0.31756 8.62813 0.291001C8.61753 0.279748 8.61245 0.256239 8.61239 0.233163C8.6123 0.204466 8.62052 0.176133 8.63542 0.172674C8.7076 0.156093 8.81492 0.114427 8.97151 0.0392652Z" fill="black"/>
</svg>
