<svg width="181" height="235" viewBox="0 0 181 235" fill="none" xmlns="http://www.w3.org/2000/svg">
<path d="M0.000964642 118.178C-0.024013 117.586 0.438309 116.791 0.530626 116.098C0.928397 113.246 1.35649 112.18 1.92807 109.662C2.61713 105.856 5.2185 94.7034 7.89911 95.5725C7.89917 95.5725 7.89924 95.5725 7.8993 95.5726C7.92452 95.5807 7.94969 95.59 7.97483 95.6005C8.45098 95.7986 8.69748 96.877 9.21371 97.1817C9.73057 97.4859 13.3424 98.5182 13.1811 99.7886C12.9057 101.586 10.8927 105.637 10.7401 106.644C10.6231 107.312 10.7882 108.191 10.687 109.032C10.3604 111.8 9.89987 113.188 10.5199 115.755C9.91987 116.658 9.32993 117.619 8.75876 118.571C8.87123 119.871 8.11871 121.828 8.12991 122.622C8.1359 123.275 8.5126 123.654 8.5183 124.341C8.52781 125.109 8.10096 126.264 8.19529 127.653C8.35948 129.943 9.40421 130.256 9.62044 131.603C9.84624 132.972 9.51455 135.206 10.1122 136.905C10.2529 137.113 10.3945 137.319 10.5367 137.524C10.7621 137.33 10.9882 137.136 11.2149 136.944C11.4556 137.808 11.0053 138.261 11.1284 139.065C11.2746 140.002 11.8477 140.408 11.9663 141.037C12.0642 141.554 11.8217 142.325 11.9928 142.989C12.2441 143.965 12.7484 143.622 12.9725 144.117C13.0373 144.318 14.3483 148.034 14.4343 148.223C14.9432 149.837 14.2502 150.191 14.6176 151.503C15.6499 155.125 17.7437 158.446 19.501 161.399C20.2815 162.715 21.0019 164.141 21.6682 165.533C18.7126 164.389 20.15 169.887 21.7755 166.548C22.2829 168.251 23.6473 168.83 24.4271 170.232C24.945 171.15 24.9924 171.972 25.9102 173.184C27.5253 175.322 30.315 176.631 29.1875 178.651C30.0018 179.343 30.6887 180.046 31.3129 180.63C32.7942 182.021 33.9401 183.104 35.4675 182.833C36.1774 183.401 36.8747 185.912 37.4098 186.803C37.9893 187.558 41.9646 193.814 42.4687 194.928C43.0846 195.966 44.0947 197.85 44.6953 198.681C45.4504 199.725 47.7393 199.782 46.4246 202.84C47.5639 205.269 47.7888 206.224 48.1652 208.683C48.2292 209.132 47.8996 209.264 47.9607 209.516C48.0854 210.026 48.5434 210.864 48.7568 211.79C49.1077 213.321 48.5002 214.312 49.5894 213.964C49.9375 214.952 50.2627 215.949 50.5701 216.939C50.3959 217.318 50.2201 217.701 50.0416 218.074C50.3346 218.58 50.6251 219.099 50.9119 219.606C49.2339 219.143 50.5282 222.761 51.3518 221.476C51.1848 223.408 51.0029 225.28 50.889 227.113C49.7327 227.09 50.1108 228.647 50.8435 229.636L47.9533 227.202C48.6851 226.863 49.2459 226.384 49.1032 225.999C49.3202 226 49.5372 226.001 49.7542 226.003C51.6541 226.496 53.3989 226.093 55.7147 226.423C58.0303 226.754 57.8129 226.934 58.5171 227.787C59.062 227.738 59.6069 227.689 60.1518 227.641C63.0112 225.303 62.5058 229.35 67.402 227.557C68.9664 229.026 72.8225 228.255 75.3794 227.809C75.6769 227.757 75.682 227.472 76.0782 227.384C77.047 227.173 79.5189 227.539 79.4344 226.62C80.2901 226.886 81.1458 227.152 82.0015 227.418C82.7009 227.251 83.4003 227.083 84.0998 226.916C84.0962 226.629 84.0927 226.342 84.0892 226.055C85.4976 227.033 87.7106 226.657 88.8023 226.891C89.0195 226.939 89.0665 227.335 89.7418 227.443C90.531 227.571 92.0018 227.454 92.9423 227.578C93.3079 227.139 93.6735 226.7 94.0392 226.261C95.721 226.023 96.3122 227.181 97.2998 227.271C97.4776 227.287 100.722 227.204 100.897 227.179C102.328 226.983 101.922 225.997 106.061 226.208C106.798 226.246 107.394 226.588 108.06 226.601C109.237 226.626 112.783 225.852 113.062 225.136C114.489 226.032 118.308 225.666 119.433 225.925C119.772 226.004 119.849 226.574 120.892 226.696C121.738 226.795 123.917 226.338 124.99 226.415C125.918 226.482 126.36 226.813 126.768 226.952L123.584 230.135C123.616 230.043 123.637 229.952 123.643 229.858C123.675 229.376 123.288 228.931 123.29 228.274C123.304 226.224 123.926 224.367 123.938 222.746C123.956 220.402 122.811 218.331 122.302 216.37C122.377 215.883 122.622 215.404 122.625 214.894C122.655 209.585 122.809 203.704 123.003 198.202L123.122 193.58L127.455 194.5C128.42 194.714 129.399 194.918 130.38 195.118C133.208 195.735 140.159 198.171 138.566 195.354C139.603 195.068 146.655 196.765 147.962 196.742C149.292 196.797 150.323 196.323 151.269 196.271C152.351 196.211 153.279 196.141 153.908 196.02C154.201 195.973 154.447 195.866 154.304 195.947C154.245 195.99 154.021 196.116 153.728 196.501C153.417 196.89 153.145 197.621 153.151 198.202C153.125 197.365 153.07 196.435 152.969 195.426C152.863 194.382 152.312 193.231 152.319 192.621C152.328 191.86 152.86 191.059 152.894 190.084C152.971 187.765 152.795 183.435 152.888 181.208C152.906 180.804 153.373 180.658 153.52 180.076C154.091 177.815 154.042 175.278 152.548 175.725C153.372 172.919 152.665 170.261 152.581 167.682L152.714 162.542L157.596 162.778C157.619 162.776 157.678 162.775 157.759 162.775C160.292 162.742 164.16 162.622 167.455 161.949C169.085 161.623 170.596 161.114 171.397 160.602C171.796 160.356 171.976 160.128 171.926 160.101C171.88 160.062 171.646 160.3 171.522 160.553C171.323 160.962 171.249 161.078 171.104 161.081C170.493 160.078 170.052 159.313 169.385 156.286C169.166 155.305 168.988 154.318 168.698 153.105C168.038 150.311 168.233 147.38 166.046 145.872C165.243 142.743 164.047 140.467 164.351 137.779C163.962 137.631 163.575 137.484 163.187 137.339C163.033 136.973 162.879 136.607 162.727 136.246C162.952 136.024 163.178 135.803 163.404 135.582C162.426 132.925 159.969 130.04 159.083 127.839C158.64 126.737 158 125.044 157.319 123.197L156.953 121.253C157.231 116.919 157.028 111.303 156.939 108.743C156.882 106.783 156.241 106.799 157.328 105.483C157.167 105.062 157.005 104.65 156.839 104.239C156.514 104.021 156.188 103.806 155.861 103.592C155.392 101.163 155.142 98.1936 154.492 95.9089C153.357 91.7246 150.382 85.9914 148.902 81.9875C148.545 80.9762 148.428 79.5116 147.903 78.5937C147.133 77.2582 146.125 77.4283 145.088 75.8233C143.368 73.0457 140.375 67.5322 137.999 65.4229C137.319 64.7899 136.756 64.7568 136.262 64.355C134.186 62.6914 132.457 61.3076 130.065 60.3624C128.308 58.1113 129.069 57.2409 128.909 55.7458C128.802 54.6237 127.874 51.7578 127.913 50.9019C127.957 50.2998 129.04 50.0406 129.031 49.3486C132.67 50.6763 133.822 52.0619 135.837 54.5142C140.482 57.768 144.602 61.7268 148.109 66.1269C148.162 66.7362 148.205 67.3422 148.24 67.9471C148.24 67.9476 148.239 67.948 148.238 67.9484C149.192 69.8775 150.389 70.131 151.195 70.99C159.533 79.1118 164.789 100.972 164.988 112.889C165.099 114.485 165.473 118.271 165.403 121.403L165.135 119.982C165.856 121.735 166.397 123.229 166.461 123.943C166.492 124.396 166.065 124.718 166.223 125.168C168.093 128.956 169.963 132.782 171.809 136.604C173.936 143.95 177.203 150.873 179.856 158.431C180.447 160.085 180.45 162.644 179.318 164.513C175.651 169.607 171.588 169.626 168.078 170.549C164.464 171.21 161.049 171.472 157.4 171.492L161.297 167.682C161.439 177.871 161.563 188.083 161.619 198.202C161.677 199.775 160.745 201.508 159.859 202.287C158.92 203.166 158.145 203.502 157.494 203.781C156.128 204.318 155.114 204.479 154.079 204.632C152.078 204.897 150.278 204.917 148.5 204.892C144.957 204.823 141.577 204.499 138.211 204.093C134.463 203.635 129.957 203.226 125.977 202.464L131.102 198.202C131.093 199.087 131.069 199.943 131.023 200.755C130.919 202.593 130.089 203.359 130.708 205.774C130.484 205.799 130.26 205.824 130.037 205.85C130.307 207.957 130.816 209.304 130.867 211.667C130.91 213.657 130.943 218.921 130.858 220.679C130.815 221.591 130.397 221.252 130.399 222.102C130.406 223.557 130.984 226.667 130.984 228.676C130.984 229.106 130.957 229.605 130.917 230.135L131.021 234.174L126.768 234.284C125.052 234.154 123.01 233.886 121.941 233.939C116.903 234.187 111.416 234.9 106.047 234.709C104.564 234.655 102.656 234.113 102.192 234.128C101.284 234.16 101.014 234.686 100.405 234.754C97.3093 235.096 92.4841 234.47 89.4499 234.446C79.5628 234.365 69.0887 234.594 59.2442 234.498C56.1438 234.467 52.0205 234.475 47.9533 234.442L44.4416 234.532L43.71 230.869C42.9991 226.427 42.8954 222.388 42.7862 219.601C42.7474 218.403 43.3546 218.655 43.2386 217.66C43.1049 216.556 42.633 216.029 42.5262 215.528C41.936 211.998 39.3793 205.019 38.1164 202.038C37.9125 201.466 38.0973 200.854 37.9141 200.522C37.8187 200.348 37.3534 200.14 37.0284 199.643C34.1367 195.314 31.828 192.193 28.2834 188.317C27.5667 187.546 26.8707 186.835 26.0853 186.072C18.62 178.736 12.1629 169.148 8.4458 159.351C7.55275 156.994 7.82992 155.046 7.70528 154.725C7.43504 154.001 6.69646 153.722 6.07986 152.27C3.98313 147.388 3.18247 140.3 2.3957 135.373C1.97252 132.942 1.00439 129.595 0.809213 127.114C0.611307 125.163 1.07943 120.548 0.829947 119.646C0.662852 119.111 0.0315604 118.82 0.000964642 118.178ZM26.4829 174.753C25.4653 175.166 28.2239 177.168 27.8655 175.855C27.7697 175.55 26.7518 174.664 26.4829 174.753ZM124.445 206.444C124.148 206.476 123.851 206.508 123.554 206.54C123.678 206.996 123.801 207.453 123.925 207.909C124.103 207.653 124.282 207.396 124.46 207.14C124.455 206.908 124.45 206.676 124.445 206.444Z" fill="black"/>
<path d="M106.368 30.8271C106.74 30.7731 107.265 31.0649 107.705 31.0803C109.544 31.1478 110.226 31.3501 111.89 31.4648C114.358 31.6352 121.682 31.2517 121.682 33.2792C121.682 33.2792 121.682 33.2793 121.682 33.2793C121.682 33.2992 121.681 33.3193 121.68 33.3396C121.654 33.7259 121.031 34.1476 120.939 34.5844C120.847 35.0214 120.916 37.8426 120.031 38.0012C118.748 38.2102 115.671 37.4868 114.986 37.5189C114.519 37.5409 113.943 37.7974 113.345 37.8429C111.416 37.9897 110.407 37.8022 108.67 38.4988C107.975 38.1317 107.28 37.7646 106.585 37.3975C105.678 37.5677 104.303 37.0835 103.753 37.1102C103.301 37.1321 103.036 37.4224 102.565 37.4359C102.088 37.451 101.382 37.1977 100.543 37.1824L97.96 37.1099L98.7657 34.765C98.7945 34.6783 98.8211 34.5892 98.8449 34.4977C99.2423 32.9714 98.6031 32.4779 98.7932 31.547C98.9906 30.5817 99.8382 29.2494 99.9569 27.9762C99.9241 27.8016 99.8914 27.627 99.8587 27.4524C99.6453 27.5035 99.4319 27.5546 99.2186 27.6056C99.3228 26.9782 99.7721 26.8348 99.9515 26.2844C100.163 25.6368 99.9169 25.1959 100.055 24.759C100.169 24.4011 100.601 24.0028 100.729 23.5327C100.916 22.8477 100.465 22.8694 100.503 22.4812C100.519 22.3266 101.137 19.5677 101.181 19.415C101.525 18.2562 102.111 18.3288 102.446 17.4239C103.376 14.9134 103.747 12.1541 104.316 9.74091C104.569 8.66329 104.945 7.57365 105.362 6.55041C106.262 8.64854 108.51 5.32997 105.864 6.00699C106.545 4.93631 106.205 3.92018 106.653 2.84334C106.781 2.53581 106.943 2.28606 107.11 2.01462L110.609 6.7738C110.219 6.67397 109.792 6.57563 109.193 6.58034C107.29 6.59736 105.208 7.51303 104.661 5.85799C102.427 6.14975 100.492 5.54939 99.6868 7.01045C99.1107 7.09971 97.6344 6.22944 96.9883 6.11122C96.3772 5.99986 91.6886 5.60691 90.9216 5.58497C90.1545 5.56304 88.8119 5.53919 88.1658 5.66737C87.3542 5.82597 86.7871 7.3412 85.3422 5.56959C83.6621 5.71295 83.0636 5.66226 81.501 5.45643C81.2181 5.41922 81.1861 5.15619 81.0209 5.15596C80.6804 5.15596 80.1012 5.35033 79.4935 5.37404C78.4941 5.41284 77.9238 4.85942 78.0352 5.70473C77.9879 5.7149 77.9406 5.72507 77.8933 5.73524L80.3727 3.97708C80.2945 4.59773 80.2163 5.21841 80.1382 5.83906C79.9078 6.00322 79.6774 6.16737 79.4469 6.33153C79.4982 6.72278 79.5495 7.11401 79.6007 7.50527C78.5832 6.71019 78.4443 9.28867 79.373 8.76115C78.7117 9.88274 78.0504 11.0043 77.3891 12.1259C76.1361 11.4979 76.3101 14.7193 77.1065 14.7324C77.0571 14.8699 77.0077 15.0075 76.9583 15.1451C76.1864 16.2302 76.083 17.439 75.333 18.8287C74.5832 20.2182 74.5038 20.0353 73.7435 20.2713C73.6567 20.6297 73.5699 20.9881 73.483 21.3466C74.5005 23.7436 71.7487 22.4184 71.9271 25.9749C70.5389 26.6046 70.226 29.2466 69.9717 30.982C69.9421 31.1839 70.1428 31.2579 70.1167 31.5315C70.0506 32.1997 69.2405 33.6797 69.9103 33.8541C69.5314 34.3319 69.1524 34.8097 68.7734 35.2875C68.736 35.7735 68.6986 36.2595 68.6611 36.7455C68.8651 36.8144 69.0691 36.8834 69.2731 36.9524C68.2668 37.6047 68.04 39.1044 67.6312 39.7402C67.5493 39.8664 67.2585 39.798 67.0316 40.2004C66.765 40.6701 66.5203 41.6339 66.2233 42.2009C66.4523 42.5421 66.6814 42.8833 66.9105 43.2245C66.7042 44.3524 65.7529 44.4408 65.4693 45.0461C65.4186 45.1552 64.7548 47.2376 64.7334 47.3548C64.5533 48.3128 65.3418 48.2999 64.2704 50.8777C64.0791 51.3366 63.7047 51.6307 63.5466 52.0506C63.479 52.23 63.4136 52.5091 63.3595 52.8341L60.1446 49.2719C61.0931 48.8629 62.3609 48.1155 62.4048 47.6867C63.4958 48.1163 65.9331 47.2512 66.7149 47.2638C66.9511 47.2686 67.1008 47.6726 67.8054 47.5977C68.3767 47.5375 69.724 46.8631 70.44 46.7508C71.2004 46.6332 71.5503 46.919 71.8905 46.8638C72.2117 46.8112 72.4353 46.4595 72.866 46.3582C74.2115 46.0469 75.5364 46.2101 76.6 45.9646C78.1385 45.6106 79.2949 44.451 80.4908 43.773C80.8226 43.7509 81.1788 43.8553 81.5135 43.777C82.0711 43.6473 82.639 43.5177 83.2144 43.3885L87.5309 42.4825L87.0086 46.6888C86.5945 50.4558 86.0645 54.5123 85.5534 58.1706C85.2802 60.1332 83.6493 64.9225 85.7111 63.8003C85.9844 64.5178 84.7258 69.4225 84.6231 70.3686C84.5205 71.3144 84.7956 72.0984 84.7293 72.8432C84.5288 75.0908 84.1268 76.6485 84.1666 79.4116C84.1779 80.1254 84.5166 80.9214 84.4716 81.3392C84.4166 81.8422 83.9667 82.3461 83.8788 82.9962C83.6724 84.5462 83.525 87.4575 83.3129 88.9431C83.2733 89.2143 82.9148 89.2765 82.7683 89.6557C82.196 91.1322 82.0697 92.8367 83.2138 92.6428C82.394 94.527 82.7988 96.3818 82.6611 98.1876C82.4311 101.178 81.8127 106.07 81.6275 109.667L74.6651 107.398C75.1344 106.519 75.5315 105.715 75.8119 105.041C76.6275 103.079 76.1677 102.87 78.1179 100.426C78.5507 99.8833 79.0109 99.3605 79.5342 98.7015C80.7618 97.1573 82.4737 96.0873 82.2697 94.2358C83.6247 92.5159 84.328 90.9235 85.9714 90.025C85.8706 89.7448 85.7699 89.4645 85.6691 89.1843C85.7998 88.9524 85.9304 88.7206 86.061 88.4887C86.2916 88.5287 86.5222 88.5687 86.7528 88.6087C87.7743 86.9983 88.2321 84.4591 89.0595 83.0739C90.4461 80.7509 94.2956 74.9326 95.8562 72.8754C96.6847 71.7833 96.3188 71.4815 97.5449 71.3012C97.6424 71.0049 97.7398 70.7086 97.8373 70.4124C97.7529 70.1409 97.6684 69.8694 97.584 69.5979C98.4666 68.09 99.8041 66.4734 100.649 65.0393C102.188 62.4257 104.008 58.2104 105.887 55.7835C106.359 55.1752 107.22 54.5752 107.596 53.9291C108.145 52.989 107.659 52.3936 108.35 51.1981C109.544 49.1382 112.524 45.7499 113.615 43.7808C113.939 43.1962 113.867 42.791 114.077 42.3793C114.957 40.6513 115.785 39.2952 116.373 37.487C117.983 36.1248 118.663 36.7277 119.753 36.6553C120.577 36.5989 122.664 36.1668 123.28 36.2948C123.713 36.3848 123.904 37.1187 124.403 37.1807C123.503 39.4222 122.644 40.079 121.099 41.417C119.299 44.5105 117.498 47.604 115.697 50.6976C115.315 50.8498 114.932 51.002 114.55 51.1542C114.55 51.1539 114.549 51.1536 114.549 51.1533C113.599 52.1885 113.859 53.0197 113.608 53.7325C111.204 60.557 103.142 72.0177 99.0259 78.661C98.1393 80.0928 95.6412 84.9788 94.7014 85.765C94.4576 85.9683 94.0816 85.8425 93.905 86.1077C92.6553 88.6719 91.4057 91.236 90.156 93.8002C86.6599 98.5248 84.0095 103.98 81.0889 109.097C80.7897 109.621 80.4907 110.145 80.1919 110.669L75.2347 109.053C76.4549 93.7764 77.6271 78.6409 79.1573 63.6344C79.4653 60.6201 79.5436 56.765 80.0135 53.8302C80.2091 52.6053 80.8781 52.1514 80.5716 50.4882C80.7402 50.4872 80.9088 50.4863 81.0774 50.4853C81.0115 49.0532 80.7182 48.1139 80.8316 46.5263C80.8406 46.4017 80.8515 46.258 80.8639 46.0989L84.6501 49.3922C83.1471 49.7796 80.2182 50.4954 79.1605 50.6886C78.5557 50.8003 78.7053 50.4422 78.1488 50.5769C77.1966 50.8098 75.2604 51.7184 73.9449 52.033C72.7532 52.3179 70.6601 52.4472 69.7561 52.7172C67.1452 53.4945 64.3974 54.5356 61.5812 55.2793L55.5625 56.8738L57.5304 50.7909C57.7527 50.1057 57.9925 49.4268 58.2565 48.7596C58.6252 47.8305 59.4336 46.7527 59.5264 46.4538C59.7062 45.8694 59.3938 45.5671 59.4817 45.163C59.9292 43.111 61.4468 40.1997 62.1402 38.2775C64.4 32.0143 66.5706 25.3009 68.832 19.0686C70.2604 15.1311 72.4972 8.53976 74.0566 4.98876C74.3929 4.22305 74.7275 4.57589 74.9591 3.91512C75.2158 3.18245 75.0792 2.68903 75.1769 2.33887C75.192 2.28473 75.2075 2.22914 75.2234 2.17217L75.8073 0.338951L77.8933 0.278839C80.478 0.111854 85.8287 -0.163905 88.1468 0.128052C88.5984 0.185389 88.926 0.524243 89.1964 0.523012C89.3333 0.523012 89.6425 0.291766 90.0721 0.268129C93.8658 0.0589101 96.6319 0.193772 100.349 0.273072C103.595 0.341514 107.074 0.289371 110.609 0.234405L114.434 0.127107L113.352 3.96517C112.156 8.01255 110.941 12.1357 109.606 15.9826C109.071 17.5228 108.098 18.3895 108.036 18.6103C107.899 19.0942 108.234 19.5359 108.036 20.5412C107.375 23.8824 105.556 28.0917 104.811 31.2331C104.456 32.7299 104.345 34.8832 104.027 36.4091L100.543 31.6706C100.6 31.665 100.656 31.6599 100.712 31.6554C101.963 31.5542 104.916 31.7787 105.471 31.5274C105.808 31.3756 105.964 30.8881 106.368 30.8271ZM108.051 6.20406C108.273 5.42455 105.932 6.07236 106.81 6.4908C107.008 6.58502 107.993 6.4064 108.051 6.20406ZM85.2905 50.4876C85.5142 50.4875 85.7379 50.4874 85.9616 50.4874C85.8987 50.1725 85.8358 49.8577 85.773 49.5429C85.6232 49.702 85.4735 49.8612 85.3237 50.0204C85.3127 50.1761 85.3016 50.3318 85.2905 50.4876Z" fill="black"/>
<path d="M43.3084 68.8735C43.4959 68.7029 43.9446 68.7808 44.2054 68.648C45.2992 68.0944 45.7932 68.0428 46.8097 67.5884C48.3171 66.9149 52.3462 64.1458 53.36 65.9016C53.36 65.9016 53.3601 65.9017 53.3601 65.9017C53.37 65.9189 53.3797 65.9366 53.389 65.9547C53.5674 66.2977 53.4192 66.8702 53.5843 67.2792C53.7496 67.6884 55.2001 70.1086 54.7695 70.5403C54.1347 71.1482 51.9995 71.5456 51.6212 71.8011C51.3627 71.9758 51.1591 72.3895 50.8371 72.628C49.7991 73.3968 49.1238 73.5701 48.4708 74.7515C47.8867 74.6648 47.3026 74.5781 46.7185 74.4914C46.2811 74.9406 45.247 74.9785 44.9428 75.1849C44.6933 75.3543 44.6859 75.6938 44.4211 75.8623C44.1542 76.0339 43.6203 76.0496 43.1292 76.3154L40.817 77.5235L40.3814 75.1105C40.3697 75.0508 40.355 74.9907 40.3368 74.9304C40.0332 73.9241 39.2533 73.9079 39.0218 73.3152C38.7819 72.7005 38.9614 71.6206 38.5192 70.8668C38.415 70.7832 38.3109 70.6996 38.2067 70.616C38.0393 70.7302 37.8718 70.8444 37.7043 70.9586C37.527 70.5688 37.8643 70.3084 37.7868 69.931C37.6958 69.4869 37.2879 69.3414 37.2228 69.0434C37.1698 68.7993 37.3821 68.4045 37.2932 68.0924C37.1651 67.6371 36.7742 67.8307 36.6411 67.6001C36.5889 67.5079 35.9502 65.7297 35.9238 65.6273C35.7314 64.846 36.2821 64.6507 36.1911 64.0137C35.9367 62.2475 35.0795 60.5682 34.5463 59.0013C34.3081 58.3016 34.1732 57.5462 34.1033 56.8109C35.8046 57.6119 36.373 54.867 34.3152 56.3075C34.4592 55.4398 33.7207 55.0131 33.655 54.2358C33.6365 54.0137 33.6727 53.8101 33.7047 53.5921L39.1144 55.9643C38.8394 56.0078 38.5444 56.0646 38.2016 56.2679C37.1134 56.9158 36.3715 58.4015 35.2286 57.1503C34.087 58.1463 32.6717 58.2702 32.9382 59.8034C32.6508 60.0724 31.3649 59.8099 30.9334 59.9225C30.5256 60.0294 27.627 61.2491 27.174 61.4853C26.721 61.7215 25.9353 62.1476 25.6271 62.4736C25.2387 62.881 25.6695 64.3819 23.9509 63.3284C23.0544 64.0116 22.6841 64.1668 21.6807 64.5085C21.4991 64.5704 21.3491 64.3532 21.2538 64.408C21.0576 64.5213 20.821 64.8823 20.4826 65.1051C19.9261 65.4712 19.3207 65.1817 19.8075 65.8767C19.7853 65.9012 19.7632 65.9257 19.741 65.9503L21.0091 63.188C21.2138 63.5635 21.4185 63.9391 21.6232 64.3146C21.4914 64.496 21.3596 64.6774 21.2278 64.8588C21.446 65.0562 21.6642 65.2536 21.8823 65.4509C20.6293 65.4072 21.6445 66.8946 22.2349 66.2381C22.1438 67.1201 22.0527 68.0022 21.9615 68.8843C20.5734 69.0255 22.1498 70.7479 22.8617 70.4435C22.8786 70.5393 22.8956 70.6351 22.9125 70.7309C22.7072 71.636 23.1492 72.3483 23.0978 73.4141C23.0465 74.4797 22.8954 74.4091 22.3255 74.8378C22.4068 75.0709 22.4881 75.3041 22.5693 75.5373C24.5295 76.4714 21.505 76.8115 23.2332 78.7184C22.2804 79.6115 23.1695 81.2023 23.7102 82.2663C23.773 82.3901 23.9836 82.3527 24.0813 82.515C24.3176 82.9122 24.2529 84.0517 24.9237 83.8866C24.7987 84.3004 24.6736 84.7143 24.5486 85.1281C24.7299 85.4128 24.9113 85.6976 25.0927 85.9823C25.304 85.9408 25.5153 85.8994 25.7266 85.8579C25.1224 86.6141 25.5834 87.5364 25.5017 88.0497C25.4848 88.1519 25.1968 88.2277 25.1732 88.54C25.1443 88.9054 25.3529 89.5368 25.3398 89.9682C25.6935 90.0682 26.0472 90.1682 26.4009 90.2682C26.716 90.9757 25.9117 91.3971 25.9274 91.8445C25.9307 91.925 26.2615 93.342 26.2943 93.4156C26.5576 94.0185 27.251 93.7028 27.4391 95.5547C27.4721 95.8845 27.2701 96.1945 27.3153 96.4897C27.3345 96.6159 27.3997 96.7966 27.4953 96.9984L22.93 95.5209C23.2997 94.9266 23.6823 93.969 23.4713 93.6085C24.3975 93.6562 25.4511 92.28 25.9505 92.0743C26.102 92.0129 26.421 92.2999 26.8231 92.0444C27.1494 91.8376 27.6227 90.9175 28.0111 90.6285C28.4246 90.3228 28.804 90.4584 28.9875 90.3195C29.1606 90.1881 29.1057 89.8406 29.3205 89.6393C29.9947 89.0147 30.92 88.7813 31.4532 88.288C32.2251 87.5754 32.3082 86.3138 32.6841 85.4325C32.8807 85.3229 33.1631 85.3093 33.3303 85.1532C33.6094 84.8938 33.895 84.6317 34.1854 84.3677L37.5423 81.4441L39.1215 85.3288C40.1203 87.6448 41.122 90.1783 41.9962 92.4786C42.466 93.7123 42.7649 97.1769 44.1717 95.5741C44.6716 95.8494 45.3395 99.2036 45.5915 99.7846C45.8436 100.365 46.3691 100.677 46.5803 101.128C47.2172 102.488 47.4273 103.554 48.4621 105.091C48.7302 105.488 49.316 105.776 49.4277 106.033C49.5612 106.342 49.348 106.837 49.5059 107.245C49.8852 108.215 50.8089 109.923 51.16 110.86C51.2233 111.031 50.9306 111.235 50.9389 111.517C50.97 112.618 51.4756 113.637 52.4114 112.989C52.3723 114.436 53.3993 115.29 53.9316 116.372C54.8114 118.164 56.0376 121.209 57.1762 123.322L50.012 124.838C49.9751 124.175 49.9139 123.579 49.8171 123.097C49.5352 121.694 49.0324 121.725 49.4882 119.669C49.5893 119.212 49.7239 118.759 49.8446 118.205C50.1286 116.908 51.0696 115.725 49.9619 114.722C50.2675 113.281 50.0742 112.128 51.0423 111.067C50.8143 110.938 50.5862 110.809 50.3582 110.681C50.3544 110.503 50.3506 110.326 50.3469 110.149C50.5663 110.096 50.7857 110.044 51.005 109.991C51.0777 108.723 50.1957 107.104 50.2139 106.03C50.2434 104.23 50.6429 99.5977 50.9565 97.894C51.1231 96.9895 50.655 96.9356 51.6239 96.4272C51.5591 96.2238 51.4942 96.0204 51.4294 95.817C51.2199 95.6879 51.0103 95.5587 50.8008 95.4296C50.8049 94.2669 51.1474 92.8915 51.156 91.7838C51.171 89.7655 50.6232 86.7286 51.0264 84.706C51.128 84.1989 51.5698 83.5683 51.5703 83.0706C51.5714 82.3463 50.8514 82.1624 50.8479 81.2432C50.843 79.6588 51.7134 76.7177 51.6655 75.2198C51.6517 74.7749 51.3854 74.5645 51.36 74.2571C51.2507 72.9681 51.284 71.9112 50.8823 70.6721C51.5884 69.3538 52.48 69.478 53.3853 69.0769C54.0687 68.7728 55.6548 67.8351 56.2518 67.706C56.6712 67.6153 57.2056 67.9766 57.6676 67.8481C58.0182 69.4404 57.6062 70.1034 56.9444 71.3861C56.9445 73.7682 56.9446 76.1502 56.9447 78.5323C56.691 78.7463 56.4372 78.9603 56.1835 79.1743C56.183 79.1742 56.1824 79.1742 56.1819 79.1742C55.8819 80.0858 56.5251 80.4804 56.6667 80.9753C58.0228 85.7132 56.8212 94.9966 56.6065 100.194C56.5607 101.314 56.8601 104.962 56.4435 105.727C56.335 105.924 55.9468 105.976 55.9276 106.187C56.1377 108.082 56.3478 109.976 56.5579 111.87C55.9136 115.754 56.3676 119.781 56.4181 123.702C56.4233 124.104 56.4286 124.506 56.4339 124.907L51.333 125.987C46.8785 116.811 42.433 107.737 38.349 98.567C37.5293 96.7248 36.2033 94.5174 35.5546 92.6437C35.2834 91.862 35.7074 91.2913 34.8362 90.4992C34.984 90.4193 35.1319 90.3393 35.2798 90.2594C34.7037 89.4841 34.106 89.0934 33.6313 88.1461C33.5941 88.0717 33.5517 87.9857 33.5051 87.8903L38.4306 88.8492C37.6996 89.5792 36.2533 90.9699 35.6946 91.419C35.3759 91.6768 35.2709 91.3446 34.9954 91.6078C34.5253 92.06 33.8114 93.3331 33.158 93.9521C32.566 94.5128 31.3197 95.1961 30.9006 95.6652C29.6889 97.018 28.5376 98.6229 27.1778 100.005L22.8474 104.417L21.4255 98.1435C21.3201 97.6757 21.233 97.2045 21.1725 96.7304C21.0891 96.0698 21.33 95.1545 21.2803 94.952C21.1817 94.5569 20.7713 94.5111 20.6708 94.2521C20.1617 92.9366 20.2218 90.7247 19.988 89.3851C19.2263 85.02 18.1869 80.4396 17.4403 76.091C16.9684 73.3437 16.0415 68.8052 15.8563 66.2215C15.8164 65.6643 16.2688 65.7295 16.1824 65.2717C16.0865 64.764 15.7476 64.5432 15.6796 64.3104C15.6691 64.2744 15.6583 64.2374 15.6473 64.1995L15.2187 62.367L17.0128 61.2249C18.4189 60.2203 21.3646 58.2012 22.8465 57.6827C23.1354 57.5821 23.4936 57.7666 23.6488 57.6755C23.7277 57.63 23.7903 57.3269 24.0261 57.1634C26.1078 55.72 27.7693 54.9164 29.9513 53.7482C31.8557 52.7277 33.8351 51.5247 35.8447 50.301L39.0394 48.2725L40.0855 52.1605C40.7643 54.8862 41.4584 57.6616 41.9277 60.332C42.1157 61.4012 41.6245 62.2735 41.6645 62.4208C41.7509 62.7444 42.2377 62.8547 42.4947 63.4916C43.3452 65.6101 43.5401 68.6765 44.2299 70.7182C44.5582 71.6911 45.3856 72.9298 45.7595 73.9039L40.3733 71.5421C40.4034 71.5182 40.4334 71.4951 40.4632 71.4726C41.1334 70.9689 42.9477 70.1805 43.1416 69.7785C43.26 69.5348 43.1062 69.0607 43.3084 68.8735ZM37.355 56.3222C37.0937 55.573 36.0682 56.9131 36.7836 56.9832C36.9447 56.9989 37.423 56.5166 37.355 56.3222ZM38.9852 88.2767C39.1818 88.1713 39.3785 88.0659 39.5752 87.9606C39.406 87.8129 39.2368 87.6652 39.0676 87.5176C38.9936 87.6777 38.9195 87.8378 38.8454 87.998C38.892 88.0909 38.9386 88.1838 38.9852 88.2767Z" fill="black"/>
</svg>
