<svg width="264" height="220" viewBox="0 0 264 220" fill="none" xmlns="http://www.w3.org/2000/svg">
<path d="M160.118 197.784C160.19 198.191 159.801 198.767 159.781 199.247C159.691 201.261 159.421 202.007 159.268 203.829C159.041 206.531 159.552 214.549 156.849 214.549C156.849 214.549 156.849 214.549 156.849 214.549C156.822 214.549 156.795 214.549 156.768 214.547C156.253 214.519 155.691 213.837 155.109 213.736C154.526 213.635 150.764 213.711 150.553 212.742C150.274 211.337 151.239 207.968 151.196 207.219C151.166 206.707 150.824 206.077 150.764 205.422C150.568 203.311 150.818 202.206 149.889 200.304C150.379 199.543 150.868 198.782 151.358 198.021C151.131 197.028 151.776 195.524 151.741 194.921C151.712 194.426 151.325 194.136 151.307 193.62C151.284 193.042 151.702 192.154 151.639 191.102C151.538 189.377 150.528 189.07 150.4 188.035C150.267 186.962 150.816 185.293 150.461 183.924C150.349 183.752 150.238 183.58 150.127 183.409C149.876 183.532 149.625 183.655 149.374 183.778C149.257 183.088 149.772 182.792 149.781 182.158C149.792 181.412 149.304 181.032 149.306 180.53C149.309 180.119 149.7 179.562 149.675 179.029C149.642 178.252 149.077 178.422 148.971 178.003C148.93 177.837 148.618 174.752 148.613 174.578C148.591 173.255 149.365 173.14 149.432 172.084C149.499 171.023 149.46 169.951 149.371 168.887L149.482 165.713L152.091 164.588C153.527 163.735 154.848 162.65 156.095 161.708C156.961 161.054 157.943 160.46 158.9 159.933C158.599 162.574 162.708 161.529 159.687 159.888C160.938 159.519 161.109 158.322 162.073 157.703C162.693 157.301 163.372 157.286 164.141 156.558C165.534 155.244 165.916 152.972 167.936 153.992C169.059 152.085 170.757 150.916 169.472 149.27C169.64 148.78 171.298 148.157 171.694 147.66C172.175 147.263 174.004 143.281 174.01 142.539C174.157 141.846 174.278 140.601 174.099 140.014C173.879 139.214 171.878 138.999 174.049 137.422C173.613 135.913 173.539 135.38 173.342 133.894C173.301 133.624 173.619 133.475 173.563 133.321C173.443 132.995 173.007 132.589 172.737 132.06C172.286 131.178 172.683 130.376 171.731 130.981C171.273 130.506 170.79 130.036 170.308 129.607C170.379 129.306 170.444 129 170.502 128.688C170.309 128.605 170.114 128.523 169.918 128.442C169.719 128.357 169.519 128.276 169.321 128.198C170.905 127.596 168.675 126.155 168.394 127.36C167.924 126.161 167.392 125 166.786 123.892C168.255 122.688 164.926 121.842 164.491 122.845C164.39 122.759 164.289 122.675 164.188 122.593C163.577 121.486 162.476 121.22 161.417 120.319C160.324 119.436 160.478 119.349 160.367 118.388C160.026 118.316 159.676 118.253 159.331 118.204C157.123 120.083 158.136 115.999 154.782 117.685C153.744 116.187 151.073 117.303 149.615 118.253C149.439 118.36 149.519 118.633 149.297 118.795C148.758 119.171 147.097 119.439 147.511 120.272C146.898 120.242 146.271 120.239 145.637 120.257C145.289 120.618 144.954 120.985 144.629 121.358C144.771 121.608 144.914 121.857 145.056 122.107C143.768 121.697 142.697 122.825 141.969 123.055C141.822 123.1 141.571 122.79 141.13 122.974C140.611 123.186 139.876 123.895 139.303 124.209C139.385 124.708 139.473 125.206 139.573 125.697C138.886 126.602 137.825 126.016 137.264 126.426C137.159 126.481 135.673 128.136 135.638 128.241C135.614 128.281 135.594 128.321 135.577 128.359L133.348 130.697L131.258 128.516C130.491 128.152 130.021 128.833 128.129 126.995C127.771 126.655 127.658 126.133 127.307 125.849C126.686 125.32 124.252 124.597 123.721 125.125C123.419 123.839 121.009 122.894 120.462 122.356C120.296 122.185 120.507 121.648 119.922 121.238C119.444 120.897 117.931 120.749 117.3 120.443C116.628 120.108 116.523 119.574 116.209 119.436C115.911 119.308 115.518 119.592 115.108 119.475C113.834 119.105 112.765 118.269 111.704 118.128C110.164 117.922 108.811 119.067 107.756 119.674C107.471 119.625 107.167 119.412 106.871 119.453C103.22 119.88 99.4481 121.863 96.593 124.79C96.5357 124.848 96.4731 124.908 96.4058 124.971C94.7898 126.364 91.2612 129.44 94.0518 129.704C94.0053 130.431 91.045 134.117 90.8719 135.026C90.594 135.855 90.8825 136.643 90.7635 137.278C90.4298 139.216 89.9798 140.659 90.6723 142.99C90.8599 143.59 91.5305 144.111 91.6052 144.449C91.6928 144.858 91.2993 145.448 91.446 146.008C91.7587 147.346 93.0715 149.602 93.7757 150.767C93.8987 150.985 93.5574 151.318 93.6484 151.703C94.0002 153.218 95.1797 154.45 96.0948 153.231C96.6682 155.159 98.5087 155.798 99.8647 156.796C102.084 158.514 106.156 161.043 109.537 161.981L112.951 163.355L112.834 166.682C112.893 167.787 112.984 168.779 113.121 169.579C113.517 171.882 114.187 171.823 113.609 175.213C113.481 175.965 113.308 176.714 113.155 177.627C112.795 179.766 111.557 181.729 113.049 183.36C112.662 185.736 112.936 187.628 111.661 189.391C111.967 189.599 112.272 189.807 112.578 190.014C112.586 190.306 112.594 190.597 112.601 190.888C112.309 190.979 112.018 191.07 111.726 191.161C111.647 193.248 112.846 195.895 112.838 197.662C112.824 200.623 112.358 208.252 111.965 211.06C111.756 212.551 112.38 212.631 111.096 213.485C111.185 213.818 111.275 214.152 111.364 214.485C111.393 214.507 111.422 214.528 111.451 214.549L107.834 210.933C108.022 210.681 108.209 210.428 108.396 210.176C110.309 210.165 112.578 210.602 114.4 210.597C117.721 210.588 122.707 209.814 126.041 210.323C126.877 210.451 127.922 211.031 128.741 211.024C129.933 211.015 130.222 210.053 131.735 210.035C134.341 210.005 139.195 211.124 141.658 211.038C142.39 211.013 142.731 210.655 143.236 210.617C145.355 210.453 147.094 210.482 149.125 209.929C151.307 210.851 151.118 212.041 151.794 213.243C152.306 214.149 153.877 216.251 154.1 217.045C154.257 217.603 153.672 218.32 153.891 218.934C151.278 219.425 150.18 218.885 148.058 218.021C144.14 218.055 140.221 218.09 136.302 218.124C135.946 217.789 135.589 217.454 135.233 217.119C135.233 217.118 135.233 217.117 135.233 217.117C133.728 216.73 133.09 217.593 132.279 217.789C126.384 219.212 116.161 218.711 107.834 218.293L104.226 218.42L104.09 214.549C104.223 211.899 104.348 209.442 104.399 207.376C104.444 205.533 103.992 199.537 104.536 198.272C104.678 197.945 105.195 197.854 105.218 197.505C104.91 194.393 104.603 191.28 104.295 188.167C105.099 181.767 104.435 175.15 104.312 168.7C104.299 168.027 104.286 167.355 104.272 166.682L106.622 170.031C98.0907 167.079 89.9858 161.681 85.2121 153.219C80.1883 144.815 81.2576 133.233 86.374 125.542C87.5124 123.688 88.8673 121.629 90.4057 119.771C91.5733 118.358 92.8485 117.125 94.1958 116.18C95.5418 115.268 96.5104 115.562 98.0525 113.988C98.1785 114.174 98.304 114.361 98.429 114.548C99.9102 113.468 100.829 112.518 102.868 111.882C104.564 111.24 109.266 110.812 110.769 111.098C111.556 111.193 111.231 111.587 111.949 111.653C113.17 111.745 115.873 111.66 117.496 112.156C118.984 112.564 121.167 113.916 122.215 114.323C126.037 115.741 130.224 117.498 133.498 120.404C134.41 121.207 135.196 122.645 135.481 122.895C135.8 123.169 136.099 123.216 136.373 123.258L130.095 123.485C130.119 123.269 130.143 123.066 130.272 122.882C131.77 120.692 135.172 118.549 137.226 117.156C143.626 112.583 153.122 108.725 162.035 111.864C167.737 113.44 174.321 119.991 176.35 124.154C176.352 124.158 176.354 124.162 176.356 124.165C176.857 125.085 176.219 125.161 176.661 125.879C177.132 126.662 177.728 126.948 177.968 127.329C179.803 129.801 182.17 136.828 181.485 140.03C181.405 140.623 180.934 141.019 180.915 141.366C180.904 141.54 181.188 141.961 181.16 142.517C180.84 147.446 179.212 150.812 176.729 154.61C171.851 161.875 164.471 168.377 156.396 172.059C156.174 172.158 155.956 172.239 155.746 172.304L157.909 168.887C157.692 170.317 157.01 171.279 157.018 171.499C157.036 172.049 157.637 172.402 157.786 173.517C158.274 177.224 157.632 182.216 157.933 185.742C158.082 187.484 158.845 189.878 159.014 191.592C159.149 192.961 158.849 196.195 159.184 196.802C159.387 197.171 160.037 197.342 160.118 197.784ZM165.306 156.138C165.888 157.042 166.908 154.75 165.893 154.998C165.673 155.052 165.161 155.906 165.306 156.138ZM101.419 119.294C101.572 119.549 101.724 119.805 101.876 120.061C102.072 119.824 102.275 119.591 102.485 119.364C102.268 119.265 102.045 119.17 101.818 119.08C101.685 119.149 101.552 119.221 101.419 119.294Z" fill="black"/>
<path d="M126.149 11.5054C125.742 11.5774 125.167 11.1882 124.686 11.1677C122.672 11.0778 121.926 10.808 120.104 10.655C117.402 10.4278 109.384 10.9392 109.384 8.23593C109.384 8.23587 109.384 8.2358 109.384 8.23573C109.384 8.20923 109.384 8.18241 109.386 8.15528C109.414 7.64028 110.096 7.07806 110.197 6.49561C110.298 5.91295 110.222 2.1514 111.191 1.93994C112.596 1.66127 115.965 2.62574 116.714 2.58301C117.226 2.55355 117.856 2.2116 118.511 2.15088C120.622 1.95519 121.727 2.20525 123.629 1.27636C124.39 1.76587 125.151 2.25537 125.912 2.74487C126.905 2.51791 128.409 3.16348 129.012 3.12793C129.507 3.09868 129.797 2.7116 130.313 2.6936C130.891 2.67124 131.779 3.08905 132.831 3.02612C134.556 2.92489 134.863 1.91509 135.898 1.78686C136.971 1.65416 138.64 2.20299 140.009 1.84765C140.181 1.73657 140.353 1.62549 140.524 1.5144C140.401 1.26318 140.278 1.01196 140.155 0.760738C140.845 0.643793 141.142 1.15864 141.775 1.16797C142.521 1.17921 142.901 0.691105 143.403 0.693355C143.814 0.695628 144.371 1.08702 144.904 1.0625C145.681 1.02875 145.511 0.463639 145.93 0.357905C146.096 0.316833 149.181 0.00497669 149.355 0.000482746C150.678 -0.0218003 150.793 0.751697 151.849 0.819333C153.12 0.899471 154.406 0.826841 155.676 0.699685L160.654 0.87437L160.491 5.51426C160.656 7.16776 160.914 8.79402 161.048 10.3252C161.154 11.5341 161.109 12.7955 160.985 14.0008C159.005 12.1023 157.465 16.3039 160.562 14.7326C160.122 16.0737 160.958 17.0246 160.817 18.296C160.724 19.1183 160.295 19.6875 160.306 20.8617C160.329 22.9451 161.55 25.2241 159.343 25.8234C159.732 28.2692 158.931 30.3875 160.88 31.269C160.999 31.8997 159.838 33.516 159.681 34.2233C159.532 34.8923 159.008 40.0253 158.979 40.865C158.95 41.7047 158.918 43.1747 159.089 43.8819C159.3 44.7704 161.321 45.3913 158.958 46.9732C159.15 48.8125 159.082 49.4678 158.808 51.1784C158.758 51.4881 158.407 51.5231 158.407 51.7041C158.407 52.0768 158.666 52.7109 158.698 53.3762C158.698 53.378 158.698 53.3798 158.698 53.3816L156.705 50.5405C157.828 50.8965 158.159 51.836 158.463 50.7425C159.257 50.8605 160.054 51.0011 160.85 51.1639C161.01 51.4787 161.166 51.7941 161.316 52.1098C161.796 52.0805 162.275 52.0575 162.763 52.0458C161.58 53.2481 164.593 53.8158 164.229 52.5425C165.413 53.6046 166.525 54.7196 167.563 55.8874C166.322 57.2353 170.041 58.0747 170.48 57.1675C170.614 57.2835 170.751 57.4033 170.885 57.5226C171.73 58.9222 173.047 59.6308 174.071 61.3021C175.061 62.9771 174.776 62.9689 174.446 63.9301C174.748 64.2496 175.043 64.5756 175.331 64.9082C178.565 65.6416 175.001 67.2465 178.213 70.023C177.37 71.7379 178.978 74.3052 179.649 76.378C179.73 76.6132 180.015 76.5848 180.137 76.902C180.457 77.6892 180.121 79.7532 181.026 79.6986C180.75 80.4372 180.443 81.1286 180.107 81.8138C180.214 82.4142 180.303 83.0018 180.368 83.6159C180.652 83.6613 180.935 83.7067 181.219 83.7519C180.065 84.786 179.965 86.6359 179.445 87.4393C179.343 87.5958 178.956 87.5175 178.672 87.9973C178.348 88.5433 177.998 89.7232 177.573 90.3391C177.85 90.7877 178.117 91.2476 178.374 91.7185C177.949 93.0975 176.692 92.9379 176.209 93.5856C176.151 93.6976 174.788 95.9448 174.723 96.041C174.214 97.0563 175.248 97.4629 172.938 99.9006C172.893 99.9461 172.847 99.9884 172.799 100.028C172.375 100.387 171.866 100.538 171.516 100.886C170.876 101.592 169.067 104.171 169.251 104.878C167.723 105 164.98 107.016 163.895 107.144C163.586 107.189 163.294 106.709 162.404 106.919C161.705 107.098 159.989 108.082 159.032 108.175C158.034 108.286 157.612 107.849 157.18 107.871C156.772 107.888 156.43 108.313 155.862 108.348C154.083 108.447 152.547 107.735 151.239 107.569C149.349 107.326 147.452 108.062 145.704 108.077C145.331 107.889 145.024 107.535 144.623 107.398C139.639 105.707 134.768 102.592 130.991 99.2622C130.169 98.5473 128.993 97.0649 127.993 95.9266L132.499 95.7633C131.254 96.9692 130.462 97.9875 132.047 98.3697C131.815 99.3985 126.474 102.535 125.471 103.063C124.513 103.701 123.978 104.581 123.182 105.054C120.747 106.452 118.864 107.036 115.596 108.443C114.748 108.799 113.881 109.557 113.317 109.657C112.639 109.777 111.833 109.367 110.961 109.423C108.891 109.643 104.84 109.545 102.86 108.851C102.501 108.739 102.497 108.255 102.038 107.963C100.258 106.843 98.3381 105.857 97.9859 107.36C96.0207 105.397 93.7284 104.626 91.936 103.033C90.1567 101.458 88.1033 98.9786 86.4116 96.4088C84.461 93.5235 82.9416 90.277 81.9457 88.1043C80.8282 85.4958 80.0044 85.6276 80.2472 81.2449C80.3364 80.2658 80.5143 79.3293 80.7524 78.1854C81.3277 75.4709 83.0942 73.5951 82.3317 71.2671C83.6569 68.692 84.5236 66.5695 86.6648 65.5514C86.531 65.1905 86.4023 64.8258 86.2788 64.4576C86.4574 64.1731 86.6382 63.8938 86.8232 63.6162C87.1218 63.6982 87.4194 63.7825 87.7159 63.8689C89.1006 62.0271 90.1481 59.0311 91.5728 57.6419C93.8413 55.1698 100.792 50.574 103.669 49.5266C105.171 48.9066 104.962 48.3239 106.369 49.0332C106.636 48.794 106.922 48.5487 107.206 48.3092C107.284 47.9573 107.364 47.6063 107.445 47.2561C107.467 47.2455 107.489 47.235 107.511 47.2245L105.01 51.1771C105.009 49.2788 105.436 47.0421 105.431 45.2414C105.422 41.9209 104.648 36.9347 105.157 33.6002C105.285 32.7641 105.865 31.719 105.858 30.9002C105.849 29.7086 104.887 29.419 104.869 27.9068C104.84 25.3005 105.958 20.4468 105.872 17.9834C105.847 17.2517 105.489 16.9103 105.451 16.4051C105.287 14.2867 105.316 12.5474 104.763 10.516C105.685 8.33488 106.876 8.52331 108.077 7.84736C108.984 7.33508 111.085 5.76427 111.879 5.54129C112.437 5.38465 113.154 5.96947 113.769 5.74998C114.259 8.36319 113.719 9.46104 112.855 11.583C112.89 15.5016 112.924 19.4203 112.958 23.339C112.623 23.6955 112.288 24.052 111.953 24.4085C111.952 24.4085 111.951 24.4085 111.951 24.4085C111.564 25.9134 112.427 26.5513 112.623 27.3629C114.011 33.1092 113.569 42.9703 113.159 51.1771L113.238 53.4311L111 54.5891C108.562 55.5851 106.303 56.7823 104.543 57.9015C103.008 58.7764 98.9827 62.648 97.8353 63.1261C97.5196 63.2355 97.0955 62.9275 96.8473 63.144C94.9988 65.434 93.4335 67.8829 92.3343 70.4083C88.7044 74.9355 88.538 81.1635 90.5915 86.1919C91.308 88.0886 92.3143 89.9119 93.5355 91.6596C101.086 104.396 115.978 102.396 125.548 92.5346C126.056 92.0461 126.569 91.4879 127.044 90.9138L129.737 87.6607L133.083 90.6949C134.9 92.3494 137.196 93.9016 138.969 95.2931C139.932 96.0424 139.963 97.0488 141.685 97.2992C141.593 97.5035 141.5 97.7079 141.408 97.9125C142.802 98.3568 143.831 98.2976 145.273 98.8466C146.488 99.3598 149.722 100.292 150.785 100.508C151.337 100.646 151.062 101.025 151.594 101.101C152.523 101.24 154.456 100.77 155.604 100.654C156.654 100.598 158.511 100.692 159.282 100.34C162.025 99.1861 164.147 96.8235 166.385 94.4691C166.423 94.4296 166.46 94.3902 166.498 94.351C167.192 93.6341 168.365 92.9983 168.545 92.7251C168.878 92.2213 168.547 91.7744 168.711 91.4208C169.584 89.6135 171.526 87.2657 172.135 85.4783C174.322 79.741 172.961 73.3048 169.356 68.3323C167.259 65.0357 161.834 60.9152 158.532 58.9614C157.834 58.5179 158.282 58.0957 157.642 57.7948C156.932 57.4674 156.387 57.6628 156.042 57.5527C155.575 57.4054 154.998 57.2302 154.349 57.0475L151.878 56.2497L151.778 53.3816C151.575 50.334 151.382 45.9926 151.703 43.9028C151.779 43.4084 152.231 43.0497 152.23 42.7537C152.23 42.6039 151.921 42.2654 151.89 41.795C151.611 37.6417 151.791 34.6135 151.896 30.5438C152.097 22.7495 151.523 13.7184 151.833 5.53047C151.834 5.52506 151.834 5.51966 151.834 5.51426L155.676 9.35656C153.901 9.28429 152.684 8.39607 152.434 8.40504C151.884 8.42307 151.531 9.02415 150.417 9.17262C146.709 9.66065 141.717 9.01924 138.191 9.32057C136.449 9.46903 134.055 10.2321 132.341 10.4009C130.972 10.5359 127.738 10.2365 127.131 10.5716C126.762 10.7739 126.591 11.424 126.149 11.5054ZM159.804 22.1125C158.765 21.8686 159.629 24.432 160.187 23.4703C160.312 23.2538 160.074 22.1756 159.804 22.1125ZM139.137 103.041C139.019 103.314 138.901 103.588 138.784 103.862C139.161 103.922 139.539 103.978 139.917 104.029C139.815 103.778 139.717 103.528 139.621 103.278C139.459 103.2 139.297 103.12 139.137 103.041Z" fill="black"/>
<path d="M236.835 83.0734C237.132 83.1089 237.442 83.5105 237.768 83.6279C239.137 84.1226 239.591 84.4752 240.813 84.9741C242.625 85.714 248.265 87.0605 247.665 88.9971C247.665 88.9972 247.665 88.9972 247.665 88.9973C247.659 89.0163 247.652 89.0353 247.645 89.0544C247.512 89.4173 246.917 89.6744 246.718 90.07C246.519 90.4659 245.736 93.1768 245.021 93.1213C243.991 93.0209 241.883 91.6103 241.357 91.4809C240.998 91.3926 240.487 91.5029 240.022 91.4065C238.524 91.0957 237.818 90.6805 236.301 90.9396C235.885 90.4264 235.469 89.9132 235.053 89.4C234.319 89.3505 233.425 88.5666 233.001 88.4633C232.654 88.3785 232.368 88.5939 232.009 88.4966C231.605 88.3891 231.085 87.9 230.346 87.7203C229.135 87.4244 228.699 88.0823 227.958 87.953C227.188 87.8189 226.16 87.0692 225.137 87.0312C224.994 87.0741 224.851 87.117 224.708 87.1599C224.737 87.3662 224.766 87.5724 224.795 87.7787C224.548 87.7473 224.4 87.626 224.262 87.4941L220.387 86.1368L222.167 82.717C222.321 82.5962 222.484 82.4866 222.587 82.2791C222.825 81.7967 222.612 81.3917 222.769 81.0653C222.898 80.7981 223.336 80.5608 223.484 80.2056C223.702 79.6882 223.266 79.6171 223.324 79.3106C223.348 79.1886 224.092 77.0779 224.142 76.963C224.537 76.0932 225.097 76.267 225.469 75.6009C226.5 73.7526 227.007 71.5931 227.685 69.7524C227.988 68.9304 228.409 68.1227 228.866 67.3768C229.619 69.2514 231.964 67.0085 229.379 67.0359C230.093 66.3035 229.821 65.4146 230.31 64.6314C230.627 64.1251 231.094 63.8924 231.45 63.1234C232.08 61.758 231.958 59.8797 233.639 60.1992C234.133 58.4798 235.331 57.3567 234.284 56.1552C234.399 55.7058 235.685 55.0257 236.011 54.6154C236.319 54.2271 238.263 51.05 238.543 50.512C238.786 50.0448 239.177 49.2682 239.344 48.7341L243.243 51.7333C243.187 51.7966 243.138 51.8569 243.098 51.9131C242.711 52.4487 243.349 53.8942 241.333 53.2809C240.413 54.2484 240.02 54.5155 238.945 55.1566C238.75 55.2727 238.561 55.0884 238.461 55.1726C238.256 55.3465 238.033 55.7907 237.682 56.1192C237.105 56.6593 236.403 56.5284 237.017 57.1164C236.711 57.561 236.406 58.0057 236.101 58.4503C235.856 58.4439 235.611 58.4375 235.366 58.4311C235.269 58.7467 235.172 59.0623 235.074 59.3778C234.533 58.2334 233.505 60.0504 234.444 60.1747C233.511 60.634 232.578 61.0934 231.644 61.5527C230.853 60.4012 229.85 62.8628 230.491 63.3112C230.402 63.385 230.313 63.4588 230.224 63.5326C229.214 63.9043 228.702 64.735 227.601 65.3424C226.501 65.9497 226.502 65.7717 225.803 65.5261C225.605 65.7415 225.408 65.9569 225.21 66.1722C225.183 68.4931 223.426 66.0039 222.308 68.714C220.961 68.4116 219.77 70.1795 218.949 71.3139C218.853 71.4458 218.989 71.6107 218.871 71.7973C218.581 72.2515 217.4 72.8921 217.88 73.3893C217.404 73.5314 216.927 73.6735 216.451 73.8156C216.248 74.1518 216.045 74.4881 215.843 74.8244C215.983 74.9874 216.124 75.1505 216.265 75.3135C215.219 75.2381 214.503 76.2146 213.946 76.4562C213.835 76.5038 213.624 76.2934 213.298 76.4638C212.915 76.662 212.375 77.2349 211.933 77.4877C211.998 77.8644 212.062 78.2412 212.126 78.618C211.559 79.3327 210.758 78.8735 210.313 79.1617C210.234 79.214 208.957 80.3775 208.898 80.4518C208.413 81.0561 209.056 81.4811 207.274 82.7839C206.956 83.0155 206.548 83.0253 206.271 83.2465C205.782 83.6372 204.718 85.2999 204.952 85.8051C203.939 85.7838 202.566 87.3068 201.984 87.5457C201.808 87.6169 201.5 87.317 201.018 87.6065C200.627 87.8409 199.964 88.8515 199.491 89.1769C198.989 89.521 198.592 89.3868 198.368 89.5429C198.157 89.6907 198.164 90.0649 197.897 90.2896C197.058 90.9873 196.002 91.27 195.339 91.821C195.032 92.075 194.795 92.3873 194.595 92.7261L193.752 88.7111C194.59 88.6719 195.433 88.4209 196.188 88.3744C196.421 88.5016 196.612 88.7508 196.872 88.8297C200.084 89.8125 203.671 91.0436 206.848 92.1797C206.984 92.228 207.135 92.2906 207.298 92.3628L210.958 93.5922L208.723 96.5045C207.523 97.8011 205.059 99.879 207.045 100.137C207.007 100.777 204.075 103.54 203.629 104.145C203.183 104.75 203.121 105.438 202.782 105.922C201.76 107.382 200.827 108.259 199.814 110.202C199.554 110.704 199.542 111.433 199.345 111.7C199.108 112.022 198.532 112.14 198.211 112.547C197.448 113.519 196.219 115.469 195.476 116.393C195.339 116.561 195.009 116.419 194.741 116.608C193.693 117.34 192.939 118.46 193.99 118.916C192.576 119.804 192.22 121.303 191.418 122.489C190.529 123.802 189.168 125.619 187.909 127.399L183.139 122.047C184.867 121.085 186.505 120.114 187.494 119.312C188.805 118.249 188.525 117.829 190.876 117.027C191.398 116.848 191.934 116.7 192.566 116.482C194.047 115.972 195.736 116.1 196.225 114.552C197.866 113.978 198.962 113.137 200.538 113.36C200.559 113.086 200.579 112.813 200.599 112.54C200.781 112.433 200.962 112.327 201.143 112.22C201.306 112.38 201.47 112.54 201.633 112.699C202.979 112.023 204.217 110.312 205.336 109.702C207.212 108.678 212.199 106.322 214.116 105.601C215.134 105.218 214.958 104.78 215.963 105.326C216.141 105.151 216.319 104.976 216.498 104.801C216.527 104.543 216.557 104.286 216.587 104.028C217.791 103.354 219.383 102.849 220.532 102.21C222.627 101.046 225.496 98.7986 227.786 97.9692C228.361 97.7617 229.232 97.7779 229.746 97.488C230.496 97.0664 230.33 96.3335 231.279 95.7941C232.914 94.8658 236.386 93.9067 237.911 92.9913C238.364 92.7198 238.45 92.3655 238.755 92.1642C240.034 91.3174 241.143 90.7298 242.226 89.6578C243.938 89.5025 244.25 90.3499 245.113 90.9028C245.765 91.3194 247.519 92.151 247.948 92.5946C248.249 92.9062 248.14 93.5814 248.501 93.908C247.028 95.1416 246.139 95.1701 244.486 95.3431C242.023 96.7327 239.56 98.1223 237.097 99.5119C236.75 99.4162 236.403 99.3205 236.057 99.2248C236.056 99.2243 236.056 99.2238 236.056 99.2233C234.965 99.4943 234.875 100.284 234.433 100.695C230.205 104.638 220.013 109.008 214.532 111.853C213.352 112.467 209.728 114.855 208.731 114.939C208.473 114.96 208.228 114.653 208 114.759C206.145 116.047 204.291 117.335 202.436 118.622C198.101 120.328 194.162 123.071 190.133 125.402C188.833 126.155 187.534 126.907 186.238 127.658L182.69 123.678C188.927 114.537 195.11 105.472 201.509 96.6373C202.279 95.5749 203.085 94.3012 203.906 93.0706L205.613 98.0336C204.434 97.7226 203.279 97.3929 202.288 97.0101C201.373 96.6571 201.16 95.9443 199.796 96.023C199.831 95.8584 199.866 95.6938 199.9 95.5292C198.768 95.4039 197.972 95.5656 196.756 95.2447C195.751 94.9788 193.139 94.228 192.213 93.8904L186.819 92.4649L191.102 88.6044C191.116 88.5934 191.131 88.5828 191.145 88.5727C191.535 88.2834 191.6 88.6394 191.944 88.3457C192.532 87.8411 193.514 86.4408 194.329 85.7498C195.067 85.1239 196.546 84.3442 197.079 83.823C199.004 81.9485 200.885 79.6526 203.157 77.9152C203.785 77.436 204.822 77.0898 205.003 76.9214C205.356 76.5913 205.21 76.1972 205.425 75.9489C206.515 74.6884 208.777 73.3865 210.02 72.357C214.072 69.0023 218.211 65.268 222.253 61.937C224.807 59.8323 228.957 56.224 231.479 54.4753C232.023 54.0983 232.169 54.5417 232.591 54.1841C233.058 53.7875 233.123 53.3498 233.326 53.1465C234.733 51.7376 237.883 48.6805 239.505 47.6972C239.58 47.652 239.661 47.6231 239.743 47.6032L244.234 51.057C244.025 51.2199 243.768 51.3062 243.7 51.4528C243.653 51.5505 243.757 51.8704 243.633 52.1871C242.536 54.984 241.477 56.9 240.145 59.5186C237.596 64.5346 235.189 70.6058 232.443 75.8429C231.845 76.984 230.861 77.4938 230.79 77.6602C230.631 78.0249 230.929 78.448 230.685 79.2225C230.066 81.1714 228.78 83.3924 227.807 85.396L226.111 81.53C226.791 81.7472 227.444 81.9358 228.05 82.0662C229.283 82.332 231.103 82.2967 232.322 82.5419C233.295 82.7378 235.458 83.6429 235.95 83.5326C236.25 83.4665 236.512 83.0372 236.835 83.0734ZM232.177 62.4695C232.806 62.9629 233.014 61.0141 232.339 61.4614C232.187 61.5622 232.014 62.3416 232.177 62.4695ZM200.792 91.4188C200.839 91.2006 200.886 90.9823 200.934 90.7641C200.674 90.7837 200.415 90.8033 200.156 90.823C200.249 90.9901 200.342 91.1573 200.434 91.3245C200.553 91.356 200.673 91.3874 200.792 91.4188Z" fill="black"/>
<path d="M26.676 83.0734C26.3791 83.1089 26.0691 83.5105 25.7423 83.6279C24.3742 84.1226 23.9197 84.4752 22.6978 84.9741C20.8861 85.714 15.2459 87.0605 15.846 88.9971C15.846 88.9972 15.846 88.9972 15.846 88.9973C15.8519 89.0163 15.8584 89.0353 15.8655 89.0544C15.9992 89.4173 16.5941 89.6744 16.7932 90.07C16.9922 90.4659 17.7751 93.1768 18.4897 93.1213C19.5196 93.0209 21.6276 91.6103 22.1534 91.4809C22.5129 91.3926 23.0234 91.5029 23.4882 91.4065C24.9869 91.0957 25.6929 90.6805 27.2102 90.9396C27.626 90.4264 28.0417 89.9132 28.4575 89.4C29.1921 89.3505 30.0858 88.5666 30.5094 88.4633C30.8569 88.3785 31.1427 88.5939 31.5022 88.4966C31.9058 88.3891 32.4253 87.9 33.1644 87.7203C34.3757 87.4244 34.8114 88.0823 35.5532 87.953C36.3223 87.8189 37.3507 87.0692 38.3734 87.0312C38.5164 87.0741 38.6595 87.117 38.8025 87.1599C38.7735 87.3662 38.7445 87.5724 38.7154 87.7787C38.963 87.7473 39.1103 87.626 39.2484 87.4941L43.1236 86.1368L41.344 82.717C41.1901 82.5962 41.0267 82.4866 40.9242 82.2791C40.6857 81.7967 40.8986 81.3917 40.7417 81.0653C40.6129 80.7981 40.1752 80.5608 40.0268 80.2056C39.8091 79.6882 40.2446 79.6171 40.1867 79.3106C40.1629 79.1886 39.4192 77.0779 39.3684 76.963C38.9737 76.0932 38.4141 76.267 38.0415 75.6009C37.0104 73.7526 36.5036 71.5931 35.8254 69.7524C35.5227 68.9304 35.1017 68.1227 34.6447 67.3768C33.8914 69.2514 31.5468 67.0085 34.1318 67.0359C33.418 66.3035 33.6901 65.4146 33.2007 64.6314C32.8836 64.1251 32.4164 63.8924 32.0605 63.1234C31.4308 61.758 31.5523 59.8797 29.8718 60.1992C29.3781 58.4798 28.18 57.3567 29.2268 56.1552C29.1121 55.7058 27.8256 55.0257 27.4998 54.6154C27.1921 54.2271 25.248 51.05 24.9682 50.512C24.7251 50.0448 24.3335 49.2682 24.1672 48.7341L20.2673 51.7333C20.3234 51.7966 20.3726 51.8569 20.4129 51.9131C20.7995 52.4487 20.1615 53.8942 22.1778 53.2809C23.0976 54.2484 23.4911 54.5155 24.5658 55.1566C24.7604 55.2727 24.9497 55.0884 25.0495 55.1726C25.2546 55.3465 25.478 55.7907 25.8289 56.1192C26.4061 56.6593 27.1076 56.5284 26.494 57.1164C26.7994 57.561 27.1048 58.0057 27.4102 58.4503C27.655 58.4439 27.8998 58.4375 28.1446 58.4311C28.2419 58.7467 28.3392 59.0623 28.4365 59.3778C28.9781 58.2334 30.0055 60.0504 29.0666 60.1747C29.9999 60.634 30.9332 61.0934 31.8665 61.5527C32.658 60.4012 33.6603 62.8628 33.0202 63.3112C33.109 63.385 33.1978 63.4588 33.2865 63.5326C34.2965 63.9043 34.8092 64.735 35.9094 65.3424C37.0095 65.9497 37.0088 65.7717 37.708 65.5261C37.9055 65.7415 38.103 65.9569 38.3004 66.1722C38.3273 68.4931 40.0847 66.0039 41.2023 68.714C42.5496 68.4116 43.7403 70.1795 44.562 71.3139C44.6576 71.4458 44.5214 71.6107 44.6396 71.7973C44.9302 72.2515 46.1112 72.8921 45.6308 73.3893C46.1072 73.5314 46.5835 73.6735 47.0598 73.8156C47.2626 74.1518 47.4653 74.4881 47.6681 74.8244C47.5274 74.9874 47.3867 75.1505 47.2461 75.3135C48.2922 75.2381 49.0079 76.2146 49.5644 76.4562C49.6756 76.5038 49.8867 76.2934 50.2132 76.4638C50.5956 76.662 51.1357 77.2349 51.5774 77.4877C51.513 77.8644 51.4486 78.2412 51.3843 78.618C51.9514 79.3327 52.7529 78.8735 53.1974 79.1617C53.2771 79.214 54.5534 80.3775 54.6123 80.4518C55.098 81.0561 54.4551 81.4811 56.2372 82.7839C56.5548 83.0155 56.9623 83.0253 57.2393 83.2465C57.7289 83.6372 58.7925 85.2999 58.5587 85.8051C59.5721 85.7838 60.9445 87.3068 61.5264 87.5457C61.7028 87.6169 62.0104 87.317 62.4928 87.6065C62.8841 87.8409 63.5468 88.8515 64.0193 89.1769C64.5218 89.521 64.9192 89.3868 65.1427 89.5429C65.3536 89.6907 65.3464 90.0649 65.6141 90.2896C66.453 90.9873 67.5085 91.27 68.1719 91.821C68.4783 92.075 68.7159 92.3873 68.9154 92.7261L69.759 88.7111C68.9212 88.6719 68.0774 88.4209 67.3224 88.3744C67.09 88.5016 66.8986 88.7508 66.6388 88.8297C63.4267 89.8125 59.8396 91.0436 56.6626 92.1797C56.5272 92.228 56.3757 92.2906 56.2124 92.3628L52.5529 93.5922L54.7877 96.5045C55.9882 97.8011 58.4513 99.879 56.4655 100.137C56.5036 100.777 59.4362 103.54 59.8822 104.145C60.328 104.75 60.3898 105.438 60.7285 105.922C61.7509 107.382 62.6842 108.259 63.6964 110.202C63.957 110.704 63.9691 111.433 64.1657 111.7C64.4032 112.022 64.9784 112.14 65.2996 112.547C66.0629 113.519 67.2912 115.469 68.035 116.393C68.1715 116.561 68.5013 116.419 68.7701 116.608C69.8182 117.34 70.5715 118.46 69.5206 118.916C70.9345 119.804 71.291 121.303 72.0924 122.489C72.982 123.802 74.343 125.619 75.6017 127.399L80.3715 122.047C78.644 121.085 77.0057 120.114 76.0167 119.312C74.7058 118.249 74.9859 117.829 72.635 117.027C72.1132 116.848 71.5772 116.7 70.9452 116.482C69.4633 115.972 67.7749 116.1 67.2855 114.552C65.6444 113.978 64.5485 113.137 62.9724 113.36C62.9521 113.086 62.9317 112.813 62.9113 112.54C62.7301 112.433 62.5488 112.327 62.3675 112.22C62.2044 112.38 62.0412 112.54 61.878 112.699C60.5313 112.023 59.2936 110.312 58.1746 109.702C56.2989 108.678 51.3114 106.322 49.3946 105.601C48.377 105.218 48.5529 104.78 47.548 105.326C47.3697 105.151 47.1915 104.976 47.0132 104.801C46.9834 104.543 46.9535 104.286 46.9236 104.028C45.7194 103.354 44.1279 102.849 42.9784 102.21C40.8841 101.046 38.015 98.7986 35.7243 97.9692C35.1497 97.7617 34.2792 97.7779 33.7644 97.488C33.0149 97.0664 33.1809 96.3335 32.2322 95.7941C30.5965 94.8658 27.125 93.9067 25.5999 92.9913C25.1467 92.7198 25.0609 92.3655 24.7556 92.1642C23.477 91.3174 22.3677 90.7298 21.2852 89.6578C19.573 89.5025 19.2604 90.3499 18.3978 90.9028C17.7455 91.3194 15.9914 92.151 15.5626 92.5946C15.2614 92.9062 15.3706 93.5814 15.0093 93.908C16.4823 95.1416 17.3715 95.1701 19.0251 95.3431C21.488 96.7327 23.9509 98.1223 26.4138 99.5119C26.7605 99.4162 27.1073 99.3205 27.454 99.2248C27.4543 99.2243 27.4546 99.2238 27.4548 99.2233C28.5457 99.4943 28.6356 100.284 29.0773 100.695C33.3052 104.638 43.4981 109.008 48.9783 111.853C50.159 112.467 53.7829 114.855 54.7793 114.939C55.0375 114.96 55.2825 114.653 55.5107 114.759C57.3654 116.047 59.2202 117.335 61.0749 118.622C65.4093 120.328 69.3488 123.071 73.378 125.402C74.6782 126.155 75.9764 126.907 77.2732 127.658L80.8206 123.678C74.5834 114.537 68.4004 105.472 62.002 96.6373C61.2322 95.5749 60.4257 94.3012 59.6049 93.0706L57.8977 98.0336C59.0769 97.7226 60.2316 97.3929 61.2226 97.0101C62.1379 96.6571 62.3512 95.9443 63.7149 96.023C63.68 95.8584 63.6452 95.6938 63.6103 95.5292C64.7427 95.4039 65.5383 95.5656 66.7543 95.2447C67.7594 94.9788 70.372 94.228 71.2982 93.8904L76.6918 92.4649L72.409 88.6044C72.3943 88.5934 72.38 88.5828 72.3662 88.5727C71.9754 88.2834 71.9106 88.6394 71.5666 88.3457C70.9791 87.8411 69.9971 86.4408 69.182 85.7498C68.4435 85.1239 66.9652 84.3442 66.4313 83.823C64.5067 81.9485 62.6256 79.6526 60.354 77.9152C59.7259 77.436 58.689 77.0898 58.5078 76.9214C58.1549 76.5913 58.3005 76.1972 58.086 75.9489C56.9955 74.6884 54.734 73.3865 53.4906 72.357C49.4388 69.0023 45.2994 65.268 41.2573 61.937C38.7037 59.8323 34.5541 56.224 32.0318 54.4753C31.4878 54.0983 31.3421 54.5417 30.9202 54.1841C30.4524 53.7875 30.3879 53.3498 30.1845 53.1465C28.778 51.7376 25.628 48.6805 24.006 47.6972C23.9312 47.652 23.8502 47.6231 23.7679 47.6032L19.2768 51.057C19.4861 51.2199 19.7424 51.3062 19.811 51.4528C19.8574 51.5505 19.7534 51.8704 19.8776 52.1871C20.9746 54.984 22.034 56.9 23.3656 59.5186C25.9144 64.5346 28.322 70.6058 31.0674 75.8429C31.6654 76.984 32.6496 77.4938 32.7212 77.6602C32.8794 78.0249 32.5813 78.448 32.8259 79.2225C33.4448 81.1714 34.7308 83.3924 35.704 85.396L37.3999 81.53C36.7201 81.7472 36.0669 81.9358 35.461 82.0662C34.2273 82.332 32.408 82.2967 31.1889 82.5419C30.2153 82.7378 28.053 83.6429 27.5603 83.5326C27.2609 83.4665 26.9988 83.0372 26.676 83.0734ZM31.3333 62.4695C30.7048 62.9629 30.4963 61.0141 31.172 61.4614C31.3241 61.5622 31.4966 62.3416 31.3333 62.4695ZM62.7187 91.4188C62.6715 91.2006 62.6243 90.9823 62.5771 90.7641C62.8363 90.7837 63.0955 90.8033 63.3546 90.823C63.2619 90.9901 63.1692 91.1573 63.0765 91.3245C62.9573 91.356 62.838 91.3874 62.7187 91.4188Z" fill="black"/>
</svg>
