<svg width="181" height="218" viewBox="0 0 181 218" fill="none" xmlns="http://www.w3.org/2000/svg">
<path d="M0.000964642 101.285C-0.024013 100.692 0.438309 99.8974 0.530626 99.2045C0.928397 96.3531 1.35649 95.2864 1.92807 92.7689C2.61713 88.9628 5.2185 77.81 7.89911 78.6791C7.89917 78.6791 7.89924 78.6791 7.8993 78.6791C7.92452 78.6873 7.94969 78.6966 7.97483 78.707C8.45098 78.9052 8.69748 79.9835 9.21371 80.2883C9.73057 80.5925 13.3424 81.6248 13.1811 82.8952C12.9057 84.6928 10.8927 88.7437 10.7401 89.7507C10.6231 90.4189 10.7882 91.2972 10.687 92.1386C10.3604 94.907 9.89987 96.2948 10.5199 98.8619C9.91987 99.7648 9.32993 100.726 8.75876 101.678C8.87123 102.977 8.11871 104.935 8.12991 105.729C8.1359 106.381 8.5126 106.76 8.5183 107.448C8.52781 108.215 8.10096 109.371 8.19529 110.76C8.35948 113.05 9.40421 113.363 9.62044 114.71C9.84624 116.078 9.51455 118.313 10.1122 120.012C10.2529 120.219 10.3945 120.426 10.5367 120.631C10.7621 120.436 10.9882 120.243 11.2149 120.05C11.4556 120.914 11.0053 121.367 11.1284 122.172C11.2746 123.109 11.8477 123.515 11.9663 124.143C12.0642 124.661 11.8217 125.431 11.9928 126.096C12.2441 127.072 12.7484 126.729 12.9725 127.224C13.0373 127.425 14.3483 131.14 14.4343 131.33C14.9432 132.944 14.2502 133.298 14.6176 134.61C15.6499 138.231 17.7437 141.552 19.501 144.506C20.2815 145.821 21.0019 147.247 21.6682 148.64C18.7126 147.496 20.15 152.993 21.7755 149.655C22.2829 151.357 23.6473 151.937 24.4271 153.338C24.945 154.256 24.9924 155.079 25.9102 156.291C27.5253 158.429 30.315 159.738 29.1875 161.757C30.0018 162.45 30.6887 163.153 31.3129 163.736C32.7942 165.127 33.9401 166.211 35.4675 165.94C36.1774 166.507 36.8747 169.018 37.4098 169.909C37.9893 170.664 41.9646 176.921 42.4687 178.035C43.0846 179.073 44.0947 180.956 44.6953 181.788C45.4504 182.832 47.7393 182.889 46.4246 185.947C47.5639 188.376 47.7888 189.331 48.1652 191.79C48.2292 192.239 47.8996 192.371 47.9607 192.622C48.0854 193.133 48.5434 193.971 48.7568 194.897C49.1077 196.427 48.5002 197.418 49.5894 197.07C49.9375 198.058 50.2627 199.055 50.5701 200.045C50.3959 200.425 50.2201 200.808 50.0416 201.181C50.3346 201.687 50.6251 202.206 50.9119 202.713C49.2339 202.25 50.5282 205.867 51.3518 204.582C51.1848 206.515 51.0029 208.387 50.889 210.22C49.7327 210.197 50.1108 211.753 50.8435 212.742L47.9533 210.309C48.6851 209.969 49.2459 209.491 49.1032 209.105C49.3202 209.107 49.5372 209.108 49.7542 209.109C51.6541 209.602 53.3989 209.199 55.7147 209.53C58.0303 209.861 57.8129 210.041 58.5171 210.894C59.062 210.845 59.6069 210.796 60.1518 210.747C63.0112 208.41 62.5058 212.457 67.402 210.664C68.9664 212.133 72.8225 211.361 75.3794 210.916C75.6769 210.864 75.682 210.579 76.0782 210.491C77.047 210.279 79.5189 210.646 79.4344 209.726C80.2901 209.992 81.1458 210.258 82.0015 210.525C82.7009 210.357 83.4003 210.19 84.0998 210.023C84.0962 209.736 84.0927 209.449 84.0892 209.161C85.4976 210.14 87.7106 209.764 88.8023 209.998C89.0195 210.045 89.0665 210.441 89.7418 210.549C90.531 210.678 92.0018 210.56 92.9423 210.684C93.3079 210.245 93.6735 209.807 94.0392 209.368C95.721 209.13 96.3122 210.288 97.2998 210.378C97.4776 210.394 100.722 210.31 100.897 210.286C102.328 210.09 101.922 209.103 106.061 209.315C106.798 209.353 107.394 209.694 108.06 209.708C109.237 209.733 112.783 208.958 113.062 208.243C114.489 209.138 118.308 208.772 119.433 209.031C119.772 209.111 119.849 209.681 120.892 209.802C121.738 209.901 123.917 209.445 124.99 209.521C125.918 209.589 126.36 209.92 126.768 210.058L123.584 213.242C123.616 213.149 123.637 213.059 123.643 212.964C123.675 212.482 123.288 212.038 123.29 211.381C123.304 209.33 123.926 207.473 123.938 205.852C123.956 203.508 122.811 201.437 122.302 199.476C122.377 198.989 122.622 198.511 122.625 198.001C122.655 192.692 122.809 186.811 123.003 181.309L123.122 176.686L127.455 177.607C128.42 177.82 129.399 178.025 130.38 178.225C133.208 178.841 140.159 181.278 138.566 178.46C139.603 178.175 146.655 179.872 147.962 179.849C149.292 179.903 150.323 179.43 151.269 179.377C152.351 179.317 153.279 179.247 153.908 179.127C154.201 179.079 154.447 178.972 154.304 179.054C154.245 179.097 154.021 179.223 153.728 179.608C153.417 179.997 153.145 180.727 153.151 181.309C153.125 180.472 153.07 179.542 152.969 178.533C152.863 177.489 152.312 176.338 152.319 175.728C152.328 174.966 152.86 174.166 152.894 173.19C152.971 170.872 152.795 166.541 152.888 164.315C152.906 163.91 153.373 163.764 153.52 163.183C154.091 160.921 154.042 158.384 152.548 158.831C153.372 156.026 152.665 153.368 152.581 150.789L152.714 145.649L157.596 145.885C157.619 145.883 157.678 145.882 157.759 145.881C160.292 145.849 164.16 145.729 167.455 145.056C169.085 144.73 170.596 144.221 171.397 143.709C171.796 143.463 171.976 143.234 171.926 143.207C171.88 143.169 171.646 143.407 171.522 143.659C171.323 144.069 171.249 144.185 171.104 144.188C170.493 143.185 170.052 142.42 169.385 139.392C169.166 138.411 168.988 137.424 168.698 136.212C168.038 133.418 168.233 130.486 166.046 128.979C165.243 125.85 164.047 123.574 164.351 120.886C163.962 120.737 163.575 120.591 163.187 120.445C163.033 120.08 162.879 119.714 162.727 119.353C162.952 119.131 163.178 118.909 163.404 118.688C162.426 116.031 159.969 113.147 159.083 110.945C158.64 109.843 158 108.151 157.319 106.304L156.953 104.36C157.231 100.025 157.028 94.4096 156.939 91.85C156.882 89.8895 156.241 89.9055 157.328 88.5896C157.167 88.1681 157.005 87.757 156.839 87.3455C156.514 87.128 156.188 86.9122 155.861 86.6982C155.392 84.2696 155.142 81.3001 154.492 79.0154C153.357 74.8312 150.382 69.0979 148.902 65.094C148.545 64.0828 148.428 62.6182 147.903 61.7003C147.133 60.3648 146.125 60.5349 145.088 58.9299C143.368 56.1523 140.375 50.6388 137.999 48.5295C137.319 47.8965 136.756 47.8634 136.262 47.4615C134.186 45.798 132.457 44.4142 130.065 43.469C128.308 41.2179 129.069 40.3474 128.909 38.8523C128.802 37.7303 127.874 34.8644 127.913 34.0084C127.957 33.4063 129.04 33.1472 129.031 32.4551C132.67 33.7829 133.822 35.1685 135.837 37.6207C140.482 40.8745 144.602 44.8333 148.109 49.2335C148.162 49.8427 148.205 50.4487 148.24 51.0537C148.24 51.0541 148.239 51.0546 148.238 51.055C149.192 52.9841 150.389 53.2376 151.195 54.0966C159.533 62.2183 164.789 84.0784 164.988 95.9953C165.099 97.5915 165.473 101.378 165.403 104.51L165.135 103.089C165.856 104.841 166.397 106.335 166.461 107.05C166.492 107.502 166.065 107.825 166.223 108.275C168.093 112.063 169.963 115.888 171.809 119.71C173.936 127.056 177.203 133.979 179.856 141.538C180.447 143.191 180.45 145.75 179.318 147.62C175.651 152.713 171.588 152.733 168.078 153.656C164.464 154.316 161.049 154.578 157.4 154.599L161.297 150.789C161.439 160.978 161.563 171.19 161.619 181.309C161.677 182.881 160.745 184.614 159.859 185.394C158.92 186.273 158.145 186.609 157.494 186.887C156.128 187.425 155.114 187.585 154.079 187.738C152.078 188.003 150.278 188.024 148.5 187.999C144.957 187.93 141.577 187.606 138.211 187.199C134.463 186.741 129.957 186.332 125.977 185.57L131.102 181.309C131.093 182.193 131.069 183.049 131.023 183.861C130.919 185.699 130.089 186.465 130.708 188.88C130.484 188.906 130.26 188.931 130.037 188.956C130.307 191.064 130.816 192.411 130.867 194.774C130.91 196.763 130.943 202.028 130.858 203.786C130.815 204.698 130.397 204.358 130.399 205.208C130.406 206.664 130.984 209.774 130.984 211.783C130.984 212.212 130.957 212.712 130.917 213.242L131.021 217.281L126.768 217.391C125.052 217.261 123.01 216.993 121.941 217.046C116.903 217.293 111.416 218.007 106.047 217.816C104.564 217.762 102.656 217.22 102.192 217.235C101.284 217.266 101.014 217.793 100.405 217.86C97.3093 218.202 92.4841 217.577 89.4499 217.552C79.5628 217.471 69.0887 217.701 59.2442 217.604C56.1438 217.574 52.0205 217.582 47.9533 217.548L44.4416 217.639L43.71 213.976C42.9991 209.534 42.8954 205.495 42.7862 202.708C42.7474 201.509 43.3546 201.761 43.2386 200.766C43.1049 199.662 42.633 199.136 42.5262 198.634C41.936 195.105 39.3793 188.126 38.1164 185.145C37.9125 184.572 38.0973 183.961 37.9141 183.629C37.8187 183.454 37.3534 183.246 37.0284 182.749C34.1367 178.421 31.828 175.299 28.2834 171.424C27.5667 170.653 26.8707 169.942 26.0853 169.178C18.62 161.842 12.1629 152.255 8.4458 142.457C7.55275 140.101 7.82992 138.153 7.70528 137.832C7.43504 137.108 6.69646 136.829 6.07986 135.376C3.98313 130.495 3.18247 123.406 2.3957 118.48C1.97252 116.049 1.00439 112.701 0.809213 110.22C0.611307 108.27 1.07943 103.654 0.829947 102.752C0.662852 102.218 0.0315604 101.927 0.000964642 101.285ZM26.4829 157.86C25.4653 158.273 28.2239 160.274 27.8655 158.962C27.7697 158.656 26.7518 157.77 26.4829 157.86ZM124.445 189.551C124.148 189.583 123.851 189.615 123.554 189.646C123.678 190.103 123.801 190.559 123.925 191.016C124.103 190.759 124.282 190.503 124.46 190.246C124.455 190.014 124.45 189.783 124.445 189.551Z" fill="black"/>
<path d="M79.2328 89.5323C79.0181 89.6151 78.131 89.8783 77.7523 90.0083C78.1455 89.7515 80.0075 89.2332 79.2328 89.5323ZM42.9751 110.718C43.2813 110.586 43.5874 110.453 43.8936 110.321C42.9909 110.598 41.7927 111.016 40.9519 111.264C40.8143 111.304 41.1403 111.105 40.8171 111.208C40.4938 111.31 40.5929 111.402 40.1285 111.569C40.0066 111.612 39.7803 111.685 39.4945 111.774L35.6317 113.152L34.1402 109.111C33.8384 108.178 33.3519 106.606 33.1331 105.971C32.0643 102.869 30.9301 99.7591 29.9131 96.6323C31.0936 99.8157 30.0715 96.5507 29.7282 95.6633C29.6518 95.4668 29.4549 95.5697 28.4058 92.3296C27.739 90.2704 28.6825 92.0603 27.3657 88.694C28.0561 91.3927 27.1874 88.8038 26.4764 86.7463C26.3538 86.3916 25.4047 83.5132 24.9625 82.2495C24.8112 81.8172 24.4766 81.194 24.2772 80.6201C24.1401 80.225 24.0973 79.9055 23.8935 79.319C22.9439 76.5848 22.0186 73.8929 21.1009 71.1424C21.9285 72.6502 20.7899 69.8432 20.7593 69.7101C20.6118 69.0305 21.6439 71.9794 21.2918 70.794C20.7246 69.1632 20.1575 67.5323 19.5903 65.9014C20.0144 67.2541 18.748 64.2067 18.6435 63.6018C18.4827 63.9388 16.3132 56.0818 15.83 54.938C15.7292 54.6998 16.1532 56.3394 14.9421 52.6137C14.8111 52.2102 14.9375 52.3366 14.8586 52.1284C14.8113 52.0037 14.3135 51.3216 14.1666 50.4638C14.1128 50.1505 14.9178 51.9969 13.4294 47.8469C13.756 49.5906 11.3216 42.1075 10.9139 40.7171C10.975 41.0019 11.0362 41.2866 11.0973 41.5713C10.7218 40.1873 10.5563 39.971 10.4565 39.6645C10.4477 39.6373 10.4388 39.6099 10.4298 39.5822L9.0281 35.7845L12.9997 34.2672C14.2236 33.856 15.8861 33.355 16.999 32.9522C18.3308 32.4703 18.2823 32.3193 19.859 31.8257C19.4781 31.9236 19.0972 32.0216 18.7163 32.1195C19.7938 31.7464 20.8713 31.3734 21.9488 31.0003C19.5302 32.0804 22.489 30.8194 22.6868 30.7445C23.0022 30.6245 22.5741 30.8674 23.1022 30.6689C23.1566 30.6477 23.0501 30.5996 23.8666 30.3005C25.5726 29.6759 25.3359 29.8677 26.0544 29.6117C26.1201 29.5879 25.8652 29.6009 27.1011 29.1445C31.0291 27.6936 27.1001 29.2041 26.9521 29.2672C26.7577 29.3503 28.2125 29.1576 24.8243 30.2443C25.9613 29.8776 26.1196 29.9645 26.2474 29.9227C26.3605 29.8855 28.3043 29.1762 28.4103 29.1338C29.3537 28.7507 28.4794 28.963 28.6607 28.8812C28.809 28.8145 31.1987 28.0946 31.6568 27.6383C32.8664 27.4805 31.0876 28.0864 29.2155 28.7917C28.958 28.9387 31.0453 28.2527 31.154 28.214C33.8242 27.2669 32.2755 27.5929 32.8145 27.2593C33.0976 27.0844 34.2335 26.8338 33.1661 27.0123C35.5831 26.1343 34.1497 26.7583 34.3116 26.718C34.5558 26.6567 35.3858 26.3051 35.4944 26.2742C35.6537 26.229 35.1339 26.4826 35.7559 26.2864C35.8592 26.2534 36.8115 25.7966 35.5172 26.1985C37.2278 25.609 37.0553 25.5686 37.6981 25.5454C38.2239 25.1655 38.455 25.1405 38.6132 25.1926L36.8792 31.9276C36.8887 31.9002 36.8288 31.7879 36.8504 31.7689C36.8544 31.7297 36.8575 31.6892 36.8532 31.6444C36.8388 31.5479 36.815 31.4575 36.7296 31.3465C35.8173 30.1328 35.8805 30.647 35.8153 30.5938C35.373 30.255 33.1846 26.8032 32.7141 25.8757C33.0633 26.1535 34.3688 28.6863 34.7893 29.1687C36.0864 30.8307 33.2279 26.6354 34.2932 27.7658C33.8974 27.2757 33.5032 26.7573 33.1207 26.219C32.7162 25.0873 33.5046 26.5913 32.0546 23.7C31.6883 23.2872 33.0648 25.7543 32.7227 25.295C32.4999 25.0469 31.6885 23.3258 31.6523 23.291C31.5901 23.2845 32.353 24.8267 32.1848 24.607C31.6748 24.2394 29.7183 17.983 31.4052 22.6489C30.9149 21.3704 30.9722 20.6055 30.6069 19.4324C30.491 19.0483 30.5878 19.9752 30.5479 20.1723C30.563 20.34 30.0629 19.9675 29.8159 16.3391C29.8832 16.2037 30.1522 19.183 30.2325 19.2267C30.2673 19.3263 30.4541 18.7556 30.4547 18.6654C30.4587 18.5072 30.0453 16.7113 30.2048 14.5605C30.3078 12.4081 31.2633 10.1065 31.7441 9.44118C31.5165 9.70217 32.1755 8.31777 33.2265 7.10451C34.2677 5.85523 35.6057 4.86777 35.8547 4.65469C35.9864 4.53697 35.3996 4.84925 35.5422 4.72719C36.4204 3.89041 39.1498 2.58114 40.3306 2.14464C40.7784 1.95855 41.0683 1.83892 41.2502 1.75622C41.623 1.58901 41.5451 1.57633 41.5985 1.5565C42.2232 1.3391 41.7466 1.57302 42.1253 1.44134C42.5784 1.16913 46.8765 0.259202 47.1581 0.351058C47.2272 0.342338 46.454 0.297082 47.4725 0.201329C47.6691 0.24402 47.4721 0.115373 50.6171 0.400662C52.5168 0.729342 51.8735 0.571599 50.9426 0.335979C49.972 0.109708 48.805 0.0207448 49.587 4.24385e-05C52.0344 0.449729 51.9857 0.420603 52.662 0.601237C52.8801 0.670897 54.6042 1.37868 56.1814 2.51825C55.0408 1.73291 53.7168 1.11711 52.3933 0.754647C53.7137 1.09332 56.1042 2.40592 56.8879 3.1867C57.2814 3.54784 56.8913 3.3416 57.715 4.12622C57.8471 4.31862 58.9025 4.68424 56.4627 2.80674C56.3384 2.56197 57.4561 3.53216 57.9265 3.99586C57.9966 4.06341 58.4283 4.21635 58.8771 4.93147C58.9304 5.01584 58.5048 4.73212 58.5543 4.92858C58.5746 5.13396 59.2357 5.74772 60.6504 7.91218C60.7405 8.05225 60.5249 7.51293 60.6144 7.64868C60.688 7.74009 61.2482 8.91903 61.3039 9.04398C61.3749 9.17209 61.1794 8.57616 61.2656 8.72723C61.7128 9.50988 61.8779 10.6754 61.1827 9.01123C61.4036 9.57874 61.5961 10.1461 61.765 10.7097C61.752 10.0405 62.1526 11.5609 62.3689 12.3187C63.6451 17.1963 62.9561 13.895 63.2378 14.7207C63.6138 16.045 63.0783 15.0944 63.4994 17.0719C63.5082 17.2589 63.4424 14.8059 63.8488 19.5545C63.788 18.8444 63.7123 18.1684 63.6135 17.4555C63.4721 17.8946 63.8885 19.9757 63.8883 20.1435C63.9886 21.7191 63.9247 21.0119 63.972 22.4813L58.5115 18.4509C58.7453 18.3631 59.0527 18.2463 59.4681 18.0871C59.6753 18.0077 60.1497 17.9049 60.5909 17.7302C62.0556 17.1509 59.5847 17.9851 58.4674 18.3187L64.1114 22.4845C64.127 22.0646 64.1329 21.8707 64.1502 21.8236C64.158 21.8273 64.1719 22.0071 64.1695 22.4858L58.449 18.2635C59.6314 17.8508 62.5824 16.8776 62.714 16.8506C63.4196 16.709 60.6194 17.59 61.185 17.5177C61.3911 17.4903 67.9901 15.2058 69.3327 14.8035C70.8821 14.3397 71.6638 14.3832 71.5711 14.0725C72.1045 14.23 72.4181 13.8967 72.6151 13.8333C74.996 13.0707 75.0014 13.0723 77.0256 12.3655C77.4725 12.2095 77.8823 12.1747 78.036 12.1063C78.1253 12.0661 77.9198 12.0257 78.3626 11.8445C78.8481 11.6465 81.3245 10.883 82.4952 10.5502L86.2075 9.21203L87.6266 13.1041C87.7168 13.417 87.7759 13.6365 87.7844 13.6996C87.8036 13.8405 87.68 13.4962 87.5465 13.1311L86.1569 9.32013L82.522 10.6304C82.1117 10.7787 81.6751 10.9393 81.8688 10.9271C82.0963 10.853 82.3219 10.7784 82.5464 10.7037L86.1107 9.4189L87.4732 13.1558C87.8502 14.2739 88.233 15.3625 88.6093 16.5033C88.7966 17.0723 88.636 16.8017 88.7175 17.0473C88.7519 17.152 89.4681 19.0933 89.463 19.0026C89.4508 18.79 87.3728 12.7501 88.0195 14.307C88.1443 14.6073 88.3674 15.7421 88.4836 15.5104C90.2684 20.9306 92.0532 26.3508 93.8381 31.771C92.6593 28.7085 91.5964 25.1731 90.4863 21.9234C90.3343 21.4779 89.8424 19.9646 89.816 20.1776C90.7268 22.9523 91.9335 26.3767 92.7725 29.053C92.7993 29.1388 92.6148 28.8533 92.7097 29.176C92.8871 29.7792 93.669 31.6745 93.7459 32.0116C93.757 32.0699 93.2803 31.0021 93.3272 31.3599C93.4474 32.2785 93.8984 32.3698 94.1438 33.1117C94.3181 33.6392 95.2755 36.9866 95.7694 38.2369L89.5007 36.8697C89.5068 36.8607 89.593 36.7687 89.5937 36.7658C89.6128 36.7436 89.6339 36.7194 89.6564 36.6938C89.7021 36.6417 89.752 36.5857 89.7744 36.5565C89.9051 36.396 89.9408 36.3392 89.8672 36.3926C89.7938 36.447 89.6646 36.5567 89.4242 36.7977L95.869 38.2033C95.6193 37.3706 95.0685 35.7387 95.1988 35.905C95.4825 36.6496 95.7497 37.4028 96.0067 38.1568L89.3184 36.6981C91.0836 34.9006 92.7266 33.7016 94.5777 32.4987C94.6222 32.4706 94.1851 32.6473 94.751 32.2779C95.762 31.636 96.1038 31.6025 96.6337 31.3464C97.1854 31.0475 99.3191 30.1559 99.6585 30.1255C99.6979 30.1173 99.2824 30.3812 99.2181 30.4095C98.2879 30.8 97.9153 30.8194 97.8293 30.8508C97.517 30.9821 97.2395 31.177 96.9644 31.3092C96.5157 31.5269 96.2399 31.6087 95.6711 31.9249C95.2832 32.1448 95.7082 32.0168 95.3309 32.233C95.1834 32.3022 93.636 33.0212 93.6484 33.3213C93.6653 33.3956 96.3744 31.3104 100.157 30.1892C103.933 28.8479 108.738 30.0127 109.412 30.4036C108.105 29.8579 106.673 29.5289 105.266 29.4368C108.193 29.5226 111.432 31.1025 111.444 31.496C115.448 34.0166 117.537 37.67 119.134 41.1654C120.94 45.3085 122.798 51.3192 119.135 56.766C117.912 58.2698 118.539 57.514 116.269 59.5073C116.918 59.0905 117.556 58.6008 118.152 58.0333C117.608 58.6454 115.948 60.0787 114.226 60.921C112.513 61.8059 110.836 62.2813 110.379 62.4358C110.262 62.4678 110.136 62.7104 108.704 63.0523C107.435 63.3346 107.205 63.2303 106.537 63.3117C105.959 63.3787 105.347 63.481 105.171 63.4927C105.041 63.501 104.981 63.4319 104.677 63.4479C103.704 63.4921 104.495 63.6427 103.531 63.4667C103.761 63.4424 103.987 63.4164 104.224 63.3874C103.054 63.4523 101.466 63.3865 103.17 63.2585C103.467 63.2318 103.215 63.3202 103.439 63.3064C112.046 62.2206 105.142 63.1806 102.155 63.3235C101.776 63.2817 100.65 63.3045 99.3922 63.2335L102.51 59.1756C102.88 60.2706 103.253 61.3291 103.264 61.3982C103.294 61.5823 102.993 60.9653 103.209 61.8347C103.254 62.0176 105.02 67.0365 104.268 65.2686C104.113 64.9038 103.324 62.4781 103.122 61.8971C103.369 63.3412 104.77 66.4471 104.885 66.811C105.345 68.2794 103.746 64.0761 104.834 67.3669C105.67 69.8973 105.013 67.4785 105.404 68.4281C105.624 68.9618 106.432 71.8723 106.613 71.7244C106.968 72.6972 106.663 72.1607 106.696 72.2844C106.73 72.4051 107.445 74.3116 107.614 74.9522C107.634 75.0299 107.445 74.8276 107.463 74.9091C107.499 75.0668 108.151 76.9185 108.186 76.9901C108.208 77.0354 108.153 76.5602 108.237 76.7346C108.336 76.9379 108.92 78.7343 108.98 78.8237C109.069 78.9492 108.293 76.75 108.523 77.0822C108.842 78.1091 109.475 79.7437 109.788 80.3867C109.708 80.2303 109.369 79.2445 109.262 78.899C109.471 79.0078 110.188 81.1277 109.82 80.4447C110.042 80.8829 109.97 80.5567 110.12 80.795C110.159 80.8576 110.384 81.5109 110.453 81.6279C110.464 81.6425 110.294 80.9475 110.371 81.0721C110.511 81.2976 111.171 83.2858 111.211 83.4532C111.324 83.9245 110.724 82.3243 110.613 82.2115C110.596 82.1957 110.935 83.6149 110.931 83.6395C110.837 83.7611 110.405 82.2006 110.355 82.4127C110.461 82.7991 110.566 83.1855 110.671 83.5719C110.065 82.1491 109.206 79.4281 108.844 78.7742C109.616 80.9266 110.38 83.194 110.095 83.2853C109.975 83.3242 109.588 82.4139 109.57 82.4603C109.508 82.6348 110.066 83.8916 110.077 83.9412C110.083 83.9829 110.083 84.003 110.077 84.0052C110.077 84.0052 110.077 84.0052 110.077 84.0052C110.013 84.0266 109.341 82.1937 109.28 82.1111C109.176 81.973 109.243 82.8676 109.195 82.8823C109.176 82.8568 108.68 81.5575 108.748 82.0294C108.818 82.5069 109.207 83.6596 109.212 83.7029C109.237 83.9397 108.509 81.9397 108.459 81.8895C108.434 81.8628 108.71 82.9759 108.694 83.0162C108.677 83.0521 108.341 82.249 108.149 81.9528C108.005 81.732 108.197 82.4517 108.145 82.3312C108.109 82.2449 107.464 80.3404 107.422 80.2504C107.359 80.1164 107.436 80.5873 107.396 80.5285C107.339 80.4454 107.156 79.8215 107.156 79.9108C107.157 79.9778 107.712 82.4474 107.639 82.4549C107.515 82.4668 106.924 79.8523 107.266 82.3556C107.268 82.373 107.494 82.9339 107.497 82.9507C107.533 83.332 106.783 81.5426 107.565 83.7763C106.006 79.6561 107.216 83.3162 106.813 82.7651C106.657 82.5522 106.079 80.9463 106.065 80.9425C106.024 81.1317 106.272 81.6218 106.284 81.8126C106.291 81.9177 105.701 80.5055 105.746 80.853C105.77 81.0326 106.302 82.5637 106.317 82.6293C106.462 83.2577 106.143 82.5352 106.144 82.6835C106.145 82.7821 106.457 83.7092 106.46 83.7351C106.462 83.7779 105.917 82.5602 105.786 82.3123C105.687 82.124 105.89 82.8887 105.829 82.7544C105.461 81.9454 105.07 80.0916 105.354 81.9096C105.371 82.0206 105.599 82.6675 105.602 82.6878C105.653 83.1179 105.24 81.9247 105.098 81.7343C104.854 81.4075 105.504 83.1035 104.935 81.7028C105.221 82.8014 105.426 83.3977 105.874 84.6448C104.635 81.1918 103.91 80.0706 105.226 83.9245C104.814 82.6961 104.686 82.8913 104.559 82.5264C104.48 82.2994 104.05 80.4618 103.938 81.4093C103.924 81.5282 104.352 82.5877 104.138 82.2831C103.284 79.6812 104.056 82.2495 104.043 82.2567C103.803 82.3008 101.842 75.9004 101.447 74.8205C100.988 73.5673 100.426 72.5058 100.333 72.2312C100.027 71.3277 100.373 72.0464 100.338 71.8329C100.302 71.6168 99.2548 69.107 99.221 68.9754C99.091 68.4645 99.371 68.9328 99.3589 68.8792C99.2165 68.2404 97.9613 64.8184 97.659 63.8438C97.5986 63.8976 98.2507 65.8391 97.7268 64.6665C97.1166 63.3011 97.4001 63.115 97.4013 63.0735C97.1814 62.4261 96.9616 61.7788 96.7418 61.1315L95.3702 56.7606L99.7959 57.1563C105.073 57.3757 111.757 56.2294 113.838 52.9145C113.749 52.893 113.374 53.4656 112.797 53.9797C112.237 54.5017 111.485 54.9555 111.446 54.9637C111.202 55.0126 112.424 54.3637 113.212 53.4442C114.04 52.5554 114.355 51.3289 114.428 51.0158C114.31 51.46 114.145 51.854 113.94 52.2087C114.09 51.5511 114.622 49.9473 114.298 48.5733C114.21 48.1509 114.246 48.977 114.231 48.9509C114.116 48.5173 114.016 47.6935 114.227 48.2737C113.908 47.1329 114.024 47.2214 113.766 46.315C113.749 46.265 113.808 46.6989 113.528 45.9571C113.427 45.6809 113.071 44.7362 112.723 44.0372C112.583 43.7506 112.467 43.5414 112.413 43.4762C112.367 43.4209 112.412 43.8047 112.521 44.1278C112.59 44.3311 112.68 44.4984 112.797 44.5039C113.482 46.5707 113.169 45.0898 113.463 45.9015C113.481 46.0219 113.348 45.8095 113.897 47.7232C113.603 47.4282 113.06 45.1262 112.825 44.742C112.47 43.9848 113.587 47.2783 113.817 47.8161C113.548 47.5975 113.853 48.0337 113.936 48.7338C114.004 49.4472 113.907 49.1455 113.93 49.5281C113.932 50.497 114.091 50.1474 113.865 50.8598C114.123 50.5296 114.108 50.8705 113.943 51.3119C113.783 51.7573 113.428 52.22 113.247 52.3993C113.651 51.6906 113.846 50.8765 113.83 49.8438C113.808 49.9012 113.785 49.9569 113.762 50.0111C113.772 49.759 113.768 49.4832 113.747 49.1866C113.772 49.2307 113.797 49.2779 113.821 49.3232C113.553 47.8507 113.502 47.3838 113.487 47.2483C113.254 46.3124 112.887 45.2771 112.398 44.183C111.984 43.2552 111.558 42.4336 111.114 41.6925C110.963 41.4835 110.986 41.6016 109.906 39.9878C109.548 39.4986 109.997 39.8637 109.542 39.3636C108.75 38.9345 108.948 38.8399 108.761 38.6601C108.255 38.2056 107.899 38.0702 107.852 38.0356C107.217 37.6028 106.286 37.2004 105.524 37.1087C105.511 37.1076 105.885 37.2576 105.403 37.1555C105.279 37.103 103.592 36.583 101.894 37.3342C102.337 37.2106 102.772 37.119 103.193 37.0624C102.949 37.0833 101.948 37.3446 101.105 37.7487C100.264 38.1391 99.612 38.5766 100.074 38.3824C100.63 38.1374 101.849 37.3886 102.064 37.5841C101.155 37.5776 96.4451 40.5325 95.1016 42.1389L90.4269 46.8968L88.4831 40.6955C88.2808 40.0922 88.1443 39.6733 88.1108 39.5415C88.0866 39.4453 88.3534 39.9972 88.319 39.8647C88.2922 39.7622 87.6028 37.7754 87.5413 37.5014C87.5047 37.3384 87.8461 38.2039 87.848 38.1235C87.8455 38.0546 87.0368 35.5557 86.8982 35.4443C87.1408 36.0431 87.6885 37.7713 87.3081 36.8963C87.2595 36.7837 87.1154 36.1636 87.0559 36.0269C86.5041 34.7584 87.8477 38.6522 88.0506 39.2566C87.1078 36.8439 85.9646 33.0061 84.9308 30.1909C84.6189 29.0176 85.6204 31.8536 85.2447 30.5338C84.4653 27.7959 84.8985 29.8522 84.8606 29.7717C84.5587 29.1283 84.1977 26.7112 83.8867 26.8148C83.6039 25.8223 83.7497 26.1253 83.244 24.7606C83.2836 24.9492 83.3233 25.1378 83.363 25.3264C82.6667 23.8567 82.0277 20.4646 82.1442 20.6956C82.4572 21.3171 82.8818 23.0526 82.9339 23.1955C83.011 23.4071 83.5251 23.8901 84.0307 26.3189C84.5645 27.2031 82.9253 22.572 83.784 24.6412C83.2778 23.2189 81.4395 17.2852 81.0609 16.4695C81.0153 16.3737 80.9641 16.9015 80.5933 15.4773L84.8426 17.5922C84.8253 17.5966 84.8077 17.6011 84.7898 17.6056C84.4941 17.6805 84.6124 17.6268 84.8262 17.543L80.6424 15.4607C80.7603 15.7584 80.9373 16.2418 80.9032 16.0484C80.8857 15.9495 80.8271 15.7362 80.7348 15.4295L84.7953 17.4505C81.9345 18.3 70.9493 22.048 68.6818 22.8117C68.5188 22.8663 68.5568 22.7809 68.3966 22.8349C67.9049 23.0009 66.1427 23.6967 65.2513 23.9604C67.1178 23.4728 63.5745 24.6644 62.6679 24.9518C61.3621 25.3657 61.3371 25.2576 60.8255 25.3931L56.453 26.7383L56.6562 22.3157C56.6576 22.3399 56.6601 22.2822 56.6614 22.2744C56.7972 20.178 56.0457 16.7598 55.8675 15.1414C55.6586 15.2878 55.2272 12.3654 54.5972 11.3004C54.1556 10.4183 53.2436 9.50233 53.8387 10.5505C53.0063 9.21119 51.8918 8.31887 50.7887 7.911C50.6026 7.8425 50.8848 7.86207 50.5663 7.75464C50.5357 7.74684 50.4759 7.80159 50.1895 7.72964C48.9913 7.47497 48.5956 7.54066 48.5272 7.4814C48.4527 7.44212 48.6623 7.38978 48.4018 7.36466C48.1187 7.33883 47.8922 7.33958 47.7238 7.34821C49.4589 7.14752 51.0168 7.71312 51.3945 7.94759C51.2728 7.78324 50.5393 7.42566 49.636 7.31178C48.7418 7.17709 47.6488 7.29801 47.1575 7.34716C47.1232 7.34996 47.2295 7.24091 47.1949 7.24476C47.1942 7.24485 47.1935 7.24494 47.1928 7.24504C46.8319 7.21675 44.3379 7.92822 44.8922 7.90357C45.0164 7.89932 46.2012 7.51273 47.4647 7.37421C47.1322 7.4328 47.3948 7.50949 47.3363 7.52065C46.6215 7.6191 44.7148 8.0197 44.0061 8.29395C43.8437 8.3504 43.8784 8.41026 43.852 8.42023C43.8299 8.42799 43.8087 8.43522 43.7884 8.44195C43.2193 8.6359 43.3643 8.38778 42.8451 8.81868C42.1778 8.96646 42.9307 8.61927 43.7409 8.31695C44.3059 8.10338 44.7854 7.95231 44.6741 7.91938C44.6284 7.90792 44.2736 7.99886 43.699 8.20639C42.6489 8.57696 41.1296 9.29925 40.0983 10.0994C39.0543 10.8829 38.5205 11.6785 38.5837 11.7128C38.5551 11.716 38.4815 11.764 38.3583 11.879C38.0187 12.1241 37.334 13.5919 37.3477 13.8909C37.3418 13.9386 37.5245 13.9686 37.5116 14.0241C37.4185 14.1138 37.0555 16.1537 37.3767 17.0346C37.3346 16.5742 37.3259 16.1275 37.3522 15.7029C37.3722 16.999 37.5873 17.621 37.6194 17.7341C37.6686 17.855 37.6118 17.5056 37.5699 17.0489C37.5635 17.0036 37.5641 16.9587 37.5589 16.9157C37.4902 16.206 37.5544 15.388 37.5738 15.3803C37.5991 15.356 37.573 16.3797 37.7822 17.4256C37.9704 18.4621 38.3082 19.4557 38.0654 19.0179C37.9512 18.8838 37.5421 16.6881 37.6574 17.7918C37.6547 17.9818 38.1187 19.4057 38.1522 19.4865C38.2041 19.7554 37.9007 19.111 37.6629 18.4504C37.4181 17.7896 37.2549 17.1216 37.223 17.3215C37.4672 18.0525 37.6812 19.0576 38.0573 19.94C38.2278 20.3408 38.3578 20.4012 38.3798 20.4514C38.724 21.1856 38.4554 20.8072 38.5682 21.0539C38.6161 21.1915 39.5464 22.5451 39.1575 22.4047C42.2297 26.9687 39.8847 23.6526 38.5384 20.7032C39.0181 21.5954 39.9778 23.4115 40.528 24.1789C40.7213 24.4565 40.6783 24.2249 41.02 24.6946C41.2633 25.026 41.9566 26.0197 42.6282 26.823L46.0357 30.8425L41.1823 32.4389C39.0413 33.1715 36.4346 34.0452 35.4882 34.3639C36.413 34.0005 36.1048 34.0002 35.3848 34.263C34.6646 34.526 35.3176 34.4407 35.1816 34.5047C35.0357 34.5727 31.6244 35.7131 31.0664 35.9298C33.6016 34.9781 32.9915 35.0851 30.822 35.8428C31.1252 35.7039 31.4284 35.5649 31.7316 35.4259C30.476 35.9153 27.7545 36.7135 27.0362 37.0177C26.9236 37.0656 27.3661 37.0006 27.3029 37.0275C26.6715 37.2904 24.4521 37.9836 24.3601 38.0476C24.2819 38.1014 25.2402 37.8386 24.9055 37.9952C24.8357 38.028 23.896 38.2369 23.0187 38.5785C22.6931 38.7051 22.9186 38.7121 22.8374 38.7459C22.1596 39.028 22.5213 38.7535 21.266 39.222C20.3463 39.5655 19.7023 39.9369 18.4089 40.348C22.6642 39.0218 19.1113 40.2052 17.3735 40.8766C17.0949 40.9842 17.3857 41.0388 15.6808 41.5665C17.917 40.5907 16.8461 40.9601 15.5419 41.4378L17.6288 37.1215C17.8877 37.854 18.1797 38.6598 18.2945 38.9988C18.3113 39.0509 18.2246 39.1003 18.3814 39.5638C18.3949 39.603 18.4383 39.5252 18.5902 39.9539C20.0305 44.0194 19.0677 41.4342 19.2709 42.2306C19.3574 42.5697 20.1244 44.5239 20.3092 45.0577C20.3515 45.1806 20.267 45.1463 20.4321 45.621C20.7244 46.4606 21.0513 47.1907 21.2467 47.7441C21.2691 47.8088 21.1672 47.8466 21.5604 48.8878C21.6709 49.1806 21.8209 49.5003 21.7068 49.0699C21.3275 47.6427 20.2555 45.056 19.8139 43.4473C19.4111 41.9803 20.9681 46.5079 21.0492 46.7434C21.079 46.8298 20.7256 45.9624 21.0227 46.8648C21.2767 47.6353 21.9338 48.9776 22.2862 50.1348C22.3132 50.223 22.4751 51.1885 22.4519 51.1494C22.4324 51.1133 21.9199 49.7207 21.946 49.9395C21.9494 49.9655 22.2553 50.8573 22.2627 50.9848C22.272 51.1409 22.0159 51.6579 22.0714 51.8517C22.2145 52.3488 22.1941 52.0004 22.296 52.3188C22.5148 53.0013 23.2043 55.3925 23.3647 55.4231C23.2399 55.0319 23.115 54.6406 22.9902 54.2493C23.743 56.4064 23.4851 55.4654 23.615 55.7631C23.755 56.0836 23.6052 56.0311 23.8433 56.7637C23.895 56.9231 24.9619 59.9639 24.9925 59.8915C24.3373 58.2322 24.6969 58.8075 24.6729 58.7288C24.5814 58.4301 24.3706 58.0808 24.2368 57.6839C23.2966 54.8916 24.3868 57.659 24.195 56.9895C24.1288 56.7592 23.9047 56.3317 23.8754 56.2344C23.7802 55.9181 23.8699 55.8817 23.7913 55.6758C23.6079 55.1955 23.6725 55.8074 23.6526 55.7712C23.4231 55.3644 22.9419 53.6274 23.445 54.6391C23.2783 53.9855 23.0817 53.9695 22.9776 53.4416C22.7703 52.3922 23.2491 53.9068 23.4108 54.3063C23.9912 55.739 24.0736 56.1947 24.8028 58.2545C25.0652 58.9963 25.4498 59.8498 25.5724 60.1936C25.6497 60.4103 26.0627 62.5638 26.5361 62.4695C26.7654 63.2832 26.8953 64.6383 27.1902 65.4564C27.4552 66.1909 27.5351 65.9013 27.5648 65.9681C27.6107 66.0704 27.9034 66.9681 28.0294 67.2625C28.1771 67.6074 28.1778 67.4098 28.3948 67.9631C28.9345 69.3399 28.7585 69.3592 28.797 69.5065C29.2444 71.2166 29.2273 70.4067 29.3724 70.7705C29.5072 71.1088 31.0683 75.9681 31.4745 76.9644C31.3004 76.562 31.1263 76.1596 30.9522 75.7571C31.1032 76.5322 31.5377 77.2599 31.3596 77.3362C31.7062 77.3855 32.031 78.9807 32.1955 79.437C32.2605 79.6168 32.3059 79.5854 32.3855 79.8111C32.6966 80.6923 33.338 82.6997 33.5275 83.1706C34.3463 85.2072 32.716 79.8409 32.5843 79.4195C32.8668 80.2565 34.5493 84.9628 33.9482 82.7406C33.8553 82.3971 33.5197 81.8469 33.45 81.66C32.9794 80.3943 33.4411 81.3583 33.4182 81.2543C33.3781 81.0779 32.9763 80.2763 32.9141 80.0498C32.8932 79.9743 33.1633 80.4143 32.7492 79.1954C33.0579 79.7589 34.1436 83.2118 34.3216 83.6527C34.385 83.8097 34.2642 82.7308 35.0501 85.7348C35.0591 85.6937 35.0681 85.6527 35.0771 85.6117C35.6433 87.2404 36.2095 88.8691 36.7757 90.4978C36.6676 90.3367 36.2591 89.4532 36.6737 90.6001C36.9125 91.2603 36.8503 90.7327 36.8741 90.7922C37.107 91.3784 40.6782 101.941 41.3889 103.982C41.5693 104.5 42.0318 105.696 42.2763 106.33L36.8021 103.608C37.0181 103.527 37.1691 103.471 37.2066 103.458C38.0909 103.157 41.2509 102.177 41.8737 101.958C42.2625 101.821 41.8612 101.855 42.2121 101.744C42.5384 101.641 42.2301 101.838 42.3277 101.81C43.1375 101.577 49.1736 99.4621 50.6424 99.0676C49.753 99.3339 45.4111 100.956 45.5195 100.987C45.5413 100.989 46.6318 100.702 46.8419 100.597C47.2307 100.551 48.4069 99.9127 49.1019 99.7328C49.1805 99.7125 48.9193 99.9393 50.1412 99.562C50.5621 99.4319 51.6247 98.9719 52.7636 98.7193C54.3419 98.1399 62.7865 95.538 63.3172 95.2119C63.3319 95.1991 62.1349 95.5417 62.9147 95.2225C63.9514 94.7983 63.081 95.363 64.3249 94.9768C64.5124 94.9187 67.945 93.7588 68.0526 93.7061C69.0484 93.2219 66.0228 94.1563 66.0595 94.1261C66.1508 94.0504 68.641 93.2017 68.7457 93.178C68.8457 93.1562 66.8696 94.0143 69.2947 93.1364C69.0069 93.2066 68.7191 93.2768 68.4313 93.347C69.5685 92.924 69.7207 93.0167 70.0022 92.9326C70.8777 92.6716 71.7513 92.1665 73.2204 91.9502C73.609 91.8932 73.0225 92.1656 73.0717 92.16C73.5415 92.1008 74.0284 91.6842 74.7489 91.6377C74.8031 91.6341 73.2927 92.2465 75.9922 91.3567C75.801 91.4015 75.6097 91.4462 75.4185 91.4909C75.787 91.3285 78.513 90.4055 78.8836 90.2929C79.9662 89.9643 79.0685 90.3917 80.1435 90.0216C79.3974 90.0873 82.6736 88.9836 82.5309 89.1858C82.9315 88.8589 85.7652 88.0749 87.0776 87.6468C87.9057 87.3765 89.5678 86.7435 89.8336 86.6658C90.1574 86.5712 90.0996 86.7232 90.6866 86.5593C90.854 86.5125 92.5461 85.8572 94.0978 85.4831C94.3985 85.4105 95.0804 85.4111 94.553 85.6414C93.6502 86.0354 91.8341 86.4526 91.8962 86.5653C91.965 86.6852 94.3132 85.8262 94.9575 85.6323C97.9324 84.7375 96.2744 85.4357 96.3639 85.4521C96.5937 85.4877 98.2042 84.9533 98.2744 84.9402C98.5663 84.8884 97.4506 85.3445 97.4536 85.4115C97.4591 85.4982 99.06 85.1302 98.7157 85.2736C98.2228 85.4785 96.7557 85.829 96.6671 85.8646C95.5145 86.3305 97.1902 85.9826 97.6652 85.9265C97.8093 85.9099 97.2868 86.133 97.4014 86.1043C99.1499 85.6654 97.6759 85.7263 98.8201 85.3774C99.841 85.0661 98.5771 85.6173 98.6181 85.6112C98.6705 85.602 99.8843 85.2092 100.088 85.1895C100.189 85.1802 97.1173 86.4544 97.2837 86.5168C98.2808 86.1622 99.2779 85.8076 100.275 85.453C100.399 85.5649 98.9205 85.9399 98.7757 86.0034C98.4842 86.1312 99.3464 85.9243 99.3247 85.9798C99.3145 86.0139 98.3623 86.4375 99.2655 86.185C99.5759 86.0982 100.186 85.79 101.332 85.5215C97.4978 86.9256 100.209 86.1175 100.34 86.1287C100.468 86.1407 98.6551 86.8657 100.894 86.1048C101.08 86.3411 100.874 86.2056 100.251 86.4632C99.4886 86.779 101.325 86.2716 98.4452 87.1467C98.6491 87.2187 100.943 86.4526 101.068 86.4225C101.176 86.397 100.686 86.6271 100.875 86.588C103.108 86.1209 101.592 86.4976 102.267 86.447C102.327 86.4426 104.381 85.8291 102.839 86.3625C100.03 87.3342 98.7919 87.5451 98.4431 88.0821C100.585 87.5591 103.034 86.4793 103.667 86.2659C104.637 85.9396 103.656 86.3491 103.783 86.3313C103.827 86.3247 104.662 86.0423 104.675 86.0447C105.368 86.1382 100.95 87.2782 99.6055 87.7775C99.9847 87.7007 100.364 87.6239 100.743 87.547C100.249 87.712 99.7542 87.8769 99.2598 88.0419C101.647 87.3518 99.3538 88.0475 98.8433 88.4765C98.7287 88.5728 100.248 87.9715 98.5292 88.7009C99.8438 88.3051 99.4439 88.4902 100.602 88.0348C100.603 88.139 97.9825 89.1209 96.951 89.5145C100.686 88.4005 98.4621 88.7506 101.721 87.8787C102.276 87.5665 100.757 88.0926 100.875 88.0323C101.299 87.8158 102.382 87.5805 103.565 86.9213C103.758 86.8137 102.847 86.9781 104.137 86.5593C104.28 86.5131 105.135 86.3473 105.126 86.3587C105.045 86.4766 104.222 86.7136 104.2 86.7589C104.179 86.8017 105.079 86.4835 105.085 86.4914C105.147 86.585 104.342 86.78 104.466 86.7746C104.735 86.7636 108.068 85.9101 103.792 87.2479C107.287 85.9667 104.207 86.9852 102.846 87.4835C102.499 87.6104 102.43 87.7011 101.937 87.8873C101.303 88.1269 100.541 88.3456 100.212 88.4666C99.858 88.597 101.94 88.0717 98.984 88.9981C100.528 88.649 103.122 87.6232 104.626 87.2398C107.66 86.4665 102.639 88.1706 102.121 88.3634C101.983 88.4149 102.479 88.3433 102.388 88.3791C102.238 88.4371 99.3676 89.341 99.1085 89.5025C98.8501 89.6637 100.154 89.1543 100.266 89.1967C100.342 89.2251 96.9225 90.4471 98.7995 89.8647C100.093 89.4632 102.4 88.488 102.868 88.5643C100.982 89.2052 99.0963 89.8461 97.2104 90.487C98.2719 90.2247 99.3333 89.9625 100.395 89.7003C98.2799 90.4254 96.415 90.9412 94.4359 91.7193C99.3649 90.3753 92.9293 92.4404 92.8689 92.4945C92.8514 92.5208 94.8264 92.0977 95.1457 92.0342C93.4818 92.6706 88.3593 94.4024 91.4475 93.666C90.8833 93.7884 89.6094 94.3654 89.6303 94.3704C89.835 94.4274 92.6913 93.4049 92.255 93.6612C91.7494 93.9583 90.9339 94.0502 90.1006 94.3391C85.8251 95.8225 87.1973 96.0198 82.8576 97.3479C82.9502 97.3405 83.0428 97.3331 83.1354 97.3257C78.4406 98.8368 73.7458 100.348 69.051 101.859C67.2774 102.642 62.4362 104.359 60.0342 105.129C59.5506 105.284 57.1515 105.971 56.9674 106.014C56.626 106.091 58.4417 105.479 57.5999 105.691C57.4223 105.736 53.3999 107.019 53.7196 107.024C54.1727 106.888 55.5622 106.374 55.8001 106.322C57.4721 105.957 45.0674 109.898 44.4774 110.168C44.7619 110.11 45.0464 110.052 45.3309 109.994C44.5456 110.236 43.7604 110.477 42.9751 110.718ZM76.1639 90.8588C76.5989 90.604 77.7969 90.2926 78.4809 90.0359C79.4256 89.6806 80.9261 88.7569 80.353 89.3758C78.9566 89.8701 77.5603 90.3645 76.1639 90.8588ZM55.5589 97.4865C56.5199 97.2295 55.8598 97.6872 55.057 97.8521C54.9679 97.8701 54.259 97.8345 55.5589 97.4865ZM65.4802 94.3293C65.4414 94.3452 64.6245 94.6082 64.5949 94.6142C63.8354 94.7682 66.2985 93.9758 65.4802 94.3293ZM35.4887 87.3541C35.8519 88.3864 35.7918 87.5695 35.491 86.9533C35.4721 86.9146 35.465 87.2862 35.4887 87.3541ZM35.7352 88.0924C35.8344 88.9565 36.7441 90.4544 36.2681 89.1791C36.2218 89.0555 35.7311 88.0522 35.7352 88.0924ZM58.9491 96.4641C58.8652 96.5667 57.8816 96.8548 57.4609 96.9756C57.4518 96.9102 58.5442 96.606 58.9491 96.4641ZM41.2413 103.828C41.1962 103.813 41.7052 105.336 42.0876 106.395L36.8645 103.797C37.3797 103.617 37.7856 103.466 37.8533 103.419C37.6955 103.48 37.3117 103.608 36.8516 103.758L42.1267 106.381C41.7672 105.317 41.2838 103.844 41.2413 103.828ZM38.2136 95.2138C38.2336 95.3023 38.6454 96.4614 38.6805 96.4115C38.5476 95.8224 38.1236 94.8151 38.2136 95.2138ZM32.3467 78.04C32.3134 77.9809 32.3141 78.954 31.8038 76.8219C31.7288 76.5089 32.1766 77.5653 32.1504 77.4539C32.0941 77.2212 32.0428 77.0395 31.9956 76.8956C32.349 77.8491 32.7022 78.8443 32.7172 78.9471C32.7872 79.4301 32.3612 78.0663 32.3467 78.04ZM29.0436 69.1001C28.9273 68.9185 28.5206 67.644 28.4421 67.3491C28.429 67.2984 28.6301 67.4704 28.4257 66.9038C28.2615 66.4489 28.3646 67.177 28.0808 66.2786C27.7939 65.3707 28.2983 66.5423 28.278 66.4614C28.2507 66.353 27.7158 64.9797 27.8065 64.9971C27.8738 65.0102 28.346 66.5158 28.4841 66.8808C28.661 67.3482 28.5588 66.7431 28.8087 67.5399C28.9658 68.0406 28.707 67.8217 28.7345 67.9293C28.7578 68.0195 29.4457 69.7221 29.0432 69.0973C29.0433 69.0982 29.0434 69.0992 29.0436 69.1001ZM31.8994 76.6379C31.9297 76.7084 31.9617 76.7924 31.9956 76.8956C31.9635 76.8091 31.9312 76.723 31.8994 76.6379ZM73.4629 91.8298C72.9558 91.9404 74.3894 91.3953 74.9625 91.2804C74.9898 91.3311 73.5435 91.8119 73.4629 91.8298ZM31.4603 75.7917C31.0132 74.3487 31.4292 75.3803 31.8994 76.6379C31.7305 76.2452 31.6106 76.2762 31.4603 75.7917ZM46.8419 100.597C46.7773 100.605 46.7326 100.598 46.7174 100.568C46.8878 100.55 46.9081 100.564 46.8419 100.597ZM43.4777 101.644C42.3625 102.118 44.6915 101.346 44.654 101.282C44.6385 101.258 43.5223 101.625 43.4777 101.644ZM35.0441 86.0229C35.0705 86.1307 34.226 84.6057 35.2491 86.8892C34.853 85.6192 35.3384 86.9361 35.357 86.9078C35.4123 86.8315 34.6197 84.7416 34.4912 84.2629C34.2356 83.9409 34.957 85.6673 35.0432 86.0203C35.0435 86.0212 35.0438 86.0221 35.0441 86.0229ZM23.5596 52.8277C23.7339 53.088 24.0199 54.005 24.225 54.6197C24.0508 54.3594 23.7647 53.4423 23.5596 52.8277ZM104.917 37.1372C103.586 37.1243 102.667 37.3904 102.526 37.3565C102.366 37.3616 103.015 37.03 104.33 37.0127C104.388 37.0028 105.085 37.1067 104.917 37.1372ZM81.0801 18.5007C81.0821 18.0585 81.5466 19.3631 81.7813 20.2436C81.8344 20.4428 81.9402 21.2101 81.6356 20.396C81.8089 20.3667 81.4422 19.0725 81.0801 18.5007ZM31.0975 75.0138C30.8649 74.6286 30.4915 73.3259 30.2744 72.6465C30.4896 73.0328 30.9218 74.4074 31.0975 75.0138ZM95.0037 41.9991C94.9943 42.0072 94.9549 42.0486 94.9795 42.024L90.5032 46.5799L88.642 40.6418C88.5043 40.2648 88.323 40.0548 88.3376 40.1277C88.3672 40.2779 88.4505 40.5054 88.5295 40.6798L90.4492 46.8043L95.066 42.1054C95.053 42.0996 95.139 41.9845 95.131 41.9628C95.134 41.9301 95.0955 41.9349 95.0037 41.9991ZM32.4966 79.1528C32.4626 79.2299 31.8308 77.5513 31.924 77.3875C32.0383 77.7534 32.5162 79.0992 32.4966 79.1528ZM23.9144 53.9978C23.9769 54.2705 23.4615 52.9234 23.3478 52.5016C23.4166 52.5151 23.8732 53.819 23.9144 53.9978ZM86.231 33.6287C86.1073 33.2281 85.7757 32.235 85.6909 32.1412C85.5852 32.0249 86.0964 33.4727 86.231 33.6287ZM99.2515 70.7164C99.2471 70.7737 98.5719 69.2905 98.3795 68.5946C98.0148 67.2729 99.2483 70.6569 99.2515 70.7164ZM97.8342 39.5443C98.8316 39.002 97.733 39.6152 97.8472 39.6926C98.4603 39.2361 100.053 38.3158 98.8991 38.8604C98.6787 38.9654 98.1338 39.3396 97.8342 39.5443ZM96.9706 40.1318C96.8859 40.2455 96.3407 40.8499 96.8804 40.4043C97.1442 40.189 97.4621 39.772 96.9706 40.1318ZM99.9262 56.4056C100.197 56.4447 100.006 56.4548 99.8424 56.4555L94.3854 55.9675L96.0766 61.357C96.4357 62.3252 97.3926 65.2624 97.4165 65.378C97.4333 65.4594 97.4415 65.5137 97.4436 65.5454C97.5408 65.723 97.8762 66.6924 97.8305 66.8333C97.7386 66.5397 97.4616 65.747 97.4396 65.6516C97.4301 65.6104 97.4237 65.5795 97.4205 65.5577C97.2497 65.2703 96.2486 62.1404 96.0182 61.3769L94.2989 55.8979L99.8465 56.3939C99.8447 56.3967 99.9188 56.4033 99.9262 56.4056ZM107.783 55.7669C106.704 56.1993 106.423 55.9436 106.526 55.9205C107.74 55.5541 106.977 55.9201 107.016 55.9234C107.114 55.9238 107.947 55.6232 107.779 55.7678C107.78 55.7675 107.782 55.7672 107.783 55.7669ZM101.531 56.4701C101.479 56.4786 100.476 56.4686 100.431 56.4588C99.6132 56.3638 102.464 56.3882 101.531 56.4701ZM26.5372 62.3673C26.2997 61.5874 26.6547 62.3107 26.7951 62.8349C26.8061 62.8781 26.7466 63.0552 26.5372 62.3673ZM96.5462 40.5046C96.4866 40.5358 95.4809 41.3392 94.8974 41.9469L90.5545 46.367L88.7487 40.6058C88.3825 39.5214 88.0273 38.5365 88.0017 38.6926C88.0587 38.8394 88.3409 39.699 88.6528 40.6382L90.5084 46.5583L94.9712 42.0162C95.7382 41.2263 97.1087 40.1505 96.5462 40.5046ZM78.2836 20.098C79.0924 19.8297 78.2569 20.2613 77.8085 20.3537C77.6422 20.3879 78.0798 20.1658 78.2836 20.098ZM33.1537 81.4826C33.5153 82.2939 33.2029 82.2074 33.0416 81.452C33.0353 81.4223 33.1395 81.4508 33.1537 81.4826ZM84.768 18.0246C82.3791 18.9012 82.4434 18.5269 84.8861 17.7226L80.4629 15.5212C80.5893 15.9002 80.7262 16.3365 80.8706 16.8299C80.813 16.7232 80.7553 16.6165 80.6977 16.5098C82.0421 20.7102 80.7633 16.8059 80.3937 15.791C80.3235 15.5985 80.2977 15.5894 80.2733 15.5852L84.9494 17.9125C84.9451 17.937 84.9458 17.96 84.7709 18.0242C84.77 18.0243 84.769 18.0244 84.768 18.0246ZM74.0297 21.5067C71.2415 22.0916 76.4343 20.585 77.8911 20.0546C76.5086 20.6577 74.6465 21.2568 77.2138 20.5467C73.5325 21.802 75.0274 21.1665 74.8766 21.2053C74.6984 21.2519 74.1486 21.4819 74.0297 21.5067ZM81.1111 19.144C81.2632 19.0832 82.4536 18.7566 82.8713 18.6059C82.3176 18.9081 80.1012 19.5489 81.1111 19.144ZM113.291 52.4492C113.332 52.5391 113.338 52.7023 112.954 53.1094C113.038 52.949 113.213 52.6548 113.291 52.4492ZM77.1966 91.003C77.8348 90.7992 79.112 90.4128 78.6947 90.4535C78.6497 90.4601 77.1824 90.9533 77.1966 91.003ZM85.1532 29.8346C85.1178 29.6961 83.9466 26.2025 84.262 27.4393C84.3572 27.8123 85.4407 30.9849 85.1532 29.8346ZM100.068 38.0959C99.8428 38.2001 98.9464 38.7358 98.9393 38.7719C98.9146 38.86 100 38.1938 100.068 38.0959ZM80.4343 90.0298C80.5209 90.0108 82.4592 89.3548 82.2323 89.3849C81.8017 89.4424 80.1373 90.0948 80.4343 90.0298ZM25.3845 59.6287C25.3261 59.4678 25.3429 59.223 25.3247 59.1667C25.281 59.0347 24.2337 56.0836 24.736 57.1761C24.8199 57.3583 26.2327 61.6364 26.4109 62.1947C26.3607 62.4513 25.8557 60.5902 25.6915 60.1514C25.6624 60.0742 25.5421 60.0595 25.3855 59.6298C25.3852 59.6294 25.3849 59.629 25.3845 59.6287ZM111.019 54.5695C111.058 54.7417 108.319 55.849 108.274 55.6909C109.281 55.3934 110.219 55.0188 111.019 54.5695ZM112.11 53.8815C112.553 53.6126 111.611 54.3705 111.224 54.5304C111.211 54.4902 112.065 53.9273 112.11 53.8815ZM95.0415 41.3341C94.8259 41.5639 95.6187 40.9894 95.4765 41.1549C95.3926 41.2457 94.8047 41.7448 94.7763 41.8366C94.7773 41.836 94.7782 41.8355 94.7789 41.8354L90.6286 46.0595L88.9029 40.5538C88.902 40.553 88.9013 40.5532 88.9008 40.5545L90.6276 46.0636L94.7805 41.8369C94.7282 41.9175 95.2702 41.5201 95.4134 41.3866C95.6218 41.1861 95.3456 41.3168 95.5972 41.0881C96.3906 40.3748 97.2227 39.8063 98.0457 39.2427C98.1238 39.1887 97.4985 39.5402 98.1425 39.1017C98.2407 39.0372 98.8939 38.7051 99.6713 38.2655C101.278 37.097 102.765 36.7964 104.735 36.6751C104.681 36.6049 103.108 36.6905 102.995 36.7501C101.167 36.9634 97.6825 38.9509 95.9393 40.5367C95.4835 40.9288 95.7427 40.7878 95.5583 40.9533C95.4153 41.0859 95.4973 40.849 95.0415 41.3341ZM76.8785 91.1744C77.2175 91.1828 78.2586 90.7635 78.9398 90.5451C78.6684 90.5262 77.5503 90.9795 76.8785 91.1744ZM112.25 43.2055C112.116 42.9283 111.689 42.059 111.616 42.0086C111.535 41.9379 112.161 43.1761 112.25 43.2055ZM19.7048 42.9123C19.6906 42.8805 19.4174 42.0622 19.4102 42.0302C19.2476 41.2712 20.0668 43.7257 19.7048 42.9123ZM29.2323 36.7043C29.8441 36.4724 30.4542 36.2183 30.6923 36.2321C30.2947 36.358 29.1816 36.7907 29.2323 36.7043ZM37.5568 15.1759C37.4058 15.2437 37.6706 13.9933 37.7828 13.8027C37.7781 13.8877 37.62 15.1007 37.5568 15.1759ZM113.658 52.5787C113.277 53.1612 113.491 53.1484 113.121 53.455C113.047 53.5026 112.642 53.4256 113.232 52.9272C113.328 52.8268 113.107 53.3384 113.658 52.5787ZM81.0659 17.4208C81.2398 17.6852 81.5232 18.5995 81.7238 19.2142C81.621 19.0959 81.2184 17.8549 81.0659 17.4208ZM83.9729 88.9597C84.5445 88.8905 86.9955 87.9939 86.3591 88.1249C86.2688 88.1444 84.3217 88.8492 83.9729 88.9597ZM29.7614 72.2361C29.3298 71.2493 30.0227 73.3617 30.3321 73.9975C30.224 73.6988 29.7903 72.3026 29.7614 72.2361ZM38.5113 20.2544C38.4852 20.2169 38.1556 19.3247 38.1538 19.2855C37.9686 18.5324 38.8993 21.0355 38.5113 20.2544ZM22.7871 38.8331C23.149 38.6269 25.7095 37.782 26.3035 37.6494C25.7914 37.9448 22.3381 39.0896 22.7871 38.8331ZM114.284 49.6233C114.303 50.211 114.227 50.7468 114.089 51.2073C114.07 51.1536 114.149 50.8021 114.194 50.4319C114.245 50.0458 114.262 49.6601 114.284 49.6233ZM37.5699 17.0489C37.5635 17.0036 37.5641 16.9587 37.5589 16.9157C37.5625 16.9609 37.566 17.0054 37.5699 17.0489ZM106.856 36.9518C106.434 36.7678 106.489 36.9172 106.514 36.9262C106.815 37.0605 107.332 37.183 106.856 36.9518ZM77.712 91.0766C77.9809 91.0955 79.1056 90.6412 79.7745 90.4463C79.5574 90.4329 78.2413 90.8908 77.712 91.0766ZM71.0882 22.2666C70.1953 22.4475 73.6446 21.162 74.4026 20.9846C74.4786 21.0315 71.2186 22.2392 71.0882 22.2666ZM30.6943 75.4393C30.6419 75.5335 31.2329 76.9638 31.1626 76.641C31.1181 76.4366 30.7274 75.3823 30.6943 75.4393ZM76.1724 20.4439C76.4925 20.3115 77.2818 20.1316 77.028 20.267C76.702 20.4407 76.0899 20.4788 76.1724 20.4439ZM87.6849 36.1797C87.6482 36.0326 86.9206 34.1332 87.1116 34.9548C87.2441 35.525 87.3834 35.5759 87.4275 35.7055C87.4761 35.8507 88.385 38.9873 87.6849 36.1797ZM55.148 13.7295C55.3843 14.3349 55.5658 15.1253 55.7229 15.8141C55.6242 15.5366 55.1867 14.0008 55.148 13.7295ZM28.7473 69.8096C28.7769 69.9963 30.3993 74.8029 29.5615 72.0437C29.5125 71.8828 28.6572 69.2427 28.7473 69.8096ZM113.658 52.5787C113.702 52.5044 113.755 52.419 113.814 52.3175C113.759 52.4204 113.705 52.5055 113.658 52.5787ZM112.24 42.7417C112.41 42.9372 111.844 41.8239 111.635 41.5505C111.518 41.4727 112.236 42.7283 112.24 42.7417ZM55.8139 15.8482C55.9388 16.2416 56.0482 16.9871 56.1313 17.4917C56.0727 17.4153 55.8085 16.0296 55.8139 15.8482ZM37.8933 12.8713C38.1749 12.36 38.6354 11.7652 38.596 11.7142C38.6123 11.7108 38.6399 11.6944 38.6811 11.6628C38.7186 11.6254 39.1519 11.1082 39.4145 10.9144C40.1906 10.3528 38.7045 11.5197 38.1274 12.5548C37.807 13.0696 37.6311 13.5395 37.5789 13.5994C37.5481 13.6643 37.5301 13.2733 38.1195 12.2377C38.0299 12.4487 37.9563 12.6571 37.8933 12.8713ZM19.2971 39.9049C18.779 40.003 17.4371 40.586 17.8047 40.4894C18.0606 40.4218 19.816 39.8071 19.2971 39.9049ZM38.1819 33.1589C38.0303 33.1973 36.706 33.7268 36.6857 33.7791C37.4727 33.5475 38.8731 32.9848 38.1819 33.1589ZM15.4896 41.1546C15.4754 41.159 15.461 41.1638 15.4466 41.169L17.3589 37.2137C17.4623 37.5154 17.6971 37.835 17.6903 37.7986C17.6602 37.6397 17.5537 37.3623 17.4636 37.1779L15.4835 41.2732C15.681 41.1739 15.7707 41.0948 15.4896 41.1546ZM114.531 51.3068C114.664 51.0107 114.656 49.9159 114.545 49.6773C114.56 49.6313 114.581 49.5107 114.592 49.2704C114.592 49.2712 114.592 49.2719 114.592 49.2726C114.744 49.1602 113.931 45.3773 113.092 43.8722C112.756 43.1613 112.646 42.9739 113.034 43.8979C113.201 44.308 113.434 44.8794 113.704 45.7028C113.771 45.9204 113.762 45.6142 114.019 46.4796C114.035 46.5357 113.984 46.5823 114.029 46.7519C114.196 47.2055 114.508 49.2463 114.511 49.631C114.499 49.6345 114.489 49.6601 114.479 49.7127C114.438 50.1885 114.468 51.5412 114.531 51.3068ZM40.841 32.2039C40.5629 32.2777 39.7147 32.6019 39.6446 32.6857C40.078 32.561 41.4864 32.0328 40.841 32.2039ZM28.5825 70.0322C28.7283 70.5999 29.288 71.9734 29.1863 71.5353C29.1239 71.2666 28.4142 69.3777 28.5825 70.0322ZM32.281 35.2702C35.4606 34.2126 33.0328 34.998 33.4892 34.7497C33.0865 34.9232 32.6837 35.0967 32.281 35.2702ZM104.908 56.7498C105.381 56.7069 104.857 56.9426 104.304 56.9114C104.133 56.9013 104.647 56.7735 104.908 56.7498ZM102.51 78.6046C102.499 78.127 103.135 80.2629 102.764 79.4724C102.747 79.4352 102.516 78.6373 102.51 78.6046ZM97.1525 62.6219C96.9494 62.3177 96.8619 62.1011 96.575 61.188L95.1233 56.5618L99.8076 56.9806C99.7925 56.9802 99.8141 56.9822 99.8429 56.9844C99.8134 56.9833 99.7926 56.9824 99.8073 56.9839L95.1279 56.5655L96.5781 61.187C97.0508 62.4913 96.7025 61.2074 97.1525 62.6219ZM38.5837 11.7128C38.5892 11.7122 38.5936 11.7114 38.596 11.7142C38.5904 11.7154 38.5866 11.7148 38.5837 11.7128ZM18.3878 40.1429C18.4456 40.5663 18.8315 41.6766 18.7966 41.3186C18.7929 41.2841 18.5008 40.2859 18.3878 40.1429ZM114.545 49.6773C114.531 49.7175 114.521 49.6975 114.511 49.631C114.522 49.6276 114.533 49.6447 114.545 49.6773ZM18.4552 40.0588C18.4362 40.1307 20.1303 39.5554 20.1956 39.5246C21.1277 39.0812 19.1502 39.8085 18.4552 40.0588ZM32.3268 81.2529C32.3627 81.3381 32.3201 80.7238 32.1434 80.3987C32.0065 80.147 32.192 80.9337 32.3268 81.2529ZM98.3039 65.8944C98.4857 66.4309 98.7419 67.1862 98.7179 67.3497C98.6069 66.9865 98.2478 65.901 98.3039 65.8944ZM102.328 77.7458C102.03 77.1401 101.539 75.6917 101.239 74.7622C101.343 74.7078 102.101 77.1595 102.328 77.7458ZM114.19 52.2107C114.22 52.2035 114.532 51.3539 114.411 51.4507C114.275 51.6016 114.061 52.4171 114.19 52.2107ZM31.5141 78.6153C31.2578 78.0316 31.5746 79.4683 31.912 80.0613C32.085 80.3659 31.5572 78.7137 31.5141 78.6153ZM19.473 43.6507C19.7868 44.4294 19.1908 42.4373 19.0198 42.1891C19.1385 42.5566 19.3616 43.374 19.473 43.6507ZM35.8906 33.7468C33.3222 34.4081 34.8216 34.3313 35.2506 34.1392C35.3111 34.1121 35.9533 33.7304 35.8906 33.7468ZM90.3453 87.3532C90.6903 87.2051 89.3291 87.5293 89.1821 87.6598C89.0915 87.741 90.1247 87.4478 90.3453 87.3532ZM47.7238 7.34821C47.638 7.35571 47.5498 7.36461 47.4647 7.37421C47.5276 7.36378 47.6145 7.35393 47.7238 7.34821ZM21.6365 50.9532C21.349 49.0862 21.1701 49.3537 21.1192 49.2004C21.0096 48.8688 20.832 48.0719 20.6053 47.4539C20.8844 48.155 21.1635 48.8562 21.4426 49.5572C21.2727 48.9862 19.7154 44.0525 19.6294 43.9673C19.5067 43.8451 20.0558 45.3774 20.0648 45.4244C20.0778 45.4922 19.9585 45.8016 19.9996 45.9471C20.0677 46.1863 21.4624 50.2802 21.6365 50.9532ZM30.696 35.6275C31.1049 35.5095 31.2469 35.5486 31.4261 35.4637C31.4871 35.4347 31.4705 35.3552 31.6799 35.2589C31.3519 35.3818 31.024 35.5047 30.696 35.6275ZM22.9958 54.0077C23.073 54.5376 22.3449 52.2921 22.3309 52.2169C22.2634 51.8134 22.9327 53.5746 22.9958 54.0077ZM17.5896 40.29C17.5065 40.3133 15.788 40.89 15.82 40.9366C16.2858 40.8156 18.5739 40.0172 17.5896 40.29ZM31.9452 35.159C32.5486 34.9551 33.7103 34.6292 33.5397 34.5611C33.5388 34.5614 33.5379 34.5617 33.537 34.562C33.0064 34.761 32.4758 34.96 31.9452 35.159ZM30.5685 76.6404C30.7675 77.8195 30.8175 77.2116 30.5384 76.2027C30.354 75.9312 30.5356 76.4472 30.5685 76.6404ZM31.6538 80.2604C31.7271 80.5823 32.8574 83.7714 32.7871 83.2499C32.7622 83.0645 32.046 81.2533 32.0238 81.1662C31.9897 81.0342 32.2974 81.5849 31.9406 80.6103C31.924 80.6801 31.6284 80.1503 31.6538 80.2604ZM30.7674 77.6046C31.0078 78.7617 31.3493 78.9235 31.0647 78.0887C30.9537 77.7625 30.7334 77.4394 30.7674 77.6046ZM29.2399 73.0645C29.3521 73.4721 29.6802 74.5477 30.016 75.2517C29.6879 74.2682 29.3599 73.2847 29.0318 72.3012C28.9449 72.2046 29.1419 72.7079 29.2408 73.0672C29.2405 73.0663 29.2402 73.0654 29.2399 73.0645ZM105.248 84.1967C105.022 83.2896 105.739 85.3131 105.75 85.4051C105.778 85.6806 105.35 84.6022 105.248 84.1967ZM98.0276 87.4104C98.2831 87.3584 98.4753 87.4011 99 87.1725C98.4324 87.2814 97.8647 87.3903 97.2971 87.4992C96.9274 87.8004 97.7483 87.467 98.0276 87.4104ZM100.301 87.3162C100.226 87.3454 100.728 87.4557 99.6795 87.6172C98.9713 87.7263 102.585 86.4136 103.281 86.3066C102.569 86.5979 100.953 87.066 100.301 87.3162ZM107.05 86.2849C107.099 86.2909 105.721 86.7772 105.556 86.8161C104.689 87.0203 106.787 86.2537 107.05 86.2849ZM102.61 87.6961C103.277 87.53 101.846 88.0361 101.408 88.1499C101.351 88.1173 102.507 87.7222 102.61 87.6961ZM105.811 74.0426C105.742 73.2837 105.166 72.779 105.605 73.834C105.626 73.8843 105.813 74.0753 105.811 74.0426ZM105.777 86.9828C105.111 87.149 106.541 86.6428 106.98 86.529C107.035 86.5621 105.878 86.9573 105.777 86.9828ZM106.045 73.4124C105.85 72.4392 105.555 72.9055 105.578 73.0275C105.676 73.5293 106.393 75.1201 106.547 75.4427C105.651 73.0012 106.137 73.8706 106.045 73.4124ZM104.343 69.1965C104.006 68.3466 104.673 70.5845 104.929 70.9677C104.778 70.5398 104.439 69.4381 104.343 69.1965ZM102.694 63.9043C102.551 63.4344 102.117 62.0399 101.974 61.8296C102.158 62.3332 102.562 63.7304 102.694 63.9043ZM102.529 62.7866C102.37 62.0304 102.057 61.9421 102.417 62.7544C102.431 62.786 102.533 62.815 102.529 62.7866ZM100.435 62.2264C100.972 62.3418 101.59 62.0784 100.722 62.0702C100.473 62.0663 100.373 62.2128 100.435 62.2264ZM106.088 72.0972C105.899 71.3998 105.425 70.5799 105.9 72.044C105.7 71.5411 105.499 71.0383 105.299 70.5354C105.848 72.4781 106.044 72.2552 106.22 72.8068C106.465 73.5776 106.243 73.5855 106.128 73.4531C106.464 74.0394 107.371 76.707 107.917 78.2411C107.51 76.8683 106.854 74.6385 106.433 73.2899C106.313 72.9048 106.132 72.5529 106.028 72.2252C105.861 71.6998 106.098 72.1364 106.089 72.0998C106.088 72.099 106.088 72.0981 106.088 72.0972ZM106.44 61.8354C108.022 61.6941 106.986 61.6158 106.117 61.7886C106.078 61.7979 106.404 61.8383 106.44 61.8354ZM107.888 87.1203C105.977 87.6359 107.296 87.0489 103.437 88.5519C105.039 87.8606 103.494 88.4159 103.796 88.2503C104.039 88.118 105.02 87.8378 104.426 87.9286C105.2 87.7878 108.401 86.7005 108.55 86.67C108.549 86.6705 108.547 86.6709 108.546 86.6714C108.635 86.6529 108.498 86.9557 107.888 87.1203ZM103.337 63.6788C103.478 63.11 102.941 63.0877 102.877 62.0849C102.102 60.9838 104.023 65.464 103.907 66.1244C102.248 61.1142 104.726 69.5288 103.998 65.8855C104.807 68.8158 104.374 66.8082 104.582 67.2322C104.805 67.6859 105.289 69.3344 105.373 69.2141C105.372 69.2132 105.372 69.2123 105.372 69.2114C105.027 68.2196 104.682 67.2279 104.337 66.2362C104.426 67.2911 103.81 65.2346 103.772 64.4789C103.627 64.2122 103.482 63.9455 103.337 63.6788ZM105.019 69.3833C104.992 69.2834 104.225 67.132 104.224 67.288C104.291 67.5873 105.369 70.6443 105.019 69.3833ZM108.3 78.884C108.037 78.1072 107.677 76.8905 107.442 76.4982C107.705 77.2751 108.066 78.4919 108.3 78.884ZM119.766 51.8941C119.826 51.238 119.72 51.917 119.551 52.5939C119.393 53.2508 119.136 53.9695 119.38 53.4144C119.431 53.3507 119.779 51.9736 119.766 51.8941ZM102.528 61.4427C102.278 60.4053 102.149 60.9797 102.477 61.6995C102.496 61.7412 102.54 61.4906 102.528 61.4427ZM106.378 87.6574C106.335 87.7512 103.594 88.599 103.111 88.7588C103.364 88.6019 106.429 87.5498 106.378 87.6574ZM109.03 80.1602C108.763 78.528 107.755 76.5317 107.684 76.2996C107.613 76.0688 107.847 76.3893 107.832 76.3362C107.798 76.2152 106.963 73.7835 106.915 73.6683C106.88 73.586 106.872 74.08 106.652 73.5942C107.074 74.5443 108.528 79.0148 108.623 79.2397C108.698 79.414 108.406 78.0089 109.029 80.1575C109.029 80.1584 109.03 80.1593 109.03 80.1602ZM107.523 75.7133C107.663 76.344 107.077 74.641 106.961 74.2199C106.705 73.2842 107.505 75.6327 107.523 75.7133ZM106.193 71.5899C106.142 71.3901 105.559 69.6275 105.435 69.5029C105.622 70.3674 106.308 72.0436 106.193 71.5899ZM107.765 62.1462C108.28 62.0482 109.725 61.7532 109.789 61.6556C109.27 61.8214 107.832 62.0719 107.765 62.1462ZM97.2702 91.284C98.0487 91.0871 96.2935 91.6902 95.7708 91.8339C95.7287 91.8001 97.2039 91.3007 97.2702 91.284ZM103.085 61.0639C103.059 60.9641 102.793 60.1861 102.45 59.196L99.3964 63.1704C101.563 63.2898 104.245 63.051 104.833 62.9608C104.246 62.9979 101.536 63.1942 99.4034 63.0644L102.349 59.2301C102.673 60.1827 102.929 60.9203 102.967 61.0051C102.999 61.0751 103.093 61.0994 103.085 61.0639ZM107.159 72.9822C107.425 73.4558 107.424 73.8243 107.444 73.8886C107.642 74.5188 108.103 75.8085 107.915 75.555C107.578 74.439 106.63 72.0392 107.159 72.9822ZM108.303 62.4986C110.457 61.9975 106.289 62.7619 106.853 62.7283C106.887 62.7345 108.08 62.5565 108.303 62.4986ZM103.321 61.6708C103.538 62.0579 105.343 67.5975 105.643 68.4833C105.233 67.7377 105.123 67.062 104.755 65.9988C104.655 65.7119 104.622 65.8086 104.612 65.7777C104.44 65.2807 104.634 65.6304 104.531 65.323C104.466 65.1289 103.017 61.126 103.321 61.6708ZM107.323 73.2486C107.481 73.5387 108.673 76.9758 108.705 77.1193C108.95 78.1924 107.395 73.5227 107.323 73.2486ZM103.275 61.1221C103.64 61.6598 104.46 64.437 103.742 62.5895C103.674 62.4129 103.488 61.6304 103.275 61.1221ZM108.105 62.7078C108.212 62.7159 110.495 62.1817 110.521 62.0894C110.185 62.2258 106.877 62.9095 108.105 62.7078ZM106.961 63.1048C107.017 63.0925 106.464 63.0828 107.535 62.9109C107.627 62.8896 107.806 63.0059 109.146 62.6514C109.417 62.5783 109.822 62.3894 109.79 62.3925C108.347 62.6585 104.228 63.5584 106.961 63.1048ZM107.436 73.2807C107.42 73.0789 107.714 73.4786 107.779 73.9067C107.807 74.0903 107.612 73.7962 107.436 73.2807ZM115.314 60.0085C114.692 60.4426 115.406 60.0789 116.271 59.4414C117.144 58.8197 118.079 57.8112 118.15 57.6964C118.053 57.8912 115.47 60.0126 115.314 60.0085ZM95.7082 92.5359C95.7091 92.5356 95.71 92.5353 95.7109 92.535C94.7469 92.8312 95.3164 92.564 95.2708 92.5766C93.1965 93.1439 93.791 93.1277 93.4784 93.252C92.8082 93.5189 92.8533 93.2853 91.7266 93.7475C93.5937 92.9979 91.8747 93.6209 91.7975 93.5685C91.4894 93.3525 94.3806 92.8655 95.3116 92.492C95.4413 92.44 94.4331 92.6711 94.7639 92.5332C95.8396 92.0851 99.407 91.3991 95.7082 92.5359ZM107.897 74.2139C108.131 74.6283 109.189 78.0159 108.818 77.1485C108.758 77.0089 107.554 73.6044 107.897 74.2139ZM33.7179 7.15611C34.422 6.23395 32.5948 8.18752 32.4144 8.71559C32.2923 8.92784 33.3891 7.52819 33.7179 7.15611ZM32.2574 24.0721C32.7688 25.1358 33.6299 26.0367 32.9245 24.7954C32.8507 24.6701 32.2386 23.9321 32.2574 24.0721ZM73.1493 14.1046C72.1095 14.3308 72.2364 14.5123 72.9722 14.2638C73.232 14.1761 73.1821 14.0975 73.1493 14.1046ZM46.883 0.667162C46.7433 0.656385 45.2524 0.895953 45.3105 0.9481C45.8673 0.844137 47.7572 0.635331 46.883 0.667162ZM73.4585 13.9697C72.8754 14.2044 73.9483 14.0086 74.6282 13.6238C74.2627 13.7586 73.5185 13.9456 73.4585 13.9697ZM99.4937 63.8092C100.159 63.7647 101.769 63.7958 102.712 63.7317C102.794 63.8561 100.242 63.8537 99.4937 63.8092ZM30.7187 19.1784C31.0431 20.3224 30.5922 17.8181 30.5546 18.0517C30.5466 18.0889 30.6987 19.1366 30.7187 19.1784ZM94.9902 36.0996C94.7035 35.4605 95.3254 37.587 95.2428 36.9719C95.2378 36.9419 95.006 36.1346 94.9902 36.0996ZM96.3958 31.7904C95.8091 32.0361 93.6203 33.4599 94.51 32.9638C94.639 32.869 96.3639 31.8555 96.3958 31.7904ZM93.4473 93.3479C93.7543 93.3688 92.1745 93.8606 91.9433 93.9155C91.8523 93.9366 93.047 93.3209 93.4473 93.3479ZM66.625 16.2603C66.1103 16.4471 64.7547 16.8699 64.5367 17.0067C65.1681 16.783 66.8341 16.3183 66.625 16.2603ZM30.5133 13.4772C30.166 14.6095 30.2353 16.5295 30.3921 16.0497C30.4329 13.95 30.1149 16.3253 30.5133 13.4772ZM76.7602 12.7261C76.3407 12.8558 76.0716 13.1122 76.121 13.1036C76.5947 13.0205 77.1935 12.6465 76.7602 12.7261ZM59.8729 7.16552C59.9387 7.09807 58.8789 5.61351 58.9733 5.84389C59.0292 5.91201 59.8557 7.21257 59.8729 7.16552ZM119.559 56.4152C120.136 55.651 118.587 58.1317 117.884 58.5891C117.568 58.8506 119.555 56.5883 119.559 56.4152ZM89.284 18.9238C89.4 18.9538 88.643 16.888 88.8413 17.7357C88.891 17.9479 89.2449 18.9128 89.284 18.9238ZM90.0136 36.1469C89.422 36.8104 90.4761 35.8175 91.4784 35.0091C92.4983 34.1702 93.5724 33.3963 92.7642 33.8944C92.6357 33.9254 90.0981 35.99 90.0136 36.1469ZM100.164 30.0386C99.8567 30.1282 99.8877 29.7194 101.266 29.5237C101.444 29.4978 100.645 29.7804 100.794 29.7668C100.848 29.6957 103.865 29.2687 104.034 29.3308C104.189 29.3159 104.001 29.2147 104.16 29.197C104.338 29.1528 106.305 29.2876 107.34 29.5443C109.264 29.9896 109.459 30.1003 109.619 30.1358C110.072 30.3164 110.747 30.6822 111.566 31.1748C115.393 33.3533 118.289 38.0952 119.411 41.0411C119.548 41.3797 119.664 41.6938 119.762 41.9805C119.645 41.6718 119.52 41.3625 119.386 41.0523C118.449 38.8889 117.261 36.864 115.596 34.8859C116.392 35.3848 112.428 31.8103 114.776 33.8587C114.331 33.4272 111.689 30.663 107.869 29.7682C104.073 28.7996 100.631 29.936 100.168 30.0376C100.167 30.0379 100.166 30.0383 100.164 30.0386ZM34.3835 28.0896C33.8849 27.5804 35.9361 30.5275 36.2702 30.6625C35.9695 30.2924 34.4179 28.1585 34.3835 28.0896ZM30.8211 10.5101C30.9894 10.1271 30.8427 9.53192 32.214 7.71299C32.2152 7.71128 32.2165 7.70958 32.2177 7.70788C32.6366 7.1905 32.2344 7.83276 32.3222 7.7468C32.3464 7.68846 33.6765 6.22381 32.6623 7.51862C31.2207 9.65307 32.3584 7.6071 31.6172 8.77219C31.4661 8.89355 30.5106 11.3861 30.641 11.2621C30.6433 11.2479 30.8974 10.4904 30.9666 10.3726C31.1999 9.9384 31.1699 10.1876 31.2004 10.1255C31.2461 10.0295 31.6816 9.00468 32.3124 8.07564C32.9287 7.13631 33.7318 6.29694 33.9557 6.15019C34.0437 6.09418 32.9251 7.18618 32.0521 8.65466C31.1527 10.0965 30.6691 11.8115 30.6338 11.9277C30.5781 12.0851 30.4087 11.9653 30.3451 12.1294C30.2464 12.2162 29.9076 14.8902 29.947 15.2166C29.9386 15.3148 29.9314 15.3896 29.9259 15.4445C29.963 15.064 30.0299 17.3721 29.9916 17.2974C29.9432 17.268 29.8801 15.6783 29.9052 15.6136C29.9073 15.5882 29.9102 15.5662 29.9123 15.5456C29.8761 15.7146 29.8456 14.4236 30.052 13.1939C30.2387 11.9714 30.6313 10.8693 30.3722 11.4549C30.8809 9.82121 30.4223 11.7328 30.8211 10.5101ZM35.5523 4.35599C35.4367 4.46824 35.3234 4.58139 35.2125 4.6954C36.9288 3.27942 39.0355 2.25548 41.1456 1.48054C41.6191 1.30583 42.0878 1.14531 42.5502 0.998279C43.2194 0.792284 42.389 0.908836 43.3142 0.674373C44.0799 0.484531 44.9157 0.433537 44.5215 0.544607C44.4373 0.557853 42.8645 0.882511 42.1928 1.13271C41.7389 1.28989 41.4053 1.42338 41.1631 1.5268C40.2987 1.90479 40.6357 1.84982 40.5394 1.88919C40.399 1.94371 39.1219 2.40927 38.4046 2.79883C36.6854 3.77282 35.8604 4.21895 33.6564 6.26866C34.8371 5.01528 34.0597 5.49034 35.5523 4.35599ZM92.5424 27.6286C92.6311 27.6799 92.9983 28.9559 93.1618 29.4094C93.0733 29.3593 92.7059 28.0823 92.5424 27.6286ZM33.3231 106.445C33.56 106.795 32.5983 103.896 32.7711 104.688C32.8093 104.863 33.1997 106.082 33.3231 106.445ZM28.9499 93.4425C28.7887 93.0659 29.245 94.6482 29.3254 94.6175C29.3507 94.6063 28.9707 93.491 28.9499 93.4425ZM62.7155 12.5844C62.7507 12.6701 63.0489 13.9392 63.0455 13.9777C63.1685 14.8423 62.0983 10.6734 62.7155 12.5844ZM23.4264 77.7064C23.9558 79.0301 22.5995 74.9647 22.9352 76.2338C22.9521 76.297 23.4009 77.6427 23.4264 77.7064ZM21.4805 72.0764C21.5946 72.3981 22.0506 73.8439 22.0891 73.8519C22.1506 73.8628 21.6249 72.209 21.4805 72.0764ZM76.9086 12.2342C76.713 12.1675 78.639 11.6254 79.2932 11.3907C79.4894 11.4574 77.5625 11.9996 76.9086 12.2342ZM64.9115 16.136C72.8737 13.3779 71.1961 14.219 64.4547 16.3525C64.4196 16.2796 64.409 16.3101 64.9115 16.136ZM75.1519 12.7382C74.8867 12.9111 73.9715 13.1911 73.3562 13.3894C73.4489 13.2998 74.714 12.8993 75.1519 12.7382ZM40.3269 111.586C40.1848 111.666 39.8792 111.777 39.5324 111.889L35.5594 113.306L34.0255 109.15C33.7579 108.352 33.4836 107.334 33.6051 107.6C33.6279 107.65 33.9023 108.465 34.1109 109.121L35.6132 113.191L39.5042 111.803C39.9956 111.653 40.3982 111.538 40.3269 111.586ZM63.031 13.3498C63.1218 13.104 63.6853 15.96 63.6621 16.1778C63.72 17.0708 63.1663 13.5812 63.031 13.3498ZM89.8469 18.8207C90.0801 19.2135 90.4393 20.4315 90.6991 21.2052C90.503 20.8792 90.0667 19.4774 89.8469 18.8207ZM88.0341 13.2144C88.0539 13.2618 88.4097 14.3431 88.4218 14.3927C88.6317 15.3062 87.6249 12.2476 88.0341 13.2144ZM97.3224 92.9679C97.2874 92.9827 96.4668 93.2469 96.4372 93.2529C95.6778 93.4068 98.1407 92.6145 97.3224 92.9679Z" fill="black"/>
</svg>
