<svg width="181" height="192" viewBox="0 0 181 192" fill="none" xmlns="http://www.w3.org/2000/svg">
<path d="M46.8809 155.53C47.2891 156.219 47.4081 157.444 47.7431 158.328C49.1184 162.091 49.2531 163.6 49.8992 167.089C51.0401 172.574 52.2862 186.281 49.9218 186.464C49.9217 186.464 49.9217 186.464 49.9216 186.464C49.8955 186.468 49.8689 186.472 49.8417 186.474C49.324 186.523 48.5866 185.467 47.9882 185.371C47.3906 185.279 43.668 185.95 43.2424 184.183C42.6534 181.59 43.1626 175.665 42.9297 174.424C42.7967 173.56 42.316 172.544 42.0794 171.483C41.2924 168.072 41.0628 166.212 39.1838 163.631C39.2326 162.319 39.2197 160.995 39.1301 159.636C38.2512 158.236 37.6077 155.754 37.0268 154.893C36.5749 154.209 35.9691 153.979 35.4886 153.29C34.9346 152.5 34.412 151.021 33.2664 149.662C31.3565 147.428 30.2322 147.731 28.9713 146.521C27.9937 145.599 26.8751 144.031 25.508 142.723C25.0317 142.266 24.4978 141.777 23.9916 141.379C23.6933 141.229 23.3914 141.072 23.0864 140.908C23.0629 141.251 23.0405 141.594 23.019 141.935C22.0191 141.05 22.0351 140.296 21.2479 139.378C20.3479 138.317 19.5053 138.049 18.926 137.319C18.4572 136.726 18.1027 135.624 17.5113 134.86C16.6309 133.711 16.3421 134.267 15.8142 133.704C15.5703 133.514 12.1471 128.782 12.0233 128.488C10.7347 126.331 11.3246 125.777 10.4589 124.007C8.09467 119.12 5.39684 114.146 3.66541 109.363C2.88745 107.227 2.31184 104.922 1.92837 102.689C4.63058 105.634 4.45843 97.7991 2.04614 101.263C1.9618 98.7214 0.838803 97.1132 0.653317 94.745C0.542078 93.2029 0.838159 92.101 0.643076 89.9301C0.284271 86.0935 -0.915577 81.8072 1.32418 80.7234C1.01888 76.2206 2.2651 72.4027 0.537461 70.572C0.557283 69.3831 2.16434 66.5877 2.56378 65.3573C2.8341 64.099 5.5594 55.1644 6.14472 53.7339C6.60432 52.3097 7.50923 49.7279 7.77867 48.5022C8.11861 46.9553 6.66635 45.0422 9.93052 43.3227C10.3759 42.0505 10.7491 41.1102 11.1327 40.2603C11.7121 38.987 12.2815 37.9792 13.3019 36.3675C13.6129 35.881 13.9533 35.9908 14.1107 35.6988C14.432 35.1026 14.7744 33.9516 15.3856 32.8766C16.3797 31.1298 17.6723 30.5693 16.6018 30.1345C17.1878 28.9157 17.8295 27.6928 18.5069 26.5009C18.9688 26.2566 19.4332 26.0182 19.9027 25.7829C20.1739 25.0693 20.4585 24.3606 20.7568 23.6569C21.3984 25.3462 24.1246 20.9769 22.3291 21.5344C24.4161 19.8344 26.6033 18.2996 28.8679 16.9363C29.6899 18.5613 33.5786 13.7516 32.6766 13.2137C32.931 13.0489 33.1866 12.8861 33.4434 12.7253C35.9398 11.7363 37.8551 10.2045 40.8931 9.14708C43.9306 8.13204 43.7317 8.46574 44.9308 8.8881C45.5944 8.5698 46.2622 8.26187 46.9309 7.96488C49.8405 4.49352 50.3862 8.44307 56.2078 5.08798C58.574 5.99836 63.3649 4.2501 66.6757 3.3475C67.0554 3.24052 67.0215 2.95696 67.5287 2.79774C68.7759 2.40076 72.0695 2.39425 71.8627 1.49744C73.0335 1.63952 74.1723 1.7972 75.3272 1.96415C76.2415 1.71707 77.1398 1.47864 78.0523 1.2457C78.0271 0.959657 78.002 0.673614 77.9768 0.387572C79.9212 1.22459 82.8097 0.694197 84.2522 0.87112C84.5402 0.906719 84.6176 1.29873 85.5112 1.37299C86.5659 1.46054 88.4714 1.28662 89.7212 1.38495C90.1921 0.935991 90.6598 0.488275 91.1339 0.0415632C93.3503 -0.231254 94.1345 0.924738 95.4286 1.00813C95.5135 1.01351 96.13 1.00357 96.8951 0.990733L96.8462 0.991148C98.2508 0.939243 100.072 0.934087 100.22 0.924441C102.109 0.818094 101.688 -0.337473 107.292 0.444191C108.312 0.60324 109.078 1.05504 109.969 1.20869C111.535 1.42557 116.469 1.75026 117.073 1.21585C118.805 2.54047 123.919 3.96633 125.276 4.90598C125.68 5.17238 125.558 5.72803 126.802 6.44965C127.819 7.02336 130.697 8.04069 131.941 8.91213C133.256 9.81716 133.447 10.5346 134.007 10.9522C134.54 11.3546 135.269 11.3921 136.001 11.9354C138.282 13.6395 139.803 15.804 141.38 17.35C143.652 19.5805 146.373 20.9725 148.457 22.8315C148.815 23.4161 149.018 24.0958 149.431 24.669C154.592 31.7677 158.489 40.853 160.661 49.1314C161.843 52.9879 162.094 62.9032 164.156 59.8753C164.977 61.1684 165.109 71.3431 165.028 73.2551C165.091 75.1777 165.562 76.7179 165.547 78.2107L165.215 76.4483C165.215 76.4484 165.216 76.4498 165.217 76.4524C166.903 80.5137 167.747 83.4833 170.102 88.2642C170.716 89.5105 171.77 90.6668 172.065 91.4269C172.421 92.3467 172.315 93.5239 172.75 94.7169C173.795 97.5645 176.006 102.771 176.949 105.553C177.122 106.064 176.742 106.384 176.878 107.167C177.383 110.136 178.533 113.332 179.751 112.286C179.847 113.149 180.032 114.054 180.23 114.894C181.01 117.234 180.518 121.082 178.692 123.162C176.999 125.268 175.194 126.239 173.557 126.948C168.672 128.91 162.704 129.373 156.663 129.375L161.674 124.475C161.688 129.133 161.769 133.636 162.059 136.608C162.455 140.673 163.125 140.57 162.547 146.551C162.419 147.882 162.246 149.207 162.093 150.816C161.955 152.252 161.688 153.684 161.496 154.995C161.489 157.358 159.757 159.362 158.629 160.023C157.526 160.735 156.658 161.002 155.913 161.258C154.424 161.732 153.375 162.041 152.306 162.606C147.356 162.567 143.982 162.463 140.862 160.925C140.457 161.194 140.05 161.461 139.642 161.727C139.112 161.68 138.581 161.63 138.058 161.579C137.926 161.27 137.794 160.961 137.664 160.652C133.933 160.146 129.045 160.617 125.893 160.049C125.76 160.025 125.64 160.003 125.536 159.984C125.477 159.973 125.385 159.956 125.329 159.945C125.299 159.94 125.272 159.934 125.249 159.93C125.196 159.92 125.144 159.91 125.142 159.91L131.054 154.995C131.004 160.647 130.562 173.168 130.185 177.908C129.976 180.538 130.601 180.68 129.316 182.186C129.406 182.774 129.495 183.363 129.584 183.951C129.866 184.319 130.147 184.688 130.428 185.056C130.43 185.662 130.418 186.289 130.396 186.928L130.308 191.354L126.055 191.269C123.139 191.17 119.971 190.876 117.333 190.88C111.475 190.889 102.677 191.663 96.794 191.155C95.3189 191.026 93.4749 190.446 92.0303 190.453C89.9278 190.462 89.4168 191.424 86.7487 191.442C82.1503 191.472 73.5865 190.354 69.2401 190.439C67.9492 190.464 67.3469 190.822 66.4555 190.86C62.7177 191.024 59.649 190.995 56.0649 191.549C52.2166 190.626 52.549 189.436 51.3564 188.234C50.4525 187.328 47.6811 185.227 47.2876 184.432C47.0113 183.875 48.0431 183.157 47.6558 182.543C52.2665 182.052 54.2035 182.592 57.9474 183.456C64.8614 183.422 71.7754 183.387 78.6894 183.353C79.3184 183.688 79.9475 184.023 80.5765 184.358C80.5765 184.359 80.5765 184.36 80.5765 184.361C83.2317 184.748 84.3571 183.884 85.789 183.688C95.5221 182.356 111.946 182.71 126.055 183.103L122.23 186.928C122.391 181.164 122.558 175.786 122.619 171.409C122.664 168.157 122.212 157.577 122.757 155.346C122.79 155.209 122.845 155.096 122.908 154.995L122.835 151.274L126.629 151.901C126.84 152.15 127.048 152.498 127.475 152.59C132.878 153.208 138.313 153.664 143.641 153.77C145.915 154.109 148.223 154.321 150.411 154.29C151.5 154.273 152.574 154.187 153.408 153.999C153.814 153.913 154.161 153.771 154.197 153.741C154.215 153.733 154.112 153.774 153.941 154.004C153.763 154.231 153.609 154.68 153.618 154.995C153.574 148.342 153.321 141.647 153.25 135.059C153.211 131.526 153.172 127.972 153.132 124.475L153.06 120.826L156.854 120.835C160.392 120.814 164.282 120.499 167.606 119.71C169.252 119.32 170.849 118.733 171.704 118.11C172.132 117.809 172.246 117.57 172.209 117.609C172.17 117.653 172.221 117.715 172.113 117.352C167.8 104.938 162.339 92.1684 157.274 79.7145L156.962 78.0583C157.039 72.8395 156.578 67.4874 155.717 62.243C154.84 56.6977 152.607 49.9307 150.821 44.7996C150.08 42.6696 150.476 41.4326 148.619 39.0039C148.807 38.8774 148.993 38.7504 149.18 38.6236C147.77 36.3977 146.532 35.1847 144.963 32.7655C143.7 30.6702 139.768 25.633 138.31 24.0953C137.583 23.2669 138.165 23.2684 137.439 22.5371C136.197 21.264 132.985 19.2032 131.038 17.8363C129.295 16.5301 126.384 14.2332 124.816 13.5468C119.249 10.9705 112.729 9.81509 106.283 8.88536C104.52 8.61398 102.228 7.9331 101.627 7.92655C100.523 7.91014 100.184 8.43129 99.4398 8.48513C98.6989 8.54038 97.8694 8.56862 96.9752 8.58841L96.8951 8.58909C93.1327 8.6023 88.515 8.27775 85.3982 8.38505C72.7916 8.79078 59.514 10.5409 48.2536 14.7925C40.9414 17.1861 30.7156 24.3806 26.2295 29.6994C25.2146 30.796 25.0083 30.137 24.2356 31.1343C23.3831 32.2574 23.264 33.1217 22.9245 33.6713C21.5739 35.8331 19.561 39.598 17.991 43.3238C16.684 46.3623 15.5625 49.2042 14.7367 50.9794C14.381 51.7387 13.7593 52.153 13.5923 52.6466C13.5086 52.8923 13.612 53.5444 13.395 54.3157C11.5255 61.1289 10.2308 66.1045 9.30281 72.9162C7.47649 86.0629 10.0008 101.437 15.2494 114.198C16.3591 116.973 16.5175 119.214 16.7209 119.602C17.1659 120.427 17.965 120.685 19.0122 122.253C22.2064 127.098 26.3605 133.706 30.5662 137.457C30.9203 137.78 31.2627 138.091 31.594 138.39C33.9811 140.515 37.5366 143.33 39.6372 145.846C41.3974 147.778 44.4144 153.271 45.1834 154.212C45.6873 154.747 46.4294 154.773 46.8809 155.53ZM0.984268 87.5791C2.02349 87.9845 0.997502 83.2811 0.497168 85.0768C0.376719 85.491 0.703498 87.484 0.984268 87.5791ZM153.844 35.4447C154.09 35.273 154.336 35.1008 154.581 34.9281C154.191 34.4321 153.796 33.9408 153.394 33.4548C153.402 33.8453 153.405 34.2344 153.406 34.6221C153.554 34.8956 153.7 35.1699 153.844 35.4447Z" fill="black"/>
<path d="M79.3772 39.8327C78.9788 40.8451 76.683 38.4345 75.9088 39.567C75.2162 40.6837 76.2572 42.046 75.1319 42.6315C73.964 43.2876 74.2143 44.9893 73.3464 45.0648C72.4463 45.1937 74.2646 46.2887 73.5212 46.718C72.7731 47.1842 72.8398 47.7909 73.3148 48.6012C73.7418 49.4515 74.0861 51.1928 73.3243 51.936C72.5101 52.7551 74.1531 53.3934 74.6096 53.6471C74.7539 53.7455 74.9296 53.797 75.102 53.8182C75.1752 53.8272 75.3097 53.7938 75.4374 53.7471C75.4375 53.7471 75.4375 53.7471 75.4376 53.747C75.5966 53.6887 75.7454 53.6113 75.7529 53.5685C75.789 53.3616 75.9658 53.0047 76.5088 52.6073C77.5469 51.9337 76.2781 52.0629 76.8586 51.3652C77.4805 50.6972 78.6674 50.7258 78.1384 49.8726C77.8931 49.4133 78.5572 49.4091 79.0814 49.4158C79.6199 49.4024 79.9919 49.4167 79.5082 48.5205C78.6774 46.5966 81.3957 48.5777 82.1683 48.4913C82.5885 48.4271 82.6945 47.9305 82.8638 47.4042C83.0212 46.8823 83.2426 46.3473 83.498 46.3488C84.0291 46.346 84.5657 46.6406 85.1377 46.2455C85.4471 46.0477 85.7671 46.2781 86.0306 46.4991C86.311 46.7254 86.5473 46.928 87.0683 46.7928C88.1092 46.4754 89.9163 46.8828 90.9146 47.1452C91.9129 47.3785 92.1748 47.5064 92.2337 48.3898C92.2795 48.9262 92.7313 49.3033 93.7562 49.459C94.2695 49.5346 94.7893 49.2277 94.9138 48.8238C95.0941 48.2325 94.6774 48.0453 95.2289 47.4886C96.3327 46.383 96.6785 45.8229 95.6053 45.7481C94.5493 45.7078 96.0073 44.3353 95.5804 44.1319C95.1317 43.9414 94.3307 44.6614 93.6473 42.5875C92.8466 40.4678 91.7084 39.5057 91.0373 38.8878C90.278 38.2019 88.1175 38.4109 86.7082 37.8637C85.2008 37.1654 82.1146 37.8403 80.8102 37.716C79.4272 37.5439 79.8591 38.8033 79.3772 39.8327Z" fill="black"/>
<path d="M127.552 72.011C127.625 73.2594 124.598 71.9219 124.271 72.9992C123.881 74.1224 124.972 75.469 123.649 76.193C122.996 76.5387 122.555 77.1843 122.131 77.762C121.92 78.0504 121.688 78.3452 121.447 78.5784C121.297 78.7232 121.148 78.8511 120.983 78.975C120.879 79.0607 120.76 79.1599 120.636 79.2688C120.573 79.3238 120.508 79.3826 120.439 79.4474C120.364 79.5238 120.324 79.5423 120.195 79.7143C119.939 80.0647 119.576 80.6273 119.535 81.6749L121.016 78.7137C120.528 78.7209 121.444 80.2739 120.554 80.2916C119.621 80.27 119.37 80.68 118.893 81.5806C118.484 82.5297 115.967 83.5325 115.067 82.6087C114.237 81.76 113.144 83.1169 112.404 83.3426C112.184 83.4152 112 83.5317 111.845 83.6591C111.78 83.7132 111.728 83.843 111.701 83.9762C111.701 83.9763 111.701 83.9764 111.701 83.9765C111.666 84.1423 111.672 84.3134 111.738 84.3482C112.055 84.517 112.505 84.878 113.068 85.5628C114.172 86.8184 114.39 85.5991 116.05 86.1299C117.722 86.6056 119.2 87.5709 121.01 86.1144C122.399 84.8519 124.053 86.533 125.611 84.8424L127.427 82.7672L127.195 81.6749C127.111 83.1987 126.555 83.618 126.502 83.7099C126.371 83.8426 126.292 83.8728 126.249 83.8606C126.166 83.829 126.175 83.6717 126.175 83.496C126.685 80.6207 129.247 82.911 131.607 81.1129C134.056 79.2519 134.698 74.8518 135.482 73.2338C136.375 71.614 137.548 69.0483 137.172 66.2293C136.857 63.5539 137.203 59.9482 135.331 57.6121C133.53 55.2724 130.659 52.8822 129.145 52.0688C127.618 51.2236 127.293 51.0835 126.558 49.6801C126.103 48.8458 125.159 48.1999 123.814 48.1002C123.142 48.056 122.821 48.5781 122.987 49.1339C123.224 49.9446 123.829 50.1571 123.541 50.9361C122.943 52.4732 122.744 53.0966 123.975 53.159C125.21 53.2341 123.973 54.8498 124.46 55.0858C124.927 55.3287 125.941 54.5933 126.624 57.1884C127.218 59.7595 127.395 60.9458 127.484 61.7727C127.568 62.5713 128.982 63.9441 128.656 65.2475C128.431 66.4666 128.227 68.9159 127.199 69.61C126.242 70.2526 127.416 70.8147 127.552 72.011ZM104.641 78.0397C105.428 77.7197 103.574 80.3835 104.115 80.2683C104.685 80.1856 106.001 79.073 106.053 79.725C106.069 80.3365 107.32 80.0996 106.854 80.6852C106.366 81.2375 108.216 80.1737 107.981 80.73C107.731 81.2677 108.055 81.3026 108.823 81.335C109.594 81.3369 110.529 82.269 109.78 82.8583C109.038 83.4058 110.56 83.5345 110.95 83.7926C111.071 83.8664 111.228 83.9186 111.389 83.9554C111.457 83.9709 111.595 83.9654 111.73 83.9489C111.73 83.9489 111.73 83.9489 111.73 83.9489C111.898 83.9284 112.062 83.8904 112.079 83.8555C112.162 83.6859 112.402 83.4217 112.957 83.0283C113.977 82.2599 112.734 82.4577 113.111 81.5807C113.474 80.7028 114.402 79.7642 113.308 79.1559C112.237 78.6551 114.917 76.8618 112.583 76.5606C110.321 76.4711 112.913 74.3767 112.11 72.8661C111.279 71.3581 108.591 71.6614 107.983 71.1187C107.343 70.5307 106.458 69.6041 105.155 69.5403C103.905 69.4874 102.775 67.9788 101.293 68.4845C99.8361 68.9752 98.0399 69.8363 97.2927 70.5031C96.5359 71.163 96.3987 71.3181 95.6626 70.9584C95.2417 70.7536 94.6764 71.0339 94.3509 71.9485C94.1872 72.409 94.3392 72.9926 94.5904 73.2462C94.9554 73.6182 95.1723 73.3125 95.4039 74.0431C95.8572 75.5058 95.973 76.0725 96.2822 75.1815C96.6126 74.2923 96.8334 76.2736 97.0154 76.0445C97.1984 75.8222 97.2543 74.6252 98.2365 75.597C99.1669 76.5848 99.5729 76.9248 99.8707 77.2096C100.139 77.4884 101.136 76.7118 101.561 77.27C101.957 77.7951 103.114 78.0112 103.152 78.7613C103.174 79.4901 103.886 78.3927 104.641 78.0397ZM90.0697 103.159C90.4083 103.033 90.715 103.126 90.9963 103.341C92.1411 104.081 93.2081 106.056 95.0829 105.759C97.4947 105.3 97.6714 103.604 100.283 103.539C103.03 103.404 105.015 101.159 106.343 101.164C107.765 101.116 106.694 99.3039 108.223 98.6802C109.771 97.9834 110.312 96.9682 110.591 95.4565C111.004 93.9426 112.104 90.2052 113.13 88.8966C114.315 87.5448 112.929 85.5899 112.504 84.7016C112.377 84.4032 112.205 84.1816 112.031 84.0229C111.957 83.9555 111.816 83.9384 111.681 83.9549C111.681 83.9549 111.681 83.955 111.681 83.955C111.513 83.9758 111.354 84.0467 111.343 84.1396C111.289 84.5896 111.06 85.2912 110.416 85.9964C109.181 87.2283 110.452 87.5395 109.396 89.1587C108.244 90.7152 106.842 90.9213 106.287 92.875C105.954 93.8765 105.05 93.8911 104.255 93.9414C103.424 94.0015 102.777 94.0964 102.033 95.4828C100.196 98.2434 98.756 95.1194 96.4463 94.8632C95.2545 94.7095 93.864 94.9284 92.4285 95.0496C90.2259 95.0666 88.2951 95.4221 86.9877 95.3671C84.608 95.2387 80.7113 95.3193 77.4699 97.8742C74.309 100.188 70.5932 103.998 70.3194 108.043C69.9057 112.041 70.9327 116.953 71.8127 119.046C72.6813 121.157 72.9047 121.6 72.9095 123.717C72.9205 124.927 73.5614 126.516 74.811 127.536C75.4387 128.04 75.9486 127.685 76.0136 126.973C76.1115 125.926 75.6372 125.239 76.2424 124.579C77.4593 123.26 77.9445 122.815 76.8704 121.806C75.8021 120.76 77.7025 119.922 77.4037 119.295C77.1439 118.671 75.818 118.694 76.7489 115.243C77.7862 111.887 78.5654 110.48 79.1152 109.553C79.6282 108.676 79.8012 106.288 81.2643 105.61C82.4467 104.864 85.5243 103.721 87.114 104.408C88.5838 105.017 88.6326 103.728 90.0697 103.159Z" fill="black"/>
<path d="M62.4152 34.2703C60.0866 35.0157 57.9473 31.8858 54.8703 32.8677C51.8498 33.9465 51.9007 35.6467 48.4994 36.5572C44.9614 37.5729 42.7198 40.8616 41.1429 41.5385C39.4657 42.3042 40.9434 43.7766 39.3292 45.3442C37.7335 47.025 37.4305 48.5168 37.5351 50.5129C37.4821 52.5508 37.6127 57.9252 37.0016 59.9442C36.2578 62.0195 38.0691 64.1187 38.6537 65.2905C38.8373 65.6757 39.0494 65.9693 39.2531 66.1854C39.3395 66.2771 39.4846 66.2971 39.6176 66.269C39.6177 66.2689 39.6178 66.2689 39.6179 66.2689C39.7835 66.2337 39.9303 66.1245 39.9237 65.9872C39.8897 65.3108 39.9815 64.3489 40.4241 63.1472C41.2953 60.9782 39.9671 60.8894 40.4922 58.1273C41.1249 55.3964 42.3933 54.1406 42.5381 51.2326C42.6629 49.7524 43.6579 49.1822 44.551 48.6498C45.4955 48.0878 46.2358 47.5643 47.0628 45.6558C49.2124 41.804 51.4619 44.5293 55.08 43.9455C57.6616 43.5923 60.8716 42.5837 63.5473 42.2226L66.1493 42.0259L67.084 40.7058C67.8271 39.5354 68.4583 38.6671 69.1259 38.087C71.0917 36.39 73.9378 34.5226 76.7813 32.6733C79.7545 30.7228 83.849 31.0317 87.4016 30.9155C91.1004 30.5579 96.6949 32.6851 99.1543 34.1163C101.638 35.4671 102.3 35.963 103.588 38.3219C104.308 39.7113 105.55 41.288 106.852 42.739C107.474 43.4799 108.071 43.2763 108.05 42.1399C107.979 40.5387 107.13 39.6146 107.389 38.5597C107.867 36.4475 107.883 35.4359 105.936 34.411C104.002 33.4583 104.774 31.4611 103.726 30.7756C102.612 30.1925 102.216 30.8037 97.6506 26.8564C92.7909 23.0524 88.9601 22.3633 86.5601 21.9236C84.0362 21.4102 78.9056 22.9053 75.2597 24.0621C71.2791 24.9679 65.2757 29.8393 62.8426 31.5855C60.8935 32.869 61.0082 33.7193 60.697 35.0356L63.8419 33.6869C63.4709 33.8874 62.9846 34.0908 62.4152 34.2703ZM117.278 48.9266C117.987 48.5158 116.227 51.2404 116.619 50.9814C117.053 50.761 118.361 49.6361 118.301 50.17C118.188 50.6387 119.376 50.3654 118.835 50.8611C118.265 51.3017 120.216 50.4342 119.896 50.9058C119.558 51.3463 119.862 51.3867 120.608 51.4876C121.36 51.5564 122.132 52.5295 121.305 52.9761C120.491 53.392 121.981 53.7023 122.335 53.9872C122.446 54.0704 122.595 54.1377 122.751 54.1908C122.817 54.2133 122.954 54.2239 123.09 54.2239C123.09 54.2239 123.09 54.2239 123.09 54.2239C123.26 54.224 123.426 54.2071 123.448 54.1767C123.551 54.0287 123.823 53.812 124.425 53.5224C125.543 52.9568 124.283 52.9719 124.79 52.223C125.283 51.4585 126.35 50.7045 125.356 49.9662C124.374 49.3679 127.258 47.8795 124.925 47.294C122.658 47.0118 125.372 45.0571 124.439 43.4001C123.445 41.7538 120.705 42.2514 120.094 41.7926C119.418 41.2735 118.509 40.4767 117.329 40.5657C116.184 40.6579 115.188 39.2835 113.95 39.849C112.724 40.4106 111.167 41.1961 110.443 41.7759C109.717 42.3544 109.551 42.4865 108.981 42.015C108.654 41.7444 108.144 41.9109 107.648 42.7205C107.398 43.1279 107.383 43.7299 107.559 44.037C107.816 44.4861 108.09 44.2331 108.165 44.9956C108.313 46.5195 108.373 47.1044 108.853 46.2804C109.335 45.4572 109.281 47.4479 109.525 47.2476C109.765 47.0487 109.925 45.8821 110.895 46.9276C111.847 47.9762 112.33 48.3077 112.661 48.5939C112.974 48.8757 113.969 48.0601 114.423 48.5776C114.869 49.0761 115.967 49.1486 115.994 49.8513C116.01 50.5369 116.613 49.3749 117.278 48.9266ZM104.772 51.4654C105.497 51.7984 102.259 51.9259 102.7 52.2831C103.14 52.6487 104.85 52.8025 104.436 53.2015C104.024 53.581 105.154 54.1071 104.434 54.2255C103.715 54.3314 105.831 54.5825 105.331 54.7967C104.83 55.0163 105.088 55.1976 105.742 55.5286C106.4 55.8524 106.868 56.7063 105.98 56.8204C105.097 56.9276 106.49 57.4895 106.791 57.7518C106.884 57.8369 107.019 57.9145 107.163 57.9776C107.222 58.0151 107.357 58.0446 107.489 58.0776C107.489 58.0777 107.489 58.0777 107.489 58.0777C107.652 58.1232 107.818 58.1446 107.843 58.1323C107.967 58.0606 108.268 57.9657 108.905 57.9127C110.095 57.7944 108.861 57.521 109.518 57.1725C110.173 56.8203 111.381 56.697 110.699 56.0479C110.012 55.4238 113.193 55.6343 111.475 54.6658C109.745 53.7433 113.069 53.9304 113.558 53.1331C114.046 52.328 112.229 51.2695 112.38 50.8057C112.534 50.3346 112.913 49.6716 112.448 49.0133C111.985 48.368 113.038 47.4481 112.189 46.7691C111.344 46.0935 110.235 45.1949 109.511 44.8434C108.787 44.4814 108.625 44.4106 108.951 43.9081C109.138 43.6174 108.859 43.3112 107.962 43.1904C107.511 43.1303 106.929 43.2822 106.674 43.475C106.301 43.7562 106.607 43.8692 105.887 44.1045C104.448 44.5708 103.894 44.7414 104.796 44.8462C105.698 44.958 103.757 45.3817 104.003 45.4869C104.248 45.5934 105.413 45.43 104.614 46.2874C103.808 47.127 103.609 47.5275 103.417 47.8166C103.224 48.0958 104.277 48.5997 103.931 49.0684C103.589 49.5291 103.942 50.4236 103.339 50.7869C102.738 51.1409 104.046 51.1525 104.772 51.4654ZM68.4061 76.4309C67.3497 76.2957 69.7163 74.0334 69.0599 73.7671C68.3796 73.4296 66.7087 73.9231 66.8081 72.9314C66.9432 72.0416 65.7256 71.2558 66.4349 70.8254C67.1468 70.4771 65.0121 70.3085 65.5581 69.7161C66.1164 69.1608 65.9135 68.8171 65.4272 68.0367C64.8766 67.3053 65.2721 65.1098 66.4118 65.006C67.4931 64.9007 66.7907 63.4111 66.8965 62.755C66.9227 62.5581 66.9005 62.3591 66.8555 62.1774C66.8363 62.1005 66.7485 61.9924 66.648 61.9008C66.6479 61.9008 66.6479 61.9007 66.6478 61.9007C66.5227 61.7866 66.3775 61.6987 66.3221 61.7282C66.0527 61.8719 65.5724 62.0038 64.7758 62.0205C63.2871 62.0823 64.1987 62.9436 63.0238 63.7424C61.8491 64.6114 60.3308 65.0339 60.5445 66.9761C60.8943 68.7196 57.5522 68.895 59.4053 71.6444C61.4426 73.9527 58.2012 74.7514 58.888 77.727C59.6739 80.7069 63.4286 82.2022 64.4461 83.2324C65.4873 84.373 67.0812 85.9817 69.3603 86.4653C71.5 86.9362 74.2402 88.6507 76.9203 87.6436C79.5773 86.7484 82.3131 84.3082 82.9703 82.8987C83.7054 81.4976 83.7551 81.224 84.9363 80.526C85.6078 80.1154 86.0666 79.1177 85.7659 77.9596C85.6163 77.3728 85.0411 77.1683 84.5946 77.3468C83.9419 77.6014 83.9215 78.1061 83.1551 77.8775C81.6255 77.4057 81.1378 77.0982 81.3708 78.1253C81.5482 79.1912 80.0157 77.885 79.9464 78.2349C79.8707 78.5526 80.5163 79.6818 78.6724 79.5954C76.9334 79.3519 76.3007 79.0447 75.7842 78.8576C75.3515 78.6628 74.0561 79.5307 73.2268 78.8392C72.472 78.2497 70.6083 77.476 70.4531 76.4747C70.3177 75.5334 69.4264 76.4878 68.4061 76.4309Z" fill="black"/>
<path d="M64.5208 109.259C63.7028 108.575 66.8188 107.495 66.1956 106.543C65.568 105.615 63.8622 105.812 64.0023 104.637C64.1339 103.442 62.6997 102.654 63.2355 101.985C63.7663 101.299 61.7139 101.864 61.9506 101.063C62.1759 100.242 61.7629 99.9185 60.8946 99.5928C60.0366 99.2576 58.7704 97.8729 59.1825 96.8768C59.6049 95.8552 57.9022 95.8966 57.3655 95.7295C57.1961 95.672 57.0109 95.6664 56.8365 95.6877C56.7625 95.6968 56.6407 95.763 56.5295 95.8412C56.5294 95.8412 56.5293 95.8413 56.5293 95.8413C56.3908 95.9387 56.2683 96.0539 56.2752 96.1011C56.3073 96.3287 56.2618 96.7527 55.9232 97.3746C55.2719 98.5146 56.4062 97.9387 56.296 99.0142C56.164 100.08 55.2751 100.978 56.347 101.649C57.4247 102.385 54.4776 103.567 56.5977 104.418C58.7217 105.382 55.529 106.359 55.3558 107.769C55.1802 109.179 57.2045 110.718 57.1158 111.621C57.0323 112.503 56.7009 113.651 57.1257 114.86C57.553 116.103 56.3535 117.482 56.9443 118.846C57.5541 120.235 58.066 122.299 58.3834 123.371C58.7139 124.433 58.7511 124.745 58.0172 125.365C57.5917 125.718 57.4866 126.378 57.8735 127.353C58.067 127.842 58.5943 128.136 59.022 128.005C59.6486 127.805 59.6072 127.303 60.3919 127.428C61.9672 127.657 62.6256 127.63 62.1198 126.619C61.5923 125.644 63.5486 126.064 63.4853 125.573C63.4005 125.088 62.3442 124.764 63.7386 123.034C65.1059 121.253 65.4656 120.111 65.7817 119.374C66.1005 118.602 65.2275 116.925 65.6219 115.713C66.043 114.472 65.6276 111.976 66.1304 110.924C66.6439 109.856 65.3357 109.965 64.5208 109.259ZM60.2085 87.5682C60.5601 88.3316 57.7969 86.6285 57.8952 87.2386C57.9815 87.8593 59.2416 89.0283 58.5903 89.1887C57.9505 89.334 58.4192 90.5366 57.7418 90.2184C57.0757 89.8881 58.5546 91.4239 57.9631 91.3358C57.3786 91.2384 57.4193 91.5773 57.6382 92.3081C57.8695 93.0358 57.4257 94.1624 56.6192 93.6955C55.8299 93.225 56.3641 94.6535 56.3348 95.095C56.3289 95.2305 56.3583 95.3902 56.4024 95.5471C56.4211 95.6136 56.4887 95.7341 56.5634 95.8476C56.5634 95.8477 56.5635 95.8478 56.5635 95.8479C56.6566 95.9893 56.7611 96.1198 56.7962 96.1222C56.967 96.1337 57.2858 96.2499 57.8423 96.6097C58.8903 97.2696 58.194 96.2157 59.0504 96.3003C59.9085 96.3765 60.9962 97.0058 61.0804 95.9148C61.1236 94.849 63.4816 97.0096 63.0004 94.9259C62.4441 92.8927 64.957 95.0763 66.0765 94.433C67.1955 93.7824 66.5715 91.4928 67.0544 91.0232C67.5597 90.5334 68.3951 89.917 68.4792 88.8171C68.5498 87.7506 70.1038 87.0263 69.7617 85.5901C69.4322 84.1979 68.7788 82.27 68.0699 81.4594C67.3616 80.6367 67.247 80.6278 67.2934 79.6306C67.3327 79.0403 66.3725 78.3201 65.5111 78.899C65.0903 79.1781 64.9931 79.792 64.9357 80.0859C64.828 80.5 65.0582 80.3642 64.4929 80.8525C63.2943 81.7781 62.5657 81.6391 63.3958 81.324C63.8131 81.1944 63.556 81.3159 63.2013 81.373C62.8489 81.4406 62.4114 81.4757 62.526 81.4787C62.7461 81.4872 63.9593 81.482 62.9766 82.0297C61.9741 82.5232 61.6079 82.8093 61.3088 83.0105C61.0152 83.1915 61.6931 84.1993 61.1086 84.5397C60.5519 84.8528 60.2639 85.9993 59.5017 86.0527C58.7557 86.0913 59.8402 86.8226 60.2085 87.5682ZM29.1569 91.0459C30.6661 91.9415 29.0573 95.0703 30.928 96.2886C32.7737 97.413 34.0792 96.2734 35.5779 97.9248C35.77 98.1316 35.9822 98.3181 36.2071 98.4876C37.8526 99.7372 39.9521 99.8767 40.563 100.795C41.3305 101.867 42.1565 99.9279 43.4235 100.776C44.7566 101.605 45.8161 101.46 47.1138 100.823C48.4862 100.284 51.8726 99.1136 53.3965 99.3415C55.0223 99.6548 55.7896 97.5788 56.3127 96.839C56.4894 96.6037 56.5886 96.3628 56.6391 96.1446C56.6605 96.0521 56.6109 95.9198 56.5361 95.8062C56.5361 95.8061 56.536 95.8061 56.536 95.806C56.4428 95.6647 56.3116 95.5519 56.2288 95.5802C55.8282 95.7168 55.1498 95.8137 54.2526 95.5922C52.6228 95.1248 53.0258 96.3665 51.2286 96.3278C49.4313 96.199 48.5599 95.1502 46.8327 95.8182C45.9163 96.1243 45.4412 95.4047 44.9962 94.7993C44.5244 94.1738 44.1091 93.7065 42.6164 93.9782C41.1673 94.1969 40.6488 93.4849 40.4534 92.6177C40.1725 91.5912 40.2012 90.3238 39.3559 89.2678C37.772 87.3543 34.6588 86.082 34.2684 84.6701C33.8934 83.4402 33.8661 81.9714 33.6789 80.3364L33.6736 79.6847C33.6377 79.5354 33.5988 79.3784 33.557 79.2144C32.9732 76.9298 34.238 74.0663 33.9514 71.4881C33.5962 68.8386 34.0056 65.1272 34.4915 63.381C34.9278 61.6388 35.203 61.1104 36.7177 60.4181C37.602 60.0394 38.5011 59.2896 39.3707 58.1276C39.8162 57.5479 39.564 56.9879 38.8304 56.916C37.7531 56.8261 37.1306 57.4506 36.3092 57.0515C34.6312 56.291 33.6902 56.2161 33.1526 57.8504C32.71 59.4435 30.8307 58.6503 30.4451 59.5152C30.1605 60.3971 30.8825 60.8591 28.376 64.1364C26.0043 67.5657 25.5141 69.7786 25.0385 71.2132C24.5717 72.6998 25.2976 75.8386 25.0011 78.2412C24.9242 78.8348 24.9044 79.5766 24.9433 80.4082L24.9381 79.7544C24.5553 82.7486 25.6205 86.4844 25.9615 88.2402C26.4026 90.6288 27.63 90.0336 29.1569 91.0459Z" fill="black"/>
</svg>
