<svg width="205" height="197" viewBox="0 0 205 197" fill="none" xmlns="http://www.w3.org/2000/svg">
<path d="M109.906 122.019C109.906 151.931 85.3673 172.96 65.2076 174.795C45.048 176.63 6.02974 167.164 6.03149 122.019C6.03325 76.8744 36.461 69.7153 57.8344 69.7153C85.7288 69.7153 109.906 92.1074 109.906 122.019Z" fill="#CECECE" fill-opacity="0.5"/>
<path d="M20.6849 91.0292C14.7227 98.9969 12.5556 110.707 12.4759 122.019C12.4574 123.622 12.4812 125.087 12.5533 126.622C12.6323 128.138 12.2007 128.064 12.181 128.49C12.1349 129.63 12.7414 130.301 12.8213 131.122C13.2309 135.164 14.1063 138.832 15.4188 142.501C16.849 146.22 14.8996 145.089 15.2206 146.526C15.9689 149.316 16.3997 146.37 17.267 147.133C18.6919 149.91 20.3963 152.591 22.407 155.037C21.7643 154.589 21.1192 154.098 20.5066 153.597C21.3536 154.687 22.5407 156.364 20.6053 154.907C20.8563 155.389 21.0769 155.855 21.3586 156.336C21.915 156.015 23.7329 157.748 24.1661 157.601C24.5869 157.476 23.525 156.593 23.5573 156.57C23.8799 156.35 27.769 160.509 28.1531 160.734C28.9634 161.486 27.7132 161.581 28.5223 162.082C29.9455 162.928 29.8614 160.952 30.6147 163.962C31.7405 163.816 31.6067 164.164 32.5747 164.754C32.7021 164.831 32.7953 164.419 32.8574 164.44C34.4894 164.968 32.9917 165.028 32.9769 165.067C32.7828 165.761 34.577 166.325 34.9047 166.543C38.9929 169.354 42.3991 171.09 47.5678 172.404C48.7022 172.708 52.1977 172.984 53.3021 173.205C54.3832 173.443 53.7428 173.876 54.2942 174.175C55.3511 173.061 56.1725 173.018 58.2356 173.895C59.0299 173.039 58.9083 173.757 60.3934 173.588C61.6199 173.451 63.6911 172.314 65.0518 173.082C63.5526 173.122 63.7036 173.55 61.9856 173.875C61.4042 174.062 55.3149 173.851 55.6978 174.722C55.9003 175.216 57.9865 174.9 58.0598 174.981C58.512 175.501 57.31 176.082 56.2989 175.797C56.5603 175.712 56.8674 175.627 57.1544 175.54C54.9092 174.771 56.3014 177.289 54.7167 175.04C54.5226 174.762 54.6321 174.502 54.3123 174.194C54.2296 174.3 54.6274 174.623 54.2561 174.637C53.8755 174.652 53.2211 174.04 53.0619 174.475C52.8258 175.112 54.4274 175.025 54.5361 175.069C54.5377 175.065 54.5393 175.061 54.541 175.058C55.5645 175.503 53.3667 175.337 53.2537 175.378C52.5235 175.705 52.954 176.077 51.8729 176.28C51.2674 176.399 49.7653 176.056 49.2089 176.018C48.6517 175.986 49.4496 176.44 49.0699 176.442C48.6885 176.444 48.2698 176.128 47.8199 176.12C47.6269 176.117 47.5698 176.459 47.4765 176.453C46.4734 176.388 47.2555 175.812 46.3794 175.672C45.8198 175.588 43.7529 175.782 45.025 176.291C44.3707 176.21 43.7476 176.107 43.107 175.994C43.4763 176.198 43.8661 176.37 44.2254 176.583C43.0847 176.13 42.3962 176.553 41.6324 176.383C40.8716 176.21 40.4256 175.332 39.511 175.401C37.5451 175.545 41.9482 176.596 42.4699 176.833C42.669 176.941 41.7072 177.256 41.5746 177.233C40.9905 177.141 40.4576 176.565 40.0269 176.449C38.4821 176.034 37.3931 176.213 35.9039 175.764C30.8659 174.283 24.8323 171.319 20.7125 168.216C19.16 167.067 18.6931 165.859 18.0425 165.301C16.5463 163.987 16.0093 164.174 14.7588 162.921C12.8877 161.056 10.9445 157.846 9.84447 155.982C9.05277 154.685 7.94998 153.788 7.73527 153.441C4.75411 148.787 2.54232 142.476 1.59014 138.13C1.12745 136.111 1.51998 134.993 1.42912 134.588C1.06564 132.821 0.668852 133.37 0.512649 131.879C0.434366 131.068 0.877458 130.86 0.882169 130.751C0.930292 129.818 0.316247 129.697 0.229806 128.968C-0.0433421 126.587 -0.0382023 124.36 0.0660529 122.019C0.151063 120.176 0.284911 118.481 0.409861 116.633C0.430962 116.333 0.695385 116.375 0.693093 116.181C0.679378 115.35 0.235349 115.706 0.266317 114.842C0.328676 113.101 0.599992 111.149 0.91835 109.297C0.951403 109.104 1.30188 109.065 1.36816 108.628C1.43522 108.19 1.16642 107.807 1.30068 107.13C1.64557 105.404 2.40563 103.659 2.89637 101.838C2.97998 101.525 2.68396 101.031 2.81812 100.565C3.22288 99.1233 4.29116 97.0655 4.7586 95.8824C6.30705 91.8742 7.96625 88.1497 10.362 84.7254C10.9223 83.9269 11.7652 83.4537 12.0805 83.0674C12.8061 82.1889 11.9759 82.6389 12.7224 81.7326C18.8581 74.3208 27.6204 69.4968 36.4846 66.9711C39.9668 65.9388 44.2296 64.7715 47.6743 64.4973C49.0999 64.3835 49.4095 64.861 50.4066 64.7812C52.1832 64.6521 52.4676 63.9938 54.362 63.8537C55.4495 63.7781 56.6808 64.083 57.8344 64.2499C58.2966 64.3126 58.7519 64.3581 59.1952 64.3578C60.808 64.3655 61.6025 63.7836 63.4861 63.8832C65.0459 63.9687 67.1506 64.5523 68.8088 64.8331C84.0591 67.3047 98.1717 76.3496 106.387 89.6846C109.296 94.3416 112.011 99.9283 112.99 105.514C113.079 106.037 112.293 105.427 112.858 107.012C113.151 107.861 113.976 108.967 114.395 111.029C115.113 114.591 115.397 118.305 115.291 122.019C115.06 131.132 112.349 140.165 108.468 148.128C101.076 164.625 84.1892 182.192 65.9317 177.867C65.1064 177.64 65.4137 176.104 65.8076 175.635C66.2549 175.893 66.6893 176.204 67.1873 176.481C67.4769 174.534 67.4225 175.078 69.4594 174.841C70.6974 174.676 69.5539 174.108 70.1399 173.74C70.9365 173.305 74.3392 171.241 74.0276 172.635C74.1904 172.352 74.3351 172.082 74.4871 171.803C77.0846 170.662 79.4353 169.197 81.6189 167.527C81.9967 167.236 81.8148 166.891 82.1954 166.59C83.2153 165.774 84.2089 165.432 85.2874 164.627C85.866 164.19 85.6832 163.769 86.4568 163.225C87.2203 162.676 87.5893 163.167 88.1761 161.836C87.0581 161.786 90.2516 159.825 91.1545 158.833C91.2986 158.692 91.9197 157.111 92.5389 156.557C93.1589 156.012 94.3461 155.349 94.976 154.194C95.2712 153.651 95.0859 153.03 95.4547 152.506C95.7142 152.137 96.4228 151.987 96.7818 151.527C97.1437 151.071 97.5307 149.824 97.6488 149.63C98.0836 148.928 97.8587 149.872 98.1845 149.409C99.7518 147.177 101.436 144.444 102.299 141.883C102.406 141.569 101.864 141.832 101.869 141.785C102.297 139.554 102.299 140.845 102.856 140.418C103.438 140.017 104.635 135.852 103.941 135.637C104.802 135.749 104.427 134.651 104.462 134.408C104.601 133.464 105.277 133.819 105.262 132.854C105.255 132.502 104.623 133.042 104.717 132.688C104.946 131.812 105.894 131.181 106.17 129.974C106.236 129.683 105.898 129.537 105.983 129.026C106.081 128.521 106.746 126.375 105.889 127.305C106.621 126.056 106.317 125.746 106.41 124.21C106.431 123.824 107.028 123.336 106.858 122.487C106.813 122.268 106.477 122.22 106.319 122.019C106.271 121.958 106.24 121.882 106.238 121.782C106.22 120.81 106.772 119.894 106.715 118.643C106.61 116.328 105.881 113.934 105.525 111.573C105.425 110.926 106.01 110.963 105.798 110.026C105.767 109.887 105.017 108.892 104.877 108.251C104.807 107.864 104.509 105.799 104.384 105.397C104.196 104.732 103.645 104.807 103.612 104.419C103.507 103.3 104.564 103.805 103.065 103.004C103.46 102.377 103.096 101.692 103.67 101.16C102.742 101.083 103.211 100.226 102.574 99.5546C101.934 98.8798 100.214 99.0162 101.605 98.0231C101.235 97.7562 100.066 96.4375 99.8884 96.2112C99.3791 95.5227 100.018 95.6621 99.617 95.1468C99.5457 95.0568 99.3429 95.3277 98.9699 94.7011C98.7529 94.2724 96.6985 91.4247 96.5776 91.2502C95.4631 89.0632 97.6529 92.0686 98.2184 92.3068C98.1995 92.4354 98.1793 92.5632 98.1639 92.6957C98.66 93.6503 98.903 92.7398 98.7506 92.2409C98.5992 91.7415 97.7898 91.2056 97.7251 90.7391C97.6931 90.5055 98.4568 90.0653 98.7568 90.6289C98.5593 89.9319 99.3444 90.4904 99.3819 90.1258C99.4415 89.7103 97.5449 87.2741 97.1596 87.5927C97.5224 88.033 97.992 88.5652 98.3392 89.0252C98.1385 90.1077 94.5991 90.2028 94.0966 88.0196C93.6836 86.4056 95.8533 87.6615 92.8992 85.6806C93.2609 86.0775 93.5254 86.4519 93.8391 86.8234C93.4291 87.2961 93.3699 86.2555 92.9382 86.113C92.7347 86.0478 93.2662 87.1952 92.4319 86.5778C92.4174 85.3191 91.3 85.4875 90.1848 84.5297C90.5999 84.6785 91.0145 84.8347 91.4284 84.9963C89.9625 82.8094 94.5442 86.6314 91.0466 83.0281C91.5253 83.3994 91.9711 83.8044 92.4491 84.1834C92.4511 83.741 93.4538 83.3553 93.3923 83.0234C93.2253 82.1457 92.2091 81.6823 91.5675 81.0933C91.2849 80.8348 91.6326 80.785 91.6089 80.7634C91.2192 80.4078 91.0699 80.777 90.6966 80.5098C90.2331 80.1704 89.1165 78.8724 88.8653 78.7513C88.2336 78.4305 88.7405 79.7193 88.6488 79.7246C88.0812 79.7572 87.5226 78.9974 87.2888 79.4158C89.3028 80.3299 93.7272 84.6207 88.952 81.7278C89.6625 83.2753 88.6493 83.7859 86.9362 82.599C85.4927 81.6347 86.6504 81.949 86.172 81.0389C86.1184 80.9136 84.2571 79.4239 83.9727 79.6524C84.4593 79.0583 84.1366 78.0701 85.0015 77.6802C85.1299 77.621 85.9631 78.2016 86.0021 77.4798C86.0234 77.1169 85.9459 76.2564 86.2286 75.9574C85.897 76.0819 85.5409 76.2342 85.2049 76.3733C83.8315 75.6507 83.7876 75.2947 83.2817 74.4223C83.2154 74.6352 83.4656 75.8102 82.5523 75.0045C82.5057 74.9617 82.6158 74.6442 82.1488 74.2204C81.201 73.3737 80.9904 73.1668 82.2878 72.726C79.7079 72.0861 79.628 70.8727 76.9878 70.1951C77.0536 71.5547 78.0239 71.5536 80.3461 72.3363C80.3195 72.6491 80.2421 72.9356 80.2142 73.2518C77.5689 71.3438 78.9616 72.0348 77.0683 71.917C76.6074 71.8811 74.4424 70.959 74.9094 72.0086C75.0197 72.2491 76.3767 72.72 76.1118 72.9561C76.0616 72.9932 74.3816 72.5542 74.2605 72.4371C72.7193 70.9257 76.2814 71.2137 70.9704 70.0953C70.8226 70.0687 70.6841 70.4066 70.392 70.3866C69.8432 70.3502 69.932 69.9408 69.4344 69.9271C68.9339 69.9141 68.1673 70.3276 67.5505 69.6821C66.3837 68.5009 69.6672 68.5418 70.9381 69.4086C71.8935 68.1529 61.5324 66.3871 60.8547 66.7113C58.0185 67.0382 62.7181 66.998 62.9181 67.4054C63.0073 67.5622 62.7691 69.383 64.049 68.322C64.4375 68.008 63.0404 67.3826 63.9279 67.2835C64.8206 67.1899 64.4097 67.6908 64.4682 67.7353C64.6663 67.8883 65.6056 67.8131 65.7129 67.9087C67.3368 69.3515 66.9025 71.0461 64.9107 68.1261C63.8038 68.5747 66.0305 69.822 64.7105 70.0469C63.1314 70.3274 62.0999 69.411 61.9018 69.3562C59.5978 68.7583 62.204 70.1263 59.3982 69.6091C57.8155 69.3509 61.8126 68.8475 58.1603 68.8496C58.0452 68.8514 57.9367 68.8542 57.8344 68.8578C55.2561 68.9661 56.7647 69.3897 56.5663 70.325C56.5161 70.5534 54.8863 70.8557 57.1103 70.7255C57.1707 70.4718 57.2868 70.1373 57.427 69.9032C57.5488 69.9439 57.6886 70.0387 57.8344 70.1622C58.3511 70.5913 58.924 71.3752 59.1407 71.4157C60.5073 71.6699 60.4819 71.0198 61.2446 71.8428C60.7203 70.9589 61.6329 71.5295 62.0007 71.3828C63.3743 70.8537 61.6885 70.4059 64.5529 71.6021C64.2217 71.1569 63.9168 70.7265 63.5783 70.2903C63.9434 70.3174 64.3082 70.3481 64.6721 70.3828C65.1004 71.3159 66.9786 71.5041 65.1522 72.1105C67.1395 72.6656 67.9606 72.6723 68.5542 72.0982C68.666 71.9895 68.9831 72.0051 69.3436 72.0762C69.3196 71.8741 69.3642 71.2775 69.4377 71.22C70.1013 70.7164 70.6288 71.9877 70.2553 72.3271C70.4996 72.4094 70.6906 72.484 70.7574 72.5122C71.1793 72.691 70.2238 72.833 70.5455 73.0521C70.652 73.1195 71.8946 73.3794 71.8734 73.5382C71.7308 74.547 69.9963 73.2209 73.7416 75.023C74.1347 74.1951 72.2231 73.7889 72.9831 73.027C73.8207 72.206 74.4392 73.8733 75.0834 72.7641C75.1005 72.9904 75.0804 73.167 75.0742 73.4159C76.894 73.4934 76.5311 74.5043 76.9232 74.909C77.6941 75.6711 81.9085 77.6007 78.5016 75.0087C79.1018 75.1748 79.69 75.4017 80.2789 75.5989C79.5702 77.367 79.6034 76.4783 82.0107 78.1026C82.5379 78.4692 82.2931 79.2851 83.3274 78.7509C82.7669 79.5336 84.6503 80.0051 84.7321 80.2084C85.2299 81.4173 81.2819 80.1973 81.6254 78.4882C80.6973 78.7401 81.1184 77.967 80.3694 77.7111C79.2854 77.3533 79.0873 77.4429 78.1339 76.2971C76.5965 76.5572 82.5599 78.8804 78.562 78.2744C76.0108 77.7461 65.9722 74.6641 57.8344 75.2901C53.4622 75.457 49.761 75.9534 48.0416 76.2444C38.9385 77.9388 34.4717 79.7262 28.0633 83.871C27.3535 84.1989 23.2205 88.0297 23.3649 86.5089C23.3547 86.2837 24.9873 84.2462 22.7928 85.1398C23.4511 85.1882 22.7425 86.306 22.7093 86.4214C21.8768 89.0202 22.977 88.0866 20.6849 91.0292ZM6.61904 97.9203C9.02908 92.2353 6.75758 96.2164 5.74743 94.4048C5.42689 95.1721 5.12436 95.9492 4.8477 96.7073C5.0143 96.5392 5.1802 96.3758 5.34783 96.2121C5.34815 96.2113 5.34846 96.2104 5.34878 96.2096C5.76488 96.7872 6.18794 97.3591 6.61904 97.9203ZM45.8322 177.516C45.5523 177.67 45.2727 177.823 44.9691 177.964C44.1748 177.715 43.3957 177.456 42.6176 177.181C42.7494 177.068 42.8778 176.953 43.0083 176.84C43.9361 177.09 44.8846 177.325 45.8322 177.516ZM71.8159 69.3977C72.7505 70.2604 72.941 69.2236 74.2463 70.1273C74.3038 69.3387 74.3285 68.5584 74.3576 67.7712C73.1806 67.5353 72.8475 67.7433 71.6425 67.237C71.7279 67.5136 71.8141 67.7926 71.8915 68.0699C72.1107 68.0726 72.3451 68.0732 72.5565 68.0827C72.6833 68.8296 70.7149 68.4159 71.8116 69.3983C71.813 69.3981 71.8145 69.3979 71.8159 69.3977ZM82.775 73.3021C83.2855 73.6605 85.2065 75.1678 85.6441 75.0733C87.2029 74.6879 80.7837 71.8996 85.7391 73.5586C85.7945 73.4156 85.8893 73.299 85.9644 73.1692C85.1701 72.6482 84.3587 72.1533 83.5264 71.6784C83.299 72.2331 82.9995 72.7424 82.775 73.3021ZM18.7365 79.1393C19.458 78.5068 22.8792 75.3131 21.2627 75.6703C20.7657 75.7699 19.694 77.8486 19.0923 78.3311C18.6866 78.6481 18.7675 77.8586 18.1312 78.689C18.3231 78.8342 18.5191 79.0104 18.7375 79.1363C18.7372 79.1373 18.7369 79.1383 18.7365 79.1393ZM19.586 82.6166C20.1765 81.9051 20.8069 81.1686 21.4585 80.4868C20.5332 80.4579 19.7743 81.6864 19.1322 81.1166C19.2778 80.8897 19.4317 80.6593 19.5858 80.4319C19.8641 80.4336 20.1386 80.4411 20.4116 80.4517C20.7327 79.56 20.1887 79.6977 21.4865 78.8173C19.9519 78.4019 19.2585 77.9874 18.1687 80.823C18.0612 79.9565 16.0809 78.6349 16.145 80.9251C16.1627 81.343 17.1531 80.6191 17.1978 80.649C17.7508 80.9492 17.5617 81.6833 18.1037 81.9471C18.3464 82.0663 18.8414 81.5728 19.1645 81.7609C19.3174 81.8545 19.2016 82.6638 19.586 82.6166ZM16.0474 81.8663C15.9945 81.3874 14.6214 81.5809 14.1327 82.4282C13.3907 83.7333 15.5095 82.4816 16.0474 81.8663ZM45.8376 177.516C45.8358 177.516 45.834 177.516 45.8322 177.516C45.8332 177.515 45.8343 177.515 45.8353 177.514C45.836 177.515 45.8368 177.515 45.8376 177.516ZM80.0954 71.5501C80.8889 71.559 81.8489 72.0694 81.9912 71.5908C82.2726 71.8341 82.555 72.0801 82.8297 72.3279C82.8938 72.1938 82.9549 72.058 83.0182 71.9252C82.0931 71.3539 81.153 70.8095 80.1922 70.2891C80.1589 70.7078 80.1131 71.1232 80.0954 71.5501ZM89.9293 77.6142C90.9725 78.4422 90.4726 77.2403 90.9013 77.1529C91.3363 77.0662 92.1368 78.0137 92.3087 77.5604C91.6852 77.052 91.0227 76.5362 90.3677 76.0506C90.2494 76.5879 90.0685 77.0932 89.9315 77.6158C89.9308 77.6152 89.93 77.6147 89.9293 77.6142ZM2.47316 122.345C2.49352 122.214 2.52183 122.108 2.55344 122.019C2.74475 121.493 3.03891 121.543 2.5501 120.019C2.55008 120.02 2.55005 120.022 2.55002 120.023C2.38619 120.627 2.23274 121.304 2.12759 122.019C1.94113 123.292 1.91542 124.634 2.2317 125.8C2.72032 124.648 2.25401 123.795 2.47316 122.345ZM69.0703 67.193C68.6134 67.5098 70.2946 68.2154 70.7639 67.9489C71.5414 67.5062 69.7835 66.7005 69.0703 67.193ZM16.0103 154.986C17.7888 155.227 17.4028 152.542 15.5935 150.796C15.4249 150.64 15.9762 152.212 15.5109 151.947C15.4613 151.92 14.9993 151.153 14.7392 151.06C14.4745 150.965 14.2539 151.378 13.9166 151.154C13.3203 150.764 13.0571 149.191 12.5 148.964C12.4206 148.93 12.3838 149.99 12.4 150.056C12.587 151.059 13.6742 151.468 13.7522 151.584C14.1667 152.199 13.6428 152.402 13.638 152.636C13.6311 153.079 14.195 153.475 14.2052 153.521C14.4608 154.76 13.0698 152.467 12.7349 152.271C11.7716 151.721 11.7953 152.795 10.3384 150.853C10.2057 150.679 8.93255 148.254 10.039 151.581C5.65542 146.141 11.0051 155.038 12.0965 155.68C12.501 156.026 12.4862 155.085 12.8595 155.203C13.7039 155.466 14.4903 156.347 15.0386 155.798C16.179 154.639 14.4542 154.089 14.097 153.055C14.4488 152.95 14.7555 152.795 15.1498 152.766C14.5862 152.78 15.8548 154.967 16.0077 154.988C16.0086 154.987 16.0094 154.987 16.0103 154.986ZM6.9529 141.218C6.99458 139.684 6.04527 140.06 6.25612 138.585C5.06696 137.63 5.72715 139.952 5.76496 140.225C5.8982 141.5 4.94083 141.775 5.65446 142.958C6.06494 142.334 6.51625 141.798 6.9529 141.218ZM11.9962 153.175C11.0234 152.601 11.9949 154.119 11.9652 154.239C11.4993 155.504 8.78729 150.732 11.9962 153.175ZM24.6384 77.1646C25.0743 76.919 24.5375 76.6803 24.832 76.3159C25.1286 75.9407 26.6598 75.5167 26.4724 75.2765C26.2958 75.0112 23.4123 75.8257 25.8047 74.1852C25.633 74.0852 25.5966 73.9573 25.4766 73.8465C24.7812 74.2476 24.0796 74.6746 23.4077 75.1131C24.0508 75.2843 24.707 75.4864 25.3109 75.6782C25.1481 76.2445 24.6718 75.9486 24.6514 75.9613C24.6516 75.9618 24.6519 75.9622 24.6522 75.9627C23.9808 76.4398 23.6643 77.7296 24.6384 77.1646ZM4.22599 109.963C5.42709 110.289 4.23188 108.897 4.16299 108.382C4.09051 107.868 4.65811 107.287 4.0906 107.444C3.5869 108.16 4.08772 109.932 4.22756 109.964C4.22704 109.963 4.22651 109.963 4.22599 109.963ZM5.11474 133.407C4.62765 132.244 4.33222 132.479 4.49903 130.908C4.20984 131.004 3.91435 131.102 3.63003 131.198C3.78549 132.426 4.62826 132.214 4.50403 133.638C4.48608 133.874 3.71612 133.499 4.11563 134.49C4.42414 134.116 4.77972 133.76 5.11474 133.407ZM3.30455 127.409C3.46071 128.862 5.96184 129.743 4.66898 127.243C4.48006 126.869 3.19672 126.316 3.30455 127.409ZM15.1724 86.0786C16.7104 84.2415 14.714 86.1143 14.0391 86.4393C17.3024 81.7619 13.6956 86.9509 12.4074 86.784C12.289 87.5752 12.2625 89.1065 13.2331 88.0126C13.641 87.5649 13.2156 87.5407 13.2367 87.5113C13.9405 86.6547 14.3494 87.1079 15.1724 86.0786ZM7.8413 143.651C7.79288 143.572 7.45013 143.851 7.27184 143.604C7.09285 143.357 7.15047 142.631 6.88751 142.651C6.61884 142.671 6.87639 144.012 7.20026 144.325C7.52276 144.638 8.27629 144.362 7.8413 143.651ZM6.41219 134.496C5.8979 133.354 4.74429 135.596 4.81418 135.865C5.37322 138.125 5.9016 134.51 6.41219 134.496ZM14.3593 92.0228C15.0732 89.3042 12.8981 90.2118 11.2852 91.4826C11.3126 91.7801 11.3497 92.0641 11.3871 92.3478C11.0105 90.9361 11.0259 88.6994 9.82369 92.9669C11.0882 90.9595 10.4433 92.8471 10.4909 92.8825C12.011 93.9069 12.8386 90.55 14.3581 92.0249C14.3585 92.0242 14.3589 92.0235 14.3593 92.0228ZM8.94571 147.482C9.47348 148.692 11.3398 151.433 11.3135 149.702C10.512 149.009 9.7169 148.259 8.94571 147.482ZM51.942 71.4273C52.9652 71.8191 53.8542 71.764 55.0728 71.6952C53.9558 71.064 54.6707 70.9618 55.0387 70.7865C55.5957 70.5224 54.2277 70.5863 54.2198 70.544C54.2208 69.9106 55.095 69.7665 53.0916 69.8768C53.5714 69.6298 54.057 69.385 54.5508 69.1475C52.9966 69.1787 52.6326 68.7908 51.5992 68.3515C52.6443 69.5231 51.3248 68.8255 50.2473 69.5397C49.7175 69.895 51.4333 71.2216 51.9457 71.4271C51.9445 71.4272 51.9432 71.4272 51.942 71.4273ZM16.0417 89.7733C16.0107 89.4189 15.9059 89.0382 15.8528 88.6698C16.0016 88.4149 16.1588 88.1589 16.3187 87.9006C16.4995 87.9873 16.6838 88.0848 16.8615 88.1631C17.1403 87.8844 16.8303 87.8421 16.8795 87.7334C16.8804 87.7341 16.8812 87.7347 16.8821 87.7354C17.598 86.1996 18.1129 85.6721 19.4254 85.1343C18.9815 84.7249 18.5376 84.3156 18.0937 83.9063C17.931 84.1677 17.7679 84.4328 17.6096 84.6978C17.7469 85.0332 17.8871 85.367 18.0308 85.698C17.6723 85.8415 17.3105 85.9983 16.9578 86.1495C16.875 86.4368 16.7662 86.7727 16.7105 87.0307C14.5196 87.1006 17.3707 85.3112 16.8822 84.8498C16.5267 84.5254 14.5077 87.1211 14.5254 87.702C14.5266 87.7817 15.9443 87.9393 14.7476 88.5194C14.5691 88.6045 12.2422 87.163 13.3919 89.4599C13.5608 89.78 15.3275 90.132 16.0417 89.7733ZM24.0347 82.3076C21.5806 81.9755 27.7679 79.6486 24.715 80.1125C24.8947 79.0018 24.7956 79.0815 23.7083 78.9924C23.6105 78.9841 23.9473 78.4698 23.8928 78.4754C23.0263 78.6096 22.4042 79.3566 21.9605 78.8019C21.8137 78.9649 21.6755 79.1177 21.5311 79.2831C22.6478 79.2478 21.8157 80.4851 21.7963 81.2543C21.7815 81.6037 22.2489 81.3093 22.2417 81.6097C22.2382 81.7174 21.5576 82.0932 21.6911 82.2911C21.9974 82.7304 22.8237 82.9469 23.6604 82.7587C23.6607 82.7591 23.6611 82.7596 23.6614 82.76C23.786 82.6109 23.9059 82.4581 24.0347 82.3076ZM7.66879 114.217C6.68887 114.412 6.29677 115.647 6.04766 113.227C5.8474 113.327 5.64853 113.432 5.4486 113.534C5.42547 113.956 5.41022 114.323 5.39282 114.73C8.11485 116.127 4.81786 118.169 6.89756 116.849C7.12359 116.704 6.93764 115.753 7.47346 116.714C7.47406 116.713 7.47466 116.712 7.47526 116.71C7.37242 115.412 7.04767 115.221 7.66879 114.217ZM8.27817 105.593C6.92713 102.198 6.34649 109.475 7.14226 108.369C7.18847 108.279 7.3559 105.156 8.27817 105.593ZM8.79342 129.247C8.69903 127.973 7.61356 127.963 7.23115 128.132C6.84828 128.301 7.33122 129.177 7.28288 129.297C7.11874 129.698 6.90059 128.904 6.67273 129.428C6.58525 129.575 6.49767 132.002 6.56967 132.093C6.91503 132.643 7.6791 131.653 7.80625 131.808C8.21763 132.299 7.87333 133.094 8.37219 133.168C9.43351 133.327 8.15642 132.174 8.10812 131.936C7.95934 131.247 8.53871 131.229 8.58475 130.693C8.63253 130.157 8.39646 129.828 8.38944 129.38C8.38713 129.229 8.7966 129.312 8.79342 129.247ZM6.18192 125.055C7.06048 126.394 7.83222 123.023 7.65531 122.613C7.07005 121.41 5.74496 124.406 6.18192 125.055ZM19.0584 83.2867C18.6055 84.6076 20.9883 82.8561 21.471 82.146C21.187 82.0497 19.2193 82.8069 19.0584 83.2867ZM13.9862 92.6852C14.387 91.5809 12.4401 92.2794 12.0222 93.1674C12.5592 94.0773 12.6396 93.5124 12.9607 92.9765C13.2853 92.4415 13.6878 93.5457 13.9862 92.6852ZM11.0338 143.187C10.9377 143.001 8.95641 139.363 9.40707 141.69C9.42662 141.882 10.5413 144.494 10.7735 144.643C11.1949 144.938 11.2228 143.799 11.0338 143.187ZM12.8983 98.123C12.4023 97.2865 12.6462 96.7349 11.5992 96.9089C11.5989 96.9097 11.5986 96.9104 11.5983 96.9112C11.9422 95.3664 13.658 96.094 13.7554 95.7759C14.1129 94.6851 12.4636 95.1094 12.3895 94.2625C12.0202 96.0013 11.4374 95.1599 10.8668 96.3537C10.7396 96.6173 10.7901 97.9362 11.0492 98.1934C11.2995 98.4634 12.4261 98.2688 12.8983 98.123ZM13.5388 148.234C13.1841 146.936 11.5177 146.33 12.1918 148.132C12.5343 149.009 13.7673 149.032 13.5388 148.234ZM82.471 78.11C82.4533 77.7257 82.4254 77.3386 82.3843 76.9478C82.8638 77.1206 83.3428 77.2998 83.8196 77.4863C83.4227 77.373 83.0258 77.2633 82.6263 77.1575C83.3974 77.72 83.4582 78.4449 82.4731 78.1112C82.4724 78.1108 82.4717 78.1104 82.471 78.11ZM103.833 102.374C103.703 102.869 104.906 103.264 104.939 103.142C105.173 102.193 104.008 101.674 103.833 102.374ZM22.4204 84.1341C23.6066 83.2467 21.8004 82.7299 21.0296 83.3093C21.6484 83.1417 21.7559 84.6498 22.4204 84.1341ZM98.2184 92.3068C98.2466 92.1153 98.2731 91.9224 98.2891 91.7162C98.4295 92.2218 98.3739 92.3646 98.2184 92.3068ZM12.1228 142.117C12.1512 141.866 11.6945 140.223 11.487 140.038C11.0376 139.663 10.6179 141.242 11.1439 141.904C11.2005 141.981 12.088 142.374 12.1216 142.113C12.122 142.114 12.1224 142.116 12.1228 142.117ZM83.947 79.6869C83.9527 79.6726 83.9615 79.6611 83.9727 79.6524C83.9638 79.6634 83.9565 79.6761 83.947 79.6869ZM103.868 135.629C103.894 135.627 103.919 135.629 103.941 135.637C103.918 135.634 103.893 135.634 103.868 135.629ZM10.6655 130.203C12.0853 129.44 11.164 128.304 10.5282 129.371C10.4939 129.425 10.6504 130.065 10.6655 130.203Z" fill="black"/>
<path d="M149.914 58.1774C149.914 88.0891 125.376 109.118 105.216 110.953C85.0565 112.788 46.0383 103.322 46.04 58.1774C46.0418 13.0326 76.4695 5.87354 97.843 5.87354C125.737 5.87354 149.914 28.2656 149.914 58.1774Z" fill="#3C3C3C" fill-opacity="0.5"/>
<path d="M60.6935 27.1874C54.7313 35.1551 52.5642 46.8651 52.4844 58.1776C52.4659 59.78 52.4898 61.2455 52.5619 62.7803C52.6409 64.2959 52.2093 64.2217 52.1896 64.6486C52.1435 65.7881 52.7499 66.4592 52.8298 67.2806C53.2395 71.3221 54.1148 74.99 55.4273 78.6595C56.8575 82.3784 54.9081 81.2468 55.2292 82.6841C55.9774 85.4742 56.4082 82.5279 57.2756 83.2915C58.7004 86.068 60.4048 88.7496 62.4155 91.1954C61.7729 90.747 61.1277 90.2566 60.5152 89.7547C61.3621 90.8452 62.5492 92.5226 60.6139 91.0648C60.8649 91.5467 61.0854 92.0128 61.3671 92.4941C61.9235 92.1729 63.7414 93.9062 64.1746 93.7597C64.5955 93.6338 63.5336 92.7515 63.5658 92.7286C63.8884 92.5079 67.7776 96.6676 68.1616 96.8924C68.972 97.6441 67.7218 97.7392 68.5308 98.2403C69.954 99.0857 69.8699 97.1102 70.6232 100.12C71.7491 99.9739 71.6152 100.322 72.5832 100.912C72.7106 100.989 72.8039 100.577 72.8659 100.598C74.498 101.126 73.0002 101.186 72.9855 101.225C72.7914 101.919 74.5856 102.483 74.9132 102.701C79.0015 105.512 82.4076 107.249 87.5764 108.562C88.7107 108.866 92.2063 109.142 93.3106 109.363C94.3918 109.601 93.7514 110.034 94.3027 110.333C95.3597 109.22 96.181 109.176 98.2441 110.054C99.0385 109.197 98.9169 109.915 100.402 109.747C101.628 109.609 103.7 108.472 105.06 109.24C103.561 109.281 103.712 109.708 101.994 110.033C101.413 110.22 95.3235 110.009 95.7063 110.88C95.9089 111.374 97.995 111.059 98.0684 111.14C98.5206 111.659 97.3185 112.241 96.3074 111.955C96.5689 111.87 96.876 111.785 97.1629 111.698C94.9178 110.929 96.3099 113.447 94.7253 111.199C94.5312 110.92 94.6407 110.66 94.3208 110.352C94.2381 110.459 94.6359 110.781 94.2647 110.796C93.8841 110.81 93.2297 110.198 93.0705 110.633C92.8343 111.271 94.4359 111.184 94.5447 111.227C94.5463 111.223 94.5479 111.22 94.5495 111.216C95.5731 111.661 93.3752 111.495 93.2622 111.536C92.532 111.863 92.9626 112.235 91.8815 112.438C91.2759 112.557 89.7739 112.214 89.2174 112.176C88.6602 112.144 89.4581 112.598 89.0784 112.6C88.697 112.602 88.2784 112.286 87.8284 112.278C87.6354 112.276 87.5784 112.617 87.485 112.611C86.4819 112.546 87.2641 111.971 86.3879 111.83C85.8283 111.747 83.7615 111.94 85.0336 112.45C84.3793 112.368 83.7561 112.265 83.1156 112.152C83.4848 112.356 83.8747 112.528 84.234 112.741C83.0932 112.289 82.4047 112.711 81.6409 112.541C80.8801 112.369 80.4342 111.49 79.5195 111.559C77.5536 111.703 81.9568 112.754 82.4785 112.991C82.6776 113.099 81.7157 113.414 81.5832 113.392C80.999 113.299 80.4662 112.723 80.0355 112.608C78.4906 112.192 77.4017 112.371 75.9125 111.922C70.8744 110.441 64.8409 107.477 60.7211 104.374C59.1686 103.225 58.7017 102.017 58.0511 101.459C56.5548 100.145 56.0179 100.332 54.7673 99.0795C52.8962 97.2138 50.9531 94.0041 49.853 92.1402C49.0613 90.8429 47.9585 89.9461 47.7438 89.5994C44.7627 84.9451 42.5509 78.6346 41.5987 74.2882C41.136 72.269 41.5285 71.1512 41.4377 70.7466C41.0742 68.9795 40.6774 69.5279 40.5212 68.0371C40.4429 67.2257 40.886 67.0185 40.8907 66.9089C40.9388 65.9766 40.3248 65.8552 40.2384 65.1265C39.9652 62.7451 39.9703 60.5177 40.0746 58.1771C40.1596 56.3337 40.2935 54.639 40.4184 52.7914C40.4395 52.4912 40.7039 52.5334 40.7016 52.3393C40.6879 51.5083 40.2439 51.864 40.2749 51.0006C40.3372 49.2593 40.6085 47.3068 40.9269 45.4554C40.9599 45.2621 41.3104 45.2236 41.3767 44.7857C41.4438 44.3483 41.175 43.9648 41.3092 43.288C41.6541 41.5621 42.4142 39.817 42.9049 37.9962C42.9885 37.6835 42.6925 37.189 42.8267 36.7229C43.2314 35.2815 44.2997 33.2237 44.7671 32.0406C46.3156 28.0324 47.9748 24.3079 50.3705 20.8836C50.9308 20.0851 51.7737 19.6119 52.0891 19.2256C52.8147 18.3471 51.9844 18.7971 52.7309 17.8908C58.8666 10.479 67.629 5.65498 76.4932 3.12931C79.9754 2.09702 84.2381 0.929689 87.6828 0.655466C89.1085 0.541728 89.418 1.01925 90.4152 0.939408C92.1917 0.810308 92.4761 0.151979 94.3705 0.0118847C95.4581 -0.0637388 96.6894 0.241158 97.843 0.408131C98.3052 0.470783 98.7605 0.516307 99.2037 0.516038C100.817 0.523665 101.611 -0.0582123 103.495 0.0414338C105.054 0.126946 107.159 0.710515 108.817 0.991261C124.068 3.4629 138.18 12.5078 146.395 25.8428C149.304 30.4998 152.019 36.0865 152.999 41.6718C153.087 42.1948 152.302 41.5849 152.867 43.1704C153.16 44.0197 153.985 45.1251 154.404 47.1868C155.121 50.7497 155.405 54.4632 155.299 58.1774C155.069 67.2901 152.358 76.3232 148.477 84.2866C141.084 100.783 124.198 118.35 105.94 114.026C105.115 113.798 105.422 112.263 105.816 111.793C106.263 112.051 106.698 112.362 107.196 112.639C107.485 110.692 107.431 111.237 109.468 110.999C110.706 110.834 109.562 110.267 110.148 109.899C110.945 109.463 114.348 107.399 114.036 108.793C114.199 108.51 114.344 108.24 114.496 107.961C117.093 106.82 119.444 105.355 121.627 103.685C122.005 103.394 121.823 103.049 122.204 102.748C123.224 101.932 124.217 101.59 125.296 100.785C125.875 100.348 125.692 99.9275 126.465 99.3829C127.229 98.8346 127.598 99.3252 128.185 97.9944C127.067 97.9447 130.26 95.9836 131.163 94.9916C131.307 94.8501 131.928 93.2694 132.547 92.7151C133.167 92.1698 134.355 91.5072 134.985 90.3517C135.28 89.8094 135.094 89.1879 135.463 88.6643C135.723 88.2952 136.431 88.1452 136.79 87.6857C137.152 87.2296 137.539 85.9817 137.657 85.7878C138.092 85.0863 137.867 86.03 138.193 85.567C139.76 83.3354 141.444 80.6024 142.308 78.0417C142.415 77.7277 141.872 77.9897 141.878 77.9436C142.305 75.712 142.307 77.0028 142.865 76.5761C143.447 76.1748 144.643 72.0098 143.95 71.7949C144.81 71.9073 144.436 70.8088 144.47 70.5663C144.61 69.6222 145.285 69.9767 145.271 69.012C145.264 68.6598 144.631 69.2001 144.725 68.8459C144.955 67.9705 145.902 67.3392 146.179 66.1326C146.245 65.8411 145.907 65.6955 145.992 65.184C146.089 64.6794 146.755 62.5332 145.897 63.4633C146.629 62.2145 146.326 61.9042 146.418 60.3683C146.439 59.9823 147.037 59.4947 146.866 58.6456C146.822 58.4264 146.485 58.3784 146.328 58.1774C146.28 58.1158 146.248 58.0399 146.247 57.9402C146.229 56.9685 146.781 56.0523 146.724 54.8012C146.618 52.4864 145.889 50.0926 145.534 47.7316C145.434 47.0845 146.019 47.1211 145.807 46.1846C145.776 46.0454 145.025 45.0502 144.885 44.4091C144.816 44.0224 144.517 41.9568 144.393 41.5551C144.204 40.8899 143.653 40.9656 143.621 40.5768C143.515 39.458 144.573 39.963 143.073 39.1618C143.469 38.535 143.104 37.8502 143.679 37.3185C142.751 37.2411 143.22 36.3838 142.583 35.7128C141.943 35.038 140.222 35.1744 141.614 34.1813C141.244 33.9144 140.074 32.5957 139.897 32.3694C139.388 31.6809 140.026 31.8203 139.626 31.305C139.554 31.215 139.351 31.4859 138.978 30.8593C138.761 30.4306 136.707 27.5829 136.586 27.4084C135.472 25.2214 137.661 28.2268 138.227 28.465C138.208 28.5936 138.188 28.7214 138.172 28.8539C138.669 29.8085 138.912 28.898 138.759 28.3991C138.608 27.8997 137.798 27.3638 137.734 26.8973C137.702 26.6637 138.465 26.2235 138.765 26.7871C138.568 26.0901 139.353 26.6486 139.39 26.284C139.45 25.8685 137.553 23.4323 137.168 23.7509C137.531 24.1912 138.001 24.7234 138.348 25.1834C138.147 26.2659 134.608 26.361 134.105 24.1778C133.692 22.5638 135.862 23.8197 132.908 21.8388C133.269 22.2357 133.534 22.6101 133.848 22.9816C133.438 23.4543 133.378 22.4137 132.947 22.2712C132.743 22.206 133.275 23.3534 132.44 22.736C132.426 21.4773 131.309 21.6457 130.193 20.6879C130.608 20.8367 131.023 20.9929 131.437 21.1545C129.971 18.9676 134.553 22.7896 131.055 19.1863C131.534 19.5576 131.98 19.9626 132.458 20.3416C132.46 19.8992 133.462 19.5135 133.401 19.1816C133.234 18.304 132.218 17.8405 131.576 17.2515C131.293 16.9931 131.641 16.9432 131.617 16.9216C131.228 16.566 131.078 16.9352 130.705 16.668C130.242 16.3286 129.125 15.0306 128.874 14.9095C128.242 14.5887 128.749 15.8775 128.657 15.8828C128.09 15.9154 127.531 15.1556 127.297 15.574C129.311 16.4881 133.736 20.7789 128.961 17.886C129.671 19.4335 128.658 19.9441 126.945 18.7572C125.501 17.7929 126.659 18.1072 126.181 17.1971C126.127 17.0718 124.266 15.5821 123.981 15.8106C124.468 15.2165 124.145 14.2283 125.01 13.8384C125.138 13.7792 125.972 14.3598 126.011 13.638C126.032 13.2751 125.954 12.4146 126.237 12.1156C125.906 12.2401 125.549 12.3924 125.213 12.5315C123.84 11.8089 123.796 11.4529 123.29 10.5805C123.224 10.7934 123.474 11.9684 122.561 11.1627C122.514 11.1199 122.624 10.8024 122.157 10.3786C121.21 9.53195 120.999 9.325 122.296 8.88417C119.716 8.2443 119.637 7.03094 116.996 6.35328C117.062 7.71288 118.032 7.71179 120.355 8.4945C120.328 8.80735 120.251 9.09385 120.223 9.40999C117.577 7.502 118.97 8.19297 117.077 8.07516C116.616 8.03926 114.451 7.11716 114.918 8.16676C115.028 8.40734 116.385 8.87823 116.12 9.11427C116.07 9.15139 114.39 8.71241 114.269 8.5953C112.728 7.08393 116.29 7.37192 110.979 6.25348C110.831 6.22694 110.693 6.56482 110.401 6.5448C109.852 6.50842 109.941 6.09902 109.443 6.08527C108.942 6.07226 108.176 6.48585 107.559 5.84034C106.392 4.65908 109.676 4.70005 110.947 5.56682C111.902 4.31115 101.541 2.5453 100.863 2.86946C98.0271 3.19636 102.727 3.15619 102.927 3.56358C103.016 3.72039 102.778 5.54122 104.058 4.48018C104.446 4.16617 103.049 3.54085 103.936 3.44172C104.829 3.3481 104.418 3.84901 104.477 3.89349C104.675 4.04654 105.614 3.9713 105.721 4.06688C107.345 5.50968 106.911 7.20435 104.919 4.28431C103.812 4.73294 106.039 5.98019 104.719 6.20515C103.14 6.48557 102.108 5.56919 101.91 5.51436C99.6064 4.9165 102.212 6.28447 99.4068 5.76733C97.824 5.50908 101.821 5.00571 98.1688 5.00778C98.0537 5.00963 97.9452 5.01241 97.843 5.01599C95.2647 5.12432 96.7733 5.54789 96.5748 6.48323C96.5246 6.71163 94.8949 7.01387 97.1188 6.88372C97.1792 6.63004 97.2954 6.29549 97.4355 6.06136C97.5574 6.1021 97.6971 6.19694 97.843 6.32043C98.3597 6.74947 98.9325 7.53336 99.1492 7.57389C100.516 7.82809 100.49 7.17799 101.253 8.00103C100.729 7.11706 101.641 7.68768 102.009 7.54097C103.383 7.01191 101.697 6.5641 104.561 7.7603C104.23 7.31505 103.925 6.88472 103.587 6.44854C103.952 6.47563 104.317 6.50627 104.681 6.54103C105.109 7.47411 106.987 7.66228 105.161 8.26868C107.148 8.82383 107.969 8.83054 108.563 8.25644C108.675 8.14767 108.992 8.16333 109.352 8.23436C109.328 8.03226 109.373 7.43571 109.446 7.37818C110.11 6.87461 110.637 8.14586 110.264 8.48533C110.508 8.56763 110.699 8.64224 110.766 8.67036C111.188 8.84922 110.232 8.99119 110.554 9.21033C110.661 9.27769 111.903 9.53764 111.882 9.69641C111.739 10.7052 110.005 9.37911 113.75 11.1812C114.143 10.3533 112.232 9.94708 112.992 9.18516C113.829 8.36421 114.448 10.0315 115.092 8.92229C115.109 9.14857 115.089 9.32525 115.083 9.57412C116.903 9.65157 116.54 10.6625 116.932 11.0672C117.703 11.8293 121.917 13.7589 118.51 11.1669C119.11 11.333 119.699 11.5599 120.287 11.7571C119.579 13.5252 119.612 12.6365 122.019 14.2608C122.546 14.6274 122.302 15.4433 123.336 14.9091C122.775 15.6918 124.659 16.1633 124.741 16.3666C125.238 17.5755 121.29 16.3555 121.634 14.6464C120.706 14.8983 121.127 14.1252 120.378 13.8693C119.294 13.5115 119.096 13.6011 118.142 12.4553C116.605 12.7154 122.568 15.0386 118.571 14.4326C116.019 13.9043 105.981 10.8223 97.843 11.4483C93.4707 11.6152 89.7696 12.1116 88.0501 12.4026C78.947 14.097 74.4802 15.8844 68.0718 20.0292C67.3621 20.3571 63.2291 24.1879 63.3735 22.6671C63.3632 22.4419 64.9958 20.4044 62.8013 21.298C63.4596 21.3464 62.7511 22.4642 62.7178 22.5796C61.8853 25.1784 62.9855 24.2448 60.6935 27.1874ZM46.6276 34.0785C49.0376 28.3935 46.7661 32.3746 45.756 30.563C45.4354 31.3303 45.1329 32.1074 44.8562 32.8655C45.0228 32.6974 45.1887 32.534 45.3564 32.3703C45.3567 32.3695 45.357 32.3686 45.3573 32.3678C45.7734 32.9454 46.1965 33.5173 46.6276 34.0785ZM85.8407 113.674C85.5608 113.828 85.2813 113.981 84.9776 114.123C84.1834 113.874 83.4043 113.614 82.6261 113.339C82.7579 113.226 82.8863 113.111 83.0169 112.998C83.9447 113.248 84.8931 113.483 85.8407 113.674ZM111.824 5.55595C112.759 6.4186 112.95 5.38179 114.255 6.2855C114.312 5.49694 114.337 4.71661 114.366 3.92938C113.189 3.6935 112.856 3.90149 111.651 3.39517C111.736 3.67176 111.823 3.95078 111.9 4.22813C112.119 4.23083 112.354 4.23143 112.565 4.24089C112.692 4.98782 110.723 4.57414 111.82 5.55646C111.822 5.55629 111.823 5.55611 111.824 5.55595ZM122.784 9.46032C123.294 9.8187 125.215 11.326 125.653 11.2315C127.211 10.8461 120.792 8.0578 125.748 9.71677C125.803 9.57381 125.898 9.45715 125.973 9.32738C125.179 8.80638 124.367 8.31147 123.535 7.83656C123.308 8.39134 123.008 8.90058 122.784 9.46032ZM58.7451 15.2975C59.4666 14.665 62.8878 11.4713 61.2712 11.8285C60.7742 11.9281 59.7026 14.0068 59.1008 14.4893C58.6951 14.8063 58.7761 14.0168 58.1397 14.8472C58.3316 14.9924 58.5277 15.1686 58.7461 15.2945C58.7457 15.2955 58.7454 15.2965 58.7451 15.2975ZM59.5946 18.7748C60.1851 18.0633 60.8154 17.3268 61.4671 16.645C60.5418 16.6161 59.7828 17.8446 59.1407 17.2748C59.2864 17.0479 59.4402 16.8175 59.5944 16.5901C59.8726 16.5919 60.1472 16.5993 60.4201 16.6099C60.7412 15.7182 60.1973 15.8559 61.495 14.9755C59.9604 14.5601 59.267 14.1456 58.1772 16.9812C58.0698 16.1147 56.0894 14.7931 56.1535 17.0833C56.1713 17.5012 57.1616 16.7773 57.2064 16.8072C57.7593 17.1074 57.5702 17.8415 58.1122 18.1053C58.3549 18.2245 58.85 17.731 59.173 17.9191C59.3259 18.0127 59.2102 18.822 59.5946 18.7748ZM56.0559 18.0245C56.0031 17.5456 54.6299 17.7391 54.1413 18.5864C53.3992 19.8915 55.5181 18.6398 56.0559 18.0245ZM85.8461 113.674C85.8443 113.674 85.8425 113.674 85.8407 113.674C85.8418 113.673 85.8428 113.673 85.8438 113.672C85.8446 113.673 85.8454 113.674 85.8461 113.674ZM120.104 7.70826C120.897 7.7172 121.857 8.22756 122 7.74898C122.281 7.99231 122.564 8.23828 122.838 8.48606C122.902 8.35202 122.963 8.21616 123.027 8.08345C122.102 7.51212 121.162 6.96773 120.201 6.44728C120.167 6.86605 120.122 7.28145 120.104 7.70826ZM129.938 13.7724C130.981 14.6004 130.481 13.3985 130.91 13.3111C131.345 13.2244 132.145 14.1719 132.317 13.7186C131.694 13.2102 131.031 12.6944 130.376 12.2088C130.258 12.7461 130.077 13.2514 129.94 13.774C129.939 13.7734 129.939 13.7729 129.938 13.7724ZM42.4817 58.5036C42.5021 58.3717 42.5304 58.2663 42.562 58.1772C42.7533 57.651 43.0475 57.7012 42.5586 56.1772C42.5586 56.1785 42.5586 56.1798 42.5586 56.1811C42.3947 56.7853 42.2413 57.4624 42.1361 58.1772C41.9497 59.4504 41.924 60.7918 42.2402 61.9581C42.7289 60.8058 42.2626 59.9535 42.4817 58.5036ZM109.079 3.35118C108.622 3.66799 110.303 4.37365 110.772 4.10712C111.55 3.66441 109.792 2.85867 109.079 3.35118ZM56.0188 91.1444C57.7973 91.3852 57.4114 88.7002 55.602 86.9546C55.4334 86.798 55.9847 88.3707 55.5194 88.105C55.4699 88.0777 55.0078 87.3107 54.7478 87.218C54.4831 87.1228 54.2625 87.5357 53.9251 87.3126C53.3288 86.9222 53.0657 85.3493 52.5086 85.1218C52.4291 85.0883 52.3923 86.1487 52.4085 86.2146C52.5955 87.2175 53.6827 87.6264 53.7608 87.7421C54.1752 88.3567 53.6513 88.5598 53.6465 88.7942C53.6397 89.2367 54.2035 89.6335 54.2137 89.6792C54.4694 90.9184 53.0783 88.6257 52.7435 88.4291C51.7802 87.8793 51.8039 88.9529 50.3469 87.0113C50.2142 86.8367 48.9411 84.4117 50.0475 87.7393C45.664 82.2991 51.0137 91.1963 52.105 91.8387C52.5096 92.1838 52.4947 91.2436 52.8681 91.361C53.7124 91.6239 54.4989 92.5054 55.0472 91.9562C56.1875 90.7974 54.4627 90.2474 54.1055 89.2128C54.4573 89.1086 54.7641 88.953 55.1584 88.9237C54.5947 88.9384 55.8634 91.125 56.0163 91.1463C56.0171 91.1457 56.018 91.145 56.0188 91.1444ZM46.9614 77.3761C47.0031 75.8418 46.0538 76.218 46.2647 74.7436C45.0755 73.7885 45.7357 76.1098 45.7735 76.3833C45.9067 77.658 44.9494 77.9331 45.663 79.1159C46.0735 78.4922 46.5248 77.9561 46.9614 77.3761ZM52.0047 89.333C51.0319 88.7594 52.0035 90.2776 51.9738 90.3976C51.5079 91.6618 48.7958 86.89 52.0047 89.333ZM64.647 13.3228C65.0828 13.0772 64.546 12.8385 64.8405 12.4741C65.1371 12.0989 66.6683 11.6749 66.481 11.4347C66.3044 11.1694 63.4208 11.9839 65.8133 10.3434C65.6416 10.2434 65.6051 10.1155 65.4851 10.0047C64.7897 10.4058 64.0881 10.8328 63.4163 11.2713C64.0593 11.4425 64.7156 11.6446 65.3195 11.8364C65.1566 12.4027 64.6803 12.1068 64.6599 12.1195C64.6602 12.12 64.6605 12.1204 64.6608 12.1209C63.9893 12.598 63.6728 13.8878 64.647 13.3228ZM44.2345 46.1216C45.4356 46.447 44.2404 45.0553 44.1715 44.5403C44.0991 44.0264 44.6667 43.4452 44.0991 43.6019C43.5954 44.3182 44.0963 46.0904 44.2361 46.1218C44.2356 46.1217 44.2351 46.1216 44.2345 46.1216ZM45.1233 69.5649C44.6362 68.4023 44.3408 68.6371 44.5076 67.0666C44.2184 67.1624 43.9229 67.2598 43.6386 67.3566C43.794 68.5841 44.6368 68.3726 44.5126 69.7967C44.4946 70.0323 43.7247 69.6574 44.1242 70.6485C44.4327 70.2737 44.7883 69.9187 45.1233 69.5649ZM43.3131 63.5674C43.4693 65.0203 45.9704 65.9013 44.6775 63.4015C44.4886 63.0276 43.2053 62.4744 43.3131 63.5674ZM55.181 22.2368C56.7189 20.3997 54.7225 22.2725 54.0477 22.5975C57.3109 17.9201 53.7042 23.1091 52.4159 22.9422C52.2975 23.7334 52.2711 25.2647 53.2417 24.1708C53.6495 23.7231 53.2241 23.6989 53.2452 23.6695C53.9491 22.8129 54.358 23.2661 55.181 22.2368ZM47.8498 79.8096C47.8014 79.7301 47.4587 80.009 47.2804 79.7626C47.1014 79.5152 47.159 78.7895 46.8961 78.8089C46.6274 78.8292 46.8849 80.1702 47.2088 80.483C47.5313 80.7967 48.2848 80.5199 47.8498 79.8096ZM46.4207 70.6544C45.9064 69.5119 44.7528 71.7544 44.8227 72.0227C45.3818 74.2835 45.9101 70.6683 46.4207 70.6544ZM54.3679 28.181C55.0817 25.4625 52.9067 26.37 51.2937 27.6408C51.3211 27.9383 51.3583 28.2223 51.3957 28.506C51.019 27.0943 51.0344 24.8576 49.8322 29.1251C51.0967 27.1177 50.4519 29.0053 50.4995 29.0407C52.0195 30.0651 52.8471 26.7082 54.3667 28.1832C54.3671 28.1824 54.3675 28.1817 54.3679 28.181ZM48.9543 83.6397C49.482 84.8501 51.3484 87.5911 51.3221 85.8606C50.5205 85.1668 49.7254 84.4172 48.9543 83.6397ZM91.9505 7.58554C92.9737 7.97726 93.8627 7.92218 95.0813 7.85342C93.9644 7.22223 94.6793 7.12003 95.0472 6.94474C95.6043 6.68057 94.2363 6.7445 94.2284 6.70218C94.2293 6.06884 95.1036 5.92466 93.1002 6.03501C93.5799 5.78796 94.0656 5.54321 94.5593 5.30566C93.0052 5.33694 92.6411 4.94896 91.6077 4.50973C92.6528 5.68131 91.3333 4.98372 90.2559 5.69787C89.726 6.0532 91.4418 7.37983 91.9543 7.58528C91.953 7.58537 91.9518 7.58545 91.9505 7.58554ZM56.0502 25.9315C56.0192 25.5771 55.9144 25.1964 55.8613 24.828C56.0101 24.5731 56.1674 24.3171 56.3272 24.0588C56.5081 24.1455 56.6923 24.243 56.8701 24.3213C57.1488 24.0426 56.8388 24.0003 56.8881 23.8916C56.8889 23.8923 56.8898 23.8929 56.8906 23.8936C57.6066 22.3578 58.1214 21.8303 59.434 21.2925C58.9901 20.8831 58.5462 20.4738 58.1022 20.0645C57.9395 20.3259 57.7764 20.591 57.6182 20.856C57.7554 21.1914 57.8956 21.5252 58.0393 21.8562C57.6808 21.9997 57.319 22.1565 56.9664 22.3077C56.8835 22.595 56.7748 22.9309 56.719 23.1889C54.5281 23.2588 57.3793 21.4694 56.8907 21.008C56.5353 20.6837 54.5163 23.2794 54.5339 23.8602C54.5351 23.9399 55.9529 24.0975 54.7561 24.6776C54.5777 24.7627 52.2508 23.3212 53.4004 25.6181C53.5694 25.9382 55.3361 26.2902 56.0502 25.9315ZM64.0433 18.4658C61.5891 18.1337 67.7764 15.8068 64.7236 16.2707C64.9032 15.16 64.8041 15.2397 63.7169 15.1506C63.619 15.1423 63.9559 14.628 63.9014 14.6336C63.0349 14.7678 62.4128 15.5149 61.9691 14.9601C61.8222 15.1231 61.684 15.2759 61.5396 15.4413C62.6563 15.406 61.8243 16.6433 61.8048 17.4125C61.79 17.7619 62.2574 17.4675 62.2502 17.768C62.2468 17.8756 61.5661 18.2514 61.6996 18.4493C62.006 18.8886 62.8323 19.1051 63.669 18.9169C63.6693 18.9173 63.6696 18.9178 63.67 18.9182C63.7946 18.7691 63.9144 18.6163 64.0433 18.4658ZM47.6773 50.3751C46.6974 50.5703 46.3053 51.8051 46.0562 49.385C45.8559 49.4851 45.6571 49.5901 45.4571 49.6926C45.434 50.1144 45.4188 50.4811 45.4014 50.8878C48.1234 52.285 44.8264 54.327 46.9061 53.0067C47.1321 52.8622 46.9462 51.9109 47.482 52.8724C47.4826 52.8711 47.4832 52.8699 47.4838 52.8687C47.381 51.5703 47.0562 51.3792 47.6773 50.3751ZM48.2867 41.751C46.9357 38.3565 46.355 45.633 47.1508 44.5274C47.197 44.4368 47.3644 41.3147 48.2867 41.751ZM48.802 65.405C48.7076 64.1307 47.6221 64.1211 47.2397 64.2902C46.8568 64.4597 47.3398 65.3351 47.2914 65.4548C47.1273 65.8566 46.9091 65.0617 46.6813 65.5866C46.5938 65.7335 46.5062 68.1606 46.5782 68.2511C46.9236 68.8013 47.6876 67.8117 47.8148 67.9659C48.2262 68.4573 47.8819 69.2523 48.3807 69.3261C49.4421 69.485 48.165 68.3318 48.1167 68.0946C47.9679 67.4056 48.5473 67.3868 48.5933 66.8508C48.6411 66.3152 48.405 65.9861 48.398 65.5385C48.3957 65.3874 48.8051 65.4699 48.802 65.405ZM46.1905 61.2136C47.069 62.5525 47.8408 59.1816 47.6639 58.7711C47.0786 57.5682 45.7535 60.564 46.1905 61.2136ZM59.0669 19.445C58.614 20.7658 60.9968 19.0143 61.4796 18.3042C61.1956 18.2079 59.2279 18.9651 59.0669 19.445ZM53.9947 28.8434C54.3955 27.7391 52.4486 28.4376 52.0307 29.3257C52.5677 30.2355 52.6482 29.6706 52.9693 29.1347C53.2939 28.5997 53.6964 29.7039 53.9947 28.8434ZM51.0424 79.3448C50.9462 79.1591 48.965 75.5216 49.4156 77.8482C49.4352 78.0405 50.5499 80.6524 50.782 80.8011C51.2035 81.0958 51.2313 79.9574 51.0424 79.3448ZM52.9069 34.2812C52.4109 33.4447 52.6547 32.8931 51.6078 33.0671C51.6075 33.0679 51.6072 33.0686 51.6069 33.0694C51.9507 31.5247 53.6666 32.2522 53.764 31.9341C54.1214 30.8433 52.4721 31.2676 52.398 30.4207C52.0287 32.1595 51.4459 31.3181 50.8754 32.5119C50.7482 32.7755 50.7987 34.0944 51.0578 34.3516C51.308 34.6216 52.4346 34.427 52.9069 34.2812ZM53.5473 84.3924C53.1926 83.0941 51.5262 82.4878 52.2004 84.2898C52.5428 85.1676 53.7758 85.1901 53.5473 84.3924ZM122.48 14.2682C122.462 13.8839 122.434 13.4968 122.393 13.106C122.872 13.2788 123.351 13.458 123.828 13.6445C123.431 13.5312 123.034 13.4215 122.635 13.3157C123.406 13.8782 123.467 14.6031 122.482 14.2694C122.481 14.269 122.48 14.2686 122.48 14.2682ZM143.841 38.532C143.711 39.0271 144.914 39.4217 144.947 39.3007C145.182 38.3513 144.016 37.8317 143.841 38.532ZM62.4289 20.2923C63.6151 19.4049 61.8089 18.8881 61.0382 19.4675C61.657 19.3 61.7644 20.808 62.4289 20.2923ZM138.227 28.465C138.255 28.2735 138.282 28.0806 138.298 27.8744C138.438 28.38 138.382 28.5228 138.227 28.465ZM52.1314 78.2749C52.1597 78.0242 51.7031 76.3814 51.4955 76.1967C51.0461 75.8217 50.6265 77.4 51.1525 78.0622C51.209 78.1391 52.0965 78.5324 52.1302 78.2716C52.1306 78.2727 52.131 78.2738 52.1314 78.2749ZM123.956 15.8451C123.961 15.8308 123.97 15.8193 123.981 15.8106C123.972 15.8216 123.965 15.8343 123.956 15.8451ZM143.877 71.7872C143.903 71.7853 143.928 71.7874 143.95 71.7949C143.927 71.7919 143.902 71.792 143.877 71.7872ZM50.674 66.3607C52.0938 65.5983 51.1726 64.4622 50.5367 65.5297C50.5024 65.5832 50.6589 66.2236 50.674 66.3607Z" fill="black"/>
<path d="M164.43 162.566C141.449 181.712 109.585 176.319 95.272 162.004C80.9588 147.69 63.2569 111.653 97.9433 82.7583C132.63 53.8637 157.606 72.6594 171.287 89.081C189.141 110.513 187.412 143.421 164.43 162.566Z" fill="black" fill-opacity="0.7"/>
<path d="M131.133 74.1809C121.195 74.7 110.811 80.5302 102.068 87.7097C100.825 88.7212 99.7144 89.6775 98.5813 90.7153C97.4674 91.7461 97.2481 91.367 96.9076 91.6251C96.0025 92.319 95.8751 93.2146 95.2952 93.8017C92.4522 96.7033 90.1944 99.7235 88.2152 103.081C86.2733 106.56 85.895 104.338 84.9962 105.504C83.3314 107.865 85.8709 106.31 85.8394 107.466C84.6181 110.337 83.6488 113.363 83.0566 116.474C82.9898 115.693 82.9536 114.883 82.9471 114.092C82.6514 115.44 82.1225 117.426 82.0037 115.006C81.7942 115.507 81.5773 115.975 81.3877 116.5C81.9906 116.721 81.8225 119.228 82.2124 119.467C82.5785 119.709 82.5767 118.329 82.6149 118.339C82.991 118.445 82.2844 124.096 82.3574 124.535C82.2986 125.639 81.4253 124.739 81.5581 125.681C81.8195 127.316 83.2836 125.987 81.4529 128.493C82.2861 129.264 81.9329 129.384 82.0989 130.505C82.1218 130.652 82.4981 130.46 82.5211 130.522C83.1604 132.113 82.1554 131.001 82.1163 131.014C81.4589 131.309 82.1741 133.049 82.2158 133.441C82.6731 138.381 83.5191 142.109 85.8183 146.921C86.3109 147.987 88.3361 150.85 88.8731 151.84C89.3824 152.822 88.6397 152.608 88.7632 153.222C90.295 153.322 90.8542 153.925 91.5005 156.072C92.6668 156.134 92.0376 156.5 93.1176 157.533C94.0085 158.387 96.2078 159.251 96.4882 160.788C95.4977 159.662 95.2656 160.052 93.9167 158.94C93.4006 158.613 89.665 153.8 89.2413 154.651C88.9913 155.123 90.5689 156.524 90.5536 156.632C90.4437 157.312 89.2277 156.761 88.8002 155.801C89.0326 155.948 89.2944 156.129 89.5448 156.294C88.699 154.076 87.6554 156.758 88.3685 154.101C88.4579 153.774 88.7283 153.691 88.7599 153.249C88.6252 153.253 88.6323 153.765 88.3833 153.489C88.1282 153.207 88.1799 152.312 87.7436 152.468C87.1027 152.695 88.1948 153.869 88.2308 153.981C88.2348 153.98 88.2387 153.978 88.2427 153.977C88.5556 155.049 87.2766 153.254 87.1726 153.193C86.4541 152.841 86.4438 153.41 85.596 152.71C85.1168 152.321 84.4193 150.947 84.0918 150.495C83.7596 150.047 83.9219 150.95 83.6773 150.66C83.4317 150.368 83.4064 149.844 83.1246 149.493C83.003 149.343 82.7038 149.518 82.6487 149.443C82.0571 148.63 82.9997 148.863 82.5466 148.1C82.2526 147.616 80.781 146.152 81.2039 147.456C80.8479 146.901 80.528 146.356 80.2049 145.792C80.2842 146.206 80.4019 146.616 80.4683 147.028C80.0857 145.862 79.3201 145.603 78.9621 144.908C78.6077 144.213 78.9972 143.308 78.3589 142.649C76.99 141.231 79.0007 145.287 79.1526 145.839C79.1968 146.061 78.3392 145.524 78.2716 145.408C77.9687 144.9 78.0701 144.122 77.8833 143.717C77.2136 142.264 76.379 141.542 75.7711 140.11C73.6843 135.291 72.0995 128.759 71.8466 123.607C71.7358 121.679 72.3651 120.547 72.3771 119.69C72.4289 117.7 71.9419 117.406 72.1038 115.644C72.3396 113.012 73.5618 109.465 74.2898 107.427C74.7798 105.988 74.7629 104.567 74.8918 104.18C76.5597 98.9101 79.9924 93.1716 82.7224 89.658C83.9776 88.0101 85.0876 87.5962 85.3404 87.2674C86.4654 85.8571 85.7901 85.9032 86.8355 84.829C87.4088 84.2495 87.8516 84.4573 87.9388 84.3908C88.686 83.831 88.3862 83.2815 88.8908 82.7487C90.5456 81.0146 92.2602 79.5928 94.1252 78.1748C95.5959 77.0602 96.9837 76.0783 98.4832 74.9917C98.7274 74.8157 98.8642 75.0459 99.0118 74.9199C99.6415 74.3775 99.0841 74.264 99.7673 73.7351C101.145 72.6685 102.819 71.6272 104.445 70.6868C104.615 70.5885 104.869 70.8331 105.247 70.6037C105.626 70.3753 105.749 69.9233 106.355 69.5933C107.902 68.7535 109.729 68.2205 111.442 67.4321C111.736 67.2962 111.926 66.7522 112.37 66.557C113.737 65.9454 116.002 65.449 117.21 65.0509C121.281 63.675 125.204 62.5658 129.369 62.2147C130.341 62.1341 131.244 62.4788 131.742 62.4739C132.882 62.4691 132.005 62.1192 133.179 62.1127C142.801 62.0828 152.116 65.7272 159.73 70.9211C162.752 72.9358 166.377 75.4637 168.793 77.9348C169.793 78.9574 169.624 79.5009 170.323 80.2159C171.56 81.4982 172.248 81.2954 173.568 82.6612C174.322 83.4483 174.876 84.5895 175.486 85.5827C175.734 85.978 175.99 86.3569 176.274 86.6973C177.3 87.9414 178.256 88.1793 179.385 89.6903C180.318 90.9434 181.217 92.934 182.062 94.3877C189.925 107.687 192.008 124.319 187.021 139.166C185.305 144.382 182.751 150.044 179.086 154.371C178.741 154.774 178.707 153.78 177.85 155.229C177.385 155.998 177.064 157.339 175.748 158.981C173.47 161.813 170.799 164.408 167.877 166.704C160.728 172.359 152.052 176.058 143.45 178.174C126.044 183.053 101.738 181.323 93.3748 164.527C93.0214 163.748 94.3978 163.001 95.0109 163.003C95.0985 163.512 95.1375 164.045 95.2436 164.605C96.9248 163.581 96.4718 163.888 97.958 165.301C98.8775 166.146 98.5813 164.904 99.2392 165.119C100.084 165.452 103.847 166.746 102.577 167.399C102.899 167.342 103.199 167.281 103.51 167.219C106.049 168.484 108.68 169.352 111.36 169.962C111.826 170.065 111.975 169.705 112.449 169.805C113.729 170.066 114.628 170.61 115.937 170.924C116.643 171.088 116.849 170.679 117.763 170.925C118.673 171.16 118.532 171.758 119.93 171.357C119.252 170.466 122.803 171.665 124.143 171.723C124.344 171.743 125.956 171.209 126.779 171.33C127.594 171.457 128.863 171.945 130.154 171.69C130.76 171.569 131.119 171.029 131.757 170.977C132.207 170.94 132.776 171.389 133.358 171.37C133.941 171.357 135.147 170.855 135.372 170.822C136.189 170.707 135.32 171.138 135.884 171.092C138.602 170.868 141.78 170.413 144.3 169.437C144.609 169.318 144.061 169.069 144.1 169.044C146.088 167.944 145.097 168.771 145.782 168.927C146.463 169.117 150.429 167.37 150.15 166.7C150.614 167.433 151.219 166.442 151.427 166.313C152.242 165.816 152.402 166.562 153.134 165.934C153.4 165.703 152.58 165.563 152.912 165.408C153.732 165.024 154.823 165.348 155.927 164.788C156.194 164.652 156.089 164.299 156.536 164.038C156.986 163.789 159.061 162.927 157.798 162.864C159.226 162.627 159.27 162.195 160.509 161.283C160.819 161.052 161.576 161.199 162.12 160.524C162.26 160.35 162.081 160.06 162.135 159.811C162.151 159.734 162.189 159.662 162.265 159.597C163 158.961 164.057 158.799 164.982 157.954C166.693 156.391 168.066 154.299 169.652 152.515C170.085 152.024 170.432 152.497 171.016 151.734C171.103 151.621 171.387 150.408 171.79 149.89C172.042 149.589 173.438 148.037 173.667 147.685C174.058 147.114 173.647 146.739 173.925 146.465C174.717 145.668 175.006 146.804 174.662 145.139C175.396 145.042 175.689 144.323 176.465 144.424C175.931 143.662 176.89 143.473 176.997 142.554C177.106 141.631 175.9 140.396 177.554 140.83C177.522 140.375 177.787 138.632 177.847 138.351C178.05 137.519 178.352 138.099 178.491 137.461C178.515 137.349 178.177 137.366 178.42 136.679C178.61 136.237 179.483 132.836 179.54 132.632C180.507 130.376 179.599 133.982 179.778 134.569C179.667 134.637 179.556 134.703 179.444 134.776C179.029 135.768 179.884 135.372 180.169 134.935C180.456 134.499 180.35 133.535 180.667 133.186C180.826 133.012 181.653 133.317 181.412 133.908C181.821 133.311 181.894 134.271 182.199 134.067C182.556 133.847 183.214 130.83 182.722 130.738C182.616 131.299 182.508 132 182.377 132.561C181.417 133.1 179.078 130.441 180.434 128.658C181.409 127.307 181.833 129.778 181.464 126.241C181.391 126.773 181.273 127.215 181.188 127.694C180.562 127.682 181.324 126.97 181.157 126.547C181.077 126.349 180.536 127.492 180.476 126.456C181.434 125.639 180.589 124.888 180.611 123.419C180.763 123.833 180.908 124.251 181.049 124.673C181.791 122.147 181.787 128.113 182.317 123.119C182.338 123.725 182.312 124.327 182.327 124.937C182.668 124.655 183.606 125.178 183.822 124.919C184.389 124.229 184.095 123.151 184.137 122.281C184.154 121.899 184.415 122.134 184.416 122.102C184.44 121.575 184.061 121.697 184.027 121.239C183.991 120.665 184.274 118.977 184.206 118.706C184.048 118.015 183.383 119.23 183.32 119.163C182.932 118.748 183.158 117.832 182.687 117.92C183.274 120.053 182.809 126.198 181.975 120.678C181.241 122.214 180.2 121.763 180.015 119.687C179.832 117.96 180.332 119.051 180.725 118.101C180.787 117.98 180.74 115.596 180.382 115.524C181.15 115.517 181.703 114.637 182.556 115.052C182.684 115.113 182.771 116.124 183.351 115.692C183.643 115.477 184.255 114.866 184.665 114.892C184.357 114.717 184.012 114.541 183.69 114.372C183.367 112.854 183.612 112.592 183.958 111.645C183.752 111.731 183.01 112.675 183.044 111.458C183.047 111.394 183.362 111.276 183.388 110.646C183.432 109.375 183.456 109.081 184.626 109.796C183.466 107.404 184.347 106.566 183.178 104.104C182.175 105.025 182.797 105.769 183.682 108.055C183.425 108.234 183.155 108.358 182.894 108.539C182.667 105.286 183.028 106.798 181.906 105.268C181.639 104.891 180.962 102.637 180.454 103.668C180.34 103.906 180.847 105.251 180.496 105.198C180.435 105.183 179.697 103.612 179.71 103.444C179.884 101.292 181.943 104.213 179.403 99.4167C179.329 99.2862 178.98 99.3961 178.809 99.1588C178.485 98.7139 178.857 98.52 178.549 98.1289C178.239 97.7361 177.43 97.4118 177.531 96.5247C177.692 94.8722 179.762 97.4211 179.91 98.9524C181.486 98.8827 176.211 89.7919 175.528 89.4786C173.462 87.5089 176.5 91.0939 176.315 91.5083C176.252 91.6772 174.701 92.6597 176.335 92.9639C176.825 93.0614 176.411 91.5877 177.055 92.2062C177.699 92.8321 177.051 92.837 177.054 92.9104C177.063 93.1606 177.722 93.8341 177.718 93.9777C177.649 96.1489 176.068 96.8999 177.037 93.5006C175.984 92.9373 176.451 95.4464 175.433 94.5762C174.207 93.5425 174.251 92.1634 174.166 91.9761C173.151 89.8233 173.768 92.7012 172.369 90.2145C171.555 88.8331 174.5 91.582 172.161 88.7772C172.085 88.6899 172.014 88.6083 171.946 88.5321C170.212 86.6205 170.852 88.0507 170.007 88.4969C169.799 88.6045 168.524 87.5458 170.047 89.1712C170.281 89.0552 170.612 88.9303 170.882 88.8881C170.928 89.0079 170.945 89.1759 170.943 89.367C170.945 90.0386 170.709 90.9805 170.816 91.173C171.496 92.3857 171.979 91.95 171.835 93.0628C172.179 92.0942 172.324 93.1606 172.672 93.3493C173.958 94.066 173.223 92.4842 174.137 95.4505C174.268 94.9111 174.403 94.4014 174.522 93.8621C174.734 94.16 174.944 94.4599 175.151 94.7617C174.708 95.688 175.765 97.2515 174.13 96.2364C174.976 98.1186 175.496 98.7538 176.317 98.8424C176.473 98.8586 176.663 99.1123 176.84 99.4348C176.98 99.287 177.466 98.9393 177.558 98.959C178.369 99.1466 177.73 100.366 177.23 100.296C177.324 100.536 177.388 100.731 177.41 100.8C177.542 101.239 176.822 100.595 176.859 100.983C176.876 101.108 177.471 102.229 177.336 102.314C176.469 102.85 176.378 100.669 177.391 104.7C178.278 104.472 177.367 102.743 178.439 102.84C179.606 102.958 178.72 104.5 179.985 104.285C179.822 104.443 179.673 104.541 179.478 104.695C180.584 106.143 179.575 106.511 179.515 107.072C179.422 108.152 180.637 112.625 180.448 108.348C180.705 108.915 180.907 109.513 181.132 110.091C179.32 110.678 180.024 110.135 180.317 113.024C180.373 113.664 179.589 113.998 180.662 114.451C179.702 114.521 180.545 116.27 180.441 116.463C179.831 117.619 178.241 113.805 179.774 112.975C178.987 112.423 179.85 112.252 179.567 111.513C179.149 110.451 178.953 110.356 179.223 108.89C178.039 107.875 180.071 113.944 177.978 110.485C176.751 108.186 172.693 98.5009 167.004 92.6492C164.077 89.3968 161.326 86.8709 160.002 85.736C152.874 79.8266 148.641 77.5387 141.355 75.268C140.649 74.9326 135.06 74.2091 136.321 73.3466C136.488 73.1946 139.098 73.1449 137.007 72.0307C137.391 72.5675 136.079 72.7386 135.969 72.7869C133.439 73.8107 134.861 74.0584 131.133 74.1809ZM116.835 67.7847C122.745 65.9975 118.233 66.8005 118.978 64.8648C118.183 65.1097 117.393 65.3746 116.633 65.6473C116.869 65.6677 117.101 65.6906 117.334 65.7146C117.335 65.7143 117.335 65.714 117.336 65.7137C117.159 66.4031 116.99 67.0943 116.835 67.7847ZM80.7798 148.86C80.4823 148.743 80.1856 148.626 79.8827 148.484C79.5656 147.714 79.2662 146.949 78.9798 146.175C79.1504 146.205 79.3211 146.23 79.4915 146.257C79.8932 147.13 80.32 148.009 80.7798 148.86ZM180.48 99.6199C180.415 100.89 181.334 100.373 181.475 101.954C182.118 101.494 182.733 101.013 183.357 100.532C182.784 99.4763 182.411 99.3535 182.029 98.1036C181.871 98.3462 181.712 98.5911 181.549 98.8281C181.687 98.9982 181.836 99.1787 181.964 99.3472C181.472 99.9226 180.53 98.1455 180.477 99.6169C180.478 99.6179 180.479 99.6189 180.48 99.6199ZM184.495 110.539C184.546 111.161 184.618 113.601 184.97 113.877C186.264 114.828 184.298 108.111 186.195 112.98C186.34 112.932 186.491 112.93 186.638 112.904C186.53 111.961 186.391 111.02 186.223 110.077C185.651 110.257 185.069 110.353 184.495 110.539ZM139.021 65.0735C139.969 65.223 144.612 65.8074 143.303 64.794C142.908 64.4759 140.625 64.983 139.869 64.8295C139.366 64.7208 140.025 64.2776 138.979 64.3201C138.99 64.5606 138.981 64.824 139.024 65.0723C139.023 65.0727 139.022 65.0731 139.021 65.0735ZM136.893 67.9519C137.817 67.9502 138.787 67.9631 139.728 68.0274C139.158 67.298 137.728 67.5012 137.755 66.6431C138.022 66.6098 138.298 66.5805 138.571 66.5534C138.748 66.7683 138.918 66.984 139.085 67.2005C139.975 66.8765 139.521 66.5466 141.028 66.9802C140.365 65.5353 140.24 64.7372 137.364 65.7149C137.961 65.0777 137.708 62.7103 135.99 64.2254C135.68 64.5065 136.87 64.8041 136.876 64.8576C136.999 65.4747 136.314 65.7992 136.458 66.3845C136.522 66.6472 137.218 66.7117 137.28 67.0803C137.306 67.2577 136.611 67.6868 136.893 67.9519ZM135.204 64.7529C135.538 64.4057 134.511 63.4746 133.547 63.6415C132.069 63.9067 134.387 64.7335 135.204 64.7529ZM80.783 148.864C80.7819 148.862 80.7809 148.861 80.7798 148.86C80.7809 148.86 80.782 148.86 80.7831 148.861C80.7831 148.862 80.783 148.863 80.783 148.864ZM184.126 107.359C184.627 107.974 184.849 109.038 185.308 108.841C185.301 109.213 185.293 109.588 185.278 109.957C185.422 109.921 185.566 109.881 185.708 109.845C185.555 108.768 185.372 107.697 185.157 106.626C184.813 106.868 184.465 107.099 184.126 107.359ZM185.761 118.796C185.793 120.127 186.396 118.974 186.738 119.247C187.083 119.526 186.867 120.748 187.325 120.589C187.317 119.785 187.289 118.946 187.243 118.132C186.754 118.385 186.25 118.569 185.761 118.798C185.761 118.798 185.761 118.797 185.761 118.796ZM95.4151 80.2331C95.5295 80.1644 95.6286 80.1187 95.7172 80.0859C96.244 79.8961 96.3938 80.1542 97.2518 78.8032C97.2508 78.804 97.2497 78.8048 97.2487 78.8057C96.6796 79.0665 96.0612 79.382 95.4447 79.7588C94.3471 80.4304 93.3001 81.2692 92.6064 82.2588C93.8045 81.8966 94.1609 80.9928 95.4151 80.2331ZM180.417 96.0992C179.881 95.9509 180.415 97.6943 180.92 97.8842C181.758 98.1982 181.251 96.3319 180.417 96.0992ZM79.0014 111.526C79.9548 113.047 81.7707 111.032 81.9537 108.524C81.9661 108.295 81.1107 109.725 81.017 109.197C81.0063 109.142 81.2998 108.296 81.2046 108.037C81.1083 107.772 80.6498 107.867 80.6054 107.465C80.5236 106.757 81.5637 105.548 81.3818 104.975C81.3568 104.892 80.5185 105.542 80.4782 105.597C79.8274 106.383 80.209 107.48 80.1701 107.614C79.9632 108.326 79.4718 108.053 79.2887 108.199C78.9443 108.477 79.0004 109.165 78.9718 109.202C78.1833 110.191 79.0545 107.655 78.9912 107.272C78.797 106.18 77.9874 106.885 78.5466 104.523C78.5957 104.309 79.644 101.779 77.7955 104.759C79.1696 97.909 75.7579 107.714 75.9629 108.964C75.9566 109.496 76.6696 108.882 76.8183 109.244C77.1568 110.061 76.9829 111.23 77.7558 111.299C79.376 111.434 78.6946 109.757 79.2609 108.82C79.5661 109.024 79.882 109.16 80.1569 109.444C79.7848 109.02 78.9168 111.395 78.9983 111.526C78.9994 111.526 79.0004 111.526 79.0014 111.526ZM83.7825 95.7547C84.9879 94.8048 84.0913 94.3162 85.359 93.5345C85.3317 92.0095 83.9708 94.0025 83.7848 94.2066C82.8908 95.1249 82.0666 94.5654 81.6146 95.8708C82.3566 95.7869 83.0574 95.7905 83.7825 95.7547ZM77.8239 107.283C77.6419 106.168 77.0973 107.887 76.9861 107.941C75.7166 108.392 77.6469 103.254 77.8239 107.283ZM144.316 68.344C144.783 68.5217 144.623 67.9565 145.092 67.9496C145.57 67.9373 146.875 68.8424 146.94 68.5447C147.031 68.2392 144.559 66.545 147.351 67.3331C147.318 67.1372 147.393 67.0273 147.401 66.8642C146.648 66.5867 145.871 66.3209 145.104 66.0854C145.384 66.6891 145.649 67.3226 145.888 67.9094C145.349 68.1467 145.271 67.5913 145.248 67.5838C145.248 67.5843 145.248 67.5848 145.248 67.5853C144.451 67.3749 143.258 67.9573 144.316 68.344ZM106.05 73.6545C106.569 74.7856 106.873 72.9765 107.225 72.594C107.573 72.2093 108.383 72.2735 107.9 71.9377C107.027 72.0092 105.986 73.5283 106.051 73.6558C106.051 73.6554 106.051 73.6549 106.05 73.6545ZM88.6074 89.3427C89.1888 88.2244 88.8193 88.1477 90.1328 87.2706C89.874 87.1097 89.6101 86.9451 89.3537 86.7885C88.5101 87.6937 89.2121 88.2058 88.0384 89.0219C87.8459 89.1589 87.6411 88.3274 87.1353 89.2687C87.6207 89.2658 88.1211 89.3118 88.6074 89.3427ZM92.0567 84.1131C91.0403 85.1631 91.9644 87.6486 93.0574 85.0553C93.2238 84.6708 92.8275 83.3307 92.0567 84.1131ZM131.408 66.7768C133.804 66.7826 131.087 66.4475 130.405 66.137C136.088 65.6503 129.792 66.2005 129.096 65.1039C128.412 65.5194 127.219 66.4792 128.681 66.5247C129.286 66.5515 129.032 66.2092 129.068 66.2066C130.177 66.1991 130.09 66.8033 131.408 66.7768ZM82.4814 97.9949C82.5115 97.9069 82.0778 97.822 82.153 97.5274C82.2285 97.2315 82.823 96.8112 82.6398 96.6216C82.4522 96.4282 81.5868 97.4844 81.5537 97.9334C81.5191 98.382 82.2141 98.7838 82.4814 97.9949ZM88.6008 91.037C89.1494 89.9105 86.688 90.4596 86.5266 90.685C85.1475 92.5616 88.2633 90.6536 88.6008 91.037ZM126.32 69.9569C128.866 68.7652 126.777 67.6749 124.768 67.2491C124.557 67.4606 124.362 67.671 124.168 67.8813C125.012 66.6883 126.74 65.2685 122.692 67.0763C125.044 66.763 123.181 67.4757 123.184 67.535C123.37 69.3585 126.479 67.8457 126.318 69.9573C126.319 69.9571 126.32 69.957 126.32 69.9569ZM80.2456 101.295C79.6534 102.475 78.7421 105.664 80.0548 104.536C80.0748 103.476 80.1418 102.385 80.2456 101.295ZM166.2 85.6495C166.554 86.6864 167.165 87.3342 167.998 88.2264C167.768 86.9643 168.304 87.4481 168.674 87.6186C169.234 87.8775 168.309 86.8674 168.337 86.8342C168.824 86.4296 169.494 87.009 168.127 85.5404C168.624 85.7508 169.123 85.9673 169.621 86.1946C168.603 85.0206 168.668 84.4925 168.344 83.4174C168.112 84.9703 167.804 83.51 166.565 83.1393C165.953 82.9596 166.032 85.127 166.202 85.6522C166.202 85.6513 166.201 85.6504 166.2 85.6495ZM129.126 69.8096C129.378 69.5589 129.603 69.2347 129.852 68.9581C130.144 68.9092 130.441 68.8662 130.742 68.8237C130.791 69.0182 130.834 69.2221 130.887 69.4088C131.28 69.4446 131.114 69.1793 131.229 69.1476C131.229 69.1487 131.229 69.1497 131.229 69.1508C132.867 68.7179 133.602 68.7758 134.856 69.44C134.886 68.837 134.916 68.2339 134.947 67.6308C134.642 67.6731 134.334 67.7175 134.029 67.7656C133.859 68.0857 133.692 68.4071 133.53 68.7293C133.19 68.5457 132.838 68.3681 132.496 68.1939C132.222 68.3142 131.895 68.4456 131.661 68.568C130.205 66.9294 133.405 67.9746 133.446 67.3039C133.468 66.8232 130.181 66.9334 129.746 67.3187C129.686 67.3708 130.472 68.5609 129.261 68.0127C129.081 67.9301 128.699 65.2196 127.67 67.5731C127.533 67.9077 128.393 69.4904 129.126 69.8096ZM139.978 71.1721C138.662 69.074 144.41 72.3384 142.1 70.2898C143.068 69.7169 142.943 69.6918 142.316 68.7994C142.26 68.7189 142.87 68.6485 142.831 68.6102C142.173 68.0304 141.201 68.0306 141.344 67.3346C141.124 67.3261 140.918 67.3177 140.699 67.3126C141.441 68.148 139.958 68.3007 139.354 68.7781C139.076 68.9904 139.602 69.1611 139.366 69.3479C139.281 69.4141 138.557 69.1317 138.49 69.3609C138.349 69.8775 138.711 70.6509 139.391 71.1733C139.391 71.1738 139.391 71.1743 139.391 71.1749C139.586 71.1752 139.78 71.1695 139.978 71.1721ZM104.986 79.0222C104.209 78.3943 103.009 78.8834 104.709 77.1429C104.504 77.0532 104.296 76.9676 104.089 76.8796C103.75 77.1318 103.459 77.3548 103.135 77.6017C103.804 80.5874 100.125 79.3613 102.47 80.1141C102.726 80.1952 103.338 79.4435 102.942 80.4706C102.944 80.4702 102.945 80.4699 102.946 80.4696C103.878 79.5595 103.817 79.1877 104.986 79.0222ZM112.002 73.9704C113.745 70.7596 107.783 74.971 109.142 74.8747C109.241 74.8523 111.747 72.9825 112.002 73.9704ZM94.1581 89.5065C95.0767 88.6184 94.3893 87.7782 94.0146 87.5926C93.6393 87.407 93.2759 88.3383 93.1529 88.3778C92.7392 88.5089 93.2103 87.8325 92.6612 87.9934C92.4923 88.0202 90.5715 89.5064 90.548 89.6197C90.3464 90.2372 91.5958 90.1908 91.5587 90.3872C91.4445 91.0178 90.6132 91.2622 90.8758 91.6926C91.433 92.6098 91.5016 90.8905 91.653 90.7015C92.0871 90.1462 92.4724 90.5793 92.9137 90.2716C93.3558 89.9655 93.4576 89.5734 93.797 89.2815C93.9116 89.1831 94.1102 89.5505 94.1581 89.5065ZM95.7068 84.8173C95.2405 86.3493 98.3244 84.7846 98.5265 84.3859C99.0762 83.1663 95.9263 84.0657 95.7068 84.8173ZM136.04 67.9755C134.735 68.4729 137.606 69.1826 138.461 69.099C138.353 68.8191 136.512 67.792 136.04 67.9755ZM125.573 70.0941C126.678 69.6952 124.895 68.6465 123.945 68.8938C123.59 69.8888 124.075 69.589 124.693 69.4927C125.311 69.3996 124.721 70.4157 125.573 70.0941ZM84.8819 100.15C84.9631 99.9576 86.4897 96.1071 84.9905 97.9426C84.8553 98.0806 83.562 100.609 83.5964 100.882C83.6398 101.395 84.5322 100.688 84.8819 100.15ZM120.698 72.7389C121.024 71.8224 121.603 71.6567 120.8 70.9637C120.799 70.9639 120.798 70.9642 120.797 70.9644C122.204 70.2399 122.744 72.0238 123.05 71.8951C124.117 71.4716 122.736 70.4759 123.339 69.8769C121.766 70.7061 122.04 69.7198 120.757 70.0456C120.474 70.1166 119.492 70.9996 119.461 71.3633C119.413 71.7283 120.284 72.4694 120.698 72.7389ZM82.6072 105.306C83.3777 104.202 82.7769 102.534 81.8239 104.205C81.3686 105.03 82.1406 105.992 82.6072 105.306ZM180.606 113.383C180.89 113.123 181.17 112.854 181.444 112.572C181.618 113.051 181.787 113.534 181.949 114.02C181.782 113.642 181.612 113.267 181.437 112.892C181.499 113.845 180.981 114.356 180.607 113.385C180.607 113.384 180.606 113.384 180.606 113.383ZM175.637 145.326C175.174 145.543 175.64 146.72 175.754 146.668C176.634 146.24 176.287 145.012 175.637 145.326ZM137.541 71.1009C138.982 71.4443 138.223 69.7258 137.285 69.5044C137.809 69.8726 136.72 70.9205 137.541 71.1009ZM179.778 134.569C179.943 134.468 180.108 134.365 180.277 134.245C179.978 134.677 179.833 134.725 179.778 134.569ZM86.401 100.302C86.6118 100.164 87.5817 98.7612 87.5908 98.4834C87.5912 97.8981 86.1099 98.586 85.9378 99.414C85.915 99.5066 86.1809 100.44 86.4028 100.299C86.4022 100.3 86.4016 100.301 86.401 100.302ZM180.339 115.526C180.354 115.521 180.369 115.521 180.382 115.524C180.368 115.524 180.354 115.527 180.339 115.526ZM150.109 166.639C150.128 166.658 150.142 166.678 150.15 166.7C150.138 166.68 150.122 166.661 150.109 166.639ZM94.622 91.5566C96.1166 92.1594 96.3998 90.7244 95.1727 90.9192C95.1096 90.927 94.7177 91.4572 94.622 91.5566Z" fill="black"/>
</svg>
