<svg width="131" height="215" viewBox="0 0 131 215" fill="none" xmlns="http://www.w3.org/2000/svg">
<path d="M22.3782 199.088C23.8835 197.711 25.5308 194.333 26.4372 192.476C26.454 192.442 26.4709 192.408 26.4877 192.374C26.7029 191.933 26.926 191.527 27.188 191.052C27.8127 189.919 28.6567 188.389 30.1303 185.029C30.6713 184.116 31.2067 183.199 31.7351 182.279C37.4415 172.34 42.7011 162.144 47.8726 151.898C47.9474 151.774 48.0236 151.648 48.1005 151.521C49.5872 149.06 51.4305 146.008 52.3496 143.953C53.5181 141.341 54.2498 139.531 54.841 138.039C58.9431 129.898 63.091 121.782 67.4645 113.797C68.8352 111.294 70.2286 108.804 71.6492 106.329C72.9573 104.051 74.2828 101.782 75.623 99.5218C76.5017 98.262 77.3649 97.0803 78.1652 95.9843C79.2898 94.4442 80.2906 93.073 81.0371 91.8942C82.8355 89.0542 84.5331 85.636 85.7937 83.0975C85.9996 82.6828 86.1941 82.2909 86.3753 81.9295C87.5674 80.023 88.7648 78.1192 89.9638 76.2167C89.9938 76.061 90.0226 75.9032 90.0513 75.7425C90.4107 73.7377 91.592 71.6977 93.4506 68.4862C94.26 67.0876 95.1977 65.4664 96.2524 63.5296C96.932 62.2817 97.0593 61.5132 97.1636 60.8854C97.1943 60.7008 97.2232 60.5277 97.2633 60.3587C97.4009 59.7795 97.8589 59.3488 98.3999 58.8399C99.1019 58.1797 99.9443 57.3878 100.408 55.9692C101.887 51.449 103.479 49.9966 104.682 48.8981C105.035 48.5758 105.355 48.2835 105.629 47.9535C106.517 46.8835 107.285 45.0739 107.739 43.634C108.1 42.4923 109.485 40.5891 110.648 39.2106C111.088 38.6894 111.543 37.9038 112.078 36.9783C112.631 36.0206 113.27 34.9121 114.071 33.7929C116.093 30.9646 117.154 29.4535 118.006 28.2384C118.249 27.892 118.475 27.5689 118.702 27.2469C119.418 26.2295 120.266 24.943 121.124 23.6404C122.15 22.0815 123.192 20.4994 124.043 19.3288C125.758 16.0133 127.439 12.6782 129.12 9.34392C129.983 7.63068 130.385 5.74277 130.215 4.08323C130.044 2.4235 129.32 1.13097 128.177 0.474921C127.035 -0.181024 125.554 -0.154215 124.034 0.534597C122.515 1.22408 121.087 2.52308 120.042 4.13184C117.94 7.37381 115.837 10.6164 113.771 13.8799C111.254 17.8553 108.793 21.8624 106.452 25.9388C104.815 28.7905 103.205 31.6579 101.617 34.5377C101.453 34.8342 101.29 35.131 101.127 35.4277C99.4702 37.6618 97.8415 39.906 96.7831 41.5383C95.9092 42.8861 95.4771 43.9863 95.1069 44.9285C94.8521 45.5769 94.6267 46.1507 94.3071 46.6786C94.1354 46.9621 93.8927 47.3447 93.6 47.8061C92.4052 49.69 90.376 52.8898 88.9311 56.0421C88.29 57.4409 87.6438 59.1224 87.0269 60.7278C86.1449 63.0233 85.3222 65.1637 84.6588 66.1019C83.4937 67.7493 82.4862 69.8273 81.5963 71.6635C80.7474 73.4151 80.0048 74.9468 79.3336 75.6751C78.5315 76.5453 78.1343 77.452 77.5431 78.7997C77.133 79.7344 76.6292 80.8812 75.8332 82.376C74.9143 84.1017 74.3853 85.3922 73.9357 86.4891C73.303 88.0329 72.8268 89.1944 71.6395 90.6513C70.3207 92.2696 69.062 94.0299 68.3103 95.5536C67.9679 96.2477 67.5177 97.008 67.0492 97.7991C66.429 98.8464 65.7769 99.9481 65.3002 101.022C64.9073 101.907 64.7327 102.725 64.5783 103.448C64.5301 103.674 64.4835 103.891 64.4332 104.097C64.0484 104.761 63.6623 105.424 63.2738 106.085C63.1763 106.172 63.0717 106.263 62.9631 106.358C62.4178 106.833 61.748 107.418 61.1045 108.249C60.0861 109.565 59.4902 110.89 58.8624 112.288C58.3736 113.377 57.8654 114.51 57.1218 115.716C56.6148 116.538 55.9765 117.44 55.3439 118.334C54.4044 119.661 53.4769 120.973 53.0073 121.984C52.8313 122.363 52.7924 122.753 52.7547 123.14C52.7547 123.142 52.7548 123.144 52.7549 123.145C52.7523 123.172 52.7495 123.198 52.7468 123.224C51.2936 125.509 49.8294 127.789 48.3591 130.064C48.2065 130.247 48.0532 130.432 47.9016 130.616C47.1605 131.513 46.4405 132.385 45.8443 132.881C45.1982 133.419 44.0645 135.051 42.8697 136.772C42.0872 137.898 41.2784 139.063 40.5632 139.983C40.1452 140.52 39.9701 141.158 39.7904 141.813C39.6228 142.425 39.4506 143.053 39.0724 143.631C38.8829 143.92 38.6378 144.209 38.3761 144.518C38.1457 144.79 37.902 145.077 37.6726 145.392C37.4595 145.685 37.1382 146.426 36.7253 147.376C36.4702 147.962 36.1799 148.629 35.8594 149.319C34.772 151.006 33.6882 152.695 32.6105 154.388C32.2765 154.678 31.9325 154.899 31.5798 155.028C31.3268 155.12 31.0596 155.169 30.786 155.22C30.4137 155.289 30.0289 155.36 29.6486 155.545C29.3515 155.69 29.1268 155.933 29.0859 156.159C29.0669 156.264 29.0871 156.365 29.1053 156.456C29.1261 156.561 29.1444 156.655 29.0992 156.73C29.0665 156.784 28.9906 156.816 28.8981 156.856C28.7503 156.921 28.559 157.005 28.4278 157.224C27.9394 158.042 27.435 159 26.9411 159.939C26.3918 160.984 25.8547 162.004 25.3655 162.782C24.8173 163.653 24.2477 165.016 23.6763 166.381C23.2778 167.333 22.8779 168.286 22.4852 169.075C22.1005 169.849 21.5648 170.576 21.0455 171.281C20.4221 172.126 19.8221 172.94 19.5377 173.76C19.4803 173.926 19.5472 174.211 19.6306 174.569C19.6896 174.823 19.7564 175.114 19.7944 175.423C19.2537 176.365 18.72 177.311 18.1925 178.26C18.1499 178.28 18.1063 178.301 18.0622 178.321C18.0613 178.321 18.0604 178.321 18.0595 178.321C17.0631 178.778 15.7 179.403 15.2969 181.148C15.1944 181.592 15.2694 181.952 15.3367 182.275C15.4029 182.593 15.4622 182.878 15.3392 183.173C15.1994 183.509 14.8725 183.813 14.5164 184.144C14.0165 184.608 13.4579 185.127 13.2765 185.866C13.2641 185.916 13.2511 185.971 13.2369 186.027C13.103 186.561 12.9045 187.351 12.9023 188.25C11.8527 190.316 10.8206 192.394 9.79979 194.477C8.09813 197.95 6.42689 201.441 4.7561 204.931C3.94467 206.63 3.5743 208.493 3.75545 210.128C3.93775 211.763 4.65012 213.032 5.77111 213.676C6.89206 214.32 8.34657 214.294 9.85074 213.627C11.3539 212.96 12.7762 211.7 13.8342 210.143C15.5571 207.602 17.2807 205.061 18.9885 202.511C19.0916 202.385 19.1944 202.259 19.2954 202.132C20.0467 201.187 20.9136 200.408 21.7812 199.628C21.9805 199.449 22.1802 199.269 22.3782 199.088Z" fill="black"/>
<path d="M35.4113 86.7683C35.5431 86.9004 35.0998 87.2549 35.127 87.4529C35.2355 88.2675 34.9905 88.6688 35.0603 89.4514C35.12 90.6782 37.2744 93.1985 34.3057 95.1549C34.3056 95.155 34.3056 95.155 34.3055 95.1551C34.2756 95.1739 34.2451 95.1926 34.2141 95.2112C33.6265 95.5678 32.8091 95.6717 32.1168 96.0267C31.4245 96.3816 27.1628 99.0348 26.603 98.6384C25.8058 98.046 25.9965 95.5503 25.781 95.1686C25.6172 94.9006 25.039 94.7139 24.8078 94.3624C24.0651 93.2159 24.1609 92.4737 22.6162 91.6613C23.0998 91.0033 23.5988 90.3595 24.1164 89.7479C23.6689 89.2307 24.312 88.135 24.2008 87.7995C24.1056 87.5148 23.5658 87.4339 23.4881 87.126C23.3983 86.7803 23.863 86.1627 23.7006 85.5482C23.4422 84.5429 22.0912 84.4711 21.8686 83.8368C21.6393 83.165 22.3229 82.1022 21.8456 81.2626C21.6967 81.1569 21.5483 81.0512 21.4003 80.9417C21.0652 81.0195 20.7304 81.0983 20.3958 81.1789C20.2386 80.7324 20.9271 80.5435 20.9471 80.1439C20.9724 79.6748 20.332 79.4065 20.3494 79.0818C20.3646 78.8151 20.905 78.4925 20.8957 78.1535C20.886 77.6569 20.1278 77.7064 20.0092 77.4248C19.952 77.3169 19.757 75.2804 19.778 75.1628C19.8682 74.2996 20.9003 74.391 21.0997 73.744C21.6517 71.9692 21.2771 69.9466 21.4769 68.1746C21.5656 67.3823 21.8784 66.6166 22.2924 65.9448C24.3908 67.9206 27.1891 66.2082 22.9842 65.6882C23.8269 65.1028 23.0167 64.1232 23.5248 63.4165C23.8517 62.9731 24.5228 62.869 24.8483 62.1599C25.1519 61.4942 25.1145 60.5161 25.4803 59.9521L25.8121 59.4356C26.1194 59.0498 26.6639 58.9711 27.8385 59.6336C28.2806 58.1538 29.9165 57.8313 28.2522 55.7691C28.3736 55.3694 30.212 55.5979 30.6496 55.4244C31.0507 55.2324 33.6939 53.4761 34.1127 53.1688C34.5134 52.8372 35.1775 52.2881 35.3638 51.824C35.576 51.2649 34.1797 48.9086 36.9238 50.7437C37.669 49.8305 38.0299 49.6759 39.1213 49.3574C39.317 49.3027 39.5983 49.6771 39.6892 49.6157C39.8768 49.4882 40.0001 48.99 40.3257 48.7326C40.8717 48.3037 41.7036 48.9596 40.8691 47.7064C41.1281 47.2582 41.3978 46.8137 41.695 46.3654C41.9786 46.5413 42.2586 46.7207 42.5348 46.9033C42.6036 46.5103 42.6789 46.1169 42.7607 45.7235C43.4617 47.7943 44.4595 45.9021 43.4333 45.0064C44.4557 45.0295 45.4924 45.0917 46.4777 45.2176C47.1857 47.5721 48.3948 44.8879 47.9036 43.6462C48.009 43.6179 48.1144 43.5903 48.2197 43.5633C49.294 43.9509 50.0128 43.232 51.2175 43.4777C52.4155 43.7374 52.3371 44.0075 52.7919 45.0956C53.0316 45.0035 53.2773 44.9145 53.5271 44.8292C54.7333 41.6422 54.6474 46.9818 56.9201 44.6871C57.5127 46.6743 59.2448 45.8457 60.5732 45.5572C60.7249 45.5218 60.815 45.1521 61.0284 45.0838C61.557 44.9143 62.5531 45.73 62.8949 44.5576C63.1942 45.0281 63.4711 45.5038 63.7288 45.9846C64.1249 45.8993 64.5218 45.8225 64.933 45.7607C65.0864 45.41 65.2398 45.0592 65.393 44.7084C65.5312 46.1892 66.7131 46.239 67.0419 46.7948C67.1045 46.9045 66.8585 47.3702 67.0662 47.6636C67.3072 48.0067 67.9832 48.2614 68.2619 48.6665C68.7461 48.2935 69.2411 47.9311 69.7466 47.5798C70.6536 47.8735 69.9057 49.2743 70.1835 49.677C70.246 49.7386 71.4822 50.7856 71.5596 50.8441C72.1876 51.1828 73.0113 50.2631 74.0667 51.7782L71.1669 49.81C71.2907 49.8485 71.4216 49.8962 71.5594 49.9544C71.9508 50.1208 72.1258 50.6569 72.461 50.7956C73.0394 51.001 75.2717 50.9193 75.8989 50.2026C76.0981 51.6307 78.1258 52.4495 78.3922 53.1529C78.4705 53.3567 78.0245 53.9676 78.3272 54.4518C78.5668 54.8312 79.8219 55.2149 80.1226 55.7142C80.4393 56.2352 80.0776 56.8072 80.2049 57.0332C80.3235 57.2462 80.872 57.1081 81.0719 57.3784C81.685 58.2244 81.4899 59.4671 81.8528 60.1263C82.3874 61.1008 84.1797 61.2997 85.2071 61.9757C85.2158 62.2485 85.0001 62.5856 85.0903 62.8208C86.2156 65.7558 86.6542 69.1764 86.5953 72.1095C86.6199 73.5366 84.557 76.7807 88.0076 75.9147C88.648 76.4155 87.0783 79.8137 86.9545 80.4261C86.8665 81.0569 87.4162 81.6404 87.3526 82.1526C87.151 83.6987 86.5244 84.6616 86.6216 86.5932C86.6467 87.0927 87.225 87.7864 87.1395 88.0694C87.0343 88.413 86.2525 88.5717 86.0835 88.9855C85.6939 89.9794 85.2776 91.9242 84.7847 92.8363C84.695 93.0019 84.089 92.8397 83.8123 93.0087C82.7365 93.6618 82.3418 94.7038 84.2416 95.3333C82.6697 96.0885 83.0746 97.6027 82.541 98.7399C81.4571 101.154 78.4589 104.812 77.6652 107.081C77.1771 108.526 77.8702 109.117 75.8744 110.204C75.429 110.443 74.9372 110.636 74.3946 110.91C73.1254 111.546 71.1322 111.18 71.7563 113.311C70.3444 113.915 69.6519 114.981 67.7683 114.321C67.9292 114.715 68.0877 115.112 68.2438 115.509C68.1113 115.628 67.978 115.747 67.8438 115.865C67.5596 115.594 67.2762 115.322 66.9935 115.049C66.6734 115.259 66.422 115.61 66.1951 116.017L67.1029 115.16C66.9525 116.012 67.0816 117.1 66.7339 117.551C65.8638 118.61 63.4181 121.307 62.3814 122.258C61.8104 122.758 62.5523 123.147 60.8316 122.772C60.8702 122.967 60.9109 123.162 60.9539 123.354C61.2538 123.6 61.5563 123.841 61.86 124.081C61.5215 124.87 60.6154 125.6 60.3816 126.361C59.9141 127.803 60.6418 129.779 60.0628 130.646C59.9047 130.877 59.177 131.284 59.2351 131.519C59.3221 131.858 60.5791 131.577 60.6809 131.776C60.7758 131.954 60.5537 132.33 60.5261 132.84C60.4852 133.341 60.6879 133.945 61.0493 134.099C61.2554 134.188 61.5844 133.824 61.7428 133.85C62.4 133.947 62.9917 134.206 63.9041 133.691C64.3719 135.082 64.0597 136.623 64.0434 138.256C64.0233 139.489 64.4717 142.401 64.4945 143.47C64.4948 144.222 63.9719 145.113 63.9989 145.944C62.137 146.319 61.435 145.416 60.3793 143.903C57.7862 143.151 54.9152 141.814 52.6814 139.187C52.8323 138.667 53.0117 138.165 53.2138 137.678C53.2146 137.677 53.2154 137.677 53.2162 137.676C52.9946 136.451 51.7989 136.578 51.2664 136.053C48.6326 133.542 48.3865 128.292 49.6849 124.617C50.908 120.795 53.098 117.802 54.5105 115.649C55.0857 114.708 56.5993 111.364 57.6641 111.199C57.9326 111.154 58.5167 111.523 58.6623 111.38C59.022 110.587 59.4076 109.796 59.8125 109.02L60.4858 108.385C61.0359 107.699 61.5542 107.008 62.0417 106.315C65.1926 105.088 66.9396 102.028 68.7259 99.4461C73.6403 92.3882 76.1364 84.078 76.3805 76.1349C76.4339 74.5754 75.7792 72.7391 75.8606 71.27C75.8975 70.6753 76.9299 70.1658 75.9452 69.5781C76.2333 69.5006 76.5212 69.4228 76.8091 69.3446C76.29 68.7397 75.5161 68.4921 75.2212 67.8214C74.9796 67.2213 74.3128 65.7729 74.1593 65.2784C74.0822 65.0117 74.6204 64.8356 74.4915 64.6089C74.2654 64.2117 73.1267 63.859 72.8063 63.4551C72.5177 63.065 72.4404 62.0303 72.0923 61.8382C70.8445 61.1229 69.3807 61.3814 68.4198 60.846C68.3756 60.8215 68.333 60.7817 68.2912 60.7319L66.7147 60.4583L64.9782 58.4832C64.9617 58.1151 65.1128 57.5021 65.0304 57.4353C64.8396 57.2827 64.2768 57.7101 64.1105 57.6664C63.2978 57.4557 62.8813 56.0649 62.1567 55.6063C59.8959 54.1166 56.8307 53.7944 53.9906 53.9662C52.1662 53.9986 49.1975 55.0678 47.3225 55.4972C46.9158 55.5789 46.6507 54.8501 46.339 55.0185C45.9883 55.211 46.0709 55.7651 45.939 55.891C44.9833 56.7532 43.1084 58.7933 41.867 59.219C41.6224 59.298 41.0965 58.961 40.9932 59.0574C40.9403 59.1055 41.0992 59.5164 40.9652 59.6986C39.7831 61.3212 38.6377 62.2173 37.2619 63.6715C36.5597 64.4237 35.935 65.2474 35.314 66.1787L35.5637 65.7899C34.3512 68.0831 33.5901 71.2006 32.6758 73.88C32.4025 74.6773 31.1293 75.0444 31.1184 75.1692C31.0952 75.4385 31.8525 75.7497 31.969 76.2986C32.3387 78.1105 31.3521 80.3867 31.8275 82.0352C32.0515 82.842 33.1584 83.8327 33.483 84.52C33.7285 85.0798 33.6032 86.5163 34.1065 86.6683C34.4052 86.761 35.2638 86.6253 35.4113 86.7683ZM25.8172 61.7195C26.9617 62.5024 26.7585 60.474 25.802 60.6692C25.5751 60.7273 25.5142 61.518 25.8172 61.7195ZM83.995 67.3426C84.3756 67.233 84.7561 67.1228 85.1364 67.0121C84.9264 66.8521 84.7119 66.6831 84.4976 66.5238C84.2993 66.7009 84.0996 66.8757 83.8987 67.0482C83.9322 67.1497 83.9634 67.2442 83.995 67.3426Z" fill="black"/>
<path d="M81.9248 158.373C81.8701 158.287 82.3137 158.561 82.3619 158.542C82.5656 158.47 82.8956 158.627 83.1587 158.608C83.5657 158.565 83.3347 157.639 86.463 159.42C86.4631 159.42 86.4632 159.42 86.4633 159.42C86.4939 159.438 86.5248 159.456 86.556 159.474C87.1498 159.819 87.7564 160.267 88.4187 160.673C89.0811 161.079 93.4165 163.602 93.5653 163.903C93.7491 164.324 92.3334 164.153 92.3117 164.286C92.2954 164.382 92.6103 164.731 92.612 164.872C92.6133 165.332 92.2345 165.289 93.0245 166.305C92.4154 166.031 91.8118 165.748 91.2139 165.455C91.3472 165.78 90.5144 165.446 90.4904 165.551C90.47 165.639 90.841 166.001 90.8041 166.084C90.7645 166.18 90.2406 165.94 90.1924 166.127C90.1107 166.432 91.092 167.354 91.098 167.607C91.1035 167.869 90.3692 167.591 90.556 168.086C90.6442 168.209 90.732 168.332 90.8195 168.455C91.0792 168.668 91.3395 168.88 91.6002 169.091C91.6275 169.291 91.0896 168.861 91.0025 168.935C90.8995 169.021 91.3208 169.522 91.2538 169.587C91.1985 169.64 90.7538 169.348 90.7096 169.44C90.6425 169.572 91.1988 170.081 91.2445 170.235C91.264 170.295 91.1474 170.992 91.1259 171.019C90.9673 171.212 90.2422 170.478 90.0423 170.542C89.489 170.723 89.6505 171.693 89.4725 172.258C89.395 172.508 89.1769 172.612 88.9019 172.623C87.4839 170.374 85.6402 169.226 88.4437 172.269C87.8926 171.959 88.456 172.936 88.1582 172.929C87.966 172.923 87.5373 172.53 87.3827 172.667C87.1166 172.907 87.7331 174.471 85.9325 172.141C85.8971 172.806 85.0028 172.125 86.3373 174.359C86.3312 174.555 85.2332 173.429 85.0195 173.318C84.8125 173.22 83.7206 173.088 83.5837 173.124C83.4454 173.163 83.2172 173.252 83.2332 173.508C83.2566 173.822 84.5171 176.207 82.7074 173.615C82.5744 173.986 82.4322 173.963 82.0111 173.778C81.9348 173.745 81.7041 173.338 81.6785 173.351C81.6263 173.38 81.7022 173.732 81.6267 173.821C81.5016 173.967 80.9509 173.145 81.6734 174.463C81.6862 174.742 81.6985 175.02 81.7074 175.299C81.5362 175.061 81.3658 174.823 81.1962 174.584C81.2849 174.894 81.372 175.204 81.4576 175.515C80.5382 173.544 80.7242 174.887 81.4103 175.938C80.9968 175.642 80.5894 175.341 80.1882 175.034C79.151 172.791 79.6232 174.985 80.2199 176.189C80.1947 176.199 80.1696 176.208 80.1444 176.218C79.6586 175.718 79.6854 176.295 79.247 176.006C78.812 175.715 78.7415 175.482 78.218 174.47C78.1852 174.555 78.152 174.64 78.1184 174.725C78.9998 177.734 77.0049 172.722 77.3763 175.147C76.4893 173.392 76.4677 174.503 76.3864 175.164C76.3776 175.241 76.5071 175.598 76.5034 175.725C76.4917 176.029 76.0545 175.665 76.4698 176.819C76.2546 176.519 76.042 176.217 75.8318 175.914C75.8262 176.151 75.819 176.389 75.8103 176.627C75.9322 176.99 76.0542 177.353 76.1761 177.716C75.5989 176.533 75.5059 177.091 75.2839 176.834C75.2399 176.782 75.0744 176.28 74.9553 176.167C74.815 176.032 74.6974 176.232 74.5437 176.106C74.6729 176.678 74.8002 177.251 74.9255 177.824C74.817 178.188 74.3125 176.726 74.1683 176.643C74.1427 176.629 73.8028 176.841 73.7911 176.878C73.6969 177.174 74.0887 178.433 73.5219 178.29C73.4212 178.263 73.2383 177.84 73.1558 177.842C73.0126 177.845 72.8338 178.95 73.0128 179.887C72.564 178.767 72.2102 179.346 71.9981 179.038C71.9346 178.943 71.7669 178.201 71.6106 178.069C71.4848 177.96 71.3455 178.61 71.1956 178.535C71.0371 178.452 70.8701 177.834 70.8018 177.801C70.7376 177.77 70.7788 178.287 70.6993 178.298C70.4489 178.326 70.0883 177.545 69.8973 177.561C69.6218 177.581 69.6071 179.128 69.4538 179.834C69.3789 179.744 69.2746 179.428 69.2112 179.434C68.4223 179.494 67.5053 179.305 66.7047 179.03C66.3187 178.909 65.3618 176.874 65.7294 180.319C65.6152 180.933 64.6298 179.56 64.4625 179.536C64.2864 179.516 64.142 180.135 63.999 180.143C63.5672 180.164 63.2858 179.711 62.7396 180.227C62.5984 180.362 62.4117 181.087 62.3291 181.074C62.2299 181.056 62.1677 180.341 62.0459 180.288C61.7546 180.167 61.1757 180.353 60.8985 180.2C60.8482 180.171 60.8933 179.549 60.8405 179.347C60.6367 178.56 60.3244 178.587 60.1347 180.571C59.8989 179.403 59.4244 180.378 59.0565 180.384C58.2828 180.401 57.0452 179.677 56.2025 180.325C55.6683 180.736 55.4395 181.602 55.0252 180.689C54.9346 180.486 54.8631 180.226 54.7584 179.983C54.5039 179.408 54.6926 177.737 53.7915 179.533C53.5435 178.908 53.0851 179.133 53.3802 177.429C53.2048 177.799 53.0281 178.169 52.8499 178.538C52.7971 178.529 52.7444 178.52 52.6916 178.51C52.8142 178.141 52.9375 177.772 53.0613 177.403C52.7676 177.179 51.7305 178.484 51.4285 178.342C50.9213 178.116 49.9325 176.958 49.7426 176.257C49.6404 175.888 49.2286 176.612 49.9149 175.036C49.8086 175.114 49.7017 175.192 49.5943 175.268C49.3823 175.58 49.1691 175.89 48.9547 176.2C48.647 176.047 48.5908 175.342 48.3153 175.182C47.8124 174.896 46.5017 175.275 46.3946 174.369C46.3695 174.143 46.6702 173.408 46.5515 173.332C46.3778 173.221 45.5787 174.227 45.3467 174.083C44.9406 173.83 45.2078 172.134 44.8201 171.952C44.7045 171.897 44.3502 172.222 44.2506 172.204C43.8295 172.129 43.6333 171.902 42.8673 172.2C43.4163 171.033 44.5366 169.905 45.5596 168.668C46.329 167.732 48.1154 165.563 48.8386 164.789C49.3443 164.243 50.0618 163.606 50.6136 163C51.2797 162.735 50.8607 163.328 50.2707 164.349C50.643 164.626 51.0207 164.887 51.4092 165.137C51.1638 165.513 50.9206 165.891 50.6796 166.27C50.679 166.27 50.6784 166.271 50.6778 166.272C50.5095 166.795 51.2761 165.932 51.5084 165.78C53.705 164.326 53.9566 166.792 54.8051 167.515C54.9768 167.671 55.8474 167.408 55.6978 168.13C55.6586 168.319 55.3982 168.957 55.4263 169.002C55.9414 168.775 56.4354 168.528 56.9176 168.267C57.2739 169.535 58.3364 168.929 59.0946 168.94C61.2098 168.983 63.2151 168.61 65.2233 168.704C65.6181 168.724 66.0724 168.178 66.4773 168.476C66.6455 168.6 66.8246 169.694 66.9543 168.852C66.9877 169.148 67.0211 169.444 67.0546 169.741C67.2088 169.362 67.2492 168.675 67.4455 168.581C67.6122 168.504 68.0614 168.396 68.2317 168.483C68.3197 168.527 68.3773 169.082 68.4525 169.067C68.5832 169.037 68.7263 168.232 68.8971 168.2C69.0521 168.172 69.443 168.749 69.5489 168.632C69.9312 168.217 70.1753 167.185 70.683 167.316C70.8238 167.355 71.1743 168.008 71.2099 167.978C71.2775 167.916 71.1139 167.233 71.1404 167.132C71.2728 166.623 71.9047 167.305 72.1743 167.254C73.0433 167.093 73.8024 166.485 74.6428 166.268C75.1832 166.13 75.9428 165.637 76.6343 165.873C76.7839 165.924 77.1104 166.621 77.1949 166.577C77.2888 166.528 77.0969 166.042 77.1195 165.982C77.2875 165.563 77.6466 164.758 78.1818 165.054C78.2849 165.112 78.6332 165.605 78.6636 165.584C78.6796 165.574 78.5021 165.201 78.5286 165.136C78.7619 164.557 79.1835 164.569 79.6706 164.407C80.6017 164.095 80.978 162.836 81.9391 162.527C82.1495 162.46 83.0664 163.234 83.0818 163.203C83.1152 163.139 82.5996 162.525 82.5565 162.293C82.4101 161.536 83.4159 161.73 83.3879 161.161C83.3731 160.883 82.7765 160.019 82.7108 159.746C82.6607 159.527 83.1712 159.528 82.8542 159.207C82.6633 159.013 81.9876 158.47 81.9248 158.373ZM86.8061 172.263C86.0101 171.129 86.3479 172.312 86.9206 172.813C87.0509 172.926 87.0137 172.557 86.8061 172.263ZM67.9036 177.149C67.9495 177.542 67.9955 177.935 68.0417 178.328C68.0788 178.158 68.1153 177.989 68.1511 177.819C68.0941 177.586 68.0378 177.353 67.982 177.119C67.9559 177.129 67.9297 177.139 67.9036 177.149Z" fill="black"/>
<path d="M43.4825 135.953C43.5906 136.214 43.0919 136.615 43.0831 136.931C43.044 138.25 42.7248 138.763 42.6348 139.967C42.4482 141.801 43.9979 146.672 40.5289 147.451C40.5288 147.451 40.5287 147.451 40.5286 147.451C40.4941 147.459 40.459 147.466 40.4234 147.472C39.7485 147.602 38.918 147.299 38.1434 147.385C37.3686 147.471 32.4655 148.544 32.0436 147.858C31.4559 146.85 32.3341 144.103 32.2162 143.561C32.1268 143.185 31.615 142.766 31.4784 142.281C31.0416 140.713 31.3043 139.863 29.9677 138.505C30.5799 137.883 31.1984 137.27 31.8229 136.674C31.483 135.946 32.3065 134.796 32.2496 134.356C32.2018 133.991 31.6815 133.786 31.6515 133.403C31.6196 133.025 32.039 132.47 32.0872 131.815L33.9561 134.797C33.8722 134.749 33.7833 134.706 33.6884 134.671C32.4304 134.188 31.5639 135.233 30.7312 134.953C29.8416 134.643 29.1425 133.336 27.9624 133.087C27.7633 133.129 27.5633 133.17 27.3625 133.209C27.2509 133.54 27.1413 133.873 27.0337 134.206C26.4714 134.002 26.6585 133.289 26.2617 132.979C25.7916 132.609 25.1499 132.934 24.8268 132.676C24.5624 132.464 24.535 131.772 24.1801 131.52C23.6636 131.148 23.2839 131.811 22.9264 131.692C22.7755 131.654 20.6329 130.279 20.5268 130.167C19.7167 129.433 20.3643 128.618 19.8464 127.967C18.395 126.141 16.2109 124.897 14.6106 123.378C13.8898 122.693 13.3458 121.874 12.9143 120.998C15.9079 120.631 15.6925 116.819 13.0334 120.198C12.9001 118.997 11.563 119.014 11.1686 118.073C10.9169 117.463 11.1573 116.781 10.6601 116.009C9.77995 114.653 7.48393 113.888 9.83608 112.055C8.46268 110.641 8.71957 108.741 6.08065 109.249C5.71696 108.867 6.58484 107.067 6.56175 106.495C6.50684 105.95 5.6621 102.057 5.50588 101.448C5.31837 100.837 4.98709 99.7722 4.6002 99.3336C4.12226 98.7955 1.39315 99.1319 4.04731 97.0425C3.40125 95.7772 3.35138 95.2596 3.37754 93.9122C3.38307 93.6678 3.83003 93.5273 3.79709 93.3951C3.72856 93.1233 3.2781 92.7406 3.12243 92.258C2.86655 91.4624 3.73304 90.7937 2.28265 91.2003C1.92016 90.7143 1.56243 90.2201 1.21001 89.7188C1.45807 89.4719 1.70735 89.227 1.95786 88.9844C1.59388 88.751 1.23101 88.5132 0.86933 88.2711C3.06611 88.2499 1.47439 86.4168 0.345959 87.2683C0.624793 86.1234 0.930911 84.9871 1.26591 83.8733C3.72943 83.7648 1.33766 81.5331 0.0201197 81.8116C0.0130434 81.6865 0.00632811 81.5613 -2.6226e-05 81.4361C0.584561 80.3049 0.00180817 79.3283 0.424792 77.9884C0.855311 76.6586 1.10526 76.7844 2.24464 76.4038C2.18389 76.0988 2.12552 75.7928 2.0696 75.4858C-0.974806 73.7279 4.36007 74.3179 2.22608 71.4178C4.25569 70.7468 3.50585 68.5679 3.20251 67.0278C3.16596 66.8508 2.79293 66.7764 2.72123 66.5328C2.54604 65.9332 3.33357 64.6694 2.13284 64.4334C2.5923 64.0318 3.05651 63.6414 3.52507 63.2626C3.41247 62.8204 3.30596 62.374 3.20585 61.9233C2.83795 61.8175 2.47005 61.7117 2.10213 61.6059C3.58266 61.1799 3.50142 59.8218 4.01218 59.3254C4.11408 59.2283 4.61967 59.3793 4.88711 59.0677C5.2009 58.7051 5.35814 57.8662 5.71738 57.4322C5.2561 57.0163 4.79917 56.5936 4.34676 56.1641C4.45359 55.1159 6.00678 55.4469 6.35492 54.9903C6.40826 54.9051 7.15043 53.1865 7.17859 53.0834C7.34953 52.2356 6.04736 51.7817 7.55991 49.8232C7.83405 49.4774 8.40734 49.4252 8.63667 49.1076C9.03077 48.5399 9.39616 46.252 8.75171 45.5378C10.2054 45.5602 11.2884 43.4651 11.9915 43.2082C12.2037 43.1283 12.8016 43.5959 13.3261 43.2577C13.7463 42.9856 14.1827 41.6416 14.7125 41.2634C15.2691 40.8668 15.8949 41.1553 16.1309 40.9924C16.3569 40.836 16.1889 40.2863 16.47 40.0327C17.356 39.2459 18.7135 39.1837 19.4478 38.6108C20.5138 37.7827 20.5002 35.8922 21.0767 34.6588C21.3697 34.5743 21.7879 34.684 22.0388 34.5174C25.1161 32.4758 28.874 30.7677 32.3054 29.6226C33.9696 29.0185 38.3969 29.5925 36.2132 26.717C36.5792 25.9072 41.0326 25.9068 41.7707 25.7429C42.5339 25.5418 42.9807 24.7749 43.5953 24.6007C44.1173 24.4533 44.6099 24.3573 45.0966 24.2717C46.3929 24.0434 47.5745 23.9048 49.2546 23.2392C49.8596 22.9987 50.4421 22.1788 50.8246 22.1406C51.2869 22.0955 51.8421 22.7479 52.4369 22.7383C53.8508 22.6931 56.4548 22.3712 57.8135 22.5415C58.0596 22.5713 58.1291 23.1968 58.4663 23.4039C59.7794 24.2089 61.2506 24.2912 61.1814 22.2835C62.8138 23.5735 64.5522 22.7973 66.1953 23.0685C69.6991 23.5511 75.4787 26.1587 78.5188 26.896C80.4595 27.3319 80.9182 26.5234 82.9522 28.708C83.3954 29.1973 83.7921 29.7395 84.2986 30.345C85.5072 31.7844 85.675 34.0326 87.9816 33.3927C89.1305 35.0617 90.5196 35.9157 90.2742 38.121C90.6842 37.9601 91.0964 37.8027 91.5108 37.649C91.6811 37.8167 91.8501 37.9857 92.0181 38.156C91.7799 38.4724 91.5404 38.7877 91.2996 39.1018C92.3298 40.3928 94.9156 41.0739 95.7679 42.2864C97.2816 44.235 99.8284 50.0296 100.137 52.3398C100.347 53.5471 101.143 53.3168 99.7929 54.5669C99.9979 54.7685 100.202 54.9729 100.404 55.1801C100.813 55.2067 101.223 55.2373 101.633 55.2719C102.171 56.7394 102.132 58.6571 102.483 60.0742C103.156 62.6103 104.774 66.5317 104.201 69.2809C104.065 69.9722 103.315 70.8237 103.326 71.4656C103.339 72.4031 104.624 72.6568 104.601 73.8967C104.584 76.0422 102.615 79.7313 102.313 81.6079C102.231 82.1763 102.638 82.5424 102.598 82.9481C102.425 84.6717 102.031 85.9431 102.225 87.7487C100.508 89.0217 99.0529 88.3165 97.378 88.2473C96.1098 88.2035 93.0956 88.2178 92.0606 87.9443C91.333 87.7596 90.5898 87.0446 89.7762 86.8727C89.783 85.0769 90.6509 84.7512 92.1702 83.7582C92.8661 81.3345 93.3504 78.8333 93.5929 76.346C94.0629 76.1743 94.5325 75.9885 95.0007 75.797C95.0016 75.7971 95.0026 75.7971 95.0036 75.7972C95.6137 74.8429 94.4873 74.333 94.2549 73.8045C92.285 68.7905 92.4117 59.3372 89.8726 54.1871C89.4328 53.0644 86.9325 50.1317 87.0211 49.0834C87.054 48.8028 87.5794 48.3527 87.469 48.149C85.9321 46.7288 84.3072 45.4544 82.6183 44.3331C80.4725 40.637 76.3412 38.7175 72.6443 37.0877C64.7387 33.5368 55.9687 33.1636 47.857 35.3135C45.2605 35.9916 43.0218 36.6608 40.5346 37.5161C38.4585 38.2221 36.1083 39.7807 34.1113 40.4154C33.2901 40.6742 32.4278 39.8698 31.7873 41.1647C31.6317 40.9101 31.4759 40.6555 31.3199 40.4011C30.5891 41.2234 30.3836 42.1314 29.4935 42.7716C28.7177 43.3068 26.6882 44.7834 26.0038 45.1904C25.6365 45.4029 25.4238 44.8619 25.1013 45.1205C24.5437 45.5686 23.9231 47.1028 23.2627 47.7219C22.669 48.2608 21.1705 48.8557 20.8022 49.3965C19.441 51.3378 18.677 53.8743 17.1958 55.7925C16.783 56.3176 15.7308 56.7086 15.643 56.912C15.4757 57.3022 16.0368 57.7434 15.9885 58.0283C15.7385 59.4565 14.1075 61.094 13.6047 62.4149C11.9355 66.6529 11.4108 71.5608 11.1971 76.1882C11.002 79.127 11.5555 84.0276 11.565 86.8511C11.5586 87.4617 10.7741 87.4441 10.8696 87.9473C10.9778 88.506 11.5499 88.7017 11.645 88.9494C12.2805 90.688 13.8492 94.3817 13.9246 96.1662C13.9329 96.5092 13.4425 96.9329 13.5105 97.1202C13.5439 97.2154 14.0065 97.2922 14.1523 97.572C15.4487 100.035 16.0112 101.963 17.0775 104.474C19.1328 109.291 23.035 113.941 26.2624 118.163C26.9713 119.096 26.6662 120.488 26.7924 120.603C27.0663 120.85 27.7864 120.444 28.4488 120.818C30.5981 122.039 32.4919 124.683 34.592 125.539C35.5631 125.944 37.2998 125.802 38.2341 125.965L41.6076 127.336L41.9005 131.815C41.906 131.84 41.9112 131.865 41.9161 131.89C42.0893 132.807 41.7428 134.976 42.211 135.361C42.4903 135.594 43.3609 135.671 43.4825 135.953ZM10.7234 114.828C12.0041 114.279 10.0243 113.181 9.75186 114.188C9.69093 114.418 10.3902 114.974 10.7234 114.828ZM27.401 34.0503C27.1909 33.7143 26.9805 33.3785 26.7699 33.0429C26.6239 33.3147 26.4813 33.5864 26.3421 33.8581C26.5867 33.991 26.8303 34.1251 27.0729 34.2604C27.1818 34.1901 27.2911 34.1201 27.401 34.0503Z" fill="black"/>
</svg>
