<svg width="181" height="192" viewBox="0 0 181 192" fill="none" xmlns="http://www.w3.org/2000/svg">
<path d="M58.492 60.6503C58.4924 60.5934 58.6074 60.8628 58.6324 60.8708C58.738 60.9073 58.8321 61.0894 58.9437 61.1736C59.1089 61.2988 59.3268 60.824 59.9563 62.7512C59.9563 62.7513 59.9563 62.7513 59.9563 62.7514C59.9625 62.7703 59.9687 62.7894 59.975 62.8088C60.094 63.1762 60.1968 63.5862 60.3285 64.0028C60.4602 64.4195 61.3409 67.0996 61.3499 67.2636C61.3564 67.4814 60.9898 66.8403 60.9679 66.8811C60.9533 66.9092 61.0058 67.1618 60.9929 67.2139C60.9506 67.3822 60.8461 67.2191 60.9826 67.9074C60.8365 67.5689 60.6903 67.2305 60.544 66.892C60.5545 67.0677 60.3418 66.6278 60.3248 66.6614C60.311 66.689 60.3891 66.969 60.3717 66.9888C60.3527 67.0127 60.2181 66.727 60.1885 66.7863C60.1394 66.8822 60.3617 67.6064 60.3477 67.7121C60.3336 67.8214 60.1364 67.4528 60.1617 67.7249C60.1804 67.8065 60.1991 67.888 60.2177 67.9696C60.2814 68.147 60.3451 68.3244 60.4088 68.5018C60.4071 68.5946 60.2747 68.2317 60.2459 68.2337C60.2119 68.236 60.3095 68.5892 60.2878 68.5945C60.2699 68.5985 60.1552 68.3272 60.1384 68.3521C60.1133 68.3869 60.2523 68.7874 60.2594 68.8684C60.2621 68.9 60.2057 69.1644 60.1994 69.17C60.149 69.2041 59.9641 68.6542 59.9039 68.6205C59.7368 68.5295 59.7578 69.0157 59.6986 69.2214C59.6724 69.3134 59.6087 69.2987 59.5289 69.2271C59.1483 67.7895 58.6134 66.7486 59.3999 68.9358C59.2414 68.6398 59.3962 69.2491 59.31 69.1656C59.254 69.1111 59.1302 68.8127 59.0834 68.8368C59.0007 68.8817 59.1888 69.7835 58.6508 68.2181C58.6391 68.5288 58.3638 67.9871 58.7795 69.3883C58.7807 69.4818 58.4424 68.6768 58.3762 68.574C58.314 68.4771 57.9772 68.1736 57.9348 68.1644C57.8927 68.155 57.8233 68.1525 57.8331 68.2842C57.8451 68.4471 58.2886 69.8962 57.6736 68.2333C57.6409 68.3947 57.5977 68.3555 57.4619 68.1832C57.4374 68.1521 57.3544 67.9025 57.3467 67.9047C57.331 67.9098 57.3645 68.1034 57.3437 68.1351C57.3094 68.1871 57.1124 67.6692 57.3791 68.4713C57.3929 68.6159 57.4066 68.7605 57.4203 68.9051C57.3592 68.7534 57.298 68.6017 57.2369 68.45C57.2758 68.6244 57.3147 68.7987 57.3535 68.973C56.9939 67.8037 57.1033 68.5272 57.3576 69.1825C57.2205 68.9611 57.083 68.7397 56.9459 68.5182C56.5238 67.1936 56.7679 68.4074 57.0133 69.1225C57.0062 69.1236 56.9992 69.1248 56.9921 69.1259C56.819 68.7936 56.8585 69.0986 56.7099 68.8862C56.5612 68.6737 56.526 68.5428 56.3063 67.9419C56.3006 67.9822 56.2953 68.0225 56.2898 68.0628C56.7439 69.7585 55.8208 66.8671 56.0852 68.1952C55.6962 67.1631 55.7545 67.7527 55.7795 68.0959C55.7823 68.1358 55.8483 68.3392 55.8564 68.4059C55.8756 68.5664 55.7142 68.3298 55.9301 68.985C55.8419 68.8038 55.7537 68.6226 55.6655 68.4414C55.6826 68.5677 55.6997 68.6941 55.7167 68.8204C55.7834 69.0251 55.8501 69.2299 55.9168 69.4346C55.6463 68.7509 55.6642 69.0416 55.5766 68.8856C55.5589 68.8539 55.4656 68.5719 55.4198 68.5016C55.3657 68.4181 55.3475 68.5164 55.2897 68.4376C55.3801 68.7542 55.4705 69.0708 55.5609 69.3874C55.564 69.5741 55.2772 68.754 55.2258 68.6998C55.2167 68.6904 55.1352 68.7825 55.1355 68.8019C55.1364 68.9561 55.3776 69.6558 55.2008 69.5466C55.1692 69.5267 55.0717 69.2892 55.0479 69.2861C55.0058 69.2802 55.0753 69.8682 55.2323 70.3813C54.9806 69.757 54.9467 70.0566 54.8523 69.8833C54.8234 69.8299 54.6889 69.4239 54.6286 69.3477C54.5795 69.2856 54.6179 69.6332 54.5669 69.5895C54.5124 69.5416 54.3888 69.2039 54.3652 69.1849C54.3429 69.1673 54.4187 69.4477 54.3978 69.4527C54.331 69.4637 54.1291 69.0384 54.0766 69.0464C54 69.057 54.201 69.8947 54.2579 70.2771C54.2257 70.2291 54.1539 70.0585 54.1376 70.0621C53.9325 70.1002 53.665 70.0206 53.4111 69.9096C53.2942 69.8587 52.7086 68.8231 53.3687 70.6539C53.4422 70.9881 52.9694 70.317 52.9225 70.3197C52.8753 70.3227 52.9481 70.6658 52.9153 70.6818C52.8163 70.7298 52.6655 70.5145 52.6326 70.8444C52.6245 70.9305 52.7169 71.3349 52.6961 71.3366C52.6708 71.3377 52.5227 70.9656 52.4847 70.9512C52.3952 70.9199 52.3016 71.0884 52.2111 71.045C52.1943 71.0362 52.0818 70.7038 52.0301 70.6053C51.8282 70.2202 51.7611 70.281 52.12 71.3424C51.8343 70.7663 51.9297 71.3452 51.8572 71.406C51.7034 71.532 51.3018 71.3871 51.2933 71.8846C51.288 72.1984 51.445 72.6757 51.169 72.3092C51.1078 72.228 51.0364 72.1147 50.9627 72.018C50.7895 71.7903 50.422 70.9335 50.6973 72.02C50.5083 71.7763 50.4919 71.9977 50.1237 71.1114C50.1854 71.3326 50.2472 71.5537 50.309 71.7749C50.2984 71.7843 50.2879 71.7936 50.2774 71.803C50.2064 71.596 50.1353 71.389 50.0643 71.182C49.9586 71.1542 50.1237 72.046 50.0474 72.0637C49.9195 72.0944 49.4919 71.8652 49.283 71.6224C49.1721 71.4934 49.3126 71.9405 48.9809 71.0353C48.9874 71.1036 48.994 71.1719 49.0006 71.2402C49.0566 71.4438 49.1126 71.6473 49.1686 71.8509C49.0908 71.8849 48.8949 71.6038 48.8193 71.6317C48.6816 71.6832 48.6503 72.3032 48.3931 71.9855C48.3284 71.9053 48.1511 71.5055 48.1181 71.5212C48.0701 71.5438 48.2792 72.2348 48.2198 72.2682C48.1171 72.3243 47.6559 71.5918 47.5719 71.6862C47.5468 71.7138 47.6148 71.9741 47.6023 72.0082C47.5511 72.1542 47.4713 72.1569 47.513 72.5795C47.2093 71.9505 46.9437 71.098 46.6392 70.2495C46.4094 69.6091 45.8606 68.1302 45.6688 67.5662C45.534 67.17 45.3937 66.6498 45.2434 66.2143C45.2404 65.8289 45.4105 66.1995 45.6981 66.7876C45.8546 66.7101 46.0111 66.6325 46.1677 66.555C46.2597 66.7895 46.3517 67.0239 46.4438 67.2584C46.444 67.2589 46.4441 67.2595 46.4443 67.26C46.5964 67.5158 46.4246 66.8909 46.4136 66.7401C46.3083 65.2956 47.2871 66.1372 47.6952 66.1722C47.7828 66.1793 47.9302 65.7758 48.1089 66.1472C48.1553 66.2439 48.2782 66.6116 48.298 66.6229C48.358 66.3613 48.4171 66.1 48.4772 65.8383C48.931 66.3247 49.0559 65.7615 49.2976 65.5859C49.9519 65.1101 50.5828 64.5847 51.3312 64.4397C51.476 64.4122 51.5625 64.0789 51.7569 64.2128C51.8377 64.2682 52.0534 64.8527 51.9848 64.3871C52.0374 64.5464 52.0899 64.7057 52.1424 64.865C52.1451 64.6513 52.0684 64.275 52.1299 64.2142C52.1818 64.1637 52.3369 64.0871 52.4109 64.1305C52.4489 64.1519 52.5352 64.4534 52.5609 64.4434C52.6041 64.424 52.5666 63.9807 52.6289 63.9604C52.6853 63.9421 52.8916 64.2547 52.9186 64.191C53.0161 63.9642 53.022 63.3996 53.2316 63.4824C53.2899 63.5061 53.474 63.8735 53.4849 63.8581C53.5058 63.8265 53.3922 63.4483 53.3955 63.3939C53.4123 63.1188 53.7063 63.5165 53.8055 63.5038C54.1303 63.4621 54.4012 63.1929 54.7267 63.1633C54.9343 63.1436 55.2308 62.9741 55.5009 63.1984C55.5589 63.2469 55.6826 63.6615 55.7147 63.651C55.7502 63.6394 55.679 63.3553 55.6882 63.3275C55.752 63.1328 55.9161 62.7688 56.1162 63.0176C56.1548 63.0654 56.2749 63.3826 56.287 63.3774C56.2933 63.3753 56.2359 63.1508 56.2484 63.1219C56.3587 62.8659 56.525 62.9535 56.7217 62.9728C57.0934 63.0095 57.3407 62.4764 57.7549 62.5861C57.8448 62.61 58.1051 63.23 58.1134 63.2202C58.1324 63.1998 58.0073 62.7664 58.0195 62.6453C58.0604 62.2469 58.4203 62.6354 58.4971 62.3726C58.5345 62.2432 58.4583 61.6661 58.4907 61.5222C58.5168 61.4072 58.7213 61.5765 58.6683 61.3295C58.6366 61.1802 58.4924 60.7144 58.492 60.6503ZM58.914 68.4963C58.6826 67.7518 58.7752 68.403 58.9455 68.7876C58.9839 68.8742 58.9741 68.6895 58.914 68.4963ZM53.4547 68.8485C53.5243 69.06 53.594 69.2715 53.6637 69.483C53.6492 69.3903 53.6347 69.2975 53.6202 69.2048C53.571 69.0801 53.5218 68.9553 53.4726 68.8306C53.4666 68.8366 53.4606 68.8425 53.4547 68.8485ZM39.8592 55.973C39.8989 56.0128 39.6327 55.8914 39.6103 55.9002C39.5143 55.935 39.3231 55.8632 39.1888 55.8699C38.9891 55.8798 39.1792 56.3355 37.3924 55.3778C37.3923 55.3778 37.3923 55.3777 37.3922 55.3777C37.3747 55.3683 37.357 55.3588 37.3391 55.3491C36.9993 55.1654 36.6409 54.9416 36.2581 54.7311C35.8751 54.5206 33.3885 53.188 33.2685 53.0764C33.113 52.9242 33.8171 53.1427 33.8037 53.1003C33.7945 53.0709 33.5817 52.9253 33.5548 52.8794C33.4683 52.7313 33.6548 52.7809 33.0818 52.3768C33.4192 52.5248 33.7565 52.6733 34.0935 52.8223C33.9645 52.7035 34.4194 52.881 34.4082 52.8461C34.399 52.8173 34.1506 52.6666 34.1493 52.6411C34.1463 52.6116 34.4387 52.7304 34.4186 52.6692C34.387 52.5696 33.7308 52.1911 33.6679 52.1064C33.6028 52.0185 33.9964 52.1577 33.7915 51.9781C33.7222 51.9312 33.653 51.8843 33.5837 51.8375C33.4167 51.7501 33.2496 51.6628 33.0826 51.5755C33.0202 51.5074 33.3634 51.6848 33.3824 51.665C33.405 51.6419 33.0938 51.4484 33.1058 51.4304C33.1159 51.4158 33.3837 51.5385 33.3788 51.5097C33.373 51.4683 32.9999 51.2671 32.9395 51.2126C32.9162 51.1913 32.7773 50.9611 32.7781 50.953C32.7914 50.8954 33.2989 51.1765 33.365 51.1626C33.5466 51.1227 33.2004 50.7832 33.1054 50.5925C33.0624 50.508 33.1186 50.4776 33.2248 50.4791C34.4726 51.2876 35.5625 51.7099 33.5152 50.6099C33.8301 50.7252 33.3066 50.3775 33.4255 50.3836C33.5028 50.388 33.7938 50.5283 33.8111 50.4815C33.8394 50.3985 33.0978 49.8522 34.5412 50.6626C34.3413 50.4259 34.9044 50.6523 33.6621 49.8823C33.5987 49.8139 34.3841 50.195 34.5009 50.2295C34.611 50.2617 35.0584 50.2765 35.0956 50.2567C35.1326 50.2373 35.1845 50.1964 35.0894 50.1055C34.9718 49.9929 33.6828 49.1959 35.2394 50.0443C35.1554 49.9052 35.213 49.9076 35.4259 49.9525C35.4644 49.9606 35.6909 50.0943 35.6949 50.088C35.7028 50.0749 35.5494 49.9527 35.5435 49.9163C35.534 49.8567 36.0221 50.1188 35.2944 49.6886C35.1885 49.5896 35.0827 49.4906 34.9768 49.3916C35.1222 49.4664 35.2675 49.5414 35.4128 49.6163C35.2687 49.5109 35.1247 49.4054 34.9807 49.2998C36.0191 49.9467 35.4589 49.4776 34.8388 49.1467C35.0859 49.2271 35.3326 49.308 35.579 49.3896C36.7644 50.116 35.7816 49.3647 35.1299 48.9816C35.1344 48.9764 35.1389 48.9711 35.1433 48.9659C35.49 49.1069 35.2598 48.9036 35.5089 48.9715C35.7579 49.0395 35.8699 49.1158 36.427 49.4304C36.4044 49.3972 36.3818 49.364 36.3592 49.3307C34.9088 48.3421 37.4898 49.9393 36.4204 49.1106C37.3849 49.6454 36.9531 49.2427 36.7096 49.001C36.6813 48.973 36.4993 48.8606 36.4495 48.8158C36.3301 48.7073 36.6034 48.7878 36.0151 48.4276C36.1986 48.5103 36.3821 48.5931 36.5654 48.6761C36.4698 48.5922 36.3743 48.5083 36.2787 48.4243C36.0955 48.3111 35.9124 48.1979 35.7292 48.0847C36.3756 48.4347 36.1723 48.2274 36.3391 48.2915C36.3728 48.3045 36.626 48.4599 36.7058 48.485C36.8002 48.5152 36.7493 48.4306 36.8432 48.4553C36.5696 48.2721 36.2961 48.0889 36.0225 47.9057C35.8982 47.7677 36.645 48.2114 36.7181 48.2217C36.7309 48.2233 36.7297 48.1073 36.7167 48.0931C36.6148 47.9788 35.9804 47.5977 36.1826 47.5732C36.2189 47.5692 36.4457 47.6894 36.4652 47.6776C36.5001 47.6568 36.0653 47.2572 35.6151 46.965C36.2073 47.2847 36.0359 47.0413 36.2182 47.116C36.2742 47.139 36.6378 47.3643 36.7319 47.3856C36.8086 47.4031 36.5541 47.1643 36.6201 47.1671C36.6914 47.1709 37.0021 47.3519 37.0318 47.3523C37.0596 47.3525 36.8213 47.1866 36.8333 47.1707C36.8749 47.1236 37.2996 47.3253 37.3327 47.289C37.3808 47.2379 36.6891 46.7248 36.3982 46.4712C36.4532 46.4884 36.6169 46.5744 36.6265 46.5623C36.751 46.4155 36.9989 46.3194 37.2557 46.2571C37.3735 46.2287 38.4761 46.6658 36.7997 45.6776C36.5282 45.4695 37.3092 45.7011 37.341 45.6727C37.373 45.6437 37.0945 45.4315 37.1081 45.4002C37.1484 45.3075 37.3985 45.3816 37.2038 45.1202C37.1527 45.0522 36.8195 44.8058 36.8329 44.7933C36.8499 44.7788 37.2014 44.9704 37.2382 44.9594C37.3232 44.9315 37.2777 44.7557 37.3697 44.7384C37.3873 44.7357 37.6877 44.917 37.7897 44.9606C38.1878 45.1316 38.1957 45.0481 37.235 44.4716C37.8205 44.7338 37.3665 44.3644 37.375 44.2823C37.3962 44.1089 37.7677 43.999 37.4317 43.6422C37.2189 43.4186 36.7843 43.1665 37.2178 43.2841C37.3139 43.3102 37.4399 43.3516 37.5554 43.3811C37.8265 43.4516 38.6685 43.8492 37.7237 43.2477C38.0163 43.3199 37.8687 43.1624 38.7348 43.573C38.5377 43.4554 38.3404 43.3381 38.143 43.221C38.1427 43.2096 38.1425 43.1983 38.1422 43.1871C38.3354 43.2899 38.5286 43.3926 38.7219 43.4953C38.8084 43.4603 38.0614 42.9508 38.0924 42.9064C38.1456 42.829 38.5627 42.7805 38.8655 42.8313C39.0269 42.8575 38.6042 42.6551 39.4858 43.0444C39.4298 43.0061 39.3737 42.968 39.3174 42.9302C39.1292 42.8347 38.9408 42.7396 38.7522 42.6449C38.7665 42.5946 39.0927 42.6685 39.11 42.6206C39.143 42.5289 38.6486 42.2034 39.0286 42.2739C39.1249 42.2908 39.5425 42.415 39.5445 42.3945C39.5476 42.3651 38.8662 42.1267 38.8613 42.0985C38.8523 42.057 39.6808 42.2104 39.6297 42.1479C39.6145 42.1317 39.3538 42.0666 39.3272 42.0543C39.2123 42.0042 39.2373 41.9876 38.8285 41.9156C39.5125 42.0193 40.3984 42.1325 41.2938 42.2337C41.9692 42.3148 43.5438 42.4163 44.1385 42.4535C44.556 42.4836 45.0871 42.5806 45.5469 42.6117C45.8899 42.8639 45.4712 42.921 44.8082 42.9553C44.7875 43.2256 44.7522 43.4804 44.7085 43.7236C44.461 43.6744 44.214 43.623 43.9676 43.5697C43.967 43.5696 43.9665 43.5694 43.966 43.5692C43.665 43.5627 44.2727 43.7875 44.3975 43.8795C45.5887 44.7943 44.2067 45.2102 43.8924 45.4675C43.8243 45.53 43.9907 45.9455 43.6031 45.8039C43.502 45.7676 43.1577 45.5894 43.1354 45.5953C43.2723 45.8288 43.4071 46.0631 43.5397 46.2987C42.8722 46.2593 43.1618 46.7513 43.0967 47.0427C42.9237 47.8258 42.7979 48.5991 42.3427 49.1479C42.2526 49.2559 42.4093 49.5518 42.1791 49.5656C42.0839 49.5709 41.5443 49.2595 41.8985 49.5676C41.7562 49.4787 41.614 49.3898 41.4718 49.3009C41.6097 49.4617 41.9111 49.6992 41.9063 49.7795C41.9019 49.8466 41.8386 49.9937 41.7559 50.0046C41.7144 50.0103 41.4547 49.8346 41.4427 49.8566C41.4241 49.8955 41.7418 50.2041 41.7101 50.2545C41.6814 50.3001 41.3271 50.1854 41.349 50.2488C41.4257 50.4756 41.7954 50.8933 41.5891 50.9529C41.5314 50.9686 41.1564 50.8019 41.1589 50.8193C41.165 50.8542 41.4958 51.0698 41.5295 51.1117C41.6997 51.3234 41.2269 51.1952 41.1637 51.2618C40.9593 51.476 40.9435 51.8302 40.7346 52.0333C40.601 52.1645 40.5051 52.457 40.1649 52.4467C40.0913 52.4446 39.7256 52.2136 39.7099 52.2398C39.6925 52.2689 39.9336 52.4349 39.9457 52.4606C40.0297 52.642 40.1641 52.9932 39.8546 52.9298C39.7953 52.9173 39.4966 52.7569 39.4916 52.7676C39.4886 52.7728 39.6807 52.9021 39.6916 52.9302C39.7869 53.18 39.6124 53.2107 39.4628 53.3095C39.176 53.5023 39.3737 54.0204 39.0119 54.1859C38.9337 54.221 38.3269 53.9325 38.3278 53.9445C38.3289 53.9701 38.7144 54.2042 38.7898 54.2971C39.0374 54.6029 38.5202 54.5416 38.6515 54.7705C38.7157 54.8841 39.1709 55.2433 39.2496 55.3627C39.3125 55.4581 39.0549 55.4606 39.2636 55.6025C39.3897 55.6882 39.8139 55.9286 39.8592 55.973ZM34.163 50.6247C34.8322 51.0246 34.3259 50.6062 33.9436 50.4314C33.8573 50.3924 33.9892 50.521 34.163 50.6247ZM37.9161 47.0767C37.7273 46.9586 37.5385 46.8405 37.3498 46.7225C37.4209 46.7834 37.492 46.8443 37.5631 46.9053C37.6803 46.9703 37.7976 47.0353 37.9148 47.1003C37.9152 47.0924 37.9157 47.0845 37.9161 47.0767ZM42.5618 65.8106C42.6013 65.7412 42.7695 65.9938 42.8403 65.9872C43.1377 65.9627 43.3018 66.1224 43.5872 66.1513C44.0106 66.1944 44.9947 65.475 45.6156 67.405C45.6157 67.405 45.6157 67.4051 45.6157 67.4051C45.6218 67.424 45.6278 67.4432 45.6338 67.4626C45.7483 67.8316 45.7838 68.2631 45.9037 68.6834C46.0236 69.1039 46.8981 71.7861 46.8134 71.98C46.6841 72.2411 45.9986 71.7017 45.9053 71.7654C45.8415 71.8091 45.8331 72.0811 45.7569 72.1535C45.5109 72.3866 45.3015 72.2569 45.2525 73.0043C45.0355 72.6883 44.8183 72.3725 44.6014 72.0565C44.5166 72.2625 44.1615 71.8679 44.0867 71.9199C44.0253 71.9626 44.074 72.2518 44.0071 72.2874C43.9327 72.3289 43.7147 72.0697 43.584 72.1611C43.3694 72.3096 43.5581 73.0444 43.4448 73.1816C43.3272 73.3238 42.9729 73.005 42.8645 73.3194C42.8662 73.4064 42.8678 73.4933 42.8695 73.5803C42.9439 73.7543 43.0183 73.9283 43.0927 74.1023C43.0241 74.2163 42.8656 73.8616 42.7761 73.8829C42.6707 73.9078 42.7297 74.2732 42.6601 74.2937C42.603 74.3102 42.4369 74.0551 42.3692 74.096C42.27 74.1542 42.4224 74.5505 42.389 74.6444C42.3751 74.6812 42.0199 75.0401 41.9971 75.0509C41.8197 75.1251 41.6275 74.5775 41.4669 74.5754C41.0218 74.5722 40.7477 75.1514 40.4296 75.4386C40.2859 75.5675 40.1011 75.5909 39.9067 75.5553C39.7187 74.0571 38.7899 73.1399 39.7099 75.2853C39.4249 75.029 39.4855 75.6678 39.2761 75.623C39.1411 75.5933 38.9649 75.3113 38.8054 75.3707C38.5237 75.4779 38.486 76.4504 37.9025 74.8991C37.6512 75.2847 37.1814 74.8036 37.4992 76.2354C37.4381 76.3484 36.9516 75.5894 36.8185 75.5074C36.693 75.4303 35.8661 75.279 35.7427 75.2948C35.62 75.3105 35.4109 75.3512 35.3527 75.5039C35.2784 75.6935 35.6438 77.167 34.8941 75.5455C34.6821 75.7623 34.5796 75.7413 34.2808 75.6193C34.2264 75.5973 34.1429 75.3478 34.1176 75.3555C34.0657 75.3718 34.0355 75.5849 33.9504 75.6364C33.8105 75.7208 33.5598 75.2194 33.8288 76.0209C33.7715 76.1873 33.7162 76.3531 33.6583 76.5196C33.5742 76.375 33.4901 76.2303 33.4061 76.0856C33.4052 76.2722 33.4044 76.4587 33.4037 76.6451C33.102 75.4579 32.9413 76.2641 33.2721 76.8962C33.0034 76.7149 32.7384 76.5323 32.466 76.352C32.0797 75.0163 31.9931 76.3309 32.2554 77.0409C32.2331 77.0467 32.2108 77.0524 32.1885 77.0582C31.891 76.7636 31.7922 77.1106 31.4844 76.9461C31.1758 76.7819 31.1587 76.6454 30.8992 76.0563C30.8562 76.1079 30.8083 76.161 30.7631 76.2132C30.983 77.9798 30.1458 75.0619 30.0406 76.5008C29.5512 75.4985 29.3418 76.1677 29.1677 76.5698C29.1483 76.6163 29.21 76.8211 29.1883 76.8966C29.1338 77.0789 28.804 76.8917 29.0129 77.5491C28.8712 77.3836 28.7199 77.2208 28.574 77.0564C28.5376 77.1984 28.5018 77.3402 28.4664 77.4819C28.5289 77.6879 28.5914 77.894 28.6539 78.1001C28.2994 77.4404 28.1535 77.7787 27.9878 77.6452C27.9551 77.6178 27.8648 77.3348 27.7721 77.2779C27.6627 77.2103 27.541 77.3383 27.4178 77.2781C27.4727 77.605 27.5277 77.932 27.5827 78.2589C27.4563 78.4825 27.1501 77.6673 27.031 77.6321C27.0146 77.6248 26.6872 77.7859 26.6757 77.8085C26.5646 77.9939 26.8318 78.6873 26.3395 78.6645C26.2541 78.6592 26.1222 78.4306 26.052 78.44C25.9202 78.4586 25.7041 79.1226 25.8178 79.6476C25.4748 79.0465 25.134 79.4235 24.9564 79.269C24.9016 79.2217 24.7971 78.8071 24.6452 78.7522C24.5284 78.7059 24.3577 79.1015 24.1998 79.0783C24.0458 79.0493 23.8831 78.7157 23.8093 78.7042C23.7465 78.6917 23.6883 79.0001 23.4983 79.0211C23.4817 79.0228 23.4645 79.024 23.4465 79.0249L18.5598 78.7467L20.8155 75.3477C20.938 75.1593 21.4245 75.1632 21.5077 75.0067C21.6306 74.7784 20.9561 74.2003 20.7129 73.8297C20.7873 73.8042 20.9759 73.8384 21.0026 73.7879C21.3422 73.1593 21.8428 72.5338 22.3328 72.0037C22.5596 71.7547 23.9632 71.6123 22.1528 70.8706C21.9081 70.6057 22.9867 70.2709 23.073 70.1414C23.1578 70.0127 22.9121 69.7373 22.9669 69.6288C23.1333 69.3004 23.4764 69.2033 23.4323 68.6662C23.4205 68.5263 23.1215 68.2163 23.1594 68.1597C23.2057 68.0922 23.5961 68.2144 23.6707 68.1353C23.8465 67.9435 23.9648 67.4749 24.1461 67.2999C24.1799 67.2685 24.4913 67.4309 24.6178 67.4313C25.1105 67.4356 25.2153 67.1819 24.2229 66.6598C24.9306 66.7082 24.5744 66.1678 24.6905 65.8994C24.9375 65.3335 25.7276 64.5094 25.5923 63.8144C25.5067 63.3761 25.0714 63.125 25.6941 62.9249C25.8323 62.8803 25.9992 62.8531 26.1654 62.7979C26.5561 62.6684 27.4982 62.8998 26.6568 62.1258C27.0818 61.978 27.0432 61.6398 27.996 61.9084C27.814 61.7655 27.6319 61.6227 27.4498 61.48C27.4664 61.4409 27.483 61.4018 27.4994 61.3629C27.6943 61.4632 27.8892 61.5635 28.0841 61.6638C28.2878 61.4356 27.7086 60.6485 27.843 60.4341C28.0684 60.073 28.9247 59.3074 29.3823 59.1095C29.6256 59.0042 29.2266 58.7579 30.1202 59.1382C30.0864 59.0631 30.0527 58.988 30.0189 58.9129C29.8518 58.7808 29.6847 58.6486 29.5175 58.5166C29.648 58.2761 30.0943 58.1604 30.2221 57.9331C30.4548 57.5184 30.3055 56.6136 30.8712 56.3907C31.0137 56.335 31.4655 56.4205 31.5188 56.3165C31.5969 56.1653 30.9888 55.7742 31.0827 55.5805C31.2454 55.2484 32.3138 55.0561 32.4272 54.7182C32.4612 54.6184 32.2495 54.4462 32.259 54.3695C32.2964 54.0467 32.4335 53.8419 32.206 53.3917C32.9608 53.4515 33.7335 53.8992 34.5721 54.2427C35.205 54.502 36.7005 55.0486 37.2409 55.3009C37.6204 55.4786 38.0539 55.809 38.4749 55.9985C38.6158 56.5131 38.1808 56.4657 37.4624 56.4301C37.2093 56.948 36.9529 57.4647 36.6943 57.9796C36.4494 57.9024 36.2046 57.8249 35.9599 57.7473C35.9594 57.7471 35.9589 57.7468 35.9584 57.7465C35.598 57.7959 36.1166 58.1944 36.1861 58.3703C36.8524 60.0587 34.7737 61.4522 34.0081 62.4387C33.8434 62.653 33.6929 63.5754 33.2479 63.5255C33.1322 63.5123 32.7918 63.3264 32.7516 63.3612C32.7203 63.8672 32.6895 64.3715 32.6574 64.8776C31.6669 65.3672 31.607 66.4419 31.2134 67.2891C30.1505 69.5801 29.1655 71.8612 27.9332 73.9298C27.6946 74.329 27.6759 74.9805 27.3011 75.2946C27.146 75.4244 26.5572 75.2073 26.8561 75.641C26.7057 75.5668 26.5552 75.4927 26.4047 75.4186C26.4856 75.7052 26.7667 75.9944 26.6927 76.229C26.6302 76.4239 26.4201 76.91 26.2878 77.0399C26.2199 77.1076 25.9514 76.9424 25.9166 77.0194C25.8625 77.1436 26.0731 77.5411 26.0524 77.7423L22.8707 73.2954C22.8291 73.2932 22.8041 73.2932 22.7878 73.2955C22.6642 73.3199 23.1128 73.5928 23.1967 73.515C23.6083 73.2195 24.009 72.551 24.5783 72.5366C24.738 72.5329 25.0447 72.867 25.0851 72.8434C25.1679 72.7946 25.0846 72.4077 25.1316 72.3411C25.3741 72.0031 25.9906 72.3095 26.2974 72.2371C27.3122 71.997 28.3253 71.5073 29.3421 71.2698C29.9782 71.1215 31.013 70.7274 31.6797 70.8302C31.8254 70.852 31.9205 71.2753 32.0273 71.242C32.1433 71.2056 32.1185 70.9073 32.1658 70.8678C32.4944 70.5919 33.2381 70.0492 33.6883 70.2205C33.7728 70.2541 33.9235 70.5619 33.9636 70.548C33.9841 70.5416 33.9609 70.3064 34.0183 70.2636C34.5291 69.8834 34.981 69.8823 35.5686 69.7797C36.6859 69.584 37.7961 68.7802 38.9924 68.6434C39.2534 68.6133 39.6262 69.198 39.658 69.1807C39.7294 69.1438 39.6407 68.6989 39.7599 68.544C40.159 68.0325 40.9903 68.2718 41.4074 67.9011C41.6124 67.7186 41.7669 67.0683 41.9642 66.8721C42.1219 66.7153 42.6338 66.7869 42.6407 66.5208C42.6451 66.36 42.5197 65.8882 42.5618 65.8106ZM38.5193 75.0667C38.3171 74.313 38.161 75.0421 38.4194 75.3991C38.4775 75.4796 38.5717 75.2623 38.5193 75.0667ZM22.6421 73.5649C22.4422 73.4667 22.2423 73.3685 22.0424 73.2703C22.102 73.3574 22.1618 73.4441 22.2218 73.5307C22.3538 73.5662 22.4858 73.6019 22.6178 73.6378C22.6259 73.6135 22.6339 73.5892 22.6421 73.5649ZM49.3777 66.0075C49.4344 65.994 49.2147 66.1885 49.2171 66.2184C49.2249 66.3456 49.0834 66.4956 49.0467 66.6418C48.992 66.8587 49.554 66.9863 47.9031 68.1632C47.9031 68.1632 47.903 68.1633 47.903 68.1633C47.8868 68.1748 47.8704 68.1865 47.8538 68.1982C47.5384 68.4212 47.1738 68.6362 46.8149 68.8853C46.4559 69.1346 44.1611 70.7755 44.0018 70.8252C43.7878 70.8852 44.272 70.3181 44.2225 70.304C44.1886 70.2945 43.9601 70.4158 43.9027 70.4136C43.7174 70.4066 43.8357 70.2495 43.2092 70.5708C43.4845 70.3244 43.7597 70.0781 44.035 69.8317C43.8654 69.8872 44.2129 69.5404 44.1724 69.5296C44.1391 69.5207 43.8937 69.6765 43.8666 69.6618C43.8349 69.6463 44.0625 69.4256 43.9913 69.407C43.8757 69.3758 43.2495 69.802 43.1389 69.8126C43.0245 69.8235 43.3077 69.5117 43.048 69.6066C42.9749 69.6474 42.9017 69.6883 42.8285 69.7291C42.6789 69.8439 42.5293 69.9586 42.3797 70.0734C42.2868 70.0941 42.592 69.8571 42.578 69.8253C42.5616 69.7878 42.2517 69.9837 42.2374 69.9608C42.226 69.9419 42.4477 69.7471 42.4161 69.7345C42.3713 69.7153 42.0315 69.9687 41.9539 69.9965C41.9236 70.0071 41.6371 70.0081 41.6289 70.0025C41.5741 69.9544 42.0429 69.6126 42.0514 69.5371C42.0729 69.3289 41.5976 69.4698 41.3691 69.4543C41.2669 69.4475 41.2551 69.3729 41.2931 69.2664C42.5612 68.4875 43.3713 67.6332 41.5284 69.0504C41.7558 68.8 41.2155 69.1225 41.2622 69.0054C41.2929 68.9293 41.5375 68.7175 41.4941 68.6711C41.4154 68.59 40.5988 69.0219 41.9278 68.035C41.6141 68.0976 42.037 67.6566 40.8198 68.4661C40.7275 68.4904 41.3858 67.9146 41.46 67.8151C41.5299 67.7213 41.69 67.2689 41.6817 67.2195C41.6734 67.1701 41.6471 67.0921 41.5207 67.1356C41.3639 67.1888 40.1107 68.0412 41.5041 66.9438C41.33 66.9467 41.3509 66.8886 41.4653 66.6944C41.4859 66.6593 41.699 66.5051 41.6936 66.497C41.682 66.4808 41.5039 66.5659 41.4639 66.5506C41.3982 66.5253 41.8294 66.1768 41.1449 66.6728C41.0071 66.7235 40.8692 66.7743 40.7313 66.8251C40.8563 66.7193 40.9813 66.6136 41.1062 66.5078C40.9495 66.5942 40.7927 66.6805 40.6359 66.7669C41.646 66.0766 40.9737 66.3771 40.4296 66.823C40.5922 66.615 40.7547 66.407 40.9172 66.1991C42.0553 65.4006 40.9522 65.9718 40.3453 66.4226C40.3412 66.415 40.3371 66.4074 40.333 66.3997C40.5903 66.1241 40.3041 66.2433 40.4529 66.0248C40.6017 65.8062 40.717 65.7347 41.2215 65.3408C41.1792 65.3445 41.1368 65.3482 41.0945 65.3519C39.6014 66.2774 42.0845 64.5319 40.8771 65.1548C41.7383 64.4649 41.1785 64.6766 40.8478 64.7882C40.8094 64.8011 40.6351 64.9251 40.5723 64.9506C40.4209 65.0115 40.5881 64.7723 40.0283 65.1754C40.1712 65.032 40.314 64.8886 40.4569 64.7452C40.3387 64.7955 40.2205 64.8458 40.1023 64.8961C39.9271 65.0212 39.7518 65.1463 39.5766 65.2714C40.1418 64.8 39.8614 64.8925 39.9792 64.7555C40.0032 64.7278 40.244 64.5539 40.2944 64.4851C40.3546 64.4039 40.2493 64.4075 40.3033 64.3234C40.0269 64.5026 39.7506 64.6818 39.4743 64.861C39.2903 64.9105 39.984 64.3873 40.0163 64.3163C40.0217 64.3038 39.8964 64.2355 39.8773 64.2407C39.7248 64.2799 39.1316 64.7224 39.1656 64.4972C39.1721 64.4568 39.3669 64.289 39.36 64.2615C39.348 64.2129 38.7938 64.4357 38.3505 64.7382C38.8646 64.3024 38.5534 64.3388 38.6856 64.1899C38.7264 64.1444 39.0729 63.8936 39.1231 63.8072C39.1641 63.7368 38.8352 63.8655 38.8572 63.7976C38.8819 63.7247 39.1652 63.5031 39.1741 63.4719C39.1823 63.4427 38.9359 63.5967 38.9222 63.5746C38.8834 63.5027 39.2209 63.1719 39.1907 63.1147C39.1479 63.0313 38.401 63.4632 38.0455 63.6213C38.0797 63.5733 38.2188 63.4509 38.2084 63.4335C38.0855 63.2145 38.0508 62.8933 38.0552 62.5826C38.0565 62.4389 38.8379 61.5268 37.2988 62.7187C36.998 62.8835 37.466 62.1891 37.4432 62.1367C37.4203 62.0844 37.1106 62.2508 37.0809 62.218C36.9916 62.1189 37.1421 61.8971 36.8012 61.942C36.7123 61.9542 36.35 62.1577 36.3395 62.1348C36.3278 62.1067 36.6346 61.8487 36.633 61.8026C36.6264 61.6946 36.4201 61.6316 36.4253 61.5198C36.427 61.4989 36.7094 61.2906 36.7854 61.2082C37.0823 60.8865 36.9938 60.8264 36.0919 61.4912C36.5432 61.0285 36.0091 61.2789 35.9185 61.2129C35.7289 61.0719 35.704 60.5866 35.207 60.7003C34.8935 60.7721 34.4862 61.0664 34.7337 60.6666C34.7886 60.5779 34.8709 60.4699 34.9358 60.3635C35.0891 60.1133 35.7838 59.4888 34.8222 60.0668C34.9844 59.7946 34.758 59.8314 35.482 59.1991C35.2887 59.3232 35.0954 59.4473 34.9022 59.5714C34.8885 59.562 34.8748 59.5526 34.8611 59.5431C35.0364 59.4121 35.2118 59.2812 35.3871 59.1502C35.3701 59.0248 34.5553 59.4312 34.5057 59.3502C34.4217 59.215 34.4687 58.679 34.6217 58.3849C34.7029 58.2288 34.3188 58.4973 35.0767 57.9008C35.0117 57.9252 34.9467 57.9495 34.8818 57.9738C34.7035 58.0871 34.5253 58.2005 34.347 58.3138C34.2806 58.2351 34.4767 57.9458 34.4173 57.8682C34.3084 57.7271 33.6804 57.8462 33.887 57.4793C33.9393 57.3869 34.261 57.0888 34.2315 57.0559C34.1889 57.0077 33.592 57.4141 33.5339 57.3559C33.4349 57.2548 33.9667 56.5559 33.8378 56.4856C33.7998 56.4644 33.5705 56.6054 33.5314 56.6C33.3651 56.5789 33.3288 56.4902 32.9276 56.6424C33.4229 56.1456 34.1559 55.6356 34.8685 55.083C35.4063 54.6659 36.6406 53.6825 37.1186 53.3271C37.4545 53.0774 37.911 52.7905 38.2792 52.5136C38.6601 52.4142 38.3645 52.6972 37.903 53.166C38.0461 53.3222 38.1891 53.4784 38.3322 53.6345C38.1385 53.796 37.9449 53.9575 37.7513 54.1191C37.7509 54.1194 37.7504 54.1197 37.75 54.12C37.5606 54.3542 38.1076 54.0062 38.2526 53.9563C39.6404 53.4789 39.2198 54.7863 39.357 55.252C39.3869 55.3521 39.8495 55.4174 39.5564 55.7096C39.48 55.7857 39.1672 56.0147 39.1643 56.0397C39.4489 56.0418 39.7336 56.044 40.0182 56.0461C39.727 56.6753 40.3381 56.6756 40.6145 56.9035C41.3626 57.5198 42.1493 58.097 42.6082 58.9006C42.6964 59.0563 43.064 59.0716 43.0126 59.3221C42.9916 59.4264 42.5022 59.8124 42.9355 59.6209C42.7995 59.7191 42.6635 59.8172 42.5275 59.9154C42.7408 59.8657 43.0824 59.6876 43.1683 59.7412C43.2401 59.7866 43.3812 59.9417 43.3694 60.0355C43.3642 60.0835 43.1012 60.2545 43.122 60.2809C43.1595 60.3249 43.5838 60.1735 43.6299 60.2382C43.6716 60.2968 43.4481 60.6052 43.5228 60.6199C43.7896 60.6744 44.3513 60.5405 44.3578 60.7966C44.3588 60.8679 44.0717 61.1652 44.0916 61.1736C44.1316 61.1891 44.4593 60.9687 44.5146 60.9589C44.7945 60.9097 44.5233 61.3374 44.5778 61.4459C44.7553 61.7995 45.136 62.0368 45.303 62.396C45.4087 62.6227 45.7025 62.9153 45.5925 63.2725C45.5687 63.3496 45.209 63.59 45.2329 63.6235C45.2594 63.6606 45.5117 63.5111 45.5433 63.5148C45.7635 63.5389 46.193 63.6326 46.0306 63.9193C45.9993 63.9742 45.7346 64.1865 45.7448 64.1987C45.7495 64.2053 45.9483 64.0858 45.9822 64.0927C46.2819 64.1526 46.2664 64.3632 46.3285 64.587C46.449 65.0146 47.0805 65.1594 47.1459 65.6522C47.1602 65.7595 46.6525 66.202 46.6658 66.2091C46.694 66.2253 47.072 65.979 47.1974 65.963C47.6109 65.9125 47.3747 66.4098 47.6685 66.4327C47.8134 66.4441 48.3539 66.2165 48.5104 66.2179C48.6355 66.2189 48.5534 66.4905 48.7769 66.3711C48.912 66.2992 49.3143 66.0236 49.3777 66.0075ZM41.7615 68.398C42.4039 67.9562 41.7966 68.2203 41.4858 68.5052C41.4158 68.5693 41.5948 68.5127 41.7615 68.398ZM39.126 62.369C38.9454 62.4993 38.7648 62.6296 38.5843 62.7598C38.6702 62.7208 38.7561 62.6817 38.842 62.6426C38.9451 62.5566 39.0482 62.4707 39.1514 62.3847C39.1429 62.3795 39.1344 62.3743 39.126 62.369Z" fill="black"/>
<path d="M46.8809 155.53C47.2891 156.219 47.4081 157.444 47.7431 158.328C49.1184 162.091 49.2531 163.6 49.8992 167.089C51.0401 172.574 52.2862 186.281 49.9218 186.464C49.9217 186.464 49.9217 186.464 49.9216 186.464C49.8955 186.468 49.8689 186.472 49.8417 186.474C49.324 186.523 48.5866 185.467 47.9882 185.371C47.3906 185.279 43.668 185.95 43.2424 184.183C42.6534 181.59 43.1626 175.665 42.9297 174.424C42.7967 173.56 42.316 172.544 42.0794 171.483C41.2924 168.072 41.0628 166.212 39.1838 163.631C39.2326 162.319 39.2197 160.995 39.1301 159.636C38.2512 158.236 37.6077 155.754 37.0268 154.893C36.5749 154.209 35.9691 153.979 35.4886 153.29C34.9346 152.5 34.412 151.021 33.2664 149.662C31.3565 147.428 30.2322 147.731 28.9713 146.521C27.9937 145.599 26.8751 144.031 25.508 142.723C25.0317 142.266 24.4978 141.777 23.9916 141.379C23.6933 141.229 23.3914 141.072 23.0864 140.908C23.0629 141.251 23.0405 141.594 23.019 141.935C22.0191 141.05 22.0351 140.296 21.2479 139.378C20.3479 138.317 19.5053 138.049 18.926 137.319C18.4572 136.726 18.1027 135.624 17.5113 134.86C16.6309 133.711 16.3421 134.267 15.8142 133.704C15.5703 133.514 12.1471 128.782 12.0233 128.488C10.7347 126.331 11.3246 125.777 10.4589 124.007C8.09467 119.12 5.39684 114.146 3.66541 109.363C2.88745 107.227 2.31184 104.922 1.92837 102.689C4.63058 105.634 4.45843 97.7991 2.04614 101.263C1.9618 98.7214 0.838803 97.1132 0.653317 94.745C0.542078 93.2029 0.838159 92.101 0.643076 89.9301C0.284271 86.0935 -0.915577 81.8072 1.32418 80.7234C1.01888 76.2206 2.2651 72.4027 0.537461 70.572C0.557283 69.3831 2.16434 66.5877 2.56378 65.3573C2.8341 64.099 5.5594 55.1644 6.14472 53.7339C6.60432 52.3097 7.50923 49.7279 7.77867 48.5022C8.11861 46.9553 6.66635 45.0422 9.93052 43.3227C10.3759 42.0505 10.7491 41.1102 11.1327 40.2603C11.7121 38.987 12.2815 37.9792 13.3019 36.3675C13.6129 35.881 13.9533 35.9908 14.1107 35.6988C14.432 35.1026 14.7744 33.9516 15.3856 32.8766C16.3797 31.1298 17.6723 30.5693 16.6018 30.1345C17.1878 28.9157 17.8295 27.6928 18.5069 26.5009C18.9688 26.2566 19.4332 26.0182 19.9027 25.7829C20.1739 25.0693 20.4585 24.3606 20.7568 23.6569C21.3984 25.3462 24.1246 20.9769 22.3291 21.5344C24.4161 19.8344 26.6033 18.2996 28.8679 16.9363C29.6899 18.5613 33.5786 13.7516 32.6766 13.2137C32.931 13.0489 33.1866 12.8861 33.4434 12.7253C35.9398 11.7363 37.8551 10.2045 40.8931 9.14708C43.9306 8.13204 43.7317 8.46574 44.9308 8.8881C45.5944 8.5698 46.2622 8.26187 46.9309 7.96488C49.8405 4.49352 50.3862 8.44307 56.2078 5.08798C58.574 5.99836 63.3649 4.2501 66.6757 3.3475C67.0554 3.24052 67.0215 2.95696 67.5287 2.79774C68.7759 2.40076 72.0695 2.39425 71.8627 1.49744C73.0335 1.63952 74.1723 1.7972 75.3272 1.96415C76.2415 1.71707 77.1398 1.47864 78.0523 1.2457C78.0271 0.959657 78.002 0.673614 77.9768 0.387572C79.9212 1.22459 82.8097 0.694197 84.2522 0.87112C84.5402 0.906719 84.6176 1.29873 85.5112 1.37299C86.5659 1.46054 88.4714 1.28662 89.7212 1.38495C90.1921 0.935991 90.6598 0.488275 91.1339 0.0415633C93.3503 -0.231254 94.1345 0.924738 95.4286 1.00813C95.5135 1.01351 96.13 1.00357 96.8951 0.990733L96.8462 0.991148C98.2508 0.939243 100.072 0.934087 100.22 0.924441C102.109 0.818094 101.688 -0.337473 107.292 0.444191C108.312 0.60324 109.078 1.05504 109.969 1.20869C111.535 1.42557 116.469 1.75026 117.073 1.21585C118.805 2.54047 123.919 3.96633 125.276 4.90598C125.68 5.17238 125.558 5.72803 126.802 6.44965C127.819 7.02336 130.697 8.04069 131.941 8.91213C133.256 9.81716 133.447 10.5346 134.007 10.9522C134.54 11.3546 135.269 11.3921 136.001 11.9354C138.282 13.6395 139.803 15.804 141.38 17.35C143.652 19.5805 146.373 20.9725 148.457 22.8315C148.815 23.4161 149.018 24.0958 149.431 24.669C154.592 31.7677 158.489 40.853 160.661 49.1314C161.843 52.9879 162.094 62.9032 164.156 59.8753C164.977 61.1684 165.109 71.3431 165.028 73.2551C165.091 75.1777 165.562 76.7179 165.547 78.2107L165.215 76.4483C165.215 76.4484 165.216 76.4498 165.217 76.4524C166.903 80.5137 167.747 83.4833 170.102 88.2642C170.716 89.5105 171.77 90.6668 172.065 91.4269C172.421 92.3467 172.315 93.5239 172.75 94.7169C173.795 97.5645 176.006 102.771 176.949 105.553C177.122 106.064 176.742 106.384 176.878 107.167C177.383 110.136 178.533 113.332 179.751 112.286C179.847 113.149 180.032 114.054 180.23 114.894C181.01 117.234 180.518 121.082 178.692 123.162C176.999 125.268 175.194 126.239 173.557 126.948C168.672 128.91 162.704 129.373 156.663 129.375L161.674 124.475C161.688 129.133 161.769 133.636 162.059 136.608C162.455 140.673 163.125 140.57 162.547 146.551C162.419 147.882 162.246 149.207 162.093 150.816C161.955 152.252 161.688 153.684 161.496 154.995C161.489 157.358 159.757 159.362 158.629 160.023C157.526 160.735 156.658 161.002 155.913 161.258C154.424 161.732 153.375 162.041 152.306 162.606C147.356 162.567 143.982 162.463 140.862 160.925C140.457 161.194 140.05 161.461 139.642 161.727C139.112 161.68 138.581 161.63 138.058 161.579C137.926 161.27 137.794 160.961 137.664 160.652C133.933 160.146 129.045 160.617 125.893 160.049C125.76 160.025 125.64 160.003 125.536 159.984C125.477 159.973 125.385 159.956 125.329 159.945C125.299 159.94 125.272 159.934 125.249 159.93C125.196 159.92 125.144 159.91 125.142 159.91L131.054 154.995C131.004 160.647 130.562 173.168 130.185 177.908C129.976 180.538 130.601 180.68 129.316 182.186C129.406 182.774 129.495 183.363 129.584 183.951C129.866 184.319 130.147 184.688 130.428 185.056C130.43 185.662 130.418 186.289 130.396 186.928L130.308 191.354L126.055 191.269C123.139 191.17 119.971 190.876 117.333 190.88C111.475 190.889 102.677 191.663 96.794 191.155C95.3189 191.026 93.4749 190.446 92.0303 190.453C89.9278 190.462 89.4168 191.424 86.7487 191.442C82.1503 191.472 73.5865 190.354 69.2401 190.439C67.9492 190.464 67.3469 190.822 66.4555 190.86C62.7177 191.024 59.649 190.995 56.0649 191.549C52.2166 190.626 52.549 189.436 51.3564 188.234C50.4525 187.328 47.6811 185.227 47.2876 184.432C47.0113 183.875 48.0431 183.157 47.6558 182.543C52.2665 182.052 54.2035 182.592 57.9474 183.456C64.8614 183.422 71.7754 183.387 78.6894 183.353C79.3184 183.688 79.9475 184.023 80.5765 184.358C80.5765 184.359 80.5765 184.36 80.5765 184.361C83.2317 184.748 84.3571 183.884 85.789 183.688C95.5221 182.356 111.946 182.71 126.055 183.103L122.23 186.928C122.391 181.164 122.558 175.786 122.619 171.409C122.664 168.157 122.212 157.577 122.757 155.346C122.79 155.209 122.845 155.096 122.908 154.995L122.835 151.274L126.629 151.901C126.84 152.15 127.048 152.498 127.475 152.59C132.878 153.208 138.313 153.664 143.641 153.77C145.915 154.109 148.223 154.321 150.411 154.29C151.5 154.273 152.574 154.187 153.408 153.999C153.814 153.913 154.161 153.771 154.197 153.741C154.215 153.733 154.112 153.775 153.941 154.004C153.763 154.231 153.609 154.68 153.618 154.995C153.574 148.342 153.321 141.647 153.25 135.059C153.211 131.526 153.172 127.972 153.132 124.475L153.06 120.826L156.854 120.835C160.392 120.814 164.282 120.499 167.606 119.71C169.252 119.32 170.849 118.733 171.704 118.11C172.132 117.809 172.246 117.57 172.209 117.609C172.17 117.653 172.221 117.715 172.113 117.352C167.8 104.938 162.339 92.1684 157.274 79.7145L156.962 78.0583C157.039 72.8395 156.578 67.4874 155.717 62.243C154.84 56.6977 152.607 49.9307 150.821 44.7996C150.08 42.6696 150.476 41.4326 148.619 39.0039C148.807 38.8774 148.993 38.7504 149.18 38.6236C147.77 36.3977 146.532 35.1847 144.963 32.7655C143.7 30.6702 139.768 25.633 138.31 24.0953C137.583 23.2669 138.165 23.2684 137.439 22.5371C136.197 21.264 132.985 19.2032 131.038 17.8363C129.295 16.5301 126.384 14.2332 124.816 13.5468C119.249 10.9705 112.729 9.81509 106.283 8.88536C104.52 8.61398 102.228 7.9331 101.627 7.92655C100.523 7.91014 100.184 8.43129 99.4398 8.48513C98.6989 8.54038 97.8694 8.56862 96.9752 8.58841L96.8951 8.58909C93.1327 8.6023 88.515 8.27775 85.3982 8.38505C72.7916 8.79078 59.514 10.5409 48.2536 14.7925C40.9414 17.1861 30.7156 24.3806 26.2295 29.6994C25.2146 30.796 25.0083 30.137 24.2356 31.1343C23.3831 32.2574 23.264 33.1217 22.9245 33.6713C21.5739 35.8331 19.561 39.598 17.991 43.3238C16.684 46.3623 15.5625 49.2042 14.7367 50.9794C14.381 51.7387 13.7593 52.153 13.5923 52.6466C13.5086 52.8923 13.612 53.5444 13.395 54.3157C11.5255 61.1289 10.2308 66.1045 9.30281 72.9162C7.47649 86.0629 10.0008 101.437 15.2494 114.198C16.3591 116.973 16.5175 119.214 16.7209 119.602C17.1659 120.427 17.965 120.685 19.0122 122.253C22.2064 127.098 26.3605 133.706 30.5662 137.457C30.9203 137.78 31.2627 138.091 31.594 138.39C33.9811 140.515 37.5366 143.33 39.6372 145.846C41.3974 147.778 44.4144 153.271 45.1834 154.212C45.6873 154.747 46.4294 154.773 46.8809 155.53ZM0.984267 87.5791C2.02349 87.9845 0.997502 83.2811 0.497168 85.0768C0.376719 85.491 0.703498 87.484 0.984267 87.5791ZM153.844 35.4447C154.09 35.273 154.336 35.1008 154.581 34.9281C154.191 34.4321 153.796 33.9408 153.394 33.4548C153.402 33.8453 153.405 34.2344 153.406 34.6221C153.554 34.8956 153.7 35.1699 153.844 35.4447Z" fill="black"/>
<path d="M56.5539 30.5888C56.5072 30.486 56.8096 30.3658 56.8361 30.2459C56.953 29.7408 57.1748 29.6017 57.3598 29.1521C57.561 28.5727 57.9009 26.1769 59.8126 26.9979C59.8126 26.9979 59.8127 26.9979 59.8127 26.9979C59.8311 27.0055 59.8496 27.0134 59.8683 27.0215C60.2212 27.1778 60.5547 27.4789 60.956 27.6537C61.3571 27.8286 63.9894 28.8405 64.1033 28.9926C64.244 29.204 63.4301 29.45 63.4346 29.5945C63.4393 29.676 63.6724 29.8156 63.6994 29.9187C63.7879 30.2514 63.5781 30.4069 64.2393 30.7656C63.8623 30.8382 63.4851 30.9324 63.1098 31.0265C63.2671 31.1961 62.7707 31.4213 62.7937 31.5302C62.8125 31.6168 63.1011 31.6776 63.1126 31.7634C63.1272 31.8581 62.8114 32.0037 62.8594 32.1865C62.9377 32.4861 63.6979 32.5231 63.7994 32.6839C63.9047 32.8508 63.5086 33.1523 63.7927 33.3652C63.8779 33.3873 63.9632 33.4081 64.0485 33.4291C64.2346 33.3938 64.4209 33.3592 64.6072 33.3253C64.7032 33.425 64.3225 33.5045 64.325 33.6072C64.328 33.7281 64.6986 33.7513 64.7055 33.8304C64.7108 33.8951 64.4295 34.0182 64.4585 34.103C64.4994 34.2262 64.9163 34.1428 65.0034 34.1974C65.0358 34.22 65.3378 34.6606 65.347 34.6859C65.3974 34.8861 64.8296 35.0045 64.8105 35.1804C64.7616 35.6718 65.3288 36.044 65.6088 36.4008C65.7345 36.5632 65.7549 36.7564 65.721 36.9628C64.2081 37.0929 63.3131 38.1121 65.4521 37.166C65.2013 37.4705 65.8451 37.4187 65.8088 37.6364C65.7856 37.7789 65.5129 37.9733 65.5866 38.1451C65.7226 38.4578 66.6969 38.4074 65.2188 39.1571C65.6419 39.3988 65.26 39.9781 66.6245 39.438C66.7443 39.4782 66.0881 40.0998 66.0411 40.2586C65.9867 40.4041 66.0713 41.3103 66.1362 41.4363C66.1918 41.5615 66.3071 41.7708 66.4769 41.7869C66.6948 41.8176 67.946 40.9643 66.6917 42.2376C66.9846 42.3775 67.0056 42.4817 67.0285 42.821C67.0328 42.8822 66.8403 43.0614 66.8597 43.0835C66.9003 43.1289 67.1124 43.0734 67.2013 43.1331C67.3462 43.2303 67.0237 43.6896 67.6111 43.0816C67.7889 43.06 67.9644 43.0334 68.1374 43.0019C68.0518 43.1455 67.9678 43.2902 67.8853 43.4361C68.0488 43.3451 68.2102 43.2514 68.3694 43.155C67.5047 44.025 68.2962 43.7547 68.647 43.1306C68.6307 43.4487 68.6299 43.7713 68.648 44.0986C67.8008 45.2052 68.9513 44.5077 69.3169 43.8393C69.3345 43.8522 69.3522 43.8651 69.37 43.878C69.3344 44.2949 69.6455 44.1307 69.7349 44.4616C69.8323 44.7948 69.7524 44.9032 69.5397 45.5123C69.6133 45.5078 69.6866 45.5024 69.7595 45.496C70.7592 44.0231 69.5226 46.8052 70.5599 45.7558C70.3667 46.8592 71.0456 46.463 71.4021 46.1999C71.4454 46.1702 71.4947 45.9621 71.5536 45.908C71.6936 45.7787 71.9243 46.1032 72.0379 45.4219C72.0963 45.6354 72.1529 45.8471 72.2214 46.0592C72.3193 45.947 72.4148 45.8333 72.5078 45.7184C72.5336 45.5046 72.5596 45.2909 72.5855 45.0771C72.6441 45.8246 72.9341 45.5678 73.041 45.7497C73.0627 45.7867 73.0485 46.0837 73.1223 46.169C73.2089 46.2703 73.3853 46.1892 73.496 46.2837C73.5459 45.9555 73.5921 45.627 73.6344 45.2982C73.8165 45.1204 73.8968 45.9868 74.0219 46.051C74.0433 46.0637 74.418 45.983 74.4382 45.9615C74.5995 45.8013 74.4857 45.0749 74.974 45.1804C75.064 45.1986 75.1613 45.4441 75.2388 45.4439C75.3774 45.4455 75.6901 44.8044 75.6185 44.2706C75.8964 44.9045 76.2854 44.5408 76.4468 44.6999C76.4986 44.7488 76.6063 45.1632 76.7506 45.2212C76.8687 45.2687 77.0376 44.8698 77.1795 44.8887C77.3315 44.9104 77.4832 45.2399 77.5538 45.2454C77.6215 45.2498 77.5889 44.9566 77.6638 44.935C77.8994 44.8724 78.2671 45.2415 78.4685 45.1799C78.7574 45.0928 78.7264 44.1859 78.7934 43.7492C78.8674 43.7797 78.9893 43.9295 79.0475 43.9077C79.4043 43.7775 79.8065 43.6525 80.2318 43.5252C80.6566 43.3994 81.0706 43.286 81.4519 43.1844C81.82 43.0889 83.2017 43.6088 81.9725 42.0801C81.8861 41.7406 83.0451 41.9097 83.1784 41.8183C83.3207 41.7286 83.2153 41.3705 83.3094 41.2905C83.5904 41.0499 83.9622 41.0674 84.0796 40.5419C84.108 40.4061 83.9001 40.0311 83.9457 39.9921C84.0026 39.9448 84.3487 40.1627 84.4381 40.1053C84.6514 39.9669 84.8334 39.5517 85.0217 39.4161C85.0569 39.3923 85.3447 39.5937 85.4692 39.6105C85.9549 39.6785 86.0871 39.4113 85.1243 38.8358C85.8132 38.9485 85.4561 38.4109 85.5342 38.1825C85.7205 37.7078 86.2786 36.8623 85.8903 36.3183C85.6491 35.984 85.152 35.9431 85.6258 35.5989C85.73 35.5194 85.8667 35.4385 85.9877 35.3297C86.2726 35.0894 87.2006 34.7773 86.0744 34.5877C86.3523 34.2526 86.1249 34.0219 87.0428 33.6456C86.8113 33.642 86.5798 33.6404 86.3484 33.6406C86.3373 33.5998 86.326 33.5591 86.3145 33.5183C86.5292 33.4743 86.7438 33.4295 86.9583 33.384C86.9694 33.048 86.009 32.826 85.9575 32.5795C85.8848 32.1602 85.8671 30.9365 85.9618 30.3957C86.0185 30.11 85.58 30.2781 86.4166 29.779C86.333 29.7523 86.2494 29.7261 86.1658 29.7006C85.9579 29.7506 85.7503 29.8017 85.5431 29.8539C85.4137 29.5735 85.5526 29.094 85.4133 28.8198C85.1592 28.3132 84.2529 27.8731 84.2859 27.2005C84.2948 27.0302 84.569 26.6477 84.4886 26.5307C84.3713 26.3598 83.738 26.7094 83.587 26.5064C83.3354 26.162 83.526 24.9906 83.2082 24.6891C83.1173 24.6019 82.8672 24.7184 82.7912 24.6682C82.4697 24.4603 82.2958 24.2155 81.7601 24.2293C82.0502 23.5079 82.7267 22.9279 83.3174 22.2363C83.7635 21.7145 84.7178 20.4237 85.1193 19.9816C85.403 19.6723 85.8803 19.3952 86.1865 19.0481C86.8395 19.213 86.7109 19.6823 86.5044 20.4386C87.0609 21.0552 87.5868 21.6905 88.0879 22.3477C87.9268 22.5547 87.7645 22.7606 87.6011 22.9653C87.6006 22.9656 87.6002 22.9659 87.5997 22.9662C87.5397 23.3861 88.1454 23.1267 88.3626 23.1858C90.4897 23.7528 91.1376 27.3045 91.5289 29.0977C91.6371 29.4755 92.3341 30.6683 91.9921 31.0438C91.9056 31.1393 91.5326 31.2468 91.533 31.3236C91.9077 31.9258 92.2535 32.5672 92.5575 33.2528C92.1107 34.7487 92.5661 36.2398 92.3305 37.8018C91.7633 42.0316 88.7825 45.7123 85.5069 47.5831C84.8945 47.9482 84.1955 48.6672 83.4869 48.8088C83.2152 48.8658 82.8816 48.4598 82.7045 48.8047C82.6847 48.843 82.6667 48.8906 82.6508 48.9491C82.5765 48.7987 82.5022 48.6483 82.428 48.4978C82.2096 48.8217 82.1678 49.2587 81.8385 49.442C81.5614 49.5984 80.8123 49.9223 80.5047 49.9631C80.3538 49.984 80.2993 49.6704 80.1715 49.7178C79.9556 49.8011 79.623 50.3704 79.3171 50.4634C79.0311 50.5531 78.435 50.3451 78.2323 50.45C77.5172 50.8285 76.6536 51.5482 75.7219 51.5124C75.4508 51.5043 75.0832 51.1287 75.0066 51.1457C74.854 51.1813 74.8346 51.578 74.7307 51.6355C74.2177 51.9295 73.297 51.4649 72.7843 51.4103C71.0256 51.2576 69.0556 50.9569 67.4298 50.0827C66.3979 49.5695 64.7717 48.5175 64.2342 47.5923C64.1151 47.3968 64.4526 47.1194 64.3233 46.9977C64.1812 46.8627 63.9005 46.9952 63.8171 46.9453C63.234 46.6206 62.0711 45.6881 61.9753 45.0149C61.9551 44.8881 62.1858 44.6268 62.147 44.573C62.1279 44.5455 61.8938 44.6136 61.8138 44.5375C61.1106 43.8629 60.8788 43.1857 60.5436 42.342C59.9045 40.7368 58.8466 38.9923 58.6856 37.182C58.6491 36.7859 59.2584 36.3995 59.2418 36.3503C59.2068 36.239 58.7495 36.2503 58.5979 36.0312C58.0929 35.287 58.4441 34.1506 58.1771 33.3946C58.0423 33.0223 57.4536 32.5035 57.3282 32.0989C57.223 31.7866 57.4756 31.0277 57.237 30.8714C57.0908 30.7752 56.607 30.7016 56.5539 30.5888ZM65.3075 38.4672C64.5668 38.7163 65.3266 38.8671 65.6544 38.5621C65.7286 38.4953 65.4997 38.4037 65.3075 38.4672ZM80.5901 44.7269C80.4931 44.5264 80.3962 44.3259 80.2995 44.1253C80.2829 44.2349 80.2659 44.3444 80.2485 44.4539C80.3346 44.5619 80.4213 44.6695 80.5086 44.7769C80.5357 44.7603 80.5629 44.7436 80.5901 44.7269Z" fill="black"/>
<path d="M115.957 41.6774C115.981 41.7349 115.725 41.5881 115.69 41.6069C115.544 41.6839 115.35 41.6027 115.175 41.6391C114.916 41.693 114.844 42.4035 113.252 41.1481C113.252 41.1481 113.252 41.148 113.252 41.148C113.236 41.1357 113.22 41.1232 113.204 41.1105C112.902 40.8697 112.603 40.5684 112.265 40.2919C111.926 40.0154 109.707 38.273 109.628 38.1177C109.529 37.9054 110.254 38.1546 110.264 38.0905C110.27 38.0466 110.098 37.8506 110.093 37.7838C110.076 37.5684 110.274 37.6194 109.816 37.0758C110.139 37.2582 110.463 37.4407 110.787 37.6231C110.699 37.4591 111.15 37.6702 111.157 37.6181C111.162 37.5753 110.948 37.3784 110.961 37.3397C110.975 37.2952 111.262 37.4368 111.274 37.3455C111.295 37.1968 110.715 36.7097 110.687 36.5891C110.659 36.4642 111.06 36.6206 110.914 36.3748C110.857 36.3131 110.799 36.2514 110.742 36.1897C110.588 36.0803 110.435 35.9708 110.281 35.8614C110.244 35.7665 110.561 35.988 110.596 35.955C110.637 35.9162 110.368 35.6671 110.392 35.6386C110.413 35.6154 110.669 35.7643 110.679 35.7214C110.696 35.6599 110.355 35.4075 110.312 35.3337C110.296 35.3048 110.256 34.9781 110.261 34.9657C110.309 34.8773 110.77 35.2297 110.859 35.1989C111.104 35.1119 110.876 34.6444 110.863 34.375C110.857 34.2546 110.942 34.2011 111.071 34.1874C112.148 35.2187 113.251 35.6863 111.354 34.3405C111.675 34.466 111.227 34.0216 111.37 34.0122C111.462 34.0066 111.742 34.1725 111.79 34.098C111.873 33.9645 111.26 33.2631 112.588 34.2525C112.472 33.9276 113.042 34.1744 111.936 33.2177C111.895 33.1252 112.654 33.5688 112.78 33.6002C112.898 33.6297 113.445 33.5702 113.502 33.5343C113.558 33.4983 113.645 33.4264 113.577 33.3053C113.494 33.1547 112.333 32.1798 113.798 33.1835C113.771 32.9862 113.841 32.9789 114.082 33.0055C114.126 33.0102 114.334 33.171 114.343 33.1605C114.36 33.1385 114.237 32.9808 114.249 32.9268C114.27 32.8383 114.733 33.1441 114.064 32.6279C113.986 32.4976 113.908 32.3673 113.831 32.237C113.971 32.3231 114.11 32.4092 114.25 32.4953C114.129 32.3624 114.007 32.2296 113.885 32.0968C114.825 32.8809 114.384 32.2738 113.792 31.8912C114.056 31.9654 114.32 32.0396 114.583 32.1138C115.666 32.9861 114.852 32.032 114.246 31.5802C114.254 31.5715 114.262 31.5627 114.271 31.5539C114.626 31.7001 114.448 31.4371 114.723 31.49C114.997 31.5428 115.096 31.6361 115.622 32.0014C115.612 31.955 115.602 31.9086 115.592 31.8623C114.313 30.6525 116.679 32.5538 115.791 31.5082C116.71 32.1224 116.388 31.5963 116.213 31.2782C116.193 31.2413 116.025 31.1086 115.987 31.0506C115.896 30.9103 116.196 30.973 115.652 30.5495C115.838 30.6359 116.024 30.7223 116.21 30.8086C116.135 30.7005 116.061 30.5925 115.986 30.4844C115.817 30.3512 115.648 30.218 115.479 30.0848C116.103 30.478 115.958 30.2071 116.133 30.2683C116.168 30.2809 116.403 30.4627 116.49 30.4836C116.593 30.5088 116.574 30.3904 116.679 30.4069C116.433 30.1873 116.187 29.9677 115.942 29.748C115.859 29.5644 116.561 30.0764 116.648 30.0753C116.664 30.0748 116.726 29.8951 116.717 29.876C116.651 29.7227 116.056 29.2822 116.322 29.2004C116.37 29.1861 116.592 29.3187 116.623 29.2961C116.678 29.2564 116.343 28.7426 115.931 28.3983C116.508 28.752 116.423 28.416 116.614 28.4872C116.664 28.5061 116.917 28.6987 117.057 28.7621L120.126 26.8101L120.971 28.5047C120.958 28.5277 120.948 28.5478 120.945 28.5634C120.927 28.6493 121.252 28.488 121.255 28.5705C121.257 28.6593 121.022 28.9325 121.025 28.9704C121.027 29.006 121.247 28.8152 121.272 28.8418C121.347 28.9283 121.095 29.3346 121.153 29.4034C121.237 29.5036 121.918 28.9681 122.262 28.7705C122.242 28.8292 122.132 28.9798 122.152 29.0007C122.383 29.264 122.556 29.6525 122.679 30.0289C122.737 30.2029 122.214 31.3208 123.493 29.8514C123.771 29.6467 123.519 30.4957 123.567 30.5587C123.615 30.6217 123.902 30.4149 123.95 30.4541C124.094 30.5727 124.012 30.8439 124.386 30.7838C124.483 30.7676 124.816 30.515 124.837 30.5426C124.862 30.5764 124.616 30.8941 124.637 30.9499C124.689 31.0806 124.952 31.1534 124.992 31.289C124.999 31.3143 124.76 31.5713 124.707 31.6724C124.498 32.067 124.624 32.1383 125.388 31.318C125.059 31.886 125.571 31.5738 125.702 31.6522C125.978 31.8198 126.207 32.4072 126.732 32.2612C127.063 32.1689 127.41 31.8057 127.29 32.2941C127.264 32.4024 127.214 32.5346 127.183 32.6647C127.11 32.9702 126.568 33.7383 127.436 33.0221C127.362 33.3545 127.607 33.3062 127.035 34.0841C127.206 33.9306 127.377 33.777 127.548 33.6235C127.568 33.6347 127.588 33.6459 127.607 33.657C127.46 33.8186 127.312 33.9802 127.164 34.1418C127.235 34.2934 128.005 33.7875 128.096 33.8847C128.248 34.0472 128.415 34.6972 128.361 35.056C128.331 35.2464 128.663 34.9148 128.037 35.6499C128.101 35.6194 128.166 35.5888 128.231 35.5582C128.389 35.418 128.547 35.2777 128.706 35.1375C128.815 35.2317 128.708 35.5853 128.809 35.6784C128.992 35.8475 129.666 35.6927 129.579 36.1406C129.557 36.2534 129.31 36.6199 129.358 36.6593C129.427 36.7169 129.946 36.2146 130.036 36.2842C130.192 36.405 129.869 37.2603 130.046 37.3434C130.098 37.3685 130.304 37.1938 130.351 37.1998C130.551 37.2225 130.629 37.3293 131.028 37.1382C130.663 37.7483 130.03 38.3784 129.439 39.0595C128.992 39.5737 127.977 40.7855 127.574 41.224C127.291 41.5321 126.884 41.8873 126.575 42.2289C126.177 42.3556 126.401 42.0078 126.738 41.4323C126.509 41.2455 126.28 41.0587 126.051 40.8719C126.207 40.6731 126.363 40.4742 126.52 40.2754C126.52 40.275 126.52 40.2746 126.521 40.2742C126.642 39.9874 126.156 40.418 126.01 40.4808C124.61 41.0823 124.555 39.4917 124.205 38.9299C124.129 38.8092 123.57 38.7378 123.787 38.3789C123.843 38.2856 124.109 38.003 124.102 37.9726C123.773 37.9748 123.445 37.9769 123.117 37.9791C123.192 37.2121 122.489 37.2219 122.077 36.9505C120.962 36.2166 119.819 35.5305 118.96 34.5648C118.794 34.3778 118.365 34.3654 118.32 34.061C118.302 33.9344 118.705 33.4586 118.286 33.6979C118.402 33.5767 118.518 33.4555 118.634 33.3343C118.409 33.398 118.089 33.6195 117.968 33.5561C117.867 33.5022 117.641 33.3167 117.616 33.2029C117.602 33.1447 117.834 32.9332 117.799 32.9015C117.738 32.8489 117.312 33.0393 117.232 32.9617C117.16 32.8915 117.29 32.5142 117.198 32.4977C117.167 32.4918 117.133 32.4881 117.097 32.4858L121.419 32.2016C121.433 32.539 121.597 33.018 121.329 33.1489C121.246 33.1883 120.861 33.0196 120.854 33.0468C120.842 33.1009 121.142 33.3571 121.161 33.415C121.257 33.7084 120.723 33.6278 120.604 33.7482C120.217 34.1406 119.993 34.7028 119.599 35.0861C119.35 35.3283 119.05 35.8209 118.62 35.8867C118.527 35.9009 118.199 35.6188 118.163 35.664C118.124 35.7142 118.332 35.9222 118.332 35.9603C118.334 36.2248 118.283 36.7657 117.928 36.7339C117.86 36.7276 117.577 36.5389 117.564 36.5572C117.557 36.566 117.723 36.7292 117.72 36.7716C117.691 37.1461 117.444 37.2412 117.193 37.4322C116.712 37.799 116.63 38.5982 116.066 38.937C115.944 39.0109 115.36 38.6681 115.354 38.687C115.339 38.7279 115.677 39.0278 115.712 39.1625C115.827 39.6079 115.217 39.6045 115.231 39.9524C115.237 40.1241 115.575 40.6197 115.595 40.7992C115.611 40.9427 115.284 40.9944 115.453 41.1858C115.555 41.3016 115.93 41.6135 115.957 41.6774ZM112.143 34.2572C112.744 34.7542 112.355 34.2019 111.981 33.9995C111.897 33.954 111.987 34.1282 112.143 34.2572ZM121.535 30.3054C121.689 30.1446 121.843 29.9838 121.997 29.823C121.914 29.8718 121.832 29.9206 121.749 29.9693C121.666 30.0752 121.583 30.181 121.499 30.2869C121.511 30.2931 121.523 30.2992 121.535 30.3054ZM107.473 37.726C107.458 37.6643 107.7 37.8347 107.738 37.8172C107.903 37.746 108.09 37.8436 108.277 37.8168C108.554 37.7771 108.742 37.0372 110.191 38.4558C110.191 38.4559 110.191 38.4559 110.191 38.456C110.205 38.4699 110.219 38.484 110.234 38.4983C110.508 38.7702 110.77 39.1054 111.076 39.417C111.383 39.7287 113.402 41.6983 113.46 41.8663C113.528 42.0951 112.818 41.7871 112.797 41.8536C112.784 41.8992 112.93 42.1157 112.925 42.1861C112.909 42.4129 112.711 42.3467 113.099 42.946C112.793 42.7339 112.487 42.5217 112.181 42.3096C112.245 42.4871 111.813 42.2368 111.797 42.2909C111.784 42.3354 111.975 42.5556 111.955 42.5953C111.933 42.6411 111.658 42.474 111.631 42.5689C111.586 42.7235 112.11 43.2715 112.119 43.3996C112.128 43.5324 111.738 43.3425 111.849 43.6095C111.899 43.6779 111.949 43.7463 111.998 43.8147C112.14 43.9393 112.282 44.0639 112.423 44.1885C112.446 44.2905 112.153 44.0377 112.112 44.0701C112.063 44.108 112.302 44.3866 112.272 44.4149C112.247 44.4379 112.006 44.2653 111.988 44.3095C111.961 44.3729 112.274 44.6595 112.307 44.7395C112.319 44.7709 112.308 45.116 112.301 45.1286C112.236 45.2181 111.815 44.8189 111.718 44.8455C111.451 44.9208 111.613 45.4255 111.583 45.7087C111.57 45.8352 111.474 45.8858 111.338 45.8918C110.387 44.7412 109.319 44.1798 111.069 45.7131C110.756 45.5607 111.149 46.0554 111 46.056C110.903 46.056 110.641 45.864 110.579 45.939C110.471 46.0734 110.994 46.8482 109.777 45.7253C109.845 46.0733 109.294 45.7778 110.287 46.852C110.314 46.9516 109.599 46.4377 109.474 46.3965C109.356 46.358 108.78 46.3849 108.716 46.4189C108.652 46.4529 108.55 46.5227 108.601 46.654C108.663 46.8172 109.709 47.914 108.353 46.7674C108.349 46.9758 108.275 46.9789 108.03 46.9355C107.985 46.9277 107.795 46.7457 107.785 46.7562C107.763 46.7781 107.866 46.9514 107.844 47.0071C107.809 47.0986 107.378 46.7481 107.988 47.3324C108.048 47.474 108.108 47.6156 108.168 47.7571C108.036 47.6579 107.905 47.5586 107.774 47.4593C107.879 47.6064 107.984 47.7535 108.089 47.9006C107.241 47.018 107.6 47.6827 108.152 48.122C107.891 48.0272 107.63 47.9324 107.368 47.8375C106.386 46.8533 107.077 47.9058 107.633 48.4186C107.623 48.4272 107.613 48.4359 107.603 48.4445C107.258 48.2683 107.4 48.5554 107.124 48.4823C106.849 48.4092 106.761 48.305 106.275 47.8881C106.278 47.9374 106.281 47.9866 106.284 48.0359C107.415 49.3865 105.268 47.2408 106.021 48.394C105.167 47.6909 105.417 48.2631 105.547 48.6077C105.562 48.6477 105.714 48.7976 105.745 48.8609C105.817 49.0139 105.515 48.9287 106.012 49.4077C105.833 49.3052 105.654 49.2026 105.475 49.1001C105.535 49.2182 105.595 49.3362 105.655 49.4543C105.809 49.6049 105.963 49.7554 106.117 49.9059C105.533 49.4534 105.64 49.7467 105.468 49.6713C105.434 49.6558 105.22 49.45 105.133 49.4226C105.031 49.3895 105.031 49.5148 104.925 49.4906C105.144 49.7367 105.364 49.9828 105.584 50.2289C105.64 50.4267 104.994 49.8446 104.904 49.8402C104.888 49.8397 104.795 50.0241 104.801 50.0446C104.845 50.2095 105.391 50.7097 105.102 50.7782C105.05 50.7901 104.842 50.6368 104.806 50.6585C104.743 50.6965 105.007 51.2566 105.378 51.6441C104.838 51.2361 104.872 51.5937 104.686 51.5067C104.629 51.4797 104.32 51.1837 104.21 51.1653C104.121 51.15 104.274 51.4841 104.187 51.4905C104.094 51.4962 103.82 51.2624 103.78 51.2668C103.743 51.2712 103.931 51.4934 103.902 51.5207C103.808 51.6025 103.396 51.3564 103.321 51.4206C103.279 51.4555 103.329 51.5757 103.416 51.7309L103.38 48.3245C103.635 48.1801 103.985 47.932 104.204 47.8142C104.186 47.8746 104.078 48.0267 104.099 48.0496C104.354 48.3368 104.552 48.7522 104.699 49.1525C104.767 49.3376 104.269 50.4812 105.545 49.008C105.827 48.8078 105.601 49.6837 105.654 49.7521C105.707 49.8204 106 49.6186 106.051 49.6621C106.207 49.7934 106.134 50.0732 106.523 50.0292C106.625 50.0172 106.963 49.7697 106.986 49.7996C107.014 49.8363 106.77 50.1563 106.794 50.2158C106.855 50.3553 107.134 50.4448 107.182 50.5888C107.191 50.6157 106.952 50.8725 106.9 50.9756C106.699 51.378 106.835 51.4591 107.599 50.6392C107.28 51.217 107.802 50.9162 107.943 51.005C108.241 51.1944 108.507 51.8209 109.051 51.6946C109.394 51.6148 109.742 51.2523 109.639 51.7574C109.616 51.8694 109.569 52.0053 109.543 52.1398C109.48 52.4559 108.946 53.2324 109.824 52.5268C109.761 52.8709 110.016 52.8328 109.451 53.6181C109.624 53.466 109.796 53.314 109.969 53.1619C109.99 53.1747 110.011 53.1874 110.032 53.2001C109.885 53.3617 109.737 53.5234 109.589 53.685C109.671 53.8473 110.456 53.3568 110.555 53.4632C110.722 53.6409 110.927 54.3298 110.886 54.7025C110.864 54.9004 111.196 54.5701 110.573 55.3078C110.639 55.2791 110.706 55.2504 110.772 55.2217C110.932 55.0829 111.092 54.9442 111.252 54.8054C111.37 54.9095 111.274 55.2743 111.384 55.3768C111.584 55.5631 112.284 55.4352 112.213 55.8997C112.195 56.0166 111.952 56.3877 112.004 56.4313C112.079 56.4951 112.601 55.9957 112.699 56.0731C112.868 56.2075 112.567 57.0864 112.757 57.1824C112.813 57.2112 113.021 57.0389 113.071 57.0474C113.281 57.0813 113.368 57.1971 113.778 57.0173C113.423 57.6374 112.787 58.2648 112.197 58.9478C111.752 59.4634 110.742 60.6803 110.339 61.1189C110.055 61.427 109.644 61.7781 109.335 62.12C108.924 62.2324 109.143 61.8798 109.471 61.2945C109.222 61.0874 108.974 60.8802 108.725 60.6731C108.88 60.4729 109.035 60.2726 109.19 60.0724C109.19 60.072 109.19 60.0716 109.191 60.0712C109.305 59.7772 108.815 60.2033 108.664 60.2616C107.223 60.8202 107.093 59.1526 106.701 58.5467C106.616 58.4165 106.026 58.3135 106.237 57.9488C106.292 57.854 106.558 57.5716 106.549 57.5395C106.205 57.5251 105.861 57.5107 105.516 57.4963C105.561 56.6973 104.824 56.6719 104.379 56.367C103.177 55.5422 101.946 54.7661 101.001 53.7117C100.819 53.5075 100.368 53.4728 100.308 53.152C100.283 53.0185 100.685 52.541 100.255 52.7701C100.372 52.6492 100.488 52.5282 100.604 52.4072C100.371 52.4625 100.046 52.6782 99.916 52.6056C99.8159 52.549 99.5997 52.3702 99.5414 52.2482L97.7554 51.3523L99.4949 47.89C99.5054 47.885 99.5155 47.8811 99.5251 47.8786C99.5867 47.8615 99.7962 48.0956 99.8312 48.0576C99.8894 47.9909 99.7119 47.5529 99.7972 47.4658C99.8745 47.3869 100.263 47.5065 100.285 47.4093C100.366 47.061 100.217 46.4486 100.547 46.3161C100.639 46.2802 101.011 46.4819 101.022 46.4538C101.044 46.398 100.773 46.11 100.763 46.0481C100.711 45.7344 101.251 45.8535 101.393 45.7349C101.857 45.3487 102.178 44.774 102.648 44.398C102.945 44.1602 103.334 43.6634 103.79 43.6222C103.889 43.6134 104.184 43.9303 104.228 43.8853C104.277 43.8352 104.094 43.6037 104.1 43.5638C104.141 43.2864 104.279 42.7229 104.642 42.7792C104.712 42.7902 104.974 43.0062 104.99 42.9879C104.999 42.9791 104.853 42.7974 104.864 42.7532C104.953 42.3626 105.224 42.2788 105.515 42.095C106.072 41.7417 106.284 40.9095 106.922 40.5909C107.061 40.5214 107.611 40.9184 107.62 40.8989C107.642 40.8571 107.341 40.5209 107.325 40.3774C107.277 39.9033 107.908 39.9463 107.95 39.5808C107.971 39.4005 107.7 38.8592 107.708 38.6698C107.715 38.5185 108.061 38.4854 107.917 38.2739C107.83 38.1459 107.491 37.7947 107.473 37.726ZM110.238 45.7492C109.695 45.1895 110.01 45.7935 110.365 46.0297C110.444 46.0829 110.379 45.8945 110.238 45.7492ZM103.511 49.384C103.665 49.2234 103.82 49.0629 103.974 48.9024C103.889 48.9493 103.805 48.9961 103.72 49.043C103.638 49.1496 103.555 49.2561 103.473 49.3627C103.486 49.3698 103.498 49.3769 103.511 49.384ZM124.446 46.3789C124.497 46.3529 124.307 46.5758 124.31 46.6009C124.322 46.7084 124.2 46.8732 124.173 47.0083C124.132 47.2088 124.641 47.1766 123.204 48.6064C123.203 48.6064 123.203 48.6064 123.203 48.6065C123.189 48.6205 123.175 48.6346 123.161 48.649C122.886 48.9205 122.567 49.1976 122.254 49.5026C121.941 49.8078 119.943 51.7996 119.802 51.8826C119.612 51.9883 120.026 51.378 119.981 51.3784C119.95 51.3787 119.75 51.5409 119.698 51.5535C119.531 51.5943 119.632 51.4292 119.082 51.8639C119.319 51.5824 119.557 51.3009 119.795 51.0194C119.645 51.1099 119.944 50.7238 119.907 50.7247C119.877 50.7254 119.663 50.9215 119.638 50.9157C119.609 50.9104 119.805 50.663 119.74 50.665C119.635 50.6673 119.089 51.1923 118.99 51.2293C118.888 51.2676 119.131 50.9277 118.901 51.075C118.837 51.1286 118.773 51.1823 118.709 51.2359C118.579 51.3725 118.449 51.509 118.319 51.6455C118.236 51.6869 118.501 51.4058 118.488 51.382C118.472 51.3539 118.201 51.6007 118.187 51.5846C118.176 51.5712 118.368 51.3477 118.339 51.3448C118.298 51.3395 118.003 51.6435 117.934 51.687C117.907 51.7037 117.65 51.777 117.643 51.7742C117.592 51.7467 118 51.3342 118.004 51.267C118.016 51.0825 117.595 51.3237 117.389 51.3682C117.297 51.3882 117.284 51.3269 117.314 51.2257C118.423 50.2351 119.118 49.2953 117.517 50.9804C117.712 50.7075 117.239 51.1215 117.277 51.0089C117.301 50.9357 117.513 50.6916 117.472 50.6627C117.399 50.6128 116.682 51.1908 117.838 50.0058C117.559 50.1389 117.922 49.6525 116.86 50.6567C116.778 50.7009 117.347 50.0391 117.41 49.9348C117.469 49.8363 117.596 49.4067 117.587 49.3663C117.577 49.3258 117.551 49.2653 117.439 49.3347C117.3 49.4201 116.208 50.4702 117.417 49.1739C117.261 49.2203 117.278 49.1651 117.373 48.9691C117.39 48.9336 117.576 48.7471 117.57 48.7416C117.559 48.7305 117.403 48.8487 117.366 48.8457C117.307 48.8405 117.681 48.4317 117.085 49.0314C116.963 49.1099 116.841 49.1884 116.719 49.267C116.828 49.1444 116.936 49.0218 117.044 48.8992C116.906 49.0132 116.769 49.1271 116.632 49.241C117.512 48.3918 116.92 48.8202 116.449 49.3414C116.587 49.1214 116.725 48.9014 116.863 48.6814C117.854 47.7068 116.886 48.477 116.358 49.0182C116.354 49.0127 116.35 49.0072 116.346 49.0016C116.567 48.6994 116.314 48.8743 116.44 48.6487C116.565 48.423 116.666 48.3323 117.104 47.866C117.066 47.8798 117.028 47.8937 116.99 47.9076C115.685 49.0812 117.848 46.9519 116.788 47.7929C117.535 46.9817 117.041 47.3053 116.748 47.4849C116.714 47.5057 116.562 47.6564 116.507 47.6943C116.374 47.7849 116.515 47.5368 116.027 48.0251C116.15 47.8656 116.273 47.7062 116.396 47.5466C116.292 47.6198 116.188 47.6929 116.083 47.766C115.931 47.918 115.778 48.0699 115.626 48.2218C116.115 47.6734 115.867 47.8238 115.968 47.6762C115.988 47.6463 116.198 47.4358 116.24 47.3639C116.291 47.2788 116.197 47.3085 116.242 47.2225C116.001 47.4465 115.76 47.6705 115.519 47.8946C115.355 47.9836 115.958 47.3582 115.985 47.2889C115.989 47.2768 115.874 47.2497 115.857 47.2589C115.722 47.3312 115.206 47.8619 115.228 47.6595C115.232 47.6231 115.401 47.4295 115.394 47.4076C115.381 47.3688 114.892 47.7005 114.506 48.0728C114.951 47.568 114.673 47.6779 114.786 47.5164C114.821 47.4669 115.123 47.1636 115.164 47.0765C115.199 47.0056 114.908 47.1994 114.925 47.1355C114.945 47.0665 115.191 46.8042 115.198 46.7751C115.204 46.7479 114.989 46.9427 114.975 46.9271C114.938 46.8751 115.229 46.5051 115.199 46.4635C115.158 46.4027 114.504 46.9629 114.191 47.1889C114.22 47.1389 114.34 46.9985 114.33 46.9861C114.211 46.8287 114.168 46.5611 114.161 46.2926C114.157 46.1686 114.824 45.1864 113.487 46.6008C113.223 46.8187 113.618 46.1029 113.595 46.0636C113.573 46.0244 113.301 46.2458 113.273 46.2251C113.189 46.1624 113.316 45.9335 113.012 46.0583C112.933 46.0912 112.615 46.3578 112.605 46.3408C112.593 46.3196 112.859 46.02 112.856 45.9808C112.846 45.8895 112.658 45.8875 112.659 45.7899C112.66 45.7715 112.905 45.5209 112.97 45.4308C113.225 45.079 113.143 45.0496 112.359 45.8495C112.746 45.3374 112.277 45.6878 112.193 45.6539C112.017 45.5805 111.977 45.1692 111.535 45.3926C111.257 45.5336 110.902 45.8897 111.11 45.4832C111.155 45.393 111.225 45.2793 111.28 45.1713C111.408 44.9173 112.008 44.2044 111.167 44.9447C111.302 44.6695 111.1 44.7584 111.726 44.0314C111.558 44.187 111.389 44.3426 111.22 44.4983C111.207 44.4936 111.195 44.4889 111.182 44.4843C111.335 44.3273 111.487 44.1703 111.639 44.0133C111.62 43.9097 110.904 44.4652 110.856 44.4081C110.776 44.313 110.798 43.8399 110.924 43.5482C110.991 43.3933 110.657 43.7214 111.315 43.0167C111.257 43.054 111.2 43.0914 111.142 43.1287C110.987 43.2713 110.831 43.4138 110.675 43.5564C110.613 43.5055 110.778 43.207 110.722 43.1552C110.619 43.0613 110.06 43.3225 110.232 42.9545C110.275 42.8618 110.553 42.524 110.525 42.5032C110.485 42.4725 109.964 42.973 109.91 42.9375C109.818 42.8756 110.269 42.1399 110.15 42.1119C110.116 42.1033 109.915 42.2825 109.88 42.2878C109.73 42.3117 109.694 42.2445 109.34 42.4769C109.766 41.9242 110.404 41.3001 111.023 40.6447C111.49 40.1499 112.561 38.9918 112.977 38.5652C113.269 38.2655 113.668 37.9033 113.988 37.572C114.326 37.3903 114.071 37.7084 113.674 38.2284C113.809 38.3267 113.943 38.4249 114.077 38.5232C113.909 38.711 113.741 38.8989 113.574 39.0868C113.573 39.0872 113.573 39.0876 113.573 39.088C113.411 39.3373 113.889 38.8997 114.017 38.8202C115.245 38.0587 114.916 39.2899 115.056 39.656C115.087 39.7345 115.504 39.6739 115.252 39.9994C115.187 40.0841 114.914 40.3602 114.913 40.3824C115.168 40.3124 115.424 40.2423 115.679 40.1722C115.441 40.7872 115.99 40.6331 116.246 40.7593C116.94 41.1006 117.667 41.3985 118.109 41.974C118.194 42.0857 118.524 42.006 118.487 42.2346C118.472 42.3296 118.048 42.7854 118.429 42.5111C118.311 42.6299 118.193 42.7488 118.074 42.8676C118.264 42.771 118.564 42.5314 118.643 42.5558C118.709 42.5768 118.841 42.6746 118.834 42.7583C118.831 42.8009 118.601 43.0144 118.621 43.032C118.656 43.0603 119.031 42.8229 119.075 42.8669C119.115 42.9067 118.926 43.2285 118.993 43.2223C119.235 43.2018 119.734 42.9446 119.749 43.1634C119.753 43.2245 119.506 43.5529 119.524 43.5551C119.561 43.5583 119.846 43.2858 119.896 43.2634C120.145 43.1504 119.918 43.5869 119.971 43.6665C120.143 43.926 120.493 44.034 120.656 44.3008C120.76 44.4692 121.034 44.6467 120.949 44.9819C120.93 45.0542 120.617 45.352 120.639 45.3748C120.664 45.4 120.885 45.2076 120.914 45.2028C121.112 45.1679 121.501 45.14 121.366 45.4277C121.34 45.4828 121.11 45.7325 121.12 45.7404C121.124 45.7448 121.298 45.5918 121.329 45.5891C121.6 45.565 121.594 45.7501 121.658 45.927C121.782 46.2645 122.354 46.2295 122.431 46.6371C122.448 46.7258 122.009 47.2348 122.021 47.2375C122.047 47.2443 122.377 46.9369 122.489 46.8915C122.858 46.7435 122.664 47.2312 122.929 47.1766C123.059 47.1498 123.536 46.8174 123.676 46.779C123.788 46.7483 123.725 47.0027 123.921 46.8436C124.039 46.7475 124.39 46.4088 124.446 46.3789ZM117.702 50.3601C118.262 49.8177 117.727 50.1983 117.459 50.522C117.398 50.5949 117.557 50.501 117.702 50.3601ZM115.114 45.8383C114.956 45.996 114.799 46.1537 114.642 46.3115C114.718 46.2561 114.793 46.2008 114.869 46.1454C114.958 46.0454 115.048 45.9454 115.137 45.8454C115.129 45.843 115.121 45.8407 115.114 45.8383ZM85.0626 74.9615C84.9701 74.9155 85.1506 74.6542 85.1072 74.5564C84.9271 74.1443 85.0088 73.8964 84.8839 73.4861C84.7049 72.8934 83.3666 71.48 85.1003 70.4192C85.1004 70.4192 85.1004 70.4192 85.1004 70.4192C85.1174 70.4088 85.1347 70.3985 85.1522 70.3882C85.4854 70.1927 85.9275 70.1072 86.3116 69.8978C86.696 69.6884 89.0905 68.1971 89.3365 68.2933C89.674 68.4431 89.4621 69.463 89.5808 69.5897C89.6612 69.6753 89.9539 69.6578 90.0718 69.7582C90.4517 70.0822 90.4298 70.3965 91.2526 70.394C91.0368 70.7396 90.8205 71.085 90.6029 71.4292C90.8691 71.5331 90.6435 72.0881 90.7393 72.1934C90.8183 72.2801 91.1014 72.1865 91.1758 72.2829C91.2606 72.39 91.1017 72.7327 91.2685 72.9215C91.5397 73.2315 92.2333 72.9197 92.4428 73.0921C92.6599 73.2716 92.4996 73.8307 92.8937 74.0064C92.9874 74.0053 93.0812 74.0046 93.1751 74.0043C93.3276 73.8894 93.4798 73.774 93.6317 73.6581C93.7919 73.774 93.485 74.0211 93.5532 74.1701C93.633 74.3457 94.0049 74.272 94.0619 74.3923C94.1083 74.4909 93.9073 74.7501 93.9843 74.8713C94.0948 75.0485 94.4606 74.8306 94.5803 74.902C94.6284 74.9231 95.1852 75.6298 95.2047 75.6823C95.3605 76.0322 94.8289 76.2695 94.8829 76.5697C95.029 77.3931 95.7192 78.1387 96.037 78.9928C96.1792 79.3714 96.1951 79.7989 96.1285 80.2126C94.6106 79.7363 93.5287 81.0475 95.8253 80.4743C95.5127 80.9218 96.1369 81.2379 96.0054 81.6804C95.9173 81.9615 95.5819 82.1195 95.5369 82.5094C95.4691 83.1734 96.1289 84.2208 94.4874 83.9183C94.5342 84.7651 93.7249 85.0787 94.9131 85.9768C94.902 86.2101 93.8895 86.2595 93.6801 86.3776C93.4936 86.5205 92.3366 87.5046 92.1682 87.6461C92.0009 87.8224 91.7339 88.0987 91.7011 88.3264C91.6717 88.5969 92.6204 89.8056 91.0613 88.8647C90.8289 89.3015 90.6488 89.4012 90.1892 89.5407C90.1065 89.565 89.9248 89.3746 89.8912 89.4042C89.8224 89.4654 89.8313 89.7165 89.7168 89.8452C89.5275 90.0576 89.0498 89.7319 89.6111 90.3651C89.5534 90.5958 89.5085 90.8134 89.4493 91.04C89.2978 90.9515 89.1469 90.8622 88.9966 90.7721C89.0282 90.9724 89.0572 91.1738 89.0839 91.3763C88.4413 90.3308 88.3183 91.32 88.9115 91.7543C88.4821 91.7553 88.0517 91.7492 87.6183 91.7379C86.874 90.5654 86.9081 92.0186 87.3699 92.6177C87.3364 92.6382 87.3028 92.6586 87.2691 92.679C86.7826 92.5527 86.6637 92.984 86.1747 92.9896C85.6995 92.9857 85.6615 92.8492 85.2322 92.3601C85.1691 92.4396 85.1051 92.5192 85.0403 92.599C85.3172 93.7313 84.8262 93.0511 84.4194 92.8223C84.1864 92.6941 83.9814 92.7098 83.9353 93.2859C83.174 92.445 82.8668 93.2564 82.59 93.7589C82.5594 93.8167 82.6511 94.0099 82.6157 94.0999C82.5275 94.3187 82.0172 94.2499 82.3075 94.875C82.0767 94.7601 81.8502 94.6417 81.6283 94.5198C81.5606 94.6853 81.492 94.8501 81.4223 95.0144C81.5047 95.2133 81.5872 95.4122 81.6696 95.6112C81.1641 95.0267 80.8533 95.4492 80.6027 95.3529C80.5522 95.3334 80.4419 95.0577 80.2984 95.0229C80.1326 94.9802 79.904 95.1513 79.7004 95.1187C79.7346 95.4533 79.7654 95.7886 79.7926 96.1245C79.5199 96.3943 79.1754 95.5874 78.9768 95.5715C78.9384 95.5731 78.3326 95.7852 78.3041 95.8069C78.0661 96.0036 78.2892 96.7338 77.3844 96.7115C77.2254 96.7044 77.0704 96.4653 76.9229 96.4704C76.6733 96.4855 75.9305 97.0993 75.8369 97.6304C75.4905 96.9724 74.5646 97.1821 74.3098 96.9398C74.236 96.8685 74.2827 96.4454 74.0549 96.3134C73.8734 96.2091 73.3026 96.4308 73.0554 96.2947C72.8043 96.1547 72.8308 95.7812 72.7294 95.719C72.6347 95.6601 72.4345 95.8953 72.2873 95.8341C71.8277 95.6363 71.6591 95.0213 71.3601 94.8348C70.9323 94.5667 70.0607 94.9967 69.447 94.9889C69.3913 94.8715 69.4243 94.6582 69.3361 94.5792C68.2397 93.5923 67.4705 92.3094 66.9689 91.2078C66.716 90.6838 67.0671 88.9686 65.5626 90.2486C65.1609 90.246 65.2017 88.7022 65.1031 88.485C64.997 88.2622 64.5999 88.2577 64.5055 88.09C64.223 87.587 64.2616 87.1156 63.6795 86.6582C63.5279 86.5396 63.0757 86.5672 63.0329 86.4756C62.982 86.3643 63.274 86.0613 63.2221 85.9091C63.0958 85.547 62.6514 85.0003 62.5422 84.6628C62.5229 84.6003 62.8186 84.4101 62.8693 84.2758C63.0671 83.7506 62.8333 83.4216 61.8993 84.0443C61.9871 83.8546 61.9991 83.7103 61.9652 83.595L60.4076 80.0835L63.2173 78.8864C63.5548 78.7861 63.6834 78.3477 63.9565 78.1621C64.7476 77.6275 66.3837 76.9958 66.871 76.1761C67.1783 75.6591 66.9178 75.2293 67.8014 75.2246C67.9975 75.2235 68.2096 75.2519 68.4465 75.2489C69.0023 75.2428 69.8492 75.8284 69.617 74.6733C70.2295 74.658 70.501 74.2664 71.3226 74.8991C71.25 74.6765 71.1774 74.4538 71.1047 74.2311C71.1594 74.1934 71.2141 74.1557 71.2687 74.118C71.395 74.2978 71.5213 74.4777 71.6476 74.6576C72.0886 74.474 72.1656 73.3949 72.5173 73.2019C73.1067 72.8776 74.7849 72.323 75.4853 72.2636C75.8571 72.2321 75.6408 71.816 76.2864 72.5569C76.319 72.4611 76.3516 72.3654 76.3842 72.2697C76.3209 72.0629 76.2576 71.8562 76.1943 71.6495C76.5676 71.427 77.1775 71.4564 77.5354 71.2485C78.1872 70.8691 78.8835 69.8039 79.7303 69.7601C79.9429 69.7496 80.3646 70.0099 80.5237 69.9135C80.7555 69.7736 80.4551 69.1139 80.7468 68.9321C81.2502 68.6199 82.6232 68.8024 83.0775 68.4696C83.2127 68.3712 83.147 68.0995 83.2325 68.0177C83.5895 67.6724 83.9435 67.4958 84.1388 66.9067C84.9117 67.2623 85.3168 68.0592 85.8964 68.7659C86.3342 69.299 87.4247 70.4914 87.7636 70.9837C88.0018 71.3296 88.153 71.863 88.4244 72.2384C88.0909 72.8519 87.6738 72.6236 86.9342 72.2995C86.1738 72.7627 85.4134 73.2259 84.6529 73.6891C84.4581 73.5108 84.2632 73.3325 84.0684 73.1542C84.0681 73.1538 84.0678 73.1533 84.0676 73.1528C83.6269 73.07 83.8217 73.7042 83.7344 73.9232C82.8982 76.0197 79.3352 76.7832 77.5688 77.6076C77.1884 77.7857 76.1731 78.7544 75.7213 78.542C75.604 78.4865 75.394 78.1599 75.3169 78.1845C74.817 78.7349 74.317 79.2853 73.817 79.8357C72.2558 80.0324 71.1965 81.2089 69.9699 82.015C68.7608 82.8097 67.5599 83.608 66.3556 84.3914L67.4234 80.3759C68.9091 82.6024 70.0853 84.8789 71.1627 86.8693C71.4916 87.4802 72.1746 88.0189 72.3657 88.5888C72.4431 88.8231 72.0233 89.3007 72.5791 89.2443C72.4526 89.3544 72.3261 89.4647 72.1998 89.5751C72.5358 89.6586 72.9272 89.5221 73.1405 89.6799C73.3234 89.8258 73.7418 90.1345 73.8396 90.266C73.8915 90.3383 73.6964 90.5855 73.7686 90.6285C73.9025 90.707 74.3443 90.4471 74.4853 90.4988C74.61 90.5513 74.7686 90.9723 74.9149 90.9469C75.4297 90.861 75.9157 90.3339 76.5108 90.3957C76.6699 90.4156 76.9768 90.7718 77.0346 90.7481C77.138 90.703 77.087 90.3098 77.146 90.2447C77.4453 89.9184 78.1722 90.1892 78.5746 90.0616C79.6818 89.7197 80.8176 89.0423 81.9615 88.4125C82.1761 88.2945 82.3853 88.1814 82.5899 88.0751C83.4365 87.6449 84.6987 86.7355 85.5282 86.4618C85.7107 86.4026 85.9375 86.7738 86.0582 86.6794C86.1913 86.5745 86.0761 86.2915 86.1194 86.2259C86.4696 85.7394 87.0472 84.7915 87.5658 84.6408C87.6658 84.6148 87.9628 84.7896 87.9964 84.7486C88.0144 84.7276 87.8745 84.5355 87.9097 84.456C88.2032 83.7653 88.5649 83.4535 88.8993 82.9348C89.543 81.8915 89.1986 80.7118 89.0479 79.3435C89.0182 79.0454 89.5787 78.6188 89.5565 78.5737C89.5093 78.4788 89.0629 78.5657 88.8866 78.4143C88.3139 77.9218 88.3203 76.8394 87.7643 76.3022C87.4944 76.0402 86.7497 75.8945 86.458 75.6536C86.226 75.4595 86.0547 74.7527 85.7692 74.7708C85.598 74.7832 85.165 75.0101 85.0626 74.9615ZM95.0997 82.8564C94.3534 82.6388 94.8195 83.5502 95.2919 83.349C95.4017 83.2983 95.2971 82.9099 95.0997 82.8564ZM69.0607 92.358C68.8953 92.5072 68.7301 92.6566 68.5651 92.8063C68.6951 92.8156 68.827 92.8257 68.9571 92.8324C69.0225 92.7047 69.0893 92.578 69.1572 92.4523C69.1246 92.4206 69.092 92.3888 69.0607 92.358Z" fill="black"/>
<path d="M115.95 77.6474C115.926 77.5685 116.228 77.6052 116.272 77.544C116.458 77.2887 116.689 77.2655 116.906 77.0561C117.229 76.7458 117.372 75.467 119.228 76.2826C119.228 76.2826 119.228 76.2826 119.228 76.2827C119.246 76.2907 119.265 76.2988 119.283 76.3073C119.635 76.4666 119.979 76.7318 120.373 76.9218C120.767 77.1117 123.354 78.236 123.44 78.4356C123.545 78.7166 122.675 78.8981 122.658 79.0161C122.647 79.0968 122.842 79.2884 122.844 79.3985C122.848 79.7536 122.608 79.8331 123.129 80.3801C122.746 80.3391 122.363 80.2982 121.98 80.2572C122.075 80.4649 121.539 80.4811 121.526 80.5764C121.515 80.6546 121.763 80.8121 121.744 80.8898C121.724 80.9777 121.382 80.9762 121.36 81.1427C121.324 81.4151 121.998 81.7628 122.022 81.9466C122.047 82.1372 121.568 82.2056 121.727 82.5048C121.793 82.5624 121.859 82.62 121.924 82.6776C122.104 82.7362 122.285 82.7947 122.465 82.8533C122.502 82.9853 122.131 82.8715 122.085 82.9576C122.032 83.0588 122.343 83.2594 122.311 83.329C122.284 83.386 121.981 83.3461 121.965 83.4282C121.94 83.5474 122.339 83.694 122.385 83.7846C122.403 83.8204 122.427 84.347 122.42 84.3727C122.354 84.5651 121.815 84.3478 121.704 84.4754C121.397 84.8302 121.641 85.4401 121.636 85.8911C121.634 86.0925 121.526 86.2558 121.367 86.3875C120.124 85.524 118.807 85.6484 121.031 86.3626C120.646 86.4178 121.162 86.8034 120.986 86.9391C120.872 87.0265 120.542 86.9768 120.478 87.1448C120.365 87.4439 121.063 88.1318 119.51 87.5501C119.627 88.0104 118.947 88.066 120.23 88.7774C120.273 88.9017 119.377 88.7783 119.225 88.8299C119.082 88.879 118.406 89.4407 118.334 89.5497C118.262 89.6586 118.149 89.8551 118.223 90.0059C118.314 90.1943 119.663 90.8909 117.943 90.4001C117.961 90.7157 117.874 90.7872 117.58 90.9443C117.527 90.9727 117.284 90.8718 117.273 90.8971C117.25 90.9494 117.389 91.1165 117.37 91.2193C117.338 91.3884 116.793 91.2533 117.574 91.5763C117.659 91.7344 117.745 91.8926 117.83 92.0508C117.665 92.0206 117.5 91.9905 117.335 91.9603C117.474 92.0859 117.613 92.2115 117.752 92.3371C116.66 91.7815 117.154 92.4526 117.851 92.6113C117.533 92.7056 117.215 92.7999 116.897 92.8942C116.301 92.617 116.194 92.6835 116.32 92.8588L115.334 90.279C115.531 90.1398 115.867 89.7098 116.012 89.3376C116.034 89.3487 116.056 89.3598 116.078 89.371C116.12 89.7961 116.425 89.6023 116.56 89.9363C116.696 90.2702 116.617 90.3833 116.426 90.9985C116.497 90.9905 116.568 90.9826 116.639 90.9747C117.658 89.5119 116.351 92.2521 117.411 91.2561C117.116 92.3324 117.752 91.9853 118.153 91.8005C118.199 91.779 118.288 91.5845 118.356 91.543C118.522 91.4438 118.662 91.8095 118.939 91.1774C118.944 91.3991 118.95 91.6208 118.955 91.8424C119.079 91.7609 119.203 91.6793 119.326 91.5977C119.415 91.4015 119.504 91.2052 119.592 91.009C119.434 91.743 119.778 91.5895 119.818 91.8002C119.825 91.8427 119.707 92.1154 119.743 92.2207C119.785 92.3451 119.972 92.3337 120.031 92.4621C120.204 92.1796 120.378 91.897 120.551 91.6145C120.798 91.5304 120.5 92.3489 120.574 92.4564C120.587 92.4754 120.946 92.57 120.972 92.5613C121.18 92.4942 121.444 91.8016 121.804 92.139C121.868 92.1995 121.824 92.4605 121.888 92.5009C122.001 92.5728 122.606 92.2095 122.856 91.734C122.726 92.4121 123.232 92.3404 123.267 92.5695C123.277 92.6397 123.108 93.0328 123.178 93.1644C123.234 93.2715 123.6 93.0613 123.687 93.1635C123.778 93.2735 123.671 93.6197 123.713 93.6667C123.753 93.7107 123.919 93.4673 123.986 93.4995C124.192 93.6044 124.19 94.1162 124.353 94.1997C124.589 94.3214 125.157 93.636 125.516 93.3803C125.543 93.4538 125.516 93.6439 125.568 93.6693C125.99 93.8806 126.425 94.1608 126.838 94.4604L126.754 94.4241C126.827 94.5108 126.898 94.5961 126.979 94.6791C127.031 94.7962 127.433 95.9851 127.377 94.0338C127.398 93.8639 127.448 93.9768 127.543 94.1246C127.634 94.2734 127.776 94.4513 127.814 94.4496C127.889 94.4466 127.864 94.0936 127.91 94.0757C128.053 94.0202 128.278 94.2084 128.369 93.8315C128.392 93.7324 128.257 93.3372 128.287 93.3269C128.323 93.3153 128.556 93.6434 128.623 93.6343C128.777 93.6132 128.938 93.3471 129.097 93.3103C129.127 93.3045 129.348 93.577 129.45 93.6365C129.851 93.8684 129.994 93.6926 129.225 92.8773C129.799 93.2196 129.557 92.6466 129.654 92.4906C129.879 92.1644 130.566 91.6661 130.339 91.1051C130.197 90.7561 129.746 90.541 130.272 90.4586C130.389 90.4381 130.537 90.4296 130.678 90.3957C131.004 90.3296 131.956 90.4413 130.957 89.9109C131.309 89.7824 131.159 89.5623 132.132 89.6191C131.915 89.5406 131.698 89.4642 131.48 89.3899C131.481 89.3607 131.482 89.3315 131.483 89.3025C131.698 89.3428 131.914 89.3821 132.129 89.4206C132.24 89.2005 131.396 88.7872 131.418 88.6411C131.471 88.3794 131.824 87.713 132.072 87.4029C132.209 87.2383 131.745 87.3111 132.682 87.0692C132.61 87.0453 132.538 87.0228 132.466 87.0016C132.255 87.0195 132.044 87.0399 131.833 87.0629C131.793 86.9012 132.057 86.6179 131.999 86.45C131.89 86.133 131.19 86.0004 131.364 85.5621C131.409 85.4496 131.718 85.1261 131.664 85.0564C131.586 84.955 130.985 85.3544 130.894 85.2577C130.752 85.0987 131.038 84.1693 130.77 84.0147C130.698 83.9746 130.492 84.1507 130.433 84.1375C130.188 84.0869 130.037 83.9396 129.628 84.1546C129.849 83.4613 130.358 82.7302 130.789 81.9334C131.118 81.3342 131.757 79.8706 132.032 79.3407C132.23 78.9705 132.613 78.5758 132.824 78.1642C133.466 78.1392 133.437 78.6161 133.365 79.3699C133.987 79.806 134.574 80.2968 135.117 80.857C134.978 81.0783 134.834 81.2941 134.69 81.512C134.69 81.5124 134.69 81.5128 134.689 81.5131C134.655 81.9161 135.226 81.5952 135.443 81.6334C137.665 81.9724 138.022 85.8621 137.769 87.4617C137.773 87.8217 138.063 89.0492 137.615 89.2519C137.502 89.304 137.115 89.2769 137.091 89.3388C137.25 89.9401 137.362 90.5662 137.426 91.2074C136.525 92.2158 136.511 93.4866 135.944 94.6064C134.453 97.4479 131.846 100.556 127.311 100.573C126.489 100.559 125.311 100.625 124.586 100.13C124.525 100.089 124.481 100.031 124.446 99.9653L124.357 99.9268C124.309 99.7023 124.352 99.3679 124 99.6153C124.067 99.4613 124.134 99.3074 124.2 99.1535C123.9 99.2395 123.604 99.5242 123.345 99.4492C123.127 99.3856 122.575 99.1626 122.421 99.0221C122.34 98.9504 122.505 98.6808 122.417 98.6426C122.265 98.5793 121.766 98.8286 121.56 98.7349C121.372 98.65 121.206 98.1781 121.041 98.1604C120.446 98.0943 119.66 98.3255 119.168 97.9443C119.032 97.8381 119.004 97.379 118.951 97.3677C118.848 97.3468 118.657 97.6937 118.574 97.7115C118.149 97.8005 117.847 97.1481 117.543 96.9896C116.551 96.4728 115.403 96.1408 114.42 95.6153C114.089 95.438 113.623 95.2358 113.189 95.0038L110.68 94.3475L111.57 90.7715C111.768 90.3912 111.988 90.0354 112.236 89.8145C112.351 89.7123 112.732 89.9204 112.78 89.8129C112.832 89.6937 112.593 89.5116 112.596 89.4464C112.614 88.9943 112.717 88.0244 113.151 87.7805C113.234 87.7342 113.566 87.8202 113.583 87.7782C113.592 87.7572 113.401 87.6167 113.409 87.5412C113.473 86.8746 113.783 86.5042 114.107 85.9654C114.724 84.9327 114.887 83.4932 115.605 82.4386C115.761 82.2088 116.45 82.3068 116.459 82.2689C116.481 82.1863 116.09 81.9555 116.056 81.7544C115.95 81.0872 116.698 80.5806 116.708 79.9952C116.714 79.7061 116.337 79.1402 116.327 78.8489C116.319 78.6162 116.723 78.253 116.531 78.0668C116.414 77.954 115.979 77.7339 115.95 77.6474ZM120.056 87.1689C119.357 86.8211 119.792 87.4412 120.235 87.4747C120.334 87.4822 120.237 87.2591 120.056 87.1689ZM125.873 95.3067C125.961 95.1025 126.05 94.8982 126.139 94.694C126.054 94.757 125.968 94.8201 125.883 94.8832C125.854 95.017 125.825 95.1509 125.796 95.2847C125.822 95.2921 125.847 95.2994 125.873 95.3067ZM119.972 81.4852C119.941 81.531 120.029 81.2522 120.02 81.2325C119.986 81.147 120.037 80.9498 120.025 80.8224C120.008 80.6331 119.637 80.9016 120.365 79.0091C120.365 79.0091 120.365 79.009 120.365 79.009C120.372 78.9904 120.379 78.9717 120.386 78.9527C120.526 78.5925 120.697 78.2065 120.856 77.7998C121.016 77.3931 122.026 74.7589 122.111 74.6216C122.227 74.4422 122.065 75.1551 122.099 75.1335C122.121 75.1186 122.232 74.8862 122.267 74.851C122.381 74.7376 122.346 74.925 122.651 74.296C122.541 74.6472 122.432 74.9983 122.322 75.3495C122.412 75.2017 122.282 75.6705 122.309 75.6523C122.331 75.6374 122.444 75.3696 122.464 75.3628C122.487 75.3536 122.4 75.656 122.448 75.6237C122.525 75.5721 122.806 74.8686 122.87 74.7904C122.937 74.7094 122.838 75.1123 122.973 74.8788C123.008 74.803 123.043 74.7271 123.078 74.6513C123.142 74.474 123.206 74.2968 123.27 74.1195C123.321 74.0454 123.191 74.4091 123.207 74.4227C123.226 74.4389 123.368 74.1014 123.382 74.1086C123.394 74.1148 123.305 74.395 123.327 74.3838C123.358 74.3689 123.505 73.9713 123.546 73.902C123.562 73.8751 123.735 73.6912 123.742 73.69C123.786 73.6892 123.581 74.232 123.594 74.2911C123.629 74.453 123.885 74.0489 124.027 73.9138C124.091 73.8533 124.115 73.8989 124.117 73.9989C123.529 75.3636 123.237 76.4891 124.024 74.303C123.945 74.6265 124.197 74.0517 124.196 74.1648C124.195 74.2386 124.096 74.5456 124.133 74.5509C124.2 74.5583 124.595 73.729 124.018 75.2806C124.194 75.0355 124.04 75.6196 124.59 74.2656C124.64 74.1893 124.375 75.0197 124.353 75.138C124.333 75.2494 124.341 75.6735 124.358 75.7034C124.374 75.7332 124.408 75.7719 124.475 75.6601C124.557 75.522 125.119 74.1146 124.529 75.7859C124.634 75.6726 124.635 75.7273 124.611 75.9385C124.607 75.9767 124.513 76.2226 124.519 76.2249C124.529 76.229 124.618 76.0547 124.645 76.04C124.691 76.016 124.511 76.5395 124.81 75.7491C124.882 75.6249 124.954 75.5006 125.026 75.3764C124.975 75.5315 124.923 75.6866 124.872 75.8417C124.947 75.6801 125.022 75.5184 125.097 75.3568C124.645 76.4935 124.983 75.85 125.209 75.185C125.159 75.4369 125.109 75.6887 125.059 75.9405C124.554 77.236 125.09 76.1245 125.354 75.4159C125.358 75.4187 125.362 75.4215 125.366 75.4243C125.275 75.7849 125.42 75.5171 125.381 75.7677C125.342 76.0183 125.288 76.1428 125.074 76.7455C125.099 76.7158 125.124 76.6861 125.148 76.6564C125.839 75.0436 124.739 77.8726 125.326 76.6577C124.964 77.699 125.255 77.1905 125.429 76.8997C125.45 76.866 125.526 76.6664 125.559 76.6081C125.636 76.468 125.591 76.745 125.836 76.1004C125.783 76.2938 125.73 76.4871 125.676 76.6804C125.736 76.5691 125.796 76.4578 125.856 76.3465C125.934 76.1455 126.011 75.9444 126.088 75.7434C125.855 76.44 126.003 76.195 125.964 76.3678C125.956 76.4027 125.85 76.6804 125.835 76.7616C125.818 76.8579 125.881 76.7879 125.868 76.8823C125.994 76.5782 126.12 76.274 126.245 75.9699C126.345 75.8172 126.047 76.6327 126.044 76.7038C126.043 76.7162 126.135 76.6847 126.145 76.6688C126.229 76.5434 126.486 75.8494 126.517 76.0314C126.523 76.0643 126.444 76.3082 126.454 76.3233C126.473 76.3503 126.757 75.8375 126.956 75.3389C126.745 75.9775 126.926 75.7527 126.88 75.9431C126.866 76.0016 126.714 76.4015 126.704 76.495C126.695 76.5713 126.865 76.2695 126.867 76.3319C126.869 76.3995 126.749 76.7383 126.751 76.7662C126.753 76.7922 126.866 76.5251 126.88 76.5321C126.92 76.5584 126.792 77.0095 126.824 77.0309C126.869 77.0628 127.222 76.2782 127.401 75.9384C127.391 75.9944 127.335 76.1704 127.345 76.1761C127.471 76.2533 127.567 76.4597 127.636 76.6834C127.669 76.7865 127.408 77.9348 128.064 76.1031C128.208 75.7936 128.085 76.5868 128.111 76.6094C128.138 76.632 128.287 76.3156 128.312 76.32C128.389 76.3334 128.35 76.5874 128.546 76.3375C128.597 76.272 128.77 75.8956 128.781 75.9053C128.795 75.9177 128.669 76.2974 128.681 76.3291C128.71 76.4018 128.85 76.3147 128.872 76.3975C128.876 76.4135 128.753 76.7422 128.727 76.8494C128.621 77.268 128.689 77.2542 129.081 76.2048C128.915 76.8223 129.181 76.3029 129.251 76.2919C129.399 76.2709 129.527 76.6003 129.802 76.2017C129.976 75.9502 130.154 75.4805 130.097 75.9231C130.084 76.0212 130.06 76.1507 130.045 76.2679C130.01 76.5438 129.734 77.4322 130.183 76.4063C130.148 76.7036 130.277 76.5327 129.985 77.4453C130.073 77.2335 130.161 77.0216 130.25 76.8098C130.26 76.8078 130.271 76.8057 130.281 76.8037C130.205 77.0089 130.13 77.2142 130.054 77.4194C130.093 77.4978 130.493 76.6878 130.542 76.7137C130.624 76.7562 130.72 77.1675 130.696 77.4745C130.683 77.6375 130.854 77.201 130.533 78.1097C130.567 78.0509 130.6 77.992 130.634 77.9332C130.716 77.7386 130.798 77.5441 130.879 77.3495C130.938 77.363 130.886 77.6942 130.94 77.7114C131.039 77.7422 131.392 77.2559 131.353 77.6491C131.342 77.7482 131.217 78.1659 131.242 78.1705C131.279 78.1775 131.547 77.5069 131.595 77.5112C131.679 77.5198 131.519 78.3568 131.614 78.3244C131.642 78.3153 131.748 78.0684 131.773 78.0472C131.879 77.9559 131.921 77.9957 132.129 77.631C131.944 78.3011 131.619 79.1324 131.315 79.981C131.086 80.6215 130.566 82.11 130.359 82.6684C130.214 83.0608 130.003 83.5566 129.845 83.989C129.637 84.3032 129.75 83.9129 129.921 83.2845C129.798 83.2648 129.675 83.2452 129.551 83.2255C129.631 82.9868 129.711 82.7482 129.791 82.5095C129.791 82.509 129.791 82.5085 129.792 82.508C129.852 82.2204 129.601 82.8176 129.525 82.9457C128.794 84.1725 128.745 82.9736 128.553 82.7301C128.512 82.678 128.216 82.9273 128.326 82.532C128.355 82.4291 128.491 82.0662 128.487 82.0466C128.314 82.227 128.141 82.4075 127.968 82.5879C127.998 81.9542 127.627 82.3446 127.406 82.3592C126.809 82.399 126.198 82.4914 125.732 82.2131C125.642 82.1587 125.416 82.3828 125.389 82.1717C125.377 82.0841 125.584 81.4967 125.366 81.9099C125.426 81.7532 125.485 81.5964 125.545 81.4396C125.427 81.6113 125.261 81.9564 125.197 81.9732C125.143 81.9867 125.021 81.9667 125.006 81.8923C124.998 81.8549 125.118 81.5652 125.099 81.5596C125.066 81.5524 124.844 81.9312 124.801 81.9147C124.762 81.8997 124.826 81.5375 124.777 81.5748C124.603 81.7066 124.293 82.1609 124.23 81.9828C124.212 81.9327 124.317 81.5377 124.303 81.5445C124.275 81.5591 124.128 81.9253 124.097 81.9677C123.938 82.1816 124.003 81.704 123.945 81.6616C123.755 81.5235 123.469 81.5981 123.284 81.4493C123.167 81.3556 122.921 81.3354 122.904 81.0109C122.901 80.9409 123.063 80.5399 123.041 80.5314C123.016 80.522 122.898 80.7895 122.878 80.8071C122.739 80.9308 122.456 81.1387 122.488 80.831C122.494 80.7719 122.605 80.4516 122.596 80.4495C122.592 80.4478 122.499 80.6599 122.477 80.6767C122.281 80.8256 122.242 80.6659 122.152 80.5464C121.979 80.3192 121.563 80.6199 121.408 80.3112C121.375 80.244 121.58 79.6047 121.57 79.6082C121.549 79.6147 121.377 80.0316 121.305 80.1231C121.066 80.4233 121.093 79.9185 120.91 80.0901C120.819 80.1746 120.544 80.6821 120.449 80.7811C120.373 80.8603 120.36 80.6147 120.252 80.8424C120.187 80.98 120.007 81.4332 119.972 81.4852ZM124.035 74.9161C123.748 75.641 124.055 75.0649 124.177 74.6636C124.205 74.5732 124.109 74.7279 124.035 74.9161ZM127.037 77.5199C127.116 77.3118 127.195 77.1037 127.274 76.8956C127.231 76.9783 127.188 77.061 127.145 77.1438C127.103 77.2708 127.06 77.3979 127.018 77.5249C127.024 77.5232 127.03 77.5216 127.037 77.5199ZM126.179 76.7075C126.205 76.7828 125.904 76.741 125.863 76.798C125.684 77.0356 125.456 77.0523 125.246 77.2456C124.934 77.5322 124.822 78.7405 122.966 77.9249C122.966 77.9249 122.966 77.9248 122.966 77.9248C122.947 77.9168 122.929 77.9086 122.91 77.9002C122.558 77.7412 122.212 77.4819 121.818 77.2929C121.423 77.1038 118.836 75.9789 118.747 75.7878C118.637 75.5191 119.494 75.3672 119.507 75.2558C119.517 75.1796 119.318 74.9936 119.315 74.8892C119.302 74.5526 119.538 74.4829 119.01 73.9526C119.39 74.0003 119.77 74.0479 120.15 74.0956C120.051 73.8966 120.582 73.8936 120.592 73.8036C120.6 73.7298 120.351 73.5749 120.369 73.5017C120.387 73.4189 120.725 73.4282 120.743 73.2709C120.773 73.0137 120.097 72.6687 120.069 72.4939C120.04 72.3129 120.513 72.2591 120.348 71.9719C120.282 71.9158 120.215 71.8597 120.149 71.8036C119.969 71.744 119.79 71.6844 119.61 71.6247C119.57 71.4988 119.94 71.6152 119.983 71.5347C120.034 71.44 119.721 71.2428 119.751 71.1775C119.777 71.1242 120.078 71.169 120.092 71.0915C120.113 70.9792 119.716 70.8311 119.667 70.7442C119.649 70.7099 119.613 70.2104 119.619 70.1861C119.681 70.0054 120.218 70.2237 120.326 70.1054C120.621 69.7763 120.366 69.1928 120.36 68.7657C120.357 68.5749 120.461 68.4226 120.616 68.3015C121.865 69.1483 123.166 69.0609 120.948 68.3328C121.328 68.2895 120.809 67.9122 120.979 67.7878C121.09 67.7075 121.418 67.7623 121.478 67.6045C121.583 67.3238 120.876 66.6559 122.426 67.2429C122.3 66.8041 122.972 66.7671 121.685 66.0635C121.64 65.9447 122.53 66.0823 122.679 66.0369C122.82 65.9938 123.476 65.4771 123.545 65.3756C123.613 65.274 123.72 65.0904 123.643 64.9459C123.55 64.7653 122.198 64.0741 123.912 64.5789C123.886 64.2794 123.971 64.2137 124.258 64.0716C124.31 64.0459 124.553 64.1471 124.563 64.1234C124.585 64.0744 124.444 63.9129 124.46 63.8159C124.488 63.6565 125.031 63.797 124.25 63.473C124.162 63.3212 124.074 63.1693 123.986 63.0175C124.15 63.0499 124.313 63.0823 124.477 63.1146C124.337 62.9924 124.196 62.8702 124.056 62.748C125.15 63.2996 124.646 62.6524 123.952 62.4859C124.265 62.4039 124.577 62.3219 124.889 62.2399C126.151 62.8248 125.214 61.9009 124.506 61.633C124.516 61.6124 124.526 61.5918 124.536 61.5712C124.956 61.5357 124.753 61.2451 125.079 61.1204C125.139 61.0974 125.192 61.0813 125.242 61.0714L126.911 58.6077L128.63 59.6637C128.689 59.8854 128.618 60.0576 128.487 60.5663C128.556 60.5541 128.624 60.5413 128.693 60.5292C129.632 59.0158 128.455 61.813 129.448 60.7648C129.189 61.8488 129.789 61.4703 130.172 61.2686C130.217 61.2452 130.3 61.0483 130.365 61.004C130.522 60.8976 130.662 61.255 130.921 60.6159C130.928 60.8354 130.937 61.056 130.942 61.2751C131.06 61.1889 131.179 61.1032 131.298 61.0175C131.382 60.8194 131.466 60.6212 131.55 60.423C131.4 61.1569 131.73 60.9916 131.768 61.1992C131.776 61.2411 131.663 61.5159 131.698 61.6191C131.736 61.7403 131.916 61.7224 131.971 61.8474C132.138 61.5609 132.304 61.2744 132.471 60.9881C132.708 60.8966 132.419 61.7178 132.489 61.8218C132.502 61.8404 132.843 61.9209 132.868 61.9117C133.068 61.8388 133.323 61.1424 133.664 61.465C133.724 61.5227 133.68 61.7827 133.741 61.8209C133.847 61.8875 134.427 61.5085 134.67 61.029C134.539 61.7052 135.021 61.6177 135.051 61.8429C135.06 61.912 134.895 62.3066 134.959 62.4347C135.013 62.5396 135.36 62.3182 135.442 62.4172C135.528 62.5235 135.421 62.8689 135.46 62.914C135.498 62.9562 135.658 62.7099 135.721 62.7397C135.915 62.8364 135.908 63.3439 136.06 63.4203C136.282 63.533 136.828 62.8352 137.173 62.5708C137.199 62.6429 137.169 62.8314 137.218 62.8547C137.693 63.0879 138.184 63.4177 138.635 63.7624C138.855 63.8974 139.059 64.0439 139.246 64.1965C139.738 64.5478 139.825 66.2104 140.909 64.5709C141.338 64.4618 141.646 66.0313 141.716 66.2164C141.836 66.4148 142.23 66.3925 142.331 66.5566C142.625 67.0495 142.557 67.4917 143.064 67.9757C143.195 68.1015 143.645 68.1421 143.672 68.2425C143.704 68.3648 143.357 68.5989 143.373 68.7472C143.418 69.1019 143.684 69.7039 143.665 70.0385C143.662 70.0998 143.319 70.1762 143.223 70.2737C142.847 70.6481 142.915 70.9667 144.024 70.797C143.433 71.2769 144.031 71.5925 144.075 71.9861C144.177 72.8063 143.79 74.1958 144.118 74.9555C144.33 75.4389 144.827 75.5485 144.249 76.0998C144.12 76.2202 143.958 76.3289 143.8 76.4675C143.425 76.8032 142.438 76.8331 143.387 77.4999C142.961 77.8263 143.002 78.2593 141.995 78.164C142.188 78.2934 142.38 78.4246 142.572 78.5575C142.553 78.6105 142.534 78.6647 142.515 78.7183C142.31 78.6397 142.105 78.5603 141.901 78.4801C141.686 78.7927 142.231 79.6696 142.03 79.9833C141.733 80.5038 140.471 81.5613 139.834 81.7352C139.508 81.8359 139.806 82.1957 139.033 81.5976C139.029 81.6909 139.024 81.7846 139.018 81.8788C139.124 82.0657 139.228 82.2545 139.329 82.4449C139.016 82.7211 138.429 82.7441 138.104 82.9507C137.54 83.3343 136.711 84.345 135.854 84.1743C135.641 84.1345 135.327 83.7623 135.163 83.801C134.924 83.8555 134.986 84.58 134.638 84.6416C134.032 84.7553 132.996 83.9198 132.526 83.9245C132.375 83.9282 132.283 84.1874 132.178 84.203C131.746 84.2707 131.389 84.1799 130.905 84.4897C130.652 83.7127 130.943 82.8608 131.084 81.9649C131.184 81.2867 131.454 79.7185 131.626 79.1475C131.743 78.7453 131.971 78.2539 132.093 77.8091C132.44 77.5341 132.387 77.938 132.441 78.6159C132.826 78.6757 133.173 78.6848 133.491 78.6523C133.526 78.903 133.567 79.1533 133.614 79.4028C133.614 79.4033 133.614 79.4038 133.614 79.4044C133.784 79.6862 133.796 79.0332 133.841 78.8803C134.09 78.1402 134.321 78.0005 134.734 77.9124C135.133 77.8353 135.731 77.7305 136.062 77.4655C136.214 77.3538 136.274 76.6915 136.682 76.7938C136.791 76.8213 137.126 77.0157 137.161 76.9907C137.147 76.5694 137.096 76.1593 137.018 75.7614C137.855 75.3478 137.61 74.4115 137.629 73.7073C137.743 71.7535 136.924 69.8051 136.472 69.375C136.393 69.278 136.203 69.4247 136.184 69.334C136.134 69.3011 136.088 69.264 136.047 69.2218C135.899 69.072 136.077 68.4702 135.654 68.7909C135.72 68.6364 135.785 68.4818 135.85 68.3272C135.566 68.4234 135.278 68.7133 135.035 68.6487C134.827 68.5921 134.308 68.3902 134.164 68.2564C134.088 68.1878 134.248 67.9157 134.165 67.8808C134.023 67.8238 133.546 68.0867 133.351 68.0008C133.175 67.9231 133.023 67.4613 132.869 67.4503C132.307 67.4051 131.561 67.6612 131.102 67.3036C130.978 67.2049 130.955 66.751 130.907 66.7424C130.811 66.7263 130.625 67.076 130.547 67.0971C130.148 67.2025 129.872 66.5716 129.59 66.4298C128.668 65.9662 127.608 65.706 126.722 65.28C126.652 65.2467 126.575 65.2126 126.496 65.1785L130.656 63.4502C130.371 64.0449 130.026 64.8825 129.574 65.2654C129.462 65.3596 129.081 65.1536 129.036 65.2544C128.987 65.3662 129.228 65.5442 129.227 65.6059C129.219 66.0338 129.139 66.9504 128.716 67.1714C128.635 67.2134 128.304 67.1242 128.288 67.1636C128.279 67.1833 128.472 67.3208 128.466 67.3922C128.418 68.0223 128.119 68.3661 127.812 68.8691C127.224 69.8332 127.096 71.1934 126.41 72.176C126.261 72.3902 125.577 72.2813 125.568 72.317C125.549 72.3948 125.941 72.6225 125.979 72.8139C126.1 73.4484 125.371 73.9111 125.374 74.4655C125.376 74.7393 125.761 75.2841 125.778 75.5604C125.792 75.7811 125.399 76.1158 125.594 76.2967C125.712 76.4063 126.149 76.6248 126.179 76.7075ZM121.895 67.5915C122.594 67.9371 122.149 67.3396 121.711 67.2977C121.612 67.2882 121.713 67.5018 121.895 67.5915ZM137.484 64.4641C137.571 64.259 137.657 64.0539 137.744 63.8488C137.663 63.9141 137.582 63.9799 137.5 64.0451C137.472 64.1787 137.442 64.3118 137.412 64.4452C137.436 64.4514 137.46 64.4577 137.484 64.4641Z" fill="black"/>
</svg>
