<svg width="190" height="193" viewBox="0 0 190 193" fill="none" xmlns="http://www.w3.org/2000/svg">
<path d="M6.24309 106.557C6.06153 106.152 6.29043 105.478 6.18951 104.98C5.77814 102.893 5.879 102.062 5.66809 100.171C5.2477 97.3772 3.91324 89.045 6.68957 88.8901C6.68964 88.8901 6.68971 88.8901 6.68978 88.8901C6.71623 88.8884 6.74304 88.8876 6.77022 88.8875C7.28548 88.8861 7.89226 89.5394 8.48106 89.5967C9.07019 89.6537 12.8134 89.3197 13.0976 90.2072C13.466 91.4963 12.8985 94.7822 13.0608 95.4812C13.1622 95.9639 13.5931 96.5042 13.7565 97.1017C14.2902 99.0337 14.2614 100.127 15.5637 101.652C15.2498 102.463 14.9467 103.278 14.6553 104.1C15.1125 104.965 14.8831 106.509 15.0887 107.062C15.2539 107.509 15.7046 107.657 15.8694 108.118C16.059 108.642 15.9218 109.573 16.3158 110.509C16.9633 112.035 18.0198 111.951 18.4894 112.812C18.9759 113.7 19.0742 115.375 19.9305 116.413C20.0977 116.515 20.265 116.616 20.4323 116.716C20.6136 116.507 20.7956 116.3 20.9781 116.093C21.3455 116.624 20.9982 117.1 21.2413 117.638C21.5273 118.269 22.1259 118.381 22.33 118.799C22.4979 119.144 22.3782 119.776 22.6327 120.214C22.9988 120.845 23.4256 120.439 23.6993 120.73C23.7975 120.854 25.4624 123.192 25.5556 123.317C26.1921 124.35 25.5909 124.845 26.0514 125.713C27.3472 128.13 29.4737 130.049 31.1934 131.83C31.9602 132.626 32.659 133.532 33.2876 134.426C30.6258 134.411 32.1018 138.37 33.4121 135.197C33.9128 136.396 35.1032 136.435 35.7937 137.286C35.7972 137.29 35.8008 137.294 35.8043 137.299C36.3697 137.972 36.4971 138.695 37.345 139.539C38.8918 141.068 41.409 142.067 40.1379 143.977C42.1219 145.668 42.7874 147.885 44.9252 147.512C45.4234 147.981 45.4716 150.083 45.7298 150.777C46.0657 151.436 48.2997 156.392 48.5898 157.239C48.9497 158.039 49.5463 159.478 49.981 160.114C50.5166 160.888 52.6877 160.878 50.9805 163.234C51.7527 165.023 51.8731 165.736 52.0228 167.539C52.0475 167.866 51.7134 167.981 51.7541 168.165C51.8387 168.545 52.2278 169.129 52.3885 169.809C52.6492 170.914 52.0159 171.676 53.1097 171.369C53.4153 172.074 53.711 172.798 53.9946 173.512C53.8131 173.802 53.6298 174.088 53.445 174.371C53.7275 174.732 54.0085 175.102 54.287 175.468C52.6212 175.19 53.8556 177.816 54.6977 176.84C54.5006 178.287 54.28 179.694 54.067 181.086C52.1983 181.07 54.14 184.073 55.1198 183.676C55.1349 183.827 55.1503 183.977 55.1661 184.126C54.9094 185.156 55.1741 186.058 55.2976 187.1L51.508 183.91C51.8716 183.927 52.2519 183.964 52.656 184.044C54.3403 184.375 54.1822 184.555 54.6944 185.408C55.0908 185.359 55.4871 185.31 55.8835 185.261C57.9632 182.924 57.5956 186.971 61.157 185.178C62.2948 186.647 65.0997 185.875 66.9594 185.43C67.1758 185.378 67.1795 185.093 67.4677 185.005C68.1723 184.793 69.9703 185.16 69.9089 184.24C70.5313 184.506 71.1537 184.772 71.7761 185.038C72.2848 184.871 72.7936 184.704 73.3023 184.537C73.2997 184.25 73.2971 183.963 73.2946 183.675C74.319 184.654 75.9287 184.278 76.7227 184.512C76.8807 184.559 76.9149 184.955 77.4061 185.063C77.9801 185.192 79.0499 185.074 79.734 185.198C79.9999 184.759 80.2659 184.321 80.5318 183.882C81.7551 183.644 82.1851 184.802 82.9035 184.892C83.0328 184.908 85.3925 184.824 85.5197 184.8C86.5605 184.604 86.2657 183.617 89.276 183.828C89.812 183.867 90.2456 184.208 90.7301 184.222C91.5861 184.247 94.1652 183.472 94.368 182.757C95.4062 183.652 98.1838 183.286 99.002 183.545C99.2489 183.625 99.3047 184.195 100.064 184.316C100.679 184.415 102.264 183.959 103.044 184.035C103.872 184.118 104.168 184.597 104.539 184.631C104.89 184.663 105.213 184.276 105.691 184.278C107.183 184.292 108.534 184.914 109.712 184.926C111.418 184.944 112.924 183.799 114.35 183.29C114.704 183.364 115.052 183.61 115.423 183.612C120.016 183.648 125.197 183.859 129.803 184.105C129.96 184.113 130.135 184.129 130.323 184.151L126.718 187.756C126.99 185.391 128.148 180.924 125.745 182.239C125.291 181.496 126.336 176.093 126.352 175.065C126.368 174.037 125.903 173.223 125.896 172.415C125.876 169.978 126.211 168.262 125.806 165.295C125.7 164.529 125.149 163.708 125.155 163.254C125.164 162.708 125.697 162.12 125.731 161.411C125.796 159.989 125.681 157.53 125.699 155.823L125.901 150.105L131.167 151.277C131.398 151.323 131.721 151.388 131.958 151.444C132.212 151.507 132.279 151.994 132.634 152.203C134.16 153.044 135.938 153.265 135.862 151.743C137.759 152.894 139.781 152.396 141.67 152.583C145.628 153.021 153.057 153.95 155.795 152.961C156.65 152.677 156.916 152.339 157.145 152.134C157.232 152.04 157.328 151.947 157.17 152.032C157.069 152.097 156.927 152.157 156.511 152.57C156.17 152.9 155.378 153.959 155.302 155.272C155.288 155.463 155.288 155.649 155.3 155.823C155.424 155.151 155.58 154.473 155.72 153.636C156.08 151.525 157.318 149.592 155.826 147.981C156.213 145.627 155.939 143.767 157.214 142.025C156.908 141.82 156.602 141.615 156.297 141.41C156.289 141.123 156.281 140.835 156.274 140.547C156.566 140.457 156.857 140.368 157.149 140.278C157.228 138.22 156.029 135.602 156.037 133.86C156.046 132.046 156.23 128.424 156.463 125.303L156.635 120.464L161.143 120.726C162.749 120.888 164.452 120.965 165.416 121.049C166.807 121.16 166.809 120.523 167.725 121.721C168.02 121.6 168.32 121.474 168.608 121.348C168.762 121.044 168.912 120.74 169.058 120.436C170.735 120.195 172.77 120.207 174.091 119.715C174.991 119.404 175.948 118.745 176.125 118.368C176.22 118.185 176.08 118.221 176.01 118.362C175.937 118.499 175.957 118.537 175.897 118.327C175.659 117.535 175.435 116.713 175.304 115.953C175.166 115.156 175.378 114.017 175.101 113.269C174.697 112.181 173.697 112.248 173.168 110.874C172.259 108.503 171.591 103.659 170.625 101.433C170.34 100.773 169.884 100.591 169.667 100.142C168.753 98.2657 168.148 96.6616 166.896 95.0126C166.957 92.6763 168.13 92.4072 168.998 91.3411C169.653 90.5385 171.022 88.3092 171.678 87.8142C172.139 87.4635 173.018 87.7274 173.508 87.2985C174.929 89.5199 174.828 90.7233 174.804 92.997C176.267 96.5862 177.718 100.183 179.143 103.803C178.955 104.25 178.771 104.706 178.582 105.153C178.581 105.154 178.581 105.154 178.58 105.154C178.75 106.687 179.777 106.97 180.246 107.661C181.613 109.703 182.937 112.431 184.084 115.848C184.58 117.338 184.756 119.5 183.933 121.461C183.128 123.423 181.714 124.693 180.473 125.518C177.927 127.142 175.619 127.644 173.425 128.069C169.057 128.823 165.199 128.77 162.083 128.742C161.79 128.737 161.447 128.743 160.963 128.745L164.483 125.303C164.541 127.692 164.804 132.191 164.339 133.259C164.197 133.592 163.68 133.668 163.657 134.014C163.965 137.088 164.272 140.16 164.58 143.233C164.053 147.37 164.157 151.622 164.326 155.823C164.414 157.692 163.04 159.378 162.088 159.968C161.13 160.625 160.3 160.902 159.596 161.123C158.146 161.55 156.859 161.705 155.656 161.807C146.399 162.28 138.12 161.053 129.593 159.753L134.321 155.823C134.453 164.496 134.527 173.133 134.464 181.741C134.451 183.577 134.566 185.689 134.627 187.756L134.774 191.901L130.323 192.06C128.705 192.107 127.115 192.12 125.708 192.01C124.371 191.907 123.814 191.077 122.057 191.695C122.039 191.472 122.02 191.248 122.002 191.025C120.469 191.295 119.489 191.803 117.771 191.855C116.323 191.898 112.494 191.931 111.215 191.846C110.552 191.803 110.799 191.385 110.181 191.387C109.122 191.394 106.86 191.972 105.399 191.972C104.075 191.972 101.844 191.49 100.827 191.56C97.1623 191.807 93.1708 192.521 89.2657 192.33C88.1869 192.276 86.7994 191.734 86.4616 191.749C85.8018 191.78 85.6052 192.307 85.1619 192.374C82.9104 192.716 79.4007 192.091 77.1937 192.066C70.0023 191.985 62.3838 192.215 55.2233 192.118C54.1299 192.103 52.8617 192.098 51.508 192.092L48.0161 192.216L47.2354 188.495C46.4656 183.863 46.2712 178.813 46.1862 175.787C46.1706 174.923 46.7706 175.082 46.6774 174.36C46.5724 173.569 46.1201 173.193 46.0331 172.838C45.4945 170.291 43.7264 165.166 43.1391 162.895C43.0411 162.448 43.3334 161.982 43.2243 161.733C43.1699 161.608 42.7656 161.45 42.5577 161.071C40.7225 157.796 39.4323 155.372 37.2713 152.271C35.2055 149.345 32.5127 146.491 29.564 143.772C26.2159 140.651 23.3288 137.165 21.0114 133.569C20.0082 132.007 20.0907 130.459 19.9465 130.252C19.6294 129.785 18.9253 129.802 18.2024 128.896C15.7793 125.873 14.0219 120.971 12.3609 117.742C11.5217 116.149 9.92672 114.112 9.18598 112.457C8.5789 111.163 7.88822 107.826 7.41465 107.313C7.11718 106.995 6.44226 106.991 6.24309 106.557ZM37.898 140.831C36.9782 141.361 39.4011 142.698 39.1347 141.59C39.0747 141.337 38.1411 140.692 37.898 140.831ZM121.57 185.433C121.546 185.136 121.523 184.839 121.5 184.542C121.168 184.665 120.836 184.789 120.504 184.912C120.691 185.091 120.877 185.269 121.064 185.448C121.232 185.443 121.401 185.438 121.57 185.433Z" fill="black"/>
<path d="M35.3445 28.2305C35.2857 28.388 34.8589 28.2616 34.7152 28.3758C34.114 28.8501 33.72 28.8707 33.1316 29.2734C32.2318 29.8617 30.6755 32.5398 28.5516 30.8978C28.5516 30.8978 28.5515 30.8978 28.5515 30.8977C28.5307 30.8813 28.5098 30.8644 28.4889 30.8471C28.091 30.5198 27.8251 29.9502 27.3973 29.5529C26.9694 29.1555 24.0069 26.8352 24.1208 26.3583C24.3064 25.6785 26.0222 25.1572 26.2147 24.8827C26.3444 24.6917 26.2786 24.2526 26.4325 23.9935C26.9305 23.1597 27.4509 22.9765 27.3974 21.7063C27.9903 21.8027 28.5788 21.9082 29.1626 22.0224C29.3209 21.5495 30.2562 21.5536 30.4259 21.3487C30.5665 21.1785 30.3994 20.8062 30.5576 20.6379C30.7346 20.4467 31.304 20.4961 31.6151 20.1409C32.1257 19.5631 31.5806 18.7052 31.8593 18.3051C32.1499 17.8901 33.0799 17.8438 33.3494 17.1853C33.3427 17.0499 33.3363 16.9143 33.3305 16.7786C33.1327 16.6138 32.9344 16.4496 32.7356 16.2859C32.9162 15.9981 33.3379 16.324 33.5743 16.1568C33.8529 15.9607 33.7017 15.4655 33.8904 15.3293C34.0451 15.2183 34.4825 15.3839 34.6663 15.2219C34.9362 14.9873 34.5458 14.5721 34.643 14.3737C34.6788 14.293 35.685 13.2246 35.7536 13.1784C36.2559 12.8183 36.7237 13.4378 37.1671 13.233C38.3949 12.6656 39.2554 11.4299 40.2402 10.6149C40.6773 10.252 41.2141 10.0148 41.7645 9.86785C41.9219 12.0175 44.3 12.5201 42.2577 10.0885C43.0013 10.2023 43.0141 9.26195 43.6035 9.13331C43.9836 9.05234 44.4034 9.32746 44.8812 9.09337C45.7194 8.67837 46.2031 7.14109 47.3154 9.0671C48.1732 8.27962 49.343 8.68223 49.014 6.72117C49.2429 6.50431 50.332 7.33412 50.6808 7.37519C51.0153 7.40167 53.3379 7.15267 53.6984 7.07533C54.0598 6.98795 54.6921 6.82198 54.9369 6.5685C55.243 6.25362 54.9415 4.23283 56.2788 6.30349C57.007 5.89438 57.3045 5.88219 58.0992 5.95183C58.2433 5.9646 58.3483 6.29959 58.4247 6.2796C58.5818 6.23784 58.7843 5.9165 59.0597 5.81305C59.5138 5.64295 59.9572 6.2939 59.6324 5.2131C59.8927 4.95342 60.1556 4.69466 60.4212 4.43684C60.5804 4.62243 60.739 4.80835 60.897 4.99461C61.0073 4.72504 61.1191 4.45559 61.2322 4.18624C61.4037 5.81922 62.352 4.61782 61.7701 3.78985C62.4462 3.98411 63.1151 4.18552 63.7837 4.39224C64.0731 6.22313 65.138 4.33793 64.8318 3.37264C64.9009 3.3607 64.97 3.34882 65.0391 3.337C65.7335 3.7052 66.214 3.20604 67.0122 3.40137C67.8045 3.59896 67.7631 3.7907 68.1263 4.59375C68.289 4.51692 68.4521 4.44039 68.6156 4.36416C69.1484 1.91144 69.6271 5.92788 70.8877 3.92915C71.5867 5.31091 72.6923 4.37928 73.437 3.83749C73.524 3.77435 73.49 3.49122 73.6041 3.38834C73.8837 3.13967 74.7101 3.41023 74.5764 2.50024C74.8798 2.73252 75.1846 2.9654 75.4838 3.19965C75.685 3.00881 75.8873 2.81833 76.0906 2.62822C76.0588 2.34288 76.0269 2.05754 75.995 1.77221C76.5466 2.69657 77.2089 2.25083 77.5808 2.44966C77.6546 2.49008 77.7083 2.88267 77.9332 2.96945C78.1978 3.07259 78.6463 2.91283 78.9549 3.00928C79.0306 2.56192 79.1072 2.11458 79.1849 1.66728C79.7 1.38306 79.9869 2.52136 80.3073 2.58502C80.3661 2.59513 81.3863 2.4307 81.4386 2.40262C81.8757 2.17372 81.6725 1.19643 83.0078 1.31601C83.2456 1.33824 83.459 1.66629 83.6716 1.66631C84.0428 1.66624 85.1212 0.826578 85.1718 0.107827C85.6786 0.97488 86.8767 0.546499 87.2442 0.788851C87.3557 0.863217 87.4069 1.43157 87.7427 1.53769C88.0144 1.62412 88.6865 1.13804 89.0319 1.20093C89.399 1.26956 89.544 1.74365 89.7061 1.77142C89.859 1.79721 89.985 1.40555 90.1927 1.40041C90.8416 1.39089 91.4494 1.99471 91.9632 1.99139C92.7055 1.98808 93.3243 0.827588 93.9381 0.305771C94.0943 0.376659 94.2513 0.619225 94.4134 0.618235C96.4161 0.613646 98.6692 0.803209 100.67 1.04639C100.809 1.06295 100.978 1.11139 101.163 1.17347L101.103 1.17398C102.222 1.50622 103.83 2.32474 103.317 0.1114C103.658 -0.349158 106.101 0.764606 106.551 0.813311C107.018 0.852222 107.415 0.410002 107.783 0.427058C108.883 0.480866 109.649 0.878253 111.028 0.618661C111.38 0.550366 111.83 0.048724 112.038 0.0806892C112.29 0.12054 112.492 0.683244 112.809 0.759804C113.555 0.933302 115.03 0.986025 115.74 1.20982C115.87 1.25134 115.833 1.72004 115.996 1.89839C116.639 2.59613 117.457 2.7167 117.617 1.22433C118.387 2.24922 119.443 1.69832 120.335 1.87337C122.243 2.2284 125.473 3.61579 127.263 3.64702C128.407 3.6632 128.643 3.02644 129.887 4.17905C130.163 4.43677 130.415 4.736 130.738 5.04989C131.501 5.78955 131.76 7.29178 133.098 6.299C133.909 7.14527 134.81 7.32721 134.885 8.83783C135.119 8.61906 135.354 8.40124 135.59 8.18436C135.711 8.24517 135.831 8.30635 135.951 8.3679C135.84 8.64078 135.728 8.91336 135.615 9.18565C136.383 9.72684 138.054 9.36242 138.737 9.828C139.899 10.5789 142.458 13.0687 143.167 14.2056C143.554 14.8006 143.99 14.3534 143.445 15.5782C143.616 15.6082 143.788 15.6391 143.96 15.6708C144.216 15.5214 144.474 15.3732 144.732 15.226C145.399 15.8003 145.858 16.8233 146.453 17.3961C147.539 18.4248 149.674 19.5608 150.282 21.0515C150.435 21.4237 150.297 22.1578 150.536 22.4348C150.884 22.8396 151.713 22.3317 152.159 22.8593C152.936 23.7728 153.342 26.1988 154.025 27.0494C154.231 27.3043 154.613 27.2286 154.772 27.3954C155.443 28.0933 155.842 28.7624 156.798 29.2474C156.534 30.5719 155.465 31.1136 154.589 31.9855C153.93 32.647 152.454 34.2812 151.81 34.7553C151.36 35.0903 150.622 35.2487 150.136 35.6346C149.188 34.9899 149.429 34.3527 149.705 33.1692C148.832 31.8565 147.915 30.5813 146.949 29.3474C147.133 29.0327 147.314 28.7163 147.493 28.3983C147.494 28.3979 147.495 28.3974 147.495 28.397C147.431 27.6738 146.587 27.9979 146.233 27.8657C142.911 26.5686 139.849 21.354 137.199 19.1129C136.652 18.6086 134.475 17.6009 134.354 16.8824C134.325 16.6922 134.58 16.2415 134.475 16.1449C133.261 15.7112 132.041 15.3296 130.813 14.9967C128.978 13.0519 126.25 12.529 123.824 11.7664C117.195 9.67149 110.318 9.03867 103.437 8.83266C102.771 8.81201 102.005 8.9055 101.236 8.98131L101.163 8.98193C100.383 9.04304 99.612 9.07785 98.9409 8.95855C98.3755 8.85871 98.1307 8.03029 97.3883 8.65667C97.3781 8.43313 97.3678 8.20959 97.3575 7.98606C96.7071 8.26329 96.2988 8.77754 95.5744 8.84108C94.9615 8.89275 93.3366 8.96098 92.798 8.89094C92.517 8.85568 92.6116 8.43508 92.3484 8.4445C91.8966 8.46353 90.9562 9.0708 90.3425 9.09334C89.7893 9.11277 88.8212 8.67027 88.3949 8.75937C86.8619 9.0746 85.2212 9.8782 83.5777 9.79813C83.1213 9.77458 82.5015 9.2764 82.361 9.30211C82.087 9.35405 82.045 9.88519 81.8659 9.96682C80.9543 10.3788 79.4378 9.88254 78.5172 9.94835C75.5156 10.1571 72.3907 10.7842 69.4533 11.1755C67.5903 11.4132 64.5743 12.105 62.8125 12.1203C62.4315 12.1217 62.3951 11.5379 62.0902 11.6107C61.7522 11.6919 61.6635 12.1152 61.5151 12.1843C60.4713 12.6609 58.2244 13.6914 57.1158 13.6255C56.9037 13.6108 56.6319 13.2223 56.5164 13.2603C56.458 13.2787 56.4193 13.614 56.2477 13.7019C54.7383 14.4806 53.5387 14.7141 51.9773 15.2072C48.9726 16.1594 45.9755 18.2247 43.0602 19.6243C42.4242 19.9274 41.5365 19.4338 41.4545 19.496C41.277 19.6303 41.4809 20.2121 41.1932 20.5775C40.2384 21.7787 38.275 22.4133 37.3731 23.5292C36.9262 24.0754 36.7047 25.2582 36.3235 25.8206C36.0168 26.264 34.9012 26.8913 34.965 27.2991C35.0024 27.5435 35.4059 28.0574 35.3445 28.2305ZM45.6036 9.31435C45.9313 10.3049 46.6257 9.05046 46.0068 8.71487C45.8658 8.6394 45.5172 9.05685 45.6036 9.31435ZM97.1095 2.39642C97.0961 2.09967 97.0826 1.80293 97.0692 1.50619C96.9263 1.63138 96.7838 1.75666 96.6415 1.88203C96.7246 2.05944 96.8077 2.23689 96.8906 2.41437C96.9636 2.40836 97.0365 2.40238 97.1095 2.39642Z" fill="black"/>
<path d="M157.297 68.0953C156.17 63.5351 154.618 54.6664 153.749 49.6929L160.191 50.5786C160.17 50.6204 160.149 50.6619 160.128 50.7031C160.086 50.7852 160.044 50.8673 160.003 50.9495C159.463 52.0117 158.961 53.0208 158.373 54.2033C157.373 56.2142 156.123 58.7287 154.007 62.8666L153.188 64.5768L151.219 64.711C149.351 64.7894 147.186 64.875 144.641 64.969C142.842 65.075 141.042 65.1795 139.243 65.2825L142.114 63.0788C141.87 63.821 141.626 64.563 141.382 65.3049C138.251 74.8197 135.092 84.3253 131.913 93.8245L125.845 93.3776C122.978 76.2618 120.172 59.1353 117.385 42.0057L122.665 42.4317C122.487 42.9304 122.31 43.429 122.133 43.9277C122.019 44.2613 121.904 44.6007 121.787 44.9435C119.753 50.9225 117.278 58.1966 115.44 63.3235L114.85 65.102L112.913 65.1516C112.325 65.1526 111.763 65.1521 111.231 65.1498C107.088 65.1325 103.74 65.1073 100.89 65.0799L103.21 63.3621C102.582 65.1754 102.024 66.7738 101.51 68.2433C97.5801 80.1044 93.6568 91.9678 89.756 103.838L85.8248 103.325C85.4057 93.6685 84.9724 84.0122 84.5175 74.357C84.1907 67.4193 83.8524 60.4812 83.5005 53.5447C83.1764 47.1572 82.8436 40.7684 82.5034 34.3818C82.3154 31.5615 82.1265 28.8471 81.9453 26.2704L85.8414 26.6957C85.6393 27.4917 85.4408 28.2743 85.2459 29.0424C84.1112 33.5161 83.1007 37.4989 82.227 40.778C80.192 48.4159 77.7368 57.0032 75.8618 63.5483L75.4627 65.07L73.8404 65.1116C73.6065 65.1123 73.3751 65.113 73.1463 65.1137C72.0208 65.1172 70.9579 65.1205 69.9751 65.1242C67.9681 65.1658 65.961 65.2077 63.9539 65.2499L65.9294 63.8337C64.7951 67.1055 63.6614 70.3777 62.5283 73.6495C62.385 73.9862 62.2398 74.3252 62.0921 74.6697C60.2487 78.9689 58.3342 84.3789 55.3201 92.8943C55.0055 93.783 54.679 94.7056 54.3393 95.6643L50.7586 95.0472C50.7595 91.8203 50.7638 88.2064 50.7825 84.1254C50.7983 80.6668 50.9184 78.8902 51.0163 77.4386C51.0452 77.0116 51.0721 76.6111 51.0939 76.2058C51.1686 74.8163 51.0895 73.3516 50.9959 71.6214C50.8746 69.3767 50.7289 66.6836 50.8637 63.1262C51.2933 51.7908 51.0086 46.7957 50.7933 43.0173C50.7301 41.9089 50.673 40.9043 50.6415 39.8758C50.6176 39.0915 50.6051 38.2289 50.6018 37.3215L54.5655 37.9457C53.6716 40.7584 52.5393 43.9924 51.5939 46.5735C50.6138 49.2494 48.9715 54.7055 47.7802 58.8609C47.3909 60.2189 46.8327 61.9742 46.1737 64.0248L45.7015 65.5506L44.0605 65.4356C43.7234 65.4084 43.3786 65.3803 43.0266 65.3517C40.587 65.1533 37.7991 64.9263 34.8131 64.7273L36.8276 63.632C36.6898 63.8979 36.5515 64.1657 36.4127 64.4354C32.5588 71.9262 30.5044 75.9037 28.8527 79.1011C28.3817 80.0127 27.9429 80.8616 27.505 81.7099C26.9168 82.8494 26.2651 84.1038 25.5751 85.4275L20.8746 84.2431C20.8502 82.2241 20.8274 80.0604 20.8046 77.8814C20.7571 73.3458 20.7088 68.7427 20.643 65.2402C20.684 60.373 20.7299 55.5056 20.778 50.6384L25.614 52.0153C23.3642 55.5752 21.1131 59.134 18.8622 62.6926C18.349 63.5038 17.8323 64.3035 17.317 65.0845L16.6422 66.2037L15.2787 66.2387C11.6699 66.1846 8.30655 65.9988 5.68385 65.6969C2.38182 65.3164 0.52271 64.7861 0.514384 64.2098C0.506343 63.6335 2.35037 63.0516 5.64036 62.5791C8.25361 62.2042 11.6104 61.9243 15.2163 61.7694L13.5165 62.732C13.9856 61.9225 14.4709 61.1034 14.9681 60.2822C17.1492 56.6805 19.3306 53.0785 21.5134 49.4772L25.6396 42.8775L25.6005 50.6409C25.6462 55.8241 25.6894 61.0073 25.7268 66.1903C25.7703 72.2087 25.8062 78.2272 25.8295 84.2457L21.2106 83.0819C23.7576 78.292 26.3136 73.5069 28.8816 68.7286C30.1835 66.306 31.4869 63.8841 32.7916 61.463L33.5937 60.0116L35.1867 60.1607C38.2676 60.4163 41.3483 60.6738 44.4289 60.9331L41.8739 62.6388C42.5425 60.5813 43.2118 58.5242 43.8818 56.4673C44.1371 55.6837 44.3927 54.9 44.6482 54.1165C46.5764 47.6724 48.5128 41.2444 49.9199 36.7293C49.9467 36.6436 49.9733 36.5585 49.9997 36.4739L55.399 37.3241C55.429 41.0918 55.3538 43.8638 55.2892 46.2456C55.2438 47.9232 55.2035 49.4077 55.209 50.9098C55.2119 51.7164 55.2201 52.8183 55.2299 54.1471C55.27 59.5728 55.338 68.7877 55.195 77.1942C55.1316 80.9243 55.0082 85.2577 54.8903 89.3946C54.8346 91.3513 54.7801 93.2643 54.7338 95.0493L50.5927 94.3356C51.8862 90.9628 52.9732 88.0731 53.5662 86.306C55.1224 81.6693 57.0633 76.4072 58.7784 71.7576C60.1352 68.0794 61.3508 64.7838 62.1228 62.4837L62.5898 61.2144L63.8976 61.2114C64.3966 61.196 64.8495 61.1776 65.2504 61.1556C67.9962 61.0051 70.3486 61.0145 73.7835 61.0333L71.929 62.4675C71.9508 62.3936 71.9729 62.3192 71.995 62.2442C72.696 59.8748 73.5559 56.9667 74.6706 52.9997C75.9574 48.4198 76.9268 45.1957 77.7508 42.4554C78.9104 38.5986 79.7828 35.6968 80.8509 31.308C81.3039 29.4464 81.7732 27.555 82.2438 25.7071L85.6715 26.0813C85.886 29.1607 86.0618 32.133 86.1622 34.683C86.2363 36.562 86.3504 38.7099 86.4693 40.9447C86.6266 43.9034 86.7919 47.0152 86.8831 49.8595C86.9582 52.2035 86.9447 54.1446 86.9327 55.8622C86.9289 56.398 86.9255 56.9124 86.9248 57.4102C87.0209 59.2753 87.1176 61.1403 87.2155 63.0052C87.2489 63.3063 87.2849 63.6227 87.3222 63.9531C87.5098 65.6107 87.74 67.6487 87.9315 70.1765C88.2345 74.1775 88.3504 77.696 88.4723 81.4075C88.5671 84.2972 88.6656 87.3038 88.8597 90.7465C88.992 93.0941 89.1734 95.7656 89.3531 98.4138C89.4621 100.02 89.5705 101.618 89.6671 103.131L86.0923 102.664C86.7352 100.564 87.3381 98.6406 87.8502 97.1245C88.1745 96.1643 88.5073 95.3562 88.837 94.5567C88.8386 94.5532 88.8401 94.5497 88.8417 94.5462C88.8641 94.4919 88.8864 94.4374 88.9088 94.3831C90.8681 88.0947 92.8224 81.8041 94.7735 75.5131C94.9305 74.9641 95.0896 74.4094 95.2474 73.8597C96.0182 71.174 96.7673 68.5643 97.1948 66.8433C97.4421 65.8476 97.9565 64.0686 98.607 61.8866L99.1527 60.2501L100.823 60.2464C102.81 60.178 105.121 60.11 107.488 60.0403C109.278 59.9877 111.101 59.9341 112.84 59.8786L110.454 61.6049C110.915 60.1845 111.354 58.8214 111.746 57.5846C112.242 56.0191 112.818 54.5702 113.411 53.0799C113.964 51.6893 114.531 50.2615 115.061 48.6695C115.327 47.8721 115.594 47.0042 115.88 46.0779C116.131 45.2625 116.397 44.4003 116.687 43.5018C116.864 42.9552 117.213 41.9803 117.676 40.7123L122.584 41.1083C122.693 41.8119 122.813 42.6021 122.943 43.4573C123.176 44.9879 123.44 46.7271 123.726 48.5511C124.6 53.3516 125.473 58.1533 126.342 62.9547C126.578 63.9469 126.81 64.8033 127.033 65.4743C127.193 65.9557 127.355 66.3613 127.521 66.7778C127.747 67.3447 127.98 67.9313 128.228 68.7525C128.421 69.3944 128.586 70.1623 128.643 70.6872C128.669 70.9318 128.672 71.1225 128.675 71.2957C128.678 71.494 128.68 71.6711 128.717 71.8814C128.744 72.033 128.793 72.1873 128.852 72.377C128.947 72.68 129.071 73.0742 129.178 73.6877C129.58 75.9707 130.011 78.5701 130.433 81.1165C130.902 83.9481 131.361 86.7158 131.757 88.9156C131.932 89.8867 132.12 91.0234 132.316 92.2607L125.676 91.7717C126.303 89.951 127.026 87.9114 127.749 85.8698C128.582 83.5191 129.416 81.1648 130.107 79.1373C130.785 77.1503 131.426 75.0601 132.046 73.0359C132.79 70.6062 133.506 68.269 134.223 66.3184C134.368 65.924 134.614 65.456 134.923 64.8687C135.141 64.4525 135.393 63.9733 135.66 63.4218C135.904 62.6799 136.149 61.938 136.394 61.1963L137.024 59.3541L138.903 59.2701C140.763 59.1666 142.623 59.0648 144.483 58.9646C144.575 58.9475 144.671 58.93 144.766 58.9123C144.767 58.9119 144.769 58.9115 144.77 58.9112C146.325 58.6218 148.294 58.2555 150.844 58.0714L148.043 59.9244C148.463 59.0372 148.949 58.0886 149.518 57.0777C150.04 56.1516 150.431 55.5998 150.783 55.1026C151.13 54.6142 151.439 54.1778 151.797 53.4922C152.204 52.7134 152.61 51.7579 153.054 50.7163C153.459 49.7656 153.895 48.7427 154.389 47.7161L158.483 39.5349L160.109 48.5025C160.227 49.1044 160.333 49.7173 160.416 50.3352C160.432 50.4558 160.449 50.5855 160.468 50.7204C160.641 51.9999 160.897 53.8941 161.055 55.7971C162.04 61.3462 163.018 66.8977 163.989 72.4495C164.411 74.8625 164.833 77.2758 165.253 79.6893L160.777 79.1591C163.65 72.9489 166.529 66.7408 169.408 60.5341L169.986 59.282L171.316 59.2968C171.419 59.2982 171.522 59.2995 171.625 59.3008C176.195 59.3607 180.578 59.6238 183.81 60.047C187.042 60.4707 188.858 61.0166 188.858 61.5821C188.858 62.1476 187.043 62.6949 183.811 63.1219C180.58 63.5484 176.197 63.816 171.627 63.8806C171.524 63.882 171.421 63.8834 171.318 63.8849L173.595 62.4083C170.885 68.6901 168.174 74.9737 165.457 81.2538L161.889 89.3378L160.213 80.6328C160.113 80.1344 160.013 79.636 159.914 79.1376C159.83 78.7557 159.747 78.3722 159.665 77.9903C159.052 75.1491 158.4 72.5287 157.747 69.9064C157.597 69.3041 157.446 68.7006 157.297 68.0953Z" fill="black"/>
</svg>
