<svg width="290" height="85" viewBox="0 0 290 85" fill="none" xmlns="http://www.w3.org/2000/svg">
<path d="M112.852 38.1632C113.383 38.3394 114.269 38.9733 114.751 39.2946C114.76 39.3005 114.769 39.3065 114.778 39.3124C114.894 39.39 115.007 39.4584 115.14 39.538C115.459 39.7264 115.896 39.9893 116.776 40.5582C117.05 40.6956 117.33 40.8346 117.606 40.9704C120.569 42.4258 123.665 43.7079 126.861 44.7398C126.902 44.7502 126.944 44.7608 126.987 44.7714C127.795 44.9749 128.819 45.2023 129.445 45.398C130.238 45.6476 130.785 45.822 131.235 45.9659C133.835 46.5822 136.494 47.0057 139.174 47.168C140.013 47.2189 140.857 47.244 141.695 47.2414C142.47 47.239 143.247 47.2148 144.017 47.1695C144.465 47.1147 144.891 47.0488 145.285 46.9834C145.837 46.8917 146.323 46.8015 146.728 46.7456C147.708 46.6124 148.814 46.5223 149.643 46.4317C149.778 46.4172 149.906 46.4029 150.024 46.3889C150.672 46.2587 151.31 46.1154 151.951 45.9573C151.997 45.9609 152.043 45.9648 152.09 45.9689C152.68 46.0178 153.352 45.8685 154.408 45.5875C154.868 45.4643 155.399 45.3154 156.02 45.1404C156.421 45.0271 156.646 45.026 156.831 45.0252C156.885 45.0249 156.936 45.0244 156.987 45.0209C157.16 45.0089 157.315 44.9095 157.497 44.791C157.735 44.6365 158.009 44.4532 158.438 44.3782C159.808 44.1341 160.314 43.7338 160.68 43.4464C160.788 43.3608 160.886 43.283 160.993 43.217C161.337 43.0036 161.882 42.8219 162.311 42.7082C162.651 42.6198 163.236 42.2646 163.663 41.9538C163.824 41.8368 164.06 41.7134 164.337 41.5642C164.625 41.4091 164.952 41.2292 165.282 41.0032C166.115 40.4296 166.552 40.1068 166.903 39.8488C167.004 39.7744 167.093 39.7077 167.185 39.639C167.472 39.4226 167.832 39.1594 168.195 38.8855C168.627 38.5595 169.072 38.21 169.381 37.9385C170.269 37.346 171.183 36.6983 172.035 36.0521C172.478 35.7166 172.98 35.4757 173.442 35.3905C173.904 35.3057 174.288 35.3842 174.51 35.6276C174.732 35.8706 174.775 36.2631 174.626 36.7221C174.477 37.1808 174.145 37.6652 173.712 38.0607C172.851 38.8491 171.916 39.6421 170.988 40.3612C169.829 41.2588 168.65 42.0734 167.385 42.8234C166.51 43.3416 165.616 43.8247 164.7 44.2759C164.606 44.3222 164.512 44.368 164.418 44.4134C163.696 44.8672 162.945 45.2963 162.404 45.5643C161.956 45.7858 161.606 45.8865 161.306 45.9707C161.101 46.0283 160.917 46.0784 160.74 46.1533C160.645 46.1935 160.516 46.2502 160.36 46.3174C159.721 46.5947 158.644 47.0346 157.592 47.2886C157.128 47.4013 156.582 47.4964 156.062 47.5771C155.316 47.6943 154.616 47.7833 154.283 47.894C153.696 48.0897 152.997 48.2084 152.375 48.3012C151.783 48.39 151.267 48.4554 150.986 48.5616C150.651 48.688 150.344 48.7137 149.894 48.7448C149.581 48.7661 149.198 48.7903 148.684 48.8456C148.091 48.9088 147.661 48.9111 147.299 48.9107C146.79 48.9094 146.409 48.9041 145.852 49.0252C145.233 49.1595 144.572 49.2527 144.053 49.2494C143.816 49.2481 143.547 49.2617 143.267 49.2736C142.897 49.2894 142.501 49.3019 142.143 49.2754C141.847 49.2536 141.604 49.1902 141.39 49.1331C141.323 49.1153 141.259 49.0981 141.197 49.0829C140.963 49.0824 140.731 49.0807 140.497 49.0783C140.459 49.0879 140.419 49.0985 140.377 49.1094C140.166 49.164 139.906 49.23 139.586 49.2551C139.08 49.2945 138.64 49.2375 138.179 49.1723C137.818 49.1212 137.441 49.0648 137.009 49.0414C136.714 49.0254 136.378 49.0223 136.045 49.0161C135.554 49.0075 135.055 48.9898 134.721 48.9255C134.596 48.9014 134.492 48.8481 134.389 48.795C134.389 48.7947 134.389 48.7944 134.388 48.7941C134.381 48.7905 134.374 48.787 134.367 48.7834C133.547 48.7109 132.72 48.6231 131.898 48.5203C131.826 48.5185 131.753 48.5164 131.68 48.5141C131.326 48.5027 130.987 48.4887 130.753 48.5132C130.5 48.5403 129.891 48.4663 129.256 48.3754C128.84 48.3163 128.412 48.2505 128.053 48.2074C127.844 48.1826 127.661 48.0959 127.474 48.0059C127.3 47.922 127.122 47.8352 126.915 47.7924C126.812 47.771 126.697 47.7589 126.575 47.7456C126.467 47.7339 126.354 47.7216 126.236 47.7005C126.125 47.6807 125.89 47.5939 125.592 47.48C125.407 47.4097 125.199 47.3291 124.98 47.2477C124.385 47.0997 123.787 46.94 123.19 46.7682C123.056 46.7624 122.935 46.7717 122.832 46.8009C122.758 46.8219 122.69 46.8537 122.62 46.8861C122.526 46.9302 122.427 46.9755 122.306 46.9967C122.211 47.0132 122.111 46.9981 122.054 46.9579C122.027 46.9392 122.01 46.9154 121.995 46.8938C121.977 46.869 121.962 46.847 121.936 46.8385C121.918 46.8323 121.894 46.8374 121.866 46.8433C121.821 46.8528 121.761 46.8646 121.684 46.8386C121.401 46.7422 121.085 46.6168 120.78 46.4917C120.44 46.3527 120.111 46.2142 119.845 46.1189C119.545 46.0116 119.13 45.7941 118.728 45.5746C118.447 45.4213 118.169 45.2662 117.927 45.145C117.69 45.0262 117.417 44.9314 117.16 44.8406C116.851 44.7312 116.556 44.6236 116.336 44.4725C116.291 44.442 116.253 44.3681 116.207 44.2756C116.173 44.2101 116.135 44.135 116.087 44.0593C115.784 43.91 115.477 43.7532 115.18 43.5948C115.166 43.5954 115.152 43.5958 115.138 43.5964C115.138 43.5965 115.137 43.5966 115.137 43.5966C114.817 43.6095 114.383 43.6281 113.973 43.2542C113.867 43.1583 113.821 43.0627 113.78 42.9767C113.74 42.8922 113.704 42.8168 113.622 42.7589C113.53 42.6931 113.398 42.6559 113.255 42.6146C113.053 42.5567 112.829 42.4906 112.663 42.3297C112.652 42.3187 112.64 42.3068 112.627 42.2946C112.511 42.1811 112.319 42.0001 112.171 41.7765C111.567 41.3653 110.998 40.9493 110.417 40.494C109.478 39.7559 108.57 38.959 107.698 38.0827C107.291 37.6716 106.974 37.154 106.86 36.6907C106.746 36.2264 106.83 35.8535 107.067 35.6346C107.306 35.4157 107.676 35.3605 108.114 35.4598C108.552 35.5599 109.031 35.8122 109.443 36.1322C110.139 36.6777 110.841 37.1667 111.586 37.6496C111.626 37.6709 111.667 37.6925 111.707 37.7142C112.006 37.8759 112.318 37.9843 112.633 38.09C112.706 38.1143 112.779 38.1385 112.852 38.1632ZM99.8301 32.1001C99.2311 31.6082 98.4461 30.3858 98.0638 29.6986C98.0566 29.686 98.0493 29.6734 98.0421 29.6608C97.9492 29.4976 97.8575 29.345 97.7519 29.1653C97.5077 28.7428 97.1583 28.16 96.6267 26.884C96.4436 26.5252 96.2688 26.1627 96.1029 25.7975C94.3281 21.846 93.3203 17.5222 93.5414 13.0961C93.5418 13.0406 93.5425 12.9843 93.5433 12.9274C93.5516 11.8072 93.7114 10.4176 93.9738 9.55481C94.2946 8.47144 94.6389 7.75459 94.9468 7.19085C96.4314 3.74667 100.265 1.56329 103.759 1.5131C104.094 1.49412 104.437 1.48614 104.789 1.48928C105.562 1.49704 106.261 1.52992 107.009 1.59704C108.006 1.68764 108.988 1.83953 109.949 2.07309C110.519 2.18183 111.089 2.31969 111.576 2.46239C112.301 2.67806 112.903 2.91601 113.408 3.17922C114.599 3.78063 115.784 4.85134 116.47 5.75284C116.586 5.90044 116.691 6.04226 116.785 6.1748C117.35 6.8771 117.83 7.65905 118.208 8.47106C118.22 8.53127 118.231 8.59214 118.242 8.65405C118.372 9.42646 118.686 10.2849 118.922 11.7052C119.02 12.3104 119.098 13.0369 119.106 13.8701C119.109 14.4161 119.031 14.6855 118.969 14.9072C118.951 14.9723 118.933 15.0333 118.918 15.0951C118.867 15.3066 118.9 15.5346 118.932 15.8068C118.975 16.1518 119.02 16.5755 118.868 17.1132C118.376 18.7917 118.319 19.5395 118.296 20.14C118.288 20.3117 118.279 20.468 118.253 20.624C118.171 21.1313 117.893 21.8121 117.634 22.2978C117.431 22.6879 117.184 23.5148 116.998 24.1532C116.928 24.3958 116.795 24.7034 116.63 25.0635C116.459 25.436 116.253 25.8658 116.053 26.332C115.541 27.513 115.219 28.1202 114.964 28.6091C114.891 28.7482 114.821 28.8774 114.751 29.0062C114.53 29.4138 114.237 29.9059 113.923 30.3989C113.549 30.9887 113.149 31.5721 112.844 32.0223C111.948 33.0969 110.968 34.1164 109.921 35.0522C109.379 35.5374 108.76 35.8821 108.212 36.0185C107.666 36.153 107.254 36.065 107.053 35.8048C106.852 35.5432 106.871 35.1313 107.076 34.6456C107.286 34.1569 107.652 33.6394 108.108 33.1648C109.019 32.2169 109.865 31.1879 110.641 30.1227C111.589 28.8211 112.446 27.4523 113.226 26.0456C113.772 25.0598 114.272 24.0512 114.72 23.0196C114.766 22.9133 114.811 22.8069 114.856 22.7003C115.136 21.7975 115.367 20.8909 115.531 20.2516C115.667 19.7265 115.807 19.3632 115.926 19.041C116.006 18.8212 116.075 18.6263 116.115 18.424C116.137 18.3148 116.164 18.1687 116.194 17.9848C116.321 17.2402 116.468 16.0001 116.582 14.8625C116.635 14.3683 116.698 13.7698 116.724 13.2187C116.764 12.4104 116.715 11.6668 116.605 11.3083C116.418 10.6843 116.232 9.96906 115.997 9.35775C115.778 8.77844 115.52 8.29417 115.305 8.06988C115.049 7.80296 114.892 7.54142 114.618 7.16387C114.431 6.90899 114.181 6.59205 113.78 6.23225C113.318 5.82082 112.962 5.53318 112.661 5.30317C112.221 4.97553 111.878 4.75219 111.277 4.57944C110.609 4.38978 109.918 4.23402 109.377 4.0732C109.135 4.00074 108.847 3.93946 108.537 3.884C108.109 3.80759 107.718 3.75426 107.32 3.67713C107 3.61457 106.715 3.52559 106.483 3.45181C106.411 3.42888 106.342 3.40729 106.275 3.38817C106.018 3.3727 105.755 3.36188 105.487 3.35616C105.444 3.36521 105.398 3.37542 105.35 3.3861C105.19 3.42154 105.005 3.46375 104.789 3.50009C104.681 3.5187 104.568 3.53633 104.449 3.5516C103.888 3.62472 103.454 3.62786 102.934 3.6707C102.543 3.70401 102.159 3.75265 101.713 3.89773C101.414 3.99552 101.106 4.13367 100.793 4.30134C100.341 4.54296 99.9385 4.82996 99.6443 5.00792C99.5341 5.07402 99.4227 5.10688 99.3111 5.14306C99.3106 5.14317 99.31 5.14328 99.3095 5.14339C99.3018 5.14592 99.2942 5.14853 99.2866 5.15109C98.635 5.70001 98.0996 6.36969 97.6849 7.11419C97.6549 7.18283 97.6252 7.25259 97.5966 7.32223C97.457 7.66145 97.3505 7.99619 97.3195 8.23556C97.283 8.49642 97.0931 9.08076 96.966 9.73707C96.882 10.1593 96.819 10.622 96.8013 10.9877C96.79 11.2046 96.7206 11.4038 96.6529 11.615C96.5899 11.8123 96.5296 12.0081 96.5224 12.2362C96.5188 12.3498 96.5278 12.4741 96.539 12.6072C96.5489 12.7238 96.5605 12.8506 96.567 12.9774C96.5729 13.0951 96.5428 13.3561 96.5167 13.7002C96.5005 13.9117 96.4863 14.1609 96.4806 14.4104C96.5352 15.0771 96.622 15.7513 96.7349 16.4183C96.7898 16.554 96.8541 16.6694 96.9283 16.7569C96.9815 16.8197 97.0415 16.8685 97.1032 16.9196C97.1871 16.9889 97.274 17.0599 97.3519 17.1641C97.4127 17.2456 97.4493 17.3474 97.4431 17.4215C97.4402 17.456 97.4281 17.4844 97.4173 17.5102C97.4049 17.5397 97.3939 17.5661 97.3997 17.5948C97.4039 17.6155 97.4202 17.6349 97.44 17.6586C97.4716 17.6966 97.5126 17.7458 97.5301 17.8295C97.596 18.1434 97.6607 18.491 97.7332 18.8392C97.8134 19.2257 97.9013 19.6019 97.9925 19.8945C98.0941 20.2222 98.1901 20.7096 98.3001 21.1911C98.3767 21.5281 98.4608 21.8658 98.5506 22.1498C98.6382 22.4274 98.7702 22.7018 98.9019 22.9649C99.06 23.2808 99.2176 23.5807 99.2956 23.8602C99.3113 23.9168 99.2945 24.003 99.2743 24.1115C99.26 24.1884 99.2442 24.2769 99.2367 24.3734C99.389 24.7087 99.5461 25.0431 99.7078 25.3748C99.7196 25.3834 99.7318 25.3923 99.7441 25.4011C99.7444 25.4012 99.7446 25.4014 99.7449 25.4015C100.024 25.6021 100.4 25.8598 100.568 26.4266C100.61 26.5705 100.603 26.6806 100.597 26.7802C100.591 26.8778 100.586 26.9655 100.631 27.063C100.683 27.174 100.784 27.2787 100.897 27.3951C101.055 27.558 101.233 27.7352 101.321 27.9692C101.327 27.9852 101.334 28.0024 101.34 28.0203C101.406 28.1905 101.502 28.4354 101.562 28.7186C101.982 29.3808 102.428 30.024 102.899 30.6367C103.693 31.6662 104.565 32.6199 105.539 33.4376C106.021 33.8422 106.422 34.2736 106.7 34.707C106.971 35.1361 107.072 35.5247 106.932 35.8175C106.794 36.1078 106.412 36.279 105.842 36.2405C105.268 36.1985 104.593 35.9541 103.974 35.5349C102.988 34.8707 102.063 34.0904 101.232 33.2663C101.185 33.2254 101.138 33.1839 101.092 33.1421C100.747 32.8285 100.404 32.5669 100.064 32.2923C99.9858 32.2291 99.9077 32.1652 99.8301 32.1001ZM106.001 39.9109C105.87 40.2996 105.372 40.7671 105.077 41.0409C105.072 41.0459 105.067 41.0509 105.061 41.0559C104.991 41.1212 104.933 41.1829 104.865 41.2546C104.703 41.4242 104.472 41.6676 103.935 42.0983C103.805 42.2432 103.671 42.3882 103.533 42.5331C102.054 44.0925 100.435 45.4976 98.748 46.817C98.7286 46.8355 98.7089 46.8545 98.689 46.8736C98.3048 47.243 97.8125 47.7035 97.4635 47.9307C97.017 48.2225 96.6912 48.4105 96.4319 48.5533C95.0518 49.5503 93.6567 50.5031 92.2558 51.4578C91.8182 51.7559 91.3764 52.0568 90.9401 52.3549C90.5374 52.63 90.1302 52.9068 89.7257 53.1794C89.5049 53.3623 89.2974 53.5416 89.1034 53.7069C88.8307 53.9393 88.5851 54.1436 88.3694 54.2912C87.8497 54.6475 87.2 54.9549 86.7154 55.1736C86.6362 55.2094 86.5613 55.2431 86.4921 55.2744C86.1327 55.495 85.7706 55.7125 85.405 55.9258C85.3741 55.9272 85.3426 55.9282 85.3107 55.929C84.9114 55.9394 84.5209 56.1392 83.8914 56.4379C83.6174 56.5675 83.2984 56.7151 82.9147 56.8692C82.6675 56.9682 82.5137 56.9591 82.3895 56.9514C82.3528 56.9491 82.3185 56.9469 82.285 56.9476C82.1702 56.9498 82.084 57.035 81.9811 57.1352C81.8478 57.2652 81.6855 57.4212 81.4023 57.4497C80.5005 57.5381 80.195 57.8116 79.9577 58.0248C79.8883 58.0869 79.825 58.1429 79.7551 58.1853C79.5279 58.3235 79.1561 58.3802 78.8664 58.3832C78.6365 58.3865 78.2328 58.5699 77.9278 58.735C77.8127 58.7975 77.6461 58.8424 77.4494 58.8928C77.2458 58.945 77.01 59.003 76.7639 59.0942C76.1409 59.3238 75.8002 59.4287 75.5281 59.5133C75.4503 59.5373 75.3777 59.559 75.3051 59.5809C75.0759 59.6501 74.7875 59.721 74.4934 59.7875C74.1417 59.8674 73.7823 59.9405 73.509 60.0086C72.7858 60.0452 72.0594 60.0434 71.3368 60.0106C70.9656 59.9938 70.6079 59.8457 70.3533 59.5982C70.0981 59.3506 69.9668 59.0275 69.9773 58.6985C69.9879 58.3691 70.1367 58.0567 70.3795 57.8166C70.623 57.5768 70.9408 57.429 71.2722 57.3944C71.9407 57.3257 72.6056 57.2273 73.2653 57.1126C74.0696 56.9728 74.8671 56.8087 75.6668 56.6423C76.2267 56.5258 76.7833 56.3997 77.3421 56.2622C77.3996 56.2481 77.4571 56.2339 77.5143 56.2196C77.9566 56.0125 78.3935 55.8002 78.7075 55.6702C78.967 55.5631 79.1723 55.5385 79.35 55.5161C79.472 55.5006 79.5802 55.4863 79.6807 55.4464C79.7347 55.425 79.8076 55.3934 79.8953 55.3548C80.2552 55.1975 80.8554 54.9216 81.4457 54.758C81.7081 54.6857 82.0229 54.6247 82.3241 54.5619C82.7547 54.4725 83.1576 54.3791 83.3294 54.2664C83.6305 54.0693 84.0147 53.9234 84.3539 53.7891C84.6774 53.6612 84.9594 53.5447 85.0853 53.4148C85.2355 53.2596 85.402 53.1995 85.6498 53.1074C85.8215 53.0433 86.0321 52.9639 86.3017 52.8245C86.6127 52.6635 86.8492 52.5769 87.0504 52.5024C87.3334 52.3973 87.5459 52.3167 87.79 52.0761C88.0606 51.8092 88.357 51.5568 88.6265 51.4139C88.7494 51.3488 88.88 51.26 89.0166 51.1662C89.1972 51.0422 89.386 50.9109 89.5769 50.8183C89.7342 50.7421 89.8883 50.7141 90.0247 50.6889C90.0673 50.6811 90.1081 50.6734 90.1468 50.6647C90.2597 50.5857 90.3727 50.5056 90.4854 50.4243C90.4979 50.403 90.5106 50.3801 90.524 50.3563C90.5912 50.237 90.6733 50.0904 90.8047 49.9522C91.0126 49.7335 91.243 49.6104 91.4859 49.479C91.6765 49.3757 91.8743 49.2673 92.0718 49.105C92.2065 48.9943 92.3484 48.8539 92.488 48.7144C92.6941 48.5083 92.9005 48.2997 93.0727 48.1952C93.1374 48.1559 93.2129 48.1476 93.2878 48.1393C93.2881 48.1394 93.2885 48.1394 93.2889 48.1394C93.294 48.1388 93.299 48.1382 93.3041 48.1376C93.6678 47.8114 94.0244 47.4803 94.38 47.1412C94.406 47.1063 94.4325 47.0712 94.4587 47.0366C94.5867 46.8672 94.7094 46.7025 94.7653 46.5673C94.8243 46.4223 95.0724 46.1574 95.3269 45.8789C95.4939 45.6966 95.6643 45.508 95.7915 45.3424C95.865 45.2464 95.9804 45.1998 96.0976 45.153C96.2071 45.1092 96.3194 45.0641 96.4052 44.9739C96.4481 44.9287 96.4866 44.8712 96.5275 44.8099C96.5634 44.7559 96.6013 44.6988 96.6457 44.6446C96.6869 44.5943 96.8083 44.515 96.9626 44.413C97.0572 44.3507 97.1696 44.2749 97.2813 44.1944C97.5308 43.9296 97.7765 43.6663 98.0184 43.4056C98.0479 43.3278 98.0641 43.2475 98.06 43.168C98.0572 43.1108 98.0445 43.0513 98.0315 42.9905C98.0138 42.9078 97.9954 42.8223 97.9997 42.7359C98.0031 42.6684 98.0319 42.6151 98.0732 42.6022C98.0924 42.5962 98.1142 42.5988 98.1338 42.6011C98.1564 42.6038 98.1765 42.6061 98.1874 42.5949C98.1953 42.5869 98.1952 42.5697 98.1952 42.5489C98.1951 42.5156 98.1952 42.4724 98.2271 42.44C98.3462 42.3193 98.4904 42.193 98.6303 42.0698C98.79 41.9286 98.9459 41.7895 99.0558 41.6673C99.1792 41.5301 99.3961 41.3786 99.61 41.2279C99.7617 41.1203 99.9166 41.0081 100.036 40.9046C100.154 40.8026 100.247 40.6698 100.336 40.5419C100.443 40.3886 100.543 40.2419 100.681 40.156C100.709 40.139 100.772 40.1453 100.851 40.1532C100.907 40.1588 100.971 40.165 101.036 40.1645C101.171 40.0222 101.305 39.8825 101.438 39.7453C101.438 39.7357 101.438 39.7259 101.437 39.716C101.437 39.7158 101.437 39.7157 101.437 39.7155C101.425 39.4957 101.422 39.1792 101.724 39.0419C101.802 39.0068 101.88 39.0119 101.95 39.0165C102.019 39.021 102.08 39.0251 102.126 38.9904C102.177 38.9509 102.203 38.8731 102.231 38.7888C102.267 38.6736 102.32 38.531 102.447 38.4686C102.455 38.4643 102.465 38.4597 102.474 38.4548C102.566 38.4082 102.702 38.3398 102.877 38.3102C103.164 38.0326 103.482 37.7208 103.772 37.4422C104.276 36.9524 104.775 36.4669 105.26 35.9791C105.507 35.7287 105.807 35.5912 106.156 35.5376C106.495 35.4966 106.816 35.5885 107.075 35.7831C107.332 35.9789 107.506 36.2659 107.546 36.6126C107.575 36.9716 107.502 37.3105 107.299 37.6187C106.988 38.0974 106.662 38.5807 106.334 39.0492C106.319 39.0768 106.304 39.1045 106.289 39.1319C106.17 39.3422 106.116 39.544 106.048 39.7618C106.033 39.8114 106.017 39.8612 106.001 39.9109ZM178.658 28.923C179.003 28.3063 179.933 27.3019 180.401 26.7605C180.41 26.7499 180.419 26.7394 180.428 26.7288C180.546 26.5929 180.652 26.4613 180.774 26.308C181.067 25.9319 181.43 25.4893 182.265 24.4508C182.477 24.135 182.669 23.8415 182.875 23.518C185.034 20.1196 186.734 16.3957 186.544 12.6291C186.539 12.5826 186.533 12.5356 186.527 12.4882C186.421 11.5533 186.1 10.4662 185.869 9.77691C185.586 8.90118 185.307 8.3234 185.067 7.85615C183.491 5.27873 180.745 3.31815 177.73 2.39259C177.417 2.29697 177.078 2.20829 176.762 2.13942C176.184 2.01216 175.552 1.96758 174.932 1.99537C174.057 2.03398 173.172 2.20875 172.323 2.48675C171.831 2.67814 171.39 2.89714 170.989 3.12312C170.427 3.44025 169.959 3.76433 169.57 4.03326C168.636 4.66857 167.645 5.48334 166.996 6.18312C166.889 6.29633 166.79 6.40594 166.7 6.50947C166.245 7.11275 165.853 7.76061 165.53 8.4436C165.496 8.48198 165.461 8.52083 165.426 8.56068C164.993 9.06171 164.653 9.82004 164.368 11.0496C164.244 11.5961 164.138 12.2284 164.071 12.9821C164.03 13.4658 163.961 13.7306 163.904 13.9369C163.888 13.9968 163.872 14.0535 163.861 14.1111C163.82 14.309 163.871 14.5195 163.938 14.7679C164.026 15.0978 164.138 15.4612 164.128 15.9787C164.116 17.6416 164.521 18.3396 164.779 18.8161C164.859 18.9604 164.934 19.0914 164.997 19.2306C165.206 19.7009 165.367 20.3287 165.493 20.8634C165.595 21.3 165.969 22.0105 166.325 22.563C166.458 22.7698 166.608 23.0732 166.778 23.3999C166.957 23.745 167.176 24.1495 167.456 24.572C168.145 25.5987 168.545 26.1264 168.876 26.5727C168.965 26.6911 169.048 26.7998 169.133 26.9096C169.4 27.2558 169.734 27.6961 170.091 28.1484C170.523 28.6956 170.933 29.1849 171.291 29.5804C172.126 30.7115 172.912 31.717 173.806 32.7892C174.24 33.3117 174.589 33.9033 174.76 34.4379C174.931 34.9723 174.908 35.4036 174.671 35.6327C174.435 35.8619 174 35.8716 173.467 35.6635C172.934 35.4554 172.351 35.0462 171.86 34.5388C170.821 33.4595 169.882 32.4298 168.912 31.2538C167.794 29.8997 166.717 28.4405 165.759 26.869C165.117 25.8171 164.497 24.6761 163.959 23.5014C163.903 23.3803 163.849 23.2596 163.796 23.1392C163.287 22.2292 162.808 21.1852 162.552 20.495C162.323 19.8794 162.237 19.4215 162.172 19.035C162.128 18.775 162.088 18.5214 162.029 18.2798C161.997 18.1496 161.952 17.9726 161.902 17.7608C161.698 16.9262 161.426 15.3666 161.516 13.97C161.551 13.3331 161.66 12.6294 161.816 11.9394C162.032 10.9732 162.352 10.0963 162.458 9.65732C162.647 8.85164 163.038 7.99185 163.45 7.2823C163.847 6.59055 164.247 6.04481 164.432 5.69088C164.649 5.27332 164.918 4.96742 165.338 4.54883C165.627 4.26327 166.001 3.91223 166.511 3.47001C167.11 2.9538 167.583 2.6645 167.99 2.42803C168.562 2.10329 169.004 1.88116 169.625 1.47519C170.316 1.02549 171.105 0.656952 171.773 0.480098C172.074 0.399722 172.415 0.302581 172.78 0.217609C173.254 0.106229 173.78 0.0169003 174.251 0.00223257C174.648 -0.0113264 174.979 0.0403912 175.26 0.0955547C175.349 0.112802 175.437 0.130461 175.52 0.147071C175.836 0.153352 176.134 0.172377 176.456 0.20967C176.508 0.205729 176.563 0.201473 176.62 0.19775C176.782 0.187351 176.964 0.179894 177.167 0.188884C177.32 0.194206 177.487 0.207804 177.67 0.235793C178.327 0.337963 178.869 0.545793 179.418 0.787361C179.855 0.98 180.286 1.19002 180.799 1.41989C181.142 1.57372 181.547 1.75191 181.931 1.94013C182.51 2.22226 183.062 2.54019 183.41 2.81894C183.539 2.92215 183.63 3.03901 183.718 3.15548C183.719 3.15605 183.719 3.15662 183.719 3.15718C183.725 3.1651 183.731 3.17299 183.737 3.18089C184.61 3.80477 185.429 4.52138 186.16 5.33092C186.229 5.39651 186.298 5.46387 186.366 5.53159C186.697 5.86103 186.998 6.20199 187.221 6.41477C187.462 6.6391 187.943 7.31357 188.349 8.0869C188.619 8.59547 188.856 9.13587 189.042 9.59009C189.149 9.85132 189.183 10.1233 189.209 10.4034C189.233 10.6688 189.247 10.9254 189.309 11.2056C189.34 11.3456 189.383 11.4962 189.425 11.6594C189.463 11.8036 189.5 11.9562 189.528 12.1122C189.554 12.2585 189.567 12.5905 189.558 13.0243C189.553 13.2972 189.538 13.5791 189.517 13.8931C189.53 14.7337 189.473 15.5396 189.359 16.3436C189.366 16.5149 189.385 16.6682 189.422 16.7955C189.448 16.8867 189.484 16.9681 189.521 17.0525C189.57 17.1673 189.62 17.2874 189.645 17.4459C189.663 17.5736 189.652 17.6976 189.612 17.7798C189.593 17.8173 189.569 17.8436 189.547 17.8675C189.522 17.8948 189.5 17.9192 189.491 17.9538C189.485 17.9788 189.49 18.0078 189.496 18.0436C189.506 18.1008 189.518 18.1754 189.491 18.2774C189.392 18.6538 189.244 19.1012 189.1 19.4891C188.938 19.9326 188.756 20.3782 188.623 20.7301C188.481 21.1073 188.207 21.626 187.903 22.1507C187.696 22.5088 187.492 22.8396 187.315 23.1451C187.146 23.4379 186.984 23.7833 186.841 24.083C186.669 24.4445 186.491 24.7972 186.279 25.0642C186.236 25.1182 186.148 25.1643 186.038 25.2218C185.96 25.2626 185.87 25.3096 185.777 25.3687C185.545 25.7333 185.325 26.0611 185.082 26.4101C185.079 26.4261 185.076 26.4427 185.073 26.4593C185.073 26.4596 185.073 26.4599 185.073 26.4602C185.015 26.8267 184.889 27.3874 184.409 27.8177C184.284 27.9315 184.172 27.9791 184.072 28.0218C183.973 28.0638 183.884 28.1011 183.802 28.1924C183.709 28.296 183.635 28.447 183.552 28.6125C183.437 28.8419 183.293 29.1163 183.083 29.2934C183.068 29.3056 183.052 29.3188 183.036 29.3326C182.883 29.4633 182.654 29.6573 182.378 29.8147C181.788 30.4786 181.172 31.1303 180.56 31.7449C179.496 32.818 178.465 33.7698 177.344 34.7587C176.825 35.2138 176.225 35.5703 175.689 35.7368C175.152 35.9033 174.727 35.8666 174.51 35.6276C174.292 35.3889 174.295 34.9648 174.493 34.4491C174.692 33.9334 175.068 33.3712 175.521 32.8809C176.297 32.0478 177.027 31.226 177.753 30.3747C177.789 30.3266 177.825 30.2785 177.86 30.231C178.128 29.8775 178.331 29.5199 178.525 29.1662C178.569 29.085 178.614 29.0038 178.658 28.923ZM178.051 35.554C178.369 35.556 178.772 35.8532 179.014 36.0257C179.018 36.0287 179.023 36.0318 179.027 36.0349C179.082 36.0742 179.135 36.1059 179.199 36.1434C179.349 36.2317 179.562 36.3572 179.957 36.6803C180.087 36.7454 180.217 36.8122 180.347 36.881C181.748 37.6215 183.107 38.4427 184.477 39.2574C184.495 39.2652 184.514 39.273 184.533 39.281C184.898 39.4349 185.359 39.6259 185.615 39.804C185.942 40.032 186.165 40.2042 186.34 40.3453C187.445 40.9717 188.565 41.5642 189.725 42.0729C190.088 42.2321 190.456 42.3833 190.826 42.5237C191.166 42.6531 191.511 42.7761 191.856 42.892C192.067 42.9329 192.27 42.9635 192.459 42.9911C192.724 43.0299 192.959 43.063 193.146 43.1116C193.597 43.2287 194.077 43.4492 194.436 43.6098C194.495 43.636 194.55 43.6608 194.602 43.6832C194.903 43.7575 195.207 43.8286 195.51 43.8967C195.526 43.915 195.542 43.9339 195.558 43.9532C195.761 44.1941 196.074 44.286 196.569 44.4231C196.784 44.4828 197.032 44.5501 197.323 44.6414C197.511 44.7 197.591 44.7913 197.657 44.8659C197.677 44.8878 197.695 44.9083 197.714 44.9261C197.78 44.9868 197.872 44.9634 197.98 44.9353C198.121 44.8988 198.287 44.854 198.466 44.976C199.036 45.3638 199.347 45.2627 199.584 45.1882C199.653 45.1661 199.716 45.146 199.777 45.1404C199.973 45.1223 200.222 45.2342 200.404 45.3527C200.546 45.4467 200.879 45.4466 201.131 45.4103C201.227 45.3967 201.349 45.4178 201.492 45.4418C201.639 45.4664 201.814 45.4951 202.004 45.4906C202.484 45.4789 202.73 45.4691 202.936 45.463C202.994 45.461 203.048 45.4592 203.102 45.4569C203.272 45.4497 203.48 45.4509 203.689 45.4496C203.938 45.4482 204.198 45.4437 204.391 45.4213C204.878 45.5041 205.379 45.5845 205.866 45.649C206.122 45.6827 206.363 45.8329 206.545 46.0763C206.726 46.3198 206.834 46.6357 206.839 46.9652C206.843 47.2944 206.741 47.6141 206.546 47.858C206.35 48.1017 206.077 48.247 205.791 48.2649C205.229 48.3011 204.65 48.3186 204.087 48.3112C203.39 48.3013 202.705 48.2541 202.026 48.1541C201.552 48.0843 201.078 47.9973 200.612 47.8974C200.564 47.887 200.516 47.8765 200.468 47.8659C200.056 47.8713 199.651 47.8641 199.369 47.831C199.136 47.8038 198.978 47.7245 198.844 47.6566C198.752 47.61 198.672 47.5685 198.584 47.5521C198.537 47.5432 198.472 47.5334 198.394 47.5213C198.074 47.4722 197.529 47.3825 197.068 47.1799C196.863 47.0902 196.631 46.9564 196.414 46.8283C196.103 46.6451 195.815 46.471 195.649 46.4513C195.358 46.4166 195.055 46.2846 194.787 46.1654C194.531 46.0519 194.307 45.9507 194.16 45.9616C193.983 45.9745 193.857 45.9063 193.67 45.8042C193.541 45.7334 193.382 45.6464 193.157 45.5573C192.897 45.4545 192.726 45.3475 192.58 45.2563C192.375 45.1279 192.222 45.031 191.947 45.015C191.643 44.9973 191.335 44.9439 191.118 44.836C191.019 44.7869 190.9 44.7465 190.776 44.7039C190.612 44.6476 190.439 44.5877 190.294 44.5007C190.175 44.4289 190.092 44.3289 190.019 44.2404C189.996 44.2128 189.974 44.1864 189.952 44.1622C189.85 44.124 189.749 44.0862 189.646 44.0485C189.626 44.0517 189.604 44.0556 189.582 44.0595C189.47 44.0793 189.332 44.1033 189.181 44.0827C188.942 44.0501 188.764 43.9409 188.578 43.8252C188.432 43.7347 188.28 43.6401 188.089 43.5742C187.959 43.5293 187.805 43.4941 187.652 43.4589C187.426 43.407 187.2 43.3532 187.064 43.2696C187.013 43.2382 186.982 43.1814 186.951 43.125C186.951 43.1247 186.951 43.1244 186.95 43.1241C186.948 43.1203 186.946 43.1165 186.944 43.1127C186.579 42.9909 186.213 42.8702 185.845 42.7479C185.811 42.7439 185.776 42.7397 185.741 42.7355C185.572 42.7148 185.409 42.6943 185.287 42.7142C185.157 42.7366 184.878 42.659 184.589 42.5772C184.399 42.5237 184.204 42.468 184.039 42.4367C183.942 42.4185 183.875 42.3419 183.807 42.2637C183.744 42.1906 183.679 42.1156 183.586 42.0833C183.539 42.0671 183.484 42.0602 183.425 42.0528C183.373 42.0463 183.318 42.0394 183.263 42.0255C183.213 42.0126 183.119 41.9438 183 41.8558C182.926 41.8008 182.84 41.738 182.749 41.6765C182.479 41.5762 182.212 41.4754 181.947 41.372C181.877 41.3782 181.809 41.3976 181.746 41.4338C181.7 41.4598 181.655 41.4953 181.608 41.5315C181.545 41.5808 181.479 41.6316 181.408 41.6628C181.352 41.6872 181.302 41.6834 181.283 41.6524C181.274 41.6379 181.272 41.6178 181.269 41.5996C181.267 41.5788 181.264 41.5603 181.253 41.5551C181.245 41.5514 181.231 41.5584 181.214 41.5668C181.186 41.5802 181.151 41.5973 181.118 41.5821C180.994 41.5255 180.861 41.4485 180.73 41.3723C180.582 41.2861 180.438 41.2021 180.317 41.151C180.18 41.0938 180.015 40.958 179.851 40.8228C179.734 40.7268 179.616 40.6303 179.51 40.5608C179.406 40.4925 179.28 40.4562 179.16 40.4213C179.014 40.3794 178.876 40.3394 178.784 40.2452C178.766 40.2263 178.761 40.1676 178.756 40.0941C178.753 40.0421 178.748 39.9825 178.738 39.9244C178.601 39.8515 178.465 39.777 178.331 39.7014C178.323 39.7049 178.315 39.7083 178.307 39.7119C178.307 39.712 178.307 39.7121 178.307 39.7122C178.123 39.7944 177.861 39.9013 177.705 39.6693C177.666 39.6104 177.661 39.538 177.656 39.4729C177.651 39.4089 177.647 39.3518 177.612 39.3213C177.573 39.2867 177.504 39.2868 177.429 39.2869C177.324 39.2873 177.207 39.2871 177.138 39.1892C177.133 39.1825 177.128 39.1753 177.123 39.168C177.074 39.098 177.001 38.9947 176.958 38.8432C176.687 38.6583 176.412 38.4635 176.143 38.2666C175.701 37.9413 175.261 37.6009 174.819 37.2515C174.614 37.0877 174.462 36.8173 174.43 36.5129C174.398 36.2074 174.478 35.8893 174.649 35.6149C174.82 35.3407 175.069 35.1279 175.351 35.0162C175.632 34.9042 175.932 34.9094 176.164 35.0071C176.561 35.178 176.942 35.3349 177.345 35.5064C177.367 35.5115 177.389 35.5166 177.411 35.5221C177.573 35.563 177.75 35.5592 177.928 35.5557C177.969 35.5549 178.01 35.5541 178.051 35.554Z" fill="black"/>
<path d="M273.234 29.5937C273.28 29.8013 273.069 29.9978 272.953 30.1059C272.951 30.1079 272.949 30.1099 272.947 30.1119C272.92 30.1376 272.898 30.1651 272.874 30.1973C272.814 30.2743 272.734 30.3782 272.499 30.5484C272.457 30.6161 272.414 30.6829 272.369 30.7486C271.885 31.458 271.295 32.0949 270.684 32.7175C270.678 32.7269 270.673 32.7365 270.667 32.7461C270.559 32.9331 270.425 33.1648 270.283 33.2716C270.104 33.4074 269.967 33.4896 269.853 33.5555C269.366 34.0491 268.89 34.5501 268.468 35.0878C268.335 35.2563 268.208 35.4285 268.088 35.6051C267.977 35.7677 267.87 35.9332 267.767 36.101C267.73 36.2147 267.702 36.3273 267.675 36.4317C267.638 36.5784 267.605 36.7089 267.559 36.8037C267.447 37.0321 267.239 37.2356 267.084 37.3867C267.059 37.4113 267.035 37.4347 267.013 37.4564C266.936 37.6074 266.86 37.7593 266.784 37.9114C266.767 37.9134 266.749 37.9152 266.731 37.917C266.509 37.939 266.411 38.0861 266.257 38.3176C266.19 38.4184 266.112 38.5352 266.009 38.6647C265.942 38.7481 265.855 38.755 265.784 38.7606C265.763 38.7622 265.744 38.7638 265.726 38.7672C265.667 38.7787 265.68 38.8417 265.694 38.9161C265.713 39.0126 265.736 39.1284 265.611 39.1761C265.215 39.328 265.264 39.5475 265.301 39.7135C265.312 39.7623 265.322 39.8063 265.319 39.8428C265.31 39.961 265.179 40.0487 265.05 40.0946C264.948 40.131 264.902 40.3116 264.893 40.4669C264.89 40.5256 264.852 40.5822 264.808 40.6487C264.762 40.7176 264.708 40.7972 264.679 40.9013C264.604 41.1641 264.561 41.3016 264.526 41.4119C264.516 41.4434 264.507 41.4726 264.498 41.502C264.469 41.5949 264.424 41.7034 264.378 41.8132C264.323 41.9446 264.267 42.0779 264.238 42.1888C264.047 42.3966 263.847 42.5989 263.648 42.8012C263.546 42.905 263.346 42.9355 263.088 42.8822C262.829 42.8287 262.535 42.6967 262.263 42.5112C261.991 42.3257 261.761 42.0995 261.617 41.8784C261.473 41.6574 261.428 41.4603 261.487 41.3269C261.607 41.0586 261.727 40.7903 261.855 40.5279C262.012 40.2084 262.182 39.8977 262.38 39.6068C262.519 39.4032 262.664 39.2041 262.815 39.0085C262.83 38.9883 262.846 38.9683 262.862 38.9482C262.911 38.7315 262.967 38.5193 263.027 38.3843C263.077 38.2727 263.162 38.2247 263.235 38.1836C263.285 38.1553 263.329 38.1303 263.352 38.09C263.365 38.0684 263.38 38.0376 263.398 38.0004C263.472 37.8487 263.597 37.5909 263.808 37.4217C263.902 37.3466 264.034 37.2754 264.161 37.2075C264.341 37.1103 264.51 37.0197 264.536 36.9336C264.581 36.7825 264.712 36.6625 264.827 36.5566C264.937 36.4556 265.033 36.3672 265.029 36.2765C265.023 36.1681 265.087 36.1222 265.182 36.054C265.247 36.0066 265.327 35.9484 265.41 35.8512C265.505 35.739 265.602 35.6793 265.684 35.6286C265.799 35.5572 265.885 35.5035 265.901 35.3458C265.918 35.1707 265.965 35.0071 266.058 34.9172C266.101 34.8762 266.136 34.8199 266.172 34.7612C266.22 34.6836 266.271 34.6019 266.345 34.5467C266.406 34.5011 266.493 34.4879 266.569 34.4761C266.593 34.4725 266.616 34.4689 266.637 34.4646C266.668 34.4167 266.7 34.3685 266.731 34.32C266.727 34.3065 266.724 34.292 266.72 34.2769C266.7 34.2013 266.675 34.1085 266.69 34.0237C266.712 33.8896 266.803 33.8202 266.898 33.7472C266.973 33.6903 267.051 33.6312 267.101 33.5373C267.136 33.4733 267.161 33.3905 267.185 33.3084C267.222 33.1865 267.258 33.0662 267.325 33.011C267.35 32.9903 267.398 32.9908 267.446 32.9914C267.446 32.9914 267.447 32.9914 267.447 32.9915C267.45 32.9915 267.453 32.9915 267.457 32.9916C267.546 32.8068 267.632 32.6204 267.717 32.4329C267.718 32.4125 267.72 32.3921 267.722 32.372C267.73 32.2734 267.737 32.1776 267.712 32.0945C267.685 32.0045 267.734 31.858 267.785 31.7035C267.818 31.6023 267.853 31.4978 267.868 31.4035C267.877 31.3484 267.938 31.3321 268.001 31.3154C268.06 31.2998 268.12 31.2838 268.141 31.2354C268.151 31.2112 268.153 31.1785 268.155 31.1435C268.156 31.1127 268.158 31.0802 268.165 31.0503C268.173 31.0225 268.225 30.9855 268.292 30.938C268.334 30.9086 268.381 30.8752 268.426 30.8375C268.49 30.6989 268.554 30.5609 268.619 30.4239C268.607 30.3776 268.584 30.3286 268.546 30.2767C268.519 30.2396 268.483 30.1995 268.447 30.1585C268.398 30.1027 268.347 30.045 268.313 29.9899C268.286 29.9468 268.284 29.9164 268.31 29.9139C268.321 29.9127 268.338 29.9175 268.354 29.9217C268.372 29.9266 268.388 29.931 268.391 29.9253C268.394 29.9212 268.386 29.9101 268.377 29.8966C268.363 29.8751 268.344 29.8472 268.354 29.8307C268.391 29.7695 268.445 29.7081 268.498 29.648C268.557 29.5811 268.614 29.5157 268.645 29.4537C268.68 29.3842 268.78 29.3195 268.88 29.2545C268.95 29.2092 269.019 29.1637 269.067 29.1166C269.114 29.0705 269.131 29.0005 269.147 28.9327C269.167 28.8512 269.185 28.7728 269.255 28.7428C269.269 28.7367 269.319 28.7517 269.382 28.7703C269.427 28.7835 269.478 28.7985 269.527 28.8094C269.573 28.7422 269.62 28.6761 269.669 28.611C269.665 28.6048 269.661 28.5985 269.657 28.5921C269.657 28.5919 269.657 28.5918 269.657 28.5917C269.563 28.4468 269.435 28.2485 269.615 28.2156C269.66 28.2072 269.722 28.2246 269.778 28.2402C269.833 28.2556 269.882 28.2693 269.903 28.2554C269.928 28.2395 269.919 28.1945 269.909 28.1455C269.895 28.0766 269.879 27.9997 269.953 27.9841C269.958 27.983 269.964 27.9819 269.969 27.9807C270.022 27.969 270.101 27.9516 270.226 27.9661C270.348 27.8395 270.475 27.7158 270.604 27.5939C270.819 27.3907 271.042 27.1925 271.264 26.9943C271.373 26.8981 271.574 26.8721 271.831 26.9267C272.088 26.9815 272.377 27.1113 272.644 27.2934C272.911 27.4754 273.137 27.6975 273.282 27.9166C273.426 28.1355 273.475 28.3324 273.425 28.4686C273.343 28.6904 273.261 28.9122 273.176 29.1315C273.174 29.1452 273.173 29.1589 273.171 29.1722C273.158 29.2716 273.186 29.3914 273.215 29.5113C273.221 29.5388 273.228 29.5664 273.234 29.5937ZM235.741 50.9816C235.51 51.0308 235.238 50.8088 235.089 50.6868C235.086 50.6846 235.083 50.6824 235.081 50.6802C235.045 50.6513 235.009 50.6288 234.966 50.6027C234.865 50.5404 234.728 50.4561 234.482 50.2076C234.395 50.1636 234.308 50.1182 234.223 50.071C233.3 49.5618 232.439 48.9398 231.591 48.2955C231.579 48.2897 231.567 48.2839 231.554 48.278C231.315 48.1643 231.019 48.0232 230.866 47.8742C230.671 47.6848 230.548 47.5405 230.447 47.4195C229.774 46.9063 229.095 46.4047 228.384 45.9601C228.161 45.8208 227.935 45.6871 227.706 45.5603C227.494 45.4436 227.28 45.3312 227.064 45.2225C226.925 45.1841 226.788 45.1545 226.662 45.127C226.484 45.0885 226.325 45.0541 226.206 45.0053C225.918 44.888 225.639 44.6684 225.432 44.5053C225.398 44.4787 225.366 44.4535 225.336 44.4306C225.145 44.3492 224.953 44.2692 224.761 44.1896C224.755 44.1717 224.749 44.1532 224.744 44.1344C224.672 43.8988 224.481 43.796 224.181 43.6339C224.05 43.5633 223.899 43.4814 223.727 43.3726C223.617 43.3024 223.591 43.2104 223.57 43.1353C223.563 43.1132 223.558 43.0925 223.55 43.0743C223.525 43.0119 223.454 43.0252 223.371 43.0409C223.263 43.0612 223.133 43.0857 223.052 42.9542C222.794 42.5353 222.549 42.588 222.364 42.6278C222.31 42.6395 222.261 42.65 222.218 42.6473C222.079 42.6383 221.95 42.5002 221.871 42.364C221.807 42.256 221.588 42.2076 221.406 42.1993C221.338 42.1962 221.264 42.1566 221.178 42.1097C221.088 42.0612 220.985 42.005 220.858 41.9741C220.538 41.8961 220.369 41.8511 220.234 41.8148C220.196 41.8044 220.16 41.7946 220.124 41.7851C220.01 41.7552 219.875 41.7076 219.738 41.6593C219.574 41.6015 219.408 41.5429 219.273 41.5128C218.993 41.3113 218.717 41.1012 218.441 40.8913C218.3 40.7832 218.223 40.5722 218.232 40.2987C218.241 40.025 218.333 39.7128 218.492 39.4243C218.651 39.1358 218.866 38.8913 219.093 38.7379C219.32 38.5848 219.539 38.5368 219.706 38.599C220.042 38.7246 220.378 38.8503 220.709 38.9852C221.112 39.1497 221.508 39.3279 221.886 39.5368C222.151 39.6829 222.412 39.8359 222.67 39.9943C222.696 40.0107 222.723 40.0271 222.749 40.0435C223.011 40.0952 223.269 40.1531 223.438 40.2164C223.578 40.2687 223.651 40.3585 223.714 40.4355C223.757 40.4884 223.795 40.5352 223.846 40.5595C223.874 40.5726 223.913 40.5883 223.96 40.6073C224.151 40.6848 224.476 40.8165 224.716 41.0393C224.822 41.1381 224.932 41.2778 225.037 41.4112C225.187 41.602 225.327 41.7798 225.432 41.8069C225.617 41.8545 225.783 41.9921 225.929 42.1138C226.069 42.2298 226.192 42.3313 226.296 42.3261C226.421 42.32 226.487 42.3871 226.586 42.4868C226.654 42.5559 226.738 42.6406 226.868 42.7276C227.018 42.8281 227.107 42.9298 227.183 43.0162C227.289 43.1379 227.37 43.2294 227.556 43.2452C227.762 43.2627 227.962 43.3113 228.085 43.41C228.142 43.455 228.214 43.4916 228.29 43.5298C228.39 43.5802 228.495 43.6334 228.574 43.7119C228.64 43.7766 228.673 43.868 228.702 43.9488C228.712 43.974 228.72 43.9982 228.73 44.0202C228.792 44.0536 228.854 44.0866 228.917 44.1191C228.932 44.1156 228.948 44.1114 228.965 44.1071C229.048 44.0858 229.151 44.0598 229.252 44.0744C229.412 44.0977 229.512 44.1932 229.616 44.2942C229.697 44.3728 229.782 44.4548 229.901 44.508C229.983 44.5443 230.084 44.5703 230.184 44.596C230.333 44.6343 230.48 44.6722 230.558 44.7426C230.587 44.769 230.597 44.8201 230.606 44.8708C230.606 44.8711 230.606 44.8714 230.606 44.8717C230.607 44.8751 230.607 44.8785 230.608 44.8819C230.84 44.9753 231.075 45.066 231.31 45.1551C231.334 45.1565 231.358 45.1581 231.381 45.1598C231.497 45.1678 231.61 45.1757 231.701 45.1488C231.8 45.1197 231.98 45.1704 232.17 45.2239C232.294 45.2588 232.423 45.295 232.535 45.3107C232.601 45.3199 232.632 45.3846 232.665 45.4512C232.695 45.5133 232.726 45.5771 232.786 45.5989C232.817 45.6098 232.855 45.6114 232.896 45.613C232.932 45.6144 232.97 45.6159 233.006 45.624C233.04 45.6315 233.094 45.6869 233.163 45.7577C233.205 45.8015 233.254 45.8511 233.307 45.8992C233.481 45.9657 233.654 46.0331 233.827 46.102C233.878 46.0888 233.93 46.0637 233.982 46.0235C234.02 45.9947 234.059 45.9571 234.099 45.9187C234.154 45.8664 234.21 45.8124 234.267 45.7759C234.311 45.7474 234.346 45.7455 234.354 45.772C234.358 45.7844 234.356 45.8026 234.354 45.8192C234.352 45.8381 234.351 45.855 234.358 45.8585C234.363 45.861 234.375 45.8531 234.388 45.8435C234.41 45.8282 234.439 45.8085 234.46 45.8189C234.539 45.8576 234.621 45.9144 234.702 45.9701C234.791 46.032 234.879 46.0925 234.957 46.1251C235.045 46.1618 235.141 46.2673 235.237 46.3728C235.304 46.4465 235.371 46.52 235.436 46.5706C235.499 46.6202 235.583 46.6377 235.666 46.6545C235.764 46.6747 235.859 46.694 235.908 46.7673C235.918 46.7822 235.911 46.8356 235.902 46.9023C235.896 46.9497 235.889 47.0038 235.887 47.0559C235.974 47.1041 236.061 47.1542 236.146 47.2058C236.153 47.2015 236.159 47.1972 236.166 47.1928C236.166 47.1927 236.166 47.1926 236.166 47.1925C236.315 47.0926 236.519 46.9561 236.594 47.1461C236.613 47.1944 236.606 47.26 236.599 47.3191C236.592 47.3771 236.587 47.429 236.607 47.452C236.631 47.4781 236.681 47.468 236.736 47.4571C236.813 47.4418 236.899 47.4247 236.932 47.5032C236.934 47.5086 236.937 47.5144 236.939 47.5204C236.964 47.5767 237 47.66 237.009 47.7922C237.181 47.9211 237.351 48.0545 237.519 48.1906C237.799 48.4176 238.075 48.6523 238.351 48.887C238.485 49.0016 238.557 49.2144 238.546 49.486C238.535 49.7579 238.445 50.0648 238.288 50.3478C238.132 50.6308 237.921 50.8712 237.697 51.0251C237.472 51.1788 237.254 51.2316 237.086 51.1793C236.812 51.0935 236.537 51.0077 236.265 50.9179C236.249 50.9167 236.233 50.9152 236.217 50.9134C236.099 50.9 235.966 50.9305 235.833 50.961C235.802 50.968 235.771 50.9751 235.741 50.9816ZM241.778 49.9696C242.087 49.9629 242.507 50.267 242.738 50.4343C242.742 50.4373 242.746 50.4403 242.751 50.4433C242.806 50.483 242.86 50.5155 242.924 50.5536C243.077 50.6442 243.284 50.7668 243.674 51.0952C243.804 51.1624 243.932 51.2311 244.06 51.3015C245.438 52.0618 246.753 52.9349 248.057 53.8303C248.074 53.8392 248.092 53.8482 248.111 53.8574C248.464 54.034 248.902 54.2532 249.144 54.4513C249.452 54.7031 249.652 54.8898 249.815 55.0455C250.64 55.6139 251.469 56.1749 252.315 56.7056L250.883 57.0475C251.038 56.8464 251.19 56.644 251.34 56.4401C251.573 56.1242 251.801 55.8047 252.022 55.4807C252.225 55.1825 252.425 54.8813 252.621 54.5778C252.711 54.3851 252.791 54.1974 252.865 54.0233C252.968 53.7787 253.061 53.5611 253.156 53.3943C253.386 52.9925 253.729 52.5923 253.983 52.2951C254.025 52.2466 254.064 52.2007 254.1 52.1581C254.257 51.8911 254.412 51.6232 254.567 51.355C254.589 51.3453 254.612 51.3357 254.635 51.326C254.925 51.2049 255.106 50.9361 255.391 50.513C255.515 50.3287 255.659 50.1152 255.84 49.8719C255.956 49.7151 256.069 49.6706 256.161 49.6341C256.188 49.6234 256.214 49.6134 256.237 49.6014C256.316 49.5604 256.325 49.4664 256.335 49.3553C256.349 49.2111 256.365 49.0382 256.541 48.9151C257.101 48.5227 257.125 48.1973 257.142 47.9511C257.148 47.8788 257.152 47.8134 257.17 47.7552C257.227 47.5662 257.427 47.3777 257.608 47.2556C257.751 47.1589 257.88 46.8575 257.951 46.6105C257.978 46.5172 258.047 46.4137 258.129 46.2919C258.215 46.1659 258.313 46.0202 258.391 45.8455C258.587 45.404 258.695 45.1716 258.782 44.9849C258.807 44.9317 258.83 44.8822 258.853 44.8326C258.925 44.6757 259.025 44.4878 259.126 44.2976C259.246 44.07 259.369 43.839 259.448 43.6538C259.771 43.2535 260.102 42.8586 260.432 42.4637C260.602 42.261 260.866 42.1356 261.172 42.119C261.479 42.1026 261.8 42.1953 262.072 42.3808C262.344 42.5663 262.547 42.8318 262.644 43.1228C262.74 43.4138 262.72 43.7058 262.593 43.938C262.337 44.4055 262.082 44.8732 261.817 45.3348C261.495 45.8971 261.16 46.4505 260.796 46.9842C260.541 47.3575 260.28 47.7264 260.013 48.0918C259.986 48.1295 259.958 48.167 259.931 48.2045C259.784 48.5639 259.631 48.9185 259.503 49.1538C259.396 49.3482 259.27 49.4566 259.162 49.5494C259.087 49.6133 259.022 49.6698 258.977 49.7419C258.953 49.7806 258.922 49.8348 258.884 49.9002C258.732 50.1671 258.473 50.6203 258.14 50.9678C257.993 51.122 257.798 51.2851 257.612 51.4408C257.345 51.6635 257.097 51.8711 257.031 52.0163C256.915 52.2711 256.703 52.51 256.516 52.7211C256.337 52.9224 256.181 53.0985 256.152 53.239C256.117 53.407 256.018 53.5037 255.872 53.6475C255.771 53.7472 255.647 53.8698 255.505 54.0543C255.341 54.2674 255.196 54.3985 255.072 54.5099C254.899 54.6667 254.768 54.7847 254.687 55.0382C254.598 55.3197 254.475 55.5944 254.322 55.7719C254.252 55.8528 254.186 55.9548 254.117 56.0609C254.027 56.2014 253.931 56.3491 253.815 56.4647C253.72 56.56 253.606 56.6144 253.504 56.6625C253.473 56.6775 253.443 56.6919 253.414 56.7068C253.356 56.7943 253.297 56.8821 253.239 56.9703C253.238 56.9902 253.238 57.0114 253.237 57.0335C253.233 57.1444 253.227 57.2807 253.176 57.4192C253.096 57.6384 252.954 57.7825 252.805 57.9343C252.725 58.0152 252.643 58.0984 252.567 58.1965L251.933 58.9249L251.329 58.492C251.281 58.4615 251.23 58.4325 251.175 58.406C251.055 58.3485 250.91 58.2985 250.767 58.2488C250.553 58.1751 250.343 58.1022 250.221 58.0074C250.175 57.9719 250.152 57.913 250.128 57.8545C250.128 57.8542 250.128 57.8539 250.128 57.8535C250.127 57.8496 250.125 57.8457 250.123 57.8417C249.783 57.689 249.442 57.5391 249.099 57.3907C249.066 57.3842 249.033 57.3774 249 57.3706C248.838 57.3374 248.681 57.3051 248.561 57.316C248.431 57.3279 248.172 57.2338 247.9 57.1347C247.721 57.0697 247.537 57.0026 247.378 56.9616C247.286 56.9377 247.229 56.859 247.17 56.778C247.116 56.7024 247.06 56.6248 246.972 56.5879C246.928 56.5694 246.875 56.5597 246.818 56.5494C246.768 56.5402 246.716 56.5307 246.664 56.5141C246.616 56.4987 246.53 56.4257 246.42 56.3324C246.353 56.2746 246.275 56.2092 246.192 56.1445C245.939 56.0341 245.686 55.9227 245.434 55.8099C245.366 55.814 245.3 55.8311 245.236 55.865C245.19 55.8893 245.144 55.9231 245.097 55.9576C245.032 56.0045 244.966 56.0529 244.895 56.0817C244.84 56.1043 244.792 56.0991 244.775 56.0679C244.767 56.0533 244.766 56.0333 244.765 56.0152C244.764 55.9945 244.763 55.9761 244.752 55.9707C244.744 55.9668 244.731 55.9733 244.714 55.9811C244.686 55.9936 244.651 56.0096 244.62 55.9936C244.503 55.934 244.378 55.8535 244.255 55.7746C244.119 55.6868 243.985 55.6011 243.871 55.5483C243.742 55.4892 243.588 55.3515 243.434 55.2138C243.326 55.1178 243.218 55.0217 243.119 54.9519C243.021 54.8834 242.901 54.8462 242.785 54.8104C242.645 54.7673 242.51 54.726 242.427 54.634C242.41 54.6153 242.409 54.5573 242.407 54.4846C242.405 54.4331 242.403 54.3742 242.396 54.3167C242.265 54.2446 242.136 54.1708 242.007 54.0954C241.999 54.0988 241.991 54.1022 241.983 54.1058C241.983 54.1059 241.983 54.106 241.982 54.1061C241.798 54.1864 241.546 54.2962 241.403 54.0686C241.366 54.0108 241.363 53.9391 241.36 53.8747C241.357 53.8113 241.354 53.7547 241.321 53.7247C241.283 53.6907 241.216 53.6915 241.142 53.6922C241.04 53.6932 240.925 53.6944 240.862 53.5998C240.858 53.5934 240.853 53.5864 240.849 53.5792C240.803 53.5113 240.735 53.4108 240.695 53.2615C240.432 53.0819 240.17 52.8978 239.91 52.7109C239.477 52.3994 239.048 52.0801 238.619 51.7609C238.41 51.6052 238.267 51.353 238.225 51.0523C238.183 50.7513 238.244 50.4281 238.4 50.1451C238.556 49.862 238.797 49.638 239.074 49.5132C239.351 49.3886 239.641 49.3752 239.884 49.4686C240.279 49.6215 240.675 49.7744 241.069 49.9312C241.091 49.936 241.114 49.941 241.136 49.9463C241.302 49.9858 241.479 49.9796 241.656 49.9733C241.697 49.9719 241.737 49.9705 241.778 49.9696ZM239.347 52.4444C239.421 52.6387 239.242 52.8476 239.144 52.9625C239.142 52.9646 239.141 52.9667 239.139 52.9689C239.116 52.9962 239.098 53.0245 239.079 53.0579C239.031 53.1374 238.967 53.2448 238.76 53.4309C238.729 53.4999 238.696 53.5681 238.661 53.6354C238.286 54.3624 237.796 55.0303 237.284 55.6866C237.28 55.6962 237.276 55.7059 237.272 55.7157C237.192 55.9054 237.093 56.1405 236.969 56.2567C236.812 56.4044 236.69 56.4965 236.587 56.5709C236.178 57.0914 235.782 57.6181 235.443 58.1745C235.337 58.3489 235.237 58.5262 235.143 58.7072C235.057 58.8739 234.976 59.0428 234.898 59.2137C234.878 59.3262 234.866 59.4368 234.854 59.5394C234.839 59.6835 234.824 59.8118 234.792 59.9071C234.715 60.1368 234.539 60.3522 234.408 60.512C234.387 60.5382 234.367 60.5628 234.349 60.5858C234.294 60.738 234.24 60.891 234.187 61.0441C234.171 61.0477 234.154 61.0511 234.137 61.0546C233.922 61.0975 233.846 61.2481 233.728 61.4849C233.676 61.5881 233.616 61.7075 233.533 61.8417C233.479 61.9281 233.395 61.9432 233.326 61.9556C233.306 61.9593 233.287 61.9627 233.27 61.9676C233.214 61.9844 233.235 62.0435 233.26 62.1133C233.292 62.2039 233.33 62.3126 233.215 62.3705C232.847 62.5549 232.926 62.7603 232.986 62.9157C233.003 62.9613 233.019 63.0026 233.021 63.0378C233.029 63.1518 232.913 63.2487 232.793 63.3053C232.698 63.3502 232.678 63.5277 232.691 63.6772C232.696 63.7338 232.667 63.7917 232.633 63.8598C232.597 63.9303 232.556 64.0118 232.542 64.1144C232.505 64.3734 232.482 64.5093 232.464 64.6184C232.458 64.6495 232.453 64.6784 232.448 64.7074C232.433 64.7992 232.404 64.9075 232.374 65.0172C232.339 65.1485 232.302 65.2817 232.29 65.3907C232.131 65.6085 231.964 65.8218 231.797 66.0352C231.711 66.1447 231.52 66.1935 231.259 66.1678C230.998 66.142 230.691 66.0446 230.399 65.8936C230.106 65.7427 229.849 65.5488 229.677 65.3512C229.505 65.1537 229.433 64.9693 229.473 64.8358C229.553 64.5671 229.632 64.2983 229.722 64.0344C229.831 63.713 229.953 63.3988 230.107 63.1006C230.215 62.8921 230.33 62.6871 230.45 62.485C230.462 62.4642 230.475 62.4434 230.487 62.4227C230.506 62.2103 230.53 62.0016 230.571 61.8663C230.604 61.7546 230.68 61.7003 230.746 61.6537C230.791 61.6217 230.831 61.5933 230.848 61.5526C230.857 61.5307 230.868 61.4997 230.88 61.4623C230.932 61.3097 231.018 61.0505 231.202 60.8677C231.283 60.7866 231.403 60.7054 231.517 60.6279C231.681 60.5171 231.833 60.4137 231.847 60.3287C231.87 60.1795 231.981 60.0518 232.08 59.9391C232.173 59.8315 232.255 59.7374 232.238 59.6509C232.218 59.5477 232.274 59.4975 232.357 59.4229C232.414 59.3711 232.485 59.3074 232.552 59.2062C232.63 59.0894 232.716 59.0228 232.789 58.9662C232.892 58.8864 232.97 58.8265 232.963 58.674C232.955 58.5046 232.978 58.3433 233.057 58.248C233.093 58.2046 233.12 58.1472 233.147 58.0874C233.183 58.0084 233.221 57.9252 233.287 57.865C233.34 57.8153 233.423 57.7941 233.496 57.7754C233.519 57.7695 233.541 57.7639 233.561 57.7577C233.585 57.7087 233.609 57.6595 233.633 57.61C233.628 57.5974 233.622 57.5839 233.616 57.5698C233.586 57.4994 233.549 57.4129 233.551 57.3303C233.554 57.1996 233.634 57.1243 233.717 57.0449C233.782 56.9832 233.85 56.9189 233.887 56.824C233.912 56.7593 233.924 56.6775 233.937 56.5965C233.956 56.4762 233.975 56.3574 234.032 56.298C234.054 56.2757 234.101 56.2714 234.149 56.2673C234.149 56.2673 234.149 56.2673 234.149 56.2673C234.153 56.267 234.156 56.2667 234.159 56.2664C234.22 56.0808 234.279 55.8937 234.336 55.7058C234.334 55.6862 234.333 55.6665 234.332 55.647C234.326 55.5518 234.32 55.4593 234.284 55.3822C234.245 55.2987 234.272 55.1536 234.3 55.0006C234.319 54.9005 234.338 54.7969 234.34 54.7052C234.341 54.6515 234.399 54.6299 234.458 54.6077C234.513 54.587 234.57 54.5657 234.584 54.5174C234.591 54.4931 234.588 54.4616 234.585 54.428C234.582 54.3984 234.579 54.3671 234.582 54.3377C234.585 54.3104 234.631 54.2698 234.691 54.2177C234.727 54.1854 234.769 54.1488 234.808 54.1082C234.851 53.9693 234.894 53.8308 234.94 53.6931C234.921 53.65 234.891 53.6054 234.847 53.5595C234.815 53.5265 234.775 53.4916 234.734 53.4559C234.678 53.4073 234.62 53.3571 234.578 53.3076C234.546 53.269 234.54 53.2401 234.564 53.2352C234.576 53.2329 234.593 53.2358 234.609 53.2383C234.627 53.2413 234.644 53.2439 234.646 53.2381C234.648 53.2339 234.639 53.2241 234.628 53.212C234.611 53.1928 234.589 53.1679 234.597 53.1512C234.624 53.0889 234.668 53.0248 234.712 52.962C234.76 52.8923 234.807 52.824 234.829 52.7615C234.853 52.6915 234.942 52.6197 235.031 52.5477C235.093 52.4974 235.155 52.447 235.196 52.3972C235.235 52.3484 235.242 52.2797 235.248 52.2132C235.256 52.1333 235.263 52.0563 235.327 52.0208C235.34 52.0136 235.392 52.0229 235.456 52.0346C235.502 52.0428 235.554 52.0522 235.604 52.0578C235.639 51.9889 235.676 51.9209 235.715 51.8538C235.711 51.8483 235.706 51.8426 235.701 51.8369C235.701 51.8367 235.701 51.8366 235.7 51.8365C235.588 51.707 235.435 51.5297 235.606 51.4805C235.65 51.468 235.713 51.4785 235.77 51.488C235.826 51.4973 235.876 51.5057 235.895 51.4902C235.917 51.4726 235.902 51.4304 235.885 51.3844C235.861 51.3199 235.835 51.2478 235.906 51.2256C235.91 51.224 235.916 51.2224 235.921 51.2207C235.972 51.2043 236.046 51.1799 236.171 51.1814C236.273 51.0482 236.38 50.9173 236.489 50.7879C236.672 50.5721 236.862 50.3604 237.053 50.1487C237.146 50.0459 237.34 50.0012 237.599 50.0283C237.858 50.0555 238.16 50.1514 238.447 50.2995C238.734 50.4476 238.987 50.638 239.159 50.8336C239.332 51.0291 239.407 51.2128 239.378 51.3481C239.328 51.5686 239.279 51.7891 239.226 52.0075C239.226 52.0208 239.227 52.034 239.227 52.0469C239.228 52.1434 239.273 52.2553 239.317 52.3674C239.327 52.3931 239.338 52.4189 239.347 52.4444ZM264.58 41.9385C264.791 41.9083 264.971 42.1333 265.071 42.257C265.072 42.2592 265.074 42.2614 265.076 42.2636C265.1 42.293 265.126 42.3163 265.156 42.3435C265.228 42.4084 265.326 42.4961 265.479 42.744C265.543 42.7909 265.607 42.839 265.669 42.8887C266.341 43.4251 266.933 44.0622 267.51 44.7192C267.519 44.7254 267.528 44.7316 267.537 44.7379C267.716 44.86 267.937 45.0113 268.033 45.1603C268.156 45.3498 268.227 45.4925 268.285 45.6118C268.741 46.1349 269.206 46.6477 269.712 47.1096C269.87 47.2544 270.033 47.3941 270.2 47.5276C270.354 47.6506 270.512 47.7697 270.672 47.8854C270.782 47.9307 270.893 47.9674 270.995 48.0016C271.139 48.0495 271.267 48.0923 271.358 48.1457C271.578 48.2744 271.765 48.4976 271.905 48.6634C271.927 48.6905 271.949 48.7161 271.969 48.7395C272.114 48.8281 272.26 48.9156 272.406 49.0027C272.407 49.0197 272.408 49.0373 272.408 49.0553C272.413 49.2793 272.553 49.3879 272.773 49.5591C272.868 49.6336 272.979 49.7201 273.101 49.833C273.179 49.9057 273.18 49.9931 273.18 50.0645C273.18 50.0855 273.18 50.1051 273.182 50.1226C273.189 50.1824 273.253 50.1748 273.329 50.1658C273.426 50.1542 273.544 50.1402 273.582 50.268C273.704 50.6753 273.927 50.6429 274.096 50.6184C274.145 50.6112 274.19 50.6047 274.226 50.6102C274.343 50.6279 274.421 50.7652 274.457 50.8973C274.486 51.0021 274.663 51.062 274.817 51.082C274.876 51.0896 274.93 51.1315 274.993 51.1809C275.058 51.2321 275.134 51.2915 275.235 51.3288C275.492 51.4231 275.626 51.4764 275.734 51.5193C275.765 51.5316 275.793 51.5431 275.822 51.5544C275.912 51.5899 276.017 51.6434 276.123 51.6976C276.251 51.7625 276.38 51.8283 276.488 51.8654C276.681 52.072 276.869 52.2861 277.056 52.5002C277.152 52.6103 277.168 52.8119 277.095 53.0658C277.023 53.3198 276.869 53.604 276.664 53.8617C276.458 54.1193 276.215 54.3323 275.984 54.4596C275.752 54.5867 275.552 54.6164 275.424 54.5473C275.165 54.4076 274.906 54.2679 274.653 54.1199C274.346 53.9396 274.048 53.7469 273.772 53.5269C273.579 53.373 273.391 53.213 273.207 53.048C273.188 53.0311 273.169 53.014 273.151 52.9969C272.938 52.931 272.73 52.8597 272.6 52.7893C272.492 52.7312 272.451 52.6427 272.415 52.5668C272.39 52.5146 272.369 52.4685 272.33 52.4424C272.31 52.4284 272.28 52.4111 272.244 52.3903C272.098 52.3052 271.85 52.1606 271.697 51.9371C271.629 51.8379 271.567 51.7004 271.509 51.5692C271.425 51.3815 271.347 51.2066 271.263 51.1742C271.116 51.1174 271.006 50.9781 270.909 50.8549C270.816 50.7375 270.735 50.6348 270.644 50.6325C270.535 50.6298 270.494 50.5628 270.433 50.4634C270.391 50.3944 270.338 50.3099 270.247 50.2201C270.143 50.1165 270.09 50.0158 270.045 49.9303C269.983 49.8099 269.936 49.7193 269.779 49.692C269.606 49.6617 269.446 49.6029 269.363 49.5027C269.325 49.457 269.272 49.418 269.216 49.3774C269.142 49.3236 269.064 49.267 269.014 49.1886C268.973 49.124 268.967 49.0367 268.961 48.9595C268.959 48.9354 268.957 48.9123 268.954 48.8912C268.909 48.8559 268.863 48.821 268.817 48.7865C268.803 48.7888 268.788 48.7916 268.773 48.7944C268.696 48.8086 268.601 48.8258 268.518 48.8053C268.385 48.7729 268.323 48.6772 268.257 48.5762C268.206 48.4975 268.153 48.4155 268.063 48.3579C268.001 48.3186 267.92 48.2876 267.84 48.2568C267.721 48.2111 267.604 48.1659 267.554 48.0951C267.535 48.0685 267.539 48.0204 267.543 47.9725C267.543 47.9723 267.543 47.972 267.543 47.9718C267.544 47.9685 267.544 47.9653 267.544 47.9621C267.366 47.8594 267.186 47.7591 267.006 47.6603C266.985 47.6574 266.965 47.6543 266.945 47.6511C266.847 47.6357 266.752 47.6208 266.667 47.6396C266.576 47.66 266.433 47.6006 266.282 47.538C266.184 47.497 266.082 47.4546 265.989 47.4324C265.935 47.4194 265.923 47.3571 265.911 47.2929C265.9 47.2331 265.888 47.1716 265.841 47.1472C265.818 47.135 265.786 47.131 265.751 47.1267C265.72 47.1229 265.688 47.119 265.658 47.109C265.631 47.0997 265.598 47.0445 265.556 46.974C265.529 46.9303 265.5 46.8809 265.465 46.8325C265.332 46.7589 265.199 46.6844 265.067 46.6085C265.02 46.6174 264.969 46.6372 264.914 46.671C264.875 46.6953 264.833 46.7277 264.789 46.7607C264.73 46.8056 264.668 46.852 264.611 46.8821C264.566 46.9057 264.535 46.9051 264.535 46.8798C264.534 46.8681 264.54 46.8512 264.546 46.8359C264.552 46.8184 264.557 46.8029 264.552 46.7991C264.548 46.7964 264.536 46.8031 264.522 46.8111C264.5 46.8238 264.471 46.8402 264.455 46.8291C264.396 46.7877 264.339 46.7293 264.283 46.672C264.221 46.6083 264.16 46.5461 264.1 46.5104C264.033 46.4704 263.976 46.3657 263.918 46.2609C263.878 46.1879 263.838 46.1149 263.795 46.0635C263.752 46.0131 263.684 45.991 263.617 45.9698C263.537 45.9444 263.46 45.92 263.435 45.8484C263.43 45.8339 263.449 45.7847 263.472 45.7232C263.489 45.6795 263.508 45.6296 263.522 45.5813C263.458 45.5305 263.396 45.4781 263.335 45.4243C263.328 45.4278 263.321 45.4314 263.315 45.435C263.315 45.4351 263.314 45.4352 263.314 45.4353C263.163 45.5181 262.955 45.6314 262.936 45.4495C262.931 45.4032 262.953 45.3427 262.972 45.2882C262.992 45.2346 263.009 45.1867 262.997 45.1639C262.983 45.138 262.937 45.144 262.888 45.1504C262.818 45.1595 262.74 45.1696 262.73 45.0942C262.729 45.0891 262.728 45.0835 262.727 45.0778C262.72 45.0237 262.708 44.9437 262.732 44.8201C262.615 44.6885 262.501 44.5529 262.388 44.4148C262.201 44.1847 262.02 43.9475 261.839 43.7104C261.751 43.5948 261.74 43.3919 261.813 43.1399C261.887 42.8876 262.038 42.6083 262.24 42.3555C262.441 42.1027 262.68 41.8934 262.909 41.7654C263.138 41.6376 263.339 41.6032 263.471 41.6633C263.686 41.7618 263.902 41.8602 264.114 41.9622C264.128 41.9644 264.141 41.9669 264.155 41.9696C264.253 41.9901 264.374 41.9707 264.496 41.9514C264.524 41.9469 264.552 41.9425 264.58 41.9385ZM284.081 36.1331C284.552 37.8574 285.097 41.2445 285.394 43.109C285.399 43.1432 285.405 43.1773 285.41 43.2115C285.481 43.654 285.553 44.0701 285.638 44.5604C285.839 45.7255 286.112 47.3038 286.593 50.606C286.764 51.5611 286.932 52.5081 287.101 53.4751C287.578 56.2035 288.048 58.9599 288.499 61.6767L288.815 63.3379L287.109 63.7532C279.586 65.3983 272.051 66.9898 264.513 68.5679C264.384 68.5977 264.253 68.628 264.121 68.6586C261.561 69.2503 258.387 69.984 256.378 70.3776C253.823 70.8782 252.084 71.2007 250.656 71.4629C242.512 73.1662 234.371 74.8823 226.244 76.662C224.959 76.9435 223.673 77.2267 222.388 77.5116L221.424 77.7464L221.152 76.7539C220.835 75.5018 220.517 74.2502 220.197 72.9991C219.602 70.6729 219.002 68.3474 218.398 66.0235C218.019 64.6772 217.651 63.3992 217.309 62.214C216.829 60.5487 216.402 59.066 216.072 57.8356C215.276 54.8711 214.469 51.4837 213.87 48.9682C213.772 48.5571 213.679 48.1689 213.593 47.81C213.064 45.8259 212.533 43.8417 212.002 41.8581C211.98 41.7221 211.959 41.5849 211.937 41.4454C211.669 39.7049 211.133 37.6182 210.29 34.3336C210.245 34.1592 210.199 33.9813 210.153 33.8L209.873 32.7817L210.933 32.5127C212.245 32.2035 213.74 31.8527 215.464 31.4588C216.73 31.1697 217.395 31.0835 217.938 31.013C218.098 30.9922 218.248 30.9727 218.399 30.9499C218.916 30.8718 219.441 30.7016 220.061 30.5006C220.866 30.2398 221.831 29.9267 223.148 29.6953C227.346 28.9581 229.134 28.3694 230.487 27.9242C230.883 27.7936 231.243 27.6753 231.615 27.5692C232.82 27.2252 234.57 26.8746 235.901 26.6449C236.956 26.4627 239.024 25.912 240.584 25.4627C241.174 25.2928 241.981 25.1024 242.932 24.8783C243.916 24.6465 245.055 24.3784 246.265 24.059C249.323 23.2519 250.95 22.8269 252.257 22.4854C252.63 22.388 252.977 22.2975 253.324 22.2068C254.42 21.9199 255.783 21.5756 257.162 21.2271C258.813 20.81 260.489 20.3867 261.76 20.0484C265.087 19.309 268.417 18.5791 271.746 17.8492C273.456 17.4745 275.124 17.2344 276.385 17.1885C277.645 17.1429 278.394 17.2934 278.469 17.6141C278.544 17.9348 277.94 18.4032 276.791 18.9235C275.641 19.4436 274.04 19.9717 272.342 20.3975C268.921 21.2546 265.499 22.1119 262.076 22.9588C257.905 23.9903 253.731 25.0066 249.549 25.9888C246.623 26.6759 243.696 27.3554 240.767 28.0287C240.466 28.098 240.164 28.1672 239.862 28.2364C237.423 28.8926 234.987 29.5405 233.265 29.972C231.843 30.3283 230.792 30.5305 229.893 30.7037C229.274 30.8229 228.726 30.9284 228.178 31.0608C227.884 31.1319 227.482 31.2313 226.998 31.3513C225.021 31.8408 221.662 32.6723 218.572 33.3168C217.201 33.6028 215.601 33.9074 214.074 34.1981C213.149 34.3742 212.251 34.5453 211.446 34.7042L212.333 33.2402C212.571 34.3316 212.782 35.251 212.947 35.8309C213.448 37.5976 213.931 39.6474 214.357 41.4586C214.764 43.1862 215.12 44.6971 215.392 45.5386C215.716 46.544 215.913 47.422 216.207 48.7273C216.41 49.6327 216.659 50.7438 217.03 52.2458C217.457 53.9799 217.726 55.2154 217.954 56.2656C218.275 57.7436 218.517 58.8557 219.011 60.4789C219.559 62.282 220.099 64.1751 220.457 65.6832C220.62 66.3701 220.823 67.1517 221.035 67.9649C221.314 69.0414 221.608 70.1738 221.844 71.2162C222.037 72.0752 222.156 72.7959 222.261 73.4337C222.293 73.6326 222.325 73.8236 222.357 74.0081C222.531 74.6871 222.706 75.3661 222.882 76.0448C222.909 76.1229 222.938 76.2038 222.968 76.2874L221.979 75.6811C222.01 75.6707 222.043 75.6602 222.075 75.6496C222.672 75.455 223.406 75.2158 224.326 74.972C225.783 74.586 227.08 74.3312 228.448 74.0625C229.514 73.8534 230.622 73.6358 231.882 73.3412C232.742 73.1403 233.717 72.8943 234.683 72.6506C236.118 72.2886 237.536 71.9312 238.532 71.732C238.905 71.6574 239.233 71.6249 239.557 71.5929C239.559 71.5928 239.56 71.5927 239.561 71.5927C239.583 71.5905 239.606 71.5882 239.628 71.5861C242.033 71.014 244.439 70.4388 246.843 69.8619C247.05 69.8048 247.259 69.7474 247.466 69.6906C248.478 69.4129 249.462 69.1431 250.095 68.9315C250.782 68.7022 252.538 68.2638 254.389 67.8017C255.601 67.4991 256.855 67.1863 257.874 66.9155C258.47 66.7572 259.05 66.6694 259.646 66.5791C260.202 66.4949 260.773 66.4084 261.386 66.2604C261.692 66.1863 262.021 66.0948 262.372 65.9972C262.681 65.9112 263.007 65.8203 263.351 65.7324C263.67 65.6507 264.39 65.5119 265.314 65.3337C265.885 65.2235 266.533 65.0982 267.213 64.9623C268.995 64.5355 270.777 64.1096 272.559 63.6855C272.924 63.5663 273.237 63.4476 273.48 63.3311C273.654 63.2475 273.799 63.1617 273.948 63.0739C274.151 62.9544 274.361 62.8308 274.66 62.7027C274.894 62.6026 275.177 62.5199 275.374 62.4954C275.466 62.484 275.539 62.485 275.605 62.4858C275.68 62.4868 275.748 62.4877 275.826 62.4697C275.882 62.4566 275.938 62.4313 276.007 62.4004C276.117 62.351 276.26 62.2871 276.488 62.2347C277.337 62.0399 278.304 61.8326 279.251 61.6297C280.305 61.4041 281.335 61.1834 282.151 60.9904C283.066 60.7741 284.383 60.5254 285.702 60.2761C285.904 60.238 286.105 60.1999 286.306 60.1619L284.873 62.3038C284.778 61.6084 284.674 60.8775 284.579 60.271C284.455 59.4748 284.293 58.6926 284.131 57.9055C283.94 56.9769 283.754 56.0776 283.659 55.2977C283.639 55.1382 283.655 54.9373 283.675 54.6873C283.689 54.5096 283.705 54.3043 283.711 54.0711C283.539 53.0838 283.37 52.1124 283.203 51.1365C283.19 51.1034 283.177 51.0692 283.164 51.0349C283.164 51.0344 283.163 51.0338 283.163 51.0333C282.865 50.2562 282.457 49.1968 282.312 47.6318C282.275 47.2341 282.292 46.9759 282.306 46.7432C282.32 46.5138 282.333 46.3121 282.293 46.0245C282.246 45.6983 282.146 45.3208 282.036 44.9088C281.882 44.3313 281.709 43.6864 281.644 43.0199C281.639 42.9743 281.635 42.9253 281.629 42.8743C281.581 42.3903 281.51 41.6774 281.493 40.9547C281.149 38.8686 280.806 36.7815 280.463 34.693C279.889 31.2066 279.319 27.7398 278.713 24.2707C278.42 22.5933 278.239 20.9435 278.213 19.7155C278.194 18.4922 278.298 17.7693 278.605 17.6891C278.905 17.5434 279.431 18.1921 279.928 19.3308C280.434 20.4817 280.916 22.0895 281.281 23.764C281.875 26.4992 282.448 29.2465 283.01 31.9984C283.044 32.1438 283.077 32.2882 283.109 32.4292C283.351 33.4906 283.622 34.4701 283.895 35.4584C283.957 35.683 284.019 35.9067 284.081 36.1331Z" fill="black"/>
<path d="M10.2663 18.9786C12.8215 18.0631 15.1678 23.2978 15.1678 23.2978L6.47061 34.7595C6.47061 34.7595 1.11779 33.3168 1.56911 30.4403C2.12225 26.9149 7.63907 19.9199 10.2663 18.9786Z" fill="#373737"/>
<path d="M61.1699 74.7141L66.3883 78.0075L62.522 73.3295L61.1699 74.7141Z" fill="#373737"/>
<path d="M24.2707 28.8344C24.7882 29.0883 25.5658 29.865 25.9936 30.2922C26.0015 30.3 26.0093 30.3078 26.0172 30.3156C26.1188 30.417 26.2183 30.5084 26.3349 30.6153C26.6131 30.8704 26.9889 31.2151 27.7228 32.0002C27.9561 32.203 28.1883 32.4071 28.4193 32.6128C30.9141 34.8338 33.3305 37.1569 35.7314 39.5003C35.7634 39.5277 35.796 39.5556 35.8288 39.5838C36.4643 40.1281 37.2522 40.8032 37.7053 41.2821C38.2815 41.8908 38.6619 42.3185 38.9726 42.672C40.8787 44.5345 42.7928 46.3866 44.7464 48.187C45.3587 48.7513 45.9751 49.3105 46.5961 49.8634C47.168 50.3725 47.743 50.8779 48.3205 51.3797C48.6741 51.6495 49.0151 51.8996 49.3313 52.1316C49.7756 52.4576 50.1711 52.7479 50.4837 53.006C51.2369 53.628 52.0313 54.4119 52.6211 54.994C52.7175 55.0891 52.8085 55.1789 52.8929 55.2617C53.3949 55.6804 53.8979 56.0979 54.401 56.515C54.4258 56.5543 54.4506 56.5942 54.4757 56.6349C54.7887 57.1427 55.3031 57.5978 56.1128 58.3143C56.4654 58.6264 56.874 58.9881 57.3463 59.4252C57.6507 59.7069 57.7682 59.9023 57.8642 60.0619C57.8925 60.1089 57.919 60.1529 57.9477 60.1949C58.0463 60.3391 58.205 60.4194 58.3925 60.5144C58.6358 60.6375 58.9278 60.7852 59.1997 61.1287C60.066 62.223 60.6126 62.4904 61.026 62.6926C61.1472 62.752 61.2571 62.8058 61.3602 62.8732C61.5236 62.98 61.7002 63.1362 61.8698 63.3088L62.1487 63.6775C62.2486 63.9188 62.3301 64.1664 62.3956 64.3942C62.4957 64.7438 62.8551 65.3522 63.1509 65.7953C63.2623 65.9616 63.382 66.2137 63.5171 66.5006C63.6594 66.8028 63.8213 67.1489 64.0256 67.5125C64.5366 68.4211 64.7992 68.9084 65.0119 69.304C65.072 69.4157 65.1279 69.5204 65.184 69.6251C65.3618 69.957 65.5692 70.3719 65.778 70.7977C66.027 71.3044 66.277 71.8259 66.4788 72.2181C66.875 73.2904 67.2555 74.3791 67.5765 75.5538C67.7367 76.1628 67.7751 76.8072 67.5852 77.4569C67.4809 77.7494 67.3441 78.1634 66.9311 78.3933C66.5158 78.5557 66.3808 78.275 66.3899 78.1273C66.3901 77.9693 66.4662 77.7451 66.2835 77.6808C66.1083 77.6548 65.9965 77.6578 65.8716 77.5418C65.6259 77.3168 65.3708 76.881 65.1877 76.3834C64.8139 75.3691 64.3455 74.3247 63.8781 73.2959C63.3023 72.0336 62.711 70.7798 62.1315 69.5059C61.7256 68.6144 61.3257 67.7367 60.9148 66.837C60.8725 66.7444 60.8315 66.6542 60.7916 66.5667C60.448 65.9939 60.0981 65.4046 59.8426 64.9592L60.2207 65.4592C60.1278 65.3868 60.0405 65.3177 59.9602 65.2525C59.5978 64.9589 59.3696 64.698 59.1741 64.4746C59.0396 64.3208 58.9206 64.1847 58.7841 64.068C58.7108 64.0053 58.6092 63.9216 58.4868 63.8206C57.9867 63.4081 57.1374 62.7076 56.4338 61.9756C56.1216 61.6508 55.7763 61.251 55.4465 60.8692C54.9751 60.3233 54.5354 59.8144 54.27 59.6141C53.8038 59.2626 53.3268 58.7842 52.9054 58.3615C52.5034 57.9582 52.1518 57.6056 51.9082 57.462C51.6171 57.2903 51.4191 57.0784 51.1247 56.7635C50.9205 56.545 50.6698 56.2771 50.3095 55.9384C49.8936 55.5473 49.6206 55.2429 49.3886 54.9842C49.062 54.6201 48.8163 54.3462 48.3663 54.0471C47.8665 53.7149 47.3651 53.3402 47.0122 52.9904C46.8514 52.8311 46.6573 52.6622 46.4553 52.4865C46.1879 52.2539 45.9067 52.0092 45.6707 51.7587C45.4762 51.5522 45.3418 51.3472 45.2229 51.1658C45.1858 51.1092 45.1502 51.055 45.1147 51.0036C44.9472 50.8556 44.7795 50.7079 44.6114 50.5607C44.5781 50.5448 44.5427 50.5286 44.5059 50.5115C44.3211 50.4258 44.094 50.3202 43.8455 50.1471C43.4521 49.8731 43.1591 49.5645 42.8502 49.2389C42.6097 48.9853 42.3595 48.7214 42.0444 48.4557C41.8296 48.2745 41.5743 48.0821 41.3213 47.8914C40.9454 47.6081 40.5744 47.3283 40.3472 47.0939C40.262 47.0061 40.2086 46.9049 40.1558 46.8046C40.1556 46.8041 40.1554 46.8036 40.1552 46.8031C40.1516 46.7963 40.148 46.7895 40.1444 46.7827C39.5369 46.2827 38.9274 45.7851 38.3168 45.2889C38.2595 45.2517 38.2017 45.2138 38.1445 45.1763C37.865 44.9928 37.5934 44.8145 37.3941 44.7272C37.1781 44.6326 36.7212 44.2826 36.2396 43.9138C35.9242 43.6722 35.5982 43.4225 35.3224 43.2311C35.1611 43.1193 35.0471 42.9625 34.9297 42.8011C34.8203 42.6505 34.7079 42.4959 34.5517 42.3704C34.4735 42.3075 34.3819 42.2488 34.2841 42.1863C34.1981 42.1312 34.107 42.0729 34.0163 42.0061C33.9319 41.944 33.771 41.7706 33.5644 41.5485C33.4368 41.4112 33.2917 41.2553 33.1366 41.0953C32.6847 40.7273 32.2333 40.3584 31.783 39.9882C31.6699 39.936 31.5623 39.903 31.463 39.8953C31.3918 39.8898 31.322 39.8969 31.2506 39.904C31.1533 39.9137 31.0528 39.9236 30.9405 39.903C30.8527 39.8868 30.7713 39.839 30.7359 39.7818C30.7194 39.7551 30.7129 39.7267 30.7069 39.7009C30.7001 39.6714 30.6939 39.6451 30.6746 39.6284C30.6606 39.6164 30.6387 39.6135 30.6119 39.6098C30.5691 39.6038 30.5137 39.5958 30.4573 39.5471C30.2475 39.3658 30.018 39.1482 29.7931 38.935C29.5431 38.6978 29.2987 38.4661 29.0932 38.2955C28.863 38.1045 28.5721 37.7838 28.2805 37.4628C28.0771 37.2389 27.8732 37.0148 27.6897 36.8338C27.5098 36.6566 27.2988 36.5028 27.0944 36.3541C26.849 36.1755 26.6129 36.0039 26.4518 35.8065C26.4193 35.7665 26.4031 35.6853 26.3827 35.5836C26.3682 35.5115 26.3513 35.4287 26.3254 35.3433C26.089 35.1328 25.8539 34.9207 25.6198 34.7073C25.6073 34.7052 25.5946 34.7031 25.5817 34.701C25.5814 34.701 25.5812 34.701 25.581 34.701C25.29 34.6545 24.8918 34.5907 24.5976 34.1553C24.5228 34.0447 24.5001 33.9431 24.4797 33.8516C24.4597 33.7618 24.4418 33.6815 24.3788 33.6119C24.3073 33.5329 24.1944 33.4766 24.0714 33.4151C23.8988 33.3289 23.7059 33.2326 23.5788 33.0492C23.5701 33.0367 23.5608 33.0232 23.5511 33.0092C23.4585 32.8769 23.3215 32.681 23.2194 32.4415C22.7335 31.9693 22.2507 31.493 21.7699 31.0142C20.9684 30.2161 20.1722 29.4108 19.3761 28.6058C18.9891 28.2138 18.6895 27.7446 18.5482 27.2948C18.4071 26.8447 18.4347 26.4523 18.6313 26.1959C18.8279 25.9396 19.1802 25.8365 19.617 25.901C20.0537 25.9656 20.5378 26.1942 20.968 26.5299C21.6692 27.0777 22.3707 27.6256 23.0693 28.177C23.1083 28.2028 23.1473 28.2288 23.1859 28.2551C23.4733 28.4505 23.7697 28.5929 24.0663 28.7354C24.1344 28.7682 24.2027 28.801 24.2707 28.8344ZM60.2987 79.0878C59.7329 79.1525 58.6979 78.9046 58.1275 78.7665C58.1171 78.7641 58.1067 78.7616 58.0962 78.7592C57.9623 78.7267 57.8319 78.7013 57.6812 78.6719C57.3252 78.6024 56.8343 78.5069 55.8355 78.2221C55.5439 78.1729 55.2471 78.1208 54.9487 78.0662C54.0332 77.8986 53.1002 77.715 52.1968 77.5258L51.8296 77.4791L51.3735 77.1166C49.6276 75.4999 47.9121 73.8434 46.2045 72.1768C46.1725 72.1494 46.14 72.1215 46.1071 72.0933C45.4717 71.549 44.6838 70.8739 44.2308 70.3951C43.6547 69.7864 43.2743 69.3588 42.9636 69.0053C41.0577 67.143 39.1438 65.291 37.1903 63.4907C36.578 62.9265 35.9617 62.3673 35.3408 61.8145C34.7689 61.3054 34.1939 60.8001 33.6165 60.2983C33.2629 60.0286 32.922 59.7784 32.6058 59.5465C32.1615 59.2205 31.766 58.9302 31.4534 58.6721C30.7003 58.0502 29.906 57.2664 29.3162 56.6844C29.2198 56.5892 29.1288 56.4994 29.0444 56.4166C28.5425 55.998 28.0396 55.5805 27.5365 55.1634C27.5117 55.1242 27.4869 55.0842 27.4619 55.0435C27.1489 54.5358 26.6345 54.0808 25.8249 53.3643C25.4723 53.0522 25.0638 52.6905 24.5914 52.2534C24.2871 51.9718 24.1696 51.7764 24.0736 51.6168C24.0453 51.5698 24.0188 51.5258 23.9901 51.4838C23.8916 51.3396 23.7328 51.2593 23.5453 51.1644C23.302 51.0412 23.0101 50.8936 22.7382 50.5502C21.872 49.4559 21.3255 49.1885 20.9121 48.9863C20.7908 48.927 20.681 48.8731 20.5779 48.8058C20.2436 48.5873 19.8546 48.1625 19.5825 47.8127C19.3668 47.5354 18.8189 47.1321 18.3836 46.8522C18.219 46.7464 18.021 46.5711 17.7879 46.3646C17.5466 46.1508 17.2677 45.9034 16.9489 45.6652C16.1432 45.0633 15.7175 44.7403 15.3754 44.4804C15.2779 44.4064 15.1871 44.3372 15.0963 44.2684C14.8091 44.0511 14.46 43.7719 14.1067 43.4891C13.6838 43.1507 13.2546 42.8073 12.9179 42.5592C12.1311 41.8041 11.3502 41.0413 10.5693 40.2786C10.1684 39.8867 9.85828 39.4134 9.71164 38.9578C9.56518 38.5021 9.59294 38.1026 9.79326 37.8413C9.99362 37.5801 10.3525 37.4754 10.7955 37.5444C11.2384 37.6137 11.7284 37.8524 12.1613 38.2027C13.0329 38.9089 13.9047 39.6153 14.7699 40.33C15.8239 41.2006 16.8684 42.0838 17.8915 42.9946C18.6072 43.6318 19.3182 44.2752 20.0253 44.9236C20.0981 44.9904 20.1708 45.0573 20.2435 45.1241C20.8942 45.5951 21.5391 46.0709 21.978 46.4264C22.3403 46.72 22.5685 46.9809 22.7639 47.2044C22.8984 47.3581 23.0174 47.4942 23.1539 47.6109C23.2272 47.6736 23.3288 47.7573 23.4512 47.8583C23.9513 48.2707 24.8005 48.9712 25.504 49.7031C25.8162 50.0279 26.1615 50.4277 26.4912 50.8094C26.9626 51.3552 27.4022 51.8642 27.6677 52.0644C28.1338 52.4159 28.6108 52.8943 29.0322 53.317C29.4341 53.7202 29.7857 54.0728 30.0293 54.2164C30.3203 54.388 30.5183 54.5999 30.8127 54.9148C31.0168 55.1332 31.2675 55.4012 31.6277 55.7399C32.0436 56.1309 32.3166 56.4352 32.5486 56.6939C32.8751 57.058 33.1208 57.332 33.5708 57.631C34.0706 57.9632 34.572 58.3378 34.9248 58.6876C35.0856 58.8469 35.2797 59.0158 35.4816 59.1914C35.7491 59.424 36.0303 59.6687 36.2662 59.9192C36.4606 60.1257 36.595 60.3307 36.7139 60.5121C36.751 60.5686 36.7867 60.6229 36.8221 60.6742C36.9896 60.8222 37.1573 60.9699 37.3254 61.1171C37.3587 61.133 37.3941 61.1492 37.4309 61.1663C37.6156 61.252 37.8427 61.3575 38.0912 61.5307C38.4846 61.8047 38.7776 62.1132 39.0865 62.4388C39.327 62.6924 39.5771 62.9562 39.8921 63.2219C40.107 63.4031 40.3622 63.5955 40.6153 63.7862C40.9911 64.0694 41.3621 64.3493 41.5893 64.5836C41.6744 64.6714 41.7279 64.7726 41.7806 64.8729C41.7808 64.8734 41.781 64.8739 41.7812 64.8744C41.7848 64.8812 41.7884 64.888 41.792 64.8948C42.3995 65.3948 43.009 65.8923 43.6195 66.3884C43.6768 66.4257 43.7345 66.4635 43.7917 66.5011C44.0712 66.6845 44.3428 66.8628 44.5421 66.9501C44.7581 67.0446 45.215 67.3946 45.6966 67.7634C46.0119 68.005 46.3379 68.2547 46.6137 68.446C46.7749 68.5579 46.889 68.7146 47.0063 68.876C47.1157 69.0266 47.2281 69.1812 47.3843 69.3067C47.4625 69.3696 47.5541 69.4282 47.6518 69.4908C47.7379 69.5459 47.8289 69.6041 47.9197 69.6709C48.004 69.7331 48.165 69.9064 48.3715 70.1286C48.4991 70.2658 48.6442 70.4217 48.7992 70.5817C49.2512 70.9497 49.7025 71.3185 50.1528 71.6887C50.2658 71.7409 50.3735 71.7739 50.4727 71.7816C50.544 71.7871 50.6137 71.78 50.6852 71.7729C50.7824 71.7632 50.883 71.7533 50.9952 71.7739C51.083 71.79 51.1644 71.8378 51.1998 71.895C51.2163 71.9217 51.2228 71.9502 51.2288 71.9759C51.2356 72.0055 51.2418 72.0318 51.2611 72.0484C51.2751 72.0604 51.297 72.0633 51.3238 72.067C51.3665 72.073 51.422 72.081 51.4784 72.1297C51.6881 72.311 51.9177 72.5286 52.1425 72.7418C52.3925 72.9789 52.6369 73.2106 52.8423 73.3812C53.0646 73.5657 53.3435 73.8709 53.6249 74.1807L52.7619 73.7518C52.7583 73.7528 52.7882 73.7601 52.8005 73.7641C53.0693 73.8481 53.349 73.9337 53.5975 73.9936C53.8282 74.0499 54.0818 74.0701 54.3307 74.09C54.6196 74.112 54.9008 74.1335 55.137 74.2193C55.1863 74.237 55.2332 74.298 55.2981 74.3755C55.3436 74.4303 55.3965 74.4931 55.4594 74.5536C55.7627 74.6091 56.0663 74.6666 56.361 74.7242C56.3725 74.7192 56.3844 74.7141 56.3964 74.7089C56.3966 74.7087 56.3968 74.7086 56.397 74.7085C56.67 74.5913 57.0373 74.4298 57.4936 74.648C57.6089 74.7033 57.6763 74.7793 57.7372 74.8477C57.7967 74.9149 57.8517 74.9753 57.9368 75.0011C58.0343 75.0306 58.1567 75.0178 58.2909 75.0041C58.4805 74.985 58.6879 74.9628 58.8833 75.0525C58.8966 75.0586 58.9109 75.0653 58.9258 75.0721C59.068 75.1364 59.2762 75.2312 59.4766 75.383C60.1144 75.5263 60.7483 75.673 61.3852 75.8214C62.4454 76.0681 63.5003 76.3194 64.5566 76.5532C65.0702 76.667 65.5434 76.8901 65.8779 77.1789C66.2105 77.4693 66.3867 77.7935 66.3899 78.1273C66.4126 78.4634 66.1401 78.783 65.7304 78.9885C65.3167 79.1955 64.783 79.2798 64.2451 79.2365C63.375 79.1659 62.5024 79.0829 61.6414 78.9937C61.5962 78.9931 61.5506 78.9922 61.5052 78.9909C61.1653 78.9809 60.8444 79.0213 60.5209 79.0609C60.4461 79.07 60.3727 79.0792 60.2987 79.0878ZM64.4682 79.0629C64.3002 79.1416 64.1495 78.971 64.0666 78.8773C64.065 78.8756 64.0635 78.8739 64.0619 78.8723C64.0423 78.85 64.0209 78.834 63.9959 78.8154C63.9361 78.7711 63.8553 78.7111 63.7266 78.5121C63.6736 78.483 63.6214 78.4524 63.5702 78.4201C63.017 78.0709 62.5254 77.6071 62.046 77.1206C62.0387 77.1169 62.0312 77.1131 62.0236 77.1093C61.8772 77.036 61.6957 76.945 61.6146 76.8264C61.5116 76.6757 61.4502 76.5574 61.401 76.4578C61.1495 76.201 60.8952 75.9495 60.6309 75.7164L59.563 75.405L60.4159 73.8652C60.5579 73.7606 60.6963 73.6519 60.8297 73.5376C60.9534 73.4316 61.0727 73.3207 61.1868 73.2039C61.2918 73.0964 61.3936 72.9851 61.4924 72.8705C61.531 72.7825 61.5623 72.6927 61.5914 72.6095C61.6215 72.5235 61.6492 72.4444 61.6798 72.3814L62.1228 71.5708L63.4223 72.4734C63.4431 72.4864 63.462 72.4997 63.4786 72.5135C63.6296 72.6399 63.7302 72.8506 63.8049 73.007C63.8171 73.0325 63.8286 73.0567 63.8395 73.0788C63.9382 73.1655 64.0381 73.2513 64.1382 73.3367C64.1346 73.3522 64.1306 73.3681 64.1265 73.3844C64.0749 73.5876 64.1641 73.6923 64.3045 73.8571C64.3656 73.9289 64.4363 74.0122 64.5095 74.1199C64.5566 74.1893 64.535 74.2685 64.5174 74.3332C64.5122 74.3522 64.5074 74.37 64.5048 74.3859C64.4957 74.4404 64.5508 74.4364 64.6159 74.4316C64.7004 74.4254 64.8018 74.418 64.8017 74.5355C64.8016 74.91 64.9956 74.8905 65.1423 74.8757C65.1853 74.8714 65.2243 74.8676 65.2531 74.8741C65.3465 74.8954 65.3771 75.0233 65.3742 75.1446C65.3719 75.2408 65.5044 75.303 65.6282 75.328C65.675 75.3374 65.7093 75.3778 65.7496 75.4254C65.7913 75.4747 65.8394 75.5318 65.9148 75.5701C66.1055 75.667 66.2039 75.7213 66.2829 75.765C66.3054 75.7774 66.3263 75.7892 66.3474 75.8006C66.414 75.8369 66.4881 75.89 66.5632 75.9438C66.6529 76.0083 66.744 76.0736 66.8253 76.1121C66.9347 76.3078 67.0372 76.5102 67.1397 76.7125C67.1922 76.8165 67.1547 76.9999 67.0307 77.2267C66.9065 77.4537 66.7071 77.7044 66.4712 77.9287C66.2353 78.153 65.9793 78.3352 65.7544 78.4403C65.5295 78.5452 65.3552 78.5632 65.2651 78.4948C65.0841 78.3568 64.903 78.2187 64.7296 78.0733C64.5184 77.8963 64.3185 77.7085 64.1436 77.4969C64.0213 77.3488 63.9045 77.1955 63.7923 77.0378C63.7808 77.0216 63.7693 77.0053 63.7578 76.9889C63.597 76.9198 63.4416 76.8459 63.3504 76.7764C63.2752 76.719 63.2627 76.6369 63.252 76.5666C63.2446 76.5182 63.238 76.4754 63.2125 76.45C63.1988 76.4364 63.1784 76.4195 63.1538 76.399C63.0533 76.3154 62.8826 76.1733 62.8108 75.964C62.779 75.8711 62.7623 75.7438 62.7464 75.6223C62.7237 75.4486 62.7025 75.2866 62.6406 75.2535C62.5318 75.1955 62.4749 75.0644 62.4247 74.9485C62.3768 74.8379 62.3348 74.7412 62.2596 74.7351C62.1697 74.7279 62.1522 74.6653 62.1261 74.5725C62.1081 74.5081 62.0857 74.4292 62.0324 74.3439C61.9709 74.2453 61.9523 74.1518 61.9366 74.0722C61.9255 74.0159 61.9157 73.9666 61.893 73.9275L63.1103 73.9918C63.0755 74.0167 63.0506 74.0549 63.0391 74.1211C63.0134 74.2692 62.9633 74.3979 62.8776 74.4472C62.8386 74.4697 62.8053 74.5081 62.7706 74.548C62.7247 74.601 62.6764 74.6566 62.6093 74.6816C62.5541 74.7021 62.4794 74.6865 62.4133 74.6727C62.3927 74.6683 62.373 74.6643 62.3549 74.6614C62.3248 74.6935 62.2949 74.7258 62.2655 74.7586C62.2675 74.7715 62.2699 74.7854 62.2723 74.7999C62.2845 74.8724 62.2994 74.9614 62.2819 75.0312C62.2543 75.1417 62.1726 75.174 62.0862 75.2078C62.0189 75.2341 61.9488 75.2615 61.8996 75.3278C61.8736 75.3628 61.8519 75.4095 61.8313 75.4586L61.6427 73.8349C61.6572 73.8374 61.672 73.8397 61.6866 73.8419C61.7832 73.857 61.8785 73.872 61.9206 73.9273C61.9364 73.948 61.9344 73.9947 61.9324 74.041C61.9324 74.0413 61.9323 74.0416 61.9323 74.0418C61.9321 74.045 61.932 74.0481 61.9319 74.0512C62.0772 74.1064 62.2239 74.1588 62.3715 74.2095C62.3878 74.2075 62.4041 74.2056 62.4202 74.2039C62.4991 74.1952 62.5757 74.1868 62.6431 74.1488C62.7162 74.1076 62.8322 74.13 62.9544 74.1536C63.0345 74.1691 63.1172 74.1851 63.1923 74.1841C63.2362 74.1835 63.2473 74.2398 63.2586 74.2979C63.2692 74.352 63.2801 74.4076 63.3182 74.4196C63.3373 74.4256 63.3635 74.4217 63.3915 74.4175C63.4161 74.4138 63.4422 74.4099 63.4659 74.4124C63.488 74.4147 63.5159 74.4592 63.5518 74.5161C63.574 74.5513 63.5993 74.5911 63.628 74.6289C63.7371 74.667 63.8458 74.706 63.9535 74.7466C63.9911 74.727 64.0311 74.6962 64.0739 74.6511C64.1047 74.6187 64.138 74.5779 64.172 74.5362C64.2184 74.4794 64.2664 74.4208 64.3117 74.3785C64.3471 74.3455 64.3716 74.3388 64.3728 74.3626C64.3733 74.3737 64.369 74.3911 64.365 74.4069C64.3605 74.425 64.3565 74.4411 64.3609 74.4434C64.3642 74.445 64.3733 74.4359 64.3844 74.425C64.4022 74.4075 64.4251 74.385 64.438 74.3918C64.4859 74.4172 64.5334 74.459 64.5799 74.5C64.6316 74.5457 64.6822 74.5902 64.7309 74.6099C64.7855 74.632 64.8342 74.7177 64.883 74.8035C64.9171 74.8632 64.9513 74.9229 64.9875 74.9614C65.023 74.9991 65.0785 75.0038 65.1324 75.0081C65.1971 75.0132 65.2594 75.0181 65.2812 75.0801C65.2856 75.0927 65.272 75.1438 65.255 75.2077C65.2429 75.253 65.2292 75.3049 65.2189 75.3542C65.2713 75.3872 65.3227 75.4222 65.3733 75.4586C65.3784 75.4537 65.3836 75.4488 65.3889 75.4437C65.389 75.4436 65.3891 75.4435 65.3892 75.4433C65.5086 75.3287 65.6718 75.1719 65.6923 75.3399C65.6975 75.3826 65.6816 75.4453 65.6672 75.5017C65.6531 75.5571 65.6405 75.6067 65.651 75.6254C65.6629 75.6466 65.6993 75.6301 65.7389 75.6122C65.7946 75.587 65.8568 75.5589 65.8669 75.628C65.8676 75.6327 65.8683 75.6379 65.8691 75.6431C65.8768 75.6926 65.8881 75.7657 65.8724 75.8887C65.97 75.9857 66.065 76.0872 66.1586 76.1916C66.3145 76.3656 66.4663 76.5475 66.6179 76.7294C66.6915 76.8182 66.7058 77.0081 66.6536 77.2648C66.6013 77.5218 66.4876 77.8228 66.3329 78.1106C66.1781 78.3984 65.9925 78.6538 65.812 78.8298C65.6317 79.0056 65.4721 79.0858 65.3645 79.0603C65.1893 79.018 65.014 78.9758 64.8409 78.9296C64.83 78.9307 64.8191 78.9316 64.8084 78.9321C64.7291 78.9361 64.6321 78.9834 64.535 79.0307C64.5127 79.0416 64.4903 79.0525 64.4682 79.0629ZM11.8515 21.5289C11.5737 21.4449 11.3028 21.1247 11.1824 21.0167C11.1801 21.0146 11.1778 21.0124 11.1755 21.0103C11.1461 20.9824 11.1176 20.9637 11.0874 20.9455C11.0146 20.9015 10.9348 20.8641 10.8947 20.7669C10.8813 20.7716 10.8713 20.775 10.848 20.7832C10.8462 20.7839 10.8442 20.7846 10.8423 20.7853C9.86962 21.1876 8.21133 22.6697 6.939 23.9743C6.9243 23.9933 6.90936 24.0127 6.89428 24.0324C6.60098 24.4125 6.25153 24.8956 5.98582 25.1598C5.64718 25.4955 5.4088 25.7205 5.21263 25.9039C4.25383 27.0867 3.35079 28.3776 2.8181 29.7247C2.69625 30.0401 2.60229 30.3522 2.55524 30.6339C2.54391 30.7006 2.53962 30.7595 2.54091 30.8203C2.54569 31.0333 2.62678 31.2545 2.81368 31.503C2.94336 31.6286 3.09618 31.7362 3.25051 31.8307C3.46725 31.9631 3.68197 32.0666 3.85469 32.1677C4.26821 32.4118 4.76158 32.7353 5.15242 32.9576C5.21482 32.9935 5.27651 33.0279 5.33284 33.0585C5.66369 33.1773 6.0073 33.2829 6.34422 33.3702C6.36405 33.3907 6.38316 33.4114 6.40172 33.4323C6.48853 33.531 6.61454 33.6133 6.71192 33.6664L5.65366 34.0396C5.84066 33.8591 6.02864 33.6087 6.27158 33.2853C6.44228 33.058 6.64021 32.7947 6.88386 32.4941C7.04086 32.3004 7.16949 32.2432 7.27454 32.1964C7.30544 32.1826 7.33438 32.1696 7.36133 32.1545C7.45371 32.1025 7.48338 31.988 7.51843 31.8528C7.56391 31.6774 7.6184 31.4668 7.83071 31.3123C8.50721 30.8201 8.60209 30.4242 8.67385 30.1247C8.6949 30.0368 8.71406 29.9572 8.74524 29.886C8.84637 29.6549 9.09788 29.4203 9.31516 29.267C9.48744 29.1455 9.68862 28.7758 9.81675 28.4739C9.8652 28.3597 9.96108 28.2321 10.0741 28.0819C10.1911 27.9265 10.3266 27.7468 10.4465 27.5324C10.7494 26.9906 10.9134 26.7054 11.0453 26.4762C11.0829 26.4108 11.1181 26.3501 11.153 26.2892C11.2631 26.0966 11.4088 25.8656 11.5564 25.6318C11.733 25.352 11.9123 25.068 12.0362 24.8409C12.4632 24.3456 12.8976 23.8567 13.3318 23.3678C13.555 23.1169 13.8612 22.9572 14.1878 22.9285C14.5146 22.8999 14.8339 23.0035 15.081 23.2213C15.3281 23.439 15.4857 23.7557 15.5246 24.1065C15.5634 24.4572 15.4791 24.8124 15.2952 25.098C14.9244 25.673 14.5534 26.2482 14.1746 26.8162C13.713 27.5081 13.2396 28.1897 12.74 28.8481C12.3905 29.3087 12.0351 29.7641 11.6751 30.2153C11.638 30.2618 11.6008 30.3081 11.5636 30.3545C11.3309 30.7951 11.0932 31.23 10.9064 31.5195C10.7522 31.7585 10.5955 31.8937 10.4613 32.0095C10.3689 32.0892 10.2872 32.1597 10.2243 32.2485C10.1905 32.2961 10.1462 32.3629 10.0927 32.4433C9.8742 32.7717 9.50314 33.3294 9.07674 33.7608C8.88754 33.9522 8.64642 34.1558 8.41622 34.3501C8.08706 34.628 7.78015 34.8871 7.67886 35.0653C7.58766 35.2257 7.47089 35.3817 7.34598 35.5309L6.78252 36.1458L6.21204 35.9309C5.99266 35.8603 5.83185 35.7882 5.6559 35.7107C5.3281 35.564 5.04663 35.4225 4.86117 35.4084C4.644 35.3931 4.4788 35.2943 4.24676 35.1443C4.08302 35.0383 3.88661 34.9083 3.60795 34.7447C3.28667 34.5551 3.07941 34.3732 2.90709 34.2143C2.66425 33.9877 2.49122 33.8146 2.15704 33.6319C1.78532 33.4282 1.41187 33.1097 1.19986 32.7538C1.1024 32.5922 0.986369 32.408 0.881614 32.1929C0.742325 31.9102 0.630021 31.5669 0.61269 31.2404C0.597257 30.9688 0.658757 30.7484 0.7244 30.5719C0.744967 30.517 0.766081 30.4652 0.786256 30.4155C0.790938 30.3737 0.796463 30.3318 0.802827 30.2899C0.821692 30.1649 0.845044 30.0387 0.872287 29.9113C0.868774 29.8815 0.863741 29.8543 0.859277 29.8237C0.835603 29.6752 0.81729 29.4702 0.84562 29.2618C0.895874 28.9156 1.0303 28.6581 1.1753 28.4015C1.29016 28.198 1.41075 27.9986 1.51774 27.7463C1.58943 27.577 1.65842 27.3786 1.7316 27.1809C1.837 26.8929 1.95181 26.6067 2.07329 26.4403C2.11904 26.3775 2.18578 26.3408 2.25146 26.306C2.2518 26.3059 2.25214 26.3057 2.25249 26.3056C2.25692 26.3033 2.2613 26.301 2.26572 26.2987C2.49033 25.8498 2.72766 25.4044 2.97137 24.9689C2.9869 24.9266 3.00305 24.8838 3.01899 24.8417C3.09606 24.6373 3.17438 24.4384 3.19817 24.2857C3.22277 24.1214 3.39917 23.794 3.59163 23.4555C3.7178 23.2332 3.8511 23.0053 3.9499 22.8096C4.00753 22.6954 4.11095 22.6293 4.21706 22.5628C4.31622 22.5007 4.4176 22.4382 4.48926 22.3325C4.52522 22.2795 4.55561 22.2145 4.58824 22.1451C4.61697 22.0841 4.64747 22.0197 4.68496 21.9575C4.71951 21.9002 4.83036 21.801 4.97267 21.6767C5.06082 21.5997 5.1597 21.5145 5.2634 21.4199C5.48564 21.1235 5.71433 20.8315 5.95162 20.5443C5.97987 20.4608 5.99395 20.377 5.98957 20.2935C5.98643 20.2335 5.97376 20.1713 5.96106 20.1075C5.94389 20.0207 5.92578 19.9314 5.93284 19.8383C5.93804 19.7658 5.96876 19.7078 6.0105 19.6931C6.02995 19.6862 6.05157 19.6886 6.07114 19.6907C6.09355 19.6932 6.11349 19.6954 6.12485 19.6833C6.13303 19.6745 6.13352 19.6563 6.13431 19.634C6.13557 19.5984 6.13746 19.5523 6.17087 19.5174C6.29579 19.3871 6.45408 19.2471 6.60559 19.1181C6.78259 18.9664 6.94723 18.8319 7.08113 18.7019C7.22632 18.5603 7.47721 18.4081 7.73358 18.2665C7.91773 18.1633 8.09901 18.0693 8.26028 17.9728C8.41837 17.8783 8.55911 17.7541 8.71874 17.6282C8.89713 17.4846 9.10886 17.3376 9.31948 17.2879C9.36455 17.2766 9.43601 17.3012 9.52344 17.3348C9.58545 17.3587 9.65578 17.387 9.7309 17.4109C9.73988 17.4076 9.74889 17.4043 9.75791 17.4011C10.0566 17.294 10.3734 17.2312 10.6933 17.2192C10.7046 17.2116 10.7163 17.2039 10.7282 17.1961C10.7283 17.1959 10.7285 17.1957 10.7287 17.1956C10.9835 17.0194 11.4387 16.815 11.9153 17.0987C12.0322 17.1699 12.0894 17.2577 12.1381 17.336C12.186 17.4133 12.2252 17.4823 12.2993 17.5262C12.3834 17.5761 12.4989 17.5943 12.6212 17.6185C12.7919 17.6515 12.9844 17.7019 13.1084 17.8509C13.1169 17.8611 13.1259 17.8721 13.1354 17.8835C13.2264 17.992 13.3474 18.1515 13.4218 18.3578C13.8133 18.7208 14.1306 19.1087 14.4104 19.503C14.8749 20.1619 15.2354 20.8395 15.5533 21.5293C15.7074 21.8656 15.7452 22.2535 15.6517 22.5942C15.5619 22.9427 15.3497 23.2117 15.0675 23.3485C14.7892 23.4943 14.4705 23.5231 14.1638 23.4386C13.8604 23.3598 13.5967 23.1768 13.4153 22.9319C13.1205 22.5327 12.8088 22.156 12.4916 21.8238C12.4721 21.809 12.4527 21.7942 12.4337 21.7793C12.2917 21.6684 12.1246 21.6073 11.9623 21.5598C11.925 21.549 11.8879 21.5388 11.8515 21.5289Z" fill="black"/>
<path d="M20.5071 35.1554C20.921 35.3228 21.4964 35.9303 21.813 36.2645C21.8188 36.2705 21.8247 36.2766 21.8305 36.2827C21.9057 36.362 21.9802 36.4325 22.0677 36.5151C22.2762 36.7119 22.5579 36.9778 23.0948 37.5981C23.271 37.7531 23.4461 37.9095 23.62 38.0674C25.498 39.7724 27.2967 41.5788 29.0798 43.4051C29.104 43.426 29.1287 43.4473 29.1535 43.4688C29.6344 43.8839 30.2307 44.3986 30.5629 44.7763C30.9852 45.2564 31.2611 45.5965 31.4859 45.8781C32.9012 47.33 34.3247 48.7715 35.7881 50.1619C36.2468 50.5976 36.7095 51.0283 37.177 51.4528C37.6075 51.8436 38.0412 52.2307 38.4774 52.6143C38.7488 52.8154 39.0118 53.0003 39.2557 53.1718C39.5984 53.4128 39.9034 53.6275 40.1412 53.823C40.7139 54.294 41.3028 54.906 41.7401 55.3604C41.8116 55.4347 41.879 55.5048 41.9417 55.5694C42.3229 55.887 42.7051 56.2036 43.0875 56.5196C43.1041 56.5521 43.1206 56.5851 43.1374 56.6188C43.3459 57.0391 43.7335 57.3881 44.3435 57.9376C44.6092 58.1769 44.917 58.4544 45.2706 58.7922C45.4985 59.0098 45.5762 59.1719 45.6397 59.3044C45.6584 59.3433 45.676 59.3798 45.6957 59.4143C45.7632 59.5324 45.8899 59.586 46.0396 59.6493C46.2337 59.7314 46.4668 59.8298 46.6595 60.107C47.2735 60.9901 47.7108 61.1662 48.0416 61.2994C48.1386 61.3385 48.2265 61.374 48.307 61.4224C48.568 61.5796 48.8517 61.9162 49.0438 62.1991C49.1961 62.4234 49.6186 62.7217 49.959 62.9223C50.0877 62.9981 50.2369 63.1326 50.4125 63.291C50.5942 63.455 50.8044 63.6448 51.0498 63.8216C51.6699 64.2683 51.997 64.5089 52.2599 64.7025C52.3348 64.7576 52.4045 64.8092 52.4743 64.8604C52.695 65.0222 52.9616 65.2323 53.2313 65.4452C53.5542 65.6999 53.8819 65.9584 54.1415 66.142C54.7273 66.729 55.3073 67.3237 55.8872 67.9182C56.1849 68.2238 56.3951 68.6134 56.4671 69.0065C56.5389 69.3996 56.4679 69.7628 56.2652 70.0219C56.0624 70.281 55.7422 70.4178 55.3702 70.4082C54.9984 70.3983 54.6062 70.2412 54.2762 69.9769C53.6117 69.444 52.9472 68.911 52.2892 68.3697C51.4877 67.7103 50.6959 67.0385 49.9256 66.3391C49.3868 65.8499 48.8528 65.3545 48.3227 64.8542C48.2681 64.8027 48.2136 64.7511 48.1591 64.6995C47.6565 64.3523 47.1593 64.0001 46.8248 63.7318C46.5486 63.5103 46.3836 63.3022 46.2423 63.1241C46.1451 63.0016 46.059 62.8931 45.9557 62.8041C45.9002 62.7564 45.823 62.693 45.7299 62.6165C45.3495 62.3042 44.7036 61.7738 44.1865 61.1978C43.957 60.9422 43.7079 60.623 43.4701 60.3182C43.1301 59.8823 42.8131 59.4759 42.609 59.327C42.2505 59.0656 41.8978 58.6912 41.5862 58.3603C41.2889 58.0447 41.0289 57.7687 40.8369 57.6682C40.6074 57.5481 40.4626 57.3807 40.2472 57.1319C40.0978 56.9593 39.9144 56.7476 39.6453 56.4852C39.3347 56.1822 39.1364 55.9404 38.9679 55.7348C38.7308 55.4455 38.5523 55.2279 38.2016 55.0118C37.812 54.7717 37.426 54.4937 37.1646 54.2204C37.0455 54.0959 36.8989 53.9668 36.7464 53.8325C36.5444 53.6547 36.332 53.4675 36.1592 53.2698C36.0167 53.1069 35.9256 52.9381 35.845 52.7888C35.8199 52.7422 35.7957 52.6976 35.7714 52.6556C35.6452 52.5421 35.5187 52.4289 35.3918 52.3162C35.3652 52.3059 35.3367 52.2954 35.3072 52.2844C35.1588 52.2291 34.9764 52.1609 34.7836 52.0344C34.4785 51.8342 34.2636 51.591 34.037 51.3342C33.8606 51.1343 33.6771 50.9262 33.4382 50.7242C33.2753 50.5864 33.079 50.4434 32.8844 50.3016C32.5954 50.0909 32.3101 49.8828 32.1429 49.6986C32.0802 49.6296 32.0463 49.5448 32.0129 49.4607C32.0128 49.4603 32.0127 49.4598 32.0126 49.4594C32.0103 49.4537 32.008 49.448 32.0057 49.4423C31.5435 49.0639 31.0794 48.6879 30.6142 48.3133C30.5694 48.2866 30.5243 48.2593 30.4797 48.2323C30.2615 48.1001 30.0496 47.9717 29.8889 47.9167C29.7148 47.8571 29.3641 47.5959 28.9945 47.3208C28.7524 47.1406 28.5022 46.9542 28.2882 46.8145C28.1631 46.7329 28.0837 46.6052 28.0021 46.4737C27.926 46.351 27.8478 46.2251 27.7287 46.1305C27.669 46.0831 27.5973 46.0411 27.5209 45.9963C27.4535 45.9569 27.3823 45.9153 27.3123 45.8658C27.2473 45.8198 27.1297 45.6827 26.9787 45.5071C26.8854 45.3985 26.7794 45.2753 26.6652 45.1495C26.3209 44.8716 25.9772 44.5929 25.6347 44.3127C25.5438 44.2791 25.4554 44.2621 25.3711 44.267C25.3106 44.2704 25.25 44.2851 25.1878 44.3C25.1032 44.3202 25.0158 44.3411 24.9219 44.3358C24.8485 44.3317 24.7843 44.2983 24.7607 44.2509C24.7497 44.2288 24.7475 44.204 24.7454 44.1815C24.743 44.1557 24.7408 44.1327 24.7262 44.12C24.7156 44.1109 24.6972 44.1109 24.6746 44.1106C24.6386 44.1103 24.592 44.1097 24.5494 44.0725C24.3908 43.9341 24.2196 43.7652 24.0519 43.5998C23.8654 43.4158 23.6831 43.236 23.5269 43.1067C23.352 42.9619 23.1402 42.7075 22.928 42.4529C22.7799 42.2753 22.6315 42.0976 22.4954 41.9564C22.362 41.818 22.1992 41.7045 22.0414 41.5947C21.8519 41.463 21.6697 41.3363 21.5548 41.1776C21.5316 41.1454 21.5273 41.0742 21.5218 40.985C21.5178 40.9217 21.5131 40.8492 21.501 40.7753C21.3231 40.6137 21.1464 40.4505 20.9708 40.286C20.9603 40.2856 20.9496 40.2852 20.9388 40.2849C20.9386 40.2849 20.9384 40.285 20.9382 40.285C20.694 40.2775 20.36 40.2673 20.1589 39.91C20.1079 39.8191 20.1004 39.7303 20.0937 39.6504C20.0871 39.5718 20.0813 39.5016 20.0355 39.4463C19.9834 39.3836 19.8932 39.3463 19.795 39.3055C19.657 39.2483 19.5029 39.1844 19.4156 39.0343C19.4096 39.0241 19.4032 39.013 19.3965 39.0016C19.3327 38.8933 19.2383 38.7331 19.179 38.5294C18.8179 38.1616 18.46 37.7898 18.104 37.4155C17.5106 36.7915 16.9226 36.1605 16.3348 35.5296C16.049 35.2224 15.8474 34.8352 15.7793 34.4468C15.7114 34.058 15.7815 33.7013 15.9804 33.447C16.1794 33.1929 16.4938 33.0582 16.8609 33.0645C17.2279 33.071 17.6163 33.2195 17.9458 33.4709C18.4826 33.8812 19.0197 34.2917 19.554 34.7056C19.5844 34.7242 19.6148 34.7431 19.6448 34.7621C19.8683 34.9041 20.1057 34.9973 20.3433 35.0905C20.3979 35.1119 20.4526 35.1333 20.5071 35.1554Z" fill="black"/>
</svg>
