<svg width="1415" height="1747" viewBox="0 0 1415 1747" fill="none" xmlns="http://www.w3.org/2000/svg">
<path d="M475.792 188.752C480.889 263.356 429.938 327.598 361.991 332.24C294.043 336.882 234.829 280.167 229.732 205.563C224.635 130.959 275.585 66.7176 343.533 62.0753C411.48 57.4331 470.695 114.148 475.792 188.752Z" fill="#ECECEC" fill-opacity="0.4"/>
<path d="M850.949 2.29C904.468 -1.90819 971.927 -1.94597 1049.63 16.3022C1434.82 106.767 1540.76 613.476 1244.96 872.996C1114.58 987.388 940.268 1044.02 762.8 1027.49C677.373 1253.72 541.667 1500.48 363.962 1712.36C330.731 1751.98 272.421 1757.34 230.915 1726.49C182.691 1690.65 176.444 1620.99 215.187 1575.07C370.786 1390.63 490.827 1189.38 577.079 956.418C505.494 931.815 464.061 893.052 421.846 842.894C304.152 1120.44 263.797 1167.93 169.3 1283.68C133.707 1327.28 64.3696 1330.52 33.5885 1307.03C-18.0396 1267.63 -5.24138 1196.72 38.7602 1149.79C101.015 1092.96 264.761 820.045 286.688 556.968C288.467 535.628 302.614 517.053 323.283 511.454L462.738 473.675C482.898 468.213 503.613 483.389 506.467 504.08C527.021 653.125 555.945 697.498 648.674 761.383C721.463 508.924 706.296 329.353 704.297 79.2906C704.073 51.2443 721.823 25.8849 748.998 18.9441C782.228 10.4567 815.915 5.03957 850.949 2.29ZM917.754 192.75C905.994 192.176 896.151 201.919 896.351 213.691C900.577 462.46 889.984 633.691 849.533 817.027C1279.72 861.106 1349.42 213.798 917.754 192.75Z" fill="#ECECEC" fill-opacity="0.4"/>
</svg>
