<svg width="685" height="75" viewBox="0 0 685 75" fill="none" xmlns="http://www.w3.org/2000/svg">
<path d="M92.0843 9.21985V58.692H83.1223V9.21985H92.0843Z" fill="black"/>
<path d="M110.147 36.9513V58.692H101.403V21.5879H109.761V27.8927H110.196C111.049 25.8152 112.41 24.1646 114.278 22.9406C116.162 21.7167 118.489 21.1048 121.259 21.1048C123.82 21.1048 126.05 21.6523 127.95 22.7474C129.867 23.8425 131.348 25.4287 132.395 27.5062C133.458 29.5836 133.981 32.1039 133.965 35.0671V58.692H125.221V36.4199C125.221 33.9398 124.577 31.9993 123.288 30.5982C122.016 29.1971 120.253 28.4966 117.998 28.4966C116.468 28.4966 115.107 28.8348 113.916 29.5112C112.74 30.1714 111.814 31.1296 111.138 32.3858C110.477 33.6419 110.147 35.1638 110.147 36.9513Z" fill="black"/>
<path d="M159.04 59.4167C155.336 59.4167 152.155 58.6035 149.498 56.9769C146.857 55.3504 144.82 53.1039 143.386 50.2373C141.969 47.3547 141.261 44.0372 141.261 40.2849C141.261 36.5165 141.985 33.191 143.435 30.3083C144.884 27.4096 146.929 25.155 149.57 23.5446C152.228 21.918 155.368 21.1048 158.991 21.1048C162.003 21.1048 164.668 21.6604 166.987 22.7716C169.322 23.8666 171.182 25.4207 172.567 27.4337C173.952 29.4306 174.741 31.7658 174.934 34.4391H166.576C166.238 32.6515 165.433 31.1619 164.161 29.9701C162.905 28.7623 161.222 28.1584 159.112 28.1584C157.325 28.1584 155.754 28.6415 154.402 29.6078C153.049 30.5579 151.994 31.9268 151.237 33.7144C150.496 35.5019 150.126 37.6438 150.126 40.14C150.126 42.6683 150.496 44.8424 151.237 46.6622C151.978 48.4658 153.017 49.8589 154.353 50.8412C155.706 51.8075 157.292 52.2906 159.112 52.2906C160.4 52.2906 161.552 52.049 162.566 51.5659C163.597 51.0667 164.459 50.35 165.151 49.416C165.844 48.4819 166.319 47.3466 166.576 46.0099H174.934C174.725 48.6349 173.952 50.962 172.615 52.9911C171.279 55.0042 169.459 56.5824 167.156 57.7258C164.853 58.8531 162.148 59.4167 159.04 59.4167Z" fill="black"/>
<path d="M190.86 9.21985V58.692H182.115V9.21985H190.86Z" fill="black"/>
<path d="M223.501 43.087V21.5879H232.245V58.692H223.766V52.0973H223.38C222.542 54.1748 221.166 55.8738 219.249 57.1943C217.349 58.5149 215.006 59.1752 212.22 59.1752C209.788 59.1752 207.638 58.6357 205.77 57.5567C203.918 56.4616 202.469 54.8753 201.422 52.7979C200.375 50.7043 199.852 48.176 199.852 45.2128V21.5879H208.596V43.86C208.596 46.2113 209.24 48.0793 210.529 49.4643C211.817 50.8493 213.508 51.5418 215.602 51.5418C216.89 51.5418 218.138 51.2277 219.346 50.5997C220.554 49.9716 221.544 49.0375 222.317 47.7975C223.106 46.5414 223.501 44.9712 223.501 43.087Z" fill="black"/>
<path d="M270.563 31.3954L262.592 32.265C262.366 31.4598 261.972 30.7029 261.408 29.9943C260.86 29.2857 260.12 28.714 259.186 28.2792C258.252 27.8444 257.108 27.627 255.755 27.627C253.936 27.627 252.406 28.0215 251.166 28.8106C249.942 29.5997 249.338 30.6224 249.354 31.8785C249.338 32.9575 249.732 33.8352 250.538 34.5115C251.359 35.1879 252.712 35.7435 254.596 36.1783L260.925 37.5311C264.436 38.288 267.044 39.4877 268.752 41.1304C270.475 42.773 271.344 44.9229 271.36 47.5801C271.344 49.9152 270.66 51.9766 269.307 53.7641C267.97 55.5356 266.11 56.9206 263.727 57.919C261.344 58.9175 258.606 59.4167 255.514 59.4167C250.972 59.4167 247.317 58.4666 244.547 56.5663C241.777 54.6499 240.126 51.9846 239.595 48.5705L248.122 47.7492C248.509 49.424 249.33 50.6882 250.586 51.5418C251.842 52.3953 253.477 52.822 255.49 52.822C257.567 52.822 259.234 52.3953 260.49 51.5418C261.762 50.6882 262.398 49.6334 262.398 48.3773C262.398 47.3144 261.988 46.4367 261.166 45.7442C260.361 45.0517 259.105 44.5203 257.398 44.1499L251.069 42.8213C247.51 42.0805 244.877 40.8324 243.17 39.0771C241.463 37.3056 240.617 35.0671 240.634 32.3616C240.617 30.0748 241.237 28.094 242.494 26.4192C243.766 24.7282 245.529 23.4238 247.784 22.5058C250.055 21.5718 252.671 21.1048 255.635 21.1048C259.983 21.1048 263.405 22.0308 265.901 23.8827C268.413 25.7347 269.967 28.2389 270.563 31.3954Z" fill="black"/>
<path d="M278.571 58.692V21.5879H287.316V58.692H278.571ZM282.968 16.3218C281.583 16.3218 280.391 15.8628 279.392 14.9449C278.394 14.0109 277.895 12.8916 277.895 11.5872C277.895 10.2666 278.394 9.14738 279.392 8.22943C280.391 7.29539 281.583 6.82837 282.968 6.82837C284.369 6.82837 285.56 7.29539 286.543 8.22943C287.541 9.14738 288.04 10.2666 288.04 11.5872C288.04 12.8916 287.541 14.0109 286.543 14.9449C285.56 15.8628 284.369 16.3218 282.968 16.3218Z" fill="black"/>
<path d="M329.45 21.5879L316.237 58.692H306.574L293.361 21.5879H302.685L311.212 49.1503H311.599L320.15 21.5879H329.45Z" fill="black"/>
<path d="M350.666 59.4167C346.945 59.4167 343.733 58.6437 341.027 57.0977C338.338 55.5356 336.268 53.3293 334.819 50.4789C333.37 47.6123 332.645 44.2385 332.645 40.3574C332.645 36.5407 333.37 33.191 334.819 30.3083C336.285 27.4096 338.33 25.155 340.955 23.5446C343.58 21.918 346.664 21.1048 350.207 21.1048C352.493 21.1048 354.651 21.4752 356.68 22.216C358.726 22.9406 360.529 24.0679 362.092 25.5978C363.67 27.1277 364.91 29.0764 365.812 31.4437C366.713 33.7949 367.164 36.597 367.164 39.8501V42.5314H336.752V36.6373H358.782C358.766 34.9625 358.404 33.4728 357.695 32.1684C356.986 30.8478 355.996 29.8091 354.724 29.0522C353.468 28.2953 352.002 27.9169 350.327 27.9169C348.54 27.9169 346.97 28.3517 345.617 29.2213C344.264 30.0748 343.209 31.2021 342.452 32.6032C341.712 33.9881 341.333 35.51 341.317 37.1687V42.314C341.317 44.472 341.712 46.324 342.501 47.87C343.29 49.3999 344.393 50.5755 345.81 51.3968C347.227 52.202 348.886 52.6046 350.786 52.6046C352.059 52.6046 353.21 52.4275 354.241 52.0732C355.271 51.7028 356.165 51.1633 356.922 50.4547C357.679 49.7461 358.251 48.8684 358.637 47.8217L366.802 48.7396C366.287 50.8976 365.304 52.7818 363.855 54.3922C362.422 55.9865 360.586 57.2265 358.347 58.1123C356.109 58.9819 353.548 59.4167 350.666 59.4167Z" fill="black"/>
<path d="M396.89 58.6955V9.2233H413.606C417.487 9.2233 420.66 9.92383 423.124 11.3249C425.604 12.7099 427.44 14.586 428.631 16.9533C429.823 19.3206 430.419 21.9617 430.419 24.8766C430.419 27.7915 429.823 30.4406 428.631 32.824C427.456 35.2075 425.636 37.1078 423.172 38.5249C420.708 39.926 417.552 40.6265 413.703 40.6265H401.721V35.3121H413.51C416.167 35.3121 418.301 34.8532 419.911 33.9352C421.521 33.0173 422.689 31.7773 423.414 30.2151C424.154 28.6369 424.525 26.8574 424.525 24.8766C424.525 22.8958 424.154 21.1243 423.414 19.5622C422.689 18.0001 421.513 16.7762 419.887 15.8904C418.26 14.9886 416.102 14.5377 413.413 14.5377H402.881V58.6955H396.89Z" fill="black"/>
<path d="M454.454 59.4685C450.879 59.4685 447.795 58.6794 445.203 57.1012C442.626 55.5068 440.637 53.2844 439.236 50.434C437.851 47.5674 437.159 44.2339 437.159 40.4333C437.159 36.6327 437.851 33.283 439.236 30.3843C440.637 27.4694 442.586 25.1987 445.082 23.5722C447.594 21.9295 450.525 21.1082 453.875 21.1082C455.807 21.1082 457.716 21.4303 459.6 22.0745C461.484 22.7186 463.199 23.7654 464.745 25.2148C466.291 26.6481 467.523 28.5484 468.441 30.9157C469.359 33.283 469.818 36.1979 469.818 39.6603V42.0759H441.217V37.148H464.02C464.02 35.0545 463.602 33.1864 462.764 31.5437C461.943 29.9011 460.767 28.6047 459.237 27.6546C457.724 26.7044 455.936 26.2294 453.875 26.2294C451.604 26.2294 449.639 26.793 447.981 27.9203C446.338 29.0315 445.074 30.4809 444.188 32.2684C443.302 34.056 442.859 35.9724 442.859 38.0176V41.3029C442.859 44.105 443.343 46.4804 444.309 48.429C445.291 50.3615 446.652 51.8351 448.391 52.8496C450.13 53.8481 452.152 54.3473 454.454 54.3473C455.952 54.3473 457.305 54.138 458.513 53.7193C459.737 53.2845 460.791 52.6403 461.677 51.7868C462.563 50.9171 463.247 49.8382 463.731 48.5498L469.238 50.0958C468.658 51.9639 467.684 53.6065 466.315 55.0237C464.946 56.4248 463.255 57.5199 461.242 58.309C459.229 59.082 456.967 59.4685 454.454 59.4685Z" fill="black"/>
<path d="M478.49 58.6955V21.5913H483.998V27.1956H484.384C485.061 25.3597 486.284 23.8701 488.056 22.7267C489.827 21.5833 491.824 21.0116 494.047 21.0116C494.465 21.0116 494.989 21.0196 495.617 21.0357C496.245 21.0518 496.72 21.076 497.042 21.1082V26.9057C496.849 26.8574 496.406 26.785 495.713 26.6883C495.037 26.5756 494.32 26.5192 493.564 26.5192C491.76 26.5192 490.149 26.8977 488.732 27.6546C487.331 28.3954 486.22 29.426 485.399 30.7466C484.594 32.051 484.191 33.5407 484.191 35.2155V58.6955H478.49Z" fill="black"/>
<path d="M530.082 29.9011L524.961 31.3505C524.639 30.497 524.163 29.6676 523.535 28.8624C522.923 28.0411 522.086 27.3647 521.023 26.8333C519.96 26.3018 518.599 26.0361 516.941 26.0361C514.67 26.0361 512.778 26.5595 511.264 27.6063C509.766 28.6369 509.018 29.9494 509.018 31.5437C509.018 32.9609 509.533 34.0802 510.564 34.9015C511.594 35.7228 513.205 36.4072 515.395 36.9548L520.902 38.3075C524.22 39.1127 526.692 40.3447 528.318 42.0034C529.945 43.6461 530.758 45.7638 530.758 48.3566C530.758 50.4823 530.146 52.3826 528.922 54.0575C527.714 55.7323 526.024 57.0528 523.849 58.0191C521.675 58.9853 519.147 59.4685 516.264 59.4685C512.48 59.4685 509.348 58.6472 506.868 57.0045C504.388 55.3619 502.817 52.9624 502.157 49.8059L507.568 48.4532C508.083 50.4501 509.058 51.9478 510.491 52.9463C511.94 53.9447 513.833 54.444 516.168 54.444C518.825 54.444 520.935 53.8803 522.497 52.753C524.075 51.6096 524.864 50.2407 524.864 48.6464C524.864 47.3581 524.413 46.2791 523.511 45.4095C522.609 44.5238 521.224 43.8635 519.356 43.4287L513.172 41.9793C509.774 41.1741 507.278 39.926 505.684 38.2351C504.106 36.528 503.317 34.3942 503.317 31.8336C503.317 29.7401 503.904 27.8881 505.08 26.2777C506.272 24.6672 507.89 23.4031 509.936 22.4851C511.997 21.5672 514.332 21.1082 516.941 21.1082C520.613 21.1082 523.495 21.9134 525.589 23.5239C527.698 25.1343 529.196 27.26 530.082 29.9011Z" fill="black"/>
<path d="M554.413 59.4685C551.064 59.4685 548.125 58.6713 545.596 57.077C543.084 55.4827 541.119 53.2522 539.702 50.3857C538.301 47.5191 537.6 44.1695 537.6 40.3367C537.6 36.4716 538.301 33.0978 539.702 30.2151C541.119 27.3325 543.084 25.094 545.596 23.4997C548.125 21.9054 551.064 21.1082 554.413 21.1082C557.763 21.1082 560.694 21.9054 563.206 23.4997C565.734 25.094 567.699 27.3325 569.1 30.2151C570.517 33.0978 571.226 36.4716 571.226 40.3367C571.226 44.1695 570.517 47.5191 569.1 50.3857C567.699 53.2522 565.734 55.4827 563.206 57.077C560.694 58.6713 557.763 59.4685 554.413 59.4685ZM554.413 54.3473C556.958 54.3473 559.051 53.6951 560.694 52.3907C562.336 51.0862 563.552 49.3711 564.342 47.2454C565.131 45.1196 565.525 42.8167 565.525 40.3367C565.525 37.8566 565.131 35.5456 564.342 33.4038C563.552 31.2619 562.336 29.5307 560.694 28.2102C559.051 26.8896 556.958 26.2294 554.413 26.2294C551.869 26.2294 549.775 26.8896 548.133 28.2102C546.49 29.5307 545.274 31.2619 544.485 33.4038C543.696 35.5456 543.301 37.8566 543.301 40.3367C543.301 42.8167 543.696 45.1196 544.485 47.2454C545.274 49.3711 546.49 51.0862 548.133 52.3907C549.775 53.6951 551.869 54.3473 554.413 54.3473Z" fill="black"/>
<path d="M585.629 36.375V58.6955H579.928V21.5913H585.436V27.3889H585.919C586.789 25.5047 588.109 23.9909 589.881 22.8475C591.652 21.688 593.939 21.1082 596.741 21.1082C599.253 21.1082 601.452 21.6236 603.336 22.6542C605.22 23.6688 606.686 25.2148 607.732 27.2922C608.779 29.3536 609.302 31.9625 609.302 35.1189V58.6955H603.602V35.5054C603.602 32.5905 602.845 30.3198 601.331 28.6933C599.817 27.0507 597.74 26.2294 595.098 26.2294C593.279 26.2294 591.652 26.6239 590.219 27.413C588.802 28.2021 587.683 29.3536 586.861 30.8674C586.04 32.3812 585.629 34.217 585.629 36.375Z" fill="black"/>
<path d="M630.639 59.5651C628.287 59.5651 626.153 59.1222 624.237 58.2365C622.321 57.3347 620.799 56.0383 619.672 54.3473C618.544 52.6403 617.981 50.5789 617.981 48.1633C617.981 46.0376 618.399 44.3144 619.237 42.9938C620.074 41.6572 621.193 40.6104 622.594 39.8535C623.995 39.0966 625.541 38.533 627.232 38.1626C628.939 37.7761 630.655 37.4701 632.378 37.2446C634.632 36.9548 636.46 36.7374 637.861 36.5924C639.278 36.4314 640.309 36.1657 640.953 35.7953C641.614 35.4249 641.944 34.7807 641.944 33.8628V33.6695C641.944 31.2861 641.291 29.4341 639.987 28.1136C638.699 26.793 636.742 26.1327 634.117 26.1327C631.395 26.1327 629.262 26.7286 627.716 27.9203C626.17 29.112 625.083 30.3843 624.454 31.737L619.043 29.8045C620.01 27.5499 621.298 25.7945 622.908 24.5384C624.535 23.2662 626.306 22.3804 628.223 21.8812C630.155 21.3659 632.056 21.1082 633.924 21.1082C635.115 21.1082 636.484 21.2531 638.03 21.543C639.592 21.8168 641.098 22.3885 642.548 23.2581C644.013 24.1278 645.229 25.4403 646.195 27.1956C647.161 28.951 647.645 31.3022 647.645 34.2493V58.6955H641.944V53.671H641.654C641.267 54.4762 640.623 55.3377 639.721 56.2557C638.819 57.1736 637.62 57.9547 636.122 58.5988C634.624 59.243 632.796 59.5651 630.639 59.5651ZM631.508 54.444C633.763 54.444 635.663 54.0011 637.209 53.1154C638.771 52.2296 639.947 51.0862 640.736 49.6852C641.541 48.2841 641.944 46.8106 641.944 45.2646V40.0468C641.702 40.3367 641.171 40.6024 640.349 40.8439C639.544 41.0694 638.61 41.2707 637.547 41.4478C636.5 41.6089 635.478 41.7538 634.479 41.8827C633.497 41.9954 632.7 42.092 632.088 42.1725C630.606 42.3658 629.221 42.6798 627.933 43.1146C626.661 43.5333 625.63 44.1695 624.841 45.023C624.068 45.8604 623.681 47.0038 623.681 48.4532C623.681 50.434 624.414 51.9317 625.88 52.9463C627.361 53.9447 629.237 54.444 631.508 54.444Z" fill="black"/>
<path d="M684.332 29.9011L679.211 31.3505C678.889 30.497 678.414 29.6676 677.786 28.8624C677.174 28.0411 676.336 27.3647 675.273 26.8333C674.211 26.3018 672.85 26.0361 671.191 26.0361C668.92 26.0361 667.028 26.5595 665.514 27.6063C664.016 28.6369 663.268 29.9494 663.268 31.5437C663.268 32.9609 663.783 34.0802 664.814 34.9015C665.844 35.7228 667.455 36.4072 669.645 36.9548L675.153 38.3075C678.47 39.1127 680.942 40.3447 682.569 42.0034C684.195 43.6461 685.008 45.7638 685.008 48.3566C685.008 50.4823 684.396 52.3826 683.172 54.0575C681.965 55.7323 680.274 57.0528 678.1 58.0191C675.926 58.9853 673.397 59.4685 670.515 59.4685C666.73 59.4685 663.598 58.6472 661.118 57.0045C658.638 55.3619 657.068 52.9624 656.407 49.8059L661.818 48.4532C662.334 50.4501 663.308 51.9478 664.741 52.9463C666.191 53.9447 668.083 54.444 670.418 54.444C673.075 54.444 675.185 53.8803 676.747 52.753C678.325 51.6096 679.114 50.2407 679.114 48.6464C679.114 47.3581 678.663 46.2791 677.761 45.4095C676.86 44.5238 675.475 43.8635 673.607 43.4287L667.423 41.9793C664.025 41.1741 661.528 39.926 659.934 38.2351C658.356 36.528 657.567 34.3942 657.567 31.8336C657.567 29.7401 658.155 27.8881 659.33 26.2777C660.522 24.6672 662.14 23.4031 664.186 22.4851C666.247 21.5672 668.582 21.1082 671.191 21.1082C674.863 21.1082 677.745 21.9134 679.839 23.5239C681.949 25.1343 683.446 27.26 684.332 29.9011Z" fill="black"/>
<path d="M20.4336 8.10626C20.6525 11.3102 18.4644 14.0692 15.5463 14.2686C12.6282 14.4679 10.0851 12.0322 9.8662 8.82824C9.6473 5.62425 11.8354 2.86529 14.7536 2.66592C17.6717 2.46655 20.2147 4.90227 20.4336 8.10626Z" fill="black"/>
<path d="M36.5454 0.0983478C38.8438 -0.0819501 41.7409 -0.0835727 45.0778 0.700123C61.6204 4.58528 66.1704 26.3467 53.4669 37.4922C47.8675 42.4049 40.3813 44.837 32.7596 44.1274C29.0909 53.8429 23.2627 64.4405 15.6309 73.54C14.2037 75.2417 11.6995 75.4716 9.91702 74.1468C7.84597 72.6075 7.57766 69.6161 9.24155 67.6438C15.924 59.7227 21.0794 51.0798 24.7836 41.0749C21.7092 40.0183 19.9298 38.3535 18.1168 36.1994C13.0623 48.1192 11.3292 50.1586 7.27084 55.1298C5.74225 57.0022 2.76445 57.1412 1.44251 56.1324C-0.77474 54.4404 -0.225099 51.3948 1.66462 49.3797C4.33826 46.9389 11.3706 35.2181 12.3123 23.9199C12.3887 23.0034 12.9963 22.2057 13.8839 21.9652L19.873 20.3427C20.7388 20.1082 21.6285 20.7599 21.751 21.6485C22.6338 28.0495 23.8759 29.9552 27.8583 32.6988C30.9844 21.8566 30.333 14.1446 30.2472 3.40526C30.2375 2.20077 30.9998 1.11167 32.1669 0.813585C33.594 0.449082 35.0407 0.216432 36.5454 0.0983478ZM39.4144 8.27794C38.9093 8.25331 38.4866 8.67173 38.4952 9.17731C38.6767 19.8611 38.2218 27.2148 36.4845 35.0885C54.9594 36.9816 57.9529 9.18188 39.4144 8.27794Z" fill="black"/>
</svg>
