<svg width="116" height="34" viewBox="0 0 116 34" fill="none" xmlns="http://www.w3.org/2000/svg">
<path d="M35.3036 0.684121V14.8365H32.7399V0.684121H35.3036Z" fill="black"/>
<path d="M40.4708 8.61717V14.8365H37.9693V4.2222H40.3602V6.0258H40.4846C40.7288 5.43151 41.1181 4.9593 41.6525 4.60918C42.1915 4.25906 42.8571 4.084 43.6495 4.084C44.382 4.084 45.0201 4.24063 45.5637 4.5539C46.1119 4.86717 46.5357 5.32094 46.8352 5.91523C47.1392 6.50952 47.289 7.23049 47.2844 8.07816V14.8365H44.7828V8.46514C44.7828 7.75568 44.5985 7.20055 44.23 6.79975C43.8661 6.39895 43.3616 6.19855 42.7166 6.19855C42.279 6.19855 41.8897 6.2953 41.5488 6.48879C41.2125 6.67767 40.9476 6.95178 40.7541 7.31112C40.5652 7.67045 40.4708 8.1058 40.4708 8.61717Z" fill="black"/>
<path d="M54.4573 15.0438C53.3977 15.0438 52.4878 14.8111 51.7277 14.3458C50.9722 13.8805 50.3894 13.2379 49.9794 12.4178C49.574 11.5932 49.3713 10.6442 49.3713 9.57079C49.3713 8.49278 49.5786 7.54146 49.9932 6.71683C50.4078 5.88759 50.9929 5.24263 51.7484 4.78194C52.5086 4.31664 53.4069 4.084 54.4434 4.084C55.3049 4.084 56.0674 4.24293 56.7308 4.56081C57.3988 4.87408 57.9308 5.31864 58.327 5.8945C58.7232 6.46575 58.949 7.13375 59.0042 7.89849H56.6133C56.5165 7.38713 56.2862 6.96099 55.9222 6.62008C55.5629 6.27457 55.0815 6.10181 54.478 6.10181C53.9666 6.10181 53.5175 6.24002 53.1305 6.51643C52.7435 6.78823 52.4418 7.17982 52.2252 7.69118C52.0133 8.20255 51.9074 8.81526 51.9074 9.52933C51.9074 10.2526 52.0133 10.8745 52.2252 11.3951C52.4371 11.9111 52.7343 12.3096 53.1167 12.5906C53.5036 12.867 53.9574 13.0052 54.478 13.0052C54.8465 13.0052 55.1759 12.9361 55.4662 12.7979C55.761 12.6551 56.0075 12.4501 56.2056 12.1829C56.4037 11.9157 56.5396 11.5909 56.6133 11.2085H59.0042C58.9444 11.9595 58.7232 12.6252 58.3409 13.2056C57.9585 13.7815 57.4379 14.2329 56.7791 14.56C56.1203 14.8825 55.3464 15.0438 54.4573 15.0438Z" fill="black"/>
<path d="M63.5599 0.684121V14.8365H61.0583V0.684121H63.5599Z" fill="black"/>
<path d="M72.8974 10.3724V4.2222H75.399V14.8365H72.9734V12.9499H72.8629C72.6233 13.5442 72.2294 14.0302 71.6812 14.408C71.1376 14.7858 70.4673 14.9747 69.6703 14.9747C68.9747 14.9747 68.3596 14.8203 67.8252 14.5117C67.2955 14.1984 66.8808 13.7446 66.5814 13.1503C66.2819 12.5514 66.1322 11.8282 66.1322 10.9805V4.2222H68.6337V10.5935C68.6337 11.2661 68.818 11.8005 69.1866 12.1967C69.5551 12.5929 70.0388 12.791 70.6377 12.791C71.0063 12.791 71.3633 12.7012 71.7088 12.5215C72.0544 12.3418 72.3377 12.0746 72.5588 11.7199C72.7845 11.3606 72.8974 10.9114 72.8974 10.3724Z" fill="black"/>
<path d="M86.3604 7.02779L84.08 7.27656C84.0155 7.04622 83.9027 6.8297 83.7414 6.62699C83.5848 6.42429 83.3729 6.26075 83.1057 6.13636C82.8385 6.01198 82.5114 5.94978 82.1244 5.94978C81.6038 5.94978 81.1662 6.06265 80.8114 6.28839C80.4613 6.51413 80.2886 6.80666 80.2932 7.166C80.2886 7.47466 80.4014 7.72574 80.6318 7.91922C80.8667 8.11271 81.2537 8.27165 81.7927 8.39604L83.6032 8.78301C84.6075 8.99954 85.3538 9.34275 85.8422 9.81265C86.3351 10.2826 86.5839 10.8976 86.5885 11.6577C86.5839 12.3257 86.3881 12.9154 86.0011 13.4267C85.6187 13.9335 85.0866 14.3297 84.4048 14.6153C83.723 14.9009 82.9398 15.0438 82.0553 15.0438C80.7562 15.0438 79.7104 14.772 78.918 14.2283C78.1256 13.6801 77.6534 12.9177 77.5014 11.941L79.9408 11.7061C80.0513 12.1852 80.2863 12.5468 80.6456 12.791C81.0049 13.0352 81.4725 13.1572 82.0484 13.1572C82.6427 13.1572 83.1195 13.0352 83.4788 12.791C83.8428 12.5468 84.0248 12.2451 84.0248 11.8857C84.0248 11.5817 83.9073 11.3306 83.6723 11.1325C83.442 10.9344 83.0826 10.7824 82.5943 10.6764L80.7838 10.2964C79.7657 10.0845 79.0125 9.72742 78.5241 9.22527C78.0358 8.71852 77.7939 8.07816 77.7986 7.30421C77.7939 6.65003 77.9713 6.08338 78.3306 5.60427C78.6946 5.12055 79.199 4.74739 79.844 4.4848C80.4936 4.2176 81.2422 4.084 82.0899 4.084C83.3337 4.084 84.3127 4.34889 85.0267 4.87868C85.7454 5.40848 86.19 6.12484 86.3604 7.02779Z" fill="black"/>
<path d="M88.6512 14.8365V4.2222H91.1527V14.8365H88.6512ZM89.9089 2.71576C89.5127 2.71576 89.1718 2.58446 88.8862 2.32187C88.6005 2.05467 88.4577 1.73449 88.4577 1.36133C88.4577 0.983568 88.6005 0.66339 88.8862 0.400798C89.1718 0.133599 89.5127 0 89.9089 0C90.3097 0 90.6506 0.133599 90.9316 0.400798C91.2172 0.66339 91.36 0.983568 91.36 1.36133C91.36 1.73449 91.2172 2.05467 90.9316 2.32187C90.6506 2.58446 90.3097 2.71576 89.9089 2.71576Z" fill="black"/>
<path d="M103.206 4.2222L99.4261 14.8365H96.662L92.882 4.2222H95.5494L97.9888 12.1069H98.0993L100.546 4.2222H103.206Z" fill="black"/>
<path d="M109.275 15.0438C108.211 15.0438 107.292 14.8226 106.518 14.3804C105.748 13.9335 105.156 13.3024 104.742 12.4869C104.327 11.6669 104.12 10.7018 104.12 9.59152C104.12 8.49969 104.327 7.54146 104.742 6.71683C105.161 5.88759 105.746 5.24263 106.497 4.78194C107.248 4.31664 108.13 4.084 109.144 4.084C109.798 4.084 110.415 4.18996 110.996 4.40187C111.581 4.60918 112.097 4.93166 112.544 5.36932C112.995 5.80697 113.35 6.3644 113.608 7.04161C113.866 7.71422 113.995 8.51582 113.995 9.4464V10.2134H105.295V8.52733H111.597C111.592 8.04822 111.489 7.62208 111.286 7.24892C111.083 6.87116 110.8 6.57402 110.436 6.35749C110.077 6.14097 109.657 6.03271 109.178 6.03271C108.667 6.03271 108.218 6.15709 107.831 6.40586C107.444 6.65003 107.142 6.97251 106.926 7.37331C106.714 7.7695 106.605 8.20485 106.601 8.67936V10.1513C106.601 10.7686 106.714 11.2984 106.939 11.7406C107.165 12.1783 107.481 12.5146 107.886 12.7495C108.291 12.9799 108.766 13.0951 109.31 13.0951C109.674 13.0951 110.003 13.0444 110.298 12.943C110.593 12.8371 110.848 12.6827 111.065 12.48C111.281 12.2773 111.445 12.0263 111.555 11.7268L113.891 11.9894C113.744 12.6067 113.463 13.1457 113.048 13.6064C112.638 14.0625 112.113 14.4172 111.473 14.6706C110.832 14.9194 110.1 15.0438 109.275 15.0438Z" fill="black"/>
<path d="M33.0577 33.1512V18.9989H37.8397C38.9499 18.9989 39.8575 19.1993 40.5623 19.6001C41.2718 19.9963 41.797 20.533 42.1379 21.2102C42.4788 21.8874 42.6493 22.6429 42.6493 23.4768C42.6493 24.3106 42.4788 25.0685 42.1379 25.7503C41.8016 26.4321 41.281 26.9757 40.5762 27.3811C39.8713 27.7819 38.9684 27.9823 37.8673 27.9823H34.4398V26.462H37.812C38.5722 26.462 39.1826 26.3307 39.6433 26.0682C40.104 25.8056 40.438 25.4508 40.6453 25.004C40.8572 24.5525 40.9631 24.0434 40.9631 23.4768C40.9631 22.9101 40.8572 22.4034 40.6453 21.9565C40.438 21.5096 40.1017 21.1595 39.6364 20.9061C39.1711 20.6482 38.5537 20.5192 37.7844 20.5192H34.7715V33.1512H33.0577Z" fill="black"/>
<path d="M49.525 33.3724C48.5023 33.3724 47.6201 33.1466 46.8784 32.6951C46.1413 32.2391 45.5723 31.6033 45.1715 30.7879C44.7753 29.9679 44.5772 29.0143 44.5772 27.927C44.5772 26.8398 44.7753 25.8816 45.1715 25.0523C45.5723 24.2185 46.1298 23.5689 46.8438 23.1036C47.5625 22.6337 48.4009 22.3988 49.3592 22.3988C49.912 22.3988 50.4579 22.4909 50.9969 22.6752C51.5359 22.8595 52.0266 23.1589 52.4688 23.5735C52.9111 23.9835 53.2635 24.5272 53.5261 25.2044C53.7887 25.8816 53.92 26.7154 53.92 27.7059V28.3969H45.7382V26.9872H52.2615C52.2615 26.3883 52.1417 25.8539 51.9022 25.384C51.6672 24.9141 51.3309 24.5433 50.8933 24.2715C50.4602 23.9997 49.9489 23.8638 49.3592 23.8638C48.7096 23.8638 48.1476 24.025 47.6731 24.3475C47.2032 24.6654 46.8415 25.08 46.5881 25.5913C46.3348 26.1027 46.2081 26.6509 46.2081 27.236V28.1758C46.2081 28.9774 46.3463 29.6569 46.6227 30.2143C46.9037 30.7672 47.293 31.1887 47.7905 31.4789C48.2881 31.7646 48.8662 31.9074 49.525 31.9074C49.9535 31.9074 50.3404 31.8475 50.686 31.7277C51.0361 31.6033 51.3378 31.419 51.5912 31.1749C51.8446 30.9261 52.0404 30.6174 52.1786 30.2489L53.7541 30.6912C53.5883 31.2256 53.3096 31.6955 52.918 32.1009C52.5264 32.5017 52.0427 32.8149 51.4668 33.0407C50.891 33.2618 50.2437 33.3724 49.525 33.3724Z" fill="black"/>
<path d="M56.4008 33.1512V22.537H57.9763V24.1402H58.0869C58.2804 23.615 58.6305 23.1889 59.1373 22.8618C59.644 22.5347 60.2153 22.3711 60.851 22.3711C60.9708 22.3711 61.1205 22.3734 61.3002 22.378C61.4799 22.3827 61.6158 22.3896 61.7079 22.3988V24.0573C61.6526 24.0434 61.5259 24.0227 61.3278 23.9951C61.1344 23.9628 60.9293 23.9467 60.7128 23.9467C60.1968 23.9467 59.7362 24.0549 59.3308 24.2715C58.93 24.4834 58.6121 24.7782 58.3771 25.156C58.1468 25.5291 58.0316 25.9553 58.0316 26.4344V33.1512H56.4008Z" fill="black"/>
<path d="M71.1595 24.9141L69.6945 25.3288C69.6023 25.0846 69.4664 24.8473 69.2868 24.617C69.1117 24.382 68.8722 24.1885 68.5681 24.0365C68.2641 23.8845 67.8748 23.8085 67.4003 23.8085C66.7507 23.8085 66.2094 23.9582 65.7763 24.2577C65.3479 24.5525 65.1337 24.928 65.1337 25.384C65.1337 25.7894 65.2811 26.1096 65.576 26.3446C65.8708 26.5795 66.3315 26.7753 66.958 26.9319L68.5335 27.3189C69.4826 27.5493 70.1897 27.9017 70.655 28.3762C71.1203 28.8461 71.353 29.4519 71.353 30.1936C71.353 30.8017 71.1779 31.3453 70.8278 31.8244C70.4823 32.3036 69.9985 32.6813 69.3766 32.9577C68.7547 33.2342 68.0314 33.3724 67.2068 33.3724C66.1242 33.3724 65.2281 33.1374 64.5187 32.6675C63.8092 32.1976 63.36 31.5112 63.1712 30.6082L64.7191 30.2213C64.8665 30.7925 65.1452 31.221 65.5552 31.5066C65.9698 31.7922 66.5111 31.935 67.1791 31.935C67.9393 31.935 68.5428 31.7738 68.9896 31.4513C69.4411 31.1242 69.6668 30.7326 69.6668 30.2765C69.6668 29.908 69.5379 29.5993 69.2799 29.3506C69.0219 29.0972 68.6257 28.9083 68.0913 28.7839L66.3222 28.3693C65.3502 28.1389 64.6362 27.7819 64.1801 27.2982C63.7286 26.8099 63.5029 26.1995 63.5029 25.467C63.5029 24.8681 63.671 24.3383 64.0073 23.8776C64.3482 23.4169 64.8112 23.0553 65.3963 22.7927C65.986 22.5301 66.6539 22.3988 67.4003 22.3988C68.4506 22.3988 69.2753 22.6291 69.8742 23.0898C70.4777 23.5505 70.9061 24.1586 71.1595 24.9141Z" fill="black"/>
<path d="M78.1199 33.3724C77.1617 33.3724 76.3209 33.1443 75.5976 32.6882C74.8789 32.2322 74.3169 31.5941 73.9115 30.7741C73.5107 29.9541 73.3103 28.9958 73.3103 27.8994C73.3103 26.7937 73.5107 25.8286 73.9115 25.004C74.3169 24.1793 74.8789 23.539 75.5976 23.0829C76.3209 22.6268 77.1617 22.3988 78.1199 22.3988C79.0781 22.3988 79.9166 22.6268 80.6352 23.0829C81.3585 23.539 81.9206 24.1793 82.3214 25.004C82.7268 25.8286 82.9295 26.7937 82.9295 27.8994C82.9295 28.9958 82.7268 29.9541 82.3214 30.7741C81.9206 31.5941 81.3585 32.2322 80.6352 32.6882C79.9166 33.1443 79.0781 33.3724 78.1199 33.3724ZM78.1199 31.9074C78.8478 31.9074 79.4467 31.7208 79.9166 31.3476C80.3865 30.9745 80.7343 30.4838 80.96 29.8757C81.1858 29.2676 81.2986 28.6088 81.2986 27.8994C81.2986 27.1899 81.1858 26.5288 80.96 25.9161C80.7343 25.3034 80.3865 24.8082 79.9166 24.4304C79.4467 24.0526 78.8478 23.8638 78.1199 23.8638C77.392 23.8638 76.7931 24.0526 76.3232 24.4304C75.8533 24.8082 75.5055 25.3034 75.2797 25.9161C75.054 26.5288 74.9411 27.1899 74.9411 27.8994C74.9411 28.6088 75.054 29.2676 75.2797 29.8757C75.5055 30.4838 75.8533 30.9745 76.3232 31.3476C76.7931 31.7208 77.392 31.9074 78.1199 31.9074Z" fill="black"/>
<path d="M87.0497 26.7661V33.1512H85.4189V22.537H86.9945V24.1955H87.1327C87.3814 23.6565 87.7592 23.2234 88.266 22.8963C88.7727 22.5646 89.4269 22.3988 90.2285 22.3988C90.9472 22.3988 91.576 22.5462 92.115 22.841C92.654 23.1313 93.0732 23.5735 93.3727 24.1678C93.6721 24.7575 93.8219 25.5038 93.8219 26.4068V33.1512H92.191V26.5173C92.191 25.6835 91.9745 25.0339 91.5414 24.5686C91.1084 24.0987 90.5141 23.8638 89.7586 23.8638C89.238 23.8638 88.7727 23.9766 88.3627 24.2024C87.9573 24.4281 87.6371 24.7575 87.4022 25.1905C87.1672 25.6236 87.0497 26.1488 87.0497 26.7661Z" fill="black"/>
<path d="M99.9254 33.4C99.2528 33.4 98.6424 33.2733 98.0942 33.0199C97.5459 32.762 97.1106 32.3911 96.7881 31.9074C96.4656 31.419 96.3044 30.8294 96.3044 30.1383C96.3044 29.5302 96.4242 29.0373 96.6637 28.6595C96.9033 28.2772 97.2234 27.9777 97.6242 27.7612C98.025 27.5447 98.4673 27.3834 98.951 27.2775C99.4394 27.1669 99.93 27.0794 100.423 27.0149C101.068 26.9319 101.591 26.8698 101.992 26.8283C102.397 26.7822 102.692 26.7062 102.876 26.6003C103.065 26.4943 103.159 26.31 103.159 26.0474V25.9921C103.159 25.3103 102.973 24.7805 102.6 24.4028C102.231 24.025 101.671 23.8361 100.92 23.8361C100.142 23.8361 99.5315 24.0066 99.0892 24.3475C98.647 24.6884 98.336 25.0523 98.1563 25.4393L96.6084 24.8865C96.8848 24.2415 97.2534 23.7394 97.7141 23.38C98.1794 23.0161 98.6861 22.7627 99.2344 22.6199C99.7872 22.4725 100.331 22.3988 100.865 22.3988C101.206 22.3988 101.598 22.4402 102.04 22.5232C102.487 22.6015 102.918 22.765 103.332 23.0138C103.751 23.2626 104.099 23.638 104.376 24.1402C104.652 24.6423 104.79 25.3149 104.79 26.158V33.1512H103.159V31.7139H103.076C102.966 31.9442 102.782 32.1907 102.524 32.4533C102.266 32.7159 101.922 32.9393 101.494 33.1236C101.066 33.3079 100.543 33.4 99.9254 33.4ZM100.174 31.935C100.819 31.935 101.363 31.8083 101.805 31.5549C102.252 31.3016 102.588 30.9745 102.814 30.5737C103.044 30.1729 103.159 29.7514 103.159 29.3091V27.8165C103.09 27.8994 102.938 27.9754 102.703 28.0445C102.473 28.109 102.206 28.1666 101.902 28.2173C101.602 28.2633 101.31 28.3048 101.024 28.3417C100.743 28.3739 100.515 28.4015 100.34 28.4246C99.9162 28.4799 99.52 28.5697 99.1514 28.6941C98.7875 28.8139 98.4927 28.9958 98.2669 29.24C98.0458 29.4795 97.9352 29.8066 97.9352 30.2213C97.9352 30.7879 98.1448 31.2163 98.564 31.5066C98.9879 31.7922 99.5246 31.935 100.174 31.935Z" fill="black"/>
<path d="M115.285 24.9141L113.82 25.3288C113.728 25.0846 113.592 24.8473 113.413 24.617C113.238 24.382 112.998 24.1885 112.694 24.0365C112.39 23.8845 112.001 23.8085 111.526 23.8085C110.877 23.8085 110.335 23.9582 109.902 24.2577C109.474 24.5525 109.259 24.928 109.259 25.384C109.259 25.7894 109.407 26.1096 109.702 26.3446C109.997 26.5795 110.457 26.7753 111.084 26.9319L112.659 27.3189C113.608 27.5493 114.316 27.9017 114.781 28.3762C115.246 28.8461 115.479 29.4519 115.479 30.1936C115.479 30.8017 115.304 31.3453 114.954 31.8244C114.608 32.3036 114.124 32.6813 113.502 32.9577C112.88 33.2342 112.157 33.3724 111.333 33.3724C110.25 33.3724 109.354 33.1374 108.644 32.6675C107.935 32.1976 107.486 31.5112 107.297 30.6082L108.845 30.2213C108.992 30.7925 109.271 31.221 109.681 31.5066C110.096 31.7922 110.637 31.935 111.305 31.935C112.065 31.935 112.669 31.7738 113.115 31.4513C113.567 31.1242 113.793 30.7326 113.793 30.2765C113.793 29.908 113.664 29.5993 113.406 29.3506C113.148 29.0972 112.752 28.9083 112.217 28.7839L110.448 28.3693C109.476 28.1389 108.762 27.7819 108.306 27.2982C107.854 26.8099 107.629 26.1995 107.629 25.467C107.629 24.8681 107.797 24.3383 108.133 23.8776C108.474 23.4169 108.937 23.0553 109.522 22.7927C110.112 22.5301 110.78 22.3988 111.526 22.3988C112.576 22.3988 113.401 22.6291 114 23.0898C114.603 23.5505 115.032 24.1586 115.285 24.9141Z" fill="black"/>
<path d="M8.85865 4.15721C8.95355 5.54624 8.00491 6.74234 6.73982 6.82878C5.47472 6.91521 4.37222 5.85925 4.27732 4.47021C4.18242 3.08118 5.13106 1.88508 6.39615 1.79865C7.66125 1.71222 8.76375 2.76818 8.85865 4.15721Z" fill="black"/>
<path d="M15.8436 0.68552C16.8401 0.607355 18.0961 0.606652 19.5427 0.94641C26.7145 2.63075 28.687 12.065 23.1797 16.897C20.7521 19.0268 17.5066 20.0812 14.2024 19.7736C12.6118 23.9855 10.0852 28.5799 6.77653 32.5249C6.15779 33.2626 5.07214 33.3623 4.29935 32.7879C3.40149 32.1206 3.28516 30.8238 4.00651 29.9687C6.90357 26.5346 9.1386 22.7876 10.7445 18.4502C9.41166 17.9921 8.64024 17.2704 7.85424 16.3365C5.66293 21.5042 4.91158 22.3883 3.15215 24.5434C2.48945 25.3552 1.19848 25.4155 0.625375 24.9781C-0.335875 24.2446 -0.0975879 22.9242 0.721667 22.0506C1.88078 20.9925 4.92952 15.9111 5.33778 11.0129C5.3709 10.6156 5.6343 10.2698 6.01913 10.1655L8.61561 9.46212C8.99096 9.36043 9.37665 9.64298 9.42978 10.0282C9.81248 12.8033 10.351 13.6294 12.0775 14.8189C13.4327 10.1184 13.1504 6.77503 13.1131 2.11918C13.109 1.59699 13.4394 1.12483 13.9454 0.995599C14.5641 0.837575 15.1913 0.736714 15.8436 0.68552ZM17.0874 4.23164C16.8685 4.22096 16.6852 4.40236 16.6889 4.62155C16.7676 9.25331 16.5704 12.4414 15.8172 15.8549C23.8267 16.6756 25.1245 4.62353 17.0874 4.23164Z" fill="black"/>
</svg>
