<svg width="179" height="240" viewBox="0 0 179 240" fill="none" xmlns="http://www.w3.org/2000/svg">
<path d="M60.0219 17.8625C59.8768 18.1324 59.3857 18.3015 59.165 18.5926C58.2655 19.803 57.8137 20.2149 57.1316 21.4206C55.8461 23.1902 55.53 29.3967 53.6799 29.5336C53.6799 29.5336 53.6798 29.5336 53.6798 29.5336C53.6599 29.5336 53.6398 29.5329 53.6194 29.5316C53.2315 29.5089 52.8172 28.892 52.3853 28.7849C51.9541 28.6778 49.1183 28.6791 49.0166 27.6697C48.8344 26.234 50.1959 22.9238 50.427 22.21C50.5473 21.7028 50.495 21.0138 50.682 20.3693C51.3302 18.2486 52.0023 17.3522 52.4595 15.2823C53.1983 14.8021 53.9559 14.3642 54.7157 13.9822C55.1925 13.0696 56.5747 12.2685 56.9776 11.8358C57.3086 11.4716 57.315 11.0617 57.6867 10.7002C58.1036 10.294 58.978 9.94342 59.7712 9.27737C61.0813 8.19964 60.9447 7.41166 61.777 6.7703C62.6547 6.10402 64.322 5.66167 65.4547 4.85533C65.5769 4.7074 65.7009 4.56005 65.8266 4.41332C65.6362 4.29157 65.4443 4.17115 65.2509 4.05213C65.866 3.6784 66.2943 3.91669 66.8899 3.68237C67.5923 3.41055 67.8293 2.93521 68.3156 2.76379C68.717 2.62345 69.3395 2.7239 69.8476 2.54709C70.59 2.29345 70.3073 1.93871 70.6968 1.74375C70.8484 1.63856 73.8539 0.68029 74.0412 0.668964C75.37 0.399957 75.5793 0.960242 76.6371 0.858314C79.5635 0.591137 82.5593 0.0215131 85.3297 0.000668186C86.5585 -0.0112223 87.8471 0.147409 89.0463 0.409254C86.9838 1.61865 90.9103 3.35771 89.7353 0.831822C91.0208 1.37217 92.0731 0.945252 93.3259 1.35794C94.1294 1.63036 94.5938 2.08326 95.7404 2.43193C97.7442 3.02683 100.318 3.16819 100.15 4.9319C102.539 5.73528 103.994 7.4265 105.583 6.76658C106.196 7.07609 107.01 8.81843 107.46 9.39013C108.015 9.84589 111.261 14.0741 111.592 14.8813C112.062 15.6074 112.791 16.9335 113.219 17.5315C113.747 18.2535 115.475 18.3507 114.359 20.5038C115.097 22.2808 115.193 22.9196 115.309 24.6985C115.314 24.7919 115.295 24.865 115.268 24.9258C115.2 25.0705 115.077 25.1447 115.096 25.2704C115.152 25.6346 115.432 26.2264 115.527 26.8657C115.683 27.9271 115.164 28.5948 116 28.4115C116.192 29.1139 116.364 29.8252 116.515 30.5601C116.355 30.8182 116.192 31.0716 116.027 31.3201C116.201 31.6983 116.369 32.0989 116.529 32.5007C115.345 32.0023 115.879 34.7209 116.641 33.9131C116.268 35.3338 115.805 36.7065 115.257 38.0184C113.977 37.5421 114.333 40.9294 115.09 40.9295C115.038 41.0865 114.986 41.2427 114.932 41.3981C114.121 42.6314 113.904 43.9768 112.893 45.42C111.861 46.8479 111.801 46.6109 110.994 46.7326C110.821 47.0917 110.641 47.4465 110.455 47.7971C110.686 50.531 108.546 48.4872 107.269 51.9787C105.712 52.0776 104.192 54.3449 102.936 55.7373C102.792 55.9 102.922 56.0707 102.736 56.298C102.285 56.8615 100.67 57.6599 101.106 58.1896C100.48 58.375 99.8494 58.5472 99.2264 58.6992C98.866 59.0707 98.4967 59.4376 98.124 59.7967C98.2336 59.982 98.3432 60.1674 98.4528 60.3528C97.1996 60.2348 95.9236 61.215 95.1367 61.3935C94.9812 61.4285 94.82 61.1783 94.3485 61.3091C93.8012 61.4602 92.871 61.9646 92.2195 62.1273C92.1081 62.5282 91.9774 62.9346 91.8499 63.3372C90.7777 63.9415 90.0608 63.265 89.3853 63.4224C89.2594 63.4675 87.0499 64.2018 86.9325 64.2375C86.0803 64.5907 86.3636 65.1647 84.3496 65.6168L86.737 62.7073C86.7407 62.9602 86.7344 63.2486 86.7159 63.5796C86.6872 64.083 86.4312 64.4902 86.4209 64.9452C86.4023 65.7491 86.983 68.1713 87.5195 68.3618C86.848 69.3368 87.1225 71.9454 86.9285 72.7138C86.8688 72.9457 86.4411 72.9981 86.35 73.7109C86.2758 74.2887 86.6183 75.777 86.561 76.5099C86.4986 77.2878 86.1392 77.5656 86.1138 77.9142C86.0902 78.2435 86.3803 78.5471 86.3786 78.9959C86.3685 80.3968 85.9016 81.6654 85.893 82.7726C85.8795 84.3739 86.7383 85.7884 87.1196 87.1282C87.1192 87.1306 87.1188 87.133 87.1184 87.1353L87.0207 90.5757L83.7704 90.4834C83.4403 90.4263 83.1157 90.2446 82.7695 90.2429C78.4565 90.2159 73.5911 90.0577 69.2652 89.8738C69.0203 89.8635 68.731 89.8371 68.4143 89.8022L65.6738 89.7244L65.7474 87.1353C65.9984 84.8542 66.6889 81.1465 64.981 82.3169C64.6403 81.619 65.4246 76.5444 65.4364 75.5792C65.4481 74.6142 65.0993 73.8492 65.0941 73.0908C65.079 70.8018 65.3303 69.19 65.0266 66.4038C64.9472 65.6842 64.534 64.9132 64.5388 64.4871C64.5455 63.9738 64.9452 63.4214 64.9705 62.7564C65.0279 61.1714 64.8965 58.2174 64.9656 56.6967C64.9791 56.4191 65.33 56.3216 65.4397 55.9245C65.8682 54.3781 65.831 52.6447 64.7107 52.9514C65.0097 52.0196 65.0399 51.1206 64.9843 50.2387L65.0939 46.3782L68.7341 46.8236C69.6828 46.8492 70.5842 46.7373 71.4989 46.7551C75.1027 46.9496 81.6939 46.4616 84.3265 44.9772C85.9774 44.0893 85.766 43.7128 88.2232 42.9322C88.7635 42.7417 89.3018 42.568 89.9249 42.2718C91.3348 41.6273 93.107 41.1431 92.8892 39.5479C94.088 38.3892 94.3467 37.201 95.5649 36.1977C95.3753 35.9984 95.1811 35.8039 94.9812 35.6233C95.0118 35.4272 95.0371 35.2281 95.057 35.0259C95.282 34.9905 95.507 34.9509 95.7319 34.9071C95.9824 33.3304 94.8489 31.434 94.5135 30.1606C94.2359 28.9305 93.472 26.497 92.3619 24.2638C91.9169 23.1923 90.8754 22.2446 90.196 21.7311C89.3308 21.0926 89.1001 21.5355 88.8361 20.3992C88.5711 20.374 88.2999 20.355 88.0317 20.3447C87.8169 20.5006 87.6067 20.6607 87.401 20.8248C86.0213 20.4584 84.2499 19.9476 82.7707 19.9843C80.0375 19.9714 76.2683 21.5035 73.9268 22.4717C73.3225 22.6952 72.4002 22.7767 71.8928 23.1738C71.1652 23.7587 71.4668 24.4376 70.7435 25.2216C69.7479 26.2618 68.0771 28.1226 67.5509 30.0584L67.0416 32.2923L64.9045 32.2316C64.2613 32.1806 63.6768 32.1536 63.1921 32.1672C62.5142 32.1857 62.1979 32.4543 61.7298 32.483C59.7669 32.6062 58.1553 32.5843 56.2731 32.9993C54.2522 32.3076 54.4267 31.4147 53.8004 30.5137C53.3258 29.8337 51.8703 28.2577 51.6637 27.6622C51.5186 27.2437 52.0605 26.7055 51.8571 26.2449C54.2784 25.8771 55.2956 26.282 57.2618 26.9299C59.8093 26.9118 62.3569 26.8937 64.9045 26.8756L62.2972 29.0167C62.5426 27.7412 62.9286 26.5108 63.4693 25.3207C63.864 25.0657 64.2615 24.8389 64.6662 24.6274C64.6667 24.6276 64.6672 24.6279 64.6677 24.6282C65.6976 23.4072 65.6035 22.5278 66.0587 21.7429C70.376 13.3282 89.3207 10.8888 96.3075 19.4302C96.6484 19.827 97.1682 20.4474 97.6589 21.2809C98.9984 23.4019 100.473 26.9536 100.393 28.0427C100.38 28.3972 100.024 28.5671 100.095 28.926C101.071 31.9308 101.437 35.36 100.591 38.7406C97.8475 45.4665 91.6026 49.6755 85.4759 51.5322C79.7727 53.25 73.8697 53.5709 68.1439 53.126L71.3143 50.2387C71.4698 60.8315 71.5818 71.3628 71.5206 81.8492C71.5109 83.4658 71.5866 85.3112 71.6333 87.1353L68.4143 83.9163C70.0581 83.8742 71.6846 83.8557 73.1108 83.9444C74.3665 84.0221 74.8898 84.6446 76.5394 84.1806C76.5568 84.3484 76.5741 84.5161 76.5914 84.6838C78.0311 84.4813 78.9511 84.0997 80.5651 84.0609C81.2573 84.0446 82.5297 84.0301 83.7704 84.0283L80.6633 87.1353C80.6616 85.9398 80.6716 84.7736 80.7031 84.1842C80.7351 83.5612 81.0485 83.7933 81.0469 83.2125C81.0419 82.2182 80.6086 80.0936 80.6086 78.7215C80.6086 77.4786 80.9696 75.3832 80.9173 74.4275C80.7317 70.986 80.1965 67.2374 80.34 63.5699C80.351 63.2952 80.3889 62.9992 80.438 62.7073L80.3631 60.0698L83.1197 59.4391C83.8262 59.4345 84.5702 59.4737 84.7698 59.415C85.3243 59.2514 85.3873 58.8236 85.7376 58.6738C87.5351 57.9271 90.547 57.296 92.3029 56.4678C98.0279 53.8675 103.266 49.5468 106.45 44.5155C108.665 41.4053 110.273 35.3221 110.488 31.7392C110.566 30.9799 110.995 31.1876 110.99 30.5301C110.977 29.7907 110.661 29.4175 110.618 29.0847C110.508 28.2427 110.322 27.0702 110.051 25.763C109.611 23.5392 108.714 21.3004 108.266 20.0115C108.142 19.6332 108.303 19.2189 108.185 19.0084C108.126 18.9028 107.788 18.7728 107.57 18.4616C105.61 15.7471 103.939 13.9159 101.197 11.926C95.8642 8.09701 87.8268 6.70612 80.8107 6.89187C79.2765 6.91991 78.1456 6.39528 77.9237 6.42759C77.4443 6.50311 77.1968 6.98502 76.2682 7.25351C73.1871 8.10691 68.9544 8.98861 66.4201 10.6241C65.1503 11.4026 63.798 12.9586 62.8262 13.9086C62 14.6358 60.0442 16.2921 59.9551 16.8403C59.8843 17.1582 60.1782 17.5673 60.0219 17.8625ZM96.8242 3.19058C96.3357 3.8265 98.9596 4.14129 98.2138 3.40328C98.0388 3.22811 96.9513 3.01692 96.8242 3.19058ZM76.9975 88.8778C77.0192 89.1005 77.041 89.3232 77.0628 89.5458C77.3746 89.4532 77.6864 89.3605 77.9982 89.2679C77.8229 89.134 77.6477 89.0002 77.4725 88.8663C77.3141 88.8702 77.1558 88.874 76.9975 88.8778ZM72.3509 96.9034C72.4349 96.8223 72.6401 97.0676 72.752 97.0535C73.227 96.9984 73.4294 97.1615 73.8488 97.1934C74.459 97.222 76.0921 96.6742 76.2173 98.7107C76.2173 98.7108 76.2173 98.7108 76.2173 98.7109C76.2187 98.7307 76.22 98.7508 76.2211 98.7711C76.2419 99.1567 76.1482 99.5865 76.1658 100.023C76.1838 100.46 76.412 103.272 76.2955 103.441C76.1304 103.663 75.5825 103.003 75.4802 103.053C75.4113 103.086 75.3664 103.353 75.2897 103.412C75.0479 103.605 74.8528 103.455 74.7978 104.187C74.6209 103.852 74.4356 103.522 74.238 103.197C74.1604 103.396 73.8314 102.995 73.7593 103.048C73.7029 103.092 73.7666 103.377 73.7115 103.412C73.6519 103.453 73.4297 103.203 73.3225 103.301C73.1511 103.46 73.4496 104.16 73.4011 104.292C73.3552 104.427 72.9954 104.158 73.021 104.46C73.0521 104.539 73.0843 104.617 73.1175 104.695C73.2311 104.846 73.3434 104.998 73.4544 105.15C73.4593 105.252 73.2243 104.945 73.1759 104.97C73.1191 105.001 73.3161 105.311 73.2882 105.33C73.2657 105.346 73.0487 105.143 73.0282 105.185C72.9991 105.243 73.2881 105.554 73.3216 105.63C73.3288 105.662 73.3705 105.949 73.3716 105.956C73.34 106.015 72.8963 105.641 72.809 105.668C72.5652 105.749 72.8411 106.197 72.9255 106.431C72.9605 106.54 72.8954 106.605 72.7744 106.661C71.4627 105.935 70.216 105.963 72.4564 106.605C72.103 106.61 72.6706 106.892 72.5382 106.968C72.4514 107.021 72.1247 106.993 72.1038 107.116C72.0662 107.347 72.9323 107.723 71.286 107.541C71.5286 107.877 70.9061 108.106 72.3535 108.334C72.4362 108.412 71.5548 108.555 71.4324 108.65C71.3532 108.705 71.1343 109.042 71.0045 109.307C70.9431 109.443 70.8988 109.554 70.8921 109.596C70.8707 109.728 70.8498 109.957 70.9803 110.061C71.1419 110.199 72.6577 110.234 70.896 110.529C71.0506 110.795 71.005 110.888 70.8173 111.147C70.7835 111.194 70.5217 111.219 70.5236 111.246C70.5279 111.3 70.7292 111.374 70.7619 111.464C70.8155 111.611 70.2768 111.761 71.1141 111.646C71.2661 111.724 71.4188 111.798 71.5719 111.865C71.415 111.919 71.2585 111.975 71.1025 112.033C71.2858 112.054 71.4691 112.071 71.652 112.085C70.4367 112.244 71.2113 112.449 71.8779 112.201C71.6601 112.401 71.4494 112.609 71.2493 112.829C69.9051 113.196 71.208 113.229 71.9024 112.916C71.9062 112.929 71.91 112.943 71.9139 112.957C71.614 113.209 71.936 113.195 71.7766 113.427C71.6246 113.67 71.5029 113.725 70.9806 114.099C71.0348 114.118 71.0889 114.136 71.1428 114.151C71.9323 113.756 71.6733 113.943 71.4165 114.22C71.1504 114.484 70.9059 114.86 71.5292 114.541C70.8124 115.394 71.5222 115.257 71.8726 115.087C71.9148 115.07 72.038 114.895 72.0995 114.857C72.2423 114.765 72.265 115.1 72.605 114.499C72.5527 114.699 72.5125 114.905 72.4847 115.115C72.5921 115.029 72.6955 114.94 72.7969 114.849C72.8871 114.653 72.9772 114.458 73.0675 114.262C72.8487 114.971 73.1286 114.78 73.1494 114.973C73.1539 115.013 73.0578 115.294 73.0874 115.39C73.1217 115.504 73.2769 115.462 73.3375 115.576C73.4644 115.271 73.5838 114.962 73.6995 114.653C73.872 114.515 73.7136 115.37 73.795 115.458C73.8084 115.475 74.1229 115.476 74.1459 115.46C74.3171 115.34 74.3844 114.606 74.7445 114.816C74.8125 114.853 74.8342 115.113 74.8986 115.131C75.012 115.163 75.415 114.613 75.4673 114.078C75.5536 114.758 75.9545 114.499 76.0595 114.694C76.0928 114.754 76.0922 115.182 76.2032 115.274C76.2383 115.304 76.2962 115.269 76.3607 115.22C76.4524 115.143 76.5532 115.028 76.6168 115.061C76.7273 115.12 76.7804 115.478 76.8336 115.501C76.8838 115.522 76.9136 115.23 76.9773 115.228C77.1741 115.227 77.4004 115.675 77.5676 115.665C77.8112 115.651 77.894 114.77 77.9944 114.365C78.0465 114.412 78.1226 114.586 78.1687 114.579C78.7369 114.499 79.3928 114.47 79.9997 114.411C80.2623 114.403 81.4396 115.097 80.3481 113.474C80.2518 113.147 81.1697 113.503 81.2853 113.427C81.3918 113.366 81.2556 113.031 81.3211 112.974C81.5151 112.802 81.8357 112.857 81.8426 112.419C81.8434 112.305 81.5957 111.965 81.6263 111.938C81.6644 111.906 82.002 112.128 82.0685 112.089C82.2255 111.995 82.3033 111.668 82.4415 111.576C82.468 111.56 82.7699 111.739 82.887 111.758C83.3464 111.832 83.4185 111.614 82.4078 111.129C83.0646 111.247 82.6219 110.814 82.6417 110.656C82.7074 110.319 83.0782 109.682 82.5996 109.363C82.5671 109.341 82.5318 109.323 82.4955 109.307C82.2011 109.177 81.8513 109.2 82.2144 108.939C82.3039 108.871 82.4251 108.794 82.5265 108.698C82.7692 108.492 83.6206 108.047 82.4979 108.182C82.717 107.885 82.4699 107.799 83.2895 107.271C83.0678 107.334 82.8469 107.4 82.627 107.469C82.6108 107.444 82.5944 107.42 82.5778 107.396C82.7752 107.301 82.9721 107.205 83.1685 107.108C83.1238 106.857 82.1962 107.027 82.1232 106.894C82.0059 106.648 81.8391 105.866 81.8146 105.448C81.8076 105.223 81.4904 105.57 82.0616 104.788C81.9879 104.812 81.9149 104.837 81.8425 104.863C81.6876 105.008 81.5345 105.155 81.3833 105.304C81.2341 105.19 81.2381 104.786 81.066 104.679C80.745 104.476 80.0458 104.776 79.8552 104.304C79.8056 104.183 79.8329 103.733 79.7349 103.707C79.5918 103.67 79.3628 104.355 79.2036 104.327C78.9507 104.277 78.5159 103.351 78.1801 103.388C78.085 103.398 78.0176 103.662 77.9555 103.686C77.6908 103.791 77.4657 103.763 77.2207 104.18C76.9413 103.492 76.9274 102.601 76.7912 101.704C76.6935 101.027 76.3268 99.4697 76.2344 98.8797C76.1736 98.4645 76.2537 97.9195 76.1787 97.463C76.7001 97.0616 76.9607 97.4618 77.3856 98.1101C78.172 98.0891 78.9709 98.1283 79.7838 98.2478C79.8107 98.5081 79.8382 98.7691 79.8586 99.0294C79.8585 99.0299 79.8584 99.0305 79.8583 99.031C80.0904 99.3734 80.3457 98.77 80.5504 98.6688C82.5683 97.5875 85.4291 100.438 86.3322 101.969C86.5813 102.268 87.6309 103.145 87.4098 103.604C87.3554 103.719 87.0325 103.935 87.0537 104.004C87.5741 104.433 88.0659 104.924 88.5165 105.474C88.4306 106.838 89.0344 107.953 89.1776 109.307C89.1896 109.423 89.1977 109.54 89.2013 109.656C89.402 113.624 86.8699 117.534 83.5562 119.173C82.9285 119.503 82.2051 120.14 81.4817 120.192C81.1798 120.214 80.8864 119.657 80.6671 120.206C80.6164 120.046 80.5658 119.886 80.5153 119.726C80.2734 120.006 80.1667 120.429 79.8196 120.548C79.5276 120.653 78.7345 120.818 78.4588 120.785C78.3161 120.771 78.3276 120.453 78.2029 120.47C77.9934 120.502 77.5636 120.977 77.2545 120.992C76.9967 121.007 76.5875 120.717 76.3607 120.703C76.3395 120.702 76.32 120.703 76.3023 120.708C75.5982 120.892 74.7499 121.389 73.9322 121.139C73.6996 121.069 73.4726 120.621 73.4037 120.621C73.2623 120.621 73.1457 121 73.0382 121.032C72.4988 121.196 71.7933 120.53 71.3193 120.336C69.7402 119.761 67.7092 118.583 66.7395 116.811C66.0715 115.734 65.4841 113.937 65.6592 113.019C65.6909 112.816 66.1267 112.802 66.1038 112.648C66.0793 112.48 65.7782 112.425 65.7449 112.348C65.5031 111.813 65.1467 110.646 65.4421 110.175C65.4976 110.083 65.8355 110.014 65.8335 109.961C65.8331 109.935 65.6011 109.877 65.5766 109.793C65.5259 109.62 65.4952 109.46 65.4788 109.307C65.4264 108.754 65.5353 108.262 65.6505 107.645C65.9247 106.147 65.9563 104.002 67.2769 102.404C67.5604 102.061 68.2749 102.242 68.3003 102.197C68.3656 102.093 68.0631 101.746 68.1572 101.467C68.4836 100.518 69.764 100.11 70.3405 99.5297C70.6306 99.2272 70.885 98.4619 71.2212 98.1841C71.4924 97.9521 72.2758 97.9168 72.3304 97.6416C72.3664 97.4714 72.2638 96.9928 72.3509 96.9034ZM71.7066 107.166C70.9492 106.975 71.5236 107.41 71.9571 107.374C72.0538 107.368 71.9024 107.217 71.7066 107.166ZM79.284 115.716C79.22 115.503 79.1561 115.289 79.0925 115.076C79.0752 115.177 79.0564 115.278 79.0362 115.38C79.0956 115.502 79.1561 115.625 79.2175 115.746C79.2398 115.736 79.2619 115.726 79.284 115.716Z" fill="black"/>
<path d="M24.6929 63.5689C25.1903 63.0549 26.215 62.7258 26.8847 62.2372C29.7229 60.2077 30.9591 59.7333 33.7059 58.2738C37.6555 55.7916 50.2476 50.8053 50.9873 53.6162C50.9873 53.6163 50.9873 53.6163 50.9873 53.6164C50.9947 53.6418 51.001 53.6679 51.0062 53.6947C51.1029 54.2012 50.2142 55.0523 50.2356 55.657C50.2575 56.2623 51.4598 59.8168 50.1547 60.4626C48.2439 61.327 43.2371 62.3327 42.246 62.9002C41.5632 63.2541 40.8726 63.9749 40.0456 64.4803C37.3984 66.1231 35.8578 66.8033 34.1454 69.1592C32.9679 69.4065 31.786 69.7014 30.6034 70.0464C29.6116 71.1475 27.5422 72.1962 26.928 72.8732C26.425 73.4182 26.4017 73.9992 25.8947 74.5692C25.3263 75.2136 24.1307 75.9202 23.1899 77.1945C21.6664 79.2919 22.2515 80.2682 21.5006 81.5881C20.7323 82.9544 18.9763 84.7844 18.343 86.755C18.3221 87.0314 18.3027 87.3083 18.2849 87.5857C18.5918 87.5384 18.8981 87.4939 19.2039 87.4522C18.8395 88.4022 18.1938 88.5441 17.7757 89.3891C17.432 90.0892 17.4455 90.659 17.37 91.1719C17.3371 91.3825 17.2903 91.5839 17.2021 91.7827C16.9472 92.3551 16.2525 92.9774 15.9664 93.7276C15.5507 94.8183 16.1736 94.7953 16.0394 95.4088C15.9635 95.6432 14.6266 100.096 14.5799 100.319C13.9532 102.212 13.1712 102.134 12.6369 103.614C11.1556 107.78 10.7454 112.275 10.3285 116.269C10.1401 118.051 9.84923 119.878 9.54486 121.642C7.86682 118.574 5.71154 124.772 9.02038 122.683C8.40893 124.613 9.16216 126.109 8.96801 127.951C8.84691 129.154 8.40293 130.019 8.44354 131.742C8.51352 134.873 10.0508 138.067 7.96191 139.183C8.74634 142.783 8.58928 146.035 10.7744 146.923C11.0731 147.79 10.5109 150.396 10.6468 151.454C10.673 152.476 12.649 159.95 13.1962 161.098C13.6483 162.293 14.5231 164.323 15.1428 165.206C15.92 166.323 18.0944 166.196 17.156 169.403C18.6665 171.711 19.1324 172.6 20.2984 174.891C20.5158 175.308 20.2578 175.552 20.4117 175.781C20.7354 176.259 21.4706 176.87 22.1001 177.681C23.0947 178.959 23.1237 180.171 23.892 179.328C24.6869 180.041 25.5329 180.776 26.3579 181.442C26.4421 181.872 26.5261 182.297 26.6096 182.716C27.1439 182.956 27.7406 183.253 28.283 183.476C27.1689 183.903 28.4146 185.088 29.2287 185.228C29.6724 185.35 30.0027 185.24 29.8686 184.686C31.3124 186.545 32.6259 188.387 33.9155 190.351C32.3288 191.291 36.9723 194.319 37.4788 193.397C37.6405 193.608 37.8 193.818 37.9571 194.028C38.9751 196.199 40.5357 197.74 41.701 200.401C42.8228 203.068 42.4812 202.919 42.1173 204.075C42.4555 204.653 42.7726 205.217 43.0901 205.815C46.5787 208.21 42.75 208.971 45.9753 214.153C45.0268 216.314 46.5127 220.649 47.2172 223.617C47.303 223.959 47.5875 223.937 47.7189 224.39C48.0382 225.51 47.9191 228.379 48.8286 228.19C48.6528 229.187 48.4814 230.166 48.3283 231.147C48.5849 231.9 48.8523 232.641 49.1355 233.362C49.4185 233.313 49.7015 233.265 49.9846 233.216C49.8879 233.43 49.8181 233.656 49.7705 233.888L46.0658 230.769C47.6578 231.338 49.7297 231.082 50.8249 231.285C51.0758 231.332 51.1301 231.728 51.9103 231.836C52.8222 231.964 54.5215 231.847 55.6081 231.971C56.0305 231.532 56.453 231.094 56.8754 230.655C58.8186 230.417 59.5017 231.575 60.6428 231.665C60.8482 231.681 64.5965 231.597 64.7985 231.573C66.4518 231.377 65.9834 230.39 70.7652 230.601C71.6168 230.64 72.3055 230.981 73.0751 230.995C74.4348 231.019 78.5316 230.245 78.8538 229.53C80.5029 230.425 84.9151 230.059 86.2147 230.318C86.6069 230.397 86.6955 230.968 87.9011 231.089C88.8785 231.188 91.3957 230.732 92.6353 230.808C93.9511 230.891 94.4209 231.37 95.0105 231.404C95.5675 231.436 96.081 231.049 96.84 231.051C99.2095 231.065 101.355 231.687 103.228 231.699C105.936 231.717 108.329 230.571 110.595 230.063C111.157 230.137 111.71 230.383 112.3 230.385C116.313 230.405 120.609 230.478 124.881 230.58L120.932 234.529C121.016 231.036 121.119 227.56 121.229 224.269C121.342 220.872 122.896 212.425 120.303 214.68C119.849 213.499 120.894 204.916 120.91 203.284C120.912 203.048 120.904 202.819 120.889 202.596L120.998 197.709L125.609 198.672C126.816 198.801 127.999 198.653 129.044 198.816C132.797 199.387 135.416 200.113 140.003 200.175C141.187 200.186 142.476 199.736 143.153 199.788C143.971 199.854 144.826 200.439 145.871 200.508C147.116 200.588 148.914 200.585 150.438 200.415C151.197 200.334 151.893 200.191 152.197 200.086C152.356 200.037 152.387 199.998 152.221 200.106C152.066 200.21 151.625 200.553 151.314 201.228C151.076 201.76 151.162 202.221 151.315 202.596C151.439 202.445 151.567 202.238 151.632 201.934C152.204 199.33 152.154 196.388 150.66 196.907C151.508 193.548 150.735 190.451 150.687 187.34C150.629 183.37 150.733 177.411 150.686 172.076L150.801 166.945L155.708 167.165C158.759 167.166 161.887 166.803 163.783 166.262C165.317 165.826 165.963 165.398 166.741 165.047C167.439 164.711 168.649 164.313 169.474 164.081C169.623 164.054 169.671 164.081 169.638 164.256C169.609 164.418 169.523 164.8 169.577 165.094C169.618 165.354 169.765 165.423 169.833 165.288C169.573 162.891 169.28 160.389 167.443 158.896C166.538 155.332 165.214 152.671 165.407 149.647C165.004 149.454 164.602 149.265 164.199 149.074C164.027 148.654 163.854 148.233 163.681 147.812C163.901 147.574 164.12 147.335 164.34 147.097C163.222 144.031 160.579 140.641 159.553 138.066C158.656 135.814 157.079 131.551 155.619 127.513L155.268 125.65C155.501 122.053 155.442 118.442 155.433 116.458C155.413 114.187 154.768 114.184 155.872 112.72C155.716 112.237 155.556 111.752 155.392 111.266C155.066 110.996 154.738 110.722 154.411 110.462C153.947 107.638 153.662 104.219 152.95 101.572C151.715 96.7045 148.407 90.0257 146.553 85.4693C146.106 84.3152 145.862 82.6743 145.232 81.6271C144.308 80.1095 143.275 80.2538 142.023 78.4478C139.948 75.302 136.018 69.2634 133.087 67.0608C132.242 66.3871 131.634 66.368 131.029 65.951C128.49 64.2293 126.342 62.8502 123.51 61.9985C121.124 59.7722 121.803 58.8475 121.334 57.3238C120.994 56.1789 119.404 53.3379 119.278 52.4683C119.211 51.8538 120.377 51.5014 120.232 50.7998C124.551 51.8502 126.11 53.2131 128.79 55.6495C134.541 58.809 139.694 63.0047 144.019 67.876C144.16 68.5434 144.288 69.2082 144.402 69.8702C144.401 69.8707 144.401 69.8711 144.4 69.8716C145.659 72.009 146.94 72.3253 147.887 73.3048C157.754 82.5174 163.793 107.875 163.35 121.707C163.366 122.609 163.43 124.103 163.434 125.795L163.173 124.407C164.731 127.981 166.73 132.635 166.899 134.085C166.962 134.619 166.531 134.933 166.715 135.453C168.826 139.884 170.912 144.306 172.968 148.772C174.349 153.464 176.088 158.015 177.704 162.905C178.396 164.769 178.135 167.764 176.667 169.565C175.269 171.391 173.667 172.244 172.191 172.941C169.213 174.259 166.398 174.788 163.613 175.171C160.898 175.518 158.309 175.688 155.517 175.692L159.216 172.076C159.345 182.262 159.475 192.475 159.577 202.596C159.6 203.826 159.094 205.157 158.363 206.032C157.695 206.857 156.957 207.335 156.376 207.653C155.18 208.281 154.267 208.492 153.386 208.687C151.673 209.034 150.168 209.122 148.707 209.171C145.795 209.25 143.023 209.089 140.281 208.865C134.794 208.394 129.495 207.645 124.12 206.69L129.045 202.596C129.047 206.363 129.04 210.128 129.022 213.889C128.998 219.087 129.385 225.684 129.135 230.773C129.062 232.274 128.626 233.156 128.595 234.529L128.676 238.158L124.881 238.243C124.311 238.23 123.656 238.287 122.837 238.468C122.808 238.245 122.779 238.021 122.749 237.797C120.314 238.067 118.758 238.576 116.028 238.628C113.729 238.671 107.647 238.704 105.615 238.618C104.562 238.576 104.954 238.158 103.972 238.16C102.29 238.167 98.6967 238.744 96.376 238.744C94.2737 238.744 90.7296 238.263 89.1133 238.333C83.2924 238.58 76.952 239.294 70.7489 239.103C69.0354 239.049 66.8314 238.507 66.2947 238.522C65.2466 238.553 64.9343 239.08 64.2302 239.147C60.6538 239.489 55.0787 238.864 51.573 238.839C49.7526 238.826 47.915 238.821 46.0658 238.821L42.5497 238.9L41.836 235.26C40.3563 224.67 40.3106 215.605 36.4235 207.719C34.231 202.532 28.5703 195.375 23.9247 190.75C23.1247 189.929 22.3808 189.094 21.7579 188.34C20.7809 187.143 21.5097 187.089 20.6588 186.111C19.774 185.077 18.9594 184.678 18.5481 184.212C15.423 180.873 9.85352 172.509 8.49544 168.425C8.21582 167.664 8.37943 166.937 8.17651 166.494C8.07206 166.263 7.5688 165.899 7.23447 165.204C4.31485 159.028 3.00563 154.2 1.74894 147.643C-0.687823 135.151 -0.793974 120.009 2.81127 107.115C3.56854 104.323 5.01083 102.668 5.11724 102.27C5.35353 101.427 4.93355 100.719 5.35903 98.9487C6.21072 95.4342 7.84974 91.4706 9.61578 87.7082C10.8154 85.1378 12.1168 82.7177 13.213 80.6204C14.5304 78.0471 16.2041 74.2955 17.9657 71.9303C19.2967 69.9846 23.4273 66.2813 24.0201 65.3873C24.3579 64.8166 24.1552 64.1297 24.6929 63.5689ZM7.99972 133.626C6.92884 133.312 8.02558 137.09 8.4912 135.612C8.59097 135.288 8.26976 133.713 7.99972 133.626ZM122.062 232.205C122.026 231.909 121.989 231.612 121.952 231.315C121.425 231.438 120.897 231.562 120.37 231.685C120.666 231.864 120.963 232.042 121.259 232.221C121.527 232.216 121.795 232.211 122.062 232.205Z" fill="black"/>
</svg>
