<svg width="243" height="238" viewBox="0 0 243 238" fill="none" xmlns="http://www.w3.org/2000/svg">
<path d="M65.7256 66.809C66.1515 64.7917 65.9776 60.9018 65.8821 58.7621C65.8805 58.7228 65.8789 58.6836 65.8774 58.6443C65.8547 58.1365 65.8489 57.6561 65.8425 57.0933C65.8272 55.7513 65.8064 53.9381 65.535 50.1537C65.545 49.0526 65.5504 47.9513 65.5504 46.8502C65.5504 34.9591 65.1963 23.0681 64.7722 11.1769C64.7744 11.0267 64.7767 10.874 64.779 10.7196C64.8088 8.69649 64.8434 6.34398 64.8141 4.31458L64.9918 0.193677L60.4994 -5.39067e-05C59.5371 0.0138508 58.6475 0.0421313 57.9 0.0921162C54.9458 0.28969 52.9392 0.473024 51.2912 0.63125C41.8464 0.972454 32.4014 1.27734 22.9566 1.40336C19.9964 1.44285 17.0359 1.46445 14.0757 1.46446C13.1898 1.46446 12.3039 1.46303 11.4179 1.46023L8.69173 1.34266L8.56356 4.31458C8.55775 6.15479 8.54601 7.99511 8.52885 9.83511C8.43617 11.4226 8.32605 12.9319 8.22404 14.3315C8.08069 16.2982 7.95338 18.0491 7.91184 19.4954C7.88551 20.412 7.87704 21.361 7.88099 22.3153L7.73531 25.6934L11.4179 25.8523C14.0916 25.8412 16.8073 25.7327 18.9705 25.6462C19.4501 25.627 19.9031 25.6088 20.322 25.5931C22.6532 25.6513 24.9849 25.7135 27.3161 25.7771C27.4718 25.7417 27.6286 25.7048 27.7881 25.667C29.7776 25.1949 32.2235 25.201 36.0734 25.2098C37.75 25.2136 39.6931 25.2177 41.9807 25.1836C42.9485 25.1691 43.6073 25.0835 44.1207 24.9832L41.4529 22.3153C41.5054 22.584 41.5619 22.8128 41.6144 23.0253C41.6593 23.2073 41.7013 23.378 41.7352 23.5508C41.8515 24.143 41.7258 24.7672 41.5774 25.5046C41.3849 26.4613 41.1537 27.609 41.3626 29.1252C42.0282 33.9565 41.5766 36.0854 41.235 37.6957C41.1348 38.1681 41.0443 38.5962 40.994 39.0346C40.831 40.456 40.9925 42.4811 41.2142 44.0116C41.39 45.2252 41.2157 47.6533 40.994 49.4947C40.9101 50.1909 40.908 51.1325 40.906 52.2415C40.904 53.3892 40.9021 54.717 40.808 56.1376C40.5703 59.7273 40.4551 61.635 40.3629 63.1687C40.3366 63.606 40.3126 64.0132 40.2877 64.42C40.2088 65.7056 40.1438 67.3011 40.0782 68.9164C39.9997 70.8494 39.92 72.8113 39.8137 74.3041C39.9262 78.1732 40.0655 82.0426 40.2044 85.9113C40.2766 87.8986 40.6828 89.8053 41.3525 91.2105C42.0228 92.6154 42.8967 93.4045 43.8024 93.4047C44.7082 93.4047 45.5821 92.6153 46.2524 91.2105C46.9221 89.8053 47.329 87.8986 47.4011 85.9113C47.5449 81.908 47.6888 77.9039 47.8033 73.9002C47.9428 69.0232 48.039 64.1458 48.039 59.2688C48.039 55.8571 48.0174 52.4452 47.9786 49.0335C47.9746 48.6822 47.9701 48.3309 47.9658 47.9797C48.1888 45.1135 48.3917 42.2528 48.464 40.2373C48.5237 38.5731 48.4046 37.3599 48.3028 36.3208C48.2328 35.6058 48.1708 34.9731 48.1806 34.3329C48.1859 33.9891 48.1997 33.5195 48.2162 32.9532C48.2837 30.6407 48.3983 26.7133 48.1806 23.1304C48.1645 22.8653 48.1458 22.5931 48.125 22.3153L47.9452 18.1461L44.1207 18.3111C42.7325 18.4152 41.2051 18.5726 39.7359 18.724C37.2147 18.9839 34.8638 19.2261 33.6768 19.1517C31.5926 19.021 29.2024 19.1316 27.0904 19.2296C25.0758 19.3231 23.3139 19.4047 22.3118 19.2538C21.1145 19.0734 20.0935 19.1469 18.5754 19.2558C17.5225 19.3313 16.2303 19.4235 14.4741 19.4606C13.2736 19.4859 12.281 19.5406 11.4179 19.6032L14.13 22.3153C14.0869 21.7207 14.0399 21.1876 13.9961 20.6902C13.8449 18.9743 13.7312 17.6832 13.9403 15.7589C14.1727 13.6214 14.3206 11.3873 14.2472 9.62786C14.2137 8.82646 14.2218 7.90973 14.2304 6.95591C14.2381 6.08678 14.2461 5.18668 14.2231 4.31458L11.4179 7.11977C11.8129 7.10936 12.2021 7.09261 12.5802 7.06661C13.5795 6.99789 14.4055 6.82206 15.1363 6.66646C15.3643 6.61792 15.5832 6.57158 15.795 6.53084C16.591 6.53308 17.3869 6.53637 18.1829 6.54158C18.3117 6.56988 18.4472 6.60122 18.5886 6.63356C19.2982 6.79586 20.1707 6.99493 21.2508 7.09414C22.9604 7.25112 24.4606 7.15282 26.043 7.04848C27.2751 6.96725 28.557 6.88247 30.0266 6.91286C31.0287 6.9336 32.1698 7.00548 33.3008 7.07668C34.9807 7.18243 36.6397 7.28651 37.7924 7.22036C38.2242 7.19557 38.5955 7.08515 38.9629 6.9753C38.9645 6.97463 38.9662 6.97396 38.9678 6.97329C38.9927 6.96583 39.0178 6.95855 39.0427 6.95113C41.8498 7.03527 44.6572 7.12802 47.4643 7.22573C47.7075 7.25411 47.9534 7.2821 48.197 7.30966C49.3873 7.44431 50.5439 7.57511 51.298 7.76084C52.1153 7.96216 54.1701 8.0792 56.3354 8.20262C57.7534 8.28344 59.2195 8.3669 60.4163 8.47856C60.4441 8.48115 60.4718 8.48346 60.4994 8.4855L56.3285 4.31458C56.2792 4.9838 56.3886 5.62198 56.5013 6.27773C56.6107 6.91487 56.7231 7.56903 56.6953 8.28413C56.6814 8.64231 56.6343 9.02916 56.5839 9.44203C56.5395 9.80551 56.4925 10.1898 56.4637 10.5922C56.437 10.966 56.499 11.7986 56.5778 12.8661C56.6265 13.5259 56.6816 14.2755 56.7269 15.0623C56.656 17.1418 56.588 19.2218 56.5248 21.3013C56.425 21.7351 56.2955 22.1116 56.1293 22.4096C56.0101 22.6234 55.8675 22.8055 55.7218 22.9925C55.5235 23.2469 55.3185 23.5102 55.1551 23.8731C55.0274 24.1566 54.9765 24.4911 55.0296 24.7157C55.0543 24.8203 55.1009 24.9006 55.143 24.9736C55.1913 25.0571 55.2342 25.1316 55.233 25.2227C55.232 25.2883 55.1978 25.3566 55.1565 25.4406C55.0904 25.5748 55.0051 25.7493 55.002 26.0147C54.9908 27.0027 55.0181 28.1256 55.045 29.2257C55.075 30.449 55.1041 31.6447 55.0786 32.5973C55.05 33.6644 55.177 35.1851 55.3035 36.7083C55.3918 37.7709 55.4796 38.8351 55.5157 39.7481C55.551 40.6427 55.4808 41.5743 55.4123 42.4764C55.33 43.5593 55.2506 44.6009 55.3619 45.486C55.3845 45.665 55.5221 45.8873 55.6943 46.1662C55.8163 46.3638 55.9558 46.5913 56.0843 46.8502C56.0843 47.9769 56.09 49.1038 56.1004 50.2305C56.0818 50.2702 56.0628 50.3111 56.0434 50.3522C56.0429 50.3528 56.0425 50.3535 56.042 50.3541C55.6042 51.2795 55.0053 52.5459 55.3626 54.325C55.4534 54.7773 55.6212 55.062 55.7721 55.3185C55.9204 55.5704 56.0531 55.7956 56.081 56.1251C56.1126 56.4995 56.0215 56.9414 55.9225 57.4232C55.7835 58.0996 55.6282 58.8552 55.7728 59.6135C55.7827 59.6652 55.7935 59.7209 55.8044 59.7789C55.9072 60.3284 56.0594 61.1421 56.3657 61.9517C56.4474 64.3537 56.5431 66.7559 56.6476 69.1579C56.8218 73.1618 57.0205 77.1665 57.219 81.17C57.3167 83.1177 57.7338 84.9857 58.4013 86.3631C59.0699 87.7405 59.929 88.5144 60.8177 88.5144C61.7063 88.5143 62.5649 87.7404 63.2334 86.3631C63.901 84.9857 64.318 83.1178 64.4157 81.17C64.5732 77.9938 64.731 74.8167 64.8763 71.6401C64.8948 71.4736 64.9126 71.3064 64.9294 71.14C65.0539 69.9017 65.304 68.7528 65.5544 67.603C65.6119 67.3389 65.6696 67.0743 65.7256 66.809ZM70.423 91.705C71.2633 92.0084 72.821 91.6417 73.6488 91.4679C73.6642 91.4648 73.6797 91.4617 73.6952 91.4586C73.8951 91.4161 74.0866 91.3921 74.3122 91.3654C74.8533 91.3034 75.5764 91.2135 77.0874 90.8615C77.5322 90.8487 77.9939 90.8349 78.4287 90.8206C83.2234 90.6633 88.0802 90.6179 92.9126 91.0163C92.9723 91.0287 93.033 91.0415 93.0943 91.0545C94.2819 91.3032 95.7434 91.6623 96.6941 91.7256C97.9122 91.8058 98.7492 91.8398 99.4395 91.8651C103.255 92.5621 107.028 93.65 110.584 95.2611C111.686 95.7598 112.79 96.3218 113.845 96.9252C114.812 97.4784 115.782 98.0864 116.702 98.7163C117.196 99.1488 117.648 99.5878 118.062 100.001C118.647 100.585 119.143 101.106 119.586 101.493C120.66 102.424 122.006 103.325 122.983 104.028C123.143 104.143 123.294 104.252 123.434 104.355C124.117 105.044 124.759 105.731 125.395 106.445C125.465 106.464 125.536 106.483 125.609 106.502C126.521 106.742 127.242 107.476 128.293 108.65C128.751 109.164 129.292 109.786 129.919 110.485C130.322 110.934 130.663 111.06 130.943 111.164C131.025 111.195 131.102 111.224 131.174 111.259C131.419 111.379 131.482 111.663 131.555 111.998C131.648 112.431 131.759 112.956 132.301 113.336C134.014 114.539 134.148 115.576 134.237 116.322C134.264 116.544 134.287 116.743 134.341 116.919C134.521 117.492 135.099 118.106 135.621 118.536C136.032 118.87 136.417 119.859 136.593 120.621C136.661 120.91 136.848 121.247 137.066 121.649C137.292 122.065 137.552 122.552 137.743 123.122C138.234 124.584 138.448 125.308 138.64 125.923C138.694 126.097 138.743 126.259 138.792 126.422C138.945 126.936 139.162 127.566 139.375 128.213C139.633 128.994 139.858 129.735 139.994 130.348C140.7 131.771 141.412 133.262 142.062 134.701C142.401 135.452 143.039 136.079 143.861 136.444C144.683 136.808 145.62 136.878 146.485 136.606C147.349 136.336 148.078 135.738 148.522 134.932C148.965 134.127 149.079 133.183 148.855 132.325C148.415 130.628 147.893 128.845 147.319 127.151C146.639 125.131 145.77 122.979 144.809 121.061C144.106 119.655 143.353 118.293 142.564 116.992C142.484 116.859 142.4 116.722 142.314 116.583C141.844 115.325 141.329 114.107 140.896 113.3C140.544 112.64 140.128 112.23 139.775 111.889C139.532 111.654 139.317 111.449 139.158 111.202C139.073 111.069 138.961 110.885 138.825 110.664C138.28 109.769 137.296 108.237 136.092 107.089C135.558 106.577 134.894 106.073 134.217 105.565C133.262 104.851 132.368 104.234 132.058 103.793C131.525 103.028 130.66 102.299 129.912 101.704C129.192 101.129 128.569 100.661 128.329 100.236C128.046 99.732 127.647 99.472 127.056 99.1012C126.646 98.8446 126.143 98.5344 125.512 98.0639C124.77 97.5101 124.177 97.2086 123.676 96.9595C122.968 96.6079 122.451 96.3653 121.861 95.6862C121.207 94.9331 120.448 94.2429 119.745 93.8742C119.426 93.7069 119.08 93.4762 118.715 93.2391C118.233 92.9256 117.723 92.6042 117.209 92.3998C116.785 92.2312 116.376 92.2004 116.016 92.1764C115.904 92.1691 115.795 92.1614 115.692 92.1505C115.379 91.9738 115.066 91.7993 114.753 91.6261C114.715 91.5739 114.676 91.5176 114.635 91.4592C114.429 91.1664 114.173 90.8073 113.784 90.4987C113.17 90.0117 112.511 89.8012 111.817 89.5927C111.277 89.4307 110.717 89.2704 110.125 88.9806C109.724 88.7838 109.275 88.5164 108.827 88.2572C108.163 87.872 107.5 87.5058 106.991 87.387C106.8 87.3424 106.605 87.3884 106.413 87.4355C106.412 87.4359 106.411 87.4362 106.411 87.4366C106.398 87.4398 106.384 87.4428 106.371 87.446C105.204 86.9323 104.038 86.4476 102.854 85.9879C102.757 85.9288 102.658 85.8699 102.56 85.8121C102.08 85.529 101.612 85.2608 101.331 84.991C101.025 84.6975 100.162 84.3429 99.22 83.989C98.6072 83.7574 97.9725 83.5282 97.4623 83.3044C97.1634 83.1734 96.8463 83.2234 96.5134 83.2758C96.2045 83.325 95.8894 83.3776 95.5739 83.2895C95.4158 83.2454 95.251 83.1667 95.0748 83.0834C94.9197 83.01 94.7554 82.9328 94.5798 82.8728C94.4167 82.8172 94.0321 82.8132 93.5427 82.8141C93.2367 82.8141 92.8879 82.8155 92.5263 82.8079C91.5947 82.5985 90.6799 82.4118 89.7371 82.2436C89.5505 82.1225 89.3927 81.9755 89.2738 81.796C89.1885 81.6672 89.1197 81.5169 89.0486 81.3632C88.9518 81.1541 88.8508 80.9381 88.6991 80.7594C88.5806 80.6198 88.4307 80.5547 88.3224 80.5981C88.2719 80.6184 88.2308 80.6614 88.1935 80.7004C88.1508 80.7451 88.1127 80.7848 88.071 80.7799C88.041 80.7762 88.0126 80.7394 87.9776 80.6949C87.9217 80.6237 87.8487 80.5318 87.7269 80.5185C87.2766 80.4695 86.7497 80.4571 86.2368 80.4508C85.6665 80.4435 85.1132 80.4431 84.6761 80.3975C84.1896 80.3462 83.4759 80.446 82.7669 80.5564C82.2729 80.6332 81.7829 80.7145 81.3655 80.7479C80.9583 80.7806 80.5291 80.7109 80.1083 80.6461C79.6052 80.5682 79.1219 80.4978 78.7184 80.6194C78.6368 80.6441 78.5384 80.7844 78.4163 80.9602C78.3297 81.0847 78.2306 81.2273 78.1177 81.3597C77.6154 81.3761 77.0821 81.4042 76.5698 81.4412C76.5507 81.4235 76.531 81.4055 76.5112 81.3871C76.5109 81.3867 76.5106 81.3862 76.5102 81.3858C76.0651 80.9708 75.4418 80.406 74.6571 80.8223C74.4526 80.9286 74.3336 81.1062 74.227 81.2662C74.1224 81.4233 74.0297 81.564 73.881 81.6045C73.712 81.6505 73.5022 81.5774 73.2733 81.499C72.9522 81.3888 72.5921 81.2678 72.2644 81.4473C72.2421 81.4596 72.2181 81.473 72.193 81.4865C71.9598 81.6144 71.5978 81.8069 71.2631 82.1547C70.1709 82.3656 69.1286 82.6063 68.0445 82.8854C66.2868 83.3436 64.5466 83.8863 62.7928 84.5091C61.9707 84.8053 61.2272 85.4325 60.8158 86.2407C60.4024 87.0502 60.3375 87.968 60.5898 88.8196C60.8436 89.6716 61.3899 90.4031 62.1123 90.8955C62.8354 91.3867 63.6894 91.5931 64.465 91.5088C65.7751 91.3582 67.0467 91.2588 68.3561 91.1765C68.4249 91.1831 68.494 91.1892 68.5627 91.1944C69.0741 91.2327 69.5751 91.4056 70.0766 91.5832C70.1918 91.6241 70.3074 91.6652 70.423 91.705ZM47.4648 97.657C47.743 98.0025 47.8963 97.7516 47.9833 97.6134C47.985 97.611 47.9867 97.6086 47.9883 97.6063C48.0088 97.5735 48.034 97.557 48.0637 97.5381C48.1348 97.493 48.2299 97.4322 48.3482 97.0935C48.4152 97.0777 48.4807 97.0578 48.5443 97.033C49.2301 96.7647 49.797 96.1771 50.3632 95.5296C50.3729 95.5285 50.3827 95.5275 50.3926 95.5264C50.584 95.5059 50.8216 95.4818 50.9099 95.2878C51.0225 95.0409 51.0855 94.8266 51.1346 94.6436C51.5965 94.1305 52.0835 93.6563 52.6292 93.3599C52.8004 93.2669 52.9767 93.192 53.1603 93.1382C53.3288 93.0889 53.5013 93.0532 53.6776 93.0295C53.8013 93.0907 53.9244 93.1704 54.0384 93.2444C54.1986 93.3485 54.3409 93.4412 54.4406 93.4569C54.6812 93.4946 54.8841 93.2765 55.0359 93.1151C55.0607 93.0887 55.0841 93.0637 55.1062 93.0417C55.2658 93.0598 55.4259 93.0826 55.5861 93.1073C55.587 93.0705 55.5876 93.0323 55.5881 92.9931C55.595 92.5041 55.7504 92.4708 55.9934 92.4197C56.0994 92.3974 56.2226 92.3714 56.3578 92.3036C56.445 92.2599 56.4489 92.0665 56.4525 91.9086C56.4536 91.8622 56.4546 91.8187 56.4577 91.7831C56.4682 91.6611 56.537 91.7739 56.6178 91.9072C56.7229 92.0802 56.8472 92.2885 56.8952 92.0628C57.0497 91.3434 57.2881 91.7528 57.4638 92.0633C57.5156 92.1543 57.5624 92.2366 57.6009 92.2795C57.7257 92.4186 57.8181 92.2326 57.8669 91.995C57.9057 91.8064 58.0967 91.9433 58.2593 92.1352C58.3207 92.2078 58.3806 92.1971 58.4506 92.1844C58.5232 92.1711 58.6073 92.1553 58.7159 92.2288C58.9907 92.4144 59.1325 92.5034 59.2469 92.5743C59.2795 92.5945 59.3098 92.6129 59.3402 92.6322C59.4362 92.6934 59.5493 92.7372 59.6625 92.7817C59.7983 92.835 59.936 92.8895 60.0493 92.976C60.2697 92.8191 60.4857 92.637 60.7043 92.4561C60.816 92.3625 60.864 91.9412 60.8371 91.2658C60.8099 90.5899 60.7107 89.7201 60.5544 88.8279C60.3981 87.9358 60.1946 87.0842 59.982 86.4411C59.7697 85.7986 59.5664 85.4216 59.4169 85.3754C59.1154 85.2841 58.8135 85.1942 58.5148 85.135C58.1519 85.0628 57.7947 85.0358 57.4582 85.1049C57.2215 85.1535 56.9913 85.224 56.7635 85.3126C56.7401 85.3217 56.7168 85.3313 56.6935 85.3407C56.4486 85.1654 56.2074 85.0108 56.0514 84.9715C55.9229 84.939 55.8649 85.0741 55.8156 85.1897C55.7817 85.2692 55.752 85.3395 55.7057 85.34C55.6807 85.3403 55.6451 85.3343 55.6023 85.3272C55.4272 85.2981 55.1301 85.2496 54.9329 85.5206C54.8457 85.6407 54.7634 85.8564 54.6861 86.0623C54.5747 86.3569 54.4737 86.6316 54.3752 86.5796C54.2022 86.488 54.0657 86.6367 53.947 86.7682C53.8335 86.8938 53.7357 87.0035 53.6293 86.8753C53.5025 86.722 53.4515 86.8114 53.3767 86.9438C53.3247 87.0357 53.2616 87.1478 53.1526 87.2155C53.0267 87.2937 52.9632 87.4419 52.9098 87.5679C52.8346 87.7452 52.7791 87.8784 52.5939 87.7128C52.3883 87.5289 52.1978 87.4289 52.0997 87.5332C52.0549 87.5807 51.991 87.5905 51.9246 87.6007C51.8367 87.6142 51.7443 87.6288 51.6865 87.7325C51.6389 87.8179 51.6329 88.0029 51.628 88.1665C51.6265 88.2175 51.625 88.2663 51.6224 88.3095C51.5688 88.323 51.515 88.3355 51.4606 88.3462C51.444 88.3216 51.4261 88.2942 51.4075 88.266C51.314 88.1245 51.1989 87.9511 51.0982 87.8777C50.9386 87.7617 50.866 87.8864 50.791 88.0184C50.7324 88.1212 50.6723 88.2284 50.5655 88.2296C50.4925 88.2305 50.3951 88.1855 50.2984 88.1411C50.1548 88.0752 50.0128 88.011 49.9559 88.0985C49.9345 88.1313 49.9432 88.2444 49.9522 88.3568C49.9523 88.3575 49.9524 88.3582 49.9525 88.3589C49.9531 88.3665 49.9536 88.374 49.9542 88.3816C49.7417 88.3611 49.5275 88.3328 49.3096 88.3015C49.2846 88.2799 49.2595 88.2586 49.2346 88.2378C49.1132 88.136 48.995 88.0374 48.8859 87.8779C48.7679 87.705 48.5927 87.64 48.4074 87.5723C48.286 87.528 48.1605 87.4826 48.0438 87.4045C47.9756 87.3589 47.9674 87.482 47.9597 87.6087C47.9524 87.727 47.9453 87.8484 47.8882 87.8387C47.8596 87.8339 47.8183 87.7984 47.774 87.7605C47.735 87.7271 47.6937 87.6917 47.6572 87.6739C47.6233 87.6575 47.5879 87.7355 47.5425 87.8351C47.5143 87.8967 47.4823 87.9663 47.4448 88.0277C47.2819 88.0102 47.1203 87.9958 46.9594 87.9868C46.8964 87.9035 46.827 87.7909 46.7503 87.6419C46.6952 87.5351 46.6342 87.4055 46.5718 87.2732C46.4868 87.093 46.3989 86.907 46.3182 86.7624C46.2551 86.6495 46.2148 86.6101 46.2176 86.6655C46.219 86.6913 46.2295 86.7371 46.239 86.7785C46.2499 86.8259 46.2596 86.8681 46.253 86.8692C46.2482 86.8699 46.2318 86.8395 46.2118 86.8027C46.1799 86.744 46.1387 86.6683 46.1195 86.6721C46.0482 86.6862 45.9812 86.74 45.9154 86.7932C45.8423 86.8522 45.771 86.9098 45.6973 86.9102C45.6146 86.9107 45.5562 87.0683 45.4975 87.2259C45.4567 87.3358 45.4161 87.4453 45.3674 87.5025C45.3197 87.5586 45.2318 87.5172 45.1462 87.4768C45.0438 87.4281 44.9441 87.3816 44.9247 87.5086C44.9208 87.5344 44.9558 87.6685 44.9996 87.8362C45.0307 87.955 45.0662 88.0909 45.0958 88.2174C45.0205 88.2468 44.9474 88.2816 44.8763 88.321C44.8668 88.3047 44.857 88.2881 44.8472 88.2711C44.847 88.2707 44.8468 88.2703 44.8466 88.2699C44.6243 87.887 44.3166 87.3647 44.3292 87.7445C44.3324 87.841 44.3758 88.0044 44.4148 88.1514C44.4532 88.2957 44.4877 88.4249 44.4762 88.4596C44.4631 88.4989 44.3997 88.4263 44.3306 88.3474C44.2335 88.2367 44.1245 88.1133 44.1282 88.2679C44.1284 88.2784 44.1288 88.29 44.129 88.3016C44.131 88.4118 44.1341 88.5749 44.1966 88.8802C44.0686 89.0209 43.947 89.1748 43.8293 89.3373C43.6338 89.6079 43.4495 89.9022 43.2694 90.1965C43.1816 90.3409 43.2274 90.7761 43.4087 91.4256C43.5901 92.0761 43.89 92.883 44.2494 93.6957C44.6089 94.5084 45.0029 95.2729 45.3528 95.8494C45.7025 96.4249 45.977 96.76 46.1287 96.8008C46.3746 96.866 46.6207 96.9324 46.86 96.9893C46.8768 97.0023 46.8934 97.0147 46.9094 97.0261C47.0291 97.1109 47.1918 97.3139 47.3537 97.5178C47.391 97.5646 47.4282 97.6115 47.4648 97.657ZM153.643 141.737C154.28 142.163 155.508 141.989 156.184 141.894C156.196 141.892 156.208 141.891 156.221 141.889C156.381 141.866 156.533 141.86 156.711 141.854C157.134 141.839 157.707 141.818 158.902 141.547C159.25 141.557 159.598 141.562 159.945 141.562C162.202 141.562 164.458 141.434 166.715 141.24L162.14 137.71C162.645 139.127 163.178 140.536 163.722 141.943C163.732 141.99 163.742 142.037 163.752 142.085C163.948 143.007 164.192 144.15 164.528 144.821C164.956 145.673 165.294 146.239 165.579 146.703C166.665 149.501 167.716 152.309 168.594 155.162C168.87 156.056 169.128 156.955 169.365 157.86C169.583 158.692 169.788 159.528 169.982 160.368C170.019 160.876 170.034 161.365 170.047 161.818C170.066 162.455 170.083 163.023 170.158 163.475C170.341 164.565 170.81 165.732 171.158 166.599C171.215 166.741 171.269 166.874 171.318 166.998C171.448 167.725 171.575 168.453 171.7 169.181C171.747 169.22 171.795 169.259 171.844 169.298C172.46 169.786 172.65 170.534 172.95 171.713C173.081 172.226 173.232 172.82 173.448 173.511C173.588 173.955 173.829 174.139 174.027 174.289C174.085 174.334 174.139 174.375 174.186 174.419C174.346 174.571 174.274 174.793 174.189 175.056C174.08 175.397 173.948 175.806 174.272 176.217C175.302 177.524 175.036 178.288 174.834 178.867C174.775 179.037 174.722 179.19 174.708 179.337C174.665 179.812 174.983 180.39 175.32 180.801C175.587 181.128 175.613 181.913 175.546 182.532C175.521 182.766 175.594 183.054 175.681 183.394C175.771 183.745 175.875 184.151 175.898 184.608C175.956 185.765 175.997 186.377 176.03 186.869C176.04 187.009 176.049 187.14 176.058 187.27C176.085 187.683 176.149 188.187 176.215 188.697C176.294 189.307 176.374 189.927 176.391 190.41C176.81 191.563 177.254 192.71 177.698 193.856C177.927 194.445 178.473 194.925 179.233 195.184C179.994 195.443 180.903 195.463 181.779 195.233C182.655 195.003 183.437 194.541 183.973 193.942C184.508 193.343 184.749 192.657 184.66 192.032C184.478 190.772 184.297 189.513 184.087 188.261C183.832 186.735 183.534 185.221 183.143 183.731C182.87 182.689 182.576 181.653 182.265 180.62C182.233 180.514 182.201 180.408 182.169 180.302C182.155 179.369 182.122 178.444 182.031 177.81C181.955 177.287 181.743 176.946 181.561 176.655C181.436 176.454 181.326 176.277 181.284 176.078C181.261 175.972 181.237 175.825 181.208 175.648C181.088 174.924 180.884 173.696 180.387 172.656C180.166 172.195 179.834 171.679 179.517 171.187C179.064 170.483 178.641 169.826 178.618 169.445C178.578 168.775 178.279 168.073 178.016 167.452C177.764 166.861 177.544 166.343 177.609 165.999C177.688 165.587 177.535 165.294 177.308 164.858C177.151 164.555 176.958 164.184 176.782 163.657C176.578 163.049 176.341 162.642 176.139 162.297C175.856 161.811 175.642 161.446 175.691 160.805C175.744 160.093 175.708 159.373 175.497 158.854C175.4 158.618 175.335 158.336 175.266 158.042C175.176 157.654 175.081 157.245 174.903 156.896C174.757 156.608 174.521 156.4 174.312 156.216C174.246 156.159 174.184 156.104 174.128 156.05C174.066 155.806 174.006 155.562 173.947 155.318C173.964 155.271 173.983 155.222 174.003 155.17C174.104 154.912 174.226 154.595 174.236 154.24C174.251 153.678 174.035 153.245 173.808 152.788C173.631 152.432 173.446 152.062 173.358 151.606C173.297 151.294 173.276 150.927 173.254 150.564C173.222 150.024 173.19 149.491 173.033 149.155C172.975 149.03 172.838 148.944 172.703 148.86C172.702 148.86 172.701 148.859 172.7 148.859C172.691 148.853 172.682 148.847 172.673 148.842C172.529 147.963 172.394 147.082 172.264 146.2C172.272 146.118 172.279 146.036 172.287 145.954C172.321 145.557 172.355 145.17 172.475 144.893C172.604 144.592 172.553 143.935 172.499 143.242C172.463 142.788 172.427 142.319 172.439 141.925C172.446 141.695 172.283 141.521 172.115 141.342C171.958 141.176 171.797 141.004 171.766 140.779C171.751 140.666 171.766 140.536 171.781 140.397C171.795 140.275 171.81 140.145 171.805 140.015C171.801 139.894 171.675 139.655 171.513 139.349C171.413 139.16 171.3 138.945 171.193 138.716C171.095 138.063 170.994 137.41 170.889 136.759C170.951 136.601 171.046 136.454 171.183 136.32C171.281 136.225 171.404 136.133 171.53 136.039C171.702 135.911 171.879 135.779 172.008 135.626C172.109 135.507 172.131 135.392 172.062 135.337C172.03 135.311 171.978 135.299 171.931 135.287C171.878 135.274 171.831 135.262 171.824 135.234C171.821 135.216 171.842 135.19 171.87 135.16L170.038 130.728L166.715 131.182C166.712 131.177 166.709 131.173 166.706 131.168C166.664 131.102 166.609 131.017 166.525 131.014C166.213 131.002 165.858 131.03 165.511 131.057C165.125 131.087 164.747 131.116 164.446 131.09C164.109 131.062 163.629 131.189 163.148 131.315C162.812 131.403 162.476 131.491 162.188 131.527C161.905 131.563 161.611 131.492 161.326 131.424C160.984 131.342 160.656 131.262 160.376 131.374C160.32 131.396 160.249 131.534 160.161 131.706C160.099 131.828 160.027 131.967 159.945 132.096C159.589 132.096 159.234 132.102 158.878 132.112C158.865 132.093 158.852 132.074 158.839 132.055C158.839 132.055 158.839 132.054 158.839 132.054C158.547 131.616 158.147 131.017 157.585 131.374C157.442 131.465 157.352 131.633 157.271 131.784C157.192 131.932 157.12 132.065 157.016 132.093C156.898 132.124 156.759 132.033 156.606 131.934C156.393 131.795 156.154 131.64 155.915 131.784C155.898 131.794 155.881 131.805 155.863 131.816C155.689 131.919 155.432 132.071 155.176 132.377C154.418 132.459 153.659 132.555 152.901 132.659C151.636 132.833 150.372 133.032 149.108 133.231C148.492 133.328 147.903 133.745 147.468 134.413C147.033 135.081 146.788 135.941 146.788 136.829C146.788 137.718 147.033 138.577 147.468 139.245C147.903 139.913 148.492 140.33 149.108 140.427C150.11 140.585 151.114 140.743 152.117 140.888C152.169 140.906 152.222 140.924 152.275 140.941C152.666 141.066 153.029 141.316 153.392 141.566C153.475 141.624 153.559 141.681 153.643 141.737ZM144.113 164.755C143.57 167.268 143.203 172.083 142.804 174.722C142.797 174.771 142.79 174.819 142.783 174.867C142.695 175.493 142.589 176.084 142.457 176.772C142.124 178.398 141.74 180.625 140.581 185.174C140.15 186.472 139.69 187.748 139.195 189.016C133.959 202.735 124.133 214.337 111.078 221.499C110.912 221.583 110.743 221.668 110.571 221.753C107.201 223.451 102.929 225.087 100.169 226.155C97.8069 227.083 95.9797 227.723 94.3418 228.269C93.5578 228.53 92.8519 228.757 92.1961 228.963C80.6051 232.039 68.2388 232.658 56.7297 229.357C53.1353 228.337 49.6368 226.954 46.3026 225.236C43.2384 223.659 40.3027 221.798 37.5422 219.711C35.9827 218.434 34.5653 217.125 33.309 215.879C31.5296 214.115 30.0499 212.46 28.8228 211.102C25.849 207.839 22.6384 203.964 20.4434 200.913C20.0845 200.419 19.751 199.949 19.4426 199.504C17.8685 196.982 16.4074 194.351 15.0939 191.693C14.9707 191.533 14.8437 191.368 14.7164 191.202C13.1462 189.151 11.7342 186.291 9.9915 181.674C9.23688 179.649 8.43333 177.305 7.63056 174.489C7.54539 174.189 7.46536 173.918 7.38919 173.671L7.46382 174.085C7.27084 172.808 7.06103 171.988 6.88975 171.361C6.82912 171.132 6.7732 170.915 6.72589 170.694C6.56319 169.916 6.65143 169.136 6.76969 168.167C6.92502 166.925 7.13154 165.449 6.95829 163.498C6.44957 157.234 7.32268 154.496 7.90098 152.483C8.07843 151.891 8.24264 151.365 8.37417 150.813C8.79628 149.018 9.08788 146.448 9.28941 144.471C9.4347 142.906 10.3408 139.899 11.2322 137.704C11.5639 136.877 11.9221 135.718 12.3784 134.383C12.8529 132.994 13.4367 131.406 14.2111 129.766C16.1813 125.64 17.4545 123.6 18.4656 121.953C18.7566 121.488 19.0325 121.057 19.3137 120.631C20.2026 119.279 21.3297 117.633 22.5532 116.041C24.0174 114.125 25.6244 112.301 26.9384 111.009C30.05 107.39 33.6023 104.15 37.5339 101.416C39.5519 100.006 41.4217 98.5149 42.7175 97.1225C43.9985 95.7367 44.6167 94.5271 44.2494 93.6957C43.8878 92.8694 42.5444 92.4854 40.5295 92.7383C38.5081 92.995 35.9631 93.9256 33.5957 95.3919C28.8357 98.3275 24.4412 101.946 20.6283 106.079C15.9788 111.107 12.1766 116.894 9.27651 123.038C7.24575 127.336 5.6223 131.799 4.35573 136.336C4.22519 136.803 4.09789 137.275 3.97495 137.744C2.71543 141.503 1.74931 145.345 1.23694 148.084C0.810142 150.355 0.723458 152.03 0.664649 153.465C0.626997 154.438 0.602279 155.334 0.51756 156.204C0.472052 156.673 0.406233 157.312 0.336023 158.097C0.0380705 161.276 -0.237901 166.674 0.328947 171.663C0.435967 172.622 0.591189 173.738 0.77464 174.788L0.876491 175.352C1.28612 176.59 1.7827 177.948 2.27066 179.17C3.55691 182.423 4.97652 185.342 5.52836 186.859C6.51076 189.576 7.98666 192.461 9.42959 194.99C10.789 197.382 12.0837 199.406 12.6788 200.665C13.3733 202.14 14.2061 203.31 15.4621 204.95C16.3472 206.1 17.4358 207.48 18.9526 209.364C20.6928 211.515 22.0912 212.919 23.2895 214.082C24.9867 215.714 26.2966 216.898 28.0716 218.846C30.058 221.019 32.356 223.088 34.3575 224.468C35.273 225.102 36.2927 225.832 37.3906 226.567C38.8507 227.546 40.3994 228.497 41.9191 229.244C43.1558 229.851 44.2517 230.213 45.2275 230.516C45.5315 230.61 45.8269 230.7 46.1038 230.785C47.0849 231.249 48.0833 231.692 49.0989 232.113C49.2527 232.207 49.4159 232.307 49.5842 232.409C50.4221 232.918 51.4737 233.532 52.8716 234.106C55.0512 235.001 57.1306 235.47 59.2614 235.845C60.9509 236.142 62.69 236.385 64.6965 236.699C66.0894 236.916 67.6008 237.154 69.167 237.342C71.5076 237.623 73.735 237.763 75.3699 237.677C75.9554 237.645 76.4577 237.523 76.9551 237.397C76.9573 237.396 76.9595 237.396 76.9617 237.395C76.9955 237.386 77.0294 237.378 77.0631 237.369C80.9451 237.323 84.7961 236.99 88.5643 236.431C88.899 236.401 89.2384 236.368 89.576 236.334C91.2526 236.159 92.7506 235.963 93.8211 235.904C94.3315 235.878 95.1728 235.754 96.2222 235.549C97.5233 235.296 99.1009 234.927 100.681 234.509C102.543 234.021 104.563 233.409 106.121 232.936C107.021 232.665 107.89 232.197 108.717 231.725C109.497 231.281 110.28 230.817 111.18 230.436C111.626 230.248 112.157 230.051 112.699 229.846C113.179 229.663 113.683 229.467 114.196 229.238C114.683 229.02 115.642 228.462 116.94 227.643C117.729 227.144 118.607 226.567 119.507 225.957C122.032 224.481 124.45 222.861 126.772 221.071C127.309 220.766 127.788 220.537 128.226 220.384C128.536 220.278 128.827 220.217 129.125 220.152C129.531 220.063 129.951 219.968 130.448 219.741C130.836 219.564 131.225 219.276 131.424 219.018C131.516 218.898 131.568 218.786 131.615 218.684C131.668 218.567 131.716 218.463 131.811 218.375C131.878 218.312 131.974 218.268 132.091 218.213C132.277 218.126 132.519 218.011 132.796 217.743C133.831 216.742 134.905 215.58 135.953 214.357C137.107 213.012 138.157 211.672 139.018 210.589C139.977 209.39 141.158 207.533 142.22 205.629C142.961 204.308 143.667 202.939 144.262 201.792C144.847 200.667 145.528 199.513 146.15 198.393C146.897 197.051 147.58 195.713 147.961 194.515C148.038 194.272 148.031 193.93 148.02 193.498C148.012 193.193 148.002 192.842 148.015 192.456C148.591 190.978 149.113 189.489 149.589 187.979C149.624 187.932 149.66 187.883 149.696 187.834C149.697 187.833 149.697 187.833 149.698 187.832C150.506 186.739 151.614 185.167 151.873 182.65C151.939 182.01 151.867 181.578 151.802 181.194C151.737 180.816 151.677 180.48 151.748 180.026C151.828 179.508 152.042 178.931 152.27 178.286C152.59 177.383 152.932 176.366 152.958 175.302C152.96 175.229 152.962 175.151 152.964 175.07C152.984 174.296 153.002 173.143 152.838 171.996C153.178 168.677 153.329 165.368 153.312 162.048C153.281 156.526 152.792 151.051 151.862 145.617C151.415 143.009 150.53 140.503 149.487 138.841C148.432 137.121 147.338 136.369 146.48 136.589C145.616 136.81 145.039 137.967 144.763 139.855C144.478 141.695 144.502 144.138 144.73 146.579C145.113 150.605 145.234 154.656 145.117 158.685C145.1 158.897 145.082 159.109 145.066 159.321C144.941 160.901 144.654 162.333 144.336 163.773C144.263 164.1 144.188 164.427 144.113 164.755ZM185.019 200.107C185.227 200.524 185.585 200.344 185.788 200.251C185.792 200.249 185.795 200.248 185.799 200.246C185.847 200.224 185.892 200.219 185.945 200.213C186.07 200.201 186.24 200.182 186.61 199.931C186.713 199.948 186.815 199.96 186.919 199.969C188.027 200.061 189.133 199.918 190.325 199.882C190.337 199.888 190.35 199.895 190.363 199.902C190.613 200.036 190.905 200.211 191.164 200.154C191.495 200.082 191.746 200 191.96 199.929C192.928 200.028 193.909 200.294 194.742 200.818C195.002 200.98 195.249 201.17 195.471 201.38C195.677 201.576 195.869 201.788 196.044 202.013C196.089 202.197 196.112 202.389 196.129 202.564C196.152 202.809 196.167 203.026 196.227 203.166C196.369 203.502 196.731 203.726 197.001 203.911C197.045 203.94 197.086 203.969 197.124 203.996C197.211 204.227 197.293 204.47 197.363 204.706C197.402 204.702 197.442 204.696 197.482 204.691C197.993 204.621 198.13 204.863 198.318 205.229C198.4 205.39 198.495 205.579 198.637 205.79C198.727 205.923 198.931 205.917 199.099 205.914C199.148 205.913 199.194 205.913 199.233 205.916C199.367 205.926 199.283 206.044 199.182 206.181C199.052 206.359 198.893 206.569 199.15 206.638C199.974 206.869 199.647 207.287 199.389 207.568C199.314 207.653 199.246 207.728 199.215 207.791C199.116 207.993 199.342 208.145 199.608 208.237C199.82 208.312 199.74 208.624 199.589 208.886C199.532 208.985 199.561 209.085 199.594 209.204C199.629 209.328 199.669 209.474 199.62 209.649C199.497 210.093 199.436 210.327 199.387 210.515C199.373 210.568 199.361 210.618 199.347 210.666C199.303 210.82 199.279 211.004 199.253 211.191C199.222 211.414 199.188 211.646 199.115 211.824C199.306 212.208 199.519 212.62 199.72 213.019C199.824 213.226 200.256 213.381 200.941 213.457C201.627 213.532 202.507 213.522 203.406 213.41C204.304 213.299 205.159 213.089 205.799 212.813C206.438 212.538 206.804 212.218 206.835 211.938C206.895 211.379 206.938 210.786 206.942 210.221C206.943 209.51 206.883 208.822 206.702 208.137C206.578 207.666 206.42 207.195 206.235 206.737C206.216 206.69 206.196 206.643 206.177 206.596C206.265 206.141 206.314 205.664 206.28 205.361C206.252 205.108 206.078 204.985 205.927 204.876C205.823 204.802 205.731 204.737 205.704 204.645C205.69 204.596 205.677 204.526 205.661 204.442C205.596 204.101 205.468 203.511 205.04 203.117C204.851 202.943 204.56 202.783 204.278 202.631C203.876 202.415 203.502 202.235 203.483 202.05C203.447 201.717 203.172 201.466 202.928 201.257C202.697 201.059 202.486 200.883 202.531 200.679C202.585 200.432 202.439 200.346 202.223 200.227C202.074 200.145 201.887 200.04 201.705 199.856C201.493 199.642 201.266 199.556 201.073 199.485C200.798 199.382 200.596 199.314 200.576 198.967C200.554 198.583 200.439 198.234 200.208 198.094C200.103 198.031 200.016 197.927 199.924 197.821C199.804 197.681 199.67 197.531 199.484 197.467C199.33 197.413 199.121 197.457 198.938 197.5C198.881 197.513 198.826 197.525 198.776 197.535C198.694 197.456 198.612 197.377 198.529 197.297C198.534 197.263 198.54 197.227 198.546 197.189C198.577 196.999 198.611 196.765 198.552 196.585C198.46 196.302 198.222 196.235 197.973 196.173C197.779 196.124 197.579 196.078 197.423 195.926C197.316 195.823 197.221 195.666 197.123 195.512C196.979 195.283 196.827 195.058 196.646 195.021C196.578 195.007 196.472 195.071 196.368 195.135C196.367 195.136 196.367 195.136 196.366 195.136C196.359 195.141 196.352 195.145 196.345 195.149C196.038 194.858 195.724 194.569 195.4 194.284C195.381 194.242 195.362 194.2 195.342 194.159C195.247 193.956 195.15 193.76 195.128 193.542C195.105 193.306 194.869 193.06 194.609 192.809C194.439 192.644 194.258 192.477 194.124 192.302C194.046 192.199 193.905 192.265 193.763 192.336C193.63 192.401 193.495 192.47 193.4 192.405C193.353 192.372 193.313 192.307 193.269 192.238C193.23 192.177 193.189 192.112 193.139 192.064C193.092 192.019 192.948 192.034 192.766 192.056C192.653 192.07 192.525 192.087 192.395 192.093C192.109 191.929 191.817 191.774 191.521 191.63C191.482 191.517 191.457 191.376 191.453 191.204C191.449 191.08 191.456 190.935 191.462 190.786C191.471 190.583 191.478 190.374 191.459 190.201C191.443 190.066 191.401 190.003 191.352 190.046C191.329 190.066 191.306 190.109 191.284 190.147C191.26 190.191 191.238 190.23 191.224 190.225C191.213 190.222 191.21 190.186 191.206 190.142C191.199 190.073 191.19 189.983 191.148 189.971C190.991 189.923 190.804 189.911 190.621 189.901C190.417 189.89 190.219 189.882 190.069 189.829C189.9 189.77 189.635 189.854 189.373 189.943C189.19 190.005 189.009 190.068 188.859 190.086C188.711 190.102 188.575 190.015 188.439 189.931C188.277 189.83 188.118 189.735 187.966 189.833C187.936 189.853 187.888 189.987 187.83 190.155C187.788 190.273 187.741 190.409 187.69 190.534C187.515 190.52 187.342 190.513 187.169 190.514C187.164 190.495 187.159 190.475 187.154 190.455C187.154 190.455 187.154 190.455 187.154 190.454C187.04 190.009 186.863 189.399 186.566 189.746C186.492 189.835 186.442 190.001 186.397 190.151C186.354 190.298 186.315 190.43 186.264 190.456C186.207 190.487 186.142 190.394 186.07 190.294C185.969 190.153 185.852 189.997 185.735 190.141C185.727 190.151 185.718 190.162 185.709 190.173C185.624 190.275 185.499 190.428 185.38 190.736C185.015 190.821 184.667 190.929 184.316 191.052C183.728 191.257 183.173 191.505 182.624 191.769C182.36 191.898 182.149 192.348 182.058 193.035C181.965 193.724 181.999 194.589 182.135 195.467C182.272 196.345 182.498 197.178 182.747 197.818C182.997 198.456 183.248 198.843 183.463 198.917C183.816 199.034 184.162 199.16 184.493 199.284C184.511 199.301 184.529 199.318 184.548 199.334C184.682 199.45 184.812 199.694 184.935 199.939C184.963 199.995 184.991 200.052 185.019 200.107ZM172.636 192.722C171.668 192.724 170.243 193.785 169.547 194.419C169.533 194.43 169.52 194.442 169.507 194.453C169.336 194.604 169.168 194.735 168.974 194.89C168.52 195.264 167.865 195.772 166.868 197.135C166.518 197.469 166.183 197.818 165.862 198.181C162.386 202.154 160.692 207.205 160.806 212.406C160.801 212.473 160.796 212.541 160.791 212.609C160.773 212.858 160.759 213.144 160.755 213.416L160.758 213.211C160.68 214.369 160.754 215.555 160.972 216.328C161.314 217.534 161.669 218.302 161.973 218.914C163.186 222.558 165.228 225.89 167.959 228.549C168.812 229.382 169.732 230.149 170.693 230.837C171.579 231.473 172.514 232.046 173.469 232.547C174 232.913 174.494 233.25 174.985 233.554C175.653 233.973 176.295 234.318 176.829 234.52C178.141 235.02 179.715 235.166 180.847 235.197C181.033 235.203 181.209 235.207 181.372 235.21C181.494 235.233 181.616 235.254 181.739 235.275C182.528 235.41 183.297 235.512 184.101 235.58C184.163 235.546 184.225 235.51 184.288 235.472C185.07 235.002 186.016 235.003 187.512 234.826C188.171 234.745 188.924 234.625 189.794 234.385C190.353 234.228 190.596 233.962 190.782 233.749C190.837 233.686 190.888 233.627 190.941 233.575C191.122 233.399 191.393 233.445 191.713 233.492C192.125 233.553 192.642 233.611 193.115 233.185C194.583 231.825 195.433 231.782 196.177 231.734C196.389 231.719 196.582 231.702 196.756 231.647C197.324 231.469 197.894 230.853 198.224 230.299C198.488 229.866 199.316 229.379 199.994 229.018C200.251 228.883 200.516 228.619 200.819 228.294C201.131 227.96 201.479 227.564 201.908 227.183C202.989 226.21 203.497 225.614 203.909 225.14C204.026 225.004 204.132 224.875 204.238 224.747C204.574 224.341 204.949 223.804 205.304 223.24C205.729 222.569 206.125 221.859 206.45 221.318C206.933 219.78 207.241 218.186 207.369 216.562C207.436 215.723 207.108 214.862 206.466 214.264C205.825 213.652 204.944 213.369 204.04 213.371C203.133 213.374 202.263 213.632 201.573 214.012C200.883 214.389 200.43 214.857 200.268 215.389C199.945 216.46 199.494 217.507 198.971 218.505C198.333 219.721 197.591 220.866 196.803 221.957C196.251 222.722 195.653 223.447 195.009 224.124C194.942 224.193 194.875 224.264 194.808 224.332C194.082 224.705 193.359 225.006 192.885 225.246C192.494 225.445 192.293 225.709 192.107 225.938C191.981 226.094 191.865 226.231 191.711 226.304C191.628 226.343 191.509 226.391 191.37 226.443C190.79 226.668 189.817 226.967 188.962 227.44C188.583 227.653 188.146 227.958 187.696 228.231C187.062 228.621 186.403 228.937 186.055 228.891C185.443 228.815 184.756 228.947 184.138 229.032C183.537 229.115 183.01 229.156 182.721 228.978C182.619 228.915 182.521 228.874 182.419 228.849C182.174 228.788 181.92 228.818 181.593 228.849C181.279 228.88 180.86 228.909 180.343 228.843C179.736 228.765 179.294 228.781 178.91 228.787C178.367 228.793 177.957 228.784 177.484 228.389C176.967 227.953 176.442 227.56 175.954 227.397C175.734 227.324 175.503 227.193 175.268 227.05C174.961 226.863 174.642 226.652 174.31 226.529C174.037 226.429 173.737 226.429 173.473 226.425C173.39 226.424 173.311 226.422 173.237 226.416C173.051 226.27 172.868 226.117 172.694 225.961C172.683 225.915 172.674 225.866 172.664 225.814C172.612 225.554 172.557 225.237 172.408 224.954C172.168 224.501 171.815 224.264 171.441 223.985C171.152 223.768 170.854 223.528 170.629 223.161C170.476 222.912 170.35 222.596 170.239 222.281C170.072 221.813 169.937 221.349 169.728 221.082C169.649 220.983 169.503 220.936 169.357 220.887C169.357 220.887 169.356 220.887 169.355 220.887C169.345 220.883 169.335 220.88 169.325 220.876C169.044 220.097 168.831 219.291 168.684 218.479C168.691 218.403 168.697 218.328 168.704 218.252C168.734 217.878 168.78 217.527 168.912 217.275C169.055 217.007 169.044 216.417 169.084 215.817C169.107 215.418 169.151 215.019 169.242 214.702C169.294 214.512 169.173 214.359 169.051 214.181C168.938 214.02 168.824 213.854 168.856 213.674C168.865 213.621 168.887 213.568 168.914 213.514L168.916 213.331C168.933 213.295 168.953 213.258 168.974 213.219C169.018 213.137 169.067 213.042 169.099 212.948C169.129 212.864 169.075 212.653 169.02 212.379C168.987 212.203 168.952 212.009 168.936 211.792C169.08 211.255 169.256 210.716 169.459 210.187C169.584 210.099 169.736 210.036 169.917 210.004C170.047 209.982 170.198 209.975 170.351 209.969C170.559 209.963 170.775 209.959 170.957 209.921C171.1 209.892 171.173 209.83 171.139 209.761C171.124 209.729 171.086 209.696 171.052 209.665C171.012 209.63 170.977 209.599 170.986 209.578C170.992 209.563 171.029 209.558 171.075 209.552C171.148 209.542 171.243 209.53 171.267 209.47C171.358 209.244 171.428 208.982 171.508 208.721C171.594 208.436 171.693 208.153 171.817 207.958C171.957 207.735 172.014 207.352 172.096 206.964C172.152 206.695 172.22 206.422 172.315 206.215C172.41 206.008 172.601 205.86 172.788 205.723C173.015 205.555 173.23 205.414 173.284 205.176C173.295 205.127 173.225 204.997 173.139 204.832C173.079 204.716 173.011 204.581 172.959 204.446C173.151 204.228 173.345 204.014 173.544 203.801C173.564 203.807 173.585 203.814 173.606 203.82C173.607 203.82 173.607 203.82 173.608 203.82C174.091 203.959 174.705 204.199 174.799 203.65C174.824 203.51 174.771 203.336 174.726 203.178C174.681 203.023 174.644 202.882 174.694 202.807C174.752 202.721 174.896 202.724 175.054 202.729C175.275 202.737 175.522 202.75 175.596 202.523C175.601 202.508 175.606 202.491 175.612 202.474C175.669 202.31 175.757 202.068 175.78 201.693C176.274 201.285 176.808 200.887 177.367 200.513C178.301 199.888 179.326 199.318 180.432 198.832C180.955 198.597 181.431 198.073 181.731 197.34C182.037 196.605 182.174 195.717 182.038 194.838C181.903 193.96 181.494 193.151 180.863 192.586C180.246 192.02 179.416 191.764 178.657 191.858C177.385 192.019 176.123 192.263 174.849 192.634C174.779 192.643 174.71 192.652 174.64 192.664C174.11 192.754 173.577 192.724 173.021 192.72C172.893 192.719 172.764 192.72 172.636 192.722ZM212.11 218.597C212.889 219.023 214.393 218.849 215.22 218.754C215.235 218.752 215.25 218.751 215.265 218.749C215.461 218.726 215.647 218.72 215.864 218.714C216.383 218.699 217.084 218.678 218.546 218.407C218.972 218.417 219.398 218.422 219.823 218.422C224.419 218.422 229.014 218.068 233.609 217.644C233.667 217.646 233.727 217.648 233.786 217.651C234.939 217.695 236.368 217.749 237.266 217.594C237.973 217.471 238.54 217.354 239.02 217.245L242.42 217.625L242.894 213.371C242.827 213.076 242.764 212.813 242.703 212.571C242.362 208.921 242.057 205.271 241.931 201.621C241.892 200.477 241.87 199.333 241.87 198.189C241.87 197.177 241.883 196.164 241.906 195.152L242.189 192.62L239.02 192.266C238.979 192.265 238.937 192.264 238.896 192.263C238.282 192.171 237.699 192.061 237.158 191.958C236.398 191.815 235.721 191.688 235.162 191.646C233.816 191.546 232.288 191.704 231.154 191.822C230.968 191.841 230.793 191.859 230.631 191.875C229.73 191.816 228.829 191.754 227.928 191.691C227.868 191.726 227.808 191.763 227.746 191.801C226.977 192.273 226.032 192.267 224.544 192.258C223.896 192.254 223.145 192.25 222.261 192.284C221.691 192.306 221.399 192.493 221.16 192.646C221.089 192.691 221.023 192.733 220.957 192.767C220.728 192.883 220.486 192.757 220.201 192.609C219.832 192.417 219.388 192.185 218.802 192.394C216.935 193.06 216.112 192.608 215.49 192.267C215.308 192.166 215.142 192.076 214.973 192.026C214.423 191.863 213.641 192.024 213.049 192.246C212.58 192.422 211.642 192.247 210.93 192.026C210.661 191.942 210.297 191.94 209.869 191.938C209.425 191.936 208.912 191.934 208.363 191.84C206.976 191.602 206.238 191.487 205.646 191.395C205.477 191.368 205.319 191.344 205.162 191.319C204.665 191.24 204.049 191.175 203.424 191.11C202.677 191.031 201.919 190.952 201.342 190.845C199.847 190.958 198.352 191.097 196.857 191.236C196.089 191.308 195.352 191.714 194.809 192.384C194.266 193.054 193.961 193.928 193.961 194.834C193.961 195.74 194.266 196.614 194.809 197.284C195.352 197.954 196.089 198.361 196.857 198.433C198.404 198.577 199.951 198.72 201.498 198.835C203.383 198.974 205.268 199.071 207.153 199.071C208.471 199.071 209.79 199.049 211.108 199.01C211.244 199.006 211.38 199.002 211.516 198.997C212.623 199.22 213.729 199.423 214.508 199.496C215.151 199.555 215.62 199.436 216.021 199.334C216.298 199.264 216.542 199.202 216.79 199.212C216.923 199.218 217.104 199.231 217.323 199.248C218.217 199.315 219.734 199.43 221.119 199.212C221.733 199.116 222.447 198.925 223.129 198.744C224.103 198.484 225.011 198.242 225.47 198.316C226.276 198.447 227.199 198.336 228.016 198.238C228.794 198.145 229.475 198.063 229.862 198.214C230.325 198.394 230.72 198.321 231.306 198.212C231.713 198.136 232.213 198.044 232.891 198.007C233.675 197.964 234.229 197.838 234.7 197.731C235.364 197.579 235.863 197.466 236.606 197.675C237.432 197.907 238.296 198.055 238.976 197.982C238.99 197.98 239.005 197.979 239.02 197.977L236.195 195.152C236.223 195.451 236.216 195.789 236.208 196.141C236.196 196.629 236.185 197.142 236.268 197.611C236.337 197.997 236.513 198.316 236.668 198.598C236.717 198.687 236.763 198.771 236.804 198.853C236.802 199.161 236.798 199.468 236.793 199.776C236.765 199.826 236.733 199.878 236.701 199.933C236.539 200.207 236.34 200.544 236.24 200.961C236.083 201.622 236.182 202.202 236.286 202.813C236.367 203.29 236.452 203.785 236.422 204.353C236.401 204.74 236.329 205.181 236.258 205.618C236.152 206.268 236.048 206.909 236.114 207.354C236.139 207.521 236.249 207.665 236.359 207.807C236.36 207.807 236.361 207.808 236.361 207.808C236.369 207.818 236.376 207.828 236.383 207.837C236.299 208.922 236.207 210.007 236.109 211.092C236.08 211.186 236.052 211.281 236.025 211.375C235.89 211.835 235.759 212.282 235.574 212.574C235.471 212.734 235.391 213.019 235.32 213.371L239.02 209.671C238.681 209.603 238.281 209.544 237.871 209.483C237.323 209.402 236.756 209.319 236.294 209.207C236.023 209.142 235.767 209.256 235.503 209.373C235.257 209.482 235.004 209.595 234.727 209.567C234.589 209.553 234.439 209.506 234.28 209.455C234.139 209.411 233.991 209.364 233.835 209.335C233.691 209.309 233.369 209.371 232.957 209.449C232.702 209.498 232.412 209.553 232.108 209.598C231.304 209.528 230.5 209.46 229.697 209.396C229.529 209.297 229.384 209.167 229.268 209.001C229.186 208.882 229.115 208.739 229.043 208.593C228.945 208.395 228.843 208.19 228.703 208.027C228.593 207.899 228.464 207.848 228.377 207.901C228.337 207.926 228.306 207.973 228.278 208.015C228.245 208.063 228.216 208.106 228.181 208.105C228.156 208.104 228.13 208.069 228.097 208.028C228.045 207.962 227.978 207.877 227.875 207.874C227.493 207.862 227.059 207.89 226.634 207.917C226.161 207.947 225.699 207.976 225.331 207.95C224.919 207.922 224.331 208.049 223.743 208.175C223.332 208.263 222.921 208.351 222.568 208.387C222.222 208.423 221.862 208.352 221.513 208.284C221.095 208.202 220.692 208.122 220.35 208.234C220.281 208.256 220.195 208.394 220.087 208.566C220.011 208.688 219.923 208.827 219.823 208.956C219.388 208.956 218.952 208.962 218.517 208.972C218.501 208.953 218.486 208.934 218.47 208.915C218.469 208.915 218.469 208.914 218.469 208.914C218.111 208.476 217.622 207.877 216.934 208.234C216.76 208.325 216.649 208.493 216.55 208.644C216.453 208.792 216.366 208.925 216.239 208.953C216.094 208.984 215.923 208.893 215.737 208.794C215.476 208.655 215.184 208.5 214.891 208.644C214.871 208.654 214.849 208.665 214.827 208.676C214.614 208.779 214.3 208.931 213.987 209.237C213.059 209.319 212.13 209.415 211.202 209.519C209.655 209.693 208.107 209.892 206.56 210.091C205.807 210.188 205.085 210.605 204.553 211.273C204.02 211.941 203.721 212.801 203.721 213.689C203.721 214.578 204.021 215.437 204.553 216.105C205.085 216.773 205.807 217.19 206.56 217.287C207.787 217.445 209.015 217.603 210.243 217.748C210.307 217.766 210.372 217.784 210.436 217.801C210.914 217.925 211.359 218.176 211.803 218.426C211.905 218.484 212.007 218.541 212.11 218.597ZM28.8571 120.841C26.4955 123.003 23.1979 128.252 21.7611 131.328C21.7335 131.384 21.706 131.44 21.6786 131.495C21.3268 132.216 20.9847 132.909 20.6096 133.713C19.7478 135.65 18.4368 138.269 17.0945 144.14C16.6354 145.82 16.2509 147.545 15.9552 149.25C14.6334 156.816 14.908 164.541 16.4241 171.937C18.5783 182.582 22.9635 193 29.8686 201.596C30.0104 201.786 30.1557 201.977 30.3031 202.17C33.0941 205.891 37.24 209.993 40.19 212.101C43.9169 214.815 46.6997 216.257 48.9894 217.366C61.8631 223.918 76.7745 227.05 91.2682 222.434C91.312 222.418 91.3559 222.401 91.3999 222.385C95.5402 220.846 99.6322 219.007 103.518 216.848C107.11 214.855 110.571 212.562 113.787 209.969C115.72 208.511 117.483 207.038 119.058 205.584C121.267 203.548 123.106 201.54 124.474 199.798C127.834 195.588 130.613 190.102 132.167 185.897C132.425 185.214 132.66 184.558 132.872 183.945C134.161 180.652 135.195 177.211 135.973 173.763C135.986 173.522 135.999 173.274 136.008 173.029C136.106 170.019 136.729 166.354 137.015 160.59C137.131 158.118 137.172 155.217 136.993 151.769C136.877 149.615 136.598 148.492 136.374 147.576C136.308 147.307 136.244 147.048 136.189 146.798C135.999 145.954 136.038 145.037 136.066 143.931C136.082 143.293 136.094 142.592 136.054 141.807C136 140.8 135.855 139.685 135.512 138.464C133.457 131.415 132.337 128.323 131.623 125.907C131.392 125.199 131.168 124.565 130.889 123.945C129.984 121.892 128.077 119.3 126.385 117.61C125.072 116.226 122.608 113.382 120.478 111.414C119.69 110.665 118.513 109.761 117.076 108.806C115.585 107.812 113.81 106.763 111.879 105.699C106.976 103.052 104.137 102.179 101.908 101.418C101.267 101.21 100.668 101.027 100.068 100.85C98.1732 100.289 95.7881 99.7235 93.3588 99.2837C90.4515 98.75 87.4825 98.3969 85.2204 98.1609C79.3343 97.9323 73.4969 98.2716 67.7057 99.0709C64.727 99.4824 61.9787 100.348 60.0195 101.418C58.0911 102.481 57.1623 103.616 57.3814 104.492C57.5824 105.378 58.8911 105.951 60.963 106.226C63.0705 106.493 65.7353 106.466 68.5247 106.221C74.1418 105.725 79.7702 105.698 85.3128 106.172C92.0656 106.755 98.7062 108.09 104.824 110.478C109.098 112.147 113.095 114.373 116.541 117.221C116.896 117.514 117.246 117.813 117.591 118.12C120.237 120.799 122.293 123.893 123.55 126.156C124.603 128.03 125.376 129.421 125.996 130.61C126.421 131.431 126.789 132.224 127.052 133.007C127.194 133.431 127.377 134.018 127.579 134.747C128.123 136.688 128.727 139.499 129.145 142.681C129.382 144.465 129.601 146.215 129.817 147.948C130.097 150.192 130.417 152.733 130.623 155.2C130.928 158.724 130.965 162.038 130.745 163.668C130.371 166.566 130.013 169.863 129.496 172.747C129.014 175.495 128.397 177.872 127.827 179.144C127.143 180.67 126.747 182.01 126.045 183.978C125.549 185.345 124.911 187.004 123.784 189.161C122.482 191.633 121.479 193.358 120.603 194.787C119.334 196.817 118.306 198.296 116.349 200.138C114.176 202.174 111.807 204.131 109.95 205.718C109.104 206.445 108.101 207.204 107.007 207.972C105.581 208.975 104.024 209.971 102.608 210.91C101.452 211.678 100.528 212.387 99.6847 213.009C99.4222 213.202 99.1704 213.385 98.9252 213.556C97.931 214.062 96.9239 214.546 95.8903 215.012C95.7121 215.062 95.5249 215.113 95.3306 215.164C94.3655 215.418 93.1632 215.72 91.6988 216.19C90.8857 216.449 90.0527 216.736 89.3106 217.002C88.1234 217.427 86.8829 217.818 85.5894 218.135C83.9671 218.527 82.2844 218.815 80.2505 218.873C78.8973 218.911 77.3256 218.834 75.7672 218.674C73.4771 218.445 71.2183 218.028 69.6553 217.816C69.0611 217.736 68.5373 217.746 68.0213 217.752C68.0189 217.752 68.0166 217.752 68.0143 217.752C67.9791 217.753 67.9438 217.753 67.9086 217.753C64.1217 216.875 60.428 215.591 56.921 213.947C56.6243 213.786 56.3219 213.62 56.0328 213.456C54.6053 212.654 53.256 211.796 52.4497 211.132C51.5614 210.412 49.2221 208.912 46.9366 207.061C45.4472 205.864 43.9833 204.533 42.8667 203.358C42.2203 202.678 41.506 202.147 40.7711 201.568C40.0871 201.028 39.4085 200.471 38.7813 199.723C38.4672 199.348 38.1602 198.921 37.8446 198.464C37.5655 198.061 37.2749 197.63 36.9601 197.183C36.6624 196.761 35.9359 195.931 35.0397 194.786C34.4796 194.069 33.8841 193.273 33.2786 192.384C31.8447 189.938 30.6084 187.414 29.5294 184.77C29.3889 184.196 29.3132 183.675 29.3156 183.238C29.3173 182.925 29.3586 182.643 29.402 182.353C29.4618 181.961 29.5225 181.547 29.5088 181.038C29.4992 180.644 29.3988 180.212 29.2505 179.947C29.1814 179.824 29.1024 179.738 29.0309 179.659C28.9491 179.569 28.8762 179.489 28.8383 179.372C28.811 179.289 28.8142 179.191 28.8178 179.07C28.8236 178.878 28.8311 178.629 28.7246 178.285C28.3274 177.005 27.8974 175.608 27.5026 174.144C27.1101 172.695 26.7728 171.25 26.5524 170.006C26.5336 169.901 26.5159 169.797 26.4992 169.696C26.263 168.277 25.834 166.311 25.5324 164.315C25.3186 162.916 25.1648 161.517 25.1126 160.303C25.0605 159.105 25.1552 157.895 25.2911 156.698C25.4517 155.288 25.6726 153.922 25.7184 152.768C25.7272 152.536 25.6323 152.224 25.5189 151.831C25.4386 151.553 25.3492 151.232 25.2815 150.87C25.5357 149.405 25.8567 147.924 26.2365 146.474C26.2683 146.427 26.3009 146.379 26.3341 146.332C26.3347 146.331 26.3354 146.33 26.3361 146.33C27.0879 145.25 28.1175 143.86 28.6286 141.557C28.761 140.969 28.7495 140.56 28.7413 140.189C28.7328 139.827 28.7316 139.493 28.8852 139.078C29.0604 138.607 29.3906 138.108 29.7586 137.577C30.2816 136.817 30.8748 136.008 31.2407 135.052C31.2657 134.987 31.2925 134.916 31.321 134.843C31.5912 134.149 32.0043 133.141 32.3342 132.048C34.0008 129.26 35.9069 126.591 38.013 124.066C41.5257 119.857 45.5836 116.039 50.0472 112.75C52.2153 111.149 54.2255 109.495 55.6192 108.019C57.0117 106.542 57.6959 105.323 57.3252 104.511C56.9826 103.696 55.5583 103.359 53.3857 103.734C51.2227 104.104 48.512 105.199 45.9924 106.805C41.8911 109.414 38.0327 112.419 34.48 115.807C34.286 115.977 34.0957 116.146 33.9055 116.319C32.4876 117.606 31.1139 118.768 29.7756 119.987C29.4685 120.266 29.1619 120.551 28.8571 120.841ZM58.826 145.73C57.7063 146.567 56.6598 148.934 56.2845 150.244C56.2768 150.268 56.2692 150.292 56.2616 150.316C56.1654 150.626 56.0649 150.916 55.9544 151.256C55.7057 152.064 55.3239 153.184 55.1972 155.54C55.078 156.207 54.9891 156.88 54.9307 157.553C54.6689 160.578 54.9755 163.597 55.7359 166.453C56.8207 170.543 58.9212 174.292 61.7503 177.332C61.8057 177.403 61.8625 177.474 61.9201 177.546C63.0202 178.947 64.6359 180.519 65.8553 181.242C67.3941 182.171 68.5391 182.614 69.4809 182.939C74.0754 185.066 79.4766 185.476 84.2196 184.073C84.7979 183.908 85.3708 183.711 85.9191 183.494C87.5672 182.839 89.0726 181.974 90.4525 180.996C91.7236 180.094 92.891 179.086 93.9668 178.012C94.6481 177.442 95.2867 176.88 95.8594 176.337C96.6636 175.575 97.3397 174.849 97.8259 174.197C99.006 172.631 99.9118 170.588 100.451 169.042C100.54 168.789 100.622 168.549 100.696 168.328C101.242 167.147 101.722 165.93 102.125 164.666C102.113 164.572 102.1 164.477 102.086 164.381C101.898 163.171 102.223 161.864 102.399 159.669C102.468 158.721 102.498 157.588 102.343 156.258C102.237 155.392 101.97 154.984 101.756 154.654C101.693 154.557 101.632 154.468 101.579 154.376C101.396 154.064 101.438 153.686 101.464 153.224C101.499 152.633 101.503 151.87 100.939 151.097C100.742 150.828 100.557 150.581 100.385 150.35C99.1006 148.718 98.8836 147.707 98.6908 146.865C98.627 146.591 98.5664 146.345 98.4623 146.113C98.1342 145.366 97.2813 144.546 96.5333 144.05C95.9459 143.648 95.1086 142.547 94.4107 141.685C94.1487 141.357 93.7155 141.007 93.1764 140.622C92.6201 140.226 91.9535 139.795 91.2447 139.304C89.4365 138.075 88.3118 137.639 87.4409 137.283C87.1864 137.184 86.955 137.099 86.717 137.016C85.9632 136.751 85.0174 136.51 84.0406 136.338C82.8837 136.131 81.6951 136.027 80.8054 135.945C78.4881 136.12 76.3133 136.615 74.2435 137.27C73.1923 137.603 72.2922 138.3 71.7868 139.17C71.2884 140.038 71.1931 141.004 71.4973 141.856C71.8005 142.71 72.4726 143.395 73.3043 143.829C74.1469 144.258 75.0974 144.397 75.9741 144.255C77.7678 143.959 79.5123 143.842 81.1803 143.929C83.2058 144.034 85.058 144.447 86.741 145.155C87.9212 145.65 89.0271 146.317 90.0663 147.159C90.173 147.245 90.2795 147.333 90.3855 147.424C91.0756 148.35 91.6573 149.356 92.093 150.058C92.4514 150.636 92.8279 150.988 93.1518 151.305C93.3721 151.52 93.5693 151.724 93.6999 151.965C93.7702 152.094 93.86 152.276 93.9664 152.499C94.0905 152.761 94.2325 153.071 94.3948 153.427C94.6814 154.076 94.9716 154.931 95.293 155.814C95.4962 156.362 95.7631 157.034 95.9627 157.738C96.253 158.733 96.3958 159.77 96.2563 160.262C96.0171 161.126 95.9223 162.155 95.7718 163.078C95.6309 163.959 95.4466 164.734 95.1507 165.099C94.7959 165.536 94.7005 165.977 94.5244 166.643C94.4019 167.102 94.2393 167.67 93.9003 168.387C93.5072 169.214 93.2759 169.831 93.0679 170.358C92.7732 171.094 92.5235 171.655 91.8249 172.224C91.0494 172.853 90.2855 173.495 89.7949 174.1C89.5695 174.379 89.2781 174.653 88.9611 174.931C88.5453 175.297 88.0947 175.66 87.7312 176.043C87.4283 176.362 87.2393 176.709 87.0601 177.017C87.0036 177.113 86.9483 177.205 86.8918 177.29C86.5954 177.478 86.2967 177.653 85.9897 177.817C85.9268 177.82 85.8603 177.82 85.7913 177.821C85.4462 177.822 85.0261 177.812 84.5829 177.898C83.8954 178.03 83.3811 178.3 82.8119 178.552C82.7971 178.558 82.7824 178.564 82.7676 178.57C82.2815 178.776 81.761 178.968 81.1422 179.019C80.7165 179.055 80.2329 179.025 79.7591 178.969C79.0547 178.888 78.3833 178.745 77.9057 178.762C77.7256 178.768 77.5601 178.859 77.3921 178.947C77.3914 178.947 77.3906 178.948 77.3898 178.948C77.3784 178.954 77.367 178.96 77.3556 178.966C76.1969 178.719 75.0771 178.318 74.0235 177.788C73.9396 177.724 73.8555 177.659 73.7728 177.594C73.3684 177.276 72.9977 176.945 72.8132 176.636C72.612 176.304 71.9471 175.798 71.311 175.191C70.893 174.796 70.4857 174.362 70.1994 173.963C70.033 173.731 69.7626 173.637 69.4815 173.529C69.2206 173.43 68.9501 173.317 68.7682 173.084C68.6775 172.968 68.6044 172.819 68.5293 172.66C68.4632 172.519 68.3955 172.37 68.3119 172.227C68.2342 172.094 67.9686 171.874 67.6407 171.574C67.4377 171.388 67.2106 171.171 66.9886 170.927C66.5588 170.176 66.1805 169.398 65.8553 168.605C65.8648 168.4 65.9151 168.205 66.0148 168.026C66.0863 167.898 66.1855 167.772 66.2879 167.645C66.4272 167.472 66.573 167.295 66.6683 167.104C66.7429 166.954 66.7418 166.819 66.6607 166.76C66.6228 166.733 66.5682 166.722 66.5188 166.712C66.4621 166.7 66.4116 166.69 66.4 166.657C66.3916 166.633 66.4139 166.596 66.4408 166.551C66.4838 166.479 66.5395 166.387 66.5072 166.292C66.387 165.94 66.225 165.546 66.0815 165.155C65.9532 164.806 65.8403 164.46 65.7741 164.151C65.7568 164.07 65.7425 163.993 65.7317 163.918C65.6706 163.505 65.4369 162.948 65.2341 162.368C65.0922 161.967 64.9646 161.555 64.9047 161.198C64.8455 160.846 64.9013 160.475 64.9666 160.123C65.0447 159.699 65.1357 159.304 65.0438 158.956C65.0252 158.886 64.8929 158.792 64.729 158.671C64.6128 158.585 64.4806 158.485 64.3615 158.37C64.4005 157.92 64.4507 157.473 64.5132 157.031C64.5342 157.019 64.5556 157.006 64.5774 156.993C64.5779 156.993 64.5784 156.992 64.5789 156.992C65.0738 156.696 65.7426 156.369 65.5659 155.644C65.522 155.457 65.3904 155.309 65.2731 155.172C65.158 155.038 65.0566 154.915 65.0686 154.785C65.0824 154.636 65.2228 154.501 65.3775 154.361C65.5953 154.161 65.8392 153.958 65.8154 153.64C65.8138 153.618 65.8119 153.595 65.8104 153.57C65.7961 153.34 65.7811 153 65.6455 152.583C65.9842 151.713 66.394 150.872 66.8831 150.075C67.6974 148.747 68.7366 147.538 70.0097 146.526C70.6234 146.034 71.1152 145.33 71.4184 144.478C71.7137 143.628 71.7929 142.695 71.4973 141.856C71.2025 141.02 70.5276 140.336 69.536 140.027C68.5473 139.719 67.323 139.844 66.2497 140.389C64.4984 141.276 62.8484 142.433 61.3979 143.821C61.3139 143.886 61.2304 143.953 61.1486 144.021C60.5402 144.525 59.8939 144.944 59.2594 145.404C59.1138 145.51 58.9689 145.618 58.826 145.73Z" fill="black"/>
</svg>
