<svg width="179" height="191" viewBox="0 0 179 191" fill="none" xmlns="http://www.w3.org/2000/svg">
<path d="M113.415 73.9739C116.666 73.9471 118.152 73.9678 121.954 75.6558C125.661 77.4443 127.671 77.9307 129.622 79.4574C131.224 81.2253 132.214 80.6703 138.701 90.8751C139.003 91.3659 139.293 91.8408 139.574 92.2926C145.31 101.415 148.647 106.552 150.898 110.203C153.252 114.062 157.892 122.232 160.84 129.217C161.401 130.688 162.16 132.362 162.262 134.865C162.703 143.762 154.825 152.679 151.173 155.769C146.476 159.87 146.082 159.393 141.697 161.685C137.25 163.798 134.167 166.578 128.128 168.062C125.199 168.718 123.387 168.77 121.504 168.69C121.287 168.759 121.022 168.814 120.639 168.825C119.928 168.869 119.107 168.302 118.875 167.934C118.341 167.181 118.247 166.723 118.01 166.186C117.59 165.149 117.082 164.037 116.171 162.704C112.927 157.976 108.239 154.153 105.465 152.351L104.804 151.912L104.938 151.081C105.002 150.651 105.068 150.274 105.13 149.928C105.93 146.695 106.716 146.497 109.632 143.138C112.819 139.957 115.244 138.806 118.551 137.04C119.605 136.492 121.321 135.556 123.26 134.408C124.336 133.3 124.393 131.134 124.834 129.244C122.457 127.465 120.053 125.777 118.896 124.483C115.744 121.318 114.641 116.368 113.918 113.62C113.696 112.766 113.555 112.063 113.466 111.527C113.428 111.297 113.45 111.178 113.498 111.165C113.559 111.149 113.663 111.295 113.749 111.578C114.17 112.937 114.856 114.946 115.995 117.181C118.311 121.119 117.746 122.242 122.543 126.102C123.699 126.929 124.845 127.611 125.908 128.378L126.331 128.726L126.214 129.229C125.734 131.226 126.273 133.28 124.441 135.615L124.209 135.809C122.397 137.012 120.369 138.213 117.867 139.627C112.475 143.077 110.092 144.38 107.833 150.803C108.16 151.063 108.493 151.336 108.854 151.64C112.688 154.923 114.792 156.957 116.77 159.022C117.741 160.058 118.684 161.151 119.599 162.532C120.056 163.218 120.509 164.012 120.93 164.823C120.987 164.932 121.049 165.047 121.109 165.16L121.21 165.135C121.696 165.106 122.275 165.05 122.846 164.975C132.62 163.657 144.516 157.386 148.961 153.247C153.335 149.419 158.908 142.962 159.035 134.866C159.04 134.696 159.031 134.483 159.012 134.275C157.435 126.309 150.583 116.814 145.911 108.275C143.402 103.84 140.289 98.4713 137.555 93.4724C135.112 88.6948 132.48 84.7554 130.231 82.6421C125.576 78.4281 123.925 77.7165 118.061 76.0718C114.648 75.2175 109.789 74.5495 105.665 74.1848C103.56 74.0056 104.051 73.7746 106.159 73.7065C109.257 73.6248 111.791 74.0128 113.415 73.9739ZM121.407 165.687C121.435 165.729 121.458 165.761 121.476 165.779C121.489 165.791 121.487 165.767 121.407 165.687Z" fill="black"/>
<path d="M71.3201 33.9593C71.3784 33.9425 71.4226 33.9417 71.4581 33.9488C71.5118 33.934 71.5356 33.9808 71.5707 34.0171L71.6011 34.0518C71.6272 34.0877 71.6394 34.1253 71.6213 34.1493C71.526 34.2847 71.3943 34.538 71.3337 34.8982C71.2086 35.582 70.8409 35.281 70.4385 35.9444C70.0361 36.61 70.0093 37.2291 69.1795 37.6244C68.3497 38.0234 69.0219 39.0095 67.6799 39.39C66.3364 39.7826 67.1142 40.7486 66.4129 41.7256C65.7177 42.6936 64.2382 43.3862 63.933 43.9457C63.8413 44.1053 63.7572 44.2784 63.6958 44.4305C63.727 44.5119 63.759 44.5968 63.7933 44.6864C64.062 45.3828 65.1281 45.6849 65.8928 46.3595C66.661 47.0726 68.0853 47.8647 68.7631 48.2552C69.4349 48.6511 69.6223 48.7399 70.3514 48.7C70.7766 48.6756 71.3171 48.8241 71.785 49.1773C72.0057 49.3524 71.9621 49.574 71.6862 49.6604C71.3077 49.7866 71.0148 49.6479 70.7862 49.9005C70.3332 50.4043 70.1302 50.5926 69.6895 50.1936C69.2564 49.7936 68.8965 50.4705 68.6209 50.3276C68.3476 50.1737 68.4562 49.797 66.933 49.714C65.3929 49.599 64.5409 49.2684 63.9558 49.0478C63.3551 48.823 62.4351 47.8009 61.6151 47.0255C61.234 46.6822 60.7617 46.03 60.469 45.2662C60.1889 44.4212 60.3956 43.9668 60.4619 43.6746C60.5659 43.3429 60.6566 43.1492 60.7571 42.9337C60.9368 42.5545 61.0888 42.2693 61.1755 42.0357C61.472 41.2383 61.871 41.535 62.458 41.2401C63.0469 40.9547 62.4581 39.8071 63.0817 39.3771C63.7043 38.9542 64.2361 39.318 64.703 38.6304C65.1721 37.9434 66.0577 37.6812 66.1322 37.2429C66.2104 36.8013 66.7849 37.3447 67.0333 36.8619C67.2791 36.3823 67.5744 36.2442 68.0783 36.1223C68.5794 36.0008 69.7268 35.2366 69.8815 34.6714C70.043 34.0977 70.8198 34.1359 71.1712 33.9975C71.2282 33.9738 71.2754 33.964 71.3201 33.9593ZM63.6505 44.5529C63.6259 44.6248 63.6124 44.6813 63.6177 44.6878C63.6125 44.6877 63.646 44.6635 63.6505 44.5529Z" fill="black"/>
<path d="M70.4159 69.1476C71.0387 69.7261 71.6817 70.2677 72.2848 70.8359C73.7716 72.3112 76.5458 73.8736 77.8432 74.6356C78.9198 75.28 79.3235 75.5101 80.2362 75.8012C80.4361 75.8822 80.5175 76.0187 80.5663 76.0974C80.6195 76.191 80.6448 76.2611 80.6693 76.3318C80.6842 76.3772 80.695 76.421 80.7065 76.4633C80.8209 76.3527 80.943 76.2406 81.0764 76.1306C81.8527 75.4682 83.0358 75.105 83.9868 75.1078L84.192 75.1211C85.8232 75.2791 87.5474 75.2028 89.1885 75.1848C92.1481 75.2286 96.3382 74.2062 98.2099 73.4892C100.081 72.8097 100.56 72.5851 102.026 71.3725C102.03 71.3657 102.033 71.3586 102.037 71.3513C102.069 71.3055 102.103 71.2502 102.207 71.1826C102.307 71.1164 102.467 71.0861 102.59 71.1148C102.698 71.1389 102.752 71.175 102.802 71.2098C102.837 71.2361 102.859 71.2574 102.88 71.2789C103.002 71.4219 102.998 71.4507 103.031 71.5087C103.078 71.6071 103.105 71.6807 103.135 71.765C103.19 71.9208 103.234 72.0798 103.273 72.2346C103.293 72.3134 103.311 72.3925 103.329 72.4717C103.497 72.3114 103.527 72.2011 103.569 72.1303C103.649 71.9372 103.644 71.9245 103.665 71.7963L103.645 72.2645L103.339 72.5195C103.387 72.7468 103.428 72.9768 103.462 73.2136C103.558 73.8866 103.595 74.5751 103.566 75.2247C103.533 75.9015 103.286 75.7924 103.056 75.1642C102.751 74.3367 102.668 73.5976 102.37 73.1585C102.262 73.2058 102.145 73.2528 102.018 73.2986C100.75 73.7424 100.578 74.6677 99.847 74.9637C99.0965 75.2076 99.0188 74.9923 95.4742 76.6267C91.8523 78.1506 89.6218 78.3696 88.1292 78.5595C87.1762 78.6671 85.5381 78.5649 83.8546 78.2798C83.3505 78.2759 83.113 78.3917 82.7906 78.7866C82.6151 79.0008 82.3864 79.3597 82.1065 79.8134C83.4083 81.3423 84.6192 83.0859 85.2613 84.0448C86.418 85.7429 85.9577 85.98 86.3207 87.543C86.5833 88.792 87.6274 89.5447 88.2368 90.7708C88.3513 90.6771 88.4713 90.575 88.5961 90.4606C90.1582 89.0299 92.0536 87.9932 92.595 87.177C93.1347 86.3615 93.732 86.8941 94.6108 85.8686C95.4841 84.8404 96.1375 84.3681 97.1539 83.736C98.1777 83.1337 100.831 80.6188 101.288 79.3764C101.796 78.1658 102.946 77.2578 103.202 76.4062C103.281 76.1633 103.332 75.9566 103.368 75.7945C103.384 75.7263 103.428 75.6867 103.477 75.677C103.539 75.6649 103.61 75.7044 103.629 75.8012C103.731 76.2818 103.691 77.0149 103.54 77.876C103.191 79.487 102.675 79.3929 101.598 81.1185C100.46 82.827 99.9113 84.0247 98.002 85.4887C96.0862 86.9155 96.4722 88.1751 93.4857 89.8589C90.4972 91.4943 91.0106 92.6689 88.45 94.864C88.4181 94.8916 88.3661 94.9347 88.3211 94.9716C88.2995 94.9894 88.2805 95.0049 88.2647 95.0181C88.257 95.0252 88.1951 95.0733 88.2009 95.0699L85.6777 96.7536L85.0368 94.0225C84.0618 90.9811 83.3115 87.2119 82.3343 85.6826C81.6549 84.5226 80.644 83.2213 79.4439 81.7959C79.1735 82.5429 78.7624 82.5452 78.2597 83.7346C77.7051 85.0828 77.666 86.0629 76.5495 87.4161C75.5011 88.6696 76.1377 89.6031 74.6433 91.1215L73.4511 92.6271L72.4363 91.2629C72.3272 91.0917 72.2735 90.9678 72.1925 90.7954C71.2018 88.3547 70.0746 88.8516 68.6744 86.643C67.2933 84.4259 66.8893 81.0883 66.5179 79.6161C66.1035 78.1335 65.6217 76.0617 65.78 73.8432C65.7828 73.8026 65.7853 73.7614 65.788 73.7203C65.9606 71.6616 66.9461 70.3369 68.1803 69.0805L69.5086 68.0962L70.4159 69.1476ZM69.2861 72.6763C69.1414 72.8987 69.0391 73.1183 69.0132 73.3072C68.986 73.4578 68.9731 73.6088 68.9846 73.723C69.0085 75.4001 69.3224 77.8265 69.7796 78.8351C70.3066 80.0252 69.8452 80.1444 69.9184 81.246C70.0155 82.3583 71.4318 82.6847 71.8133 83.8894C72.218 85.0971 71.7455 85.5806 72.6362 86.7938C73.0167 87.3015 73.3413 87.8674 73.6324 88.3632C73.6851 88.2855 73.7349 88.1935 73.7792 88.0823C74.1381 87.1656 74.5241 86.7115 75.1773 86.0997C75.8315 85.4885 77.3275 83.2948 77.5955 82.3053C77.7486 81.7033 78.2111 81.2389 78.6701 80.8721L78.0007 80.0319L78.6914 79.0941C78.9304 78.7492 79.1774 78.379 79.4651 77.9823C79.5056 77.928 79.5459 77.8719 79.5873 77.8149C79.3729 77.5157 79.2117 77.3017 79.1224 77.1063C79.0849 77.0255 79.0594 76.9464 79.0467 76.8784C78.4937 76.692 77.9943 76.9754 77.6221 76.7576C77.1476 76.4673 77.3258 76.1315 74.6174 75.315C71.8903 74.4451 70.4698 73.4977 69.5359 72.8656C69.4566 72.8112 69.3735 72.7472 69.2861 72.6763ZM79.1789 76.9322C79.2422 77.0167 79.3607 77.1527 79.6465 77.2683C79.5981 77.2298 79.5481 77.1876 79.4964 77.1421C79.3895 77.0485 79.2829 76.9818 79.1789 76.9322ZM101.523 72.2246C101.499 72.2032 101.471 72.178 101.484 72.2306C101.491 72.2501 101.495 72.2655 101.527 72.3196C101.582 72.3754 101.537 72.4369 101.926 72.6829C101.938 72.6891 101.951 72.6945 101.964 72.7008C101.873 72.6036 101.79 72.516 101.717 72.4345C101.642 72.3505 101.575 72.2747 101.523 72.2246Z" fill="black"/>
<path d="M60.2422 73.3141C62.198 72.7624 64.4644 73.4678 65.7289 73.8056C66.131 73.9072 66.4389 74.0196 66.6713 74.123C66.7698 74.167 66.8074 74.227 66.7975 74.2765C66.7851 74.3381 66.6995 74.384 66.567 74.3668C65.9273 74.2837 64.9496 74.2277 63.8147 74.3807C61.7333 74.735 61.4744 74.1873 58.7531 74.8815C56.0949 75.7494 54.7672 76.723 52.2503 78.547C51.5043 79.1292 51.0682 79.7319 50.7473 80.3224C49.9635 81.7795 49.5767 83.1353 47.4616 85.738C44.473 89.5103 45.3057 90.5682 43.2774 94.8277C41.2581 99.0862 38.2637 104.273 37.3431 106.965C36.6056 109.055 35.7738 111.747 35.0311 114.64L34.9388 114.914C34.5758 115.717 34.2112 116.493 33.8084 117.307C31.9238 120.719 30.4991 126.746 25.2579 128.838C24.691 129.088 24.1046 129.317 23.5072 129.542L23.662 129.461C19.8618 131.443 15.2636 133.861 12.951 135.007C10.3014 136.32 9.6578 136.643 7.30755 138.238C5.95654 139.155 3.99175 140.247 2.20344 140.955C1.30344 141.312 1.37342 141.009 2.141 140.421C3.26348 139.562 4.30506 139.054 4.78106 138.441C5.73199 137.218 6.14802 136.717 7.87873 136.05C9.60962 135.383 9.9667 134.308 10.9219 133.83C11.877 133.352 12.0868 133.733 16.5481 130.648C18.8802 129.036 20.6753 127.827 22.1025 126.879L22.2732 126.79C23.6507 126.104 24.5637 125.571 25.1882 125.068C26.5357 124.273 28.8483 120.983 30.0904 117.857C30.5372 116.779 31.1764 115.307 31.8584 113.725C32.5869 110.66 33.7109 107.478 34.1983 105.798C34.9909 103.111 35.4584 103.287 36.5813 101.335C37.7175 99.3988 37.3619 97.2942 38.7219 94.9048C40.0932 92.532 40.8392 92.4619 42.1882 89.6512C43.5444 86.8442 45.522 84.3692 46.0271 83.06C46.5443 81.7359 47.2812 82.0242 48.2281 80.2878C48.4901 79.8167 48.7461 79.4024 48.9932 79.0465C49.7397 77.9889 50.5541 77.2773 51.6957 76.5798C53.163 75.3863 58.2736 73.619 60.2422 73.3141Z" fill="black"/>
<path d="M108.485 45.6348C108.545 45.6523 108.6 45.6839 108.601 45.7114C108.602 45.8448 108.646 46.0556 108.799 46.3356C109.083 46.8567 108.621 46.7691 108.655 47.3717C108.684 47.9785 108.985 48.4474 108.487 48.9913C107.992 49.517 109.039 50.0944 108.053 50.7398C107.067 51.3601 108.161 51.9379 107.895 52.8967C107.625 53.8581 106.44 54.6312 106.201 55.1561C105.959 55.6941 105.675 56.448 105.077 57.0548C104.486 57.6544 104.207 58.7417 103.391 59.2821C102.584 59.8274 101.431 60.5216 100.833 60.7482C100.237 60.977 100.101 61.0259 99.7692 61.5074C99.5801 61.7803 99.17 62.0024 98.6835 61.9653C98.7483 62.0246 98.8533 62.0957 99.0203 62.1684C99.4699 62.3644 99.0069 62.4443 99.2613 62.7493C99.5158 63.0541 99.9713 63.2026 99.7356 63.6224C99.4996 64.0423 100.682 63.9977 100.081 64.621C99.4787 65.2445 100.712 65.1623 100.937 65.6893C101.163 66.2163 100.565 66.9824 100.658 67.305C100.752 67.6276 100.945 68.0534 100.837 68.5382C100.728 69.023 101.202 69.5518 100.972 70.0995C100.742 70.6472 100.46 71.4168 100.254 71.7809C100.048 72.145 100.003 72.2331 100.189 72.5396C100.296 72.7158 100.244 72.9819 99.9532 73.2344C99.8067 73.3612 99.5828 73.3614 99.4645 73.2639C99.2917 73.1213 99.3796 72.9781 99.0942 72.927C98.5227 72.8251 98.3023 72.7789 98.6001 72.5338C98.8978 72.2887 98.156 72.2739 98.2263 72.1428C98.2969 72.0119 98.7273 71.9643 98.3248 71.3848C97.9225 70.8054 97.7991 70.4765 97.6927 70.2517C97.5863 70.0269 97.9046 69.4951 97.726 69.1293C97.5476 68.7635 97.5825 67.975 97.326 67.6877C97.0693 67.4006 97.5514 67.3446 97.7922 67.0615C98.0329 66.7783 96.8195 66.7155 96.9524 66.3887C97.0856 66.0618 97.712 65.9432 97.53 65.6072C97.3476 65.2711 97.7392 64.869 97.4618 64.7417C97.1842 64.6145 97.9675 64.508 97.7679 64.3051C97.5681 64.1022 97.6547 63.9553 97.8877 63.7313C98.0726 63.5535 98.204 63.125 98.0818 62.8644C97.8599 63.3732 97.5495 63.1029 97.0639 63.6542C96.5325 64.2441 96.3505 64.8634 95.413 65.0585C94.4909 65.232 94.8219 66.4024 93.3454 66.3389C91.8902 66.2356 92.2351 67.4288 90.9934 68.0159C89.7398 68.6011 87.9202 68.2759 87.1498 68.4334C86.3684 68.6061 85.294 68.856 84.1584 68.7134C83.0364 68.5768 81.6255 68.9195 80.4334 68.4965C79.2436 68.0841 77.6409 67.4381 76.9317 67.0471C76.2239 66.6589 76.0556 66.5669 75.2982 66.5577C75.1729 66.5563 75.0376 66.5354 74.8978 66.4992C74.9538 66.561 74.9557 66.6277 74.8436 66.711C74.5617 66.9204 75.7417 66.9682 75.0729 67.2638C74.404 67.5595 75.6384 67.591 75.8026 67.8857C75.9667 68.1803 75.2859 68.5522 75.3424 68.7298C75.3989 68.9074 75.5424 69.1461 75.3795 69.3979C75.2167 69.6497 75.6278 69.9605 75.3373 70.2384C75.0467 70.5162 74.6796 70.9091 74.4336 71.0907C74.1877 71.2721 74.132 71.3165 74.282 71.491C74.3684 71.5915 74.287 71.7299 73.9692 71.8468C73.8094 71.9055 73.587 71.8928 73.4804 71.8337C73.3246 71.7471 73.4285 71.6755 73.1502 71.6309C72.594 71.5418 72.3807 71.504 72.7044 71.3914C73.028 71.2789 72.2925 71.2258 72.3772 71.1602C72.4622 71.0947 72.8954 71.0958 72.5613 70.7624C72.227 70.4289 72.142 70.2457 72.0617 70.1194C71.9819 69.993 72.3576 69.7297 72.222 69.5239C72.0861 69.3181 72.2105 68.8993 71.988 68.7306C71.7658 68.562 72.2513 68.562 72.5226 68.4257C72.7939 68.2894 71.5952 68.1818 71.7641 68.0157C71.9335 67.8496 72.5694 67.8245 72.4269 67.6344C72.2838 67.4442 72.7186 67.2539 72.4572 67.1692C72.1959 67.0845 72.9859 67.0751 72.811 66.9549C72.6354 66.8346 72.7384 66.7614 72.9953 66.6562C73.2521 66.551 73.4713 66.2283 73.156 66.1107C72.8776 66.007 73.2706 65.8895 73.4563 65.8081C73.3419 65.815 73.2001 65.8366 73.0282 65.8831C72.4426 66.0395 72.6315 65.6122 72.0199 65.4766C71.4112 65.3317 70.829 65.4483 70.457 64.7585C70.1235 64.08 69.1437 64.7949 68.9416 63.5535C68.8115 62.3422 67.7802 63.0201 67.0503 62.1876C66.3281 61.3477 66.3926 59.8416 66.1309 59.3121C65.8537 58.7701 65.4417 58.0188 65.3761 57.152C65.3084 56.2944 64.686 55.3349 64.8319 54.3674C64.9707 53.408 65.2152 52.0829 65.4273 51.4927C65.6354 50.8785 65.6858 50.7635 65.5158 50.1966C65.4191 49.8738 65.4928 49.4371 65.8096 49.0554C65.9693 48.8642 66.1924 48.909 66.2995 49.0978C66.4562 49.3729 66.3558 49.5963 66.6367 49.7288C67.1984 49.9894 67.4142 50.0974 67.104 50.4571C66.795 50.8204 67.538 50.9352 67.466 51.1434C67.3965 51.3495 66.9509 51.3792 67.377 52.367C67.8098 53.3359 67.9848 53.8548 68.1254 54.2134C68.2623 54.5536 68.0453 55.4094 68.3284 55.9636C68.5982 56.5209 68.8547 57.7152 69.2477 58.074C69.6326 58.4321 69.1845 58.6143 69.1035 59.0908C69.0319 59.5746 70.2369 59.3027 70.3065 59.7641C70.3872 60.2344 69.8898 60.6442 70.3147 61.0093C70.7348 61.3625 70.7489 62.0499 71.1075 62.0566C71.4586 62.0537 70.8983 62.6152 71.2732 62.7435C71.6442 62.8626 71.7201 63.07 71.7926 63.4689C71.8499 63.869 72.5376 64.6408 73.0131 64.551C73.4738 64.4673 73.5522 65.1352 73.7193 65.369C73.7711 65.4418 73.8003 65.5191 73.8155 65.5915C73.8169 65.5982 73.8167 65.6059 73.8162 65.6141C73.8549 65.538 73.9449 65.4808 74.0707 65.4586C74.4614 65.3897 74.7241 65.5559 74.9699 65.3259C75.4569 64.8647 75.6481 64.6889 76.04 65.1033C76.4291 65.5159 76.7941 64.8389 77.0401 64.9737C77.285 65.1048 77.2069 65.5462 78.6133 65.4463C80.0116 65.335 80.7441 65.318 81.2525 65.2862C81.7548 65.2549 82.7826 65.6994 83.6003 65.5609C84.4102 65.4431 86.0508 65.4449 86.6632 65.1147C87.2699 64.7967 87.3445 65.2735 87.93 65.4337C88.5247 65.5856 88.6466 64.3236 89.2917 64.3133C89.944 64.2941 90.2436 64.8679 90.909 64.475C91.5598 64.0839 92.4304 64.1725 92.6284 63.7925C92.8232 63.4129 93.1986 64.1111 93.5584 63.7361C93.9209 63.3563 94.215 63.3157 94.7231 63.328C95.2196 63.3545 96.5001 62.8399 96.7304 62.3062C96.9655 61.779 97.7236 61.9245 98.0783 61.835C98.1882 61.8076 98.2889 61.8045 98.3749 61.8143C98.4091 61.8182 98.446 61.8489 98.4745 61.8866C98.4776 61.8862 98.4808 61.8855 98.4839 61.8851C98.3924 61.8027 98.3696 61.6704 98.4246 61.5437C98.5483 61.2615 98.7838 61.2083 98.7136 60.9085C98.5772 60.3047 98.513 60.0817 98.9756 60.1088C99.4443 60.1271 99.0602 59.4788 99.2563 59.4099C99.4468 59.3399 99.7669 59.6617 100.212 58.709C100.639 57.7588 100.897 57.2855 101.067 56.945C101.231 56.6109 102.002 56.2088 102.237 55.6205C102.475 55.0437 103.233 54.0506 103.286 53.4966C103.336 52.9569 103.763 53.1855 104.195 52.9547C104.632 52.71 103.711 51.8793 104.078 51.5149C104.444 51.1468 105.055 51.346 105.163 50.7589C105.268 50.1789 105.891 49.8105 105.746 49.4715C105.6 49.1337 106.344 49.4024 106.315 48.9942C106.285 48.5841 106.457 48.4166 106.81 48.198C107.165 47.9787 107.698 47.0943 107.505 46.6503C107.317 46.2043 107.958 45.9774 108.155 45.7673C108.216 45.7031 108.287 45.6587 108.355 45.6286C108.384 45.6159 108.436 45.6208 108.485 45.6348ZM73.7861 65.7089C73.7892 65.7088 73.7923 65.7087 73.7954 65.7087C73.7951 65.7009 73.7948 65.6931 73.7954 65.6855C73.7923 65.6932 73.7898 65.7012 73.7861 65.7089Z" fill="black"/>
<path d="M65.2061 26.1157C65.481 25.8577 65.6494 26.2686 65.9401 26.3576C66.024 26.384 66.1183 26.3844 66.2366 26.337C66.767 26.1284 67.1265 26.243 67.5629 26.5419C68.0236 26.8151 69.2452 27.3553 69.8224 27.3057C70.4354 27.2304 70.683 28.0229 70.861 28.3151C70.9218 28.4082 70.953 28.5014 70.9663 28.5842C70.9719 28.6194 70.9495 28.6674 70.9185 28.7072C70.8799 28.7566 70.8277 28.7939 70.7976 28.7809C70.6517 28.7175 70.4009 28.6618 70.061 28.7201C69.4409 28.8502 69.6198 28.4024 68.9365 28.3636C68.2518 28.3547 67.8573 28.7053 67.1958 28.3654C66.7495 28.1585 66.5115 28.5865 66.1917 28.7683C66.009 28.8743 65.8036 28.9009 65.4166 28.7496C64.2823 28.3936 64.6038 29.6205 64.0591 30.1823C63.5106 30.7409 62.3271 31.2036 62.1273 31.7649C61.9291 32.2859 61.8379 32.9862 61.6203 33.7246C61.5051 34.1138 61.5884 34.571 61.711 35.0082C61.8184 35.3814 61.9725 35.7899 62.0132 36.2423C62.072 37.1922 62.5944 38.533 62.9275 39.1368C63.2452 39.7453 63.3849 39.9163 64.0015 40.0669C64.3601 40.1455 64.7432 40.3601 65.1509 40.7143C65.3582 40.8894 65.3143 41.1129 65.0471 41.1954C64.6517 41.3091 64.3748 41.1234 64.0994 41.3254C63.5362 41.7189 63.2002 41.8111 62.8872 41.258C62.608 40.712 61.9892 41.1485 61.7837 40.8703C61.6087 40.5766 61.8425 40.3488 60.6412 39.3804C59.4685 38.3456 59.0804 37.532 58.7914 36.9979C58.6379 36.7 58.5581 36.1601 58.526 35.5501C58.5021 35.061 58.5066 34.5508 58.4471 34.0944C58.2508 33.0665 58.8946 31.0862 59.1253 30.2682C59.3234 29.415 59.7657 29.6486 60.3502 29.2903C60.9285 28.9721 60.3867 27.7675 61.1728 27.3144C61.9533 26.9079 62.3889 27.3723 63.1051 26.8171C63.868 26.2563 64.8768 26.4405 65.2061 26.1157Z" fill="black"/>
<path d="M82.7106 42.9647C82.1275 42.9117 82.1321 42.2901 81.2245 42.1292C80.2065 41.9147 79.6673 41.4721 79.1264 40.7357C78.4865 40.0456 77.1511 37.8625 76.6455 37.0048C76.0084 36.1635 76.4229 34.9258 76.5694 34.3271C76.573 34.3097 76.5785 34.293 76.5825 34.2763C76.5797 34.2819 76.5757 34.287 76.5728 34.2927C76.3706 34.7048 76.38 34.2351 76.1314 34.4413C75.8833 34.6486 75.7354 35.0799 75.4672 34.7931C75.191 34.5079 75.1325 35.6862 74.7446 35.0229C74.342 34.3619 74.331 35.5972 73.9699 35.7781C73.6096 35.9593 73.0845 35.3174 72.8561 35.3959C72.6311 35.4734 72.3423 35.6477 71.9993 35.5268C71.652 35.4063 71.315 35.8705 70.9149 35.6435C70.5124 35.4152 69.933 35.1546 69.6425 34.9663C69.353 34.7773 69.2789 34.7376 69.0847 34.9377C68.9727 35.0529 68.7753 35.0177 68.5415 34.7503C68.4239 34.6157 68.3843 34.3958 68.4373 34.2719C68.5153 34.0908 68.6373 34.1673 68.6313 33.8822C68.6209 33.3124 68.6291 33.0911 68.8597 33.3698C69.0885 33.6486 69.0007 32.9155 69.1134 32.9774C69.2253 33.0409 69.311 33.462 69.7137 33.0411C70.1213 32.6212 70.3743 32.4944 70.5426 32.3854C70.7137 32.276 71.1473 32.5902 71.4238 32.4172C71.7033 32.2416 72.3216 32.2986 72.5461 32.056C72.7723 31.8125 72.8163 32.2964 73.0324 32.5514C73.2454 32.8072 73.32 31.5994 73.5783 31.7545C73.8341 31.9104 73.8976 32.544 74.1659 32.3909C74.4383 32.2376 74.722 32.6677 74.8406 32.4052C74.9619 32.1435 74.9792 32.9329 75.1504 32.7574C75.3226 32.5824 75.4298 32.6867 75.574 32.9462C75.7211 33.2048 76.1603 33.4398 76.3427 33.1348C76.4301 32.9905 76.5095 33.0397 76.5813 33.1455C76.5788 32.5528 76.7737 32.0992 76.6482 31.7144C76.3832 30.8388 76.3604 30.3541 77.1648 29.7083C77.9685 29.1119 77.7451 28.3115 78.243 27.9523C78.7924 27.6812 78.8159 27.7427 81.3265 26.2742C83.0866 25.3984 84.5935 25.3431 85.6549 25.4213C86.1972 25.4645 86.6465 25.5485 87.0322 25.6378C88.2238 25.8615 90.211 27.382 91.427 28.8019C92.8707 30.0788 93.7368 33.8672 93.5242 35.5215C93.5239 35.5697 93.5237 35.6162 93.5236 35.6609C93.4567 37.2776 92.9265 37.1916 92.1914 38.1718C91.4274 39.0656 91.7935 40.624 90.4178 41.5741C89.0312 42.4032 88.5513 41.9665 87.029 42.6762C85.4098 43.3637 83.6698 42.8332 82.92 42.953C82.8433 42.9662 82.7738 42.9691 82.7106 42.9647ZM83.9348 40.4397C85.8495 41.1029 85.9923 39.7555 87.2695 38.8729C88.5918 37.9755 90.1614 36.3463 90.2011 35.1984C90.2038 35.1677 90.2063 35.1364 90.2085 35.105C90.2886 34.0353 90.0139 32.6992 89.3911 31.3876C88.7339 29.9595 86.933 29.1332 85.3782 28.6016C85.3173 28.5793 85.2546 28.5576 85.1904 28.5366C83.603 27.899 81.0558 28.4855 80.0032 29.1484C78.8947 29.7815 78.5967 30.0565 78.1118 31.1925C77.8485 31.8576 77.4687 32.7122 77.0653 33.5365C76.9969 33.6799 76.9258 33.7615 76.8598 33.7882C76.8595 33.7935 76.8599 33.7989 76.8595 33.8042C76.8624 33.8043 76.8653 33.8035 76.8682 33.8037C76.9309 33.8083 76.9902 33.8474 76.9945 33.9092C77.0152 34.2059 77.1094 34.6622 77.3901 35.1344C77.944 35.9695 77.474 36.1856 78.1639 37.2454C78.9314 38.2472 79.6482 38.4715 80.5498 39.4902C81.4263 40.3357 82.1309 39.7558 83.2383 40.1628C83.4404 40.2294 83.6642 40.3211 83.9348 40.4397Z" fill="black"/>
<path d="M116.098 48.0046C114.747 50.5627 113.016 53.405 104.798 51.7665C104.097 42.4128 104.505 38.6254 107.196 30.3495C107.634 30.3653 109.419 30.3266 109.82 30.3495C116.397 30.7736 117.199 33.0884 117.555 35.1046C118.448 40.1699 117.407 45.5255 116.098 48.0046Z" fill="#9DABDF"/>
<path d="M109.924 28.737C112.175 28.7852 115.575 29.4971 117.202 30.7723C119.073 32.2944 118.565 32.9315 118.717 34.4483C118.722 34.6064 118.737 34.7533 118.761 34.8916C118.964 36.0819 120.031 37.0708 119.909 38.6775C119.735 40.4468 119.098 40.6557 119.013 42.6184C118.905 44.6064 117.936 46.4112 117.846 47.342C117.786 47.9897 117.392 48.1101 117.016 48.4899C116.848 48.6468 116.684 48.868 116.533 49.2444C116.048 50.4221 115.378 51.1092 114.28 51.6137C113.199 52.3441 109.88 52.7151 108.691 52.8774C107.47 53.1663 106.173 52.4271 105.423 52.159C105.19 52.0766 105.007 51.9851 104.869 51.8993C104.81 51.8629 104.79 51.8069 104.8 51.7574C104.802 51.7505 104.805 51.7442 104.808 51.7376C104.692 51.8457 104.555 51.6674 104.454 51.2789C104.237 50.4436 104.297 49.7324 103.994 49.3171C103.39 48.4652 103.156 48.0968 103.442 46.9648C103.733 45.8387 102.998 45.3175 103.086 44.6516C103.204 43.9878 103.522 44.025 103.493 40.6358C103.55 37.2195 104.017 35.3869 104.252 34.1345C104.447 33.1615 105.164 31.4889 105.73 29.8729L105.989 28.8491L107.251 28.8094C107.627 28.827 108.163 28.8133 108.605 28.7798C108.972 28.7559 109.303 28.7271 109.912 28.7365L109.924 28.737ZM109.729 31.9362C109.361 31.897 108.905 31.895 108.389 31.9019C107.995 33.3197 107.614 34.7675 107.13 36.0855C106.16 38.561 105.395 42.2317 105.153 43.9965C104.88 45.75 104.841 46.1922 105.056 47.888C105.183 48.8623 105.184 50.2118 104.952 51.3779C104.925 51.5142 104.89 51.6122 104.854 51.6765C104.88 51.6586 104.913 51.6488 104.952 51.6526C105.348 51.6905 105.938 51.6958 106.646 51.5617C107.94 51.2819 108.044 51.8067 109.715 51.5525C111.363 51.1957 112.108 50.6553 113.521 49.8526C114.503 49.1783 114.374 48.3611 114.801 47.3198C114.96 46.8936 115.216 46.3638 115.677 45.6057C117.036 43.1401 115.854 42.5341 115.858 39.9086C115.826 38.4798 115.891 36.8606 115.789 35.4166C115.732 34.2185 115.487 33.6891 115.049 33.3444C114.174 32.6264 112.061 32.2347 109.75 31.94C109.739 31.9385 109.728 31.9371 109.717 31.9357L109.729 31.9362Z" fill="black"/>
<path d="M66.4285 7.8993C68.2958 7.18824 70.838 7.36184 72.7743 8.04852C73.8409 8.4525 73.5199 8.58808 72.4292 8.48082C70.832 8.34841 69.5099 8.25151 68.7364 8.60035C67.9569 8.95642 67.4828 9.26499 66.9797 9.51617L67.1348 9.45066C66.6749 9.77745 66.164 10.0384 65.4185 10.5407C63.8926 11.6887 64.3187 12.9368 64.0332 13.8321C63.9086 14.3209 63.732 14.558 63.6816 15.3606C63.6865 16.0892 63.6592 17.8014 65.6199 19.5635C66.8083 20.5369 68.1213 20.7938 69.2695 20.7536C71.3984 20.67 72.8947 20.1882 74.0143 19.6437C73.369 18.0573 73.2429 16.1399 73.6516 14.3346C73.9229 13.1051 74.3927 11.8869 75.1671 10.7273C75.9781 9.66695 76.9221 8.15515 79.4053 8.13835C79.8793 8.17486 80.3443 8.32082 80.7535 8.55457C82.5263 9.51902 83.0445 11.7009 82.8787 13.2063C82.742 14.7928 82.1693 16.2164 81.4041 17.4917C80.7546 18.5695 79.9322 19.5399 78.9974 20.3666C79.075 20.4233 79.1507 20.4795 79.2249 20.5385C79.6746 20.8613 80.138 21.2347 81.2533 21.5169C81.7196 21.626 82.1209 21.6458 82.5874 21.6155C84.458 21.4667 86.0093 20.5973 88.0574 20.0278C89.1264 19.6446 89.9231 19.4883 90.6169 19.216C89.7798 18.0088 89.2062 17.0906 88.6991 15.8994C88.4218 15.1411 88.1053 14.2985 88.3509 12.9483C88.4814 12.2982 88.8996 11.3984 89.7771 10.868C90.6502 10.3364 91.6163 10.3207 92.4261 10.477C92.6169 10.513 92.8064 10.5603 92.9928 10.6195C94.8508 11.1529 95.8472 12.7644 96.0575 13.9198C96.3088 15.1166 96.2014 16.0838 96.0134 17.0141C95.7377 18.1774 95.2981 19.4047 94.2824 20.62C94.9079 21.1277 95.7523 21.6092 96.7407 21.7064C98.9129 21.9915 101.212 21.3524 101.77 20.4093C102.906 18.9756 103.624 16.5411 103.828 15.0371C103.887 14.5718 103.945 14.2004 104.003 13.9153C104.027 13.7939 104.077 13.736 104.128 13.7355C104.19 13.735 104.254 13.8242 104.261 13.9814C104.294 14.7435 104.39 15.8713 104.392 17.2749C104.377 18.588 104.095 19.3422 103.635 20.1071C103.153 20.8372 102.468 21.7911 100.707 22.5189C99.2031 23.0933 97.911 23.1889 96.6459 23.2251C95.3387 23.2185 94.0901 22.7641 92.9693 21.9022C92.6755 22.1404 92.3537 22.3779 91.9993 22.6123C89.2464 24.3909 85.601 24.9082 82.5408 24.6977C80.0411 24.6272 77.5361 23.6661 75.9648 22.3514C75.5431 22.5448 75.1138 22.7123 74.6792 22.8501C73.0402 23.384 71.1236 23.6323 69.2193 23.4988C66.7155 23.4009 64.2854 21.8978 63.1405 20.009C61.9385 18.1347 61.7534 16.1612 61.8674 14.8621C62.4925 11.2539 63.1779 10.3152 65.8992 8.20165C66.0432 8.10845 66.1973 8.01664 66.3615 7.92773L66.4285 7.8993ZM79.2144 11.3353C79.1875 11.3275 79.2103 11.3407 79.2073 11.3421C79.2038 11.3452 79.1573 11.3495 79.0643 11.3938C78.8735 11.4794 78.5526 11.7357 78.2687 12.0828C77.6909 12.7765 77.2091 13.7832 76.956 14.7658C76.646 15.8872 76.6762 16.9326 76.8737 17.7466C77.4129 17.2846 77.9692 16.7276 78.4568 16.0626C79.502 14.7353 80.1305 12.6268 79.6317 11.7599C79.5221 11.5538 79.4086 11.4344 79.2144 11.3353ZM92.1488 13.0423C91.7442 12.9997 91.4834 13.0766 91.396 13.1737C91.3223 13.2571 91.309 13.2829 91.2782 13.3008L91.1853 13.3402C91.1252 13.3688 91.0463 13.4176 90.9673 13.5056C90.762 13.7305 90.5379 14.2613 90.8696 15.1991C91.3308 16.347 91.7528 17.2141 92.2628 18.0603C92.5315 17.7589 92.8076 17.3858 93.1029 16.915C93.6128 15.9143 93.8156 14.8262 93.5964 14.1375C93.404 13.4615 92.8392 13.1117 92.1488 13.0423Z" fill="black"/>
<path d="M85.8303 50.9606C85.8598 50.9644 85.903 50.9925 85.9404 51.0261C85.9872 51.068 86.0251 51.119 86.0156 51.1413C85.9701 51.2492 85.9274 51.4446 85.9419 51.7517C85.9616 52.3264 85.6073 52.0198 85.3639 52.5238C85.1146 53.0254 85.122 53.5792 84.4543 53.7212C83.798 53.8449 84.3317 54.9178 83.22 54.8255C82.1303 54.702 82.6766 55.8109 81.9415 56.3784C81.2018 56.9442 79.8831 56.7581 79.4149 56.9894C78.9403 57.2293 78.293 57.6035 77.519 57.65C76.7551 57.6969 75.9235 58.3061 75.0428 58.1531C74.168 58.0079 72.985 57.7439 72.4514 57.5169C71.921 57.2929 71.7957 57.2394 71.298 57.3892C71.0078 57.4742 70.6105 57.3813 70.2955 57.0458C70.1372 56.8768 70.1906 56.6574 70.3599 56.5598C70.6067 56.4167 70.7968 56.5261 70.9245 56.251C71.1808 55.7004 71.2743 55.4884 71.5725 55.8109C71.8777 56.1319 72.0038 55.3916 72.1739 55.4703C72.3431 55.5453 72.375 55.9929 73.2273 55.5868C74.0678 55.1715 74.5113 55.0026 74.8163 54.8688C75.1204 54.735 75.8645 54.9652 76.3533 54.6942C76.8341 54.436 77.9041 54.2194 78.2299 53.8512C78.5539 53.4892 78.7282 53.9415 79.1659 54.0532C79.6091 54.1596 79.3716 52.9526 79.8169 52.9244C80.2676 52.8909 80.6209 53.4262 80.9945 53.061C81.3594 52.6982 82.0075 52.8098 82.0593 52.4667C82.1041 52.1277 82.5535 52.7798 82.7255 52.4526C82.8901 52.1284 83.0983 52.1065 83.4816 52.1422C83.8593 52.1893 84.6976 51.7926 84.7149 51.3418C84.73 50.9047 85.359 51.0522 85.6069 50.9768C85.6838 50.9539 85.7604 50.952 85.8303 50.9606Z" fill="black"/>
<path d="M106.152 12.1912C100.284 4.78253 83.9061 4.33159 75.2396 5.89725C73.8554 6.14731 71.9798 6.63392 71.5668 7.79511H67.9762C67.8811 4.39803 69.052 3.33135 74.4022 2.28084C87.7068 -0.331486 105.401 3.10751 110.115 11.5151C113.214 17.0428 111.984 23.7588 111.984 29.8904H108.436C108.664 21.7769 109.403 16.2964 106.152 12.1912Z" fill="#9DABDF"/>
<path d="M80.3151 0.300122C87.4633 -0.405347 91.4351 0.300901 94.1364 0.706591C96.8556 1.13186 102.34 2.98259 106.278 5.46467C107.858 6.43822 110.072 8.11325 111.548 10.7116C113.709 14.4608 113.86 18.8959 114.022 21.0473C114.232 24.713 113.669 24.6795 113.299 27.5096C113.188 28.3435 113.218 29.1259 113.322 29.8907L113.363 31.1845L111.984 31.2283C110.839 31.3794 109.705 31.6471 108.436 31.8048L106.53 31.8652L106.522 29.8369C106.445 29.0187 106.42 28.1497 106.503 27.1988C106.777 23.7415 107.556 23.2071 107.223 19.3909C106.966 16.7514 106.313 14.3757 105.172 12.9664C104.706 12.3573 104.211 11.9086 103.802 11.6554C102.412 10.8685 102.733 10.0662 100.491 9.12422C98.2331 8.28096 96.8581 7.78692 94.8125 7.0414C92.7984 6.18955 86.0665 5.35187 83.622 5.79941C81.1997 6.12774 78.4009 5.81566 76.7101 5.9349C76.1887 5.96814 75.7681 5.98158 75.4501 5.97874C75.3158 5.97752 75.2475 5.93797 75.2383 5.88841C75.2272 5.82669 75.3081 5.74896 75.476 5.71174C76.3038 5.52877 77.5337 5.24626 79.0021 4.88486C81.7624 4.2517 82.0884 4.6669 85.8589 4.50495C89.6261 4.44456 92.0175 4.17819 96.3601 5.51382C100.457 7.17559 102.564 5.83998 107.062 11.2735C107.091 11.3166 107.12 11.3595 107.147 11.4023C109.989 17.0467 110.322 18.2491 110.59 23.6004C110.658 22.6392 110.697 21.7965 110.668 21.1024C110.594 18.4691 110.26 15.2026 108.664 12.3288C108.126 11.3531 107.371 10.4212 106.467 9.56124C102.962 6.20308 96.6097 4.5791 91.1238 3.51203C85.9633 2.38544 78.5057 2.32928 74.5369 2.96542C74.2363 3.00617 73.9653 3.04385 73.71 3.08165C70.2931 3.71861 68.4156 3.87989 68.4631 7.27784C69.3417 7.26163 70.3138 7.27133 71.3091 7.31105C72.0963 6.13267 73.4237 6.03108 74.4187 5.88044C75.6765 5.78633 75.4086 6.04581 74.258 6.42373C73.1215 6.80928 72.1157 7.34816 72.0098 7.95263L71.9128 8.25417L71.5668 8.26546C71.1776 8.29736 70.8349 8.34668 70.5453 8.43283C69.5086 8.74144 68.8023 8.94434 67.9763 9.00866L66.8353 9.04519L66.7629 7.8291C66.7139 7.11422 66.6676 6.24829 67.2729 4.98182C68.0223 3.55132 69.0328 2.93229 69.7257 2.4301C70.4512 1.94264 71.0638 1.58759 71.7886 1.43053C72.5604 1.27407 72.9287 1.3319 74.1816 1.15623C75.2645 1.01981 77.014 0.674454 80.3151 0.300122Z" fill="black"/>
<path d="M96.3842 151.87C102.486 152.555 107.945 152.821 107.945 152.821C113.041 156.465 115.566 158.974 118.867 165.137C118.867 165.137 118.351 169.164 115.325 170.417C105.373 172.742 101.49 175.152 96.9464 176.455C93.196 177.53 92.3571 173.946 94.823 171.783L92.6025 173.024C87.3564 176.003 84.6828 172.182 89.9578 167.902C89.9578 167.902 87.4514 169.808 85.4885 170.172C83.5256 170.537 82.9116 167.166 82.9116 167.166C82.9116 167.166 79.9454 167.014 79.2284 165.69C78.5114 164.366 80.9193 159.731 83.6407 157.717C86.362 155.702 90.2822 151.184 96.3842 151.87Z" fill="white"/>
<path d="M109.004 151.339C110.797 152.786 112.362 154.233 113.402 155.158C115.545 156.965 118.074 159.986 119.77 163.468C119.925 163.776 120.08 164.08 120.244 164.399L120.489 164.911L120.416 165.335C119.952 167.727 118.966 170.564 115.955 171.938L115.7 172.019C114.094 172.418 112.507 172.822 110.961 173.153C106.935 173.935 101.435 175.893 98.7118 176.572C98.0771 176.729 97.5504 176.843 97.085 176.939C96.2739 177.1 95.619 177.143 94.8687 176.97C94.1589 176.808 93.2175 176.241 92.965 175.016C92.9449 174.931 92.9311 174.844 92.9204 174.758C92.5247 174.87 92.027 174.967 91.6559 175.188C91.0735 175.575 89.6024 175.747 88.8571 175.868C88.1024 176.009 88.1397 175.51 87.6963 175.059C87.4826 174.823 87.1506 174.907 86.7217 174.883C86.309 174.869 85.7859 174.709 85.5887 174.209C85.2663 173.196 85.901 172.939 85.7328 172.136C85.7189 172.028 85.7172 171.925 85.7252 171.828C85.6037 171.723 85.4874 171.575 85.3127 171.463C85.1217 171.334 84.9572 171.559 84.7071 171.767C84.4624 171.975 84.1227 172.156 83.8716 171.959C83.3889 171.548 83.707 170.981 83.253 170.789C82.7835 170.556 82.9035 169.956 82.5953 169.963C82.2774 169.951 82.9413 169.525 82.6829 169.421C82.4219 169.307 82.4525 169.13 82.6145 168.86C82.7693 168.584 82.8064 168.038 82.4528 167.939C82.093 167.835 82.5678 167.476 82.6686 167.326C82.6765 167.314 82.6871 167.304 82.6969 167.293C82.0824 167.263 81.1907 167.285 80.0269 167.009C79.4079 166.847 78.9064 166.518 78.6207 166.019C78.1008 164.489 78.6703 163.951 79.3314 162.045C80.2718 159.91 80.9073 158.372 82.9624 156.8C83.2959 156.567 83.6677 156.3 84.0887 156.011C86.704 154.326 86.414 152.41 91.2908 151.147C93.7918 150.717 95.1073 150.656 96.5353 150.523C97.7414 150.412 98.9706 150.206 101.105 150.315C103.303 150.425 105.796 150.74 108.033 151.002L108.646 151.059L109.004 151.339ZM107.593 154.079C106.088 154.192 104.643 154.783 102.713 154.502C100.217 154.127 99.9059 153.466 97.0323 153.311C96.7625 153.295 96.4969 153.274 96.2293 153.249C93.9953 152.994 91.7795 153.427 90.9314 154.102C90.032 154.842 89.5184 154.196 88.1904 155.33C86.8942 156.489 86.0532 157.141 84.6249 157.959C84.4684 158.048 84.2793 158.161 84.0638 158.288C82.4096 159.086 80.0015 162.501 79.9356 164.01C79.8628 164.558 79.799 165.232 79.8436 165.357C80.0496 165.958 81.2384 166.577 81.9276 166.773C82.2807 166.877 82.5647 166.964 82.7815 167.04C82.7994 167.047 82.8154 167.054 82.8295 167.062C82.8281 167.055 82.827 167.05 82.829 167.045C82.878 166.928 82.9173 166.723 82.882 166.413C82.8162 165.834 83.2025 166.104 83.3846 165.552C83.5667 165 83.4433 164.47 84.0685 164.169C84.4196 163.999 84.3192 163.649 84.3566 163.33L84.5467 163.146C84.6283 162.903 84.7853 162.698 85.2825 162.681C86.4102 162.651 85.7313 161.615 86.3822 160.93C87.0358 160.243 88.3993 160.141 88.8362 159.797C89.275 159.447 89.8478 158.924 90.6213 158.673C91.3886 158.423 92.0672 157.601 92.9804 157.48C93.8887 157.357 95.141 157.197 95.7468 157.203C96.3542 157.208 96.4967 157.208 96.9296 156.862C97.1765 156.665 97.5975 156.578 98.0465 156.738C98.2741 156.817 98.32 157.04 98.1934 157.206C98.0092 157.45 97.7742 157.435 97.7547 157.744C97.7205 158.361 97.7002 158.6 97.2638 158.433C96.8289 158.267 96.9692 159.006 96.7597 159.005C96.5462 159.007 96.3716 158.604 95.6019 159.316C94.84 160.029 94.4026 160.341 94.1068 160.577C93.8145 160.811 92.9579 160.829 92.4997 161.239C92.0419 161.642 90.9408 162.16 90.6537 162.615C90.3674 163.066 90.1019 162.661 89.6187 162.659C89.1319 162.662 89.5606 163.824 89.0753 163.965C88.5858 164.11 88.1487 163.642 87.7828 164.096C87.4218 164.547 86.7109 164.552 86.6721 164.916C86.6443 165.201 86.3188 164.883 86.0969 164.919C85.9952 165.31 85.7738 165.412 85.3718 165.489C84.9697 165.566 84.1699 166.172 84.1805 166.647C84.1909 167.123 83.5109 167.079 83.2539 167.181C83.2145 167.197 83.1744 167.206 83.1355 167.212C83.2036 167.249 83.3083 167.288 83.4668 167.316C83.924 167.389 83.4745 167.529 83.7578 167.707C84.044 167.88 84.4922 167.839 84.337 168.185C84.203 168.558 85.2502 168.029 84.8349 168.605C84.5983 169.025 84.9565 168.839 85.2263 168.599C85.2775 168.623 85.3242 168.631 85.3564 168.612C85.5273 168.513 85.734 168.299 86.0858 168.331C86.4486 168.36 86.6389 167.813 87.1047 167.89C87.5754 167.969 88.253 167.986 88.6122 168.046C88.6496 168.052 88.6846 168.056 88.7165 168.06C88.7865 167.88 88.9911 167.838 89.1995 167.828C89.2807 167.685 89.4861 167.645 89.8053 167.79C89.8299 167.802 89.8533 167.817 89.8759 167.833C89.9033 167.846 89.9361 167.875 89.9635 167.909C89.9671 167.914 89.9702 167.919 89.9736 167.923C90.0448 168.007 90.0875 168.109 90.0773 168.197C90.0629 168.401 89.9096 168.382 90.0128 168.65C90.2195 169.185 90.2808 169.402 89.9511 169.234C89.6221 169.066 89.9575 169.725 89.8188 169.714C89.7087 169.703 89.5394 169.465 89.3291 169.671C89.2812 170.016 89.2754 170.323 88.8903 170.485C88.3632 170.754 89.3166 171.417 88.5058 171.635C87.8724 171.888 88.4658 172.22 88.8478 172.273C88.864 172.403 88.9976 172.541 89.1075 172.523C89.3751 172.488 89.7712 172.309 90.3258 172.305C90.8172 172.301 91.2504 171.8 91.7958 171.603L91.8052 171.598C91.9101 171.558 92.0195 171.528 92.1339 171.511C92.9414 171.393 94.0614 171.187 94.6164 171.159C94.8331 171.148 94.9854 171.137 95.1112 171.11C95.2247 171.046 95.3399 170.988 95.456 170.937C95.5148 170.888 95.5787 170.83 95.6499 170.755C95.8484 170.545 96.2195 170.43 96.6545 170.551C96.8734 170.612 96.9501 170.824 96.8603 170.996C96.7289 171.248 96.5079 171.253 96.5369 171.555C96.5947 172.16 96.6081 172.397 96.1806 172.265C95.7533 172.133 95.985 172.846 95.7869 172.86C95.5884 172.874 95.379 172.494 94.7432 173.232C94.634 173.359 94.5312 173.473 94.4355 173.577C94.4564 174.007 94.5539 174.289 94.6124 174.525C94.706 174.82 94.6893 175.003 94.8412 175.343C94.9988 175.63 95.4142 175.669 95.7228 175.569C96.044 175.472 96.2984 175.279 96.5671 175.132C96.7353 175.047 96.9058 174.978 97.0941 174.938C98.0196 174.719 98.1153 175.221 102.658 173.062C107.247 170.915 109.966 170.107 111.797 169.521C112.547 169.286 113.657 169.044 114.909 168.806C115.931 168.385 116.902 167.012 117.174 165.586C117.185 165.536 117.194 165.479 117.206 165.421C115.636 162.586 112.897 158.789 111.148 157.642C109.221 156.237 109.493 155.884 108.054 154.462C107.906 154.32 107.752 154.195 107.593 154.079ZM88.8531 172.193C88.8887 172.029 89.1663 172.121 89.1002 172.228C89.0664 172.278 88.9677 172.289 88.8478 172.273C88.8444 172.245 88.8446 172.218 88.8531 172.193ZM85.2701 168.285C85.3508 168.198 85.4745 168.181 85.4785 168.257C85.4861 168.333 85.3683 168.473 85.2263 168.599C85.2158 168.594 85.2047 168.59 85.194 168.583C85.1659 168.51 85.1849 168.369 85.2701 168.285ZM82.9097 167.167C82.9108 167.167 82.9118 167.166 82.9129 167.166C82.9117 167.165 82.9103 167.164 82.9091 167.163C82.9092 167.164 82.9096 167.165 82.9097 167.167ZM104.38 167.025C104.495 166.901 104.712 166.923 104.962 167.181C105.088 167.312 105.13 167.532 105.077 167.658C105 167.841 104.876 167.769 104.892 168.054C104.925 168.624 104.938 168.842 104.693 168.578C104.447 168.314 104.59 169.039 104.478 168.985C104.366 168.931 104.236 168.516 103.893 168.976C103.554 169.437 103.347 169.599 103.209 169.732C103.074 169.864 102.605 169.632 102.387 169.86C102.171 170.086 101.592 170.182 101.464 170.478C101.337 170.772 101.149 170.324 100.868 170.149C100.584 169.976 100.928 171.133 100.654 171.071C100.376 171.009 100.08 170.445 99.8976 170.686C99.7158 170.927 99.2895 170.648 99.2923 170.936C99.2969 171.223 98.9458 170.514 98.8663 170.747C98.7898 170.979 98.6509 170.932 98.4044 170.766C98.156 170.601 97.6449 170.608 97.633 170.966C97.6234 171.323 97.207 170.919 97.045 170.855C96.9945 170.835 96.9438 170.799 96.8983 170.757C96.879 170.739 96.8521 170.695 96.8296 170.65C96.8016 170.594 96.7804 170.536 96.7872 170.523C96.8221 170.463 96.854 170.333 96.843 170.084C96.8245 169.619 97.0514 170.03 97.1858 169.72C97.3189 169.411 97.2676 168.95 97.6662 169.07C98.0629 169.191 97.6163 168.095 98.2973 168.513C98.9738 168.934 98.4912 167.797 98.8281 167.463C99.1667 167.13 99.9539 167.533 100.176 167.38C100.4 167.226 100.682 166.957 101.095 166.973C101.505 166.99 101.806 166.443 102.298 166.581C102.788 166.719 103.452 166.892 103.777 167.049C104.103 167.206 104.178 167.241 104.38 167.025ZM102.89 161.119C103.078 161.22 103.123 161.441 103.027 161.59C102.885 161.807 102.693 161.767 102.69 162.064C102.682 162.66 102.676 162.89 102.315 162.68C101.95 162.472 102.097 163.202 101.923 163.179C101.748 163.156 101.594 162.747 100.987 163.345C100.385 163.943 100.028 164.187 99.7916 164.374C99.5545 164.561 98.844 164.459 98.468 164.781C98.0925 165.099 97.1739 165.405 96.9325 165.78C96.6922 166.154 96.4703 165.722 96.0641 165.63C95.6558 165.541 96.0126 166.711 95.6038 166.746C95.1924 166.784 94.8245 166.261 94.5152 166.608C94.2101 166.952 93.6047 166.812 93.574 167.138C93.5435 167.464 93.11 166.804 92.9631 167.102C92.8173 167.401 92.6182 167.406 92.2714 167.323C91.9228 167.241 91.1628 167.476 91.1033 167.895C91.0485 168.31 90.4793 168.034 90.2474 168.033C90.1751 168.033 90.1045 168.014 90.042 167.986C90.0156 167.975 89.9804 167.936 89.9522 167.895C89.9171 167.843 89.8919 167.785 89.9038 167.767C89.9623 167.681 90.0249 167.517 90.0372 167.235C90.0648 166.705 90.3503 167.077 90.5878 166.659C90.8215 166.243 90.805 165.733 91.3822 165.698C91.9603 165.664 91.4309 164.6 92.3993 164.791C93.3599 164.99 92.7893 163.893 93.3461 163.383C93.9054 162.873 95.0463 163.039 95.4081 162.793C95.7726 162.544 96.2424 162.152 96.8749 162.038C97.5033 161.925 98.0383 161.241 98.7801 161.246C99.5194 161.251 100.538 161.243 101.032 161.318C101.529 161.391 101.645 161.406 101.983 161.12C102.179 160.954 102.517 160.917 102.89 161.119ZM114.689 168.882C114.736 168.869 114.783 168.853 114.83 168.836L114.689 168.882Z" fill="black"/>
<path d="M0 183.358V121.918H89.9327V159.512V173.876V174.29L93.1591 172.672L94.0033 174.29L99.0392 175.652L109.664 171.917L89.9327 188.505H0V183.358Z" fill="#9DABDF"/>
<path d="M82.7962 120.118C86.6241 119.895 86.6321 120.381 89.7254 120.653C89.7948 120.659 89.8639 120.664 89.9326 120.669L91.1447 120.633L91.1819 121.918C90.9798 124.914 92.122 127.324 91.9563 131.01C91.7868 134.78 91.1511 135.345 91.2942 139.663C91.4373 143.981 91.0023 148.301 91.2636 150.224C91.525 152.146 90.7348 152.35 90.9103 155.08C91.0237 156.843 91.0204 158.158 90.9349 159.512C90.888 160.253 90.8166 161.007 90.7256 161.852C90.4797 164.138 90.268 170.956 90.5271 173.876C90.5387 174.006 90.5514 174.129 90.5649 174.243C90.7343 175.675 90.6549 177.215 90.5251 178.617C90.413 179.827 90.2631 180.935 90.2029 181.783C90.1625 182.353 90.1071 182.801 90.0495 183.145C90.0251 183.291 89.9738 183.358 89.9233 183.358C89.9156 183.358 89.9077 183.357 89.9001 183.354C89.9035 183.357 89.9066 183.36 89.9094 183.363C90.0359 183.353 90.1666 183.367 90.2408 183.402C90.3962 183.474 90.2924 183.533 90.5702 183.57C91.1263 183.645 91.34 183.676 91.0165 183.77C90.6929 183.863 91.428 183.908 91.3433 183.962C91.2581 184.017 90.8255 184.016 91.1593 184.294C91.4937 184.572 91.5792 184.724 91.6595 184.83C91.7388 184.935 91.3632 185.154 91.4987 185.326C91.5797 185.428 91.5692 185.593 91.5937 185.739C92.2048 185.513 92.0119 184.808 92.3509 184.628C92.7065 184.44 92.9811 184.776 94.2969 183.234C95.6128 181.691 96.3975 180.919 96.9256 180.37C97.454 179.822 98.9063 179.092 99.7636 178.194C100.621 177.296 102.623 175.776 103.254 174.955C103.351 174.829 103.441 174.731 103.526 174.655C102.752 174.821 101.873 175.116 101.522 175.45C100.961 175.981 100.021 175.731 99.5218 175.769C99.3665 175.781 99.2361 175.768 99.1313 175.744C99.0869 175.734 99.0531 175.691 99.0363 175.644C99.0156 175.584 99.021 175.517 99.0649 175.493C99.2787 175.377 99.5839 175.162 99.9084 174.807C100.513 174.144 100.75 174.558 101.685 173.998C102.62 173.438 103.08 172.814 104.359 172.663C105.638 172.513 105.518 171.303 107.413 171.346C107.851 171.356 108.175 171.298 108.435 171.194C108.479 171.152 108.524 171.108 108.569 171.059C108.634 170.988 108.702 170.921 108.772 170.856L108.835 170.967C108.971 170.865 109.091 170.748 109.209 170.622L110.547 172.968C110.346 173.454 110.182 174.011 109.588 174.613C108.341 175.875 106.195 176.79 105.416 177.518C104.637 178.247 103.634 179.278 102.374 180.125C101.113 180.972 99.9512 182.486 98.4884 183.336C97.0255 184.186 94.985 185.422 93.9933 185.934C93.002 186.446 92.7633 186.575 92.058 187.364C91.6525 187.818 90.9645 188.289 90.2235 188.497C90.103 188.531 90.0131 188.53 89.9532 188.503C89.9434 188.503 89.9333 188.504 89.9233 188.504C89.9169 188.504 89.9104 188.504 89.9041 188.504C90.0236 188.623 89.7469 188.743 89.1801 188.813C87.9195 188.968 86.8848 188.864 86.2352 189.143C84.9374 189.699 84.3855 189.912 82.747 189.588C81.1087 189.265 80.3367 190 79.3817 189.916C78.4266 189.831 78.442 189.397 73.5855 189.731C68.7291 190.065 66.0666 190.151 64.2274 190.231C62.3882 190.311 58.5479 189.935 55.5508 190.071C52.5535 190.206 46.4607 190.082 44.0043 190.304C41.548 190.527 41.5426 190.042 39.5577 189.77C37.5727 189.499 36.0102 190.698 33.5908 190.528C31.1715 190.359 30.8089 189.723 28.0384 189.866C25.2677 190.009 22.495 189.574 21.2613 189.835C20.0277 190.097 19.8975 189.307 18.1457 189.482C16.3939 189.658 15.332 189.554 13.8 189.297C12.2678 189.041 7.56029 188.821 5.84864 189.137C4.13701 189.452 2.1849 188.905 1.01086 188.775C0.645209 188.734 0.357431 188.679 0.136818 188.621C0.0433557 188.597 3.39493e-05 188.546 0 188.495C0.000156928 188.432 0.0672738 188.371 0.187295 188.363C0.770395 188.324 1.64185 188.223 2.67127 187.995C4.59091 187.57 4.80077 188.04 7.39282 187.822C9.98503 187.603 11.543 187.167 14.593 187.449C17.6428 187.731 18.3434 186.551 22.6487 187.22C26.954 187.889 27.4075 186.654 31.698 186.49C35.9884 186.326 41.4041 187.007 43.9903 186.95C46.5766 186.894 50.0506 186.75 53.717 186.913C57.3834 187.076 61.9093 186.665 65.9563 186.956C70.0034 187.246 75.7254 187.613 78.3688 187.86C81.0121 188.106 81.6566 188.161 84.2009 188.01C85.6364 187.925 87.6037 188.003 89.2851 188.306C89.1269 188.234 89.4338 188.207 89.2492 188.081C89.0309 187.933 88.5953 187.844 88.8773 187.67C89.1414 187.506 88.1207 187.46 88.5432 187.252L88.7517 187.165C89.1664 186.958 88.0721 186.921 87.9182 186.691C87.7542 186.445 88.435 186.135 88.3785 185.987C88.322 185.839 88.1784 185.64 88.3413 185.431C88.5039 185.221 88.0932 184.962 88.3838 184.731C88.6744 184.499 89.0411 184.171 89.2871 184.02C89.5331 183.869 89.5888 183.832 89.4385 183.687C89.4206 183.669 89.4115 183.65 89.4086 183.631C89.3387 183.643 89.2626 183.656 89.1801 183.666C87.9196 183.822 86.8848 183.718 86.2352 183.996C84.9373 184.552 84.3855 184.766 82.747 184.442C81.1087 184.119 80.3368 184.854 79.3817 184.769C78.4266 184.684 78.442 184.251 73.5855 184.585C68.7291 184.919 66.0665 185.004 64.2274 185.085C62.3882 185.165 58.5479 184.789 55.5508 184.925C52.5535 185.06 46.4607 184.936 44.0043 185.158C41.548 185.381 41.5426 184.895 39.5577 184.624C37.5727 184.352 36.0102 185.552 33.5908 185.382C31.1715 185.213 30.809 184.577 28.0384 184.72C25.2677 184.863 22.495 184.428 21.2613 184.689C20.0278 184.951 19.8974 184.16 18.1457 184.335C16.3939 184.511 15.332 184.408 13.8 184.151C12.2678 183.895 7.56029 183.675 5.84864 183.991C4.13703 184.306 2.1849 183.759 1.01086 183.629C0.645229 183.588 0.357426 183.533 0.136818 183.475C0.0433557 183.451 3.39493e-05 183.4 0 183.349C4.97578e-05 183.286 0.0671775 183.225 0.187295 183.217C0.770389 183.178 1.64186 183.077 2.67127 182.849C4.59092 182.424 4.80073 182.893 7.39282 182.675C9.98503 182.457 11.543 182.021 14.593 182.303C17.6428 182.585 18.3435 181.404 22.6487 182.073C26.954 182.742 27.4075 181.508 31.698 181.344C35.9884 181.18 41.4041 181.861 43.9903 181.804C46.5766 181.748 50.0506 181.604 53.717 181.767C57.3834 181.93 61.9093 181.518 65.9563 181.809C70.0034 182.1 75.7254 182.467 78.3688 182.713C81.0121 182.959 81.6566 183.015 84.2009 182.864C85.6634 182.778 87.6783 182.859 89.38 183.177C89.6272 183.223 89.7862 183.276 89.8675 183.328C89.8283 183.285 89.7966 183.196 89.7912 183.067C89.7526 182.158 89.6509 180.8 89.4232 179.195C89.3942 178.991 89.3693 178.799 89.3482 178.617C89.1219 176.676 89.3144 175.924 89.3103 173.876C89.3092 173.312 89.2931 172.649 89.2492 171.837C89.031 167.797 88.5952 165.37 88.8773 160.617C88.9005 160.225 88.9139 159.859 88.9191 159.512C88.9775 155.646 88.0336 154.219 88.6475 148.062C89.3164 141.353 88.0824 140.646 87.9182 133.96C87.8379 130.687 87.9611 126.994 88.1002 123.604C86.0009 123.517 84.1638 123.453 82.8181 123.472C78.7875 123.528 73.3737 123.672 67.6598 123.509C61.9459 123.346 54.8923 123.758 48.585 123.467C42.5407 123.189 34.0993 122.84 29.7805 122.595C29.5928 122.584 29.4128 122.574 29.2412 122.563C25.1219 122.317 24.1178 122.262 20.1528 122.412C17.8737 122.498 14.7339 122.417 12.0818 122.099C10.7471 121.939 11.0493 121.717 12.3927 121.61C14.3571 121.455 15.9698 121.558 16.982 121.28C19.0047 120.724 19.8648 120.51 22.4182 120.834C24.9714 121.158 26.1747 120.423 27.6631 120.507C28.3805 120.548 28.7465 120.67 29.7805 120.748C30.8919 120.831 32.7752 120.864 36.6951 120.691C44.2634 120.357 48.4127 120.272 51.2789 120.192C54.145 120.111 60.1302 120.488 64.8013 120.352C69.4724 120.216 78.9681 120.34 82.7962 120.118Z" fill="black"/>
<path d="M47.887 145.554C48.9347 144.812 49.5436 144.482 51.1261 144.957C52.6345 145.493 53.638 145.211 54.4928 145.879C55.0785 146.525 55.3537 146.618 56.7908 149.309C56.9899 149.66 56.9011 150.396 56.6925 150.668C56.5032 150.973 56.3545 151.095 56.2276 151.22C55.9739 151.455 55.7832 151.612 55.5966 151.794C54.0432 153.318 54.1834 154.937 54.2059 156.179C54.2476 156.878 54.3468 157.404 54.4696 157.812C54.5891 158.21 54.7339 158.736 55.0195 159.183C55.1644 159.41 55.3416 159.621 55.592 159.824C55.7191 159.926 55.8602 160.023 56.0562 160.143C56.161 160.208 56.2635 160.263 56.4687 160.4C56.5843 160.49 56.7076 160.532 56.9967 160.892C57.1199 161.051 57.3397 161.437 57.3381 161.897C57.3353 162.383 57.1634 162.684 57.0253 162.887C56.5083 163.587 55.9701 164.282 55.4565 164.932C54.5954 166.013 53.0195 167.67 50.7668 168.501C48.5506 169.351 46.2591 168.935 45.0862 168.703C43.6463 169.116 43.2159 168.753 41.6173 168.441C39.7831 167.946 37.6847 168.396 35.8178 166.528C34.1691 164.606 34.5134 163.954 33.2495 161.688C32.0507 159.324 32.1322 156.718 31.7578 155.657C31.6904 155.465 31.6615 155.298 31.6568 155.145L31.6515 155.024C31.7034 154.292 32.1896 154.019 32.2001 152.71C32.2602 151.085 32.6712 150.048 33.6221 148.896C34.0883 148.326 35.1214 147.186 36.484 146.582C37.826 145.946 39.2891 145.803 40.0605 145.636C41.6513 145.283 43.3362 146.198 44.2487 146.617C44.5509 146.75 44.7664 146.882 44.9288 147.003C44.9441 147.015 44.9561 147.028 44.9667 147.041C44.9984 146.94 45.1692 146.788 45.4694 146.611C46.4558 146.054 47.3665 145.939 47.887 145.554ZM53.8877 148.047C52.5372 146.57 51.7847 146.367 49.7606 146.472C48.5729 146.581 46.9475 146.866 45.492 147.13C45.2284 147.182 45.066 147.179 44.9979 147.135C44.9959 147.144 44.9948 147.153 44.9893 147.161C44.9773 147.19 44.9697 147.221 44.9208 147.228C44.8971 147.245 44.8468 147.245 44.796 147.23C44.3191 147.099 43.5746 146.977 42.6873 147.031C41.0707 147.204 40.9117 146.617 38.8583 147.056C36.8694 147.702 36.187 148.559 34.9404 150.351C33.9921 152.054 34.6733 152.941 34.5167 155.024L34.5107 154.894C34.5304 155.359 34.5271 155.875 34.5067 156.494C34.5467 160.044 35.8696 160.241 37.6748 162.602C39.3562 164.826 42.6025 166.121 44.4692 165.336L45.0617 165.16L45.4841 165.326C45.6412 165.381 45.7856 165.426 45.9231 165.462C47.8636 166.005 49.9665 165.732 52.0978 163.876C52.6014 163.46 53.084 162.937 53.547 162.348C52.9451 161.915 52.4011 161.329 52.0141 160.692C51.2289 159.401 51.0186 158.004 51.0445 156.802C51.0493 156.595 51.0598 156.395 51.075 156.179C51.1724 154.857 51.4717 153.286 52.3449 151.925C52.7748 151.248 53.348 150.664 53.9283 150.234C54.2163 150.018 54.51 149.833 54.7359 149.688C54.7516 149.678 54.7667 149.667 54.7817 149.657C54.5242 148.976 54.1957 148.433 53.8877 148.047Z" fill="white"/>
<path d="M54.2859 135.94C54.2792 136.083 54.2851 136.149 54.2927 136.232C54.3634 136.932 53.8851 136.81 53.4822 137.195C53.0765 137.557 54.0539 138.369 53.6022 138.911C53.141 139.431 52.5612 139.178 52.2633 139.854C51.9352 140.557 51.0651 140.767 50.9616 141.169C50.9383 141.255 50.8958 141.298 50.843 141.315C50.6449 141.373 50.3097 141.04 50.0889 141.34C49.7992 141.718 49.4873 141.756 49.0429 141.667C48.5884 141.601 47.514 141.673 47.1521 142.02C46.7779 142.394 46.2527 141.868 46.0013 141.727C45.9172 141.684 45.8527 141.624 45.808 141.563C45.7875 141.536 45.7819 141.485 45.7898 141.436C45.6677 141.443 45.5588 141.37 45.5131 141.226C45.4134 140.911 45.5744 140.705 45.3455 140.487C44.8914 140.046 44.7348 139.823 45.1766 139.553C45.6161 139.3 45.0178 138.843 45.2011 138.648C45.4022 138.462 45.7057 138.66 46.1075 137.448C46.2429 137.081 46.4 136.77 46.559 136.507C46.9437 135.884 47.3091 135.545 47.5803 135.289C47.9816 134.902 49.1099 134.748 49.835 134.419C50.5301 134.081 51.7995 133.987 52.7473 133.941L54.179 133.796L54.2859 135.94ZM49.8488 137.858C49.6432 137.986 49.4346 138.105 49.206 138.157C49.0117 138.203 48.7949 138.276 48.5762 138.377C48.0248 138.629 47.4733 139.082 47.1501 139.343C46.6964 139.711 46.5858 139.84 46.5584 140.383C46.5513 140.551 46.4943 140.73 46.3876 140.908C46.7126 140.532 46.8048 140.962 47.2677 140.668C47.737 140.348 47.8465 139.864 48.4598 139.905C48.9857 139.911 48.7636 139.177 49.1536 139.004C49.2342 138.969 49.3483 138.957 49.5237 138.964C50.2929 138.933 49.9639 138.39 49.8488 137.858Z" fill="white"/>
</svg>
