<svg width="128" height="212" viewBox="0 0 128 212" fill="none" xmlns="http://www.w3.org/2000/svg">
<path d="M92.5934 195.342L90.7383 176.413L89.2084 135.806L89.2084 130.337L80.3351 131.471L73.6348 128.542L68.7873 131.055L61.3098 128.542L55.4631 131.055L48.9911 128.542L44.4928 130.337L38.6335 127.516L38.6337 131.471L32.115 198.573C35.3192 198.905 39.4617 199.337 43.7662 199.789C54.4943 200.918 66.2287 202.178 66.9525 202.349C67.9666 202.588 85.144 197.778 92.5934 195.342Z" fill="#E7DC78"/>
<path d="M72.9066 127.137C72.1418 127.584 71.3429 128.025 70.5883 128.357C70.0573 128.591 69.3902 128.917 68.6676 129.279C66.9663 128.693 65.2108 128.089 64.3021 127.649C62.9853 127.01 62.6575 127.224 61.7601 127.202L61.3448 127.032L60.7513 127.243C60.6159 127.358 60.4581 127.482 60.2624 127.615C59.0781 128.419 57.5874 127.754 56.0803 128.587C55.5865 128.859 55.2566 129.117 54.9702 129.362C54.6225 129.286 54.2264 129.157 53.7281 128.921C52.102 128.149 50.2997 127.828 49.4536 127.35L49.0724 127.173L48.5175 127.354C48.4297 127.375 48.3466 127.39 48.2694 127.397C47.3614 127.478 47.5686 128.246 46.3514 128.543C45.4958 128.752 44.9158 128.999 44.3297 129.35C44.293 129.342 44.2561 129.333 44.2186 129.325C43.1296 129.085 40.0306 127.837 39.0754 127.027C39.0268 126.986 38.9766 126.946 38.9254 126.908L38.0249 126.407L37.96 127.516C37.741 128.681 38.2399 129.966 38.3631 130.755C38.4036 131.014 38.4593 131.218 38.5169 131.374C38.5404 131.438 38.5889 131.467 38.6376 131.469C38.636 131.47 38.6344 131.471 38.6328 131.472C38.63 131.472 38.6271 131.47 38.6243 131.47C38.5618 131.464 38.4947 131.517 38.4766 131.621C38.3886 132.128 38.213 132.882 37.8988 133.761C37.313 135.401 37.7626 135.631 37.3249 137.88C36.8872 140.129 36.3205 141.45 36.3418 144.149C36.363 146.847 35.1283 147.347 35.4279 151.182C35.7273 155.017 34.46 155.295 33.9316 159.037C33.4033 162.778 33.6202 167.587 33.344 169.846C33.0678 172.106 32.6293 175.134 32.4795 178.361C32.3297 181.588 31.535 185.513 31.48 189.085C31.4352 191.998 31.3466 195.891 31.3261 198.497L31.2884 199.323L32.0335 199.361C32.6221 199.37 33.1476 199.374 33.5792 199.373C35.9176 199.369 36.4872 199.373 38.6984 199.755C39.9697 199.975 41.7409 200.078 43.2633 199.919C43.5333 199.891 43.689 199.842 43.7461 199.783C43.7557 199.786 43.7652 199.789 43.7752 199.79C43.7872 199.791 43.7993 199.788 43.8111 199.785C43.6285 199.889 43.951 200.046 44.6461 200.191C46.1574 200.507 47.4217 200.537 48.18 200.897C49.6944 201.616 50.3406 201.899 52.3599 201.789C54.3759 201.68 55.2361 202.512 56.3994 202.553C57.565 202.596 57.6008 202.152 63.4364 203.144C64.6198 203.351 65.9205 203.559 66.6291 203.719C67.2542 203.824 67.2574 203.755 67.4714 203.754C67.6182 203.742 67.7455 203.728 67.8896 203.71C68.1208 203.682 68.3807 203.641 68.5962 203.607C69.0566 203.532 69.466 203.458 69.867 203.381C70.6539 203.232 71.3779 203.081 72.009 202.945C73.2952 202.668 74.3078 202.432 75.1779 202.232C77.3785 201.729 81.7998 200.105 85.3536 199.199C87.2924 198.706 90.3109 197.808 93.1076 196.915L94.3241 196.567L94.24 195.181C94.0195 192.778 93.8277 190.52 93.7957 189.16C93.7252 186.16 93.2416 186.201 92.7357 183.821C92.2298 181.44 93.2373 179.428 92.7811 176.51C92.7654 176.41 92.7496 176.313 92.7334 176.218L92.7412 176.338C92.447 173.661 91.8396 173.159 91.855 169.896C91.8709 166.517 91.309 163.157 91.5136 161.645C91.7182 160.133 90.9223 160.004 91.0173 157.864C91.1123 155.725 90.9607 154.436 90.6337 152.58C90.3067 150.724 89.8713 145 90.1081 142.904C90.3449 140.808 89.7086 138.451 89.525 137.026C89.4678 136.583 89.3993 136.234 89.3316 135.968C89.3029 135.855 89.2495 135.804 89.1992 135.806L89.1958 135.807C89.196 135.795 89.1941 135.784 89.1913 135.774C89.3158 135.887 89.4434 135.691 89.5165 135.273C89.6723 134.38 89.5677 133.647 89.8459 133.187C90.402 132.268 90.6154 131.878 90.2918 130.718C90.2542 130.583 90.2309 130.456 90.2189 130.337L90.2885 129.258L89.0802 129.334C88.1907 129.54 87.6262 129.041 87.0427 129.191C86.3829 129.361 86.4482 129.79 82.9951 129.894C82.1268 129.92 81.3579 129.952 80.6725 129.982C79.2717 129.238 78.3035 128.755 77.5556 128.371C76.8445 128.007 75.578 127.586 74.2689 127.091L73.6886 126.792L72.9066 127.137ZM48.2796 134.89C48.5196 135.084 48.8294 135.379 49.1456 135.791C49.8226 136.671 50.1543 136.321 51.246 137.202C52.3378 138.083 52.841 138.878 54.3947 139.448C55.1954 139.742 55.5131 140.206 55.9516 140.664L56.9328 141.124L57.5155 140.493C58.0511 140.23 58.6146 139.864 59.2193 138.872C59.809 137.905 60.3466 137.563 60.9394 137.319C60.969 137.34 60.9982 137.362 61.029 137.382C62.9373 138.666 65.7886 139.517 66.96 140.254C67.2759 140.453 67.6183 140.674 67.9852 140.908L69.0763 141.416L69.7657 140.791C70.7342 140.119 71.8555 139.319 72.9207 138.355C73.1786 138.122 73.4588 137.894 73.7538 137.669C74.7728 138.235 75.8246 138.806 76.8997 139.176C77.999 139.554 79.335 140.027 80.5513 140.449L81.097 140.667L81.4551 140.467C82.415 139.871 83.2862 139.321 83.8409 138.943C85.0271 138.136 85.3183 137.944 86.6196 137.52C87.3677 137.276 88.3158 136.758 89.0138 136.093C89.037 136.071 89.0578 136.049 89.0764 136.029C89.0763 136.032 89.0756 136.035 89.0755 136.039C89.0638 136.75 89.002 137.815 88.8217 139.077C88.4854 141.431 88.964 141.669 88.8648 144.834C88.7657 147.998 88.4015 149.911 88.8232 153.615C89.245 157.318 88.0976 158.216 88.9635 163.433C89.8295 168.65 88.6168 169.249 88.6495 174.479C88.6536 175.132 88.6713 175.805 88.6998 176.49L88.7083 176.612C89.1967 181.397 90.2363 186.721 90.4562 189.471C90.5664 190.85 90.6815 192.438 90.825 194.161C89.4665 194.592 88.0339 195.049 86.6005 195.536C82.3774 196.969 76.9734 198.085 72.3071 199.602C71.4558 199.878 70.5461 200.167 69.6075 200.45C69.1491 200.588 68.6523 200.733 68.1929 200.859C67.9456 200.926 67.7142 200.987 67.4931 201.04C67.3924 201.065 67.2567 201.094 67.1799 201.111C67.1281 201.121 67.082 201.129 67.0625 201.133C67.0495 201.143 67.0093 201.123 67.2311 201.169C63.3605 200.833 59.9512 200.726 57.8508 200.642C54.6177 200.539 53.8331 200.511 50.7651 200.033C49.0029 199.759 46.5508 199.581 44.4547 199.679C44.1607 199.693 43.9656 199.724 43.8588 199.763C43.8869 199.742 43.9096 199.709 43.9169 199.664C43.9839 199.244 44.1277 198.619 44.4052 197.889C44.9227 196.526 44.4648 196.343 44.8092 194.479C45.1536 192.616 45.6652 191.517 45.5328 189.288C45.4048 187.129 46.5378 186.66 46.1933 183.756L46.1177 183.179C45.7762 180.285 46.9637 179.961 47.3255 176.961C47.699 173.864 47.2843 169.894 47.4671 168.024C47.6498 166.154 47.9632 163.647 47.9799 160.98C47.9966 158.313 48.628 155.062 48.5358 152.11C48.4436 149.159 48.3571 144.989 48.2409 143.057C48.1247 141.125 48.1007 140.655 48.375 138.821C48.5327 137.768 48.5502 136.303 48.3164 135.049C48.3053 134.989 48.2925 134.936 48.2796 134.89ZM38.9448 133.946C38.9909 133.988 39.047 134.03 39.1181 134.065C39.619 134.317 38.7793 135.037 39.5942 135.277L39.762 135.321C40.5722 135.561 39.661 136.29 39.9162 136.95C40.1797 137.63 41.2476 137.991 41.4416 138.377C41.619 138.73 41.8048 139.227 42.1993 139.624L43.8793 141.062L44.6223 139.93C44.6544 139.889 44.6853 139.846 44.715 139.801C45.0629 139.277 45.8971 139.089 46.2078 138.427C46.5184 137.765 46.9869 136.862 47.1526 136.388C47.3104 135.936 47.3574 135.813 47.7209 135.659C47.6099 136.34 47.5959 136.906 47.3454 137.272C46.7271 138.174 46.4872 138.56 46.7301 139.769C46.9728 140.977 46.2011 141.487 46.2389 142.185C46.2767 142.882 46.7108 142.901 46.1398 146.396C45.5689 149.892 45.3535 151.815 45.1835 153.142C45.0135 154.469 45.2013 157.277 44.9192 159.439C44.6371 161.601 44.4636 166.024 44.1216 167.789C43.7795 169.553 44.2636 169.59 44.4373 171.046C44.611 172.502 43.338 173.554 43.3889 175.318C43.4397 177.082 44.0571 177.388 43.7788 179.385C43.5007 181.383 43.7986 183.42 43.4775 184.296C43.1564 185.173 43.9392 185.32 43.6784 186.578C43.4177 187.835 43.4682 188.612 43.6496 189.739C43.831 190.866 43.8198 194.29 43.4214 195.509C43.0228 196.728 43.4739 198.18 43.5461 199.039C43.5644 199.257 43.5958 199.438 43.6318 199.586C43.5244 199.528 43.3576 199.469 43.1395 199.414C42.0525 199.144 41.1365 199.152 40.597 198.815C39.5193 198.143 39.0572 197.88 37.5899 198.053C36.1224 198.225 35.5229 197.423 34.6781 197.42C34.2462 197.419 34.0266 197.529 33.3521 197.536C33.4139 197.105 33.4928 196.608 33.5942 196.035C34.3401 191.814 34.651 189.49 34.8873 187.887C35.1236 186.284 35.0756 182.885 35.4659 180.273C35.8562 177.662 36.2507 172.313 36.6812 170.183C37.1116 168.053 36.6288 168.002 36.5276 166.237C36.4265 164.473 37.7533 163.22 37.7904 161.085C37.8275 158.949 37.2249 158.57 37.6031 156.157C37.9812 153.745 37.7844 151.275 38.1494 150.22C38.5143 149.165 37.7391 148.974 38.0627 147.457C38.3865 145.94 38.3738 145 38.2484 143.633C38.1231 142.266 38.3054 138.122 38.7651 136.654C39.0374 135.784 39.0141 134.811 38.9448 133.946ZM39.49 128.687C41.0493 129.68 41.8542 130.551 43.9226 131.234C43.9629 131.247 44.0024 131.261 44.0412 131.274L44.5263 131.471L44.8783 131.303C46.4678 130.461 47.3654 130.99 49.2405 130.01C52.2266 130.483 52.162 131.7 54.7381 132.921L55.6397 133.206L56.2535 132.894C56.3158 132.873 56.3793 132.85 56.4437 132.826C58.1396 132.203 59.9761 131.196 61.5451 130.339C62.2088 130.504 62.7863 130.662 63.2246 130.824C64.5981 131.334 66.3346 132.024 68.2598 132.624L69.0395 132.832L69.5496 132.525C69.9933 132.282 70.441 132.027 70.8881 131.758C71.7185 131.259 72.6608 130.793 73.6406 130.321C74.8661 130.899 76.1182 131.462 77.365 131.863C78.1193 132.106 78.9584 132.379 79.8159 132.658L80.2296 132.809L80.4992 132.756C82.8167 132.228 85.2685 131.671 86.592 131.322C87.5804 131.061 88.1646 130.909 88.7789 130.811C88.7652 131.085 88.7439 131.389 88.714 131.747C88.6276 132.782 88.7091 134.209 89.0269 135.414C89.0616 135.546 89.1009 135.642 89.1397 135.706C89.0639 135.658 88.9152 135.651 88.7149 135.691C88.0366 135.827 87.5754 136.15 87.1442 136.04C86.2827 135.819 85.9258 135.746 85.261 136.403C84.5965 137.059 83.9173 136.559 83.4869 136.846C83.0859 137.115 83.22 137.472 81.2154 138.14C79.3956 136.932 78.3076 136.299 77.5419 135.834C76.8889 135.436 75.5388 134.997 74.3259 134.428L73.6185 133.995L72.6994 134.581C72.3961 134.826 72.0879 135.055 71.7823 135.25C71.0004 135.749 69.8336 136.651 68.7598 137.445C68.7162 137.411 68.6738 137.38 68.6352 137.348C67.6066 136.502 67.3624 136.921 66.3067 136.629C65.2513 136.336 65.1231 134.88 63.9167 134.383C63.1053 134.049 62.6205 134.146 62.0206 133.983L61.2654 133.46L60.3469 134.167C60.1823 134.421 59.9511 134.683 59.5615 134.975C58.3714 135.869 57.5705 137.19 56.9073 137.442C56.5183 137.59 56.5221 137.868 56.4293 138.174C55.9726 137.897 55.5327 137.764 54.951 137.635C54.1129 137.448 51.8229 136.381 51.1877 135.65C50.5525 134.919 49.3743 134.873 48.7656 134.672C48.5761 134.609 48.4152 134.58 48.2843 134.571C48.2301 134.567 48.1853 134.598 48.1598 134.64C48.0955 134.538 47.9818 134.478 47.865 134.487C47.6055 134.509 47.5455 134.7 47.2807 134.563C46.7515 134.288 46.5416 134.189 46.5521 134.611C46.5627 135.033 45.9801 134.567 45.9174 134.735C45.8551 134.904 46.1438 135.227 45.3195 135.509C44.4947 135.791 44.1072 136.019 43.8255 136.161C43.7983 136.175 43.7723 136.194 43.7458 136.217C43.6266 136.223 43.4945 136.225 43.3619 136.186C42.9532 136.066 43.7994 135.179 43.4346 134.942C43.0692 134.705 42.5088 135.012 42.3694 134.552C42.2298 134.092 41.6122 133.956 41.7136 133.64C41.8149 133.324 41.1489 133.75 41.131 133.411C41.1132 133.072 40.9289 132.984 40.5737 132.919C40.2186 132.853 39.5992 132.33 39.7007 131.918C39.8026 131.506 39.1683 131.546 38.9514 131.458C38.8839 131.43 38.8111 131.422 38.7429 131.424C38.7416 131.424 38.7403 131.424 38.7389 131.424C38.7576 131.403 38.7721 131.374 38.7755 131.338C38.814 130.925 38.9155 130.308 39.1431 129.579C39.2735 129.161 39.318 128.858 39.3256 128.585C39.3787 128.618 39.4338 128.651 39.49 128.687Z" fill="black"/>
<path d="M48.8653 31.2662C48.9279 31.2662 48.9892 31.2714 48.9975 31.2802C49.036 31.3233 49.1378 31.388 49.3654 31.4642C49.7901 31.6063 49.3213 31.6216 49.5395 31.8135C49.7577 32.0054 50.1934 32.121 49.9114 32.3468C49.6302 32.5725 50.8098 32.6246 50.1412 32.9433C49.4723 33.262 50.7063 33.2957 50.8704 33.6134C51.0343 33.931 50.3537 34.3318 50.4102 34.5233C50.4667 34.7148 50.6103 34.9718 50.4474 35.2433C50.2845 35.5147 50.6962 35.8502 50.4055 36.1498C50.1149 36.4494 49.7476 36.8726 49.5016 37.0684C49.2557 37.264 49.2 37.3119 49.3502 37.5001C49.4366 37.6084 49.3551 37.758 49.0373 37.884C48.8775 37.9473 48.6551 37.9325 48.5485 37.8687C48.3928 37.7754 48.4965 37.6989 48.2184 37.6509C47.6624 37.5548 47.4487 37.5138 47.7721 37.3925C48.0958 37.2712 47.3607 37.2141 47.4453 37.1434C47.5304 37.0729 47.9634 37.0737 47.6293 36.7144C47.2952 36.355 47.2101 36.1578 47.1299 36.0217C47.0496 35.8855 47.4256 35.6013 47.2899 35.3794C47.154 35.1575 47.2787 34.7058 47.0561 34.524C46.8339 34.3422 47.3195 34.3421 47.5908 34.1952C47.8618 34.0483 46.6634 33.9326 46.8323 33.7535C47.0018 33.5744 47.6374 33.5475 47.4945 33.3424C47.3514 33.1373 47.7864 32.9316 47.525 32.8403C47.2646 32.7491 48.0535 32.7393 47.879 32.6098C47.7036 32.4802 47.8062 32.4011 48.063 32.2877C48.3199 32.1743 48.5393 31.826 48.2237 31.6993C47.9087 31.5726 48.4555 31.4282 48.5857 31.3413C48.6261 31.3142 48.6816 31.2925 48.7391 31.2762C48.7636 31.2693 48.8149 31.2662 48.8653 31.2662ZM71.8428 31.2662C71.9056 31.2662 71.9677 31.2706 71.9756 31.2789C72.0141 31.3188 72.1158 31.379 72.3436 31.4495C72.7676 31.5811 72.2989 31.5953 72.5169 31.773C72.735 31.9507 73.1709 32.0575 72.8895 32.2665C72.6075 32.4756 73.7875 32.5239 73.1187 32.8191C72.4498 33.1142 73.6842 33.1453 73.8486 33.4394C74.0126 33.7334 73.332 34.1048 73.3876 34.2822C73.4441 34.4595 73.5881 34.6978 73.4255 34.949C73.2626 35.2004 73.6735 35.5111 73.383 35.7885C73.0924 36.066 72.7251 36.458 72.4791 36.6393C72.233 36.8206 72.1773 36.8654 72.3276 37.0398C72.4139 37.1401 72.3325 37.2778 72.0148 37.3945C71.855 37.4531 71.6326 37.4402 71.526 37.3812C71.3702 37.2948 71.4741 37.2238 71.1959 37.1793C70.6397 37.0903 70.4265 37.0519 70.7502 36.9395C71.0732 36.8273 70.3382 36.7745 70.4228 36.7091C70.5076 36.6436 70.941 36.6448 70.6068 36.3119C70.2727 35.9792 70.1875 35.7964 70.1073 35.6703C70.0271 35.5442 70.4033 35.2807 70.2674 35.0752C70.1315 34.8697 70.2561 34.452 70.0336 34.2835C69.8111 34.1151 70.2969 34.1148 70.5683 33.9787C70.8395 33.8426 69.6408 33.7354 69.8098 33.5696C69.9792 33.4038 70.6147 33.3787 70.4726 33.189C70.3296 32.9991 70.7641 32.8087 70.5032 32.7241C70.2417 32.6395 71.032 32.6303 70.8565 32.5102C70.681 32.3901 70.7842 32.3177 71.0411 32.2127C71.2979 32.1076 71.517 31.7848 71.2019 31.6674C70.8863 31.5501 71.4331 31.4158 71.5632 31.3353C71.6036 31.3103 71.6591 31.2907 71.7166 31.2755C71.741 31.2691 71.7924 31.2662 71.8428 31.2662Z" fill="black"/>
<path d="M60.4564 40.0467C60.5255 40.1249 60.6728 40.2278 60.9469 40.2928C61.4572 40.4039 61.0412 40.6278 61.4258 40.9044C61.815 41.1748 62.3036 41.1493 62.3242 41.7023C62.3642 42.27 63.3759 41.667 63.2509 42.5968C63.1613 43.549 64.1643 42.8216 64.704 43.1521C65.0545 43.3619 65.2793 43.9184 65.3002 44.1311C65.6328 44.438 65.9719 44.8519 66.1955 45.2788C66.5948 45.9169 66.4833 47.0001 66.1786 47.4982C65.8836 48.0523 65.5366 48.3601 65.1603 48.5752C64.4253 48.9765 63.8719 49.7525 63.0526 49.8356C62.2472 49.9144 61.1709 49.9577 60.6538 49.8902C60.1394 49.8229 60.0197 49.8069 59.6528 50.0966C59.446 50.2611 59.0867 50.2974 58.7093 50.0867C58.5179 49.9811 58.482 49.7587 58.589 49.6114C58.7457 49.3958 58.9373 49.4408 58.9552 49.1407C58.9849 48.5423 58.9873 48.3155 59.3576 48.5268C59.7231 48.739 59.5892 48.0042 59.7635 48.0289C59.9342 48.0527 60.1022 48.4621 60.7079 47.8518C61.3031 47.2394 61.6256 46.9782 61.833 46.7817C62.0263 46.5983 62.6643 46.624 62.9241 46.3352C62.5867 46.3941 62.2075 46.4954 62.0703 46.2309C61.8461 45.7684 62.2673 45.2881 61.8164 45.0023C61.3637 44.71 61.3838 44.0346 61.0412 44.0159C60.6939 43.9907 61.3118 43.4999 60.9854 43.3465C60.6581 43.1886 60.6309 42.9616 60.6983 42.5907C60.7572 42.2172 60.5443 41.4025 60.1328 41.2602C59.7092 41.1138 60.0674 40.5554 60.1192 40.3228C60.1341 40.2482 60.1687 40.1815 60.21 40.1262C60.2276 40.1028 60.2737 40.079 60.3211 40.0621C60.3802 40.0411 60.442 40.0306 60.4564 40.0467ZM63.1538 46.3053C63.1449 46.4663 63.1625 46.6401 63.1806 46.7498C63.2248 47.0234 63.3238 47.0607 63.3997 47.034C63.4798 47.0053 63.5647 46.9064 63.6201 46.7933C63.5881 46.6905 63.5504 46.581 63.5056 46.4749C63.4519 46.3311 63.3192 46.2971 63.1538 46.3053ZM63.3001 45.8729C63.3088 45.8558 63.2767 45.8716 63.236 45.9594C63.2698 45.92 63.2953 45.8901 63.3001 45.8729Z" fill="black"/>
<path d="M82.1568 20.1639C82.2606 19.9706 82.4817 19.929 82.6323 20.0443C82.8535 20.2171 82.809 20.4264 83.1105 20.4621C83.7115 20.5304 83.9492 20.5835 83.7182 20.9622C83.487 21.3437 84.2316 21.2914 84.1957 21.4909C84.1554 21.6855 83.7408 21.7832 84.2642 22.5854C84.7837 23.3949 84.9551 23.8671 85.097 24.1894C85.2385 24.5108 84.9894 25.2733 85.2086 25.7953C85.4312 26.3199 85.465 27.443 85.7426 27.8609C86.0217 28.2788 85.5401 28.3427 85.3155 28.7349C85.0903 29.1256 86.3151 29.2683 86.1969 29.7285C86.0779 30.1884 85.4533 30.3224 85.6483 30.8071C85.8435 31.2951 85.4596 31.8383 85.7406 32.0358C86.0221 32.2346 85.238 32.3326 85.4417 32.6316C85.6456 32.9325 85.5594 33.1329 85.3275 33.4319C85.0961 33.7304 84.9476 34.5937 85.2856 34.8771C85.5881 35.131 85.2054 35.4726 85.0392 35.6994C85.1713 35.6249 85.3257 35.523 85.4955 35.3825C86.0736 34.9205 86.1598 35.3786 86.974 35.1694C87.7908 34.9768 88.368 34.579 89.3178 35.0385C90.2076 35.5274 90.8403 34.414 92.001 35.6887C92.9657 37.0235 93.8457 36.0519 95.1458 37.4787C96.4352 39.0507 95.8662 41.4238 95.822 42.256C95.8175 42.5446 95.8107 42.8283 95.7801 43.1632C95.7182 43.8848 95.5665 44.7312 95.1651 45.5356C94.6199 46.6541 94.1888 48.3236 92.9581 49.2238C91.7766 50.1536 89.8768 50.8362 88.991 50.8822C88.1043 50.9516 87.9169 50.9442 87.15 51.2501C86.7101 51.4197 86.0232 51.4043 85.5015 51.0661C85.4964 51.0628 85.4917 51.0589 85.4869 51.0555C85.5335 51.5827 85.6453 52.3674 85.8781 53.2931C86.3119 55.0333 85.8472 55.2246 86.0514 57.5783C86.1179 58.3631 86.2062 59.0445 86.2812 59.7069V59.6903C86.4394 61.0777 86.4564 62.5485 85.5307 64.3893C84.0161 66.8835 84.3853 68.5725 80.3894 70.4033C76.4155 71.7102 76.3981 72.8649 72.3617 73.8802C68.3124 74.7793 63.2397 74.0981 60.8703 74.0609C60.6794 74.059 60.4818 74.057 60.2778 74.0542C57.9558 74.0235 55.0086 73.9379 51.902 73.3429C48.587 72.7122 44.2984 72.2215 40.8258 70.4432C37.3167 68.8606 32.9563 64.8784 32.5044 62.1132C32.2369 61.0853 32.2376 60.3222 32.3171 59.6585L32.3165 59.6903C32.37 58.7912 32.353 58.0286 32.2633 56.6544C32.177 55.3299 32.2584 53.5053 32.5762 51.9641C32.5994 51.8516 32.6246 51.7593 32.6499 51.6858C32.6157 51.7114 32.5751 51.7359 32.525 51.7522C32.1542 51.8711 31.8789 51.7171 31.6477 51.9561C31.1754 52.4296 30.933 52.596 30.5491 52.1527C30.1804 51.7084 29.7318 52.3257 29.4792 52.1408C29.2352 51.9371 29.4022 51.6207 27.9522 51.2156C26.4881 50.7478 25.7802 50.1348 25.3089 49.7491C24.8128 49.3485 24.3612 48.0911 23.8716 47.2439C23.2907 46.3834 23.0718 44.3881 22.8833 43.6109C22.883 43.6099 22.883 43.6086 22.8827 43.6076C22.6593 42.7999 23.1529 42.7977 23.4897 42.2088C23.8395 41.6588 22.7713 40.864 23.2646 40.0556C23.7829 39.2945 24.3828 39.5042 24.8134 38.6715C25.2981 37.8075 26.3237 37.5863 26.503 37.1618C26.7116 36.7197 27.1468 37.3727 27.5385 36.9779C27.9501 36.5848 28.3173 36.5586 28.8256 36.6657C29.3447 36.7485 30.6599 36.7237 31.127 36.3934C31.2544 36.2987 31.3895 36.2688 31.5248 36.2778C31.5107 36.2263 31.5573 36.1678 31.6742 36.0905C31.9977 35.8767 31.263 35.7755 31.3468 35.6509C31.4315 35.5261 31.8656 35.5279 31.5314 34.8937C31.1972 34.2595 31.1116 33.9119 31.0313 33.6717C30.9511 33.4315 31.328 32.9294 31.192 32.5379C31.0562 32.1464 31.1801 31.351 30.9576 31.0303C30.7351 30.7095 31.2209 30.7084 31.4922 30.4491C31.7634 30.1899 30.5647 29.986 30.7338 29.6701C30.9033 29.3541 31.5397 29.3067 31.3966 28.9448C31.2535 28.5829 31.6885 28.2206 31.4272 28.0595C31.1661 27.8984 31.9557 27.8817 31.7805 27.653C31.605 27.4242 31.7082 27.2852 31.9651 27.0851C32.222 26.885 32.4411 26.2707 32.1259 26.047C31.8103 25.8235 32.358 25.5681 32.4878 25.4148C32.5283 25.3671 32.5837 25.3293 32.6413 25.3005C32.6658 25.2884 32.7171 25.2826 32.7674 25.2826C32.83 25.2826 32.8916 25.2915 32.8996 25.3072C32.9381 25.3833 33.0398 25.4975 33.2676 25.6319C33.6918 25.8825 33.223 25.9099 33.4409 26.2483C33.6591 26.5868 34.0955 26.7904 33.8135 27.1887C33.5314 27.5871 34.7116 27.6785 34.0426 28.2408C33.3737 28.8031 34.6084 28.8626 34.7726 29.423C34.9365 29.9833 34.2558 30.6905 34.3123 31.0283C34.3688 31.3661 34.5124 31.82 34.3495 32.2988C34.1867 32.7777 34.5976 33.3689 34.307 33.8975C34.0163 34.4261 33.649 35.1735 33.403 35.5187C33.1572 35.8637 33.1021 35.9477 33.2523 36.2798C33.3387 36.4708 33.2571 36.7344 32.9395 36.9566C32.8836 36.9957 32.8197 37.0166 32.7562 37.0244C32.7561 37.0261 32.7563 37.0279 32.7562 37.0297C32.7598 37.0296 32.7638 37.029 32.7674 37.029C32.8301 37.0291 32.8917 37.0397 32.8996 37.0589C32.9382 37.1525 33.0399 37.2922 33.2676 37.4574C33.6921 37.7655 33.2229 37.7993 33.4409 38.2152C33.6455 38.6053 34.0417 38.8495 33.858 39.2819L33.7909 39.416C33.6037 39.8681 34.6906 39.9947 34.0426 40.664C33.3739 41.3549 34.6084 41.4279 34.7726 42.1165C34.9365 42.805 34.2561 43.6739 34.3123 44.0891C34.3688 44.5042 34.5124 45.0621 34.3495 45.6505C34.1866 46.239 34.5977 46.9656 34.307 47.6151C34.0163 48.2646 33.6491 49.1827 33.403 49.607C33.157 50.0312 33.102 50.1351 33.2523 50.5434C33.3385 50.7781 33.2569 51.1013 32.9395 51.3743C32.8819 51.4238 32.8157 51.4507 32.7502 51.4593C32.7523 51.4701 32.7536 51.4806 32.7542 51.4912C32.8745 51.3774 32.9951 51.6281 33.0657 52.1447C33.2214 53.2864 33.1175 54.2238 33.3957 54.812C33.9519 55.9875 34.1651 56.4875 33.8414 57.9715C33.6839 58.6938 33.7775 59.2302 33.9052 59.6903L33.9018 59.774C34.0136 60.1333 34.214 60.3903 34.2366 60.7224C34.2689 61.0526 34.178 61.2452 34.3189 61.7851C34.4749 62.3003 34.8491 63.2506 36.4104 64.5135C39.657 66.9129 42.0076 67.4432 43.4665 67.9559C44.9494 68.4372 48.0987 69.6812 50.7484 69.967C53.1795 70.2944 57.9492 70.8259 60.4107 70.7327C60.6151 70.7278 60.8019 70.7194 60.9686 70.7082C63.13 70.5434 63.1424 71.0232 64.9071 71.2687C66.6569 71.4938 68.0055 70.2264 70.067 70.1416C72.1424 70.0136 72.5835 70.6125 74.8662 69.8554C77.1121 69.0944 79.3517 68.3619 80.0215 67.5301C80.6441 66.7304 81.2829 67.2869 82.1395 66.0889C82.9187 64.8722 83.3818 64.2009 84.045 63.0729C84.3861 62.4987 84.8219 61.1228 84.8486 59.6903L84.8493 59.6817C84.9147 58.302 84.8944 56.9205 84.7437 56.1729C84.4328 54.6272 84.9678 52.8611 85.0844 51.7961C85.1209 51.4649 85.1725 51.2033 85.2272 51.003C85.25 50.9194 85.2991 50.8789 85.3487 50.8769V50.8755C85.3434 50.8758 85.3381 50.8774 85.3328 50.8775L85.2458 50.8709C85.2214 50.866 85.2041 50.8582 85.2 50.8483C85.16 50.7526 85.0558 50.6099 84.8254 50.4425C84.3959 50.1328 84.8647 50.0889 84.6387 49.6641C84.4267 49.2659 84.0254 49.0231 84.1991 48.5742L84.2628 48.4347C84.4401 47.9639 83.3501 47.8613 83.9799 47.1562C84.6288 46.4267 83.393 46.3862 83.2068 45.6857C83.0206 44.9854 83.6683 44.0696 83.5953 43.6448C83.5223 43.2208 83.3556 42.6549 83.4911 42.0441C83.6267 41.4324 83.1793 40.7077 83.434 40.0271C83.6893 39.346 84.0005 38.3815 84.2183 37.9296C84.4364 37.4779 84.4847 37.367 84.3067 36.9573C84.2043 36.7213 84.263 36.3838 84.5597 36.0799C84.6116 36.0269 84.6728 35.9954 84.735 35.981C84.7346 35.9787 84.7341 35.9765 84.7337 35.9743C84.7307 35.9746 84.7274 35.9761 84.7244 35.9763C84.6619 35.9808 84.5998 35.9733 84.5903 35.9524C84.5443 35.8504 84.4313 35.701 84.1904 35.534C83.7415 35.2229 84.2068 35.1493 83.9527 34.7031C83.698 34.2569 83.2401 34.0173 83.4738 33.4498C83.7064 32.8818 82.5212 32.866 83.1132 32.0398C83.703 31.2082 82.4665 31.2521 82.2212 30.5162C81.976 29.782 82.5346 28.752 82.4178 28.3025C82.3019 27.855 82.0758 27.2702 82.1388 26.6083C82.202 25.9429 81.6661 25.2285 81.82 24.4836C81.977 23.7373 82.12 22.6781 82.2444 22.1663C82.3705 21.6552 82.3934 21.5239 82.1275 21.1335C81.9736 20.908 81.9519 20.5535 82.1568 20.1639ZM32.4427 37.2429C32.3198 37.2957 32.1789 37.3779 32.0322 37.5032C31.5493 37.9313 31.4803 37.4574 30.84 37.743C30.2076 38.047 29.9615 38.5359 29.1995 38.4882C28.394 38.4943 28.7835 39.5731 27.7005 39.5163C26.537 39.6088 27.3283 40.6089 27.1479 41.2631C26.9574 41.9097 26.1546 42.907 26.236 43.5438C26.2362 43.5455 26.2365 43.5474 26.2367 43.5491C26.3041 44.1448 26.526 44.8583 26.6286 45.63C26.7414 46.4499 27.5735 47.0203 27.9855 47.8051C28.3834 48.6369 29.4266 49.6581 29.972 50.1244C30.5069 50.6004 30.6736 50.7114 31.3468 50.7321C31.6443 50.7383 31.9883 50.8413 32.3218 51.0482C32.293 50.9777 32.2463 50.9169 32.1199 50.8696C31.564 50.6613 31.3508 50.5732 31.6742 50.3103C31.9979 50.0474 31.2621 49.923 31.3468 49.7697C31.4315 49.6164 31.8654 49.619 31.5314 48.8399C31.1971 48.0604 31.1116 47.6327 31.0313 47.3375C30.9511 47.0423 31.328 46.4258 31.192 45.9448C31.0562 45.4637 31.1801 44.486 30.9576 44.0917C30.7351 43.6975 31.2209 43.6964 31.4922 43.3778C31.7635 43.0592 30.5643 42.8084 30.7338 42.42C30.9033 42.0318 31.5397 41.9734 31.3966 41.5287C31.2537 41.0842 31.6882 40.6395 31.4272 40.4415C31.1658 40.2435 31.9558 40.2225 31.7805 39.9414C31.605 39.6603 31.7083 39.4898 31.9651 39.244C32.222 38.9981 32.4414 38.2422 32.1259 37.9675C31.8383 37.7172 32.2659 37.4336 32.4427 37.2429ZM85.1402 36.228C85.1972 36.3634 85.2026 36.4781 85.4132 36.5435C85.9828 36.7207 86.2023 36.7996 85.8973 37.0934C85.5925 37.3872 86.3343 37.4679 86.26 37.6327C86.185 37.7975 85.7536 37.8211 86.1351 38.6091C86.5162 39.3983 86.624 39.8388 86.7202 40.1413C86.8165 40.4442 86.4728 41.1029 86.6312 41.5958C86.7906 42.0894 86.7089 43.1112 86.9467 43.5119C87.1846 43.9133 86.6996 43.9326 86.4406 44.2731C86.1817 44.6126 87.389 44.8313 87.233 45.2414C87.0767 45.651 86.4426 45.7306 86.5994 46.1879C86.7562 46.6454 86.3341 47.1187 86.6007 47.3169C86.8673 47.5162 86.0773 47.5577 86.26 47.8449C86.4425 48.132 86.3438 48.3116 86.0926 48.5715C85.8416 48.8327 85.6381 49.6175 85.9584 49.8965C86.1893 50.0979 85.9713 50.3267 85.7844 50.5129C86.0505 50.4479 86.2653 50.4501 86.3901 50.214C86.691 49.6198 86.7565 49.3963 87.2489 49.6196C87.7585 49.8311 87.749 49.0572 87.9928 49.0617C88.2312 49.0465 88.4625 49.5095 89.4035 48.5921C90.2761 47.6468 90.5804 47.0897 90.8075 46.7013C91.0182 46.3318 91.8571 45.7194 92.017 44.9372C92.1459 44.3843 92.4658 43.4192 92.5164 42.6452C92.5364 42.3802 92.5223 42.1781 92.4766 42.0149C92.2833 41.439 92.7652 41.467 92.9926 40.9536C93.194 40.4025 91.9473 40.3761 91.9419 39.9899C91.903 39.5666 92.3653 39.0883 91.8243 38.7485C91.3123 38.4508 90.9113 37.7635 90.5093 37.8758C90.1319 38.0015 90.3847 37.2457 89.8724 37.2661C89.3707 37.2994 89.1296 37.1417 88.7486 36.8132C88.3807 36.4681 86.9951 36.1422 86.4984 36.4817C86.0475 36.7796 85.5081 36.356 85.1402 36.228Z" fill="black"/>
<path d="M32.7397 18.7813C33.2843 18.6565 33.4957 18.6163 33.2112 18.7873C32.9263 18.9566 33.637 18.7644 33.5699 18.8325C33.5023 18.9004 33.0889 19.0274 33.4716 19.1393C33.8551 19.2549 33.9713 19.3556 34.0713 19.4169C34.171 19.4798 33.853 19.7477 34.0169 19.848C34.1829 19.9516 34.1243 20.2559 34.3649 20.3235C34.6062 20.391 34.1316 20.4922 33.8827 20.6324C33.6335 20.7716 34.8256 20.6217 34.6797 20.7692C34.5333 20.9154 33.9084 21.0358 34.07 21.1391C34.2318 21.2469 33.8193 21.434 34.0859 21.4566C34.3522 21.4799 33.57 21.5879 33.7539 21.6445C33.9376 21.7033 33.8406 21.7668 33.5925 21.8631C33.345 21.9616 33.144 22.1791 33.463 22.239C33.7826 22.3028 33.239 22.4245 33.1096 22.4754C33.0694 22.4932 33.0144 22.5066 32.9569 22.5159C32.9324 22.5199 32.8811 22.5219 32.8307 22.5219C32.7684 22.5219 32.7073 22.5191 32.6985 22.5146C32.6599 22.4921 32.5575 22.4581 32.3286 22.4269C31.9017 22.3742 32.3702 22.3455 32.1459 22.2596C31.9211 22.1754 31.4827 22.1653 31.7507 22.0244C32.0179 21.8755 30.8447 21.9974 31.4864 21.7541C32.1251 21.4961 30.901 21.6601 30.7146 21.5416C30.5285 21.4239 31.1578 21.1016 31.0832 21.0149C31.0079 20.9308 30.84 20.8388 30.9664 20.6682C31.0922 20.4943 30.6527 20.4342 30.8926 20.2133C31.1329 19.9902 31.4205 19.6704 31.6226 19.494C31.8252 19.3193 31.8686 19.2738 31.6936 19.2237C31.5931 19.194 31.6452 19.0938 31.9214 18.9221C32.0605 18.8357 32.2727 18.7688 32.3857 18.7687C32.5508 18.7689 32.4672 18.8443 32.7397 18.7813ZM37.8278 11.16C38.0075 11.1209 38.2137 11.2084 38.2894 11.3241C38.4005 11.4927 38.2718 11.5629 38.5212 11.702C39.0206 11.9772 39.2119 12.083 38.8586 12.151C38.5058 12.2223 39.1995 12.4756 39.0971 12.5422C38.9948 12.6096 38.5668 12.5084 38.7975 13.0356C39.0346 13.5503 39.0888 13.796 39.1456 13.9694C39.2024 14.1423 38.7896 14.4483 38.9091 14.7299C39.0239 15.0026 38.8962 15.5403 39.1316 15.7421C39.3637 15.9364 38.8797 15.9641 38.6242 16.1645C38.3717 16.3775 39.5775 16.3697 39.4378 16.5736C39.3012 16.7877 38.6825 16.9444 38.8739 17.1488C39.0625 17.3399 38.7148 17.6895 38.9968 17.71C39.2758 17.7231 38.5324 17.9922 38.7524 18.08C38.9708 18.1601 38.9069 18.2733 38.7311 18.5057C38.546 18.7311 38.584 19.2523 38.935 19.1938C39.2719 19.1281 38.9332 19.5768 38.9217 19.7537C38.9162 19.8064 38.8963 19.8645 38.8713 19.9204C38.8606 19.944 38.8283 19.9841 38.7935 20.0207C38.7505 20.0659 38.703 20.1058 38.6879 20.103C38.6156 20.0864 38.4774 20.0905 38.2224 20.1409C37.7413 20.2213 38.0968 19.918 37.7501 19.7855C37.4062 19.6467 36.9146 19.6559 37.0149 19.1964C37.1346 18.7623 35.9881 19.0854 36.4597 18.3622C36.9617 17.6903 35.7576 17.9605 35.4887 17.4377C35.2242 16.9141 35.8465 16.1821 35.7809 15.8909C35.7104 15.5855 35.5628 15.1703 35.7464 14.7445C35.9275 14.3284 35.5693 13.7637 35.9263 13.3392C36.2792 12.9187 36.7677 12.3734 37.0734 12.1603C37.3796 11.9396 37.4485 11.8972 37.3749 11.5951C37.3337 11.4189 37.4708 11.239 37.8278 11.16ZM83.1239 10.4979C83.2674 10.4 83.4878 10.3652 83.6074 10.4221C83.7821 10.5067 83.693 10.6169 83.9767 10.64C84.5437 10.691 84.7649 10.7482 84.4549 10.9389C84.1429 11.1214 84.8791 11.166 84.797 11.2736C84.711 11.3788 84.289 11.3675 84.5984 11.8607C84.8993 12.3673 84.9358 12.6552 84.9862 12.849C85.0352 13.0501 84.5934 13.345 84.6562 13.652C84.7214 13.9693 84.4367 14.4901 84.5718 14.7791C84.7071 15.072 84.2464 14.9166 83.9302 14.9943C83.6152 15.0668 84.6843 15.6295 84.4396 15.7853C84.1955 15.9359 83.5979 15.7165 83.6287 16.0044C83.658 16.2953 83.1564 16.3406 83.3451 16.5511C83.5314 16.7667 82.8162 16.4325 82.9047 16.6474C82.9916 16.8663 82.8552 16.9065 82.5654 16.9064C82.2749 16.9095 81.8897 17.1536 82.0858 17.4404C82.2794 17.734 81.7206 17.5977 81.5565 17.6137C81.5054 17.6188 81.446 17.609 81.3878 17.5931C81.3631 17.5864 81.3179 17.562 81.2755 17.5347C81.2232 17.5009 81.1748 17.463 81.1726 17.4503C81.1648 17.3914 81.1206 17.2705 80.968 17.0837C80.6861 16.7311 81.0966 16.9596 81.0119 16.6699C80.9257 16.38 80.5983 16.0703 80.9581 15.9912C81.3211 15.9016 80.2874 15.3337 81.0311 15.3257C81.7805 15.2996 80.6726 14.7533 80.6406 14.4058C80.6079 14.0598 81.3814 13.9244 81.3898 13.7177C81.3976 13.516 81.3336 13.237 81.5572 13.025C81.7837 12.803 81.4479 12.4129 81.7737 12.1921C82.1047 11.9657 82.4989 11.5867 82.7414 11.3845C82.9854 11.1853 83.0378 11.1184 82.8715 10.9409C82.7752 10.8378 82.8384 10.6922 83.1239 10.4979ZM44.6302 7.48852C44.7609 7.35348 44.9823 7.31936 45.1104 7.39155C45.2974 7.49723 45.2249 7.63794 45.5129 7.64659C46.0883 7.6636 46.3127 7.68714 46.0396 7.94945C45.7659 8.20923 46.5025 8.14077 46.4441 8.27489C46.3838 8.40858 45.9618 8.48467 46.3949 8.99817C46.825 9.51448 46.9523 9.83439 47.0617 10.0509C47.171 10.2674 46.8499 10.7741 47.0139 11.1328C47.1826 11.4921 47.0912 12.2491 47.3135 12.5588C47.5382 12.8624 47.0515 12.8748 46.7768 13.1087C46.5019 13.3442 47.6929 13.579 47.5061 13.8871C47.3171 14.1909 46.681 14.1786 46.7908 14.5366C46.8993 14.8989 46.4211 15.183 46.6566 15.3708C46.8904 15.5675 46.1095 15.4517 46.2455 15.6949C46.381 15.9333 46.2532 16.0478 45.9632 16.1785C45.6752 16.3104 45.3317 16.7866 45.5787 17.0651C45.8275 17.3478 45.2353 17.4132 45.0779 17.4988C45.0293 17.5235 44.9678 17.5419 44.9072 17.55C44.8814 17.5534 44.8304 17.5478 44.781 17.538C44.7199 17.5259 44.6614 17.5063 44.6561 17.4902C44.6353 17.4059 44.564 17.2837 44.3792 17.1036C44.0327 16.7752 44.4917 16.8815 44.3566 16.5477C44.2188 16.215 43.8309 15.9645 44.1726 15.7096C44.5137 15.4396 43.3657 15.1735 44.0909 14.8375C44.8137 14.4708 43.5926 14.2718 43.462 13.8413C43.3309 13.411 44.0202 12.8746 43.9594 12.5966C43.9001 12.3212 43.7453 11.9758 43.8804 11.5771C44.0163 11.1785 43.5593 10.7474 43.7881 10.2847C44.0202 9.82395 44.2713 9.13709 44.4529 8.80091C44.634 8.45821 44.6733 8.3802 44.4629 8.13077C44.3419 7.98837 44.3706 7.75731 44.6302 7.48852ZM51.0985 3.30029C51.2151 3.13279 51.4362 3.09359 51.5761 3.18938C51.7814 3.33359 51.7252 3.51621 52.0204 3.53806C52.612 3.58882 52.8394 3.61128 52.5949 3.94985C52.3463 4.27469 53.0902 4.21518 53.0445 4.37823C52.9982 4.54383 52.5812 4.64724 53.0837 5.30342C53.5847 5.96186 53.758 6.35222 53.8987 6.61381C54.0395 6.87851 53.7979 7.54029 54.0255 7.96871C54.2546 8.39695 54.3176 9.35013 54.6073 9.68359C54.8977 10.0164 54.4211 10.1102 54.2108 10.4613C54.0004 10.813 55.2236 10.8357 55.1234 11.2391C55.0223 11.6416 54.4055 11.8028 54.6193 12.2054C54.8321 12.6056 54.4719 13.1035 54.7594 13.2508C55.0464 13.3977 54.2703 13.5448 54.4838 13.7835C54.6983 14.0302 54.619 14.2049 54.3981 14.4809C54.1779 14.7522 54.0518 15.4961 54.3921 15.7315C54.7353 15.9721 54.2167 16.3286 54.0986 16.5212C54.062 16.5816 54.0095 16.6284 53.9538 16.664C53.9301 16.679 53.8792 16.688 53.8289 16.6905C53.7664 16.6937 53.7039 16.6873 53.6948 16.6706C53.652 16.5905 53.5415 16.4558 53.3022 16.3272C52.8542 16.0788 53.3187 16.0053 53.0585 15.6411C52.797 15.2827 52.3346 15.1043 52.5511 14.6163C52.7647 14.1211 51.5828 14.1925 52.1426 13.4507C52.6989 12.701 51.4683 12.8314 51.1968 12.2273C50.9249 11.622 51.4444 10.6949 51.3144 10.3199C51.1849 9.94562 50.9424 9.45948 50.9903 8.88393C51.0379 8.30696 50.4938 7.72581 50.6436 7.06877C50.7946 6.41001 50.9506 5.48329 51.0899 5.03443C51.2307 4.58947 51.2593 4.4771 51.0129 4.14113C50.8725 3.95379 50.8684 3.63891 51.0985 3.30029ZM56.813 0.276349C56.8521 0.0578737 57.0518 -0.046864 57.2314 0.0199813C57.4941 0.118508 57.5162 0.333757 57.8132 0.275685C58.4087 0.163772 58.6518 0.144194 58.5458 0.579208C58.4366 1.01165 59.1403 0.754781 59.1628 0.957783C59.1809 1.16164 58.8157 1.36462 59.5461 2.02045C60.273 2.69123 60.5578 3.15026 60.7714 3.44575C60.9903 3.75323 60.9087 4.58154 61.2171 5.09022C61.5384 5.60154 61.7266 6.78304 62.038 7.20559C62.3569 7.63545 61.8802 7.73418 61.6813 8.15733C61.4777 8.56915 62.7096 8.68899 62.6019 9.19875C62.4886 9.69862 61.8626 9.8214 62.0453 10.3451C62.2262 10.8749 61.8022 11.4194 62.0632 11.6535C62.3248 11.8963 61.536 11.9107 61.7039 12.2486C61.8698 12.5833 61.7554 12.79 61.4788 13.0629C61.2074 13.3371 60.8918 14.1669 61.1407 14.5366C61.3972 14.9127 60.7764 15.1815 60.5961 15.3509C60.5394 15.4076 60.4722 15.4434 60.4061 15.4651C60.3782 15.4744 60.327 15.4671 60.2786 15.4532C60.2184 15.4358 60.162 15.408 60.1597 15.3861C60.15 15.2798 60.0925 15.1004 59.9094 14.878C59.5627 14.4729 60.0321 14.5295 59.8868 14.0525C59.7349 13.578 59.3287 13.2837 59.6443 12.7945C59.9541 12.2844 58.7836 12.1474 59.4451 11.433C60.0934 10.6813 58.8542 10.6511 58.6268 9.98777C58.3984 9.32477 58.914 8.34102 58.7617 7.92288C58.6152 7.51424 58.3377 6.99705 58.312 6.37073C58.2849 5.73361 57.642 5.1779 57.6392 4.45395C57.6414 3.7216 57.5106 2.68452 57.4838 2.15926C57.464 1.64042 57.4435 1.50274 57.076 1.21149C56.8619 1.04099 56.7351 0.710728 56.813 0.276349ZM67.2378 2.29408C67.3107 2.11864 67.4894 1.98084 67.6675 2.05963C67.9243 2.18305 67.8924 2.39535 68.1915 2.40234C68.7959 2.44512 69.0399 2.52121 68.7919 2.87855C68.5393 3.22767 69.2786 3.20743 69.2243 3.3966C69.1619 3.57131 68.7496 3.62893 69.1552 4.37226C69.5519 5.12308 69.6409 5.55509 69.729 5.8394C69.8165 6.13479 69.4434 6.73346 69.571 7.19894C69.7018 7.66868 69.543 8.60314 69.745 8.9902C69.948 9.37954 69.4628 9.35495 69.1745 9.64108C68.8857 9.92474 70.0665 10.2413 69.8712 10.6015C69.675 10.9612 69.0375 10.9644 69.1459 11.3971C69.2542 11.829 68.7825 12.2098 69.025 12.4206C69.2677 12.6311 68.4792 12.5759 68.6278 12.857C68.7766 13.1346 68.6563 13.2911 68.3768 13.4899C68.097 13.6983 67.801 14.3676 68.0819 14.6655C68.3643 14.9603 67.7836 15.1842 67.6316 15.3436C67.5844 15.3925 67.5242 15.4276 67.4629 15.4519C67.4369 15.4621 67.3854 15.4612 67.3354 15.4545C67.2731 15.4462 67.2134 15.4284 67.2079 15.41C67.1807 15.3217 67.0966 15.1783 66.8904 14.9962C66.5042 14.6647 66.9745 14.6885 66.8034 14.2796C66.6313 13.8736 66.2237 13.5974 66.5517 13.1791C66.8688 12.7691 65.7865 12.5525 66.377 12.0241L66.5019 11.9192C67.087 11.3873 65.9355 11.2027 65.8231 10.5888C65.7072 9.95511 66.4334 9.20948 66.3949 8.82748C66.3571 8.44758 66.2346 7.93871 66.4089 7.4148C66.5837 6.88613 66.1752 6.23849 66.4481 5.66539C66.7252 5.08588 67.0287 4.25902 67.2145 3.85686C67.4025 3.45707 67.438 3.33597 67.2065 3.04061C67.0702 2.8746 67.0833 2.64098 67.2378 2.29408ZM76.9512 5.52392C77.1356 5.52138 77.3244 5.64042 77.3643 5.78626C77.424 5.99431 77.2745 6.042 77.4812 6.24055C77.8945 6.63852 78.064 6.77203 77.7043 6.76325C77.3418 6.76426 77.9746 7.14829 77.8624 7.1923C77.7528 7.23633 77.3402 7.07104 77.4805 7.64925C77.6279 8.22854 77.6404 8.51198 77.6651 8.71457C77.6898 8.91872 77.2239 9.21375 77.2826 9.56138C77.34 9.90205 77.0812 10.5322 77.2514 10.8313C77.4183 11.1427 76.9433 11.043 76.6364 11.2138C76.3284 11.394 77.4827 11.7528 77.2706 11.9942C77.0613 12.2213 76.4258 12.1664 76.5195 12.4943C76.6142 12.8143 76.1388 13.0656 76.378 13.2355C76.6174 13.4087 75.8327 13.3127 75.9788 13.5371C76.1264 13.7512 76.0087 13.8546 75.7311 13.9947C75.4527 14.1388 75.1694 14.6323 75.4588 14.8681C75.7494 15.0934 75.1797 15.2486 75.0351 15.3695C74.9901 15.4068 74.9317 15.4342 74.8717 15.4532C74.8462 15.4613 74.7943 15.4602 74.7441 15.4545C74.6819 15.4474 74.6217 15.4328 74.6153 15.418C74.5848 15.3458 74.4955 15.2333 74.2832 15.0892C73.8875 14.8188 74.355 14.8581 74.175 14.5327C73.9958 14.2031 73.5838 13.9859 73.9106 13.6619C74.2365 13.3537 73.0784 13.106 73.8117 12.7075C74.5465 12.3067 73.3315 12.0845 73.2511 11.5486C73.1701 11.0188 73.9539 10.5095 73.9578 10.1977C73.9587 9.89419 73.9026 9.44624 74.1577 9.05794C74.4135 8.66499 74.1478 8.03059 74.5715 7.62069C74.9896 7.21426 75.5765 6.6665 75.9343 6.46903C76.2907 6.26892 76.3683 6.23603 76.3807 5.89054C76.3889 5.69085 76.5857 5.5225 76.9512 5.52392Z" fill="black"/>
<path d="M52.7028 55.4853C52.5354 55.5046 52.3873 55.5423 52.2827 55.5873C52.2378 55.6063 52.2128 55.6543 52.2066 55.7043L52.2059 55.7044C52.2058 55.7055 52.2062 55.7067 52.2061 55.7078C52.0811 55.6763 51.9847 55.8221 51.9604 56.0961C51.9073 56.7065 52.1298 57.1689 51.9472 57.5421C51.5974 58.3094 51.4904 58.7066 52.1726 59.3631C52.8572 59.9711 52.5413 60.7326 53.0185 61.1196C53.2555 61.2966 53.4434 61.3027 53.8263 61.501C54.2128 61.6818 54.7949 62.1046 56.0439 62.5998C58.5653 63.4556 59.8265 63.2907 60.6905 63.3967C61.2172 63.4327 62.0652 63.2815 62.9405 63.2028C63.6534 63.1527 64.3914 63.0253 65.0662 62.8845C66.982 62.7147 69.508 59.9101 70.1123 58.7004C70.8744 57.5088 70.3972 57.3071 70.3669 56.2215C70.3397 55.7794 70.5154 55.417 70.716 54.9952L70.9808 53.0101L68.7694 53.5491C68.2266 53.4497 67.6635 53.2215 67.1013 53.4752C66.1545 53.8884 66.1209 54.5519 64.8936 54.6158C63.6803 54.6688 62.4902 55.1913 61.9237 54.9588C61.3673 54.7244 61.3387 55.5202 60.5449 55.3587C59.7563 55.1917 59.284 55.2857 58.5798 55.5175C57.8825 55.762 55.6994 55.8104 54.9586 55.3988C54.214 54.9993 53.2615 55.4259 52.7028 55.4853ZM52.4045 55.8874C52.6585 55.9704 52.9881 56.1144 53.3651 56.3565C54.199 56.8881 54.3538 56.4402 55.5293 56.7812C56.7118 57.1137 57.4258 57.6102 58.8861 57.3771C60.3204 57.1208 60.6899 58.3262 62.7311 57.5281C64.6019 56.7259 65.0209 57.7471 66.8537 57.6389C66.3662 58.3745 65.6333 59.1003 64.765 59.6391C64.2784 59.9478 63.6141 60.0511 62.9133 60.0098C61.8482 59.9677 60.7824 59.9701 59.8247 60.1388C57.9947 60.5146 55.6979 60.5574 54.7842 59.9556C53.8503 59.4329 53.6173 59.1267 53.3206 58.0761C53.1623 57.4602 52.8652 56.6397 52.4271 55.9228C52.4197 55.9105 52.4119 55.8987 52.4045 55.8874Z" fill="black"/>
<path d="M78.4729 77.9151C80.4505 78.1923 81.0396 79.1127 81.7971 79.8532C82.5141 80.6677 83.2529 81.5973 84.5667 83.4204C84.5745 83.4315 84.5813 83.4413 84.5872 83.4496C84.5963 83.4628 84.6116 83.4859 84.6125 83.4862L84.742 83.7106L84.7088 83.9298C84.3218 88.2416 84.2221 91.071 81.92 95.8071C79.3388 100.205 79.8616 102.533 73.497 106.66C73.3107 106.776 73.1028 106.872 72.8362 106.927C72.4406 107.011 72.0221 106.935 71.7263 106.792C71.4451 106.66 71.2475 106.485 71.1193 106.353C70.8433 106.064 70.7041 105.821 70.578 105.6C70.3274 105.144 70.1826 104.778 70.0294 104.404C69.7439 103.686 69.5176 103.065 69.2928 102.505C68.8433 101.372 68.421 100.484 67.9539 99.6114C66.9998 97.9023 66.0397 96.1285 64.206 93.5091C63.7784 92.9262 63.3154 92.3688 62.8192 91.8832C62.6701 92.1843 62.5141 92.5586 62.3862 92.9273C61.9038 94.3027 61.541 95.8474 61.2166 97.3081C60.5723 100.254 60.1065 102.905 59.6478 104.858C59.5455 105.282 59.442 105.701 59.2454 106.227C59.1516 106.467 59.0353 106.764 58.7897 107.125C58.6318 107.335 58.5289 107.51 58.1037 107.793C57.743 108.047 56.9948 108.2 56.4499 107.991L56.2812 107.923C52.3 106.028 48.6026 102.688 45.2374 98.7733C43.7802 97.0467 42.2301 95.1628 40.7816 93.0349C40.0613 91.9679 39.3623 90.8434 38.7738 89.5859C38.3011 88.2587 37.2803 87.0473 38.2624 84.4904C39.3501 82.514 40.7397 80.8613 42.4506 79.5125C42.8394 79.2148 43.2614 78.9139 43.7823 78.6364C44.0523 78.4972 44.3362 78.3555 44.7712 78.2446C44.9988 78.194 45.2592 78.1332 45.6904 78.1901C46.1 78.2197 46.7889 78.6065 47.0267 79.1106C49.4482 84.7691 55.9809 88.9127 59.8046 89.2571C60.1002 88.7576 60.5414 88.003 61.7645 87.5635C63.1617 87.1122 64.3972 87.8265 64.9671 88.3432C65.0074 88.3787 65.0476 88.4149 65.0874 88.4515C65.3192 88.7021 65.5317 88.9402 65.7276 89.1674C66.7249 88.9063 67.7834 88.4748 69.1946 87.8265C71.2951 86.7441 74.0519 84.8309 75.3308 82.3139C75.6475 81.6846 75.7697 81.423 75.8448 81.5249C75.9115 81.6194 75.9048 82.1008 75.6575 82.8094C74.8837 84.9157 73.3856 86.0649 72.694 86.9823C71.2169 88.773 70.3251 89.5588 67.4724 90.1995C67.1925 90.2502 66.9278 90.3045 66.676 90.3589C68.2527 92.5385 68.2612 93.8693 69.9324 97.2782C70.65 98.8893 71.201 100.542 71.7151 102.008C71.9721 102.737 72.226 103.437 72.4875 103.98C72.5194 104.048 72.5537 104.114 72.5878 104.177C73.0002 103.868 73.3343 103.572 73.5807 103.302C74.8343 101.836 75.6001 102.284 77.2044 99.9415C78.7032 97.5551 79.5427 96.0807 80.7351 93.8604C81.6786 92.21 83.1931 87.4843 83.5199 83.9756C82.9766 83.1697 82.4263 82.5037 81.9904 82.0648C81.003 81.0842 80.0407 79.9325 79.0049 79.2654C78.4906 78.9406 77.9898 78.7993 77.5551 78.9718C77.1072 79.1426 76.7554 79.5911 76.5342 79.99C76.2515 80.5085 76.0798 80.947 75.9345 81.2878C75.8732 81.4362 75.8071 81.5021 75.7578 81.491C75.6967 81.478 75.6618 81.3437 75.7047 81.1417C75.8046 80.6834 75.9451 80.0433 76.2646 79.3756C76.5469 78.7322 77.3164 77.8353 78.4729 77.9151ZM45.0083 81.5594C44.743 81.7575 44.4762 81.9891 44.2326 82.2196C43.6459 82.7768 43.1603 83.3397 42.7548 83.8634C42.3103 84.4397 41.7412 85.1937 41.2259 86.093C41.26 85.9926 41.1861 86.1128 41.2066 86.3786C41.2181 86.6256 41.2928 86.9898 41.4039 87.3509C41.6317 88.0963 42.012 88.9283 42.4573 89.7486C43.3562 91.3995 44.5113 93.021 45.6665 94.3891C47.9377 97.1517 52.5529 102.009 56.3529 104.243C56.365 104.184 56.3774 104.125 56.3881 104.068C56.9797 100.241 57.3539 100.186 58.2059 96.9514C58.6335 95.3277 58.6834 93.8431 58.9279 92.1482C58.99 91.7736 59.0495 91.396 59.1444 90.9959C59.1069 90.9883 59.0686 90.9804 59.0295 90.9726C57.7931 90.6524 55.5427 90.4545 51.7596 88.2628C48.3898 86.1855 46.3945 83.69 45.0083 81.5594ZM63.1653 91.322C63.1678 91.3199 63.1712 91.3192 63.1732 91.3173C63.2223 91.2763 63.2039 91.2796 63.1653 91.322ZM44.3926 80.5798C44.4097 80.6134 44.4316 80.6475 44.4557 80.6821C44.4348 80.6478 44.4133 80.6138 44.3926 80.5798Z" fill="black"/>
<path d="M124.351 120.095C124.752 120.049 124.794 120.283 124.518 120.563C124.108 120.976 123.663 121.106 123.555 121.484C123.328 122.247 123.21 122.556 122.426 122.615C121.641 122.674 121.687 123.484 121.277 123.608C120.864 123.729 120.675 123.35 118.929 124.633C117.18 125.91 116.157 126.5 115.459 126.928C114.76 127.357 113.063 127.742 111.903 128.404C111.011 128.918 109.287 129.596 108.097 130.128C107.737 130.29 107.459 130.431 107.234 130.571C106.307 131.161 106.124 130.711 105.217 130.76C104.307 130.808 104.063 132.175 102.998 132.372C101.915 132.57 101.569 132.022 100.432 132.536C100.153 132.66 99.864 132.748 99.569 132.816C99.4199 132.85 99.2709 132.879 99.1187 132.903C99.0414 132.916 98.9678 132.926 98.8816 132.938C98.8441 132.942 98.7977 132.948 98.7494 132.954C98.7252 132.957 98.701 132.959 98.6711 132.962C98.6367 132.966 98.639 132.967 98.5196 132.977L97.4762 133.176L97.1189 131.892C97.0878 131.343 97.0615 130.88 96.8811 130.627C96.5332 130.139 97.303 129.951 97.002 129.225C96.7009 128.499 96.7253 128.024 96.8665 127.321C97.0078 126.618 96.8798 124.552 96.4434 123.867C96.0072 123.182 96.4039 122.248 96.4461 121.721C96.4593 121.556 96.4931 121.423 96.5338 121.318C96.5511 121.274 96.5984 121.247 96.648 121.239C96.7099 121.228 96.7755 121.247 96.7921 121.297C96.8727 121.542 97.0369 121.901 97.3367 122.307C97.8954 123.063 97.4483 123.232 97.8528 124.312C98.2575 125.393 98.8019 125.992 98.7468 127.353C98.7036 128.421 99.4404 128.716 99.5949 129.742C99.9161 129.431 100.305 129.09 100.889 128.829C102.56 128.084 105.005 127.893 106.035 127.439C106.313 127.317 106.587 127.19 106.911 127.045C107.772 126.654 108.784 126.189 109.899 125.835C111.413 125.356 113.008 124.161 114.707 123.651C116.407 123.146 118.79 122.326 119.916 122.003C121.053 121.676 121.321 121.593 122.228 120.925C122.745 120.542 123.55 120.187 124.351 120.095ZM28.6249 84.3063C30.0441 83.7475 32.1343 83.318 33.9349 83.4176C34.8392 83.4816 34.6477 83.7148 33.7914 83.929C32.5628 84.2542 31.5083 84.3923 30.9415 84.8197C29.8067 85.6904 29.3917 86.0254 27.7548 86.2855C26.1172 86.5746 25.7397 87.5951 24.8903 87.9446C24.0999 88.3769 23.6025 87.7001 20.2179 91.0263C19.2466 92.0713 18.5272 93.055 17.9624 93.946C16.5898 96.1096 15.729 97.5803 15.0832 98.7041C14.1536 100.309 11.8424 103.476 10.5137 106.23C9.15425 108.961 6.27348 114.464 5.43752 116.836C4.91388 118.294 4.5416 118.784 4.08927 119.346C5.56334 120.15 7.28748 120.195 9.02468 121.412C11.0439 122.807 11.0344 123.567 13.5662 124.741C16.0815 125.894 18.5022 127.305 19.7669 127.478C21.0224 127.647 20.8818 128.442 22.6328 128.809C24.3809 129.16 25.386 129.539 26.8343 130.178C27.1495 130.315 27.598 130.482 28.1447 130.662C28.8079 128.764 29.5128 126.402 29.6324 125.24C29.8153 123.464 30.8957 121.689 31.3539 120.567C31.4966 120.218 31.6318 119.949 31.7498 119.747C31.7998 119.662 31.8613 119.633 31.9098 119.647C31.9701 119.665 32.0106 119.748 31.9842 119.868C31.8556 120.454 31.7058 121.343 31.6322 122.421C31.495 124.433 30.9845 124.51 30.458 127.128C30.1087 128.864 29.981 130.178 29.6025 131.722L29.2419 132.792L28.2523 132.509C27.441 132.349 26.5877 132.125 25.583 131.762C22.6334 130.653 21.527 131.641 17.5114 129.424C13.61 127.097 12.6613 127.959 8.64013 125.878C6.13485 124.537 3.52238 122.622 1.31704 121.117L0 120.252L0.618338 118.97C1.34909 117.539 1.99263 116.338 2.39166 115.431C3.47784 112.966 4.91636 109.68 6.84024 106.397C8.75448 103.123 10.7224 98.8223 13.2826 95.4437C14.0143 94.4757 14.8475 93.404 15.7268 92.338C18.0023 89.4934 21.1898 87.4781 22.9914 86.6521C25.5408 85.5085 26.1636 85.3199 28.6249 84.3063ZM91.5831 81.6397C92.3799 81.1523 92.746 80.9762 93.648 81.4471C94.5337 81.9249 95.1179 81.3072 95.6597 81.5221C96.1837 81.7644 96.0799 82.0654 98.8743 82.7063C101.669 83.4266 103.087 84.2304 104.062 84.7333C105.055 85.2454 106.688 86.8941 108.068 88.0137C109.165 88.856 110.812 90.7268 111.884 92.0744C112.195 92.455 112.471 92.7691 112.696 92.9849C113.706 93.9628 113.317 94.2539 113.766 95.3035C114.226 96.3686 115.701 96.3338 116.387 97.5311C117.073 98.7294 116.68 99.2653 117.729 100.438C118.781 101.616 119.34 103.138 119.959 103.566C120.578 103.995 119.973 104.503 120.676 105.228C121.378 105.96 121.624 106.533 121.863 107.413C122.124 108.29 123.205 110.727 123.889 111.479C124.599 112.226 124.543 113.471 124.677 114.13C124.719 114.334 124.73 114.506 124.725 114.645C124.723 114.703 124.684 114.745 124.638 114.764C124.58 114.788 124.509 114.776 124.475 114.716C124.314 114.426 124.032 114.014 123.595 113.581C122.773 112.78 123.159 112.473 122.327 111.279C121.479 110.095 120.697 109.577 120.058 108.007C119.39 106.429 118.206 106.774 117.375 104.443C116.508 102.097 115.364 102.639 113.791 100.803C112.223 98.9815 110.928 96.1287 110.015 95.0007C109.782 94.7138 109.52 94.3975 109.237 94.0509C108.478 93.1267 107.559 92.1042 106.624 91.0037C105.354 89.4944 103.229 88.3356 101.532 87.0307C99.8557 85.6696 97.0666 84.2304 95.7162 83.6574C94.3675 83.0637 94.0045 82.9373 92.6012 82.887C91.799 82.8664 90.6961 82.6919 89.7679 82.3915C89.2779 82.248 89.3824 82.0159 89.8669 81.9007C90.602 81.7403 91.1756 81.8864 91.5831 81.6397Z" fill="black"/>
<path d="M124.425 157.729C128.056 152.115 120.966 122.268 120.966 122.268L98.3042 131.484C98.3042 131.484 99.3072 143.608 99.3072 152.061C93.3252 162.066 91.0111 175.455 84.9919 178.809C78.9726 182.163 79.5181 183.25 73.6039 183.25C67.6897 183.25 64.9761 182.35 64.002 184.3C63.0279 186.249 62.1541 187.643 64.6154 189.565C67.0767 191.487 78.1688 190.43 78.1688 190.43C78.1688 190.43 74.8185 197.236 70.0546 198.791C65.2906 200.346 66.3305 199.984 63.0815 200.137C59.8325 200.29 60.8224 205.237 61.0115 205.95C61.2005 206.663 65.944 206.335 68.118 206.335C71.2296 208.526 72.2415 209.462 77.483 207.119C77.483 207.119 75.7984 208.027 77.483 209.299C79.1676 210.571 85.077 208.698 85.077 208.698C84.1926 209.412 83.5739 209.881 83.5739 209.881C83.5739 209.881 83.9215 210.463 86.5279 209.881C89.1343 209.299 93.6485 206.87 95.39 205.169C97.1314 203.468 98.3042 190.43 98.3042 190.43C98.3042 190.43 120.795 163.344 124.425 157.729Z" fill="white"/>
<path d="M122.587 121.883C122.837 122.846 123.053 123.73 123.238 124.484C124.066 127.835 125.118 134.938 126.038 140.482C126.5 144.829 128.511 151.995 125.847 158.648C124.893 160.13 124.016 161.314 123.402 162.221C120.778 166.014 120.382 165.7 117.87 168.437C115.361 171.151 114.465 174.173 111.496 177.558C108.519 180.945 107.605 181.058 104.443 185.132C102.806 187.241 101.011 189.286 99.5317 190.977C99.3207 192.724 99.1317 194.185 99.1185 195.152C99.0637 197.489 98.2918 197.613 97.856 200.894C97.4888 202.823 97.4944 204.147 96.1079 205.904C95.1994 206.707 94.2541 207.239 93.1364 207.801C91.8737 208.403 89.4882 209.701 86.6382 210.375C86.1208 210.48 85.5991 210.568 85.0555 210.605C84.7853 210.623 84.5084 210.629 84.216 210.601C84.0703 210.586 83.9206 210.563 83.7597 210.516C83.6789 210.492 83.5964 210.462 83.506 210.417C83.4712 210.399 83.4322 210.377 83.3924 210.35C83.2769 210.602 83.1976 210.967 82.7701 210.617C82.1212 210.066 82.31 211.287 81.7858 211.542C81.2577 211.796 80.4678 211.197 80.1347 211.271C79.7967 211.349 79.313 211.514 78.7718 211.31C78.2723 211.099 77.3884 211.433 76.6492 210.608C76.6229 210.575 76.5967 210.542 76.5708 210.507C76.3664 210.182 76.1351 209.656 76.0342 209.156C75.6829 209.535 75.4341 209.686 75.2498 209.813C75.0478 209.956 74.4643 209.721 74.0961 209.924C73.721 210.142 72.8322 210.091 72.4357 210.28C72.0313 210.478 72.0604 209.989 71.8187 209.679C71.6 209.369 71.0905 210.484 70.7421 210.197C70.4213 209.909 70.6165 209.302 70.2101 209.276C69.7917 209.24 69.6932 208.68 69.429 208.827C69.1593 208.97 69.5531 208.285 69.2842 208.323C69.0086 208.356 68.959 208.199 68.9535 207.885C68.9453 207.572 68.6363 207.089 68.294 207.233C67.9552 207.38 68.0899 206.805 68.0569 206.622C68.0462 206.565 68.0511 206.501 68.0635 206.439C68.0644 206.435 68.0669 206.43 68.0688 206.425C68.0321 206.452 67.9754 206.473 67.8981 206.477C67.2139 206.521 66.1868 206.66 64.9678 206.91C64.0534 207.096 63.4552 207.12 62.8618 207.081C62.5647 207.061 62.271 207.027 61.9266 206.97C61.7583 206.942 61.5685 206.908 61.3521 206.851C61.2423 206.82 61.1268 206.787 60.9755 206.719C60.905 206.687 60.8137 206.639 60.7192 206.565C60.6169 206.483 60.4775 206.351 60.4103 206.109C60.2922 205.644 60.1894 205.152 60.0842 204.51C59.9181 203.401 59.8316 202.387 60.1433 201.29C60.3775 200.195 61.6833 199 63.0278 199C63.9044 198.917 64.9882 198.99 65.8545 198.944C67.418 198.749 68.4931 198.086 69.6469 197.542C70.5874 197.025 71.5892 196.381 73.4718 194.914C74.4988 194.059 75.1605 193.282 75.6217 192.543C75.1688 192.604 74.6736 192.657 74.1233 192.695C70.887 192.718 67.5905 193.261 63.5472 190.933C62.686 190.182 61.6877 189.153 61.4717 187.642C61.3087 186.142 61.8597 185.249 62.1 184.639C62.2641 184.273 62.4329 183.931 62.5914 183.595C63.0261 182.47 64.5699 181.612 65.5417 181.523C66.5718 181.355 67.434 181.389 68.3152 181.41C70.0541 181.472 71.7936 181.587 73.604 181.646C73.7162 181.65 73.8261 181.654 73.9334 181.657C75.7283 181.699 77.4312 181.61 78.8622 180.689C80.4252 179.714 82.3131 178.348 84.1941 177.376C84.7173 177.103 85.2227 176.735 85.7104 176.308C88.8855 173.525 91.5499 166.943 92.967 164.221C94.3639 161.408 94.6846 160.717 95.7685 157.89C96.3966 156.268 97.5254 154.125 98.819 152.534C99.0761 152.221 99.2425 152.08 99.3244 152.08C99.317 152.072 99.3089 152.063 99.3019 152.054C99.2984 152.049 99.2959 152.044 99.2926 152.039C99.1802 152.183 99.0665 151.668 98.991 150.669C98.8067 148.336 98.8363 146.414 98.5102 145.223C97.8521 142.845 97.5891 141.839 97.7318 138.793C97.8669 135.739 97.0259 134.363 96.9766 132.596C96.9658 132.217 96.9762 131.899 96.9912 131.593L96.8916 130.663L97.8081 130.264C98.9516 129.954 100.435 129.576 106.874 126.675C113.188 123.83 117.335 122.025 120.339 120.724L122.083 119.965L122.587 121.883ZM119.785 124.367C112.832 126.89 103.722 130.228 99.351 131.755C99.2032 131.807 99.0588 131.856 98.918 131.906C99.0261 135.745 99.0867 137.147 99.4613 141.395C99.6942 144.108 99.7757 147.863 99.4838 151.034C99.4813 151.061 99.4778 151.087 99.4752 151.113C99.5686 151.094 99.6847 151.083 99.7767 150.896C99.9717 150.51 99.9503 150.01 100.487 150.028C101.01 150.06 100.561 148.957 101.444 149.269C102.304 149.603 101.848 148.455 102.408 148.048C102.97 147.644 103.975 148.026 104.318 147.866C104.674 147.698 105.136 147.419 105.711 147.449C106.276 147.481 106.858 146.943 107.504 147.132C108.144 147.319 109.014 147.587 109.412 147.801C109.807 148.014 109.903 148.063 110.257 147.893C110.454 147.797 110.765 147.868 111 148.186C111.13 148.346 111.087 148.568 110.976 148.674C110.811 148.831 110.66 148.732 110.586 149.013C110.429 149.575 110.376 149.79 110.145 149.479C109.902 149.171 109.855 149.912 109.727 149.838C109.599 149.765 109.555 149.327 108.951 149.731C108.351 150.14 108.037 150.283 107.81 150.403C107.597 150.52 107.025 150.246 106.677 150.466C106.329 150.68 105.536 150.765 105.299 151.073C105.069 151.377 104.921 150.915 104.589 150.739C104.251 150.568 104.464 151.764 104.128 151.712C103.787 151.663 103.501 151.091 103.225 151.364C102.958 151.635 102.449 151.397 102.419 151.704C102.395 152.008 102.023 151.31 101.898 151.574C101.776 151.837 101.612 151.81 101.307 151.688C101.004 151.562 100.336 151.718 100.324 152.112C100.313 152.499 99.7917 152.199 99.5815 152.193C99.5171 152.191 99.452 152.17 99.3928 152.143C99.3875 152.14 99.3831 152.135 99.3769 152.13C99.4066 152.243 99.3207 152.544 99.1259 152.982C98.5293 154.344 97.8957 155.384 97.8108 156.191C97.6514 157.804 97.5842 158.46 96.5263 160.094C95.4754 161.737 95.8209 162.865 95.3215 163.875C94.8071 164.887 94.4856 164.707 92.5393 170.183C90.554 175.648 88.4397 178.667 86.1188 180.15C86.03 180.208 85.9354 180.266 85.8359 180.323C84.8701 180.883 83.5039 181.614 81.9671 182.545C80.5465 183.488 78.1206 184.593 76.2633 184.709C75.4754 184.814 74.5859 184.86 73.604 184.871C71.9377 184.897 70.0112 184.796 68.2661 184.725C67.4055 184.695 66.5674 184.688 66.0405 184.79C65.7809 184.838 65.64 184.913 65.6154 184.944C65.5906 184.975 65.5966 184.976 65.5576 185.077C65.3814 185.466 65.2383 185.789 65.1445 186.048C64.9349 186.613 64.8933 186.882 64.8715 186.992C64.852 187.101 64.8154 187.124 64.7971 187.239C64.7684 187.457 64.8212 187.891 65.4188 188.536C65.4343 188.566 65.4662 188.605 65.5144 188.647C66.9802 189.608 69.1729 188.499 71.8174 188.696C74.5134 188.834 75.0525 189.426 78.0406 189.083L80.3997 188.779L79.3829 191.028C79.3481 191.103 79.318 191.168 79.2826 191.242C77.7834 194.414 75.1504 196.747 74.0769 197.944C72.952 199.142 72.4416 198.722 70.3635 199.718C70.3618 199.719 70.3599 199.72 70.3582 199.721C68.4281 200.481 67.2489 201.001 65.1319 200.865C64.6354 200.817 63.9466 200.758 63.1102 200.746C62.1578 200.639 61.3671 201.511 61.2492 202.736C61.113 203.788 61.2822 204.873 61.5062 205.574C63.0266 205.631 65.5848 205.959 66.9165 206.084C67.3509 206.113 67.6952 206.162 67.9572 206.218C68.0655 206.241 68.112 206.29 68.116 206.338C68.1176 206.336 68.119 206.333 68.1206 206.331C68.1058 206.214 68.143 206.095 68.195 206.024C68.3274 205.858 68.4538 205.935 68.4733 205.646C68.4834 205.071 68.4618 204.856 68.737 205.109C69.0353 205.35 68.8658 204.629 69.004 204.666C69.1407 204.702 69.3038 205.115 69.7418 204.559C70.1731 204.001 70.4436 203.766 70.6199 203.59C70.8003 203.41 71.4183 203.516 71.7078 203.206C71.9928 202.902 72.7649 202.616 72.9405 202.26C73.1158 201.905 73.3566 202.326 73.7229 202.428C74.0928 202.528 73.6691 201.388 74.0343 201.369C74.3961 201.353 74.7687 201.872 75.0133 201.559C75.2623 201.244 75.8092 201.421 75.8123 201.114C75.821 200.802 76.249 201.466 76.3563 201.195C76.4735 200.918 76.6368 200.938 76.9573 201.042C77.2629 201.155 77.9303 200.996 77.9589 200.604C77.9869 200.214 78.4988 200.537 78.7068 200.558C78.7717 200.564 78.83 200.592 78.8921 200.62C78.918 200.632 78.9423 200.678 78.9704 200.72C79.0036 200.773 79.0426 200.821 79.0242 200.843C78.9852 200.914 78.9226 201.075 78.9379 201.335C78.9408 201.837 78.6698 201.454 78.4803 201.831C78.2939 202.206 78.344 202.688 77.836 202.671C77.3359 202.649 77.8659 203.709 77.0098 203.446C76.1537 203.182 76.7404 204.27 76.3071 204.718C75.8759 205.164 74.8801 204.952 74.5949 205.177C74.3096 205.404 73.9552 205.767 73.4233 205.869C72.9939 205.951 72.6645 206.402 72.2072 206.567C72.2185 206.584 72.2302 206.6 72.2418 206.617C72.3544 206.784 72.4906 206.953 72.5911 206.929C72.7925 206.882 73.0361 206.731 73.3735 206.843C73.7257 206.955 74.0397 206.457 74.5033 206.618C74.9738 206.78 75.6779 206.91 76.0395 207.029C76.403 207.149 76.4899 207.173 76.6937 206.924C76.8165 206.778 77.0404 206.77 77.3505 206.979C77.4 207.013 77.4402 207.058 77.4714 207.108C77.5488 207.205 77.5806 207.333 77.575 207.423C77.562 207.616 77.4206 207.602 77.5704 207.842C77.7114 208.057 77.8313 208.194 77.8932 208.265C78.0209 208.291 78.1755 208.288 78.1402 208.244C78.0648 208.154 77.6269 208.145 77.9423 208.052C78.1541 207.98 78.332 207.988 78.467 207.996C78.4711 207.952 78.4788 207.925 78.4922 207.901C78.509 207.864 78.5002 207.945 78.562 208.032C78.6199 208.118 78.74 208.201 78.8642 208.147C79.0987 208.047 79.6808 208.168 79.9162 207.925C80.1411 207.686 80.1792 208.169 80.4183 208.417C80.6654 208.664 80.6786 207.454 80.9463 207.585C81.2207 207.715 81.368 208.336 81.6437 208.141C81.9168 207.946 82.303 208.309 82.3869 208.024C82.4645 207.74 82.6499 208.509 82.806 208.293C82.9601 208.078 83.0946 208.151 83.33 208.358C83.5584 208.567 84.1483 208.639 84.2525 208.281C84.328 208.019 84.5453 208.203 84.7228 208.351C85.6653 207.565 86.4551 206.837 86.9663 206.286C87.7514 205.44 88.6367 204.622 89.4383 203.813C90.7428 202.478 91.6388 200.68 92.1003 199.405C92.3251 198.771 92.4947 198.27 92.6303 197.88C92.6874 197.715 92.7499 197.648 92.7997 197.657L92.8223 197.665C92.8715 197.698 92.8976 197.832 92.8661 198.023C92.676 199.103 92.3905 200.706 91.6985 202.584C91.3442 203.52 90.9284 204.199 90.4671 204.738C89.2541 206.101 88.2784 206.751 85.6725 209.091C85.8845 209.039 86.098 208.981 86.3128 208.919C88.3837 208.228 90.562 207.119 93.3529 205.457C93.8862 205.124 94.345 204.778 94.6833 204.446C95.9865 201.591 95.3984 198.986 96.8239 192.286C96.9622 191.577 97.0759 190.909 97.1613 190.327L97.2051 189.945L97.4209 189.697C101.59 185.157 101.677 183.429 106.144 177.732C111.051 171.471 117.889 164.057 120.715 160.215C121.47 159.188 122.342 158.003 123.072 156.854C124.253 154.366 123.756 148.989 123.351 144.268C122.792 138.266 121.131 131.043 119.785 124.367ZM84.2014 200.829C84.2482 200.655 84.458 200.552 84.8177 200.633C84.9991 200.673 85.1474 200.84 85.1598 200.983C85.1778 201.192 85.0244 201.203 85.1764 201.447C85.4809 201.934 85.5917 202.128 85.2302 202.037C84.8712 201.944 85.3375 202.519 85.2016 202.537C85.0643 202.555 84.7604 202.25 84.6085 202.874C84.4526 203.501 84.2858 203.775 84.1868 203.979C84.0861 204.184 83.5069 204.207 83.3406 204.535C83.1736 204.868 82.5598 205.228 82.4845 205.577C82.409 205.928 82.0975 205.555 81.7539 205.485C81.4095 205.414 82.0185 206.462 81.6955 206.501C81.3729 206.538 80.9496 206.062 80.7922 206.364C80.6311 206.668 80.1226 206.507 80.1686 206.799C80.2134 207.092 79.7312 206.467 79.6791 206.725C79.627 206.982 79.4709 206.969 79.181 206.863C78.8937 206.756 78.3422 206.888 78.3767 207.253C78.4078 207.62 77.914 207.302 77.7324 207.272C77.6759 207.263 77.6173 207.237 77.5637 207.205C77.541 207.191 77.5068 207.152 77.4774 207.111C77.4408 207.06 77.4108 207.006 77.4169 206.992C77.4472 206.922 77.4667 206.783 77.4242 206.533C77.3432 206.068 77.6414 206.431 77.7397 206.09C77.8363 205.766 77.7349 205.35 78.0791 205.324H78.1914C78.5515 205.292 77.9681 204.371 78.7174 204.618C79.493 204.869 78.7844 203.857 79.0415 203.45C79.2964 203.044 80.1674 203.215 80.3433 202.995C80.5178 202.777 80.7024 202.433 81.0977 202.303C81.497 202.169 81.5686 201.548 82.0747 201.468C82.5829 201.387 83.2766 201.214 83.6528 201.18C84.0286 201.147 84.1181 201.134 84.2014 200.829ZM70.8796 206.645C70.9095 207.155 71.1815 206.891 71.4554 206.626C71.2659 206.624 71.0689 206.622 70.8769 206.617C70.8773 206.626 70.8794 206.635 70.8796 206.645Z" fill="black"/>
<path d="M1.89692 153.018C1.89692 145.609 4.37748 120.908 4.37748 120.908L28.2836 131.311C28.2836 131.311 25.7495 145.289 26.2781 153.018C32.2601 163.022 34.3324 174.094 40.3517 177.448C46.371 180.802 43.746 178.514 47.8606 181.382C51.9752 184.251 60.3462 185.631 61.11 187.16C61.8738 188.688 62.1941 191.317 59.7327 193.239C57.2714 195.161 47.1747 189.07 47.1747 189.07C47.1747 189.07 51.2452 195.746 53.8944 196.611C56.5437 197.476 57.0972 198.143 60.3462 198.296C63.5952 198.449 62.694 203.772 62.505 204.485C62.3159 205.198 60.1832 205.758 58.0093 205.758C54.8976 207.95 53.1021 208.102 47.8606 205.758C47.8606 205.758 49.5451 206.667 47.8606 207.939C46.176 209.211 40.2666 207.338 40.2666 207.338C41.151 208.052 41.7697 208.521 41.7697 208.521C41.7697 208.521 41.422 209.103 38.8157 208.521C36.2093 207.939 31.695 205.51 29.9536 203.809C28.2121 202.107 27.0394 189.07 27.0394 189.07C27.0394 189.07 1.89692 160.426 1.89692 153.018Z" fill="white"/>
<path d="M2.66523 120.736C2.65634 120.806 2.64797 120.873 2.63667 120.968C2.21411 124.391 1.9083 131.613 1.30767 137.203C0.908112 141.064 0.339185 147.628 0.222426 153.018C0.492274 156.32 1.7222 157.944 2.31654 159.378C4.4949 163.642 4.97885 163.325 7.31173 166.286C9.68753 169.206 10.4829 172.277 13.4327 175.785C16.3862 179.258 17.3154 179.4 20.522 183.505C22.2746 185.736 24.2294 187.888 25.8213 189.627C26.0098 191.22 26.1691 192.532 26.1813 193.447C26.2309 195.797 27.0067 195.931 27.4293 199.236C27.8096 201.299 27.7945 202.681 29.2438 204.535C30.0905 205.28 30.9766 205.789 32.01 206.319C33.3038 206.952 35.7754 208.314 38.7062 209.012C39.2249 209.118 39.7475 209.206 40.2909 209.244C40.5608 209.261 40.8371 209.268 41.129 209.24C41.2746 209.225 41.4247 209.202 41.5853 209.155C41.6659 209.131 41.7484 209.102 41.8384 209.056C41.8728 209.039 41.9118 209.016 41.9513 208.99C42.0668 209.242 42.1461 209.607 42.5736 209.256C43.2227 208.706 43.034 209.927 43.5585 210.182C44.0866 210.436 44.8759 209.837 45.209 209.911C45.547 209.989 46.0307 210.154 46.5719 209.95C47.0714 209.738 47.9552 210.073 48.6945 209.248C48.7208 209.215 48.747 209.181 48.7729 209.147C48.9823 208.814 49.2194 208.27 49.3162 207.759C49.7242 208.222 50.0063 208.402 50.1989 208.545C50.4063 208.699 51.0021 208.489 51.3632 208.717C51.7265 208.956 52.6009 208.986 52.9565 209.229C53.3168 209.479 53.3534 208.992 53.6432 208.725C53.9135 208.453 54.2176 209.642 54.6169 209.424C54.9726 209.213 54.9309 208.644 55.2804 208.61H55.4378C55.8361 208.577 56.0545 208.102 56.2939 208.268C56.5618 208.44 56.2661 207.709 56.5516 207.77C56.8413 207.828 56.9299 207.666 56.984 207.344C57.0422 207.024 57.4206 206.54 57.771 206.685C58.1235 206.832 58.0223 206.238 58.0626 206.051C58.0763 205.992 58.0735 205.927 58.0626 205.864C58.0617 205.859 58.0588 205.854 58.0566 205.848C58.0927 205.875 58.1486 205.895 58.2227 205.898C58.8899 205.921 59.8725 205.98 61.1197 205.886C61.5506 205.848 61.9174 205.766 62.2548 205.618C62.5762 205.453 62.9619 205.303 63.176 204.663C63.3529 203.678 63.4204 202.951 63.3739 200.935C63.3165 200.114 63.1715 199.308 62.6812 198.562C62.2036 197.805 61.2578 197.299 60.3965 197.232C59.2273 197.071 58.1708 196.962 56.6798 196.52C55.7171 196.236 54.9427 195.878 54.239 195.557C53.825 195.276 53.4515 194.859 52.9472 194.273C53.7897 194.633 54.6995 194.958 55.6862 195.207C57.0535 195.406 58.4414 196.21 60.872 194.698C62.2058 193.606 63.135 191.874 63.2451 190.323C63.3824 188.767 62.9766 187.527 62.5723 186.614C62.5497 186.563 62.5263 186.514 62.5025 186.464C61.9065 185.454 61.4208 185.342 60.9955 185.058C60.5656 184.819 60.1582 184.636 59.7409 184.46C58.9056 184.11 58.0646 183.811 57.1879 183.507C55.4437 182.905 53.5892 182.32 51.7743 181.648C50.7283 181.257 49.6558 180.747 48.7543 180.101C48.1775 179.689 47.6134 179.279 46.9551 178.855C46.6239 178.645 46.2464 178.414 45.7782 178.22C45.2993 178.028 45.0505 177.958 44.7687 177.839C43.6312 177.36 42.3725 176.66 41.1417 176.031C40.7714 175.844 40.4098 175.625 40.0591 175.383C36.7701 173.182 33.9831 166.993 32.5606 164.454C31.1463 161.823 30.8225 161.175 29.7379 158.506C29.1122 156.976 27.9978 154.961 26.7518 153.463C26.5033 153.166 26.3412 153.034 26.2604 153.037C26.268 153.029 26.2764 153.02 26.2836 153.01C26.2863 153.007 26.2883 153.002 26.2909 152.999C26.4076 153.128 26.4912 152.601 26.524 151.604C26.6337 149.261 26.6647 147.33 27.0235 146.143C27.7619 143.776 28.0702 142.795 28.1167 139.729C28.181 136.663 29.1362 135.341 29.3315 133.575C29.4154 132.841 29.3903 132.404 29.4689 131.526L29.6562 130.621L28.7643 130.207C27.56 129.799 25.516 128.983 20.7192 126.682C12.7008 122.836 8.18383 120.773 5.06419 119.33L2.96144 118.355L2.66523 120.736ZM6.50742 123.524C13.2775 126.167 22.7156 129.892 27.5754 131.74C27.0361 136.373 26.9084 137.637 26.2365 142.248C25.8613 144.97 25.6209 148.789 26.0452 151.993C26.0473 152.007 26.0504 152.021 26.0525 152.035C25.9617 152.013 25.8558 151.983 25.7689 151.807C25.5667 151.402 25.6021 150.901 25.0509 150.882C24.5054 150.869 25.0295 149.802 24.1065 150.031C23.1956 150.272 23.7526 149.17 23.2371 148.698C22.7188 148.227 21.6516 148.449 21.321 148.225C20.9877 147.998 20.5601 147.634 19.9774 147.547C19.3951 147.46 18.9168 146.803 18.226 146.832C17.5394 146.86 16.5873 146.884 16.1259 146.976C15.6672 147.067 15.5541 147.086 15.2419 146.815C15.0675 146.662 14.7369 146.634 14.4024 146.86C14.2206 146.97 14.1911 147.193 14.2755 147.333C14.4009 147.538 14.5853 147.491 14.583 147.785C14.5847 148.373 14.5861 148.6 14.9177 148.374C15.2621 148.154 15.1073 148.881 15.2698 148.851C15.4251 148.819 15.5812 148.411 16.1252 148.979C16.6675 149.55 16.9859 149.777 17.2038 149.955C17.4153 150.13 18.0827 150.007 18.4239 150.31C18.7662 150.611 19.6204 150.876 19.8385 151.234C20.0582 151.59 20.2714 151.155 20.6548 151.045C21.0366 150.935 20.6862 152.105 21.0659 152.116C21.4506 152.13 21.8024 151.597 22.0848 151.92C22.3613 152.239 22.9271 152.068 22.9468 152.385C22.9641 152.7 23.3903 152.034 23.5167 152.317C23.6412 152.601 23.8234 152.595 24.151 152.5C24.4779 152.403 25.1828 152.613 25.2057 153.017C25.2267 153.418 25.7763 153.142 25.9954 153.144C26.0629 153.144 26.1304 153.125 26.1913 153.098C26.1968 153.096 26.2015 153.09 26.2079 153.086C26.1757 153.195 26.2556 153.484 26.441 153.902C27.0095 155.2 27.6337 156.18 27.7149 156.953C27.8702 158.497 27.9384 159.127 28.9954 160.652C30.0469 162.185 29.715 163.281 30.2208 164.228C30.7489 165.177 31.035 164.987 33.0867 170.153C35.0455 174.987 37.3495 177.694 39.5191 178.943C39.6472 179.021 39.7679 179.093 39.8817 179.162C40.6444 179.613 41.7713 180.203 43.253 180.782C43.6147 180.922 44.0843 181.071 44.3967 181.159C44.6762 181.24 44.8387 181.307 45.1446 181.472C45.7224 181.79 46.3672 182.216 46.9823 182.643C47.5203 183.017 48.0511 183.334 48.5577 183.626C50.1308 184.548 52.586 185.461 54.9271 186.242C56.0929 186.636 57.2382 187.014 58.1815 187.39C58.6501 187.577 59.0723 187.768 59.3703 187.941C59.4323 187.977 59.4888 188.013 59.537 188.046C59.797 188.914 59.8275 189.343 59.9362 189.74C60.0151 190.138 60.1693 190.555 59.8399 191.317C59.6571 191.711 59.3216 192.008 58.9307 192.213C58.8797 192.157 58.3194 192.044 57.7405 191.768C57.139 191.506 56.4439 191.183 55.5587 190.932C53.1537 190.185 52.4811 190.556 49.8509 189.019C49.1902 188.621 48.5027 188.236 47.8876 187.889L45.9967 189.788C47.277 191.753 48.6565 193.263 49.194 194.23C49.9545 195.515 50.5416 195.146 52.0652 196.675C52.5049 197.072 52.9666 197.408 53.5655 197.619C54.6677 197.996 55.5396 198.311 56.9116 198.559C57.6373 198.694 58.9397 198.842 60.3208 198.834C62.2656 198.682 62.4067 201.779 62.112 202.722C61.9879 203.24 61.897 203.831 61.8118 204.294C61.8609 204.186 61.8552 204.266 61.7806 204.328C61.7085 204.398 61.5965 204.478 61.4764 204.551C61.2336 204.7 60.9512 204.834 60.6754 204.951C60.1187 205.184 59.5719 205.353 59.1219 205.439C58.7242 205.515 58.4075 205.58 58.1622 205.641C58.0628 205.665 58.0155 205.713 58.0115 205.761C58.0098 205.759 58.0085 205.757 58.0068 205.754C58.0229 205.638 57.9825 205.52 57.9284 205.447C57.7928 205.279 57.6444 205.347 57.6335 205.057C57.6246 204.478 57.6539 204.264 57.348 204.499C57.0285 204.726 57.2063 204.004 57.0564 204.033C56.9144 204.062 56.7314 204.468 56.2574 203.874C55.7887 203.276 55.5011 203.022 55.307 202.828C55.1135 202.634 54.4518 202.7 54.138 202.364C53.8303 202.035 53.0016 201.692 52.8097 201.316C52.6173 200.941 52.3668 201.357 51.9768 201.438C51.5855 201.516 52.0187 200.376 51.6302 200.335C51.2434 200.294 50.8573 200.803 50.5901 200.466C50.3218 200.129 49.7437 200.276 49.7333 199.959C49.7191 199.64 49.2755 200.294 49.1568 200.009C49.0271 199.717 48.852 199.726 48.5152 199.814C48.193 199.911 47.4829 199.708 47.4446 199.304C47.4063 198.9 46.8714 199.202 46.6502 199.21C46.5796 199.211 46.5202 199.237 46.4536 199.262C46.4267 199.273 46.4015 199.318 46.3726 199.36C46.3384 199.412 46.2984 199.46 46.3182 199.482C46.3603 199.558 46.4317 199.728 46.4184 199.993C46.4248 200.507 46.7046 200.13 46.9132 200.529C47.1129 200.922 47.0745 201.419 47.6086 201.429C48.1408 201.439 47.5926 202.489 48.4979 202.274C49.4032 202.057 48.7971 203.134 49.2604 203.617C49.7237 204.1 50.7784 203.945 51.0835 204.193C51.389 204.442 51.7697 204.834 52.3355 204.971C52.7811 205.079 53.1273 205.536 53.5967 205.741C53.4661 205.842 53.3438 205.918 53.2454 205.887C53.0052 205.81 52.7109 205.622 52.3109 205.697C51.9005 205.771 51.5534 205.241 51.0424 205.372C50.526 205.505 49.7719 205.605 49.3873 205.712C49.0058 205.821 48.9096 205.84 48.6912 205.583C48.5596 205.433 48.3175 205.416 47.9965 205.621C47.9458 205.653 47.9052 205.698 47.8736 205.746C47.7954 205.844 47.7638 205.973 47.7694 206.062C47.7824 206.256 47.9232 206.242 47.7733 206.482C47.6325 206.697 47.5131 206.834 47.4512 206.905C47.3233 206.931 47.1682 206.928 47.2035 206.884C47.2788 206.794 47.7168 206.785 47.4021 206.692C47.1902 206.619 47.0117 206.628 46.8767 206.636C46.8726 206.591 46.865 206.565 46.8515 206.541C46.8347 206.504 46.8436 206.584 46.7817 206.671C46.7238 206.758 46.6043 206.841 46.4802 206.787C46.2458 206.687 45.663 206.808 45.4275 206.564C45.2026 206.326 45.1646 206.809 44.9254 207.057C44.6783 207.304 44.6651 206.093 44.3974 206.225C44.123 206.355 43.9757 206.976 43.7 206.781C43.4269 206.586 43.0407 206.949 42.9568 206.664C42.8792 206.38 42.6944 207.148 42.5384 206.933C42.3843 206.718 42.2491 206.791 42.0137 206.998C41.7853 207.207 41.196 207.279 41.0918 206.921C41.0166 206.66 40.7995 206.842 40.6223 206.99C39.7117 206.228 38.9491 205.524 38.4485 204.988C37.64 204.12 36.7274 203.285 35.9034 202.455C34.5998 201.124 33.7093 199.333 33.248 198.06C33.0211 197.422 32.8496 196.915 32.7134 196.522C32.6559 196.355 32.5938 196.288 32.544 196.296C32.481 196.3 32.4418 196.445 32.4783 196.665C32.671 197.755 32.9601 199.373 33.6665 201.264C34.0163 202.176 34.4254 202.845 34.8779 203.376C36.1138 204.771 37.0852 205.412 39.6991 207.747C39.4769 207.694 39.253 207.634 39.0283 207.569C36.8902 206.849 34.6576 205.704 31.8088 203.967C31.3539 203.674 30.9599 203.375 30.6605 203.086C29.2661 200.044 29.9304 197.455 28.4807 190.563C28.3721 190 28.2773 189.443 28.2037 188.965L28.1572 188.558L27.9181 188.299C23.3787 183.618 23.3266 181.899 18.8025 176.061C13.9139 169.749 7.40079 161.989 5.27606 157.799C4.51461 156.341 3.56025 154.362 3.52931 153.018C3.60544 149.441 3.95056 145.206 4.17687 140.884C4.46712 135.571 5.25171 129.305 5.80938 123.246C6.0429 123.339 6.27502 123.433 6.50742 123.524ZM54.6953 205.876C54.8596 205.883 55.0255 205.89 55.1861 205.894C55.0811 206.338 54.8958 206.142 54.6953 205.876ZM41.1423 199.469C41.0955 199.295 40.8857 199.192 40.526 199.273C40.3447 199.313 40.1963 199.48 40.1839 199.623C40.166 199.831 40.3193 199.843 40.1673 200.087C39.8628 200.574 39.7521 200.767 40.1135 200.677C40.4726 200.583 40.0064 201.158 40.1421 201.177C40.2794 201.195 40.5833 200.89 40.7352 201.514C40.8911 202.14 41.058 202.415 41.1569 202.619C41.2576 202.824 41.8375 202.846 42.0037 203.175C42.1709 203.508 42.7846 203.868 42.8598 204.217C42.9355 204.568 43.2468 204.195 43.5904 204.124C43.9344 204.054 43.3253 205.102 43.6482 205.14C43.9708 205.178 44.3941 204.702 44.5515 205.004C44.7126 205.308 45.2212 205.147 45.1751 205.439C45.1303 205.732 45.6125 205.106 45.6646 205.364C45.7167 205.622 45.8728 205.608 46.1627 205.503C46.432 205.403 46.9337 205.512 46.967 205.827V205.953C46.9962 206.221 47.4409 205.94 47.6113 205.912C47.6678 205.903 47.7264 205.877 47.78 205.845C47.8027 205.831 47.8369 205.792 47.8663 205.751C47.9029 205.7 47.9329 205.646 47.9268 205.631C47.8965 205.562 47.8776 205.423 47.9201 205.173C48.0012 204.708 47.7023 205.071 47.604 204.729C47.5075 204.406 47.6089 203.99 47.2653 203.964H47.1523C46.7925 203.932 47.3758 203.011 46.627 203.258C45.851 203.509 46.5594 202.497 46.3022 202.089C46.0473 201.683 45.1763 201.855 45.0005 201.635C44.8259 201.417 44.6414 201.073 44.246 200.942C43.8468 200.809 43.7755 200.188 43.2696 200.107C42.7615 200.027 42.0679 199.854 41.6916 199.82C41.3155 199.787 41.2257 199.774 41.1423 199.469ZM59.5915 188.083C59.6309 188.112 59.6606 188.138 59.6778 188.156C59.7169 188.188 59.6905 188.216 59.5915 188.083Z" fill="black"/>
<path d="M48.3089 71.9795C48.3334 71.9826 48.3512 71.9884 48.3554 71.9961C48.397 72.0705 48.5025 72.1824 48.7327 72.3188C49.1607 72.5714 48.6932 72.6065 48.9074 72.9571C49.12 73.3086 49.5495 73.545 49.2474 73.9474C48.9438 74.3434 50.1164 74.5185 49.4035 75.0552C48.6881 75.5765 49.9115 75.7467 50.0132 76.351C50.1137 76.955 49.3448 77.598 49.3537 77.9476C49.3629 78.3 49.439 78.7841 49.2029 79.2461C48.9677 79.7063 49.2753 80.3723 48.8954 80.8574C48.5164 81.343 48.0151 82.0244 47.7059 82.3205C47.3971 82.6163 47.3259 82.6891 47.4057 83.0471C47.4504 83.2577 47.3164 83.4964 46.9567 83.6528C46.7769 83.7257 46.5648 83.6534 46.4845 83.5226C46.3684 83.325 46.4966 83.2206 46.2427 83.0763C45.7327 82.8 45.5394 82.6827 45.898 82.5443C46.2582 82.3952 45.5555 82.1609 45.6629 82.0529C45.7689 81.9508 46.197 82.0324 45.985 81.3528C45.7713 80.6753 45.7452 80.3204 45.7061 80.0756C45.6674 79.8285 46.1206 79.4027 46.0461 78.999C45.9729 78.5969 46.2088 77.8399 46.0295 77.498C45.8511 77.1578 46.3324 77.2213 46.6339 77.0019C46.9351 76.7803 45.7695 76.4388 45.9717 76.1557C46.1738 75.8717 46.8116 75.8902 46.7043 75.5234C46.5964 75.1593 47.0585 74.8454 46.8099 74.6667C46.5614 74.4917 47.3506 74.5335 47.1905 74.2961C47.0299 74.0631 47.1405 73.9345 47.4063 73.7528C47.674 73.5694 47.911 72.9643 47.5943 72.7426C47.2798 72.5261 47.8231 72.2776 47.9476 72.1176C47.9865 72.0693 48.0407 72.0306 48.0971 72C48.1211 71.9872 48.1716 71.9789 48.2219 71.9768L48.3089 71.9795ZM72.8479 71.9761C72.9102 71.9684 72.9727 71.9675 72.982 71.9781C73.0273 72.0299 73.1389 72.1017 73.3772 72.1734C73.8214 72.307 73.3587 72.3854 73.6063 72.6097C73.8542 72.8341 74.3055 72.9314 74.0626 73.262C73.8196 73.5926 74.9992 73.5149 74.3874 74.0151C73.7762 74.515 75.0057 74.4068 75.2209 74.8022C75.4356 75.1979 74.8255 75.8076 74.9127 76.0515C75 76.2952 75.1847 76.6143 75.0675 76.9899C74.9502 77.3656 75.4124 77.7538 75.1731 78.1821C74.9335 78.6105 74.6381 79.211 74.4259 79.4978C74.2138 79.7845 74.167 79.8541 74.3469 80.0823C74.4501 80.2134 74.3931 80.4187 74.0985 80.6229C73.9501 80.7257 73.7271 80.7345 73.611 80.6641C73.4413 80.5611 73.5317 80.4483 73.2477 80.4197C72.6803 80.3626 72.4621 80.335 72.7635 80.1361C73.0644 79.9373 72.3258 79.9536 72.3982 79.8505C72.4708 79.7474 72.9014 79.6949 72.5111 79.2654C72.1207 78.8357 72.0033 78.5883 71.9014 78.4199C71.7996 78.2514 72.127 77.8323 71.9559 77.5584C71.7849 77.2845 71.8351 76.6779 71.5846 76.4672C71.3344 76.2566 71.8155 76.1962 72.0608 75.9704C72.306 75.7444 71.0982 75.741 71.2366 75.4856C71.3756 75.23 72.0025 75.1156 71.827 74.8646C71.6517 74.6136 72.0495 74.2911 71.7752 74.2037C71.5013 74.1164 72.2839 74.0059 72.0887 73.8577C71.8934 73.7096 71.9826 73.5943 72.2189 73.4141C72.4553 73.2338 72.6161 72.7502 72.2827 72.623C71.9489 72.4961 72.4679 72.2389 72.5829 72.109C72.6186 72.0685 72.6705 72.0339 72.725 72.0054C72.7481 71.9933 72.798 71.9824 72.8479 71.9761Z" fill="black"/>
<path d="M92.5957 110.626C92.6129 110.857 92.6337 111.065 92.6588 111.244C92.8813 112.82 92.3962 112.824 92.1248 114.098C91.8535 115.372 93.052 116.376 92.8826 117.929C92.8683 118.061 92.8511 118.183 92.8308 118.298L92.9597 120.12L90.8589 120.269C89.6234 120.05 89.2904 119.528 87.6623 119.659C85.8835 119.802 84.1034 119.367 83.3114 119.628C82.5195 119.889 82.4356 119.099 81.3109 119.275C80.1864 119.45 79.5049 119.347 78.5214 119.09C77.5377 118.833 74.5157 118.614 73.4166 118.929C72.3177 119.245 71.0641 118.697 70.3103 118.567C70.0756 118.527 69.8907 118.471 69.7491 118.414C69.6893 118.389 69.6615 118.339 69.6614 118.288C69.6614 118.285 69.6625 118.282 69.6628 118.278C69.5431 118.355 69.424 118.178 69.3539 117.814C69.1981 117.005 69.3021 116.34 69.0238 115.923C68.4677 115.09 68.2539 114.736 68.5775 113.684C68.9012 112.632 68.1661 112.136 68.2507 111.523C68.2924 111.222 68.4182 111.071 68.4958 110.626L68.4194 109.548L69.6614 109.46C70.1224 109.541 70.899 109.569 72.4848 109.399C75.6026 109.065 77.3121 108.98 78.4928 108.9C79.6735 108.819 82.1389 109.196 84.0632 109.06C85.77 108.939 89.0409 109.024 90.8589 108.889L92.4655 108.776L92.5957 110.626ZM70.2339 111.38C70.0512 112.673 70.0214 113.16 70.1556 114.618C70.242 115.556 70.1605 116.85 69.8427 117.942C69.8164 118.033 69.7873 118.104 69.7584 118.16C69.7657 118.158 69.7736 118.156 69.7816 118.156C70.156 118.117 70.7154 118.015 71.3763 117.788C72.6087 117.363 72.7436 117.832 74.4076 117.614C76.0718 117.396 77.072 116.96 79.0301 117.242C80.9882 117.524 81.4381 116.344 84.202 117.012C86.5378 117.578 87.1077 116.783 88.8903 116.425C88.9983 114.903 89.1978 113.4 89.2756 112.262C88.0417 112.301 86.6642 112.316 85.2414 112.217C82.8875 112.054 79.9814 112.466 77.383 112.175C75.1481 111.925 72.1179 111.617 70.2339 111.38Z" fill="black"/>
</svg>
