<svg width="186" height="198" viewBox="0 0 186 198" fill="none" xmlns="http://www.w3.org/2000/svg">
<path d="M67.1677 14.0081C68.4696 15.2934 69.6745 18.3968 70.3375 20.1038C70.3499 20.135 70.3623 20.1662 70.3747 20.1974C70.5321 20.6025 70.7013 20.9759 70.9003 21.4131C71.3747 22.4558 72.0154 23.8645 73.0534 26.9479C73.4722 27.7891 73.8851 28.6334 74.2907 29.4809C78.6715 38.6338 82.5876 48.0091 86.412 57.4282C86.4702 57.5425 86.5294 57.6587 86.5893 57.776C87.7457 60.0441 89.1795 62.8566 89.8317 64.7428C90.6609 67.1409 91.1595 68.8005 91.5591 70.1684C94.5909 77.6526 97.6705 85.1141 100.985 92.4632C102.023 94.7665 103.086 97.0588 104.176 99.3374C105.181 101.436 106.203 103.526 107.24 105.608C107.947 106.772 108.647 107.864 109.297 108.878C110.209 110.301 111.021 111.569 111.609 112.656C113.024 115.276 114.273 118.417 115.2 120.75C115.352 121.132 115.495 121.492 115.628 121.824C116.564 123.582 117.504 125.338 118.447 127.092C118.457 127.234 118.467 127.378 118.476 127.524C118.59 129.352 119.499 131.231 120.928 134.189C121.551 135.477 122.272 136.97 123.07 138.752C123.584 139.901 123.618 140.601 123.645 141.173C123.654 141.342 123.661 141.499 123.68 141.654C123.746 142.183 124.141 142.584 124.607 143.059C125.212 143.674 125.939 144.412 126.223 145.711C127.13 149.847 128.506 151.202 129.548 152.227C129.853 152.528 130.13 152.801 130.357 153.107C131.095 154.098 131.629 155.758 131.902 157.076C132.118 158.12 133.242 159.88 134.211 161.158C134.577 161.641 134.927 162.365 135.338 163.217C135.764 164.099 136.255 165.12 136.902 166.154C138.537 168.768 139.39 170.164 140.076 171.287C140.272 171.607 140.453 171.905 140.636 172.203C141.213 173.143 141.886 174.33 142.567 175.532C143.383 176.971 144.21 178.431 144.899 179.513C146.177 182.562 147.42 185.628 148.663 188.693C149.3 190.268 149.47 191.991 149.109 193.493C148.747 194.995 147.891 196.151 146.703 196.72C145.514 197.289 144.077 197.23 142.68 196.57C141.284 195.909 140.047 194.697 139.221 193.212C137.557 190.221 135.893 187.229 134.268 184.22C132.288 180.553 130.365 176.859 128.569 173.105C127.312 170.479 126.083 167.839 124.877 165.189C124.753 164.916 124.629 164.643 124.506 164.37C123.157 162.304 121.837 160.229 121 158.723C120.308 157.48 120.017 156.471 119.768 155.607C119.597 155.013 119.445 154.487 119.196 154C119.063 153.739 118.872 153.386 118.641 152.961C117.701 151.223 116.104 148.272 115.069 145.378C114.61 144.093 114.179 142.552 113.768 141.081C113.18 138.977 112.632 137.015 112.097 136.148C111.158 134.626 110.423 132.717 109.773 131.03C109.153 129.42 108.611 128.013 108.044 127.336C107.366 126.528 107.087 125.696 106.67 124.459C106.382 123.601 106.026 122.549 105.428 121.174C104.737 119.586 104.375 118.403 104.066 117.397C103.633 115.981 103.306 114.916 102.323 113.566C101.23 112.066 100.213 110.44 99.6615 109.039C99.4101 108.401 99.0617 107.701 98.6992 106.972C98.2191 106.007 97.7145 104.992 97.3772 104.006C97.0992 103.194 97.0256 102.448 96.9605 101.788C96.9402 101.582 96.9203 101.384 96.8957 101.195C96.5996 100.584 96.302 99.9735 96.002 99.3642C95.9173 99.2827 95.8263 99.1982 95.7318 99.1096C95.2574 98.6653 94.6748 98.1188 94.1467 97.3496C93.311 96.1323 92.8873 94.9159 92.4412 93.6323C92.0938 92.6329 91.7328 91.593 91.1515 90.4809C90.7551 89.7225 90.2405 88.8894 89.7303 88.0635C88.9727 86.8368 88.225 85.6252 87.8871 84.6965C87.7606 84.3485 87.7686 83.9933 87.7774 83.6416C87.7777 83.6399 87.778 83.6382 87.7783 83.6366C87.7789 83.6127 87.7792 83.5888 87.7797 83.565C86.6352 81.4571 85.4792 79.3544 84.3169 77.2551C84.19 77.0857 84.0628 76.914 83.9369 76.7438C83.3217 75.9121 82.724 75.104 82.2025 74.6402C81.6373 74.1375 80.7267 72.6294 79.767 71.0402C79.1386 69.9995 78.489 68.9234 77.9016 68.0723C77.5582 67.5747 77.4629 66.9924 77.3653 66.3931C77.2742 65.8339 77.1806 65.2598 76.8807 64.7269C76.7305 64.4599 76.5261 64.1917 76.3079 63.9056C76.1158 63.6536 75.9125 63.3874 75.7265 63.0958C75.5538 62.8247 75.3284 62.145 75.0385 61.2738C74.8594 60.7353 74.6554 60.1238 74.425 59.4897C73.5658 57.9335 72.7104 56.3753 71.8613 54.8143C71.5706 54.543 71.2621 54.3345 70.9342 54.2095C70.699 54.1198 70.4449 54.0692 70.1848 54.0168C69.8308 53.9455 69.465 53.8715 69.1169 53.6948C68.8449 53.5567 68.6549 53.3312 68.6417 53.125C68.6356 53.029 68.6672 52.9379 68.6956 52.8553C68.7282 52.7607 68.757 52.6764 68.7219 52.6071C68.6964 52.5572 68.6264 52.5261 68.5412 52.4874C68.405 52.4256 68.2288 52.3449 68.1271 52.1425C67.7483 51.3891 67.3704 50.5076 67.0005 49.6439C66.5891 48.6835 66.1868 47.7449 65.8024 47.0276C65.3718 46.2241 64.9781 44.9739 64.583 43.722C64.3073 42.8486 64.0305 41.9743 63.7415 41.249C63.4582 40.5382 63.0229 39.8652 62.6007 39.2138C62.0939 38.4319 61.6059 37.6801 61.4259 36.9289C61.3896 36.7769 61.4882 36.5194 61.6113 36.1967C61.6986 35.9679 61.7978 35.7052 61.8711 35.4252C61.456 34.5579 61.0483 33.687 60.6469 32.8131C60.6078 32.7943 60.5678 32.7747 60.5273 32.7554C60.5264 32.7551 60.5256 32.7549 60.5248 32.7547C59.6094 32.3173 58.3571 31.7187 58.1704 30.1248C58.123 29.7197 58.2382 29.3952 58.3418 29.103C58.4435 28.8159 58.5346 28.5593 58.4498 28.2881C58.3533 27.9802 58.0711 27.6972 57.7637 27.3885C57.3321 26.9551 56.8499 26.471 56.7603 25.7966C56.7542 25.7505 56.7479 25.7009 56.7408 25.6494C56.6733 25.1618 56.5732 24.44 56.6768 23.6245C55.8991 21.7243 55.1397 19.8151 54.3919 17.9006C53.1454 14.7093 51.9307 11.5021 50.7162 8.29581C50.1269 6.73521 49.9858 5.03548 50.3543 3.55612C50.724 2.07609 51.5661 0.940823 52.732 0.382782C53.8979 -0.175127 55.3096 -0.118569 56.694 0.521805C58.0774 1.16273 59.3126 2.33867 60.1584 3.7766C61.5352 6.12246 62.9126 8.46897 64.2736 10.8228C64.3591 10.9393 64.4441 11.0568 64.5274 11.1744C65.147 12.0494 65.8984 12.7767 66.6505 13.5044C66.8233 13.6716 66.9964 13.839 67.1677 14.0081Z" fill="black"/>
<path d="M105.614 49.4882C105.341 49.5602 104.954 49.1711 104.632 49.1506C103.279 49.0606 102.778 48.7908 101.555 48.6379C99.7407 48.4106 94.3566 48.9221 94.3564 46.2187C94.3564 46.2187 94.3564 46.2186 94.3564 46.2185C94.3564 46.192 94.357 46.1652 94.358 46.1381C94.3769 45.6231 94.8348 45.0609 94.9028 44.4784C94.9706 43.8958 94.9197 40.1342 95.5702 39.9228C96.5132 39.6441 98.7755 40.6086 99.2785 40.5658C99.6224 40.5364 100.046 40.1944 100.485 40.1337C101.903 39.938 102.645 40.1881 103.922 39.2592C104.433 39.7487 104.944 40.2382 105.455 40.7277C106.122 40.5007 107.132 41.1463 107.537 41.1107C107.869 41.0815 108.064 40.6944 108.41 40.6764C108.798 40.6541 109.395 41.0719 110.101 41.0089C111.259 40.9077 111.466 39.8979 112.16 39.7697C112.881 39.637 114.002 40.1858 114.921 39.8305C115.036 39.7194 115.152 39.6083 115.267 39.4972C115.184 39.246 115.102 38.9948 115.019 38.7435C115.482 38.6266 115.681 39.1415 116.107 39.1508C116.608 39.162 116.863 38.6739 117.2 38.6762C117.476 38.6784 117.85 39.0698 118.208 39.0453C118.73 39.0116 118.616 38.4465 118.897 38.3407C119.009 38.2996 121.08 37.9878 121.197 37.9833C122.085 37.961 122.163 38.7345 122.871 38.8021C124.837 38.9866 126.854 38.3616 128.672 38.1254C129.484 38.0197 130.331 38.0647 131.14 38.1884C129.865 40.168 132.687 41.7086 131.631 38.611C132.532 39.0517 133.17 38.2154 134.024 38.3568C134.576 38.4491 134.959 38.8786 135.747 38.8673C137.146 38.8446 138.676 37.6237 139.079 39.8305C140.721 39.4414 142.143 40.2419 142.735 38.2938C143.159 38.1748 144.244 39.3352 144.719 39.4928C145.168 39.6413 148.615 40.1652 149.179 40.1945C149.743 40.2237 150.73 40.2555 151.205 40.0846C151.801 39.8731 152.218 37.8528 153.281 40.215C154.516 40.0238 154.956 40.0914 156.104 40.3659C156.312 40.4155 156.336 40.7662 156.457 40.7665C156.708 40.7665 157.133 40.5073 157.58 40.4757C158.315 40.424 158.734 41.1619 158.652 40.0348C159.136 39.8458 159.621 39.6569 160.105 39.4679C160.275 39.6854 160.445 39.903 160.615 40.1205C160.874 39.8834 161.133 39.6464 161.392 39.4093C161.088 41.0403 162.91 40.0778 162.318 39.142C163.257 39.4794 164.196 39.8168 165.135 40.1542C165.004 42.0078 167.197 40.3681 167.012 39.3602C167.119 39.3617 167.227 39.3632 167.334 39.3646C168.275 39.8573 169.139 39.4544 170.285 39.7851C171.431 40.1157 171.324 40.2962 171.672 41.1488C171.942 41.1 172.212 41.0512 172.482 41.0023C173.897 38.665 173.647 42.7118 176.071 40.9188C176.823 42.3446 178.643 41.6597 179.907 41.2109L182.306 41.3363L182.193 43.4971C182.206 43.5354 182.22 43.5732 182.233 43.6105C182.285 43.7577 182.57 43.7603 182.658 43.9564C182.869 44.436 182.503 45.6598 183.422 45.6179C183.156 46.0415 182.89 46.4652 182.624 46.8888C182.791 47.235 182.959 47.5813 183.126 47.9275C183.413 47.9258 183.7 47.924 183.987 47.9223C183.009 48.6195 183.385 49.7151 183.151 50.2555C183.103 50.363 182.707 50.3863 182.599 50.7206C182.471 51.1113 182.588 51.8394 182.464 52.305C182.903 52.486 183.342 52.667 183.781 52.848C184.019 53.6806 182.861 53.9733 182.771 54.4622C182.755 54.5503 182.838 56.1563 182.863 56.2428C183.059 56.9512 184.045 56.7506 183.834 58.7994C183.796 59.1643 183.454 59.4593 183.441 59.7891C183.416 60.3717 184.19 62.1271 184.906 62.2651C184.01 62.9717 184.376 64.8622 184.118 65.419C184.038 65.5871 183.468 65.625 183.346 66.1416C183.247 66.5604 183.704 67.639 183.628 68.1701C183.544 68.7339 183.065 68.9352 183.031 69.1878C183 69.4265 183.387 69.6465 183.384 69.9717C183.371 70.9869 182.748 71.9063 182.737 72.7087C182.719 73.8692 183.864 74.8943 184.372 75.8652C184.298 76.1062 184.052 76.343 184.05 76.5957C184.014 79.7214 183.803 83.2474 183.558 86.3824C183.445 87.8378 181.891 91.457 184.484 90.491C184.939 90.9968 183.893 94.6743 183.877 95.3739C183.862 96.0732 184.327 96.6276 184.334 97.1772C184.354 98.836 184.019 100.004 184.424 102.023C184.53 102.545 185.08 103.104 185.074 103.412C185.065 103.784 184.532 104.185 184.498 104.667C184.422 105.815 184.597 107.956 184.505 109.058C184.487 109.259 184.019 109.33 183.873 109.618C183.302 110.738 183.351 111.995 184.845 111.772C183.997 113.209 184.77 114.537 184.818 115.869C184.914 118.683 184.566 123.81 185.193 126.262C185.589 127.808 186.259 127.769 185.681 130.045C185.553 130.55 185.38 131.053 185.227 131.666C184.867 133.103 183.63 134.421 185.121 135.516C184.734 137.111 185.008 138.382 183.733 139.566C184.039 139.705 184.345 139.845 184.651 139.984C184.658 140.18 184.666 140.375 184.673 140.571C184.382 140.632 184.09 140.693 183.798 140.754C183.72 142.155 184.919 143.933 184.91 145.119C184.904 145.991 184.811 147.464 184.676 149.003L184.414 154.007L179.907 153.772C177.934 153.598 175.853 153.354 174.793 153.133C173.792 152.924 173.738 153.549 173.165 152.264C172.941 152.354 172.717 152.443 172.493 152.532C172.353 152.814 172.213 153.095 172.073 153.376C170.789 153.387 169.265 152.95 168.041 152.955C165.812 152.964 162.464 153.738 160.225 153.23C159.663 153.101 158.961 152.521 158.412 152.528C157.611 152.537 157.417 153.499 156.402 153.517C154.651 153.547 151.392 152.428 149.738 152.514C149.247 152.539 149.018 152.897 148.678 152.935C147.256 153.099 146.088 153.07 144.724 153.624C143.259 152.701 143.386 151.511 142.932 150.309C142.588 149.403 141.533 147.301 141.383 146.507C141.278 145.949 141.671 145.232 141.524 144.618C143.278 144.127 144.015 144.667 145.44 145.531C148.072 145.497 150.703 145.462 153.334 145.428C153.574 145.763 153.813 146.098 154.052 146.433C154.052 146.434 154.052 146.435 154.052 146.436C155.063 146.822 155.491 145.959 156.036 145.763C161.254 143.887 171.523 145.355 177.267 145.567C177.794 145.586 178.828 145.515 179.907 145.469L176.373 149.003C176.312 147.55 176.296 146.017 176.609 145.529C176.75 145.309 177.267 145.248 177.29 145.014C176.982 142.924 176.675 140.834 176.368 138.744C177.171 134.446 176.508 130.003 176.384 125.672C176.049 113.955 175.641 102.355 175.765 90.83C175.79 88.6026 175.402 85.7761 175.652 83.5955C175.756 82.6854 176.586 82.3062 175.967 81.1107C176.191 81.0981 176.414 81.0856 176.638 81.073C176.368 80.0297 175.859 79.363 175.807 78.1933C175.765 77.2082 175.731 74.6021 175.817 73.7317C175.86 73.2802 176.278 73.4484 176.275 73.0275C176.269 72.3069 175.691 70.7672 175.691 69.7729C175.691 68.8721 176.172 67.3535 176.103 66.661C175.855 64.1669 175.142 61.4502 175.333 58.7924C175.387 58.0582 175.929 57.1139 175.914 56.8839C175.882 56.4348 175.356 56.301 175.288 55.9993C174.946 54.4669 175.572 52.0782 175.597 50.5761C175.635 48.2602 175.604 45.8793 175.57 43.4971L179.907 47.8335C177.254 47.8706 174.6 47.9103 172.032 47.8593C168.953 47.7986 163.837 47.8912 160.994 47.4953C160.381 47.4098 160.545 46.8332 160.03 46.8332C159.459 46.8333 159.15 47.2228 158.883 47.2543C157.037 47.4748 152.962 47.8685 151.219 47.4704C150.887 47.3939 150.646 46.9421 150.447 46.9438C150.347 46.9438 150.119 47.2521 149.803 47.2836C147.015 47.5626 144.981 47.3828 142.248 47.277C137.015 47.0768 130.95 47.6504 125.452 47.34C124.254 47.2725 123.433 46.3789 123.264 46.3879C122.895 46.4059 122.658 47.007 121.91 47.1554C119.42 47.6435 116.068 47.0021 113.7 47.3034C112.53 47.4518 110.923 48.2149 109.772 48.3837C108.853 48.5187 106.681 48.2194 106.274 48.5544C106.026 48.7568 105.911 49.4068 105.614 49.4882ZM136.587 39.369C136.423 40.4084 138.144 39.5446 137.499 38.9867C137.353 38.8611 136.629 39.0992 136.587 39.369ZM182.23 80.7787C182.527 80.763 182.824 80.7472 183.121 80.7315C182.997 80.5055 182.874 80.2795 182.75 80.0536C182.572 80.1805 182.393 80.3076 182.215 80.4345C182.22 80.5493 182.225 80.664 182.23 80.7787Z" fill="black"/>
<path d="M106.843 143.012C107.211 142.94 107.729 143.329 108.163 143.349C109.979 143.439 110.651 143.709 112.294 143.862C114.731 144.089 121.961 143.578 121.961 146.281C121.961 146.281 121.961 146.281 121.961 146.281C121.961 146.308 121.96 146.334 121.959 146.362C121.933 146.877 121.318 147.439 121.227 148.021C121.136 148.604 121.204 152.365 120.331 152.577C119.064 152.856 116.027 151.891 115.351 151.934C114.889 151.963 114.321 152.305 113.73 152.366C111.827 152.562 110.831 152.312 109.115 153.241C108.429 152.751 107.743 152.262 107.057 151.772C106.162 151.999 104.805 151.353 104.261 151.389C103.815 151.418 103.554 151.805 103.089 151.823C102.567 151.846 101.766 151.428 100.818 151.491C99.2626 151.592 98.9859 152.602 98.0528 152.73C97.3106 152.832 96.2524 152.533 95.2425 152.548L97.4048 151.812C97.1644 152.003 96.9454 152.214 96.7679 152.455C96.7129 152.638 96.6579 152.82 96.6029 153.003C96.8441 153.134 97.0852 153.266 97.3264 153.397C96.9049 153.869 96.3789 153.624 95.9204 153.965C95.3807 154.366 95.4065 154.962 95.0466 155.237C94.7515 155.461 94.1145 155.457 93.7486 155.77C93.214 156.224 93.68 156.578 93.4457 156.892C93.3516 157.016 91.3377 158.959 91.2161 159.059C90.284 159.804 89.7299 159.254 88.9346 159.781C86.7305 161.244 84.9647 163.392 83.1741 165.068C82.3747 165.817 81.446 166.475 80.5091 167.039C80.6585 164.426 76.7164 165.516 79.7285 167.107C78.5014 167.495 78.3318 168.681 77.3371 169.268C76.6932 169.647 76.0246 169.62 75.1923 170.274C73.7173 171.438 72.8334 173.659 71.0593 172.24C69.5488 173.893 67.5469 174.423 68.105 176.452C67.7269 176.893 65.8643 176.862 65.2627 177.126C64.6941 177.377 60.7065 179.784 60.0886 180.223C59.4707 180.661 58.4009 181.444 57.9997 181.969C57.4938 182.625 58.2822 184.568 55.7112 183.566C55.5374 183.734 55.378 183.885 55.2284 184.022L49.6353 188.064L49.8368 181.367C49.7367 180.178 49.8201 179.555 50.0547 178.236C50.1043 177.957 50.455 177.925 50.4553 177.762C50.4553 177.426 50.1962 176.854 50.1646 176.255C50.1128 175.268 50.8507 174.705 49.7236 174.815C49.5347 174.165 49.3457 173.514 49.1568 172.864C49.3743 172.636 49.5918 172.407 49.8093 172.179C49.5723 171.832 49.3352 171.484 49.0982 171.136C50.7291 171.545 49.7667 169.097 48.8308 169.892C49.1682 168.631 49.5056 167.37 49.843 166.109C51.6967 166.285 50.0569 163.341 49.0491 163.589C49.0506 163.445 49.052 163.3 49.0535 163.156C49.5462 161.893 49.1432 160.733 49.4739 159.194C49.8046 157.654 49.9851 157.799 50.8377 157.331C50.7888 156.969 50.74 156.606 50.6912 156.244C48.3538 154.343 52.4007 154.679 50.6077 151.424C51.3466 150.901 51.5186 149.993 51.4504 149.003L53.1859 150.738C52.2074 150.806 51.1492 151.108 50.3044 151.329C50.1067 151.381 50.1033 151.666 49.8399 151.754C49.1959 151.965 47.5526 151.599 47.6088 152.518C47.0399 152.252 46.4711 151.986 45.9022 151.72C45.4372 151.887 44.9723 152.054 44.5073 152.222C44.5097 152.509 44.512 152.796 44.5144 153.083C43.5781 152.105 42.1069 152.481 41.3812 152.247C41.2368 152.199 41.2056 151.803 40.7567 151.695C40.232 151.567 39.2543 151.684 38.6291 151.56C38.386 151.999 38.1429 152.438 37.8999 152.877C36.7818 153.114 36.3888 151.956 35.7323 151.867C35.6141 151.851 33.4574 151.934 33.3412 151.959C32.3899 152.155 32.6594 153.141 29.9081 152.93C29.4182 152.892 29.0219 152.55 28.5791 152.537C27.7968 152.512 25.4396 153.286 25.2542 154.002C24.3054 153.106 21.7667 153.472 21.019 153.213C20.7933 153.134 20.7424 152.564 20.0487 152.442C19.4863 152.343 18.038 152.8 17.3248 152.723C16.5677 152.64 16.2974 152.161 15.9581 152.127C15.6377 152.096 15.3422 152.483 14.9055 152.48C13.5422 152.467 12.3076 151.844 11.2301 151.833C9.67179 151.815 8.29524 152.96 6.99139 153.468C6.66778 153.394 6.34981 153.148 6.0105 153.146C6.007 153.146 6.0035 153.146 6 153.146L1.70193 152.979L1.85668 149.003C1.89295 144.808 2.10378 140.077 2.34878 135.871C2.4614 133.917 4.01571 129.057 1.42226 130.354C0.968072 129.675 2.01369 124.736 2.02944 123.797C2.04504 122.858 1.58 122.114 1.57314 121.375C1.55289 119.148 1.88799 117.579 1.48305 114.868C1.37719 114.168 0.826253 113.417 0.83266 113.003C0.841658 112.503 1.37449 111.966 1.40834 111.318C1.48483 109.776 1.30956 106.901 1.40175 105.421C1.41975 105.151 1.88761 105.056 2.03383 104.67C2.6052 103.165 2.55564 101.478 1.06191 101.777C1.90995 99.8477 1.13639 98.0634 1.08901 96.2758C0.992272 92.4962 1.34093 85.6114 0.713275 82.3188C0.317319 80.2427 -0.352624 80.2958 0.225481 77.2391C0.353691 76.5606 0.526625 75.8851 0.679583 75.0621C1.03952 73.1331 2.27717 71.3634 0.785785 69.8931C1.17258 67.7506 0.898278 66.0443 2.17373 64.4547C1.86782 64.2673 1.56191 64.0799 1.256 63.8925C1.24843 63.6298 1.24086 63.3671 1.2333 63.1045C1.52504 63.0225 1.81679 62.9406 2.10854 62.8587C2.18711 60.977 0.987977 58.5897 0.996723 56.9969C1.01022 54.3263 1.47608 47.4481 1.86977 44.9158C1.98828 44.1537 1.83884 43.8004 1.92108 43.4971L2.08576 39.2658L6 39.4181C6.23177 39.481 6.43433 39.6791 6.76773 40.2355C7.06842 40.1461 7.36912 40.0568 7.66981 39.9674C7.85799 39.6862 8.04617 39.4049 8.23435 39.1237C9.95916 39.1124 12.0049 39.5493 13.648 39.5448C16.6422 39.5358 21.1382 38.7618 24.1449 39.2702C24.8988 39.3984 25.8412 39.9784 26.5795 39.9718C27.654 39.9628 27.9152 39.0003 29.2787 38.9823C31.6288 38.9531 36.0054 40.0712 38.2266 39.9857C38.8864 39.961 39.1942 39.6028 39.6497 39.5646C41.56 39.4004 43.1283 39.4295 44.9599 38.8761C46.9267 39.7985 46.7568 40.989 47.3663 42.1903C47.8282 43.097 49.2446 45.1983 49.4457 45.9923C49.5869 46.5502 49.0596 47.2679 49.2575 47.882C46.9012 48.3724 45.9112 47.8325 43.9979 46.9687C40.4644 47.0031 36.9309 47.0375 33.3975 47.0719C33.076 46.7367 32.7545 46.4015 32.4331 46.0663C32.4331 46.0656 32.4331 46.0649 32.4331 46.0641C31.0761 45.6773 30.501 46.5405 29.7691 46.7365C24.0386 48.2711 13.77 47.5681 6 47.1455L9.64847 43.4971C9.55439 45.2268 9.47421 46.8327 9.43571 48.2371C9.39073 49.8992 9.84242 55.306 9.29801 56.4465C9.15623 56.7417 8.63935 56.8239 8.61686 57.138C8.92423 59.9446 9.23161 62.7512 9.53898 65.5579C8.73586 71.3294 9.39913 77.296 9.52287 83.1115C9.85806 98.8455 10.2655 114.422 10.1418 129.899C10.117 132.89 10.5043 136.685 10.2546 139.614C10.151 140.836 9.32098 141.345 9.93961 142.95C9.71598 142.967 9.49235 142.984 9.26871 143.001C9.53869 144.402 10.0475 145.297 10.0993 146.868C10.1151 147.357 10.1296 148.145 10.1373 149.003L6 144.865C7.45921 144.852 9.12018 144.859 9.85642 144.913C10.4627 144.956 10.2368 145.373 10.802 145.371C11.7697 145.365 13.8372 144.787 15.1725 144.787C16.3821 144.787 18.4213 145.268 19.3512 145.199C22.7004 144.951 26.3485 144.238 29.9175 144.429C30.9034 144.483 32.1715 145.025 32.4803 145.01C33.0834 144.978 33.2631 144.452 33.6682 144.384C35.7259 144.042 38.9337 144.668 40.9507 144.692C44.9455 144.742 49.0844 144.676 53.1859 144.639L57.3735 144.476L57.5497 149.003C57.5738 151.649 57.5861 154.281 57.5481 156.847C57.4874 160.982 57.58 167.853 57.1841 171.67C57.0986 172.493 56.522 172.274 56.522 172.965C56.5221 173.731 56.9117 174.146 56.9431 174.505C57.0848 176.098 57.2981 178.927 57.3267 181.367L50.6605 178.086C51.726 177.246 52.7309 176.524 53.4804 176.127C53.8804 175.916 54.4122 176.077 54.6228 175.913C54.7298 175.83 54.7837 175.4 55.1006 175.116C57.8984 172.611 60.172 171.088 63.1447 168.934C68.8365 164.806 74.9403 159.385 80.9807 155.129C82.2967 154.201 83.716 154.237 83.8897 154.092C84.2721 153.774 84.1574 153.104 84.8635 152.374C87.0372 150.132 90.5845 148.05 92.9535 146.028L93.8216 145.305L95.2425 145.249C95.4969 145.236 95.7448 145.219 95.9851 145.196C97.5559 145.048 99.7143 144.285 101.26 144.116C102.495 143.981 105.41 144.28 105.957 143.945C106.29 143.743 106.444 143.093 106.843 143.012ZM73.9925 170.565C73.5329 169.607 72.2279 171.701 73.2554 171.614C73.4868 171.595 74.112 170.813 73.9925 170.565ZM3.67666 143.396C3.37978 143.417 3.08291 143.438 2.78603 143.459C2.90957 143.763 3.0331 144.066 3.15664 144.37C3.33511 144.199 3.51357 144.029 3.69204 143.858C3.68691 143.704 3.68179 143.55 3.67666 143.396Z" fill="black"/>
</svg>
